<?xml version="1.0" encoding="utf-8"?>
<!-- Generator: Adobe Illustrator 19.2.1, SVG Export Plug-In . SVG Version: 6.00 Build 0)  -->
<svg version="1.1" id="Layer_1" xmlns="http://www.w3.org/2000/svg" xmlns:xlink="http://www.w3.org/1999/xlink" x="0px" y="0px"
	 viewBox="0 0 200 100" style="enable-background:new 0 0 200 100;" xml:space="preserve">
<style type="text/css">
	.st0{enable-background:new    ;}
	.st1{fill:#FFFFFF;}
	.st2{fill:#48525B;}
	.st3{fill:none;stroke:#FFFFFF;stroke-miterlimit:10;}
	.st4{fill:#FF5500;}
</style>
<g id="Group_1_" transform="translate(51.000000, 113.000000)">
	<g class="st0">
		<path class="st1" d="M49.4-29.7l3.9,5.6l0,0v-5.6h0.8v6.9h-0.8l-3.9-5.7l0,0v5.7h-0.8v-6.9C48.6-29.7,49.4-29.7,49.4-29.7z"/>
		<path class="st1" d="M59.5-27.2c0.4,0.5,0.6,1.1,0.6,1.9c0,0.7-0.2,1.4-0.6,1.9c-0.5,0.5-1.1,0.8-1.8,0.8c-0.8,0-1.3-0.3-1.8-0.8
			c-0.4-0.5-0.6-1.1-0.6-1.9s0.2-1.4,0.6-1.9c0.4-0.5,1-0.8,1.8-0.8C58.4-28,59-27.7,59.5-27.2z M56.4-26.7
			c-0.3,0.4-0.4,0.8-0.4,1.4s0.1,1,0.4,1.4c0.3,0.4,0.7,0.6,1.2,0.6s0.9-0.2,1.2-0.6s0.4-0.8,0.4-1.4s-0.1-1-0.4-1.4
			c-0.3-0.4-0.7-0.6-1.2-0.6C57.1-27.3,56.7-27.1,56.4-26.7z"/>
		<path class="st1" d="M64-27.8v0.8c-0.3-0.1-0.5-0.1-0.7-0.1c-0.4,0-0.7,0.2-1,0.5s-0.4,0.7-0.4,1.2v2.7h-0.8v-5h0.8v0.9
			c0.1-0.3,0.3-0.5,0.5-0.7c0.3-0.2,0.6-0.3,0.9-0.3C63.6-28,63.8-27.9,64-27.8z"/>
		<path class="st1" d="M68.4-27c0.2-0.3,0.4-0.6,0.7-0.7c0.2-0.2,0.5-0.2,0.9-0.2c0.5,0,0.9,0.2,1.3,0.5c0.3,0.3,0.5,0.8,0.5,1.4
			v3.3H71V-26c0-0.4-0.1-0.8-0.3-1c-0.2-0.2-0.5-0.3-0.9-0.3c-0.3,0-0.6,0.1-0.8,0.4c-0.2,0.3-0.3,0.6-0.3,1v3.1h-0.8V-26
			c0-0.9-0.4-1.3-1.2-1.3c-0.4,0-0.6,0.1-0.9,0.4c-0.2,0.3-0.3,0.6-0.3,1v3.1h-0.8v-5h0.8v0.7c0.4-0.5,0.9-0.8,1.4-0.8
			C67.6-28,68.1-27.7,68.4-27z"/>
		<path class="st1" d="M76.7-27.4c0.3,0.3,0.4,0.8,0.4,1.4v3.2h-0.7v-0.8c-0.2,0.3-0.5,0.5-0.8,0.7c-0.4,0.2-0.8,0.3-1.2,0.3
			c-0.5,0-0.9-0.1-1.2-0.4c-0.3-0.3-0.5-0.6-0.5-1c0-0.6,0.2-1,0.7-1.3c0.4-0.3,1-0.4,1.7-0.4h1.2V-26c0-0.8-0.4-1.3-1.3-1.3
			c-0.4,0-0.7,0.1-0.9,0.2c-0.3,0.2-0.4,0.4-0.5,0.7l-0.8-0.1c0.1-0.5,0.4-0.9,0.8-1.2C74-27.9,74.4-28,75-28
			C75.8-28,76.3-27.8,76.7-27.4z M75.2-25.2c-1.1,0-1.7,0.4-1.7,1.1c0,0.2,0.1,0.4,0.3,0.6c0.2,0.1,0.4,0.2,0.8,0.2
			c0.5,0,0.9-0.2,1.3-0.5s0.5-0.6,0.5-1v-0.4L75.2-25.2z"/>
		<path class="st1" d="M79.3-29.9v7.1h-0.8v-7.1H79.3z"/>
	</g>
	<g id="Group-5_2_" transform="translate(0.000000, 1.000000)">
		<g id="Rectangle-24_2_">
			<path class="st1" d="M30.4-33.5h7.1c1.8,0,3.2,1.4,3.2,3.2v7.1c0,1.8-1.4,3.2-3.2,3.2h-7.1c-1.8,0-3.2-1.4-3.2-3.2v-7.1
				C27.2-32.1,28.6-33.5,30.4-33.5z"/>
		</g>
		<g class="st0">
			<path class="st2" d="M37.2-23.8h-0.8c-0.1,0-0.2,0-0.2-0.1c-0.1,0-0.1-0.1-0.1-0.2l-0.4-1.1h-2.3L33-24.1c0,0.1-0.1,0.1-0.1,0.2
				c-0.1,0-0.1,0.1-0.2,0.1h-0.8l2.2-5.6H35L37.2-23.8z M33.6-25.9h1.8l-0.7-1.9c0-0.1-0.1-0.2-0.1-0.3c0-0.1-0.1-0.2-0.1-0.4
				c0,0.1-0.1,0.3-0.1,0.4s-0.1,0.2-0.1,0.3L33.6-25.9z"/>
		</g>
	</g>
</g>
<g id="Group-8_1_" transform="translate(26.000000, 0.000000)">
	<g class="st0">
		<path class="st1" d="M65.4,19.2c0.8,0,1.4,0.2,1.8,0.6s0.7,0.9,0.7,1.5c0,0.5-0.1,0.9-0.4,1.2c-0.3,0.3-0.6,0.5-1,0.7
			c0.5,0.1,1,0.3,1.3,0.7c0.3,0.3,0.5,0.8,0.5,1.3c0,0.8-0.3,1.4-0.9,1.8c-0.5,0.3-1.2,0.5-2,0.5h-3.7v-8.3H65.4z M62.6,22.8h2.5
			c0.6,0,1-0.1,1.3-0.4c0.3-0.2,0.5-0.6,0.5-1.1s-0.2-0.8-0.5-1S65.7,20,65.1,20h-2.5V22.8z M62.6,26.7h2.7c0.6,0,1-0.1,1.4-0.3
			c0.4-0.3,0.6-0.7,0.6-1.2s-0.2-0.9-0.5-1.2c-0.3-0.3-0.8-0.4-1.5-0.4h-2.7V26.7z"/>
		<path class="st1" d="M70.3,21.5v3.7c0,0.6,0.1,1,0.4,1.3c0.2,0.3,0.6,0.4,1.2,0.4c0.4,0,0.8-0.2,1.1-0.5c0.3-0.3,0.5-0.7,0.6-1.3
			v-3.7h0.9v6h-0.9v-0.9c-0.5,0.7-1.1,1.1-2,1.1c-1.5,0-2.2-0.8-2.2-2.5v-3.7h0.9V21.5z"/>
		<path class="st1" d="M77.5,21.5H79v0.8h-1.5v3.8c0,0.2,0,0.4,0.1,0.5s0.2,0.2,0.4,0.2h0.8v0.8H78c-0.5,0-0.8-0.1-1.1-0.4
			c-0.2-0.2-0.3-0.6-0.3-1v-3.8h-1.2v-0.8h1.2V20l0.9-0.4V21.5z"/>
		<path class="st1" d="M81.7,21.5h1.5v0.8h-1.5v3.8c0,0.2,0,0.4,0.1,0.5s0.2,0.2,0.4,0.2H83v0.8h-0.9c-0.5,0-0.8-0.1-1.1-0.4
			c-0.2-0.2-0.3-0.6-0.3-1v-3.8h-1.2v-0.8h1.2V20l0.9-0.4L81.7,21.5L81.7,21.5z"/>
		<path class="st1" d="M89,22.3c0.5,0.6,0.8,1.3,0.8,2.2c0,0.9-0.3,1.6-0.8,2.2s-1.3,0.9-2.2,0.9c-0.9,0-1.6-0.3-2.2-0.9
			c-0.5-0.6-0.8-1.3-0.8-2.2c0-0.9,0.3-1.7,0.8-2.2c0.5-0.6,1.2-0.9,2.2-0.9C87.8,21.3,88.5,21.7,89,22.3z M85.4,22.9
			c-0.3,0.4-0.5,1-0.5,1.7s0.2,1.2,0.5,1.7s0.8,0.7,1.5,0.7c0.6,0,1.1-0.2,1.5-0.7c0.3-0.4,0.5-1,0.5-1.7s-0.2-1.2-0.5-1.7
			c-0.4-0.5-0.9-0.7-1.5-0.7C86.2,22.1,85.7,22.4,85.4,22.9z"/>
		<path class="st1" d="M96,23.8v3.7h-0.9v-3.6c0-1.2-0.5-1.8-1.6-1.8c-0.4,0-0.8,0.2-1.1,0.5c-0.3,0.3-0.5,0.8-0.5,1.3v3.6H91v-6
			h0.9v0.9c0.2-0.3,0.5-0.6,0.8-0.8c0.3-0.2,0.7-0.3,1.1-0.3C95.3,21.3,96,22.2,96,23.8z"/>
	</g>
</g>
<g id="Rectangle-15_3_">
	<path class="st3" d="M31.8,7.5h146c4.3,0,7.8,3.5,7.8,7.8V32c0,4.3-3.5,7.8-7.8,7.8h-146c-4.3,0-7.8-3.5-7.8-7.8V15.3
		C24,11,27.5,7.5,31.8,7.5z"/>
</g>
<g id="WIDTH_x23_F629A29B-CB08-48B9-AC11-BF18A1191E8C_1_" transform="translate(393.000000, 55.000000)">
	<g id="gap_7_">
		<g>
			<polygon class="st4" points="-289.8,-6 -287.2,-8.6 -284.6,-6 -287.2,-3.4 			"/>
		</g>
	</g>
	<g id="_x32_50_3_">
		<g>
			<polygon class="st4" points="-300,-11.2 -275,-11.2 -275,-0.7 -300,-0.7 			"/>
		</g>
	</g>
	<g id="end_7_">
		<g>
			<polygon class="st4" points="-207.1,-7.3 -206.4,-7.3 -206.4,-4.1 -207.1,-4.1 			"/>
		</g>
	</g>
	<g id="start_7_">
		<g>
			<polygon class="st4" points="-367.9,-7.3 -367.3,-7.3 -367.3,-4.1 -367.9,-4.1 			"/>
		</g>
	</g>
	<g id="line_7_">
		<g>
			<polygon class="st4" points="-367.9,-6 -206.4,-6 -206.4,-5.4 -367.9,-5.4 			"/>
		</g>
	</g>
	<g>
		<path class="st1" d="M-293.8-10.1c0.3,0,0.6,0,0.9,0.1c0.3,0.1,0.5,0.2,0.7,0.4c0.2,0.2,0.3,0.4,0.5,0.6c0.1,0.2,0.2,0.5,0.2,0.8
			c0,0.3,0,0.5-0.1,0.7s-0.2,0.4-0.3,0.7c-0.1,0.2-0.3,0.4-0.5,0.6c-0.2,0.2-0.4,0.4-0.6,0.6l-1.9,1.9c0.1,0,0.3-0.1,0.4-0.1
			s0.3,0,0.4,0h2.4c0.1,0,0.2,0,0.2,0.1s0.1,0.1,0.1,0.2v0.5h-4.8v-0.3c0-0.1,0-0.1,0-0.2s0.1-0.1,0.1-0.2l2.3-2.3
			c0.2-0.2,0.4-0.4,0.5-0.6c0.2-0.2,0.3-0.4,0.4-0.5s0.2-0.4,0.3-0.5c0.1-0.2,0.1-0.4,0.1-0.6c0-0.2,0-0.4-0.1-0.6s-0.2-0.3-0.3-0.4
			s-0.3-0.2-0.4-0.2s-0.3-0.1-0.5-0.1s-0.3,0-0.5,0.1c-0.2,0.1-0.3,0.1-0.4,0.2c-0.1,0.1-0.2,0.2-0.3,0.3c-0.1,0.1-0.1,0.3-0.2,0.4
			c0,0.1-0.1,0.2-0.1,0.2c-0.1,0-0.1,0.1-0.2,0.1c0,0,0,0-0.1,0c0,0,0,0-0.1,0l-0.5-0.1c0-0.3,0.1-0.6,0.3-0.9
			c0.1-0.3,0.3-0.5,0.5-0.6s0.4-0.3,0.7-0.4C-294.4-10.1-294.1-10.1-293.8-10.1z"/>
		<path class="st1" d="M-286.1-9.7c0,0.1,0,0.2-0.1,0.3c-0.1,0.1-0.2,0.1-0.4,0.1h-2.2l-0.3,1.9c0.4-0.1,0.7-0.1,1-0.1
			c0.4,0,0.7,0.1,1,0.2s0.5,0.3,0.7,0.5s0.3,0.4,0.4,0.7c0.1,0.3,0.1,0.6,0.1,0.9c0,0.4-0.1,0.7-0.2,1c-0.1,0.3-0.3,0.6-0.5,0.8
			c-0.2,0.2-0.5,0.4-0.8,0.5c-0.3,0.1-0.7,0.2-1,0.2c-0.2,0-0.4,0-0.6-0.1s-0.4-0.1-0.5-0.2c-0.2-0.1-0.3-0.1-0.5-0.2
			c-0.1-0.1-0.3-0.2-0.4-0.3l0.3-0.4c0.1-0.1,0.1-0.1,0.2-0.1c0.1,0,0.1,0,0.2,0.1c0.1,0.1,0.2,0.1,0.3,0.2c0.1,0.1,0.3,0.1,0.4,0.2
			c0.2,0.1,0.4,0.1,0.6,0.1c0.2,0,0.5,0,0.7-0.1c0.2-0.1,0.4-0.2,0.5-0.3c0.1-0.1,0.3-0.3,0.3-0.5c0.1-0.2,0.1-0.4,0.1-0.7
			c0-0.2,0-0.4-0.1-0.6c-0.1-0.2-0.2-0.3-0.3-0.5c-0.1-0.1-0.3-0.2-0.5-0.3c-0.2-0.1-0.4-0.1-0.7-0.1c-0.2,0-0.4,0-0.6,0
			s-0.4,0.1-0.6,0.1l-0.6-0.2l0.6-3.3h3.4V-9.7z"/>
		<path class="st1" d="M-279.7-6.5c0,0.6-0.1,1.2-0.2,1.6c-0.1,0.5-0.3,0.8-0.6,1.1c-0.2,0.3-0.5,0.5-0.8,0.7
			c-0.3,0.1-0.7,0.2-1,0.2c-0.4,0-0.7-0.1-1-0.2c-0.3-0.1-0.6-0.4-0.8-0.7c-0.2-0.3-0.4-0.7-0.5-1.1c-0.1-0.5-0.2-1-0.2-1.6
			s0.1-1.2,0.2-1.6c0.1-0.5,0.3-0.8,0.5-1.1s0.5-0.5,0.8-0.7c0.3-0.1,0.7-0.2,1-0.2c0.4,0,0.7,0.1,1,0.2c0.3,0.1,0.6,0.4,0.8,0.7
			s0.4,0.7,0.6,1.1C-279.7-7.6-279.7-7.1-279.7-6.5z M-280.6-6.5c0-0.5,0-1-0.1-1.4c-0.1-0.4-0.2-0.7-0.4-0.9
			c-0.2-0.2-0.3-0.4-0.5-0.5c-0.2-0.1-0.4-0.1-0.6-0.1c-0.2,0-0.4,0-0.6,0.1c-0.2,0.1-0.4,0.3-0.5,0.5c-0.2,0.2-0.3,0.5-0.4,0.9
			c-0.1,0.4-0.1,0.8-0.1,1.4s0,1,0.1,1.4s0.2,0.7,0.4,0.9c0.2,0.2,0.3,0.4,0.5,0.5c0.2,0.1,0.4,0.1,0.6,0.1c0.2,0,0.4,0,0.6-0.1
			c0.2-0.1,0.4-0.3,0.5-0.5c0.2-0.2,0.3-0.5,0.4-0.9S-280.6-5.9-280.6-6.5z"/>
	</g>
</g>
<g id="HEIGHT_x23_F629A29B-CB08-48B9-AC11-BF18A1191E8C_1_" transform="translate(365.000000, 0.000000)">
	<g id="gap_6_">
		<g>
			<polygon class="st4" points="-353.5,22.1 -350.9,19.5 -348.3,22.1 -350.9,24.7 			"/>
		</g>
	</g>
	<g id="_x35_0_3_">
		<g>
			<polygon class="st4" points="-359.5,16.7 -342.3,16.7 -342.3,27.5 -359.5,27.5 			"/>
		</g>
	</g>
	<g id="end_6_">
		<g>
			<polygon class="st4" points="-352.2,37.6 -349,37.6 -349,38.2 -352.2,38.2 			"/>
		</g>
	</g>
	<g id="start_6_">
		<g>
			<polygon class="st4" points="-352.2,5.9 -349,5.9 -349,6.6 -352.2,6.6 			"/>
		</g>
	</g>
	<g id="line_6_">
		<g>
			<polygon class="st4" points="-350.9,5.9 -350.2,5.9 -350.2,38.2 -350.9,38.2 			"/>
		</g>
	</g>
	<g>
		<path class="st1" d="M-352.3,18.8c0,0.1,0,0.2-0.1,0.3s-0.2,0.1-0.4,0.1h-2.2l-0.3,1.9c0.4-0.1,0.7-0.1,1-0.1c0.4,0,0.7,0.1,1,0.2
			c0.3,0.1,0.5,0.3,0.7,0.5s0.3,0.4,0.4,0.7s0.1,0.5,0.1,0.9c0,0.4-0.1,0.7-0.2,1s-0.3,0.6-0.5,0.8c-0.2,0.2-0.5,0.4-0.8,0.5
			c-0.3,0.1-0.7,0.2-1,0.2c-0.2,0-0.4,0-0.6-0.1s-0.4-0.1-0.5-0.2c-0.2-0.1-0.3-0.1-0.5-0.2c-0.1-0.1-0.3-0.2-0.4-0.3l0.3-0.4
			c0.1-0.1,0.1-0.1,0.2-0.1c0.1,0,0.1,0,0.2,0.1s0.2,0.1,0.3,0.2c0.1,0.1,0.3,0.1,0.4,0.2c0.2,0.1,0.4,0.1,0.6,0.1
			c0.2,0,0.5,0,0.7-0.1c0.2-0.1,0.4-0.2,0.5-0.3s0.3-0.3,0.3-0.5c0.1-0.2,0.1-0.4,0.1-0.7c0-0.2,0-0.4-0.1-0.6
			c-0.1-0.2-0.2-0.3-0.3-0.5s-0.3-0.2-0.5-0.3c-0.2-0.1-0.4-0.1-0.7-0.1c-0.2,0-0.4,0-0.6,0c-0.2,0-0.4,0.1-0.6,0.1l-0.6-0.2
			l0.6-3.4h3.4V18.8z"/>
		<path class="st1" d="M-345.9,22c0,0.6-0.1,1.2-0.2,1.6c-0.1,0.5-0.3,0.8-0.6,1.1c-0.2,0.3-0.5,0.5-0.8,0.7s-0.7,0.2-1,0.2
			c-0.4,0-0.7-0.1-1-0.2s-0.6-0.4-0.8-0.7c-0.2-0.3-0.4-0.7-0.5-1.1c-0.1-0.5-0.2-1-0.2-1.6c0-0.6,0.1-1.2,0.2-1.6s0.3-0.8,0.5-1.1
			s0.5-0.5,0.8-0.7c0.3-0.1,0.7-0.2,1-0.2c0.4,0,0.7,0.1,1,0.2c0.3,0.1,0.6,0.4,0.8,0.7s0.4,0.7,0.6,1.1
			C-346,20.8-345.9,21.3-345.9,22z M-346.8,22c0-0.5,0-1-0.1-1.4s-0.2-0.7-0.4-0.9c-0.2-0.2-0.3-0.4-0.5-0.5
			c-0.2-0.1-0.4-0.1-0.6-0.1s-0.4,0-0.6,0.1c-0.2,0.1-0.4,0.3-0.5,0.5s-0.3,0.5-0.4,0.9s-0.1,0.8-0.1,1.4c0,0.5,0,1,0.1,1.4
			s0.2,0.7,0.4,0.9s0.3,0.4,0.5,0.5c0.2,0.1,0.4,0.1,0.6,0.1s0.4,0,0.6-0.1c0.2-0.1,0.4-0.3,0.5-0.5c0.2-0.2,0.3-0.5,0.4-0.9
			S-346.8,22.5-346.8,22z"/>
	</g>
</g>
</svg>
