<svg xmlns="http://www.w3.org/2000/svg" viewBox="0 0 200 60"><defs><style>.a{isolation:isolate;}.b{fill:#fff;}.c{fill:none;stroke:#fff;stroke-miterlimit:10;}.d{fill:#f50;}</style></defs><title>btn_n</title><g class="a"><path class="b" d="M91.4,19.2a2.44,2.44,0,0,1,1.8.6,2.13,2.13,0,0,1,.7,1.5,1.59,1.59,0,0,1-.4,1.2,3.59,3.59,0,0,1-1,.7,2.09,2.09,0,0,1,1.3.7,1.9,1.9,0,0,1,.5,1.3,2,2,0,0,1-.9,1.8,3.94,3.94,0,0,1-2,.5H87.7V19.2h3.7Zm-2.8,3.6h2.5a1.7,1.7,0,0,0,1.3-.4,1.29,1.29,0,0,0,.5-1.1,1.1,1.1,0,0,0-.5-1,2.27,2.27,0,0,0-1.3-.3H88.6v2.8Zm0,3.9h2.7a2.9,2.9,0,0,0,1.4-.3,1.43,1.43,0,0,0,.6-1.2,1.66,1.66,0,0,0-.5-1.2,2.08,2.08,0,0,0-1.5-.4H88.6v3.1Z"/><path class="b" d="M96.3,21.5v3.7a1.7,1.7,0,0,0,.4,1.3,1.34,1.34,0,0,0,1.2.4,1.61,1.61,0,0,0,1.1-.5,2.26,2.26,0,0,0,.6-1.3V21.4h0.9v6H99.6V26.5a2.31,2.31,0,0,1-2,1.1c-1.5,0-2.2-.8-2.2-2.5V21.4h0.9v0.1Z"/><path class="b" d="M103.5,21.5H105v0.8h-1.5v3.8a0.75,0.75,0,0,0,.1.5,0.52,0.52,0,0,0,.4.2h0.8v0.8H104a1.37,1.37,0,0,1-1.1-.4,1.49,1.49,0,0,1-.3-1V22.4h-1.2V21.6h1.2V20l0.9-.4v1.9Z"/><path class="b" d="M107.7,21.5h1.5v0.8h-1.5v3.8a0.75,0.75,0,0,0,.1.5,0.52,0.52,0,0,0,.4.2H109v0.8h-0.9a1.37,1.37,0,0,1-1.1-.4,1.49,1.49,0,0,1-.3-1V22.4h-1.2V21.6h1.2V20l0.9-.4,0.1,1.9h0Z"/><path class="b" d="M115,22.3a3.42,3.42,0,0,1,0,4.4,2.79,2.79,0,0,1-2.2.9,2.94,2.94,0,0,1-2.2-.9,3.29,3.29,0,0,1-.8-2.2,3.11,3.11,0,0,1,.8-2.2,2.66,2.66,0,0,1,2.2-.9A2.4,2.4,0,0,1,115,22.3Zm-3.6.6a2.86,2.86,0,0,0-.5,1.7,3.1,3.1,0,0,0,.5,1.7,1.58,1.58,0,0,0,1.5.7,1.8,1.8,0,0,0,1.5-.7,2.86,2.86,0,0,0,.5-1.7,3.1,3.1,0,0,0-.5-1.7,1.8,1.8,0,0,0-1.5-.7A1.41,1.41,0,0,0,111.4,22.9Z"/><path class="b" d="M122,23.8v3.7h-0.9V23.9c0-1.2-.5-1.8-1.6-1.8a1.61,1.61,0,0,0-1.1.5,1.9,1.9,0,0,0-.5,1.3v3.6H117v-6h0.9v0.9a3,3,0,0,1,.8-0.8,2,2,0,0,1,1.1-.3C121.3,21.3,122,22.2,122,23.8Z"/></g><path class="c" d="M31.8,7.5h146a7.81,7.81,0,0,1,7.8,7.8V32a7.81,7.81,0,0,1-7.8,7.8H31.8A7.81,7.81,0,0,1,24,32V15.3A7.81,7.81,0,0,1,31.8,7.5Z"/><polygon class="d" points="103.2 49 105.8 46.4 108.4 49 105.8 51.6 103.2 49"/><polygon class="d" points="93 43.8 118 43.8 118 54.3 93 54.3 93 43.8"/><polygon class="d" points="185.9 47.7 186.6 47.7 186.6 50.9 185.9 50.9 185.9 47.7"/><polygon class="d" points="25.1 47.7 25.7 47.7 25.7 50.9 25.1 50.9 25.1 47.7"/><polygon class="d" points="25.1 49 186.6 49 186.6 49.6 25.1 49.6 25.1 49"/><path class="b" d="M99.2,44.9a2.77,2.77,0,0,1,.9.1,1.61,1.61,0,0,1,.7.4c0.2,0.2.3,0.4,0.5,0.6a1.88,1.88,0,0,1,.2.8,1.48,1.48,0,0,1-.1.7,4.87,4.87,0,0,0-.3.7,2.65,2.65,0,0,1-.5.6l-0.6.6-1.9,1.9c0.1,0,.3-0.1.4-0.1h2.8c0.1,0,.2,0,0.2.1s0.1,0.1.1,0.2V52H96.8V51.5c0-.1.1-0.1,0.1-0.2L99.2,49a2.65,2.65,0,0,0,.5-0.6c0.2-.2.3-0.4,0.4-0.5s0.2-.4.3-0.5a1.85,1.85,0,0,0,0-1.2,1.38,1.38,0,0,0-.3-0.4,0.76,0.76,0,0,0-.4-0.2,4.33,4.33,0,0,0-.5-0.1,0.9,0.9,0,0,0-.5.1,1.47,1.47,0,0,0-.4.2l-0.3.3c-0.1.1-.1,0.3-0.2,0.4a0.35,0.35,0,0,1-.1.2c-0.1,0-.1.1-0.2,0.1H97.3l-0.5-.1a1.61,1.61,0,0,1,.3-0.9,1,1,0,0,1,.5-0.6,4.35,4.35,0,0,1,.7-0.4A2.77,2.77,0,0,0,99.2,44.9Z"/><path class="b" d="M106.9,45.3a0.37,0.37,0,0,1-.1.3,0.48,0.48,0,0,1-.4.1h-2.2l-0.3,1.9a3.75,3.75,0,0,1,1-.1,3,3,0,0,1,1,.2,1.79,1.79,0,0,1,.7.5,1.61,1.61,0,0,1,.4.7,2.77,2.77,0,0,1,.1.9,3,3,0,0,1-.2,1,2.1,2.1,0,0,1-1.3,1.3,3.55,3.55,0,0,1-1,.2,1.27,1.27,0,0,1-.6-0.1,2.57,2.57,0,0,1-.5-0.2c-0.2-.1-0.3-0.1-0.5-0.2s-0.3-.2-0.4-0.3l0.3-.4a0.25,0.25,0,0,1,.4,0c0.1,0.1.2,0.1,0.3,0.2s0.3,0.1.4,0.2a1.27,1.27,0,0,0,.6.1,1.7,1.7,0,0,0,.7-0.1,2.19,2.19,0,0,0,.5-0.3,0.85,0.85,0,0,0,.3-0.5,1.48,1.48,0,0,0,.1-0.7,1.27,1.27,0,0,0-.1-0.6c-0.1-.2-0.2-0.3-0.3-0.5a2.19,2.19,0,0,0-.5-0.3,1.48,1.48,0,0,0-.7-0.1H104c-0.2,0-.4.1-0.6,0.1l-0.6-.2,0.6-3.3h3.4v0.2h0.1Z"/><path class="b" d="M113.3,48.5a7,7,0,0,1-.2,1.6,2,2,0,0,1-.6,1.1,2.7,2.7,0,0,1-.8.7,3.55,3.55,0,0,1-1,.2,3,3,0,0,1-1-.2,1.78,1.78,0,0,1-.8-0.7,3.7,3.7,0,0,1-.5-1.1,7.77,7.77,0,0,1-.2-1.6,7,7,0,0,1,.2-1.6,2.81,2.81,0,0,1,.5-1.1,2.7,2.7,0,0,1,.8-0.7,3.55,3.55,0,0,1,1-.2,3,3,0,0,1,1,.2,1.78,1.78,0,0,1,.8.7,10.91,10.91,0,0,1,.6,1.1A4.14,4.14,0,0,1,113.3,48.5Zm-0.9,0a6.15,6.15,0,0,0-.1-1.4,1.88,1.88,0,0,0-.4-0.9,2.36,2.36,0,0,0-.5-0.5,1.85,1.85,0,0,0-1.2,0,1.2,1.2,0,0,0-.5.5,1.88,1.88,0,0,0-.4.9,5.72,5.72,0,0,0-.1,1.4,5.72,5.72,0,0,0,.1,1.4,1.88,1.88,0,0,0,.4.9,2.36,2.36,0,0,0,.5.5,1.85,1.85,0,0,0,1.2,0,1.2,1.2,0,0,0,.5-0.5,1.88,1.88,0,0,0,.4-0.9A5.72,5.72,0,0,0,112.4,48.5Z"/><polygon class="d" points="11.5 22.1 14.1 19.5 16.7 22.1 14.1 24.7 11.5 22.1"/><polygon class="d" points="5.5 16.7 22.7 16.7 22.7 27.5 5.5 27.5 5.5 16.7"/><polygon class="d" points="12.8 37.6 16 37.6 16 38.2 12.8 38.2 12.8 37.6"/><polygon class="d" points="12.8 5.9 16 5.9 16 6.6 12.8 6.6 12.8 5.9"/><polygon class="d" points="14.1 5.9 14.8 5.9 14.8 38.2 14.1 38.2 14.1 5.9"/><path class="b" d="M12.7,18.8a0.37,0.37,0,0,1-.1.3,0.48,0.48,0,0,1-.4.1H10L9.7,21.1a3.75,3.75,0,0,1,1-.1,3,3,0,0,1,1,.2,1.79,1.79,0,0,1,.7.5,1.61,1.61,0,0,1,.4.7,2.48,2.48,0,0,1,.1.9,3,3,0,0,1-.2,1,2.1,2.1,0,0,1-1.3,1.3,3.55,3.55,0,0,1-1,.2,1.27,1.27,0,0,1-.6-0.1,2.57,2.57,0,0,1-.5-0.2c-0.2-.1-0.3-0.1-0.5-0.2S8.5,25.1,8.4,25l0.3-.4a0.25,0.25,0,0,1,.4,0c0.1,0.1.2,0.1,0.3,0.2s0.3,0.1.4,0.2a1.27,1.27,0,0,0,.6.1,1.7,1.7,0,0,0,.7-0.1,2.19,2.19,0,0,0,.5-0.3,0.85,0.85,0,0,0,.3-0.5,1.48,1.48,0,0,0,.1-0.7,1.27,1.27,0,0,0-.1-0.6c-0.1-.2-0.2-0.3-0.3-0.5a0.85,0.85,0,0,0-.5-0.3,1.48,1.48,0,0,0-.7-0.1H9.8c-0.2,0-.4.1-0.6,0.1l-0.6-.2,0.6-3.4h3.4v0.3h0.1Z"/><path class="b" d="M19.1,22a7,7,0,0,1-.2,1.6,2,2,0,0,1-.6,1.1,2.7,2.7,0,0,1-.8.7,1.8,1.8,0,0,1-1,.2,3,3,0,0,1-1-.2,1.78,1.78,0,0,1-.8-0.7,3.7,3.7,0,0,1-.5-1.1A7.77,7.77,0,0,1,14,22a7,7,0,0,1,.2-1.6,3.7,3.7,0,0,1,.5-1.1,2.7,2.7,0,0,1,.8-0.7,3.55,3.55,0,0,1,1-.2,3,3,0,0,1,1,.2,1.78,1.78,0,0,1,.8.7,10.91,10.91,0,0,1,.6,1.1A6.27,6.27,0,0,1,19.1,22Zm-0.9,0a6.15,6.15,0,0,0-.1-1.4,1.88,1.88,0,0,0-.4-0.9,2.36,2.36,0,0,0-.5-0.5,1.27,1.27,0,0,0-.6-0.1,1.27,1.27,0,0,0-.6.1,1.2,1.2,0,0,0-.5.5,3.92,3.92,0,0,0-.4.9A5.72,5.72,0,0,0,15,22a6.15,6.15,0,0,0,.1,1.4,1.88,1.88,0,0,0,.4.9,2.36,2.36,0,0,0,.5.5,1.27,1.27,0,0,0,.6.1,1.27,1.27,0,0,0,.6-0.1,1.2,1.2,0,0,0,.5-0.5,1.88,1.88,0,0,0,.4-0.9A6.15,6.15,0,0,0,18.2,22Z"/></svg>