<?xml version="1.0" encoding="utf-8"?>
<!-- Generator: Adobe Illustrator 19.2.1, SVG Export Plug-In . SVG Version: 6.00 Build 0)  -->
<svg version="1.1" id="Layer_1" xmlns="http://www.w3.org/2000/svg" xmlns:xlink="http://www.w3.org/1999/xlink" x="0px" y="0px"
	 viewBox="0 0 200 100" style="enable-background:new 0 0 200 100;" xml:space="preserve">
<style type="text/css">
	.st0{enable-background:new    ;}
	.st1{fill:#FFFFFF;}
	.st2{fill:#48525B;}
	.st3{fill:#F96332;}
	.st4{fill:#FF5500;}
</style>
<g>
	<g id="Group-2_1_" transform="translate(475.000000, 113.000000)">
		<g class="st0">
			<g>
				<path class="st1" d="M-374.8-30.6v3h4v-3h0.8v6.9h-0.8V-27h-4v3.2h-0.8v-6.9L-374.8-30.6L-374.8-30.6z"/>
			</g>
			<g>
				<path class="st1" d="M-364.7-28.1c0.4,0.5,0.6,1.1,0.6,1.9c0,0.7-0.2,1.4-0.6,1.9c-0.5,0.5-1.1,0.8-1.8,0.8
					c-0.8,0-1.3-0.3-1.8-0.8c-0.4-0.5-0.6-1.1-0.6-1.9s0.2-1.4,0.6-1.9s1-0.8,1.8-0.8S-365.1-28.6-364.7-28.1z M-367.7-27.6
					c-0.3,0.4-0.4,0.8-0.4,1.4s0.1,1,0.4,1.4s0.7,0.6,1.2,0.6s0.9-0.2,1.2-0.6c0.3-0.4,0.4-0.8,0.4-1.4s-0.1-1-0.4-1.4
					s-0.7-0.6-1.2-0.6S-367.4-28-367.7-27.6z"/>
			</g>
			<g>
				<path class="st1" d="M-362.7-28.7l1.4,4l1.4-4h0.9l-1.9,5h-0.8l-1.9-5H-362.7z"/>
			</g>
			<g>
				<path class="st1" d="M-354.5-28.1c0.4,0.5,0.6,1.2,0.6,2h-4c0,0.6,0.2,1,0.5,1.3s0.6,0.5,1.1,0.5c0.4,0,0.7-0.1,1-0.3
					c0.2-0.2,0.4-0.4,0.5-0.8h0.8c-0.1,0.5-0.3,0.9-0.7,1.2c-0.4,0.4-1,0.6-1.6,0.6c-0.7,0-1.3-0.2-1.7-0.7
					c-0.4-0.5-0.7-1.1-0.7-1.9c0-0.7,0.2-1.4,0.6-1.9s1-0.8,1.7-0.8C-355.5-28.9-354.9-28.6-354.5-28.1z M-357.3-27.8
					c-0.3,0.3-0.4,0.7-0.5,1.2h3.1c-0.1-1.1-0.6-1.6-1.6-1.6C-356.7-28.2-357.1-28.1-357.3-27.8z"/>
			</g>
			<g>
				<path class="st1" d="M-350.1-28.8v0.8c-0.3-0.1-0.5-0.1-0.7-0.1c-0.4,0-0.7,0.2-1,0.5s-0.4,0.7-0.4,1.2v2.7h-0.8v-5h0.8v0.9
					c0.1-0.3,0.3-0.5,0.5-0.7c0.3-0.2,0.6-0.3,0.9-0.3C-350.5-28.9-350.3-28.8-350.1-28.8z"/>
			</g>
		</g>
		<g id="Group-5_3_" transform="translate(0.000000, 1.000000)">
			<g id="Rectangle-24_3_">
				<g>
					<path class="st1" d="M-393.7-34.4h7.1c1.8,0,3.2,1.4,3.2,3.2v7.1c0,1.8-1.4,3.2-3.2,3.2h-7.1c-1.8,0-3.2-1.4-3.2-3.2v-7.1
						C-396.9-33-395.5-34.4-393.7-34.4z"/>
				</g>
			</g>
			<g class="st0">
				<g>
					<path class="st2" d="M-391.9-24.7v-5.6h1.9c0.4,0,0.7,0,0.9,0.1c0.3,0.1,0.5,0.2,0.6,0.3c0.2,0.1,0.3,0.3,0.4,0.5
						s0.1,0.4,0.1,0.6c0,0.1,0,0.3-0.1,0.4c0,0.1-0.1,0.2-0.2,0.3c-0.1,0.1-0.2,0.2-0.3,0.3c-0.1,0.1-0.3,0.2-0.4,0.2
						c0.8,0.2,1.2,0.6,1.2,1.2c0,0.2,0,0.5-0.1,0.7s-0.2,0.4-0.4,0.5c-0.2,0.1-0.4,0.3-0.6,0.3c-0.3,0.1-0.5,0.1-0.9,0.1h-2.1V-24.7
						z M-390.8-27.9h0.8c0.4,0,0.6-0.1,0.8-0.2c0.2-0.1,0.3-0.3,0.3-0.6c0-0.3-0.1-0.5-0.2-0.6c-0.2-0.1-0.4-0.2-0.8-0.2h-0.9
						L-390.8-27.9L-390.8-27.9z M-390.8-27.2v1.6h1.1c0.2,0,0.4,0,0.5-0.1c0.1,0,0.2-0.1,0.3-0.2c0.1-0.1,0.1-0.2,0.2-0.3
						c0-0.1,0.1-0.2,0.1-0.3c0-0.1,0-0.2-0.1-0.3c0-0.1-0.1-0.2-0.2-0.2c-0.1-0.1-0.2-0.1-0.3-0.2c-0.1,0-0.3-0.1-0.5-0.1h-1.1
						V-27.2z"/>
				</g>
			</g>
		</g>
	</g>
	<g id="Rectangle-15_4_">
		<g>
			<path class="st3" d="M32.8,5.9h146c4.3,0,7.8,3.5,7.8,7.8v16.8c0,4.3-3.5,7.8-7.8,7.8h-146c-4.3,0-7.8-3.5-7.8-7.8V13.7
				C25.1,9.4,28.6,5.9,32.8,5.9z"/>
		</g>
	</g>
	<g class="st0">
		<g>
			<path class="st1" d="M92.4,18.3c0.8,0,1.4,0.2,1.8,0.6s0.7,0.9,0.7,1.5c0,0.5-0.1,0.9-0.4,1.2c-0.3,0.3-0.6,0.5-1,0.7
				c0.5,0.1,1,0.3,1.3,0.7c0.3,0.3,0.5,0.8,0.5,1.3c0,0.8-0.3,1.4-0.9,1.8c-0.5,0.3-1.2,0.5-2,0.5h-3.7v-8.3H92.4z M89.6,21.9h2.5
				c0.6,0,1-0.1,1.3-0.4c0.3-0.2,0.5-0.6,0.5-1.1s-0.2-0.8-0.5-1s-0.7-0.3-1.3-0.3h-2.5V21.9z M89.6,25.8h2.7c0.6,0,1-0.1,1.4-0.3
				c0.4-0.3,0.6-0.7,0.6-1.2s-0.2-0.9-0.5-1.2c-0.3-0.3-0.8-0.4-1.5-0.4h-2.7V25.8z"/>
		</g>
		<g>
			<path class="st1" d="M97.4,20.6v3.7c0,0.6,0.1,1,0.4,1.3C98,25.9,98.4,26,99,26c0.4,0,0.8-0.2,1.1-0.5c0.3-0.3,0.5-0.7,0.6-1.3
				v-3.7h0.9v6h-0.9v-0.9c-0.5,0.7-1.1,1.1-2,1.1c-1.5,0-2.2-0.8-2.2-2.5v-3.7h0.9V20.6z"/>
		</g>
		<g>
			<path class="st1" d="M104.6,20.6h1.5v0.8h-1.5v3.8c0,0.2,0,0.4,0.1,0.5s0.2,0.2,0.4,0.2h0.8v0.8H105c-0.5,0-0.8-0.1-1.1-0.4
				c-0.2-0.2-0.3-0.6-0.3-1v-3.8h-1.2v-0.8h1.2V19l0.9-0.4L104.6,20.6L104.6,20.6z"/>
		</g>
		<g>
			<path class="st1" d="M108.7,20.6h1.5v0.8h-1.5v3.8c0,0.2,0,0.4,0.1,0.5s0.2,0.2,0.4,0.2h0.8v0.8h-0.9c-0.5,0-0.8-0.1-1.1-0.4
				c-0.2-0.2-0.3-0.6-0.3-1v-3.8h-1.2v-0.8h1.2V19l0.9-0.4L108.7,20.6L108.7,20.6z"/>
		</g>
		<g>
			<path class="st1" d="M116.1,21.4c0.5,0.6,0.8,1.3,0.8,2.2c0,0.9-0.3,1.6-0.8,2.2s-1.3,0.9-2.2,0.9c-0.9,0-1.6-0.3-2.2-0.9
				c-0.5-0.6-0.8-1.3-0.8-2.2c0-0.9,0.3-1.7,0.8-2.2c0.5-0.6,1.2-0.9,2.2-0.9C114.8,20.4,115.5,20.7,116.1,21.4z M112.4,21.9
				c-0.3,0.4-0.5,1-0.5,1.7s0.2,1.2,0.5,1.7s0.8,0.7,1.5,0.7c0.6,0,1.1-0.2,1.5-0.7c0.3-0.4,0.5-1,0.5-1.7s-0.2-1.2-0.5-1.7
				c-0.4-0.5-0.9-0.7-1.5-0.7C113.3,21.2,112.8,21.5,112.4,21.9z"/>
		</g>
		<g>
			<path class="st1" d="M123.1,22.9v3.7h-0.9V23c0-1.2-0.5-1.8-1.6-1.8c-0.4,0-0.8,0.2-1.1,0.5c-0.3,0.3-0.5,0.8-0.5,1.3v3.6h-1v-6
				h0.9v0.9c0.2-0.3,0.5-0.6,0.8-0.8c0.3-0.2,0.7-0.3,1.1-0.3C122.3,20.4,123.1,21.3,123.1,22.9z"/>
		</g>
	</g>
	<g id="WIDTH_x23_F629A29B-CB08-48B9-AC11-BF18A1191E8C_1_" transform="translate(393.000000, 55.000000)">
		<g id="gap_7_">
			<g>
				<polygon class="st4" points="-289.8,-6 -287.2,-8.6 -284.6,-6 -287.2,-3.4 				"/>
			</g>
		</g>
		<g id="_x32_50_3_">
			<g>
				<polygon class="st4" points="-300,-11.2 -275,-11.2 -275,-0.7 -300,-0.7 				"/>
			</g>
		</g>
		<g id="end_7_">
			<g>
				<polygon class="st4" points="-207.1,-7.3 -206.4,-7.3 -206.4,-4.1 -207.1,-4.1 				"/>
			</g>
		</g>
		<g id="start_7_">
			<g>
				<polygon class="st4" points="-367.9,-7.3 -367.3,-7.3 -367.3,-4.1 -367.9,-4.1 				"/>
			</g>
		</g>
		<g id="line_7_">
			<g>
				<polygon class="st4" points="-367.9,-6 -206.4,-6 -206.4,-5.4 -367.9,-5.4 				"/>
			</g>
		</g>
		<g>
			<path class="st1" d="M-293.8-10.1c0.3,0,0.6,0,0.9,0.1c0.3,0.1,0.5,0.2,0.7,0.4c0.2,0.2,0.3,0.4,0.5,0.6c0.1,0.2,0.2,0.5,0.2,0.8
				c0,0.3,0,0.5-0.1,0.7s-0.2,0.4-0.3,0.7c-0.1,0.2-0.3,0.4-0.5,0.6c-0.2,0.2-0.4,0.4-0.6,0.6l-1.9,1.9c0.1,0,0.3-0.1,0.4-0.1
				s0.3,0,0.4,0h2.4c0.1,0,0.2,0,0.2,0.1s0.1,0.1,0.1,0.2v0.5h-4.8v-0.3c0-0.1,0-0.1,0-0.2s0.1-0.1,0.1-0.2l2.3-2.3
				c0.2-0.2,0.4-0.4,0.5-0.6c0.2-0.2,0.3-0.4,0.4-0.5s0.2-0.4,0.3-0.5c0.1-0.2,0.1-0.4,0.1-0.6c0-0.2,0-0.4-0.1-0.6
				s-0.2-0.3-0.3-0.4s-0.3-0.2-0.4-0.2s-0.3-0.1-0.5-0.1s-0.3,0-0.5,0.1c-0.2,0.1-0.3,0.1-0.4,0.2c-0.1,0.1-0.2,0.2-0.3,0.3
				c-0.1,0.1-0.1,0.3-0.2,0.4c0,0.1-0.1,0.2-0.1,0.2c-0.1,0-0.1,0.1-0.2,0.1c0,0,0,0-0.1,0c0,0,0,0-0.1,0l-0.5-0.1
				c0-0.3,0.1-0.6,0.3-0.9c0.1-0.3,0.3-0.5,0.5-0.6s0.4-0.3,0.7-0.4C-294.4-10.1-294.1-10.1-293.8-10.1z"/>
			<path class="st1" d="M-286.1-9.7c0,0.1,0,0.2-0.1,0.3c-0.1,0.1-0.2,0.1-0.4,0.1h-2.2l-0.3,1.9c0.4-0.1,0.7-0.1,1-0.1
				c0.4,0,0.7,0.1,1,0.2s0.5,0.3,0.7,0.5s0.3,0.4,0.4,0.7c0.1,0.3,0.1,0.6,0.1,0.9c0,0.4-0.1,0.7-0.2,1c-0.1,0.3-0.3,0.6-0.5,0.8
				c-0.2,0.2-0.5,0.4-0.8,0.5c-0.3,0.1-0.7,0.2-1,0.2c-0.2,0-0.4,0-0.6-0.1s-0.4-0.1-0.5-0.2c-0.2-0.1-0.3-0.1-0.5-0.2
				c-0.1-0.1-0.3-0.2-0.4-0.3l0.3-0.4c0.1-0.1,0.1-0.1,0.2-0.1c0.1,0,0.1,0,0.2,0.1c0.1,0.1,0.2,0.1,0.3,0.2
				c0.1,0.1,0.3,0.1,0.4,0.2c0.2,0.1,0.4,0.1,0.6,0.1c0.2,0,0.5,0,0.7-0.1c0.2-0.1,0.4-0.2,0.5-0.3c0.1-0.1,0.3-0.3,0.3-0.5
				c0.1-0.2,0.1-0.4,0.1-0.7c0-0.2,0-0.4-0.1-0.6c-0.1-0.2-0.2-0.3-0.3-0.5c-0.1-0.1-0.3-0.2-0.5-0.3c-0.2-0.1-0.4-0.1-0.7-0.1
				c-0.2,0-0.4,0-0.6,0s-0.4,0.1-0.6,0.1l-0.6-0.2l0.6-3.3h3.4V-9.7z"/>
			<path class="st1" d="M-279.7-6.5c0,0.6-0.1,1.2-0.2,1.6c-0.1,0.5-0.3,0.8-0.6,1.1c-0.2,0.3-0.5,0.5-0.8,0.7
				c-0.3,0.1-0.7,0.2-1,0.2c-0.4,0-0.7-0.1-1-0.2c-0.3-0.1-0.6-0.4-0.8-0.7c-0.2-0.3-0.4-0.7-0.5-1.1c-0.1-0.5-0.2-1-0.2-1.6
				s0.1-1.2,0.2-1.6c0.1-0.5,0.3-0.8,0.5-1.1s0.5-0.5,0.8-0.7c0.3-0.1,0.7-0.2,1-0.2c0.4,0,0.7,0.1,1,0.2c0.3,0.1,0.6,0.4,0.8,0.7
				s0.4,0.7,0.6,1.1C-279.7-7.6-279.7-7.1-279.7-6.5z M-280.6-6.5c0-0.5,0-1-0.1-1.4c-0.1-0.4-0.2-0.7-0.4-0.9
				c-0.2-0.2-0.3-0.4-0.5-0.5c-0.2-0.1-0.4-0.1-0.6-0.1c-0.2,0-0.4,0-0.6,0.1c-0.2,0.1-0.4,0.3-0.5,0.5c-0.2,0.2-0.3,0.5-0.4,0.9
				c-0.1,0.4-0.1,0.8-0.1,1.4s0,1,0.1,1.4s0.2,0.7,0.4,0.9c0.2,0.2,0.3,0.4,0.5,0.5c0.2,0.1,0.4,0.1,0.6,0.1c0.2,0,0.4,0,0.6-0.1
				c0.2-0.1,0.4-0.3,0.5-0.5c0.2-0.2,0.3-0.5,0.4-0.9S-280.6-5.9-280.6-6.5z"/>
		</g>
	</g>
	<g id="HEIGHT_x23_F629A29B-CB08-48B9-AC11-BF18A1191E8C_1_" transform="translate(365.000000, 0.000000)">
		<g id="gap_6_">
			<g>
				<polygon class="st4" points="-353.5,22.1 -350.9,19.5 -348.3,22.1 -350.9,24.7 				"/>
			</g>
		</g>
		<g id="_x35_0_3_">
			<g>
				<polygon class="st4" points="-359.5,16.7 -342.3,16.7 -342.3,27.5 -359.5,27.5 				"/>
			</g>
		</g>
		<g id="end_6_">
			<g>
				<polygon class="st4" points="-352.2,37.6 -349,37.6 -349,38.2 -352.2,38.2 				"/>
			</g>
		</g>
		<g id="start_6_">
			<g>
				<polygon class="st4" points="-352.2,5.9 -349,5.9 -349,6.6 -352.2,6.6 				"/>
			</g>
		</g>
		<g id="line_6_">
			<g>
				<polygon class="st4" points="-350.9,5.9 -350.2,5.9 -350.2,38.2 -350.9,38.2 				"/>
			</g>
		</g>
		<g>
			<path class="st1" d="M-352.3,18.8c0,0.1,0,0.2-0.1,0.3s-0.2,0.1-0.4,0.1h-2.2l-0.3,1.9c0.4-0.1,0.7-0.1,1-0.1
				c0.4,0,0.7,0.1,1,0.2c0.3,0.1,0.5,0.3,0.7,0.5s0.3,0.4,0.4,0.7s0.1,0.5,0.1,0.9c0,0.4-0.1,0.7-0.2,1s-0.3,0.6-0.5,0.8
				c-0.2,0.2-0.5,0.4-0.8,0.5c-0.3,0.1-0.7,0.2-1,0.2c-0.2,0-0.4,0-0.6-0.1s-0.4-0.1-0.5-0.2c-0.2-0.1-0.3-0.1-0.5-0.2
				c-0.1-0.1-0.3-0.2-0.4-0.3l0.3-0.4c0.1-0.1,0.1-0.1,0.2-0.1c0.1,0,0.1,0,0.2,0.1s0.2,0.1,0.3,0.2c0.1,0.1,0.3,0.1,0.4,0.2
				c0.2,0.1,0.4,0.1,0.6,0.1c0.2,0,0.5,0,0.7-0.1c0.2-0.1,0.4-0.2,0.5-0.3s0.3-0.3,0.3-0.5c0.1-0.2,0.1-0.4,0.1-0.7
				c0-0.2,0-0.4-0.1-0.6c-0.1-0.2-0.2-0.3-0.3-0.5s-0.3-0.2-0.5-0.3c-0.2-0.1-0.4-0.1-0.7-0.1c-0.2,0-0.4,0-0.6,0
				c-0.2,0-0.4,0.1-0.6,0.1l-0.6-0.2l0.6-3.4h3.4V18.8z"/>
			<path class="st1" d="M-345.9,22c0,0.6-0.1,1.2-0.2,1.6c-0.1,0.5-0.3,0.8-0.6,1.1c-0.2,0.3-0.5,0.5-0.8,0.7s-0.7,0.2-1,0.2
				c-0.4,0-0.7-0.1-1-0.2s-0.6-0.4-0.8-0.7c-0.2-0.3-0.4-0.7-0.5-1.1c-0.1-0.5-0.2-1-0.2-1.6c0-0.6,0.1-1.2,0.2-1.6s0.3-0.8,0.5-1.1
				s0.5-0.5,0.8-0.7c0.3-0.1,0.7-0.2,1-0.2c0.4,0,0.7,0.1,1,0.2c0.3,0.1,0.6,0.4,0.8,0.7s0.4,0.7,0.6,1.1
				C-346,20.8-345.9,21.3-345.9,22z M-346.8,22c0-0.5,0-1-0.1-1.4s-0.2-0.7-0.4-0.9c-0.2-0.2-0.3-0.4-0.5-0.5
				c-0.2-0.1-0.4-0.1-0.6-0.1s-0.4,0-0.6,0.1c-0.2,0.1-0.4,0.3-0.5,0.5s-0.3,0.5-0.4,0.9s-0.1,0.8-0.1,1.4c0,0.5,0,1,0.1,1.4
				s0.2,0.7,0.4,0.9s0.3,0.4,0.5,0.5c0.2,0.1,0.4,0.1,0.6,0.1s0.4,0,0.6-0.1c0.2-0.1,0.4-0.3,0.5-0.5c0.2-0.2,0.3-0.5,0.4-0.9
				S-346.8,22.5-346.8,22z"/>
		</g>
	</g>
</g>
</svg>
