<svg xmlns="http://www.w3.org/2000/svg" viewBox="0 0 359 280.8"><defs><style>.a{fill:#48525b;}.b{fill:#ff6e6e;}</style></defs><title>fonts-2</title><path class="a" d="M31.5,65.2H30.7V54.5H27V53.7h8.2v0.8H31.5V65.2Z" transform="translate(-27 -22.9)"/><path class="a" d="M42.6,65.2V59.7a3.09,3.09,0,0,0-.5-1.9,2.06,2.06,0,0,0-1.7-.6,2.79,2.79,0,0,0-2.2.8,3.4,3.4,0,0,0-.7,2.5v4.7H36.7V53h0.8v5h0.1a2.54,2.54,0,0,1,1.2-1.1,4.84,4.84,0,0,1,1.8-.3c1.9,0,2.9,1,2.9,3.1v5.6H42.6V65.2Z" transform="translate(-27 -22.9)"/><path class="a" d="M49.6,65.4a4,4,0,0,1-2.9-1.1,4.55,4.55,0,0,1-1-3.2,5,5,0,0,1,1-3.3,3.42,3.42,0,0,1,2.7-1.2,3,3,0,0,1,2.4,1,4.1,4.1,0,0,1,.9,2.8V61H46.6a4.14,4.14,0,0,0,.8,2.7,2.87,2.87,0,0,0,2.3.9,5.28,5.28,0,0,0,1.3-.1c0.4-.1.8-0.2,1.4-0.4v0.7a3.82,3.82,0,0,1-1.3.4C50.7,65.2,50.1,65.4,49.6,65.4Zm-0.3-8.2a2.79,2.79,0,0,0-2,.8,3.74,3.74,0,0,0-.9,2.3h5.2A3.71,3.71,0,0,0,51,58,1.88,1.88,0,0,0,49.3,57.2Z" transform="translate(-27 -22.9)"/><path class="a" d="M62.1,65.4a3.31,3.31,0,0,1-2.6-1.1,4.89,4.89,0,0,1-.9-3.2,5.39,5.39,0,0,1,.9-3.3,3.09,3.09,0,0,1,2.6-1.2A3.37,3.37,0,0,1,64.9,58h0L65,56.8h0.7V69.1H64.9V64h0A3,3,0,0,1,62.1,65.4Zm0-.7a2.53,2.53,0,0,0,2.2-.9,5.11,5.11,0,0,0,.7-2.9V60.8a4.28,4.28,0,0,0-.7-2.8,2.34,2.34,0,0,0-2.1-.9,2.39,2.39,0,0,0-2.1,1,4.65,4.65,0,0,0-.7,2.8,4.15,4.15,0,0,0,.7,2.7A2.11,2.11,0,0,0,62.1,64.7Z" transform="translate(-27 -22.9)"/><path class="a" d="M69.3,56.7v5.5a3.09,3.09,0,0,0,.5,1.9,2.06,2.06,0,0,0,1.7.6,2.79,2.79,0,0,0,2.2-.8,3.92,3.92,0,0,0,.7-2.5V56.7h0.8v8.5H74.5L74.4,64h0a3.13,3.13,0,0,1-2.9,1.3c-1.9,0-2.9-1-2.9-3.1V56.7h0.7Z" transform="translate(-27 -22.9)"/><path class="a" d="M77.9,54.3c0-.5.2-0.8,0.5-0.8a0.52,0.52,0,0,1,.4.2,0.92,0.92,0,0,1,.1.6,1.27,1.27,0,0,1-.1.6,0.52,0.52,0,0,1-.4.2C78.1,55.1,77.9,54.9,77.9,54.3Zm0.9,10.9H78V56.7h0.8v8.5Z" transform="translate(-27 -22.9)"/><path class="a" d="M85,65.4a4,4,0,0,1-2.9-1.1,4.4,4.4,0,0,1-1-3.2,4.86,4.86,0,0,1,1.1-3.3,3.7,3.7,0,0,1,2.9-1.2,5.22,5.22,0,0,1,2.1.4l-0.2.7a8.09,8.09,0,0,0-1.9-.4,3,3,0,0,0-2.4,1,4.45,4.45,0,0,0-.8,2.8,4.55,4.55,0,0,0,.8,2.7,2.87,2.87,0,0,0,2.2,1,4.64,4.64,0,0,0,2.1-.4v0.7A7.66,7.66,0,0,1,85,65.4Z" transform="translate(-27 -22.9)"/><path class="a" d="M90,61.5l4.3-4.8h0.9l-3.3,3.6,3.6,4.9H94.6l-3.2-4.3L90,62.2v3H89.2V53H90v8.5h0Z" transform="translate(-27 -22.9)"/><path class="a" d="M104.7,56.5a3.39,3.39,0,0,1,2.7,1.1,5,5,0,0,1,.9,3.3,5.39,5.39,0,0,1-.9,3.3,3.1,3.1,0,0,1-2.7,1.1,2.93,2.93,0,0,1-1.6-.4,2.35,2.35,0,0,1-1.1-1.1h-0.1l-0.2,1.3h-0.5V52.9H102V58h0.1a2.54,2.54,0,0,1,1.2-1.1A2.59,2.59,0,0,1,104.7,56.5Zm0,0.7a2.34,2.34,0,0,0-2.1.9,5.06,5.06,0,0,0-.6,2.8V61a4.28,4.28,0,0,0,.7,2.8,2.52,2.52,0,0,0,2.1.8,2.39,2.39,0,0,0,2.1-1,4.65,4.65,0,0,0,.7-2.8C107.5,58.5,106.6,57.2,104.7,57.2Z" transform="translate(-27 -22.9)"/><path class="a" d="M114,56.5a5.28,5.28,0,0,1,1.2.1l-0.1.7a4.1,4.1,0,0,0-1.1-.1,2.27,2.27,0,0,0-1.8.9,3.51,3.51,0,0,0-.7,2.3v4.7h-0.8V56.6h0.7l0.1,1.5h0.1a2.92,2.92,0,0,1,1.1-1.3A4.15,4.15,0,0,1,114,56.5Z" transform="translate(-27 -22.9)"/><path class="a" d="M123.9,60.9a4.4,4.4,0,0,1-1,3.2,3.83,3.83,0,0,1-2.8,1.2,4.55,4.55,0,0,1-2-.5,3.74,3.74,0,0,1-1.3-1.5,5.56,5.56,0,0,1-.5-2.3,4.4,4.4,0,0,1,1-3.2,3.83,3.83,0,0,1,2.8-1.2,3.16,3.16,0,0,1,2.7,1.2A5,5,0,0,1,123.9,60.9Zm-6.7,0a4.14,4.14,0,0,0,.8,2.7,2.92,2.92,0,0,0,4.4,0,4.55,4.55,0,0,0,.8-2.7,4.14,4.14,0,0,0-.8-2.7,2.72,2.72,0,0,0-2.2-1,2.46,2.46,0,0,0-2.2,1A4.55,4.55,0,0,0,117.2,60.9Z" transform="translate(-27 -22.9)"/><path class="a" d="M133.1,65.2l-1.9-5.7c-0.1-.4-0.3-1-0.5-1.7h0l-0.2.6-0.4,1.1-1.9,5.7h-0.8L125,56.7h0.8l1.4,4.9q0.45,1.8.6,2.7h0a15.37,15.37,0,0,1,.7-2.4l1.8-5.2H131l1.7,5.2c0.4,1.2.6,2,.7,2.4h0a17.34,17.34,0,0,1,.6-2.7l1.3-4.9h0.8l-2.2,8.5h-0.8Z" transform="translate(-27 -22.9)"/><path class="a" d="M143.8,65.2V59.7a3.09,3.09,0,0,0-.5-1.9,2.06,2.06,0,0,0-1.7-.6,2.79,2.79,0,0,0-2.2.8,3.4,3.4,0,0,0-.7,2.5v4.7h-0.8V56.7h0.7l0.1,1.2h0a3.13,3.13,0,0,1,2.9-1.3c1.9,0,2.9,1,2.9,3.1v5.6h-0.7V65.2Z" transform="translate(-27 -22.9)"/><path class="a" d="M154.6,57.4h-2v7.8h-0.8V57.4h-1.6V56.9l1.6-.3V55.9a3.71,3.71,0,0,1,.6-2.3,2.23,2.23,0,0,1,1.9-.7,6.75,6.75,0,0,1,1.4.2l-0.2.7a5,5,0,0,0-1.2-.2,1.73,1.73,0,0,0-1.3.5,2.67,2.67,0,0,0-.4,1.7v0.8h2v0.8Z" transform="translate(-27 -22.9)"/><path class="a" d="M163.3,60.9a4.4,4.4,0,0,1-1,3.2,3.83,3.83,0,0,1-2.8,1.2,4.55,4.55,0,0,1-2-.5,3.74,3.74,0,0,1-1.3-1.5,5.56,5.56,0,0,1-.5-2.3,4.4,4.4,0,0,1,1-3.2,3.83,3.83,0,0,1,2.8-1.2,3.16,3.16,0,0,1,2.7,1.2A5,5,0,0,1,163.3,60.9Zm-6.7,0a4.14,4.14,0,0,0,.8,2.7,2.92,2.92,0,0,0,4.4,0,4.55,4.55,0,0,0,.8-2.7,4.14,4.14,0,0,0-.8-2.7,2.72,2.72,0,0,0-2.2-1,2.46,2.46,0,0,0-2.2,1A4.55,4.55,0,0,0,156.6,60.9Z" transform="translate(-27 -22.9)"/><path class="a" d="M167.7,60.8l-3-4.1h0.9l2.5,3.6,2.5-3.6h0.9l-2.9,4.1,3.1,4.4h-0.9l-2.7-3.8-2.7,3.8h-0.9Z" transform="translate(-27 -22.9)"/><path class="a" d="M176.6,69a3.6,3.6,0,0,1-1.1-.2V68.2a4.4,4.4,0,0,0,1,.2,1.17,1.17,0,0,0,1.2-1.4V56.8h0.8V66.9a2.54,2.54,0,0,1-.5,1.6A1.62,1.62,0,0,1,176.6,69Zm1-14.7c0-.5.2-0.8,0.5-0.8a0.52,0.52,0,0,1,.4.2,0.92,0.92,0,0,1,.1.6,1.27,1.27,0,0,1-.1.6,0.52,0.52,0,0,1-.4.2C177.8,55.1,177.6,54.9,177.6,54.3Z" transform="translate(-27 -22.9)"/><path class="a" d="M182,56.7v5.5a3.09,3.09,0,0,0,.5,1.9,2.06,2.06,0,0,0,1.7.6,2.79,2.79,0,0,0,2.2-.8,3.92,3.92,0,0,0,.7-2.5V56.7h0.8v8.5h-0.7L187.1,64h0a3.13,3.13,0,0,1-2.9,1.3c-1.9,0-2.9-1-2.9-3.1V56.7H182Z" transform="translate(-27 -22.9)"/><path class="a" d="M201.4,65.2V59.6a3,3,0,0,0-.5-1.8,1.75,1.75,0,0,0-1.5-.6,2.23,2.23,0,0,0-1.9.7,3.52,3.52,0,0,0-.6,2.3v5h-0.8V59.4a1.83,1.83,0,0,0-2-2.1,2.27,2.27,0,0,0-1.9.8,4,4,0,0,0-.6,2.5v4.7h-0.8V56.8h0.6l0.2,1.2h0a2.51,2.51,0,0,1,2.4-1.3,2.52,2.52,0,0,1,2.6,1.5h0a2.35,2.35,0,0,1,1.1-1.1,2.93,2.93,0,0,1,1.6-.4,2.82,2.82,0,0,1,2.1.7,3.29,3.29,0,0,1,.7,2.4v5.6h-0.7V65.2h0Z" transform="translate(-27 -22.9)"/><path class="a" d="M208.6,65.4a3.16,3.16,0,0,1-2.9-1.5h-0.1v5.2h-0.7V56.8h0.7l0.1,1.2h0a3.12,3.12,0,0,1,2.8-1.4,3.31,3.31,0,0,1,2.6,1.1A5,5,0,0,1,212,61a4.89,4.89,0,0,1-.9,3.2A3.18,3.18,0,0,1,208.6,65.4Zm-0.1-.7a2.22,2.22,0,0,0,2-1,4.33,4.33,0,0,0,.7-2.7c0-2.5-.9-3.7-2.7-3.7a3,3,0,0,0-2.2.8,3.81,3.81,0,0,0-.7,2.7V61a4.11,4.11,0,0,0,.7,2.8A3,3,0,0,0,208.5,64.7Z" transform="translate(-27 -22.9)"/><path class="a" d="M219.7,63a2.14,2.14,0,0,1-.9,1.8,3.73,3.73,0,0,1-2.5.6,6.84,6.84,0,0,1-2.7-.5V64.1a6.6,6.6,0,0,0,2.7.6,3.36,3.36,0,0,0,1.9-.4,1.36,1.36,0,0,0,.7-1.1,1.61,1.61,0,0,0-.5-1.1,5.16,5.16,0,0,0-1.7-.9,17.78,17.78,0,0,1-1.8-.8,2,2,0,0,1-.8-0.8,1.69,1.69,0,0,1-.3-1,1.9,1.9,0,0,1,.8-1.5,3.59,3.59,0,0,1,2.2-.6,7.51,7.51,0,0,1,2.6.5l-0.3.7a6.82,6.82,0,0,0-2.3-.5,3.51,3.51,0,0,0-1.6.3,1,1,0,0,0-.6,1,1.61,1.61,0,0,0,.5,1.1,4.88,4.88,0,0,0,1.8.9,18.32,18.32,0,0,1,1.7.7,3,3,0,0,1,.8.8A1.69,1.69,0,0,1,219.7,63Z" transform="translate(-27 -22.9)"/><path class="a" d="M233.1,60.9a4.4,4.4,0,0,1-1,3.2,3.83,3.83,0,0,1-2.8,1.2,4.55,4.55,0,0,1-2-.5,3.74,3.74,0,0,1-1.3-1.5,5.56,5.56,0,0,1-.5-2.3,4.4,4.4,0,0,1,1-3.2,3.83,3.83,0,0,1,2.8-1.2,3.16,3.16,0,0,1,2.7,1.2A5,5,0,0,1,233.1,60.9Zm-6.7,0a4.14,4.14,0,0,0,.8,2.7,2.92,2.92,0,0,0,4.4,0,4.55,4.55,0,0,0,.8-2.7,4.14,4.14,0,0,0-.8-2.7,2.72,2.72,0,0,0-2.2-1,2.46,2.46,0,0,0-2.2,1A4.55,4.55,0,0,0,226.4,60.9Z" transform="translate(-27 -22.9)"/><path class="a" d="M237.3,65.2L234,56.7h0.8l2.2,5.8c0.3,0.7.5,1.4,0.7,1.9h0a11.76,11.76,0,0,1,.7-2l2.2-5.8h0.8l-3.3,8.5h-0.8v0.1h0Z" transform="translate(-27 -22.9)"/><path class="a" d="M246.2,65.4a4,4,0,0,1-2.9-1.1,4.55,4.55,0,0,1-1-3.2,5,5,0,0,1,1-3.3,3.42,3.42,0,0,1,2.7-1.2,3,3,0,0,1,2.4,1,4.1,4.1,0,0,1,.9,2.8V61h-6.1a4.14,4.14,0,0,0,.8,2.7,2.87,2.87,0,0,0,2.3.9,5.28,5.28,0,0,0,1.3-.1c0.4-.1.8-0.2,1.4-0.4v0.7a3.82,3.82,0,0,1-1.3.4C247.3,65.2,246.7,65.4,246.2,65.4ZM246,57.2a2.79,2.79,0,0,0-2,.8,3.74,3.74,0,0,0-.9,2.3h5.2a3.71,3.71,0,0,0-.6-2.3A2.14,2.14,0,0,0,246,57.2Z" transform="translate(-27 -22.9)"/><path class="a" d="M254.9,56.5a5.28,5.28,0,0,1,1.2.1l-0.1.7a4.1,4.1,0,0,0-1.1-.1,2.27,2.27,0,0,0-1.8.9,3.51,3.51,0,0,0-.7,2.3v4.7h-0.8V56.6h0.7l0.1,1.5h0.1a2.92,2.92,0,0,1,1.1-1.3A3.55,3.55,0,0,1,254.9,56.5Z" transform="translate(-27 -22.9)"/><path class="a" d="M264.2,64.7a5.28,5.28,0,0,0,1.3-.1v0.6a5.07,5.07,0,0,1-1.3.2,2.2,2.2,0,0,1-1.7-.6,2.55,2.55,0,0,1-.5-1.9V57.4h-1.3V56.9l1.3-.4,0.4-1.9h0.4v2.1h2.5v0.7h-2.5v5.4a2.42,2.42,0,0,0,.3,1.4A1.29,1.29,0,0,0,264.2,64.7Z" transform="translate(-27 -22.9)"/><path class="a" d="M273.2,65.2V59.7a3.09,3.09,0,0,0-.5-1.9,2.06,2.06,0,0,0-1.7-.6,2.79,2.79,0,0,0-2.2.8,3.4,3.4,0,0,0-.7,2.5v4.7h-0.8V53h0.8v5h0.1a2.54,2.54,0,0,1,1.2-1.1,4.84,4.84,0,0,1,1.8-.3c1.9,0,2.9,1,2.9,3.1v5.6h-0.9V65.2h0Z" transform="translate(-27 -22.9)"/><path class="a" d="M280.2,65.4a4,4,0,0,1-2.9-1.1,4.55,4.55,0,0,1-1-3.2,5,5,0,0,1,1-3.3,3.42,3.42,0,0,1,2.7-1.2,3,3,0,0,1,2.4,1,4.1,4.1,0,0,1,.9,2.8V61h-6.1a4.14,4.14,0,0,0,.8,2.7,2.87,2.87,0,0,0,2.3.9,5.28,5.28,0,0,0,1.3-.1c0.4-.1.8-0.2,1.4-0.4v0.7a3.82,3.82,0,0,1-1.3.4C281.3,65.2,280.7,65.4,280.2,65.4Zm-0.3-8.2a2.79,2.79,0,0,0-2,.8,3.74,3.74,0,0,0-.9,2.3h5.2a3.71,3.71,0,0,0-.6-2.3A1.88,1.88,0,0,0,279.9,57.2Z" transform="translate(-27 -22.9)"/><path class="a" d="M290.4,65.2h-0.8V53h0.8V65.2Z" transform="translate(-27 -22.9)"/><path class="a" d="M298.4,65.2l-0.2-1.3h-0.1a7.1,7.1,0,0,1-1.3,1.2,4.15,4.15,0,0,1-1.6.3,2.71,2.71,0,0,1-1.9-.6,2.14,2.14,0,0,1-.7-1.8,2.06,2.06,0,0,1,1-1.9,5.13,5.13,0,0,1,3-.7h1.6V59.8a3,3,0,0,0-.5-1.8,2,2,0,0,0-1.6-.6,4.42,4.42,0,0,0-2.4.7l-0.3-.7a7.22,7.22,0,0,1,2.8-.7,2.82,2.82,0,0,1,2.1.7,3,3,0,0,1,.7,2.3v5.6l-0.6-.1h0Zm-3.1-.5a2.86,2.86,0,0,0,2.1-.8,3,3,0,0,0,.8-2.2V60.9l-1.5.1a5.52,5.52,0,0,0-2.6.6,1.56,1.56,0,0,0-.8,1.5,1.66,1.66,0,0,0,.5,1.2A3.71,3.71,0,0,0,295.3,64.7Z" transform="translate(-27 -22.9)"/><path class="a" d="M307,65.2h-6.1V64.7l5-7.3h-4.7V56.7h5.7v0.5l-5.1,7.3h5.1l0.1,0.7h0Z" transform="translate(-27 -22.9)"/><path class="a" d="M307.7,56.7h0.8l1.8,4.8c0.5,1.5.9,2.5,1,3h0c0.2-.7.6-1.7,1.1-3l1.8-4.7H315l-3.8,9.9a7.64,7.64,0,0,1-.8,1.6,1.87,1.87,0,0,1-.7.6,3,3,0,0,1-1,.2,4.4,4.4,0,0,1-1-.2V68.2a3.08,3.08,0,0,0,1,.1,1.45,1.45,0,0,0,.7-0.2,1.7,1.7,0,0,0,.6-0.6,6.66,6.66,0,0,0,.6-1.2,8.2,8.2,0,0,0,.4-1.1Z" transform="translate(-27 -22.9)"/><path class="a" d="M323.8,56.5a4.15,4.15,0,0,1,1.6.3,4,4,0,0,1,1.2,1.1h0v-5h0.8V65.2h-0.5l-0.2-1.3h-0.1a3.11,3.11,0,0,1-2.8,1.5,3.39,3.39,0,0,1-2.7-1.1,4.89,4.89,0,0,1-.9-3.2,5.51,5.51,0,0,1,.9-3.4A3.16,3.16,0,0,1,323.8,56.5Zm0,0.7a2.39,2.39,0,0,0-2.1,1A4.65,4.65,0,0,0,321,61c0,2.4.9,3.6,2.8,3.6a2.56,2.56,0,0,0,2.1-.8,5,5,0,0,0,.7-2.8V60.9a4.11,4.11,0,0,0-.7-2.8A2.58,2.58,0,0,0,323.8,57.2Z" transform="translate(-27 -22.9)"/><path class="a" d="M337.2,60.9a4.4,4.4,0,0,1-1,3.2,3.83,3.83,0,0,1-2.8,1.2,4.55,4.55,0,0,1-2-.5,3.74,3.74,0,0,1-1.3-1.5,5.56,5.56,0,0,1-.5-2.3,4.4,4.4,0,0,1,1-3.2,3.83,3.83,0,0,1,2.8-1.2,3.16,3.16,0,0,1,2.7,1.2A5,5,0,0,1,337.2,60.9Zm-6.7,0a4.14,4.14,0,0,0,.8,2.7,2.92,2.92,0,0,0,4.4,0,4.55,4.55,0,0,0,.8-2.7,4.14,4.14,0,0,0-.8-2.7,2.72,2.72,0,0,0-2.2-1,2.46,2.46,0,0,0-2.2,1A4.55,4.55,0,0,0,330.5,60.9Z" transform="translate(-27 -22.9)"/><path class="a" d="M346.2,56.7v0.5l-1.8.1a2.91,2.91,0,0,1-.1,3.9,3.11,3.11,0,0,1-2.2.8h-0.8a4.35,4.35,0,0,0-.7.6,1,1,0,0,0-.2.7,0.6,0.6,0,0,0,.3.6,2.51,2.51,0,0,0,1,.2h1.5a3.28,3.28,0,0,1,2.1.6,1.94,1.94,0,0,1,.7,1.7,2.48,2.48,0,0,1-1.1,2.1,5.48,5.48,0,0,1-3.1.7,4.4,4.4,0,0,1-2.5-.6,2,2,0,0,1-.9-1.7,2.46,2.46,0,0,1,.5-1.5,3.61,3.61,0,0,1,1.5-.8,1,1,0,0,1-.6-0.5,0.84,0.84,0,0,1-.2-0.7,1.8,1.8,0,0,1,1.1-1.5,2.34,2.34,0,0,1-1.2-1,2.41,2.41,0,0,1-.4-1.5,2.79,2.79,0,0,1,.8-2,3.11,3.11,0,0,1,2.2-.8,3.92,3.92,0,0,1,1.3.2h2.8V56.7h0Zm-6.9,9.9c0,1.2.9,1.8,2.6,1.8q3.3,0,3.3-2.1a1.29,1.29,0,0,0-.5-1.1,3.42,3.42,0,0,0-1.7-.3h-1.4C340.1,64.8,339.3,65.4,339.3,66.6Zm0.6-7.2a1.75,1.75,0,0,0,.6,1.5,2.54,2.54,0,0,0,1.6.5,2.35,2.35,0,0,0,1.6-.5,2.11,2.11,0,0,0,.6-1.6,2,2,0,0,0-.6-1.6,2.07,2.07,0,0,0-1.6-.5,2.11,2.11,0,0,0-1.6.6A2,2,0,0,0,339.9,59.4Z" transform="translate(-27 -22.9)"/><path class="a" d="M347.8,64.6a0.63,0.63,0,1,1,.6.8A0.65,0.65,0,0,1,347.8,64.6Z" transform="translate(-27 -22.9)"/><path class="a" d="M32.2,87.2H31.4V78.9a20.08,20.08,0,0,1,.1-2.4l-0.2.2c-0.1.1-.9,0.7-2.4,1.9L28.5,78l3.1-2.3h0.7L32.2,87.2h0Z" transform="translate(-27 -22.9)"/><path class="a" d="M44.1,87.2H36.9V86.5l3-3.2a20.66,20.66,0,0,0,1.8-2,9.13,9.13,0,0,0,.8-1.3,3,3,0,0,0,.2-1.3A2.19,2.19,0,0,0,42,77a2.35,2.35,0,0,0-1.7-.6,3.94,3.94,0,0,0-2.7,1l-0.4-.5a4.9,4.9,0,0,1,3.2-1.2,2.93,2.93,0,0,1,3.2,3,4.28,4.28,0,0,1-.6,2.2,13.18,13.18,0,0,1-2.1,2.6l-2.9,3h6.1v0.7h0Z" transform="translate(-27 -22.9)"/><path class="a" d="M52.8,78.5a2.41,2.41,0,0,1-.7,1.8,2.83,2.83,0,0,1-1.8.9h0a3.4,3.4,0,0,1,2.1.9,2.49,2.49,0,0,1,.7,1.9A3.1,3.1,0,0,1,52,86.5a4.77,4.77,0,0,1-3.1.9,6.68,6.68,0,0,1-3-.6V86a5.27,5.27,0,0,0,1.5.5,8.87,8.87,0,0,0,1.5.2,3.85,3.85,0,0,0,2.6-.7,2.38,2.38,0,0,0,.9-2,1.85,1.85,0,0,0-.9-1.7,4.76,4.76,0,0,0-2.6-.6H47.7V80.9h1.2a3.51,3.51,0,0,0,2.3-.7,2.17,2.17,0,0,0,.8-1.8,1.8,1.8,0,0,0-.7-1.5,2.61,2.61,0,0,0-1.8-.6,7.77,7.77,0,0,0-1.6.2,4.77,4.77,0,0,0-1.6.8l-0.4-.5a4.17,4.17,0,0,1,1.6-.9,6.28,6.28,0,0,1,1.9-.3,3.29,3.29,0,0,1,2.4.7A2.7,2.7,0,0,1,52.8,78.5Z" transform="translate(-27 -22.9)"/><path class="a" d="M63.2,84.3h-2v2.9H60.5V84.3H54.6V83.8l5.7-8h0.9v7.9h2v0.6Zm-2.7-.7V80.3c0-1.6,0-2.9.1-4H60.5a11.68,11.68,0,0,1-1,1.5l-4,5.8h5Z" transform="translate(-27 -22.9)"/><path class="a" d="M67.6,80.3a4.37,4.37,0,0,1,2.9.9,3,3,0,0,1,1.1,2.4,3.39,3.39,0,0,1-1.1,2.7,4,4,0,0,1-3,1,7.77,7.77,0,0,1-1.6-.2,5,5,0,0,1-1.3-.5V85.8a7.72,7.72,0,0,0,1.5.6,5.9,5.9,0,0,0,1.4.2,3.65,3.65,0,0,0,2.4-.8,2.58,2.58,0,0,0,.9-2.1,2.52,2.52,0,0,0-.9-2,3.61,3.61,0,0,0-2.4-.7,7.61,7.61,0,0,0-2.1.3L64.9,81l0.5-5.2h5.5v0.8H66.1l-0.4,4A8.9,8.9,0,0,1,67.6,80.3Z" transform="translate(-27 -22.9)"/><path class="a" d="M73.6,82.3a9.88,9.88,0,0,1,.6-3.7,5.15,5.15,0,0,1,1.7-2.3,4.53,4.53,0,0,1,2.7-.7,5.07,5.07,0,0,1,1.3.2v0.7a5.21,5.21,0,0,0-1.4-.2,3.61,3.61,0,0,0-3,1.4,7.3,7.3,0,0,0-1.2,4h0.1a4.07,4.07,0,0,1,1.4-1.2,2.93,2.93,0,0,1,1.6-.4,3.33,3.33,0,0,1,2.5.9,3.49,3.49,0,0,1,.9,2.5,4.1,4.1,0,0,1-.9,2.8,3.25,3.25,0,0,1-2.6,1A3,3,0,0,1,74.6,86,5.82,5.82,0,0,1,73.6,82.3Zm3.7,4.4a2.63,2.63,0,0,0,2-.8,3.17,3.17,0,0,0,.7-2.3,2.44,2.44,0,0,0-.7-2,2.94,2.94,0,0,0-1.9-.7,2.82,2.82,0,0,0-1.5.4,2.44,2.44,0,0,0-1.1.9,1.92,1.92,0,0,0-.4,1.2,3.53,3.53,0,0,0,.4,1.7,3.45,3.45,0,0,0,1,1.3A8,8,0,0,0,77.3,86.7Z" transform="translate(-27 -22.9)"/><path class="a" d="M84.3,87.2L89,76.5H82.5V75.7h7.4v0.6L85.2,87.2H84.3Z" transform="translate(-27 -22.9)"/><path class="a" d="M95.4,75.6a3.33,3.33,0,0,1,2.3.7,2.52,2.52,0,0,1,.9,2,2,2,0,0,1-.6,1.5A5.12,5.12,0,0,1,96.2,81a5.1,5.1,0,0,1,2.1,1.4,2.79,2.79,0,0,1,.6,1.8,2.9,2.9,0,0,1-1,2.3,3.8,3.8,0,0,1-2.7.8,3.84,3.84,0,0,1-2.6-.8,2.87,2.87,0,0,1-.9-2.3,2.79,2.79,0,0,1,.6-1.8,4.35,4.35,0,0,1,2-1.3,5.23,5.23,0,0,1-1.8-1.3,2.35,2.35,0,0,1-.5-1.6,2.3,2.3,0,0,1,.4-1.4,4,4,0,0,1,1.2-1A11,11,0,0,1,95.4,75.6Zm-2.8,8.8a2.06,2.06,0,0,0,.7,1.7,3.17,3.17,0,0,0,2,.6,3.48,3.48,0,0,0,2.1-.6,2.14,2.14,0,0,0,.8-1.7,2.27,2.27,0,0,0-.6-1.6,8.17,8.17,0,0,0-2.4-1.3,5.77,5.77,0,0,0-2,1.2A2.35,2.35,0,0,0,92.6,84.4Zm2.8-8.1a3.45,3.45,0,0,0-1.8.5,1.68,1.68,0,0,0-.7,1.5,3,3,0,0,0,.2,1,2.51,2.51,0,0,0,.7.8,7.64,7.64,0,0,0,1.6.8,4.28,4.28,0,0,0,1.8-1.1,2,2,0,0,0,.6-1.4,1.8,1.8,0,0,0-.7-1.5A2.35,2.35,0,0,0,95.4,76.3Z" transform="translate(-27 -22.9)"/><path class="a" d="M108.1,80.6a10.44,10.44,0,0,1-.6,3.8,4.35,4.35,0,0,1-1.7,2.2,5,5,0,0,1-2.7.7,7.72,7.72,0,0,1-1.5-.2V86.4c0.2,0.1.5,0.1,0.8,0.2a5.64,5.64,0,0,1,.7.1,3.61,3.61,0,0,0,3-1.4,7.39,7.39,0,0,0,1.2-4.1h-0.1a4.07,4.07,0,0,1-1.4,1.2,3.17,3.17,0,0,1-1.6.4,3.12,3.12,0,0,1-3.4-3.4,3.86,3.86,0,0,1,1-2.8,3.49,3.49,0,0,1,4.5-.5,3.71,3.71,0,0,1,1.3,1.7A7.78,7.78,0,0,1,108.1,80.6Zm-3.8-4.3a2.79,2.79,0,0,0-2,.8,3.33,3.33,0,0,0-.7,2.3,2.82,2.82,0,0,0,.7,2.1,2.49,2.49,0,0,0,1.9.7,2.82,2.82,0,0,0,1.5-.4,2.44,2.44,0,0,0,1.1-.9,1.92,1.92,0,0,0,.4-1.2,3.29,3.29,0,0,0-.4-1.7,4,4,0,0,0-1-1.2A2,2,0,0,0,104.3,76.3Z" transform="translate(-27 -22.9)"/><path class="a" d="M117.3,81.5a8.92,8.92,0,0,1-.9,4.5,3.33,3.33,0,0,1-5.5-.1,8.76,8.76,0,0,1-.9-4.4,8.26,8.26,0,0,1,.9-4.4,3.07,3.07,0,0,1,2.7-1.4,3.22,3.22,0,0,1,2.8,1.5A7.87,7.87,0,0,1,117.3,81.5Zm-6.5,0a7.73,7.73,0,0,0,.7,3.9,2.45,2.45,0,0,0,2.1,1.3,2.31,2.31,0,0,0,2.2-1.3,8.24,8.24,0,0,0,.7-3.9,7.55,7.55,0,0,0-.7-3.8,2.31,2.31,0,0,0-2.2-1.3,2.08,2.08,0,0,0-2.1,1.3A8.83,8.83,0,0,0,110.8,81.5Z" transform="translate(-27 -22.9)"/><path class="a" d="M119.5,86.6a0.62,0.62,0,1,1,.6.8A0.65,0.65,0,0,1,119.5,86.6Zm0.9-2.3h-0.5l-0.2-8.5h0.9Z" transform="translate(-27 -22.9)"/><path class="a" d="M135.4,81.5a5.2,5.2,0,0,1-.7,2.9,2.26,2.26,0,0,1-1.9,1.1,1.37,1.37,0,0,1-1.1-.4,1.61,1.61,0,0,1-.5-1.1h0a2.34,2.34,0,0,1-1,1.2,2.6,2.6,0,0,1-1.5.4,2.2,2.2,0,0,1-1.8-.8,3.28,3.28,0,0,1-.6-2.1,3.74,3.74,0,0,1,.9-2.6,3,3,0,0,1,2.5-1,8.33,8.33,0,0,1,2.2.3L131.7,83v0.2a2.13,2.13,0,0,0,.3,1.2,1,1,0,0,0,.9.4,1.48,1.48,0,0,0,1.3-.9,5.36,5.36,0,0,0,.5-2.4,6,6,0,0,0-.6-2.7,4.45,4.45,0,0,0-1.8-1.8,5.54,5.54,0,0,0-2.6-.6,6.6,6.6,0,0,0-3.2.8,5.56,5.56,0,0,0-2.1,2.2,6.71,6.71,0,0,0-.7,3.3,5.26,5.26,0,0,0,1.3,3.9,5,5,0,0,0,3.7,1.4,7.57,7.57,0,0,0,1.5-.1c0.5-.1,1.1-0.3,1.8-0.5v0.8a9.06,9.06,0,0,1-3.2.6,5.36,5.36,0,0,1-4.2-1.6,6.18,6.18,0,0,1-1.5-4.4,8.63,8.63,0,0,1,.8-3.6,6.42,6.42,0,0,1,2.4-2.5,6.76,6.76,0,0,1,3.5-.9,6,6,0,0,1,3,.7,4.82,4.82,0,0,1,2,2A9.41,9.41,0,0,1,135.4,81.5ZM127,82.6a2.86,2.86,0,0,0,.4,1.7,1.56,1.56,0,0,0,1.4.6q2,0,2.1-2.7l0.1-2.3a6.05,6.05,0,0,0-1.5-.2,2.56,2.56,0,0,0-1.9.8A3.28,3.28,0,0,0,127,82.6Z" transform="translate(-27 -22.9)"/><path class="a" d="M143.8,79.9L143.2,83h2.4v0.6h-2.5l-0.7,3.5h-0.7l0.7-3.5h-2.8l-0.7,3.6h-0.7l0.7-3.5h-2.2V83.1H139l0.6-3.1h-2.3V79.4h2.4l0.7-3.5h0.7l-0.7,3.5h2.9l0.7-3.5h0.7L144,79.4h2.2V80l-2.4-.1h0Zm-4.1,3.2h2.8l0.6-3.1h-2.8Z" transform="translate(-27 -22.9)"/><path class="a" d="M154.3,83.8a2.14,2.14,0,0,1-.8,1.7,4,4,0,0,1-2.1.8v1.8h-0.6V86.3a10,10,0,0,1-1.6-.2,3.32,3.32,0,0,1-1.3-.4V84.9c0.4,0.2.9,0.3,1.4,0.5a7.72,7.72,0,0,0,1.5.2v-4a7.26,7.26,0,0,1-1.7-.7,2,2,0,0,1-.8-0.8,2.46,2.46,0,0,1,.5-2.7,4,4,0,0,1,2-.8V75.1h0.6v1.5a6,6,0,0,1,2.7.6l-0.3.7a9.16,9.16,0,0,0-2.5-.6v3.8a5.44,5.44,0,0,1,2.3,1.1A1.86,1.86,0,0,1,154.3,83.8ZM148.9,79a1.5,1.5,0,0,0,.4,1.1,3.65,3.65,0,0,0,1.4.7V77.3a2.59,2.59,0,0,0-1.4.6A2.1,2.1,0,0,0,148.9,79Zm4.6,4.7a1.61,1.61,0,0,0-.5-1.1,3.43,3.43,0,0,0-1.6-.7v3.7a3.39,3.39,0,0,0,1.5-.6A1.61,1.61,0,0,0,153.5,83.7Z" transform="translate(-27 -22.9)"/><path class="a" d="M161.1,79.2a4.91,4.91,0,0,1-.6,2.7,2,2,0,0,1-1.7.9,1.8,1.8,0,0,1-1.6-.9,4.91,4.91,0,0,1-.6-2.7,5.15,5.15,0,0,1,.6-2.7,1.68,1.68,0,0,1,1.7-.9,2,2,0,0,1,1.7.9A6.84,6.84,0,0,1,161.1,79.2Zm-3.7,0a4.32,4.32,0,0,0,.4,2.2,1.17,1.17,0,0,0,1.1.7c1,0,1.5-1,1.5-2.9A4.32,4.32,0,0,0,160,77a1.17,1.17,0,0,0-1.1-.7,1.08,1.08,0,0,0-1.1.7A5.74,5.74,0,0,0,157.4,79.2Zm8.3-3.4-6.3,11.4h-0.8l6.3-11.4h0.8Zm2.1,8a4.91,4.91,0,0,1-.6,2.7,1.85,1.85,0,0,1-1.7.9,1.7,1.7,0,0,1-1.6-.9,6,6,0,0,1-.6-2.7,4.91,4.91,0,0,1,.6-2.7,1.85,1.85,0,0,1,1.7-.9,2,2,0,0,1,1.7.9A6.49,6.49,0,0,1,167.8,83.8Zm-3.8,0a4.32,4.32,0,0,0,.4,2.2,1.17,1.17,0,0,0,1.1.7c1,0,1.5-1,1.5-2.9s-0.5-2.9-1.5-2.9a1.08,1.08,0,0,0-1.1.7A5.74,5.74,0,0,0,164,83.8Z" transform="translate(-27 -22.9)"/><path class="a" d="M169.3,82.8l3.6-7.1h0.5l3.6,7.1h-0.8l-3.1-6.2L170,82.8h-0.7Z" transform="translate(-27 -22.9)"/><path class="a" d="M178.7,84.3a2.79,2.79,0,0,1,.6-1.8,8,8,0,0,1,2.1-1.6l-0.5-.7a7.63,7.63,0,0,1-.8-1.1,2.15,2.15,0,0,1-.2-1.1,2.41,2.41,0,0,1,.7-1.8,3.22,3.22,0,0,1,2-.7,2.88,2.88,0,0,1,1.9.6,2.14,2.14,0,0,1,.7,1.8,3,3,0,0,1-.5,1.5,5.74,5.74,0,0,1-2,1.5l3.5,3.6a8.34,8.34,0,0,0,.8-1.2,13.78,13.78,0,0,0,.6-1.6h0.8a8.48,8.48,0,0,1-1.6,3.3l2.1,2.1h-1.1l-1.5-1.5a5,5,0,0,1-1.3,1,6.12,6.12,0,0,1-1.2.5,6.8,6.8,0,0,1-1.5.2,4.24,4.24,0,0,1-2.6-.8A2.46,2.46,0,0,1,178.7,84.3Zm3.6,2.4a4.84,4.84,0,0,0,1.8-.3,5.11,5.11,0,0,0,1.6-1.1l-3.8-3.8a7.64,7.64,0,0,0-1.5,1,3.11,3.11,0,0,0-.7.9,3.59,3.59,0,0,0-.2,1.1,2.41,2.41,0,0,0,.7,1.8C180.7,86.8,181.4,86.7,182.3,86.7ZM180.7,78a2,2,0,0,0,.3,1.1,10.06,10.06,0,0,0,1.2,1.4,6.83,6.83,0,0,0,1.7-1.2,2.11,2.11,0,0,0,.5-1.3,1.66,1.66,0,0,0-.5-1.2,1.9,1.9,0,0,0-1.3-.5,2,2,0,0,0-1.4.5A1.66,1.66,0,0,0,180.7,78Z" transform="translate(-27 -22.9)"/><path class="a" d="M194.1,75l-0.3,3.2,3.2-.8,0.2,1-3.1.3,1.9,2.7-1,.6-1.5-3-1.4,3-1-.6,1.9-2.7-3-.3,0.1-1,3.1,0.8L192.9,75h1.2Z" transform="translate(-27 -22.9)"/><path class="a" d="M198.6,82.8a12.26,12.26,0,0,1,.6-3.9,10.86,10.86,0,0,1,1.7-3.2h0.9a9.16,9.16,0,0,0-1.8,3.2,12.09,12.09,0,0,0-.6,3.8,11.14,11.14,0,0,0,2.4,6.9h-0.9a10.52,10.52,0,0,1-1.8-3.1A13.8,13.8,0,0,1,198.6,82.8Z" transform="translate(-27 -22.9)"/><path class="a" d="M206,82.8a11.64,11.64,0,0,1-.6,3.8,10.3,10.3,0,0,1-1.7,3.1h-0.9a11.14,11.14,0,0,0,2.4-6.9,12.09,12.09,0,0,0-.6-3.8,9.16,9.16,0,0,0-1.8-3.2h0.9a11.07,11.07,0,0,1,1.8,3.2A15.18,15.18,0,0,1,206,82.8Z" transform="translate(-27 -22.9)"/><path class="a" d="M213.3,89.3h-6.6V88.7h6.6v0.6Z" transform="translate(-27 -22.9)"/><path class="b" d="M30.2,34.7h5.6v1.5H28.5V23.3h1.7V34.7Z" transform="translate(-27 -22.9)"/><path class="b" d="M39.6,24.2a0.48,0.48,0,0,1-.1.4,1,1,0,0,1-.3.4,0.52,0.52,0,0,1-.4.2,0.6,0.6,0,0,1-.4.1,0.48,0.48,0,0,1-.4-0.1c-0.1-.1-0.3-0.1-0.4-0.2a0.52,0.52,0,0,1-.2-0.4,0.6,0.6,0,0,1-.1-0.4,0.48,0.48,0,0,1,.1-0.4c0.1-.1.1-0.3,0.2-0.4a0.52,0.52,0,0,1,.4-0.2,0.6,0.6,0,0,1,.4-0.1,0.48,0.48,0,0,1,.4.1c0.1,0.1.3,0.1,0.4,0.2a1.38,1.38,0,0,1,.3.4A0.6,0.6,0,0,1,39.6,24.2Zm-0.4,2.9v9.1H37.6V27.1h1.6Z" transform="translate(-27 -22.9)"/><path class="b" d="M45.1,26.9a3.75,3.75,0,0,1,1.1.1,2.47,2.47,0,0,1,.9.4h2.5V28a0.42,0.42,0,0,1-.4.4l-1,.1a2.77,2.77,0,0,1,.3,1.3,2.66,2.66,0,0,1-.3,1.2,2.18,2.18,0,0,1-.7.9,2.38,2.38,0,0,1-1.1.6,5.9,5.9,0,0,1-1.4.2,5,5,0,0,1-1.2-.2,1.51,1.51,0,0,0-.4.4,0.6,0.6,0,0,0-.1.4,0.55,0.55,0,0,0,.3.5,1.45,1.45,0,0,0,.7.2c0.3,0,.6.1,1,0.1h1.1a3.75,3.75,0,0,1,1.1.1c0.4,0.1.7,0.2,1,.3a4.35,4.35,0,0,1,.7.6,1.69,1.69,0,0,1,.3,1,2,2,0,0,1-.3,1.1,3.92,3.92,0,0,1-.8,1,5.39,5.39,0,0,1-1.3.7,4.84,4.84,0,0,1-1.8.3,9.91,9.91,0,0,1-1.8-.2,3.34,3.34,0,0,1-1.2-.5,1.78,1.78,0,0,1-.7-0.8,1.49,1.49,0,0,1-.2-0.9,1.37,1.37,0,0,1,.4-1.1,3.6,3.6,0,0,1,1.2-.8,1,1,0,0,1-.6-0.5,1.08,1.08,0,0,1-.2-0.8,0.6,0.6,0,0,1,.1-0.4,0.76,0.76,0,0,1,.2-0.4,1.51,1.51,0,0,1,.4-0.4,2.19,2.19,0,0,1,.5-0.3,3.57,3.57,0,0,1-1.1-1,2.41,2.41,0,0,1-.4-1.5,2.66,2.66,0,0,1,.3-1.2,2.18,2.18,0,0,1,.7-0.9,3.88,3.88,0,0,1,1.1-.6A3.88,3.88,0,0,0,45.1,26.9ZM48,36.7a1.42,1.42,0,0,0-.2-0.6,0.85,0.85,0,0,0-.5-0.3c-0.2-.1-0.5-0.1-0.7-0.2s-0.6-.1-0.9-0.1h-1a2.77,2.77,0,0,1-.9-0.1,5.55,5.55,0,0,0-.8.6,1.14,1.14,0,0,0-.3.8,1.42,1.42,0,0,0,.2.6,2.36,2.36,0,0,0,.5.5,6.89,6.89,0,0,0,.8.3,4.12,4.12,0,0,0,1.2.1,4.87,4.87,0,0,0,1.2-.1l0.9-.3a1.21,1.21,0,0,0,.5-0.5A1.65,1.65,0,0,0,48,36.7Zm-2.9-5a2.77,2.77,0,0,0,.9-0.1,1.27,1.27,0,0,0,.6-0.4c0.1-.2.3-0.4,0.4-0.6a1.7,1.7,0,0,0,.1-0.7,1.73,1.73,0,0,0-.5-1.3,2.07,2.07,0,0,0-1.5-.5,2.46,2.46,0,0,0-1.5.5,1.9,1.9,0,0,0-.5,1.3,1.48,1.48,0,0,0,.1.7,1.84,1.84,0,0,0,1,1A2.77,2.77,0,0,0,45.1,31.7Z" transform="translate(-27 -22.9)"/><path class="b" d="M51.3,36.2V22.9h1.6v5.4a6.42,6.42,0,0,1,1.3-1,2.93,2.93,0,0,1,1.6-.4,5.07,5.07,0,0,1,1.3.2,2.29,2.29,0,0,1,1,.7,3.88,3.88,0,0,1,.6,1.1,5.9,5.9,0,0,1,.2,1.4v5.8H57.3V30.3a2.54,2.54,0,0,0-.5-1.6,1.68,1.68,0,0,0-1.4-.6,2.77,2.77,0,0,0-1.3.3,3.13,3.13,0,0,0-1.1.9V36H51.3v0.2Z" transform="translate(-27 -22.9)"/><path class="b" d="M64,36.3A2.09,2.09,0,0,1,61.7,34V28.4H60.6c-0.1,0-.2,0-0.2-0.1a0.28,0.28,0,0,1-.1-0.3V27.4l1.5-.2,0.4-2.8a0.35,0.35,0,0,1,.1-0.2,0.28,0.28,0,0,1,.3-0.1h0.8v3.1H66v1.2H63.4v5.5a1.22,1.22,0,0,0,.3.9,0.91,0.91,0,0,0,.7.3,0.48,0.48,0,0,0,.4-0.1,0.37,0.37,0,0,1,.3-0.1,0.31,0.31,0,0,1,.2-0.1,0.35,0.35,0,0,1,.2-0.1,0.22,0.22,0,0,1,.2.2l0.5,0.8a2.07,2.07,0,0,1-1,.6H64Z" transform="translate(-27 -22.9)"/><path class="a" d="M32,172.2H30.7V162H27.1v-1.2h8.6V162H32.1v10.2H32Z" transform="translate(-27 -22.9)"/><path class="a" d="M43,172.2v-5.5a2.54,2.54,0,0,0-.5-1.6,2.07,2.07,0,0,0-1.5-.5,2.44,2.44,0,0,0-2,.7,3.84,3.84,0,0,0-.6,2.4v4.5H37.1V160h1.3v3.7a3.75,3.75,0,0,1-.1,1.1h0.1a3.57,3.57,0,0,1,1.1-1,4.19,4.19,0,0,1,1.6-.4,3.61,3.61,0,0,1,2.4.7,2.92,2.92,0,0,1,.8,2.4v5.6H43v0.1Z" transform="translate(-27 -22.9)"/><path class="a" d="M50.6,172.4a3.77,3.77,0,0,1-3-1.2,4.59,4.59,0,0,1-1.1-3.2,4.83,4.83,0,0,1,1-3.3,3.42,3.42,0,0,1,2.7-1.2,3.1,3.1,0,0,1,2.5,1.1,4.1,4.1,0,0,1,.9,2.8v0.8H47.7a3.2,3.2,0,0,0,.8,2.3,2.79,2.79,0,0,0,2,.8,6.6,6.6,0,0,0,2.7-.6v1.2a9.29,9.29,0,0,1-1.3.4C51.6,172.3,51.1,172.4,50.6,172.4Zm-0.4-7.8a1.86,1.86,0,0,0-1.6.7,3.3,3.3,0,0,0-.7,1.9h4.5a3.56,3.56,0,0,0-.5-1.9A2.19,2.19,0,0,0,50.2,164.6Z" transform="translate(-27 -22.9)"/><path class="a" d="M63.1,172.4a3.09,3.09,0,0,1-2.6-1.2,5.27,5.27,0,0,1-.9-3.2,5.39,5.39,0,0,1,.9-3.3,3.09,3.09,0,0,1,2.6-1.2,3,3,0,0,1,2.7,1.3h0.1l0.2-1.2h1V176H65.8v-3.7a4.89,4.89,0,0,1,.1-1.3H65.8A3.07,3.07,0,0,1,63.1,172.4Zm0.2-1.1a2.23,2.23,0,0,0,1.9-.7,3.52,3.52,0,0,0,.6-2.3V168a4.33,4.33,0,0,0-.6-2.6,2.27,2.27,0,0,0-1.9-.8,1.85,1.85,0,0,0-1.7.9,5.51,5.51,0,0,0,0,5A1.78,1.78,0,0,0,63.3,171.3Z" transform="translate(-27 -22.9)"/><path class="a" d="M71.1,163.6v5.6a2.54,2.54,0,0,0,.5,1.6,2.07,2.07,0,0,0,1.5.5,2.44,2.44,0,0,0,2-.7,3.84,3.84,0,0,0,.6-2.4v-4.5H77v8.6H75.9l-0.2-1.1H75.6a3.57,3.57,0,0,1-1.1,1,4.15,4.15,0,0,1-1.6.3,3.17,3.17,0,0,1-2.3-.7,3.29,3.29,0,0,1-.8-2.4v-5.6h1.3v-0.2Z" transform="translate(-27 -22.9)"/><path class="a" d="M79.6,161.3a1.45,1.45,0,0,1,.2-0.7,0.73,0.73,0,0,1,1,0,0.64,0.64,0,0,1,.2.6,1.85,1.85,0,0,1-.2.7,1.06,1.06,0,0,1-.5.2,0.76,0.76,0,0,1-.5-0.2A0.85,0.85,0,0,1,79.6,161.3ZM81,172.2H79.7v-8.6H81v8.6Z" transform="translate(-27 -22.9)"/><path class="a" d="M87.2,172.4a4,4,0,0,1-2.9-1.1,4.4,4.4,0,0,1-1-3.2,4.83,4.83,0,0,1,1-3.3,3.7,3.7,0,0,1,2.9-1.2,4.87,4.87,0,0,1,1.2.1c0.4,0.1.7,0.2,1,.3L89,165.1l-0.9-.3a2.77,2.77,0,0,0-.9-0.1c-1.7,0-2.6,1.1-2.6,3.3a3.84,3.84,0,0,0,.6,2.4,2.13,2.13,0,0,0,1.9.8,6.31,6.31,0,0,0,2.2-.5v1.1A3.48,3.48,0,0,1,87.2,172.4Z" transform="translate(-27 -22.9)"/><path class="a" d="M92.7,167.8c0.2-.3.6-0.7,1-1.2l2.8-2.9H98l-3.5,3.6,3.7,4.9H96.6l-3-4-1,.8v3.2H91.3V160h1.3v6.4c0.1,0.4,0,.8.1,1.4h0Z" transform="translate(-27 -22.9)"/><path class="a" d="M107.9,163.5a3.09,3.09,0,0,1,2.6,1.2,6.5,6.5,0,0,1,0,6.6,3.09,3.09,0,0,1-2.6,1.2,3.34,3.34,0,0,1-1.5-.3,4.7,4.7,0,0,1-1.2-.9h-0.1l-0.2.9h-1V160h1.3v3a9.72,9.72,0,0,1-.1,1.8h0.1A3,3,0,0,1,107.9,163.5Zm-0.2,1.1a2.27,2.27,0,0,0-1.9.8,5.93,5.93,0,0,0,0,5.2,2.27,2.27,0,0,0,1.9.8,2,2,0,0,0,1.8-.9,5.51,5.51,0,0,0,0-5A2,2,0,0,0,107.7,164.6Z" transform="translate(-27 -22.9)"/><path class="a" d="M117.6,163.5a3.08,3.08,0,0,1,1,.1l-0.2,1.2a3.44,3.44,0,0,0-.9-0.1,2.5,2.5,0,0,0-1.8.8,3,3,0,0,0-.7,2.1v4.6h-1.3v-8.6h1.1l0.1,1.6H115a3.61,3.61,0,0,1,1.1-1.3A2.82,2.82,0,0,1,117.6,163.5Z" transform="translate(-27 -22.9)"/><path class="a" d="M127.7,167.9a4.86,4.86,0,0,1-1.1,3.3,3.7,3.7,0,0,1-2.9,1.2,4.23,4.23,0,0,1-2-.5,3.39,3.39,0,0,1-1.4-1.5,6,6,0,0,1-.5-2.4,4.83,4.83,0,0,1,1-3.3,3.7,3.7,0,0,1,2.9-1.2,3.85,3.85,0,0,1,2.9,1.2A4.77,4.77,0,0,1,127.7,167.9Zm-6.6,0a3.73,3.73,0,0,0,.7,2.5,2.32,2.32,0,0,0,1.9.9,2.2,2.2,0,0,0,1.9-.9,4.37,4.37,0,0,0,.7-2.5,3.73,3.73,0,0,0-.7-2.5,2.13,2.13,0,0,0-1.9-.8,2.41,2.41,0,0,0-1.9.8A3.73,3.73,0,0,0,121.1,167.9Z" transform="translate(-27 -22.9)"/><path class="a" d="M136.9,172.2l-1.6-5q-0.15-.45-0.6-2.1h-0.1c-0.2.9-.4,1.6-0.5,2.1l-1.6,5H131l-2.3-8.6h1.4c0.6,2.2,1,3.8,1.3,4.9a12.09,12.09,0,0,1,.5,2.3H132a10.34,10.34,0,0,1,.3-1.2,8.11,8.11,0,0,1,.3-1.1l1.6-4.9h1.4l1.5,4.9a13.12,13.12,0,0,1,.6,2.3h0.1a5.07,5.07,0,0,1,.2-0.9c0.1-.4.6-2.5,1.6-6.3h1.3l-2.4,8.6h-1.6Z" transform="translate(-27 -22.9)"/><path class="a" d="M148.2,172.2v-5.5a2.54,2.54,0,0,0-.5-1.6,2.07,2.07,0,0,0-1.5-.5,2.44,2.44,0,0,0-2,.7,3.84,3.84,0,0,0-.6,2.4v4.5h-1.3v-8.6h1.1l0.2,1.2h0.1a3.57,3.57,0,0,1,1.1-1,4.15,4.15,0,0,1,1.6-.3,3.17,3.17,0,0,1,2.3.7,3.29,3.29,0,0,1,.8,2.4v5.6h-1.3Z" transform="translate(-27 -22.9)"/><path class="a" d="M160.2,164.6H158v7.6h-1.3v-7.6h-1.5V164l1.5-.5V163c0-2.1.9-3.2,2.8-3.2a5,5,0,0,1,1.6.3l-0.3,1a3.18,3.18,0,0,0-1.3-.2,1.29,1.29,0,0,0-1.1.5,2.83,2.83,0,0,0-.4,1.6v0.6h2.2v1Z" transform="translate(-27 -22.9)"/><path class="a" d="M169.2,167.9a4.86,4.86,0,0,1-1.1,3.3,3.7,3.7,0,0,1-2.9,1.2,4.23,4.23,0,0,1-2-.5,3.39,3.39,0,0,1-1.4-1.5,6,6,0,0,1-.5-2.4,4.83,4.83,0,0,1,1-3.3,3.7,3.7,0,0,1,2.9-1.2,3.85,3.85,0,0,1,2.9,1.2A4.77,4.77,0,0,1,169.2,167.9Zm-6.6,0a3.73,3.73,0,0,0,.7,2.5,2.32,2.32,0,0,0,1.9.9,2.2,2.2,0,0,0,1.9-.9,4.37,4.37,0,0,0,.7-2.5,3.73,3.73,0,0,0-.7-2.5,2.13,2.13,0,0,0-1.9-.8,2.41,2.41,0,0,0-1.9.8A4.37,4.37,0,0,0,162.6,167.9Z" transform="translate(-27 -22.9)"/><path class="a" d="M173.5,167.8l-3-4.2H172l2.3,3.3,2.2-3.3H178l-3,4.2,3.1,4.4h-1.5l-2.4-3.5-2.4,3.5h-1.5Z" transform="translate(-27 -22.9)"/><path class="a" d="M182.9,176a3.73,3.73,0,0,1-1.2-.2v-1.1a4.25,4.25,0,0,0,1.1.2,1.22,1.22,0,0,0,.9-0.3,1.49,1.49,0,0,0,.3-1v-10h1.3v9.9C185.3,175.2,184.5,176,182.9,176Zm1-14.7a1.45,1.45,0,0,1,.2-0.7,0.73,0.73,0,0,1,1,0,0.64,0.64,0,0,1,.2.6,1.85,1.85,0,0,1-.2.7,1.06,1.06,0,0,1-.5.2,0.76,0.76,0,0,1-.5-0.2A0.56,0.56,0,0,1,183.9,161.3Z" transform="translate(-27 -22.9)"/><path class="a" d="M189.2,163.6v5.6a2.54,2.54,0,0,0,.5,1.6,2.07,2.07,0,0,0,1.5.5,2.44,2.44,0,0,0,2-.7,3.84,3.84,0,0,0,.6-2.4v-4.5h1.3v8.6H194l-0.2-1.1h-0.1a3.57,3.57,0,0,1-1.1,1,4.15,4.15,0,0,1-1.6.3,3.17,3.17,0,0,1-2.3-.7,3.29,3.29,0,0,1-.8-2.4v-5.6h1.3v-0.2h0Z" transform="translate(-27 -22.9)"/><path class="a" d="M208.8,172.2v-5.6a2.08,2.08,0,0,0-.4-1.5,1.81,1.81,0,0,0-1.4-.5,2.14,2.14,0,0,0-1.8.7,3.28,3.28,0,0,0-.6,2.1v4.8h-1.3v-5.6a2.08,2.08,0,0,0-.4-1.5,1.81,1.81,0,0,0-1.4-.5,2.14,2.14,0,0,0-1.8.7,3.84,3.84,0,0,0-.6,2.4v4.5h-1.3v-8.6h1.1l0.2,1.2h0.1a3.18,3.18,0,0,1,1-1,2.41,2.41,0,0,1,1.5-.4,2.52,2.52,0,0,1,2.6,1.5h0.1a3.84,3.84,0,0,1,1.1-1.1,3.06,3.06,0,0,1,1.7-.4,2.92,2.92,0,0,1,2.2.7,3.29,3.29,0,0,1,.7,2.4v5.6h-1.3v0.1h0Z" transform="translate(-27 -22.9)"/><path class="a" d="M216.7,172.4a3.34,3.34,0,0,1-1.5-.3,4.7,4.7,0,0,1-1.2-.9h-0.1a7.08,7.08,0,0,1,.1,1.4v3.5h-1.3V163.7h1.1l0.2,1.2h0.1a2.34,2.34,0,0,1,1.2-1,3.65,3.65,0,0,1,1.5-.3,3.09,3.09,0,0,1,2.6,1.2,6.5,6.5,0,0,1,0,6.6A4.06,4.06,0,0,1,216.7,172.4Zm-0.2-7.8a2.23,2.23,0,0,0-1.9.7,3.71,3.71,0,0,0-.6,2.3v0.3a4.33,4.33,0,0,0,.6,2.6,2.27,2.27,0,0,0,1.9.8,2,2,0,0,0,1.7-.9,5.51,5.51,0,0,0,0-5A1.88,1.88,0,0,0,216.5,164.6Z" transform="translate(-27 -22.9)"/><path class="a" d="M228,169.9a2,2,0,0,1-.9,1.8,4.4,4.4,0,0,1-2.5.6,6.84,6.84,0,0,1-2.7-.5v-1.2a6.94,6.94,0,0,0,1.3.5,6.75,6.75,0,0,0,1.4.2,3.51,3.51,0,0,0,1.6-.3,0.94,0.94,0,0,0,.5-1,1.22,1.22,0,0,0-.4-0.9,5.39,5.39,0,0,0-1.7-.8,9.26,9.26,0,0,1-1.7-.8,3,3,0,0,1-.8-0.8,1.64,1.64,0,0,1-.2-1,2.09,2.09,0,0,1,.9-1.7,3.92,3.92,0,0,1,2.3-.6,6.6,6.6,0,0,1,2.7.6l-0.5,1.1a5.32,5.32,0,0,0-2.3-.5,2.65,2.65,0,0,0-1.4.3,1,1,0,0,0-.5.8,1.42,1.42,0,0,0,.2.6,1.58,1.58,0,0,0,.6.5,15.07,15.07,0,0,0,1.5.6,6.59,6.59,0,0,1,2.1,1.1A1.62,1.62,0,0,1,228,169.9Z" transform="translate(-27 -22.9)"/><path class="a" d="M241.7,167.9a4.86,4.86,0,0,1-1.1,3.3,3.7,3.7,0,0,1-2.9,1.2,4.23,4.23,0,0,1-2-.5,3.39,3.39,0,0,1-1.4-1.5,6,6,0,0,1-.5-2.4,4.83,4.83,0,0,1,1-3.3,3.7,3.7,0,0,1,2.9-1.2,3.85,3.85,0,0,1,2.9,1.2A4.32,4.32,0,0,1,241.7,167.9Zm-6.5,0a3.73,3.73,0,0,0,.7,2.5,2.32,2.32,0,0,0,1.9.9,2.2,2.2,0,0,0,1.9-.9,4.37,4.37,0,0,0,.7-2.5,3.73,3.73,0,0,0-.7-2.5,2.13,2.13,0,0,0-1.9-.8,2.41,2.41,0,0,0-1.9.8A3.73,3.73,0,0,0,235.2,167.9Z" transform="translate(-27 -22.9)"/><path class="a" d="M245.9,172.2l-3.2-8.6h1.4l1.8,5.1a14.51,14.51,0,0,1,.7,2.3h0.1c0.1-.3.2-0.8,0.5-1.7s1-2.8,2.1-5.7h1.4l-3.2,8.6h-1.6Z" transform="translate(-27 -22.9)"/><path class="a" d="M255.6,172.4a3.77,3.77,0,0,1-3-1.2,4.59,4.59,0,0,1-1.1-3.2,4.83,4.83,0,0,1,1-3.3,3.42,3.42,0,0,1,2.7-1.2,3.1,3.1,0,0,1,2.5,1.1,4.1,4.1,0,0,1,.9,2.8v0.8h-5.7a3.2,3.2,0,0,0,.8,2.3,2.79,2.79,0,0,0,2,.8,6.6,6.6,0,0,0,2.7-.6v1.2a9.29,9.29,0,0,1-1.3.4C256.7,172.3,256.2,172.4,255.6,172.4Zm-0.3-7.8a1.86,1.86,0,0,0-1.6.7,2.74,2.74,0,0,0-.7,1.9h4.5a3.56,3.56,0,0,0-.5-1.9A2.34,2.34,0,0,0,255.3,164.6Z" transform="translate(-27 -22.9)"/><path class="a" d="M264.9,163.5a3.08,3.08,0,0,1,1,.1l-0.2,1.2a3.44,3.44,0,0,0-.9-0.1,2.5,2.5,0,0,0-1.8.8,3,3,0,0,0-.7,2.1v4.6H261v-8.6h1.1l0.1,1.6h0.1a3.61,3.61,0,0,1,1.1-1.3A2.41,2.41,0,0,1,264.9,163.5Z" transform="translate(-27 -22.9)"/><path class="a" d="M274.4,171.3a1.7,1.7,0,0,0,.7-0.1,4.33,4.33,0,0,0,.5-0.1v1a2,2,0,0,1-.6.2,2,2,0,0,1-.7.1c-1.7,0-2.5-.9-2.5-2.6v-5.1h-1.2v-0.6l1.2-.5,0.5-1.8h0.8v2h2.5v1h-2.5v5a1.59,1.59,0,0,0,.4,1.2A1.9,1.9,0,0,0,274.4,171.3Z" transform="translate(-27 -22.9)"/><path class="a" d="M283.2,172.2v-5.5a2.54,2.54,0,0,0-.5-1.6,2.07,2.07,0,0,0-1.5-.5,2.44,2.44,0,0,0-2,.7,3.84,3.84,0,0,0-.6,2.4v4.5h-1.3V160h1.3v3.7a3.75,3.75,0,0,1-.1,1.1h0.1a3.57,3.57,0,0,1,1.1-1,4.19,4.19,0,0,1,1.6-.4,3.61,3.61,0,0,1,2.4.7,2.92,2.92,0,0,1,.8,2.4v5.6h-1.3v0.1Z" transform="translate(-27 -22.9)"/><path class="a" d="M290.7,172.4a3.77,3.77,0,0,1-3-1.2,4.59,4.59,0,0,1-1.1-3.2,4.83,4.83,0,0,1,1-3.3,3.42,3.42,0,0,1,2.7-1.2,3.1,3.1,0,0,1,2.5,1.1,4.1,4.1,0,0,1,.9,2.8v0.8h-5.9a3.2,3.2,0,0,0,.8,2.3,2.79,2.79,0,0,0,2,.8,6.6,6.6,0,0,0,2.7-.6v1.2a9.29,9.29,0,0,1-1.3.4C291.8,172.3,291.3,172.4,290.7,172.4Zm-0.3-7.8a1.86,1.86,0,0,0-1.6.7,2.74,2.74,0,0,0-.7,1.9h4.5a3.56,3.56,0,0,0-.5-1.9A2.19,2.19,0,0,0,290.4,164.6Z" transform="translate(-27 -22.9)"/><path class="a" d="M301.6,172.2h-1.3V160h1.3v12.2Z" transform="translate(-27 -22.9)"/><path class="a" d="M309.6,172.2l-0.3-1.2h-0.1a4.23,4.23,0,0,1-1.3,1.1,3.81,3.81,0,0,1-1.6.3,2.72,2.72,0,0,1-2-.7,2.35,2.35,0,0,1-.7-1.9c0-1.7,1.4-2.6,4.1-2.7h1.5v-0.5a2.08,2.08,0,0,0-.4-1.5,2,2,0,0,0-1.4-.5,5,5,0,0,0-2.4.7l-0.4-1a5.78,5.78,0,0,1,1.4-.5,7.72,7.72,0,0,1,1.5-.2,3.17,3.17,0,0,1,2.3.7,2.92,2.92,0,0,1,.7,2.2v5.8h-0.9v-0.1h0Zm-3-.9a2.42,2.42,0,0,0,2.6-2.6v-0.8l-1.3.1a4,4,0,0,0-2.2.5,1.62,1.62,0,0,0-.3,2.4A1.59,1.59,0,0,0,306.6,171.3Z" transform="translate(-27 -22.9)"/><path class="a" d="M318.7,172.2h-6.2v-0.9l4.7-6.7h-4.4v-1h5.8v1l-4.6,6.5h4.7v1.1Z" transform="translate(-27 -22.9)"/><path class="a" d="M319.3,163.6h1.4l1.9,4.9a21.63,21.63,0,0,1,.8,2.4h0.1c0.1-.3.2-0.7,0.4-1.4s0.9-2.6,2.1-5.9h1.4l-3.7,9.8a5.83,5.83,0,0,1-1.3,2.1,2.79,2.79,0,0,1-1.8.6,4.87,4.87,0,0,1-1.2-.1v-1a3.08,3.08,0,0,0,1,.1,2,2,0,0,0,1.9-1.5l0.5-1.2Z" transform="translate(-27 -22.9)"/><path class="a" d="M338.7,171.1h0a3.65,3.65,0,0,1-5.4.2,6.5,6.5,0,0,1,0-6.6,3.09,3.09,0,0,1,2.6-1.2,3,3,0,0,1,2.7,1.3h0.1l-0.1-.6v-4.1h1.3v12.1h-1Zm-2.6.2a2.23,2.23,0,0,0,1.9-.7,3.71,3.71,0,0,0,.6-2.3V168a4.33,4.33,0,0,0-.6-2.6,2.27,2.27,0,0,0-1.9-.8,1.85,1.85,0,0,0-1.7.9,5.51,5.51,0,0,0,0,5A2.14,2.14,0,0,0,336.1,171.3Z" transform="translate(-27 -22.9)"/><path class="a" d="M350.1,167.9a4.86,4.86,0,0,1-1.1,3.3,3.7,3.7,0,0,1-2.9,1.2,4.23,4.23,0,0,1-2-.5,3.39,3.39,0,0,1-1.4-1.5,6,6,0,0,1-.5-2.4,4.83,4.83,0,0,1,1-3.3,3.7,3.7,0,0,1,2.9-1.2,3.85,3.85,0,0,1,2.9,1.2A4.77,4.77,0,0,1,350.1,167.9Zm-6.5,0a3.73,3.73,0,0,0,.7,2.5,2.32,2.32,0,0,0,1.9.9,2.2,2.2,0,0,0,1.9-.9,4.37,4.37,0,0,0,.7-2.5,3.73,3.73,0,0,0-.7-2.5,2.13,2.13,0,0,0-1.9-.8,2.41,2.41,0,0,0-1.9.8A3.73,3.73,0,0,0,343.6,167.9Z" transform="translate(-27 -22.9)"/><path class="a" d="M359.4,163.6v0.8l-1.6.2a4.35,4.35,0,0,1,.4.7,3,3,0,0,1,.2,1,2.52,2.52,0,0,1-.9,2,3.65,3.65,0,0,1-2.4.8,1.48,1.48,0,0,1-.7-0.1,1.21,1.21,0,0,0-.8,1.1,0.55,0.55,0,0,0,.3.5,2.15,2.15,0,0,0,1,.2h1.5a3.28,3.28,0,0,1,2.1.6,2.06,2.06,0,0,1,.7,1.7,2.66,2.66,0,0,1-1.1,2.2,6.23,6.23,0,0,1-3.3.7,4.76,4.76,0,0,1-2.6-.6,2,2,0,0,1-.9-1.8,2.39,2.39,0,0,1,.5-1.4,2.73,2.73,0,0,1,1.4-.8,2.65,2.65,0,0,1-.6-0.5,1,1,0,0,1-.2-0.7,1.88,1.88,0,0,1,.2-0.8,2.85,2.85,0,0,1,.8-0.7,3.13,3.13,0,0,1-1.1-.9,2.41,2.41,0,0,1-.4-1.5,3.11,3.11,0,0,1,.8-2.2,3.46,3.46,0,0,1,2.4-.8,4.3,4.3,0,0,1,1.2.2l3.1,0.1h0Zm-6.8,10a1.25,1.25,0,0,0,.6,1.1,2.86,2.86,0,0,0,1.7.4,4.77,4.77,0,0,0,2.4-.5,1.56,1.56,0,0,0,.8-1.3,1.05,1.05,0,0,0-.4-1,3,3,0,0,0-1.6-.3h-1.6a2.12,2.12,0,0,0-1.4.4A1.35,1.35,0,0,0,352.6,173.6Zm0.7-7.2a1.74,1.74,0,0,0,1.9,1.9,1.62,1.62,0,0,0,1.9-1.8,1.65,1.65,0,0,0-1.9-1.9,2,2,0,0,0-1.4.5A1.58,1.58,0,0,0,353.3,166.4Z" transform="translate(-27 -22.9)"/><path class="a" d="M361,171.4a1.88,1.88,0,0,1,.2-0.8,1,1,0,0,1,1.4,0,1,1,0,0,1,.3.8,1.14,1.14,0,0,1-.3.8,0.91,0.91,0,0,1-.7.3,1.45,1.45,0,0,1-.7-0.2A1.49,1.49,0,0,1,361,171.4Z" transform="translate(-27 -22.9)"/><path class="a" d="M32.5,194.2H31.2v-8.1a11.48,11.48,0,0,1,.1-1.9,1.38,1.38,0,0,1-.4.3c-0.1.1-.8,0.6-1.9,1.5l-0.7-.9,3-2.3h1.1v11.4h0.1Z" transform="translate(-27 -22.9)"/><path class="a" d="M44.3,194.2H36.8v-1.1l3-3a20.66,20.66,0,0,0,1.8-2,7.46,7.46,0,0,0,.7-1.2,5,5,0,0,0,.2-1.2,1.68,1.68,0,0,0-.6-1.4,2,2,0,0,0-1.5-.5,5.07,5.07,0,0,0-1.3.2,4.64,4.64,0,0,0-1.4.9L37,184a5.19,5.19,0,0,1,3.4-1.3,3.74,3.74,0,0,1,2.5.8,2.79,2.79,0,0,1,.9,2.2,4.2,4.2,0,0,1-.6,2.1,15,15,0,0,1-2.3,2.7l-2.5,2.4V193h5.9v1.2h0Z" transform="translate(-27 -22.9)"/><path class="a" d="M53.1,185.5a2.79,2.79,0,0,1-.6,1.8,2.59,2.59,0,0,1-1.7.9v0.1a2.72,2.72,0,0,1,2.7,2.7,3.1,3.1,0,0,1-1.1,2.5,5.07,5.07,0,0,1-3.2.9,9.15,9.15,0,0,1-1.7-.1,8.8,8.8,0,0,1-1.5-.5v-1.2c0.5,0.2,1,.4,1.6.6a10,10,0,0,0,1.6.2c2,0,3-.8,3-2.3s-1.1-2.1-3.3-2.1H47.8v-1.1h1.1a3.28,3.28,0,0,0,2.1-.6,1.94,1.94,0,0,0,.8-1.6,1.49,1.49,0,0,0-.6-1.3,2.54,2.54,0,0,0-1.6-.5,5.9,5.9,0,0,0-1.4.2,5.57,5.57,0,0,0-1.5.8L46,184a5.07,5.07,0,0,1,1.6-.9,6.28,6.28,0,0,1,1.9-.3,4,4,0,0,1,2.6.8A2,2,0,0,1,53.1,185.5Z" transform="translate(-27 -22.9)"/><path class="a" d="M63.2,191.6H61.5v2.6H60.3v-2.6H54.7v-1.1l5.4-7.7h1.4v7.7h1.7v1.1h0Zm-3-1.2v-3.8a22.63,22.63,0,0,1,.1-2.5H60.2a6.35,6.35,0,0,1-.7,1.2l-3.6,5.1h4.3Z" transform="translate(-27 -22.9)"/><path class="a" d="M67.8,187.2a4.1,4.1,0,0,1,2.8.9,3,3,0,0,1,1,2.4,3.76,3.76,0,0,1-1.1,2.8,4.45,4.45,0,0,1-3.1,1,5.46,5.46,0,0,1-2.9-.6v-1.2a9.75,9.75,0,0,0,1.4.6,8.75,8.75,0,0,0,1.6.2,3.28,3.28,0,0,0,2.1-.6,2.41,2.41,0,0,0,.8-1.9c0-1.6-1-2.4-2.9-2.4a19.09,19.09,0,0,0-2,.2l-0.7-.4,0.4-5.3h5.7v1.2H66.3L66,187.5A6.72,6.72,0,0,1,67.8,187.2Z" transform="translate(-27 -22.9)"/><path class="a" d="M73.6,189.3a7.86,7.86,0,0,1,1.3-5,4.78,4.78,0,0,1,3.9-1.7,5.31,5.31,0,0,1,1.4.1v1.1a5.9,5.9,0,0,0-1.4-.2,3.61,3.61,0,0,0-2.8,1.1,6.67,6.67,0,0,0-1.1,3.6H75a3,3,0,0,1,2.7-1.3,3.24,3.24,0,0,1,2.4.9,3.49,3.49,0,0,1,.9,2.5,3.71,3.71,0,0,1-1,2.8,3.39,3.39,0,0,1-2.6,1,3.29,3.29,0,0,1-2.8-1.3A5.34,5.34,0,0,1,73.6,189.3Zm3.8,4a2.06,2.06,0,0,0,1.7-.7,3,3,0,0,0,.6-2,2.61,2.61,0,0,0-.6-1.8,2.2,2.2,0,0,0-1.7-.6,2.77,2.77,0,0,0-1.3.3,2.36,2.36,0,0,0-.9.8,2,2,0,0,0-.3,1.1,4,4,0,0,0,.3,1.5,2.44,2.44,0,0,0,.9,1.1A1.94,1.94,0,0,0,77.4,193.3Z" transform="translate(-27 -22.9)"/><path class="a" d="M84,194.2L88.7,184H82.5v-1.2h7.6v1l-4.7,10.4H84Z" transform="translate(-27 -22.9)"/><path class="a" d="M95.5,182.6a3.9,3.9,0,0,1,2.5.7,2.52,2.52,0,0,1,.9,2,2.46,2.46,0,0,1-.5,1.5,4,4,0,0,1-1.7,1.3,5.4,5.4,0,0,1,2,1.4,2.72,2.72,0,0,1,.6,1.7,2.9,2.9,0,0,1-1,2.3,4,4,0,0,1-2.7.8,4.45,4.45,0,0,1-2.8-.8,2.93,2.93,0,0,1-1-2.3c0-1.3.8-2.3,2.4-3.1a3.92,3.92,0,0,1-1.5-1.3,3,3,0,0,1-.5-1.6,2.52,2.52,0,0,1,.9-2A5.28,5.28,0,0,1,95.5,182.6ZM93,191.3a1.8,1.8,0,0,0,.7,1.5,3.49,3.49,0,0,0,3.6,0,2,2,0,0,0,.6-1.5,1.61,1.61,0,0,0-.6-1.3,6.59,6.59,0,0,0-2.1-1.1,4.54,4.54,0,0,0-1.7,1.1A1.9,1.9,0,0,0,93,191.3Zm2.5-7.6a2.07,2.07,0,0,0-1.5.5,1.43,1.43,0,0,0-.6,1.2,1.66,1.66,0,0,0,.5,1.2,5,5,0,0,0,1.7,1,4,4,0,0,0,1.6-1,2.11,2.11,0,0,0,.5-1.3,1.76,1.76,0,0,0-.6-1.3A3.81,3.81,0,0,0,95.5,183.7Z" transform="translate(-27 -22.9)"/><path class="a" d="M108.4,187.7c0,4.5-1.7,6.7-5.2,6.7a4.64,4.64,0,0,1-1.4-.2v-1.1a5.9,5.9,0,0,0,1.4.2,3.36,3.36,0,0,0,2.8-1.2,5.94,5.94,0,0,0,1-3.6h-0.1a3.46,3.46,0,0,1-1.1,1,4.15,4.15,0,0,1-1.6.3,3.24,3.24,0,0,1-2.4-.9,3.33,3.33,0,0,1-.9-2.5,3.71,3.71,0,0,1,1-2.8,3.39,3.39,0,0,1,2.6-1,3.17,3.17,0,0,1,2,.6,3.71,3.71,0,0,1,1.3,1.7A7.27,7.27,0,0,1,108.4,187.7Zm-3.9-4a2.06,2.06,0,0,0-1.7.7,3,3,0,0,0-.6,2,2.61,2.61,0,0,0,.6,1.8,1.89,1.89,0,0,0,1.7.6,2.77,2.77,0,0,0,1.3-.3,2.36,2.36,0,0,0,.9-0.8,1.93,1.93,0,0,0,.3-1,3.65,3.65,0,0,0-.3-1.5,2.44,2.44,0,0,0-.9-1.1A2,2,0,0,0,104.5,183.7Z" transform="translate(-27 -22.9)"/><path class="a" d="M117.6,188.5a8.51,8.51,0,0,1-.9,4.4,3.16,3.16,0,0,1-2.9,1.5,3.11,3.11,0,0,1-2.8-1.5,8.67,8.67,0,0,1-1-4.4,8.26,8.26,0,0,1,.9-4.4,3,3,0,0,1,2.8-1.4,3.11,3.11,0,0,1,2.8,1.5C117.3,185.1,117.6,186.6,117.6,188.5Zm-6.3,0a7.77,7.77,0,0,0,.6,3.6,2,2,0,0,0,1.9,1.1,2,2,0,0,0,1.9-1.2,11.1,11.1,0,0,0,0-7.2,1.88,1.88,0,0,0-1.9-1.1,2,2,0,0,0-1.9,1.1A8.26,8.26,0,0,0,111.3,188.5Z" transform="translate(-27 -22.9)"/><path class="a" d="M119.6,193.4a0.93,0.93,0,0,1,1.6-.8,1,1,0,0,1,.2.8,1.88,1.88,0,0,1-.2.8,0.91,0.91,0,0,1-.7.3,1.45,1.45,0,0,1-.7-0.2A2.92,2.92,0,0,1,119.6,193.4Zm1.3-2.3h-0.8l-0.4-8.3h1.6Z" transform="translate(-27 -22.9)"/><path class="a" d="M136.1,188.5a6.45,6.45,0,0,1-.3,2,3,3,0,0,1-1,1.4,2.39,2.39,0,0,1-1.4.5,1.5,1.5,0,0,1-1.1-.4,1.39,1.39,0,0,1-.5-1h-0.1a2.44,2.44,0,0,1-.9,1.1,2.12,2.12,0,0,1-1.4.4,2.2,2.2,0,0,1-1.8-.8,3.61,3.61,0,0,1-.7-2.2,3.74,3.74,0,0,1,.9-2.6,3,3,0,0,1,2.4-1,4.87,4.87,0,0,1,1.2.1c0.4,0.1.9,0.2,1.2,0.3l-0.2,3.7v0.2c0,0.9.3,1.4,1,1.4a1.41,1.41,0,0,0,1.2-.8,4.56,4.56,0,0,0,.4-2.2,5.14,5.14,0,0,0-.6-2.5,3.54,3.54,0,0,0-1.6-1.6,6.06,6.06,0,0,0-2.4-.6,5.56,5.56,0,0,0-3,.7,5.77,5.77,0,0,0-2,2.1,6.17,6.17,0,0,0-.7,3.1,4.92,4.92,0,0,0,1.3,3.7,4.55,4.55,0,0,0,3.6,1.3,8.63,8.63,0,0,0,3.4-.7v1a9,9,0,0,1-3.4.7,5.67,5.67,0,0,1-4.4-1.6,6.06,6.06,0,0,1-1.6-4.4,8,8,0,0,1,.8-3.6,6.42,6.42,0,0,1,2.4-2.5,6.76,6.76,0,0,1,3.5-.9,6,6,0,0,1,3,.7,4.82,4.82,0,0,1,2,2A6.11,6.11,0,0,1,136.1,188.5Zm-8.1,1c0,1.3.5,2,1.5,2s1.7-.8,1.8-2.4l0.1-2a5,5,0,0,0-1.2-.2,1.86,1.86,0,0,0-1.6.7A2.88,2.88,0,0,0,128,189.5Z" transform="translate(-27 -22.9)"/><path class="a" d="M144.7,187.2l-0.5,2.7h2.2v1H144l-0.7,3.4h-1.1l0.7-3.4h-2.4l-0.6,3.3h-1l0.6-3.4h-2v-1h2.2l0.5-2.7H138v-1h2.3l0.6-3.4H142l-0.6,3.4h2.4l0.7-3.4h1l-0.6,3.5H147v1h-2.3Zm-3.9,2.6h2.4l0.5-2.7h-2.4Z" transform="translate(-27 -22.9)"/><path class="a" d="M155.5,190.7a2.5,2.5,0,0,1-.8,1.8,3.69,3.69,0,0,1-2.2.9v1.8h-1v-1.7a9.7,9.7,0,0,1-1.7-.1,3.32,3.32,0,0,1-1.3-.4v-1.2a5.27,5.27,0,0,0,1.5.5,10.4,10.4,0,0,0,1.5.2v-3.4a4.1,4.1,0,0,1-2.2-1.2,2.52,2.52,0,0,1-.6-1.7,2.29,2.29,0,0,1,.8-1.7,4,4,0,0,1,2.1-.8v-1.4h1v1.4a6.71,6.71,0,0,1,2.8.6l-0.4,1a6.87,6.87,0,0,0-2.4-.5v3.4a7.84,7.84,0,0,1,1.8.8,2.58,2.58,0,0,1,.9.9C155.4,189.8,155.5,190.2,155.5,190.7Zm-5.6-4.8a1.28,1.28,0,0,0,.4,1,2.72,2.72,0,0,0,1.2.7v-3a2.2,2.2,0,0,0-1.2.5A1,1,0,0,0,149.9,185.9Zm4.2,4.9a1.22,1.22,0,0,0-.3-0.9,3.75,3.75,0,0,0-1.3-.7v3C153.6,192.1,154.1,191.6,154.1,190.8Z" transform="translate(-27 -22.9)"/><path class="a" d="M162,186.2a4.91,4.91,0,0,1-.6,2.7,2,2,0,0,1-1.8.9,2,2,0,0,1-1.7-.9,6.37,6.37,0,0,1,0-5.4,2,2,0,0,1,1.7-.9,1.85,1.85,0,0,1,1.7.9A4.85,4.85,0,0,1,162,186.2Zm-3.6,0a5.25,5.25,0,0,0,.3,2,1.07,1.07,0,0,0,.9.7c0.9,0,1.3-.9,1.3-2.7s-0.4-2.6-1.3-2.6a0.93,0.93,0,0,0-.9.7A4.09,4.09,0,0,0,158.4,186.2Zm8.5-3.4-6.3,11.4h-1.1l6.3-11.4h1.1Zm2,8a4.91,4.91,0,0,1-.6,2.7,2,2,0,0,1-1.8.9,2,2,0,0,1-1.7-.9,6.37,6.37,0,0,1,0-5.4,2.06,2.06,0,0,1,3.4,0A4.85,4.85,0,0,1,168.9,190.8Zm-3.6,0a4.92,4.92,0,0,0,.3,2,1.07,1.07,0,0,0,.9.7,1,1,0,0,0,1-.7,6.82,6.82,0,0,0,0-4,1,1,0,0,0-1-.6,0.8,0.8,0,0,0-.9.6A4.92,4.92,0,0,0,165.3,190.8Z" transform="translate(-27 -22.9)"/><path class="a" d="M170.1,189.9l3.4-7.2h0.8l3.7,7.2h-1.2l-2.9-5.8-2.6,5.8h-1.2Z" transform="translate(-27 -22.9)"/><path class="a" d="M179.3,191.2a3.45,3.45,0,0,1,.5-1.8,8.27,8.27,0,0,1,1.9-1.6c-0.4-.5-0.7-0.9-0.9-1.1a3,3,0,0,1-.4-0.8,2.77,2.77,0,0,1-.1-0.9,2.2,2.2,0,0,1,.8-1.8,3.3,3.3,0,0,1,2.1-.7,2.72,2.72,0,0,1,2,.7,2.27,2.27,0,0,1,.7,1.8,2.46,2.46,0,0,1-.5,1.5,5.61,5.61,0,0,1-1.8,1.4l3.2,3.1a4.13,4.13,0,0,0,.7-1.1,5.73,5.73,0,0,0,.4-1.4h1.3a8.29,8.29,0,0,1-1.6,3.4l2.3,2.3h-1.8l-1.4-1.4a5.54,5.54,0,0,1-1.9,1.2,6.54,6.54,0,0,1-2.1.4,4,4,0,0,1-2.6-.8A3.05,3.05,0,0,1,179.3,191.2Zm3.5,2a4.14,4.14,0,0,0,3.1-1.2l-3.4-3.3a4.55,4.55,0,0,0-1.2.9,3,3,0,0,0-.5.7,2.92,2.92,0,0,0-.2.9,1.68,1.68,0,0,0,.6,1.4A2.11,2.11,0,0,0,182.8,193.2Zm-1.2-8.1a1.69,1.69,0,0,0,.3,1,7.74,7.74,0,0,0,1,1.2,6.15,6.15,0,0,0,1.4-1.1,1.5,1.5,0,0,0,.4-1.1,1.28,1.28,0,0,0-.4-1,1.71,1.71,0,0,0-2.2,0A1.23,1.23,0,0,0,181.6,185.1Z" transform="translate(-27 -22.9)"/><path class="a" d="M195.2,182l-0.3,3.1,3.1-.9,0.2,1.4-3,.2,1.9,2.5-1.3.7-1.4-2.8-1.2,2.8-1.4-.7,1.9-2.5-2.9-.2,0.2-1.4,3.1,0.9-0.3-3.1h1.4Z" transform="translate(-27 -22.9)"/><path class="a" d="M199.5,189.8a12.26,12.26,0,0,1,.6-3.9,10.86,10.86,0,0,1,1.7-3.2h1.3a10.36,10.36,0,0,0-1.7,3.3,11.48,11.48,0,0,0-.6,3.7,11.93,11.93,0,0,0,.6,3.7,10.36,10.36,0,0,0,1.7,3.3h-1.2a10.52,10.52,0,0,1-1.8-3.1A11.64,11.64,0,0,1,199.5,189.8Z" transform="translate(-27 -22.9)"/><path class="a" d="M207.7,189.8a11.64,11.64,0,0,1-.6,3.8,10.3,10.3,0,0,1-1.7,3.1h-1.2a12.89,12.89,0,0,0,1.7-3.3,11.71,11.71,0,0,0,0-7.4,10.36,10.36,0,0,0-1.7-3.3h1.3a11.07,11.07,0,0,1,1.8,3.2A24.53,24.53,0,0,1,207.7,189.8Z" transform="translate(-27 -22.9)"/><path class="a" d="M215.5,196.7h-7.2v-1h7.2v1Z" transform="translate(-27 -22.9)"/><path class="b" d="M30.4,137.8v5.4H28.7V130.3h3.6a12.48,12.48,0,0,1,2.1.2,5.23,5.23,0,0,1,1.5.7,3.13,3.13,0,0,1,.9,1.1,3.34,3.34,0,0,1,.3,1.5,5.07,5.07,0,0,1-.2,1.3,3.88,3.88,0,0,1-.6,1.1,2.72,2.72,0,0,1-1,.8,5,5,0,0,1-1.3.5,2.65,2.65,0,0,1,.6.5l3.8,5.1H36.9a0.67,0.67,0,0,1-.7-0.4l-3.3-4.6-0.3-.3a0.75,0.75,0,0,0-.5-0.1l-1.7.1h0Zm0-1.3h1.8a4.44,4.44,0,0,0,1.3-.2,3.13,3.13,0,0,0,1-.5,1.56,1.56,0,0,0,.6-0.8,3.55,3.55,0,0,0,.2-1,2,2,0,0,0-.8-1.7,3.71,3.71,0,0,0-2.3-.6H30.3v4.8h0.1Z" transform="translate(-27 -22.9)"/><path class="b" d="M43.4,133.9a3.65,3.65,0,0,1,1.5.3,2.55,2.55,0,0,1,1.2.8,5.67,5.67,0,0,1,.8,1.3,4.67,4.67,0,0,1,.3,1.7,0.62,0.62,0,0,1-.1.5,0.37,0.37,0,0,1-.3.1H40.7a6.05,6.05,0,0,0,.2,1.5,2.44,2.44,0,0,0,1.5,1.7,3.73,3.73,0,0,0,1.2.2,3.08,3.08,0,0,0,1-.1c0.3-.1.5-0.2,0.8-0.3a2.19,2.19,0,0,0,.5-0.3,0.6,0.6,0,0,1,.4-0.1,0.53,0.53,0,0,1,.3.2L47,142a4.35,4.35,0,0,1-.7.6,3.55,3.55,0,0,1-.9.4c-0.3.1-.6,0.2-1,0.3a3.4,3.4,0,0,1-1,.1,4.67,4.67,0,0,1-1.7-.3,4.19,4.19,0,0,1-1.4-.9,3.77,3.77,0,0,1-.9-1.5,6.65,6.65,0,0,1-.3-2.1,5.66,5.66,0,0,1,.3-1.8,4.68,4.68,0,0,1,.8-1.4,6.42,6.42,0,0,1,1.3-1A4.89,4.89,0,0,1,43.4,133.9Zm0.1,1.2a2.14,2.14,0,0,0-1.8.7,3.34,3.34,0,0,0-.8,1.9h5a3,3,0,0,0-.2-1,5.94,5.94,0,0,0-.4-0.8,1.79,1.79,0,0,0-.7-0.5A3,3,0,0,0,43.5,135.1Z" transform="translate(-27 -22.9)"/><path class="b" d="M52.3,133.9a3.75,3.75,0,0,1,1.1.1,2.47,2.47,0,0,1,.9.4h2.5V135a0.42,0.42,0,0,1-.4.4l-1,.1a2.77,2.77,0,0,1,.3,1.3,2.66,2.66,0,0,1-.3,1.2,2.18,2.18,0,0,1-.7.9,2.38,2.38,0,0,1-1.1.6,5.9,5.9,0,0,1-1.4.2,5,5,0,0,1-1.2-.2,1.51,1.51,0,0,0-.4.4,0.6,0.6,0,0,0-.1.4,0.55,0.55,0,0,0,.3.5,1.45,1.45,0,0,0,.7.2c0.3,0,.6.1,1,0.1h1.1a3.75,3.75,0,0,1,1.1.1c0.4,0.1.7,0.2,1,.3a4.35,4.35,0,0,1,.7.6,1.69,1.69,0,0,1,.3,1,2,2,0,0,1-.3,1.1,3.92,3.92,0,0,1-.8,1,5.39,5.39,0,0,1-1.3.7,4.84,4.84,0,0,1-1.8.3,9.91,9.91,0,0,1-1.8-.2,3.34,3.34,0,0,1-1.2-.5,1.78,1.78,0,0,1-.7-0.8,1.49,1.49,0,0,1-.2-0.9,1.37,1.37,0,0,1,.4-1.1,3.6,3.6,0,0,1,1.2-.8,1,1,0,0,1-.6-0.5,1.08,1.08,0,0,1-.2-0.8,0.6,0.6,0,0,1,.1-0.4,0.76,0.76,0,0,1,.2-0.4,1.51,1.51,0,0,1,.4-0.4,2.19,2.19,0,0,1,.5-0.3,3.57,3.57,0,0,1-1.1-1,2.41,2.41,0,0,1-.4-1.5,2.66,2.66,0,0,1,.3-1.2,2.18,2.18,0,0,1,.7-0.9,3.88,3.88,0,0,1,1.1-.6A3.76,3.76,0,0,0,52.3,133.9Zm2.9,9.8a1.42,1.42,0,0,0-.2-0.6,0.85,0.85,0,0,0-.5-0.3c-0.2-.1-0.5-0.1-0.7-0.2s-0.6-.1-0.9-0.1h-1a2.77,2.77,0,0,1-.9-0.1,5.55,5.55,0,0,0-.8.6,1.14,1.14,0,0,0-.3.8,1.42,1.42,0,0,0,.2.6,2.36,2.36,0,0,0,.5.5,6.89,6.89,0,0,0,.8.3,4.12,4.12,0,0,0,1.2.1,4.87,4.87,0,0,0,1.2-.1l0.9-.3a1.21,1.21,0,0,0,.5-0.5A1.65,1.65,0,0,0,55.2,143.7Zm-2.9-5a2.77,2.77,0,0,0,.9-0.1,1.27,1.27,0,0,0,.6-0.4c0.1-.2.3-0.4,0.4-0.6a1.7,1.7,0,0,0,.1-0.7,1.73,1.73,0,0,0-.5-1.3,2.07,2.07,0,0,0-1.5-.5,2.46,2.46,0,0,0-1.5.5,1.9,1.9,0,0,0-.5,1.3,1.48,1.48,0,0,0,.1.7,1.84,1.84,0,0,0,1,1A2.77,2.77,0,0,0,52.3,138.7Z" transform="translate(-27 -22.9)"/><path class="b" d="M59.8,134.1v5.8a2.54,2.54,0,0,0,.5,1.6,1.68,1.68,0,0,0,1.4.6,2.77,2.77,0,0,0,1.3-.3,3.13,3.13,0,0,0,1.1-.9v-6.7h1.6v9.1h-1a0.35,0.35,0,0,1-.4-0.3l-0.1-1a6.89,6.89,0,0,1-1.3,1.1,3.29,3.29,0,0,1-1.7.4,5.07,5.07,0,0,1-1.3-.2,3.59,3.59,0,0,1-1-.7,2.38,2.38,0,0,1-.6-1.1,5.9,5.9,0,0,1-.2-1.4v-5.8h1.7v-0.2Z" transform="translate(-27 -22.9)"/><path class="b" d="M70.2,129.9v13.3H68.6V129.9h1.6Z" transform="translate(-27 -22.9)"/><path class="b" d="M79.7,143.2H79a0.48,0.48,0,0,1-.4-0.1,0.25,0.25,0,0,1-.2-0.3l-0.2-.8c-0.2.2-.5,0.4-0.7,0.6a2.51,2.51,0,0,1-.7.4c-0.3.1-.5,0.2-0.8,0.3a2.77,2.77,0,0,1-.9.1,3.08,3.08,0,0,1-1-.1,2,2,0,0,1-.8-0.4,2.18,2.18,0,0,1-.5-0.8,3.59,3.59,0,0,1-.2-1.1,1.69,1.69,0,0,1,.3-1,3,3,0,0,1,1-.9,4.28,4.28,0,0,1,1.7-.6,10.17,10.17,0,0,1,2.6-.2v-0.7a2.35,2.35,0,0,0-.5-1.6,1.54,1.54,0,0,0-1.3-.5,3.08,3.08,0,0,0-1,.1,4.87,4.87,0,0,0-.7.3,2.19,2.19,0,0,0-.5.3,0.6,0.6,0,0,1-.4.1,0.37,0.37,0,0,1-.3-0.1l-0.2-.2-0.3-.5a5.72,5.72,0,0,1,1.6-1.1,4.06,4.06,0,0,1,1.9-.4,3.19,3.19,0,0,1,1.4.3,3.59,3.59,0,0,1,1,.7,2.38,2.38,0,0,1,.6,1.1,5.9,5.9,0,0,1,.2,1.4v5.7h0Zm-4.1-1a2.2,2.2,0,0,0,.8-0.1,6.38,6.38,0,0,0,.7-0.2,2.09,2.09,0,0,0,.6-0.4,2.65,2.65,0,0,0,.6-0.5v-1.9a10.89,10.89,0,0,0-1.9.1,5,5,0,0,0-1.3.4,2.1,2.1,0,0,0-.7.5,1.45,1.45,0,0,0-.2.7,1.08,1.08,0,0,0,.1.6c0.1,0.1.2,0.3,0.3,0.4a0.76,0.76,0,0,0,.5.2A0.48,0.48,0,0,0,75.6,142.2Z" transform="translate(-27 -22.9)"/><path class="b" d="M82.2,143.2v-9.1h0.9a0.48,0.48,0,0,1,.4.1,0.37,0.37,0,0,1,.1.3l0.1,1.4a4.43,4.43,0,0,1,1.2-1.5,2.35,2.35,0,0,1,1.6-.5,1.48,1.48,0,0,1,.7.1c0.2,0.1.4,0.1,0.6,0.2l-0.2,1.2a0.25,0.25,0,0,1-.3.2,0.76,0.76,0,0,1-.4-0.1,1.48,1.48,0,0,0-.7-0.1,2.17,2.17,0,0,0-1.4.5,2.84,2.84,0,0,0-.9,1.4v5.8H82.2v0.1Z" transform="translate(-27 -22.9)"/><path class="a" d="M32.7,279.2H30.3v-9.4H27.2v-2h8.6v2H32.7v9.4Z" transform="translate(-27 -22.9)"/><path class="a" d="M45.5,279.2H43.1v-5.1c0-1.3-.5-1.9-1.4-1.9a1.42,1.42,0,0,0-1.4.7,4.32,4.32,0,0,0-.4,2.2v4.1H37.5V267h2.4v2.5a10.33,10.33,0,0,1-.1,1.4l-0.1.7h0.1a2.66,2.66,0,0,1,2.5-1.3,3.2,3.2,0,0,1,2.3.8,3.29,3.29,0,0,1,.8,2.4v5.7h0.1Z" transform="translate(-27 -22.9)"/><path class="a" d="M51.9,279.4a4.15,4.15,0,0,1-4.5-4.5,5,5,0,0,1,1.1-3.4,3.77,3.77,0,0,1,3-1.2,4,4,0,0,1,2.9,1.1,4,4,0,0,1,1,2.9v1.2H49.8a2.06,2.06,0,0,0,2.2,2.2,7.72,7.72,0,0,0,1.5-.2A8.8,8.8,0,0,0,55,277v1.8a6.94,6.94,0,0,1-1.3.5C53.1,279.3,52.6,279.4,51.9,279.4ZM51.5,272a1.66,1.66,0,0,0-1.2.5,2,2,0,0,0-.5,1.4h3.3a2.17,2.17,0,0,0-.5-1.4A1.08,1.08,0,0,0,51.5,272Z" transform="translate(-27 -22.9)"/><path class="a" d="M64.3,279.4a2.85,2.85,0,0,1-2.4-1.2,6.5,6.5,0,0,1,0-6.6,2.85,2.85,0,0,1,2.4-1.2,2.9,2.9,0,0,1,1.4.3,2.59,2.59,0,0,1,1.1,1h0.1l0.2-1.1h2v12.6H66.7v-3.7a6.64,6.64,0,0,1,.1-1.3H66.7a4.74,4.74,0,0,1-1,1A2.1,2.1,0,0,1,64.3,279.4Zm0.9-1.9a1.73,1.73,0,0,0,1.3-.5,3.52,3.52,0,0,0,.5-1.8v-0.3a3.52,3.52,0,0,0-.4-2,1.68,1.68,0,0,0-1.4-.6c-1.1,0-1.7.9-1.7,2.6a3.74,3.74,0,0,0,.4,2A1.38,1.38,0,0,0,65.2,277.5Z" transform="translate(-27 -22.9)"/><path class="a" d="M77.9,279.2l-0.3-1.1H77.5a2.44,2.44,0,0,1-1.1.9,4.15,4.15,0,0,1-1.6.3,3.2,3.2,0,0,1-2.3-.8,3.29,3.29,0,0,1-.8-2.4v-5.7h2.4v5.1a2.65,2.65,0,0,0,.3,1.4,1.29,1.29,0,0,0,1.1.5,1.42,1.42,0,0,0,1.4-.7,4.32,4.32,0,0,0,.4-2.2v-4.1h2.4v8.7H77.9v0.1Z" transform="translate(-27 -22.9)"/><path class="a" d="M82.1,268.2a1.3,1.3,0,0,1,2.6,0,1.22,1.22,0,0,1-.3.9,1.33,1.33,0,0,1-1,.3A1.09,1.09,0,0,1,82.1,268.2Zm2.5,11H82.2v-8.7h2.4v8.7Z" transform="translate(-27 -22.9)"/><path class="a" d="M90.6,279.4c-2.7,0-4.1-1.5-4.1-4.5a5,5,0,0,1,1.1-3.4,4.08,4.08,0,0,1,3.2-1.2,6,6,0,0,1,2.7.6l-0.7,1.8a6.89,6.89,0,0,0-1-.4,3.08,3.08,0,0,0-1-.1c-1.2,0-1.9.9-1.9,2.6s0.6,2.6,1.9,2.6a5.07,5.07,0,0,0,1.3-.2,3.38,3.38,0,0,0,1.2-.6v2a6.12,6.12,0,0,1-1.2.5A3.34,3.34,0,0,1,90.6,279.4Z" transform="translate(-27 -22.9)"/><path class="a" d="M97.6,274.4l1-1.3,2.4-2.7h2.7l-3.5,3.8,3.7,4.9h-2.8l-2.5-3.5-1,.8v2.7H95.2V266.9h2.4v7.5h0Z" transform="translate(-27 -22.9)"/><path class="a" d="M114.2,270.3a2.85,2.85,0,0,1,2.4,1.2,5.39,5.39,0,0,1,.9,3.3,5.71,5.71,0,0,1-.9,3.4,2.91,2.91,0,0,1-2.5,1.2,3,3,0,0,1-2.4-1.1h-0.2l-0.4,1h-1.8V267.1h2.4v2.8a12.28,12.28,0,0,1-.1,1.7h0.1A2.76,2.76,0,0,1,114.2,270.3Zm-0.7,1.9a1.73,1.73,0,0,0-1.3.5,3,3,0,0,0-.4,1.8v0.3a3.52,3.52,0,0,0,.4,2,1.49,1.49,0,0,0,1.3.6,1.31,1.31,0,0,0,1.2-.7,3.74,3.74,0,0,0,.4-2,3.16,3.16,0,0,0-.4-1.9A1.43,1.43,0,0,0,113.5,272.2Z" transform="translate(-27 -22.9)"/><path class="a" d="M124.4,270.3a2,2,0,0,1,.8.1l-0.2,2.2a1.48,1.48,0,0,0-.7-0.1,2.44,2.44,0,0,0-1.8.6,2.11,2.11,0,0,0-.6,1.6v4.4h-2.4v-8.7h1.8l0.4,1.5h0.1a3.18,3.18,0,0,1,1.1-1.2A2.6,2.6,0,0,1,124.4,270.3Z" transform="translate(-27 -22.9)"/><path class="a" d="M134.7,274.8a4.86,4.86,0,0,1-1.1,3.3,4.49,4.49,0,0,1-5.3.6,4.63,4.63,0,0,1-1.5-1.6,4.71,4.71,0,0,1-.5-2.4,4.86,4.86,0,0,1,1.1-3.3,4,4,0,0,1,3.1-1.2,5.09,5.09,0,0,1,2.2.5,3.89,3.89,0,0,1,1.5,1.6A5.1,5.1,0,0,1,134.7,274.8Zm-6,0a3.74,3.74,0,0,0,.4,2,1.61,1.61,0,0,0,1.4.7,1.51,1.51,0,0,0,1.4-.7,3.52,3.52,0,0,0,.4-2,3.16,3.16,0,0,0-.4-1.9,1.56,1.56,0,0,0-1.4-.6,1.68,1.68,0,0,0-1.4.6A3.16,3.16,0,0,0,128.7,274.8Z" transform="translate(-27 -22.9)"/><path class="a" d="M143.8,279.2l-0.7-3.1-0.9-3.9h-0.1l-1.6,6.9h-2.6l-2.5-8.7h2.4l1,3.9a27.69,27.69,0,0,1,.5,2.9h0a9.91,9.91,0,0,1,.3-1.9l0.1-.7,1.1-4.2h2.6l1,4.2a4.33,4.33,0,0,1,.1.5c0,0.2.1,0.5,0.1,0.7s0.1,0.5.1,0.7,0.1,0.4.1,0.6h0a10.4,10.4,0,0,1,.2-1.5,4.91,4.91,0,0,1,.3-1.3l1-3.9h2.3l-2.5,8.7-2.3.1h0Z" transform="translate(-27 -22.9)"/><path class="a" d="M158.4,279.2H156v-5.1a2.65,2.65,0,0,0-.3-1.4,1.29,1.29,0,0,0-1.1-.5,1.42,1.42,0,0,0-1.4.7,4.32,4.32,0,0,0-.4,2.2v4.1h-2.4v-8.7h1.8l0.3,1.1h0.1a3.57,3.57,0,0,1,1.1-1,4.15,4.15,0,0,1,1.6-.3,3.2,3.2,0,0,1,2.3.8,3.29,3.29,0,0,1,.8,2.4v5.7h0Z" transform="translate(-27 -22.9)"/><path class="a" d="M169.9,272.3h-2.1v6.9h-2.4v-6.9h-1.3v-1.1l1.3-.6V270a2.92,2.92,0,0,1,.7-2.2,3.29,3.29,0,0,1,2.4-.7,5.09,5.09,0,0,1,2.2.4l-0.6,1.8a3.18,3.18,0,0,0-1.3-.2,0.78,0.78,0,0,0-.7.3,1.08,1.08,0,0,0-.2.8v0.5H170v1.6h-0.1Z" transform="translate(-27 -22.9)"/><path class="a" d="M179.2,274.8a4.86,4.86,0,0,1-1.1,3.3,4.49,4.49,0,0,1-5.3.6,4.63,4.63,0,0,1-1.5-1.6,4.71,4.71,0,0,1-.5-2.4,4.86,4.86,0,0,1,1.1-3.3,4,4,0,0,1,3.1-1.2,5.09,5.09,0,0,1,2.2.5,3.89,3.89,0,0,1,1.5,1.6A5.1,5.1,0,0,1,179.2,274.8Zm-6.1,0a3.74,3.74,0,0,0,.4,2,1.61,1.61,0,0,0,1.4.7,1.51,1.51,0,0,0,1.4-.7,3.52,3.52,0,0,0,.4-2,3.16,3.16,0,0,0-.4-1.9,1.56,1.56,0,0,0-1.4-.6,1.68,1.68,0,0,0-1.4.6A3.16,3.16,0,0,0,173.1,274.8Z" transform="translate(-27 -22.9)"/><path class="a" d="M182.9,274.7l-2.8-4.3h2.7l1.7,2.8,1.7-2.8h2.7l-2.8,4.3,3,4.5h-2.7l-1.8-3-1.8,3h-2.7Z" transform="translate(-27 -22.9)"/><path class="a" d="M193.8,283a7.77,7.77,0,0,1-1.6-.2v-1.9a4.1,4.1,0,0,0,1.1.1,1.22,1.22,0,0,0,.9-0.3,1.49,1.49,0,0,0,.3-1v-9.3h2.4v9.7a2.86,2.86,0,0,1-.8,2.1A2.82,2.82,0,0,1,193.8,283Zm0.6-14.8a1.3,1.3,0,0,1,2.6,0,1.22,1.22,0,0,1-.3.9,1.33,1.33,0,0,1-1,.3A1.13,1.13,0,0,1,194.4,268.2Z" transform="translate(-27 -22.9)"/><path class="a" d="M205.6,279.2l-0.3-1.1h-0.1a2.44,2.44,0,0,1-1.1.9,4.15,4.15,0,0,1-1.6.3,3.2,3.2,0,0,1-2.3-.8,3.29,3.29,0,0,1-.8-2.4v-5.7h2.4v5.1a2.65,2.65,0,0,0,.3,1.4,1.29,1.29,0,0,0,1.1.5,1.42,1.42,0,0,0,1.4-.7,4.32,4.32,0,0,0,.4-2.2v-4.1h2.4v8.7h-1.8v0.1h0Z" transform="translate(-27 -22.9)"/><path class="a" d="M217.8,279.2h-2.4v-5.1a2.65,2.65,0,0,0-.3-1.4,1.1,1.1,0,0,0-1-.5,1.27,1.27,0,0,0-1.3.7,4.09,4.09,0,0,0-.4,2.2v4.1h-2.5v-8.7h1.8l0.3,1.1h0.1a2.19,2.19,0,0,1,1-.9,3.65,3.65,0,0,1,1.5-.3,2.79,2.79,0,0,1,2.7,1.3h0.2a2.19,2.19,0,0,1,1-.9,4,4,0,0,1,1.5-.3,3,3,0,0,1,2.2.8,3.29,3.29,0,0,1,.8,2.4v5.7h-2.4v-5.1a2.65,2.65,0,0,0-.3-1.4,1.1,1.1,0,0,0-1-.5,1.49,1.49,0,0,0-1.3.6,3.52,3.52,0,0,0-.4,2v4.2h0.2Z" transform="translate(-27 -22.9)"/><path class="a" d="M230.4,279.4a3,3,0,0,1-2.4-1.1h-0.1a9.29,9.29,0,0,1,.1,1.3v3.5h-2.4V270.5h1.9l0.3,1.1h0.1a2.76,2.76,0,0,1,2.5-1.3,2.85,2.85,0,0,1,2.4,1.2,5.39,5.39,0,0,1,.9,3.3,6.05,6.05,0,0,1-.4,2.4,4,4,0,0,1-1.2,1.6A2.35,2.35,0,0,1,230.4,279.4Zm-0.7-7.2a1.73,1.73,0,0,0-1.3.5,3,3,0,0,0-.4,1.8v0.3a3.52,3.52,0,0,0,.4,2,1.49,1.49,0,0,0,1.3.6c1.1,0,1.6-.9,1.6-2.6a3.16,3.16,0,0,0-.4-1.9A1.13,1.13,0,0,0,229.7,272.2Z" transform="translate(-27 -22.9)"/><path class="a" d="M241.9,276.6a2.26,2.26,0,0,1-.9,2,4.46,4.46,0,0,1-2.8.7,7.59,7.59,0,0,1-1.6-.1,6.47,6.47,0,0,1-1.3-.4v-2a5.27,5.27,0,0,0,1.5.5,8.87,8.87,0,0,0,1.5.2c0.9,0,1.3-.2,1.3-0.8a1.06,1.06,0,0,0-.2-0.5,5.92,5.92,0,0,0-.6-0.4,11.74,11.74,0,0,0-1.1-.5,5,5,0,0,1-1.5-.8,2.7,2.7,0,0,1-.7-0.8,3.59,3.59,0,0,1-.2-1.1,2,2,0,0,1,.9-1.8,4.76,4.76,0,0,1,2.6-.6,6.7,6.7,0,0,1,3.1.7l-0.7,1.7c-0.4-.2-0.8-0.3-1.2-0.5a5,5,0,0,0-1.2-.2c-0.7,0-1.1.2-1.1,0.6a0.86,0.86,0,0,0,.3.6,5.24,5.24,0,0,0,1.5.7,5,5,0,0,1,1.5.8,1.78,1.78,0,0,1,.7.8A5,5,0,0,1,241.9,276.6Z" transform="translate(-27 -22.9)"/><path class="a" d="M255.8,274.8a4.86,4.86,0,0,1-1.1,3.3,4.49,4.49,0,0,1-5.3.6,4.63,4.63,0,0,1-1.5-1.6,4.71,4.71,0,0,1-.5-2.4,4.86,4.86,0,0,1,1.1-3.3,4,4,0,0,1,3.1-1.2,5.09,5.09,0,0,1,2.2.5,3.89,3.89,0,0,1,1.5,1.6A5.1,5.1,0,0,1,255.8,274.8Zm-6,0a3.74,3.74,0,0,0,.4,2,1.61,1.61,0,0,0,1.4.7,1.51,1.51,0,0,0,1.4-.7,3.52,3.52,0,0,0,.4-2,3.16,3.16,0,0,0-.4-1.9,1.56,1.56,0,0,0-1.4-.6,1.68,1.68,0,0,0-1.4.6A3.16,3.16,0,0,0,249.8,274.8Z" transform="translate(-27 -22.9)"/><path class="a" d="M259.9,279.2l-3.3-8.7h2.5l1.7,5a11.63,11.63,0,0,1,.4,1.8h0a4.54,4.54,0,0,1,.4-1.8l1.7-5h2.5l-3.3,8.7h-2.6Z" transform="translate(-27 -22.9)"/><path class="a" d="M270.8,279.4a4.15,4.15,0,0,1-4.5-4.5,5,5,0,0,1,1.1-3.4,3.77,3.77,0,0,1,3-1.2,4,4,0,0,1,2.9,1.1,4,4,0,0,1,1,2.9v1.2h-5.6a2.06,2.06,0,0,0,2.2,2.2,7.72,7.72,0,0,0,1.5-.2,8.8,8.8,0,0,0,1.5-.5v1.8a6.94,6.94,0,0,1-1.3.5C272.1,279.3,271.5,279.4,270.8,279.4Zm-0.3-7.4a1.66,1.66,0,0,0-1.2.5,2,2,0,0,0-.5,1.4h3.3a2.17,2.17,0,0,0-.5-1.4A1.17,1.17,0,0,0,270.5,272Z" transform="translate(-27 -22.9)"/><path class="a" d="M281.2,270.3a2,2,0,0,1,.8.1l-0.2,2.2a1.48,1.48,0,0,0-.7-0.1,2.44,2.44,0,0,0-1.8.6,2.11,2.11,0,0,0-.6,1.6v4.4h-2.4v-8.7h1.8l0.4,1.5h0.1a3.18,3.18,0,0,1,1.1-1.2A2.82,2.82,0,0,1,281.2,270.3Z" transform="translate(-27 -22.9)"/><path class="a" d="M291.4,277.5a4.94,4.94,0,0,0,1.5-.3V279a4.81,4.81,0,0,1-2.2.4,2.67,2.67,0,0,1-2.1-.7,3.39,3.39,0,0,1-.7-2.2v-4.2h-1v-1l1.3-.8,0.7-1.8h1.5v1.9h2.4v1.8h-2.4v4.2a1.14,1.14,0,0,0,.3.8C290.9,277.4,291.1,277.5,291.4,277.5Z" transform="translate(-27 -22.9)"/><path class="a" d="M302.8,279.2h-2.4v-5.1c0-1.3-.5-1.9-1.4-1.9a1.42,1.42,0,0,0-1.4.7,4.32,4.32,0,0,0-.4,2.2v4.1h-2.4V267h2.4v2.5a10.33,10.33,0,0,1-.1,1.4l-0.1.7h0.1a2.66,2.66,0,0,1,2.5-1.3,3.2,3.2,0,0,1,2.3.8,3.29,3.29,0,0,1,.8,2.4v5.7h0.1Z" transform="translate(-27 -22.9)"/><path class="a" d="M309.2,279.4a4.15,4.15,0,0,1-4.5-4.5,5,5,0,0,1,1.1-3.4,3.77,3.77,0,0,1,3-1.2,4,4,0,0,1,2.9,1.1,4,4,0,0,1,1,2.9v1.2h-5.6a2.06,2.06,0,0,0,2.2,2.2,7.72,7.72,0,0,0,1.5-.2,8.8,8.8,0,0,0,1.5-.5v1.8a6.94,6.94,0,0,1-1.3.5C310.4,279.3,309.9,279.4,309.2,279.4Zm-0.4-7.4a1.66,1.66,0,0,0-1.2.5,2,2,0,0,0-.5,1.4h3.3a2.17,2.17,0,0,0-.5-1.4A1.08,1.08,0,0,0,308.8,272Z" transform="translate(-27 -22.9)"/><path class="a" d="M321.2,279.2h-2.4V267h2.4v12.2Z" transform="translate(-27 -22.9)"/><path class="a" d="M329.3,279.2l-0.5-1.2h-0.1a3,3,0,0,1-2.9,1.4,2.44,2.44,0,0,1-2.7-2.7,2.39,2.39,0,0,1,1-2.1,4.79,4.79,0,0,1,2.9-.7h1.5v-0.4a1.19,1.19,0,0,0-1.4-1.3,6.88,6.88,0,0,0-2.5.6l-0.8-1.6a7.31,7.31,0,0,1,3.3-.8,4.14,4.14,0,0,1,2.7.8,2.87,2.87,0,0,1,.9,2.3v5.8l-1.4-.1h0Zm-0.7-4h-0.9a2.08,2.08,0,0,0-1.5.4,1.23,1.23,0,0,0-.5,1,1,1,0,0,0,1.2,1,1.71,1.71,0,0,0,1.8-1.8l-0.1-.6h0Z" transform="translate(-27 -22.9)"/><path class="a" d="M339.5,279.2h-6.9v-1.4l4-5.5h-3.8v-1.8h6.5V272l-3.9,5.4h4.1v1.8h0Z" transform="translate(-27 -22.9)"/><path class="a" d="M339.9,270.5h2.6l1.6,4.9q0.15,0.6.3,1.5h0l0.3-1.5,1.6-4.9h2.6l-3.7,9.9a3.81,3.81,0,0,1-1.4,2,3.41,3.41,0,0,1-2.2.7,4.87,4.87,0,0,1-1.2-.1v-1.9a2.77,2.77,0,0,0,.9.1,1.5,1.5,0,0,0,1.1-.4,2,2,0,0,0,.7-1.2l0.1-.4Z" transform="translate(-27 -22.9)"/><path class="a" d="M357.2,279.4a2.85,2.85,0,0,1-2.4-1.2,6.5,6.5,0,0,1,0-6.6,2.91,2.91,0,0,1,2.5-1.2,2.76,2.76,0,0,1,2.5,1.3h0.1a12.76,12.76,0,0,1-.2-1.7v-2.8h2.4v12h-1.8l-0.5-1.1h-0.1A3,3,0,0,1,357.2,279.4Zm0.8-1.9a1.58,1.58,0,0,0,1.3-.5,3.87,3.87,0,0,0,.5-1.8v-0.3a3.52,3.52,0,0,0-.4-2,1.68,1.68,0,0,0-1.4-.6,1.31,1.31,0,0,0-1.2.7,3.74,3.74,0,0,0-.4,2,3.16,3.16,0,0,0,.4,1.9A1.43,1.43,0,0,0,358,277.5Z" transform="translate(-27 -22.9)"/><path class="a" d="M372.5,274.8a4.86,4.86,0,0,1-1.1,3.3,4.49,4.49,0,0,1-5.3.6,4.63,4.63,0,0,1-1.5-1.6,4.71,4.71,0,0,1-.5-2.4,4.86,4.86,0,0,1,1.1-3.3,4,4,0,0,1,3.1-1.2,5.09,5.09,0,0,1,2.2.5,3.89,3.89,0,0,1,1.5,1.6A5.1,5.1,0,0,1,372.5,274.8Zm-6,0a3.74,3.74,0,0,0,.4,2,1.61,1.61,0,0,0,1.4.7,1.51,1.51,0,0,0,1.4-.7,3.52,3.52,0,0,0,.4-2,3.16,3.16,0,0,0-.4-1.9,1.56,1.56,0,0,0-1.4-.6,1.68,1.68,0,0,0-1.4.6A3.16,3.16,0,0,0,366.5,274.8Z" transform="translate(-27 -22.9)"/><path class="a" d="M382.1,270.5v1.2l-1.4.4a2.84,2.84,0,0,1,.4,1.3,2.57,2.57,0,0,1-1,2.2,4.55,4.55,0,0,1-2.7.8h-0.8a1.06,1.06,0,0,0-.4.6c0,0.3.4,0.5,1.3,0.5H379a3.4,3.4,0,0,1,2.2.6,2.2,2.2,0,0,1,.8,1.8,2.71,2.71,0,0,1-1.3,2.4,6.57,6.57,0,0,1-3.7.8,5.3,5.3,0,0,1-2.8-.6,2.1,2.1,0,0,1-1-1.8,1.9,1.9,0,0,1,.5-1.3,3.69,3.69,0,0,1,1.4-.8,1.47,1.47,0,0,1-.6-0.5,1.22,1.22,0,0,1,0-1.6c0.2-.2.5-0.4,0.8-0.7a2.13,2.13,0,0,1-1.1-1,2.6,2.6,0,0,1-.4-1.5,2.66,2.66,0,0,1,.9-2.2,4.14,4.14,0,0,1,2.7-.8,3.44,3.44,0,0,1,.9.1,2.8,2.8,0,0,0,.6.1h3.2Zm-6.8,9.9a1,1,0,0,0,.5.8,2.5,2.5,0,0,0,1.3.3,3.74,3.74,0,0,0,2-.4,1.14,1.14,0,0,0,.7-1,0.67,0.67,0,0,0-.4-0.7,3.92,3.92,0,0,0-1.3-.2h-1.2a2,2,0,0,0-1.1.3A1.38,1.38,0,0,0,375.3,280.4Zm0.9-7.1a1.8,1.8,0,0,0,.3,1.1,1.05,1.05,0,0,0,1,.4,1.16,1.16,0,0,0,1-.4,2,2,0,0,0,.3-1.1c0-1.1-.4-1.6-1.3-1.6S376.2,272.3,376.2,273.3Z" transform="translate(-27 -22.9)"/><path class="a" d="M383.2,278.1a1.16,1.16,0,0,1,.4-1,1.69,1.69,0,0,1,1-.3,1.49,1.49,0,0,1,1,.3,1.53,1.53,0,0,1,.4,1,1.28,1.28,0,0,1-.4,1,1.53,1.53,0,0,1-1,.4,1.49,1.49,0,0,1-1-.3A1.67,1.67,0,0,1,383.2,278.1Z" transform="translate(-27 -22.9)"/><path class="a" d="M33.5,301.2H31.1v-8.9l-0.8.8L29,294.2l-1.2-1.5,3.7-2.9h2v11.4Z" transform="translate(-27 -22.9)"/><path class="a" d="M44.7,301.2h-8v-1.7l2.9-2.9c0.8-.9,1.4-1.5,1.7-1.8a4.7,4.7,0,0,0,.6-0.9,2.92,2.92,0,0,0,.2-0.9,1.05,1.05,0,0,0-.4-1,1.69,1.69,0,0,0-1-.3,3.08,3.08,0,0,0-1.3.3,5.08,5.08,0,0,0-1.3.9l-1.3-1.6a7.57,7.57,0,0,1,1.4-1,6.12,6.12,0,0,1,1.2-.5,6.05,6.05,0,0,1,1.5-.2,4.06,4.06,0,0,1,1.9.4,2.85,2.85,0,0,1,1.3,1.1,3,3,0,0,1,.5,1.6,4,4,0,0,1-.3,1.5,5.51,5.51,0,0,1-.9,1.4,20.15,20.15,0,0,1-2.1,2.1l-1.5,1.4v0.1h5v2H44.7Z" transform="translate(-27 -22.9)"/><path class="a" d="M53.3,292.3a2.79,2.79,0,0,1-.6,1.8,3.17,3.17,0,0,1-1.8,1h0a4,4,0,0,1,2.1.8,2.14,2.14,0,0,1,.7,1.8,3.09,3.09,0,0,1-1.2,2.6,5.51,5.51,0,0,1-3.4.9,8.81,8.81,0,0,1-3.3-.6v-2.1a5.27,5.27,0,0,0,1.5.5,10,10,0,0,0,1.6.2,3,3,0,0,0,1.8-.4,1.49,1.49,0,0,0,.6-1.3,1.08,1.08,0,0,0-.7-1.1,5.48,5.48,0,0,0-2.1-.3H47.6v-1.9h0.9a4.39,4.39,0,0,0,1.9-.3,1.21,1.21,0,0,0,.6-1.2c0-.9-0.5-1.3-1.6-1.3a3.59,3.59,0,0,0-1.1.2,4.88,4.88,0,0,0-1.3.6l-1.1-1.7a5.8,5.8,0,0,1,3.7-1.1,4.65,4.65,0,0,1,2.8.7A3.28,3.28,0,0,1,53.3,292.3Z" transform="translate(-27 -22.9)"/><path class="a" d="M63.2,298.8H61.8v2.4H59.4v-2.4H54.5v-1.6l5-7.4h2.2V297h1.4v1.8h0.1ZM59.4,297v-3.3a2.53,2.53,0,0,1,.1-1.1H59.4a7.46,7.46,0,0,1-.7,1.2L56.6,297h2.8Z" transform="translate(-27 -22.9)"/><path class="a" d="M68.2,293.9a3.57,3.57,0,0,1,2.6.9,3.17,3.17,0,0,1,1,2.5,3.43,3.43,0,0,1-1.2,2.9,4.94,4.94,0,0,1-3.4,1,6.84,6.84,0,0,1-3.1-.6v-2.1a5.78,5.78,0,0,0,1.4.5,8.75,8.75,0,0,0,1.6.2c1.5,0,2.2-.6,2.2-1.8s-0.8-1.7-2.3-1.7a2.77,2.77,0,0,0-.9.1c-0.3.1-.6,0.1-0.8,0.2l-1-.5,0.4-5.8h6.2v2H66.8l-0.2,2.2,0.3-.1A6.15,6.15,0,0,0,68.2,293.9Z" transform="translate(-27 -22.9)"/><path class="a" d="M73.1,296.3a7.65,7.65,0,0,1,1.4-5,5.49,5.49,0,0,1,4.3-1.7,5.76,5.76,0,0,1,1.5.1v1.9a6.75,6.75,0,0,0-1.4-.2,4,4,0,0,0-2,.4,3.18,3.18,0,0,0-1.2,1.1,5.39,5.39,0,0,0-.5,2.1h0.1a2.56,2.56,0,0,1,2.5-1.3,3,3,0,0,1,2.4,1,3.83,3.83,0,0,1,.9,2.7,4,4,0,0,1-1,2.9,3.84,3.84,0,0,1-2.9,1.1,4,4,0,0,1-2.2-.6,5,5,0,0,1-1.5-1.7A11.08,11.08,0,0,1,73.1,296.3Zm4.2,3.1a1.66,1.66,0,0,0,1.2-.5,2.08,2.08,0,0,0,.4-1.5,1.7,1.7,0,0,0-.4-1.3,1.5,1.5,0,0,0-1.2-.5,2.11,2.11,0,0,0-1.3.5,1.61,1.61,0,0,0-.5,1.1,3,3,0,0,0,.5,1.6A1.61,1.61,0,0,0,77.3,299.4Z" transform="translate(-27 -22.9)"/><path class="a" d="M83.5,301.2l4.3-9.4H82.2v-2h8.2v1.5l-4.3,9.9H83.5Z" transform="translate(-27 -22.9)"/><path class="a" d="M95.4,289.6a4,4,0,0,1,2.6.7,2.33,2.33,0,0,1,1,2,3,3,0,0,1-.5,1.6,3,3,0,0,1-1.6,1.2,4.66,4.66,0,0,1,1.8,1.4,2.45,2.45,0,0,1,.6,1.6,3,3,0,0,1-1.1,2.3,4.37,4.37,0,0,1-2.9.9,5,5,0,0,1-2.9-.8,2.71,2.71,0,0,1-1.1-2.3,3.1,3.1,0,0,1,.5-1.7,3.36,3.36,0,0,1,1.7-1.3,4.46,4.46,0,0,1-1.4-1.3,2.82,2.82,0,0,1-.4-1.5,2.33,2.33,0,0,1,1-2A4.55,4.55,0,0,1,95.4,289.6Zm-1.8,8.6a1.23,1.23,0,0,0,.5,1,2.23,2.23,0,0,0,1.3.4,1.7,1.7,0,0,0,1.3-.4,1.28,1.28,0,0,0,.4-1,1.43,1.43,0,0,0-.4-1,10.44,10.44,0,0,0-1.4-1A2.38,2.38,0,0,0,93.6,298.2Zm1.8-6.8a1.69,1.69,0,0,0-1,.3,0.91,0.91,0,0,0-.4.8,1.14,1.14,0,0,0,.3.8,6.29,6.29,0,0,0,1.1.8,3.48,3.48,0,0,0,1.1-.7,1.22,1.22,0,0,0,.3-0.9,1.09,1.09,0,0,0-.4-0.9A3,3,0,0,0,95.4,291.4Z" transform="translate(-27 -22.9)"/><path class="a" d="M108.5,294.7a7.84,7.84,0,0,1-1.4,5,5.35,5.35,0,0,1-4.3,1.7,5.76,5.76,0,0,1-1.5-.1v-1.9a5.9,5.9,0,0,0,1.4.2,4,4,0,0,0,2-.4,2.54,2.54,0,0,0,1.2-1.1,5.39,5.39,0,0,0,.5-2.1h-0.1a3.14,3.14,0,0,1-1,1,3.34,3.34,0,0,1-1.5.3,3,3,0,0,1-2.4-1,3.67,3.67,0,0,1-.9-2.7,4,4,0,0,1,1-2.9,3.76,3.76,0,0,1,2.8-1.1,4,4,0,0,1,2.2.6,5,5,0,0,1,1.5,1.7A6.1,6.1,0,0,1,108.5,294.7Zm-4.1-3.1a1.66,1.66,0,0,0-1.2.5,2.08,2.08,0,0,0-.4,1.5,1.7,1.7,0,0,0,.4,1.3,1.5,1.5,0,0,0,1.2.5,2.11,2.11,0,0,0,1.3-.5,1.61,1.61,0,0,0,.5-1.1,3,3,0,0,0-.5-1.6A1.76,1.76,0,0,0,104.4,291.6Z" transform="translate(-27 -22.9)"/><path class="a" d="M117.7,295.5a7.34,7.34,0,0,1-1,4.4,3.37,3.37,0,0,1-3,1.4,3.44,3.44,0,0,1-3-1.5,7.75,7.75,0,0,1-1-4.4,7.9,7.9,0,0,1,1-4.5,3.37,3.37,0,0,1,3-1.4,3.44,3.44,0,0,1,3,1.5A9.37,9.37,0,0,1,117.7,295.5Zm-5.6,0a7.39,7.39,0,0,0,.4,3,1.26,1.26,0,0,0,1.2.9,1.18,1.18,0,0,0,1.2-.9,9.74,9.74,0,0,0,.4-3,7.39,7.39,0,0,0-.4-3,1.35,1.35,0,0,0-1.2-.9,1.18,1.18,0,0,0-1.2.9A7.39,7.39,0,0,0,112.1,295.5Z" transform="translate(-27 -22.9)"/><path class="a" d="M119.1,300.1a1.16,1.16,0,0,1,.4-1,1.69,1.69,0,0,1,1-.3,1.49,1.49,0,0,1,1,.3,1.53,1.53,0,0,1,.4,1,1.28,1.28,0,0,1-.4,1,1.53,1.53,0,0,1-1,.4,1.49,1.49,0,0,1-1-.3A2.46,2.46,0,0,1,119.1,300.1Zm2.4-2.7h-1.9l-0.4-7.6h2.7Z" transform="translate(-27 -22.9)"/><path class="a" d="M136.4,295.3a4.92,4.92,0,0,1-.4,2.1,4,4,0,0,1-1,1.5,2,2,0,0,1-1.5.5,1.69,1.69,0,0,1-1-.3,1.34,1.34,0,0,1-.6-0.7h-0.1a2.64,2.64,0,0,1-2.1,1,3.29,3.29,0,0,1-2.2-.8,2.82,2.82,0,0,1-.8-2.3,3.45,3.45,0,0,1,3.7-3.7,8.86,8.86,0,0,1,2.8.4l-0.2,3.8c0,0.7.2,1.1,0.6,1.1a0.91,0.91,0,0,0,.8-0.7,5.53,5.53,0,0,0-.2-4.1,3.61,3.61,0,0,0-1.5-1.5,4.19,4.19,0,0,0-2.2-.5,5.4,5.4,0,0,0-2.7.6,4.14,4.14,0,0,0-1.8,1.9,6.39,6.39,0,0,0-.6,2.8,4.15,4.15,0,0,0,4.5,4.5,11,11,0,0,0,1.8-.2,14.62,14.62,0,0,0,2-.5v1.5a9,9,0,0,1-3.7.7,6.14,6.14,0,0,1-4.6-1.6,5.64,5.64,0,0,1-1.7-4.3,7.85,7.85,0,0,1,.8-3.5,7.18,7.18,0,0,1,2.4-2.5,6.87,6.87,0,0,1,3.6-.9,6.43,6.43,0,0,1,3.1.7,5.06,5.06,0,0,1,2.1,2A7.35,7.35,0,0,1,136.4,295.3Zm-8,1c0,1.1.4,1.6,1.3,1.6a1.43,1.43,0,0,0,1.1-.5,3.1,3.1,0,0,0,.4-1.6l0.1-1.7a2.77,2.77,0,0,0-.9-0.1,1.75,1.75,0,0,0-1.5.6A2.31,2.31,0,0,0,128.4,296.3Z" transform="translate(-27 -22.9)"/><path class="a" d="M145,294.6l-0.4,1.8h2V298h-2.3l-0.6,3.2H142l0.6-3.2h-1.5l-0.6,3.2h-1.7l0.6-3.2h-1.9v-1.6h2.2l0.4-1.8h-2V293h2.3l0.6-3.2h1.7l-0.6,3.2h1.5l0.6-3.2h1.7l-0.6,3.2h1.9v1.6H145Zm-3.6,1.8h1.5l0.4-1.8h-1.5Z" transform="translate(-27 -22.9)"/><path class="a" d="M156,297.6a2.52,2.52,0,0,1-.9,2,4.38,4.38,0,0,1-2.5.9v1.6h-1.1v-1.6a6.71,6.71,0,0,1-3.3-.7v-2.1c0.5,0.2,1,.4,1.6.6a5.55,5.55,0,0,0,1.7.3v-2.4L151,296a5.53,5.53,0,0,1-2.2-1.3,2.79,2.79,0,0,1-.6-1.8,2.32,2.32,0,0,1,.9-1.9,4.38,4.38,0,0,1,2.5-.9v-1.2h1.1v1.2a10.05,10.05,0,0,1,3.2.7l-0.7,1.8a10.16,10.16,0,0,0-2.5-.6v2.3a16.43,16.43,0,0,1,2.2,1,2.55,2.55,0,0,1,.9.9A9.32,9.32,0,0,1,156,297.6Zm-5.5-4.6a1.42,1.42,0,0,0,.2.6c0.2,0.1.4,0.3,0.8,0.5v-1.9A1,1,0,0,0,150.5,293Zm3.2,4.7a0.86,0.86,0,0,0-.3-0.6,2.77,2.77,0,0,0-.8-0.5v1.9A0.9,0.9,0,0,0,153.7,297.7Z" transform="translate(-27 -22.9)"/><path class="a" d="M162.5,293.2a4.15,4.15,0,0,1-.7,2.7,2.67,2.67,0,0,1-4,0,4.15,4.15,0,0,1-.7-2.7q0-3.6,2.7-3.6a2.26,2.26,0,0,1,2,.9A4.33,4.33,0,0,1,162.5,293.2Zm-3.4,0a4.87,4.87,0,0,0,.2,1.5,0.63,0.63,0,0,0,.6.5c0.5,0,.8-0.7.8-2s-0.2-2-.8-2a0.74,0.74,0,0,0-.6.5A3,3,0,0,0,159.1,293.2Zm8.8-3.4-6.3,11.4h-1.9l6.3-11.4h1.9Zm2.6,7.9a4.15,4.15,0,0,1-.7,2.7,2.67,2.67,0,0,1-4,0,4.15,4.15,0,0,1-.7-2.7q0-3.6,2.7-3.6a2.26,2.26,0,0,1,2,.9A4.53,4.53,0,0,1,170.5,297.7Zm-3.4.1a4.87,4.87,0,0,0,.2,1.5,0.63,0.63,0,0,0,.6.5c0.5,0,.8-0.7.8-2s-0.2-2-.8-2a0.74,0.74,0,0,0-.6.5A3,3,0,0,0,167.1,297.8Z" transform="translate(-27 -22.9)"/><path class="a" d="M171.1,297.1l3.4-7.4h1.1l3.9,7.4h-1.9l-2.5-5-2.2,5h-1.8Z" transform="translate(-27 -22.9)"/><path class="a" d="M191.6,301.2h-2.9l-0.9-.9a5.68,5.68,0,0,1-3.4,1,4.48,4.48,0,0,1-3-.9,3,3,0,0,1-1.1-2.4,3.45,3.45,0,0,1,.5-1.8,4.48,4.48,0,0,1,1.6-1.4,5.08,5.08,0,0,1-.9-1.3,3.08,3.08,0,0,1-.3-1.3,2.32,2.32,0,0,1,.9-1.9,3.61,3.61,0,0,1,2.4-.7,3.33,3.33,0,0,1,2.3.7,2.27,2.27,0,0,1,.9,1.8,3.37,3.37,0,0,1-.5,1.7,5.16,5.16,0,0,1-1.7,1.5l2.2,2.2a9.12,9.12,0,0,0,1-2.4h2.5a9,9,0,0,1-.8,2.1,14.19,14.19,0,0,1-1.1,1.8Zm-8.9-3.3a1.61,1.61,0,0,0,.5,1.1,1.84,1.84,0,0,0,1.3.4,3.74,3.74,0,0,0,1.8-.5l-2.6-2.6a4.62,4.62,0,0,0-.7.7A1.61,1.61,0,0,0,182.7,297.9Zm2.8-5.6a0.91,0.91,0,0,0-.3-0.7,0.84,0.84,0,0,0-.7-0.2,1.88,1.88,0,0,0-.8.2,0.91,0.91,0,0,0-.3.7,2.08,2.08,0,0,0,.7,1.5,4.31,4.31,0,0,0,1-.7A0.73,0.73,0,0,0,185.5,292.3Z" transform="translate(-27 -22.9)"/><path class="a" d="M196.9,289l-0.3,2.9,2.9-.8,0.3,2-2.7.2,1.7,2.3-1.8.9-1.2-2.4-1.1,2.4-1.8-.9,1.7-2.3-2.6-.2,0.3-2,2.9,0.8-0.3-2.9h2Z" transform="translate(-27 -22.9)"/><path class="a" d="M200.9,296.8a12.26,12.26,0,0,1,.6-3.9,10.86,10.86,0,0,1,1.7-3.2h2a12.89,12.89,0,0,0-1.7,3.3,11.71,11.71,0,0,0,0,7.4,10.67,10.67,0,0,0,1.6,3.2h-1.9a10.52,10.52,0,0,1-1.8-3.1A13.8,13.8,0,0,1,200.9,296.8Z" transform="translate(-27 -22.9)"/><path class="a" d="M210.5,296.8a11.64,11.64,0,0,1-.6,3.8,10.3,10.3,0,0,1-1.7,3.1h-1.9a12,12,0,0,0,1.6-3.2,11.71,11.71,0,0,0,0-7.4,10.36,10.36,0,0,0-1.7-3.3h2A11.07,11.07,0,0,1,210,293,15.18,15.18,0,0,1,210.5,296.8Z" transform="translate(-27 -22.9)"/><path class="a" d="M217.7,303.7h-6.6v-1.1h6.6v1.1Z" transform="translate(-27 -22.9)"/><path class="b" d="M28.5,250.2V237.3h4.1a10.32,10.32,0,0,1,2,.2,4.58,4.58,0,0,1,1.4.7,2.26,2.26,0,0,1,.8,1.1,3.19,3.19,0,0,1,.3,1.4,2.77,2.77,0,0,1-.1.9,1.37,1.37,0,0,1-.5.8c-0.3.2-.5,0.5-0.8,0.7a3.7,3.7,0,0,1-1.1.5,3.76,3.76,0,0,1,2.1,1,2.49,2.49,0,0,1,.7,1.9,4,4,0,0,1-.3,1.5,3.45,3.45,0,0,1-.9,1.2,6.38,6.38,0,0,1-1.4.8,5.41,5.41,0,0,1-1.9.3H28.5v-0.1Zm1.7-7.1h2.3a5.07,5.07,0,0,0,1.3-.2,1.93,1.93,0,0,0,.9-0.5,1.79,1.79,0,0,0,.5-0.7,2.92,2.92,0,0,0,.2-0.9,1.94,1.94,0,0,0-.7-1.7,3.28,3.28,0,0,0-2.1-.5H30.2v4.5Zm0,1.2v4.5H33a5.07,5.07,0,0,0,1.3-.2,1.93,1.93,0,0,0,.9-0.5,3,3,0,0,0,.5-0.7,2.39,2.39,0,0,0,.2-0.9,1.86,1.86,0,0,0-.7-1.6,3.28,3.28,0,0,0-2.1-.6H30.2Z" transform="translate(-27 -22.9)"/><path class="b" d="M43.5,240.9a4.84,4.84,0,0,1,1.8.3,4.19,4.19,0,0,1,1.4.9,3.77,3.77,0,0,1,.9,1.5,5.82,5.82,0,0,1,.3,1.9,5.41,5.41,0,0,1-.3,1.9,3.77,3.77,0,0,1-.9,1.5,3.39,3.39,0,0,1-1.4.9,5.55,5.55,0,0,1-3.6,0,4.19,4.19,0,0,1-1.4-.9,3.77,3.77,0,0,1-.9-1.5,5.82,5.82,0,0,1-.3-1.9,5.41,5.41,0,0,1,.3-1.9,3.77,3.77,0,0,1,.9-1.5,3.39,3.39,0,0,1,1.4-.9A5.66,5.66,0,0,1,43.5,240.9Zm0,8.2a2.26,2.26,0,0,0,2-.9,4.37,4.37,0,0,0,.7-2.5,3.73,3.73,0,0,0-.7-2.5,2.26,2.26,0,0,0-2-.9,3.73,3.73,0,0,0-1.2.2,2.7,2.7,0,0,0-.8.7,3.7,3.7,0,0,0-.5,1.1,6.05,6.05,0,0,0-.2,1.5,5.21,5.21,0,0,0,.2,1.4,3.7,3.7,0,0,0,.5,1.1,2.7,2.7,0,0,0,.8.7C42.7,249,43.1,249.1,43.5,249.1Z" transform="translate(-27 -22.9)"/><path class="b" d="M51.7,236.9v13.3H50.1V236.9h1.6Z" transform="translate(-27 -22.9)"/><path class="b" d="M60.9,250.2a0.35,0.35,0,0,1-.4-0.3l-0.1-1.1a3.34,3.34,0,0,1-1.3,1.1,3.29,3.29,0,0,1-1.7.4A3.19,3.19,0,0,1,56,250a3.13,3.13,0,0,1-1.1-.9,5.23,5.23,0,0,1-.7-1.5,6.48,6.48,0,0,1-.2-2,5.82,5.82,0,0,1,.3-1.9,3.61,3.61,0,0,1,.8-1.5,3.78,3.78,0,0,1,1.2-1,4.26,4.26,0,0,1,1.7-.4,2.9,2.9,0,0,1,1.4.3,4.44,4.44,0,0,1,1.1.8v-5.1h1.6v13.4H60.9ZM57.8,249a2.3,2.3,0,0,0,1.4-.4,3.46,3.46,0,0,0,1.1-1v-4.4a1.89,1.89,0,0,0-1-.8,2.34,2.34,0,0,0-1.2-.2,2.38,2.38,0,0,0-2,.9,4,4,0,0,0-.7,2.6,6.05,6.05,0,0,0,.2,1.5,2.34,2.34,0,0,0,.5,1,1.34,1.34,0,0,0,.7.6A1.64,1.64,0,0,0,57.8,249Z" transform="translate(-27 -22.9)"/></svg>