<?xml version="1.0" encoding="utf-8"?>
<!-- Generator: Adobe Illustrator 19.2.1, SVG Export Plug-In . SVG Version: 6.00 Build 0)  -->
<svg version="1.1" id="Layer_1" xmlns="http://www.w3.org/2000/svg" xmlns:xlink="http://www.w3.org/1999/xlink" x="0px" y="0px"
	 viewBox="0 0 400 320" style="enable-background:new 0 0 400 320;" xml:space="preserve">
<style type="text/css">
	.st0{fill:#48525B;}
	.st1{fill:#FF6E6E;}
	.st2{display:none;}
	.st3{display:inline;}
	.st4{fill:#979797;}
</style>
<g>
	<path class="st0" d="M31.3,54c0-0.5,0-1-0.1-1.8h1.2c0,0.6-0.1,1.2-0.1,1.8h1.4c0.4,0,0.9,0,1.6-0.1V55c-0.3,0-0.9-0.1-1.6-0.1
		h-1.3v1.4h2.4c0,0.4-0.1,1.2-0.1,2.6c0,1.3,0,2.2,0.1,2.7h-2.4v1.3h0.8c0.9,0,1.6,0,2.1-0.1v1.1c-0.5,0-1.2-0.1-2.1-0.1h-0.8v1
		c0,0.5,0,1.1,0.1,1.8h-1.3c0-0.6,0.1-1.2,0.1-1.8v-1h-1.2c-1.2,0-1.9,0-2.3,0.1v-1.1c0.6,0,1.3,0.1,2,0.1h1.6v-1.3h-2.6
		c0-0.5,0.1-1.4,0.1-2.7s0-2.1-0.1-2.6h2.6v-1.4h-1.7c-0.5,0-0.9,0-1.4,0.1v-1.1c0.5,0,1.1,0.1,1.6,0.1H31.3z M33.7,58.4v-1.2h-3.8
		v1.2H33.7z M33.7,60.6v-1.2h-3.8v1.2H33.7z M41.4,56.2v8.7c0,0.8-0.1,1.2-0.4,1.4s-0.9,0.4-1.8,0.5c-0.1-0.5-0.3-1-0.6-1.4
		c0.7,0,1.2,0,1.3-0.1c0.2,0,0.3-0.3,0.3-0.7v-3.1h-3.1c-0.1,0.8-0.3,1.6-0.6,2.5s-0.8,1.8-1.4,2.7c-0.5-0.3-0.9-0.5-1.2-0.6
		c0.6-0.8,1.1-1.5,1.4-2.4c0.3-0.8,0.5-1.9,0.6-3.1c0.1-1.2,0.1-2.5,0.1-3.9s0-2.7-0.1-3.8h5.3C41.4,53.9,41.4,55,41.4,56.2z
		 M40.3,60.6v-2.9h-2.9c0,0.9,0,1.9-0.1,2.9H40.3z M40.3,56.8V54h-2.9v2.8H40.3z"/>
	<path class="st0" d="M48.2,53.6c-1.5,0.1-2.9,0.2-4.3,0.3c-0.1-0.4-0.2-0.7-0.4-1c1.1,0,2.3,0,3.7-0.2c1.4-0.1,2.4-0.3,3.1-0.5
		c0.1,0.4,0.3,0.8,0.5,1.1C50.5,53.4,49.7,53.5,48.2,53.6z M47.7,57.3l1.5-0.8H44v-0.8h0.6c-0.2-0.5-0.4-0.9-0.6-1.2
		c0.2-0.2,0.5-0.3,0.8-0.4c0.2,0.3,0.4,0.7,0.6,1.2l-0.6,0.4h5.1l-0.7-0.4c0.4-0.5,0.7-1,0.9-1.5c0.3,0.2,0.6,0.4,0.9,0.6
		c-0.4,0.3-0.7,0.8-1,1.4h0.4v0.9c-0.3,0.2-1,0.5-2.1,1.1l0.2,0.2l-0.6,0.6h2.9c0,0.5-0.1,1.3-0.1,2.2v4c0,0.6-0.1,1-0.3,1.2
		c-0.2,0.2-0.7,0.5-1.5,0.6c-0.1-0.3-0.2-0.7-0.4-1.1c0.8,0,1.2-0.2,1.2-0.6v-5.5h-4.8v7.2h-1.2c0-0.8,0.1-1.6,0.1-2.2v-3.6
		c0-0.7,0-1.4-0.1-2.2h3.9c-0.3-0.3-0.9-0.8-1.7-1.4c0.2-0.2,0.4-0.4,0.6-0.6L47.7,57.3z M49.4,61.8c-0.2,0.2-0.5,0.3-0.8,0.4
		l-0.2-0.5c-0.5,0-1,0.1-1.5,0.2c-0.5,0.1-0.9,0.2-1.3,0.3l-0.3-0.9c0.2-0.1,0.5-0.3,0.7-0.7c0.2-0.3,0.5-0.7,0.8-1
		c0.2,0.2,0.5,0.3,0.9,0.5c-0.2,0.2-0.6,0.6-1.2,1.2l1.7-0.1C48.1,61,48,60.9,48,60.7c0.2-0.2,0.4-0.3,0.7-0.4
		C49,61,49.3,61.5,49.4,61.8z M48.8,62.5c-0.2,0.2-0.3,0.5-0.5,0.9c-0.2,0.3-0.4,0.6-0.6,0.9c0.3,0.2,0.7,0.4,1,0.6l-0.6,0.7
		c-0.3-0.3-0.6-0.5-0.9-0.7c-0.6,0.4-1.1,0.7-1.4,0.9c-0.2-0.3-0.4-0.6-0.5-0.8c0.5-0.2,1-0.4,1.4-0.6c-0.4-0.2-0.8-0.4-1-0.4
		l0.3-0.6c0.4,0.2,0.8,0.4,1.2,0.6c0.1-0.2,0.2-0.5,0.4-0.7h-1.9v-0.7c0.5,0,0.9,0,1.1,0.1h2V62.5z M48.1,55.1
		c-0.4,0.1-0.7,0.2-1,0.4c-0.2-0.6-0.4-1-0.4-1.4c0.2-0.1,0.5-0.2,0.8-0.3C47.6,54.2,47.9,54.6,48.1,55.1z M54.1,66.9
		c0-1,0.1-2.2,0.1-3.5c-1.4,0-2.4,0-3,0.1v-1.1c0.6,0,1.6,0.1,3,0.1v-2.6c-1.3,0-2.3,0-2.9,0.1v-1c0.6,0,1.1,0.1,1.4,0.1h2.4
		c0.5-1.4,0.7-2.3,0.8-2.9c0.3,0.1,0.8,0.2,1.4,0.4c-0.2,0.2-0.6,1.1-1.2,2.5c1,0,1.7,0,2.3-0.1v1c-0.6,0-1.6-0.1-3.1-0.1v2.6
		c1.2,0,2.1,0,2.8-0.1v1.1c-0.6-0.1-1.6-0.1-2.8-0.1c0,1.2,0,2.4,0.1,3.5H54.1z M58,54.4v1c-0.7-0.1-1.1-0.1-1.4-0.1h-3.7
		c-0.3,0-0.8,0-1.5,0.1v-1c0.7,0,1.1,0,1.4,0.1h3.7C56.8,54.5,57.3,54.4,58,54.4z M54.1,58.2c-0.3,0.1-0.7,0.3-1,0.4
		c-0.5-1.1-0.7-1.8-0.8-1.9c0.2-0.1,0.6-0.2,0.9-0.4C53.6,57.1,53.9,57.7,54.1,58.2z M54.5,52.1c0.4,0.8,0.7,1.3,0.9,1.8
		c-0.4,0.1-0.7,0.3-1,0.4c-0.1-0.4-0.4-1-0.8-1.8C53.9,52.4,54.2,52.3,54.5,52.1z"/>
	<path class="st0" d="M66.2,53.6c-0.2,0.4-0.4,0.7-0.6,1.2h7.2c0,0.8-0.1,1.9-0.1,3.1v5.6c0,0.9,0,1.9,0.1,3.1h-1.3V65h-8.9v1.7
		h-1.3c0-1.2,0.1-2.3,0.1-3.1V58c0-1.1,0-2.1-0.1-3.1h3.1c0.4-0.9,0.7-1.8,0.9-2.7c0.5,0.2,1,0.5,1.5,0.7
		C66.6,53,66.4,53.3,66.2,53.6z M71.5,59.1v-3.3h-8.9v3.3H71.5z M71.5,63.8v-3.5h-8.9v3.5H71.5z"/>
	<path class="st0" d="M78.1,54.8c-0.7,0-1.3,0-1.9,0.1v-1.1c0.7,0,1.4,0.1,2.1,0.1h4c-0.2-0.5-0.4-0.9-0.6-1.4
		c0.8-0.2,1.2-0.3,1.3-0.4c0.2,0.6,0.5,1.2,0.6,1.8h3.2c1,0,1.8,0,2.6-0.1v1.1c-0.8,0-1.6-0.1-2.6-0.1h-1.9c0.3,0.2,0.8,0.4,1.3,0.6
		c-0.5,0.7-1,1.3-1.2,1.9h4.6c0,0.3-0.1,0.8-0.1,1.2c0,0.5,0,0.9,0.1,1.4h-1.2v-1.6H77.2v1.6h-1.3c0-0.5,0.1-1,0.1-1.2
		c0-0.3,0-0.8-0.1-1.4h7.9c0.5-0.9,0.8-1.7,1.1-2.5h-4.6c0.4,0.7,0.7,1.3,0.9,1.9L80,57.3c-0.2-0.6-0.5-1.2-0.9-1.9
		c0.4-0.2,0.8-0.3,1-0.5L78.1,54.8L78.1,54.8z M83.5,58.9c0,0.5-0.1,0.9-0.1,1.4h4.7c0,0.6-0.1,1.2-0.1,1.8v1.6
		c0,0.7-0.2,1.1-0.6,1.3c-0.4,0.2-1,0.4-1.9,0.6c-0.1-0.5-0.2-1-0.5-1.4c0.7,0,1.1-0.1,1.4-0.2c0.3-0.1,0.4-0.4,0.4-0.8v-1.8h-3.4
		v3.3c0,0.7,0,1.4,0.1,2.2h-1.4c0-0.7,0.1-1.4,0.1-2.2v-3.3h-3.1v3.9h-1.3c0-0.5,0.1-1.3,0.1-2.4c0-1,0-1.9-0.1-2.5h4.4
		c0-0.4,0-0.9-0.1-1.4L83.5,58.9L83.5,58.9z"/>
	<path class="st0" d="M95.7,59.5c0-0.3,0-0.8-0.1-1.6h1.2c0,0.5-0.1,1-0.1,1.6h1.2c0.8,0,1.5,0,2.1-0.1v1.2c-0.6,0-1.3-0.1-2.1-0.1
		h-1.2v3.6c0,0.8,0,1.7,0.1,2.5h-1.2c0-0.8,0.1-1.7,0.1-2.5v-2.5c-0.9,1.7-1.9,3.1-3.2,4.4c-0.2-0.3-0.6-0.5-1.1-0.8
		c1.2-1.1,2.4-2.7,3.6-4.8h-0.8c-0.7,0-1.4,0-2.1,0.1v-1.2c0.7,0,1.4,0.1,2.1,0.1L95.7,59.5L95.7,59.5z M96.7,54.1l-4.1,0.6
		c-0.1-0.5-0.3-0.9-0.5-1.3c1.1,0,2.4-0.1,3.9-0.3s2.6-0.5,3.4-0.8c0.2,0.6,0.5,1,0.8,1.4C99.2,53.8,98.1,53.9,96.7,54.1z
		 M94.5,57.6c-0.4,0.2-0.7,0.4-1.1,0.6c-0.2-0.8-0.6-1.6-1.2-2.5c0.3-0.2,0.7-0.3,1.1-0.5C93.9,56.3,94.3,57.1,94.5,57.6z M97,57.3
		c-0.4,0-0.8,0.1-1.1,0.3c-0.2-0.8-0.4-1.7-0.7-2.7l1.1-0.2C96.6,55.6,96.8,56.4,97,57.3z M100.4,63.8c-0.3,0.3-0.7,0.6-1,0.9
		c-0.8-1-1.6-1.9-2.4-2.6c0.3-0.2,0.6-0.5,0.9-0.9C98.8,62.1,99.7,63,100.4,63.8z M98.7,58c-0.4-0.2-0.7-0.4-1.1-0.4
		c0.5-0.7,1-1.7,1.5-3.1c0.5,0.2,0.9,0.5,1.3,0.6C99.8,56,99.3,57,98.7,58z M104.2,64c-0.8,0.7-2.1,1.6-3.9,2.8
		c-0.3-0.5-0.7-0.8-1.1-1.1c0.9-0.3,1.9-0.9,2.8-1.6c1-0.7,2-1.7,3-2.9c0.3,0.3,0.7,0.7,1.2,1.1C105.7,62.8,105,63.3,104.2,64z
		 M104.2,59.3c-0.7,0.7-1.8,1.6-3.2,2.6c-0.3-0.4-0.6-0.8-1-1c1-0.5,1.8-1.1,2.6-1.8c0.8-0.8,1.5-1.5,2-2.2c0.4,0.3,0.8,0.6,1.2,0.9
		C105.5,58.1,104.9,58.6,104.2,59.3z M103.6,55.3c-0.9,0.8-1.7,1.5-2.2,2.1c-0.4-0.4-0.7-0.7-1.1-0.9c0.8-0.5,1.6-1.1,2.4-1.9
		c0.9-0.8,1.4-1.4,1.8-1.9c0.4,0.4,0.8,0.8,1.2,1C105.2,53.9,104.5,54.5,103.6,55.3z"/>
	<path class="st0" d="M120.6,56.8v-1.4h-5.1v3.4h-1.2v-3.4h-5.2v1.4h-1.3c0-0.5,0.1-0.9,0.1-1.2c0-0.4,0-0.8-0.1-1.1h6.5v-0.9h-3.1
		c-1,0-1.6,0-2.1,0.1v-1c0.4,0,1.1,0.1,2,0.1h7.3c1,0,1.7,0,2.2-0.1v0.9h-5.1v0.9h6.4c0,0.3-0.1,0.7-0.1,1.1c0,0.4,0,0.8,0.1,1.2
		H120.6z M119.2,64.7c0.4,0.4,0.8,0.9,1.2,1.3l-1.2,0.9c-0.2-0.5-0.5-0.9-0.7-1.2c-1.4,0.1-2.8,0.2-4.3,0.3
		c-1.4,0.1-2.9,0.3-4.5,0.6c-0.1-0.5-0.2-1-0.4-1.5c0.8-0.1,1.4-0.3,2-0.6c0.5-0.3,1.1-0.8,1.8-1.6h-2.6c-0.8,0-1.5,0-2.1,0.1v-1
		c0.6,0,1.3,0.1,2.1,0.1h8.9c0.7,0,1.4,0,2.1-0.1v1c-0.7,0-1.4-0.1-2.1-0.1h-4.5c-0.5,0.4-1,0.8-1.5,1.2s-0.9,0.8-1.4,1.2
		c0.5,0,1.3,0,2.4-0.1c1,0,2.2-0.1,3.5-0.2l-1-1c0.4-0.2,0.8-0.4,1.2-0.7C118.5,63.8,118.8,64.2,119.2,64.7z M113.3,58.8h-3.6v-0.9
		h3.6V58.8z M117.7,59.7c0.9,0,1.6,0,2.3-0.1v1c-0.8,0-1.5-0.1-2.3-0.1h-6.1c-0.7,0-1.3,0-1.9,0.1v-1c0.6,0,1.2,0.1,1.8,0.1H117.7z
		 M113.3,57.2h-3.4v-0.9h3.4V57.2z M119.9,57.1h-3.5v-0.9h3.5V57.1z M120.2,58.7h-3.8v-0.9h3.8V58.7z"/>
	<path class="st0" d="M130.1,55.8c0,0.3,0,0.8,0.1,1.6h-4.9v7.2c0,0.4,0,1.1,0.1,2.2h-1.2c0-0.7,0.1-1.5,0.1-2.4v-9.9
		c0-0.3,0-0.9-0.1-1.9h6c0,0.4-0.1,0.9-0.1,1.4L130.1,55.8L130.1,55.8z M129,54.6v-1.1h-3.7v1.1H129z M129,56.5v-1.1h-3.7v1.1H129z
		 M133.7,58.8c0,0.6-0.1,1.2-0.1,1.8v2.9c0,0.5,0,1.1,0.1,1.7h-5.9c0.1-0.7,0.1-1.2,0.1-1.8v-2.8c0-0.5,0-1.1-0.1-1.8L133.7,58.8
		L133.7,58.8z M132.6,61.4v-1.6H129v1.6H132.6z M132.6,64.2v-1.8H129v1.8H132.6z M131.7,54.1c0-0.2,0-0.7-0.1-1.4h6
		c0,0.6-0.1,1.2-0.1,1.8v10.7c0,0.7-0.2,1.1-0.5,1.3s-0.8,0.3-1.4,0.4c-0.2-0.4-0.4-0.9-0.8-1.4c0.3,0,0.7,0,1.1,0
		c0.4,0,0.6-0.2,0.6-0.7v-7.4h-4.9c0-0.5,0.1-1,0.1-1.6L131.7,54.1L131.7,54.1z M136.5,54.6v-1.1h-3.7v1.1H136.5z M136.5,56.5v-1.1
		h-3.7v1.1H136.5z"/>
	<path class="st0" d="M34,71.4h-2.5v9.5h-1.4v-9.5h-2.5v-1.2H34V71.4z"/>
	<path class="st0" d="M41.9,80.9h-1.2v-4.5c0-0.5-0.1-0.9-0.4-1.2c-0.2-0.3-0.6-0.4-1-0.4c-0.5,0-1.1,0.3-1.5,0.8
		c-0.5,0.6-0.7,1.3-0.7,2.1v3.2h-1.2V70.2h1.2v5c0.3-0.5,0.7-0.8,1.1-1.1c0.4-0.2,0.9-0.4,1.5-0.4c0.8,0,1.3,0.2,1.7,0.6
		c0.4,0.4,0.6,0.9,0.6,1.6L41.9,80.9L41.9,80.9z"/>
	<path class="st0" d="M50,78.5c-0.1,0.8-0.4,1.4-1,1.8c-0.6,0.5-1.3,0.7-2.1,0.7c-1,0-1.8-0.3-2.5-1c-0.6-0.6-1-1.5-1-2.7
		s0.3-2,1-2.7c0.6-0.6,1.5-1,2.5-1c0.9,0,1.6,0.3,2.2,0.8s0.8,1.5,0.8,2.8h-5c0,0.9,0.2,1.6,0.6,1.9c0.4,0.4,0.9,0.6,1.5,0.6
		c0.5,0,0.8-0.1,1.1-0.3c0.3-0.2,0.5-0.6,0.6-1H50V78.5z M48.5,76.4c-0.1-0.6-0.3-1-0.6-1.2c-0.3-0.2-0.7-0.3-1.1-0.3
		S46,75,45.7,75.2c-0.3,0.2-0.6,0.6-0.8,1.2H48.5z"/>
	<path class="st0" d="M65.8,83.2h-1.2V80c-0.2,0.4-0.5,0.7-0.9,0.8c-0.3,0.2-0.7,0.3-1.2,0.3c-0.8,0-1.5-0.3-2.1-0.9
		c-0.6-0.6-0.9-1.5-0.9-2.8c0-1.2,0.3-2.1,0.9-2.7c0.6-0.6,1.3-0.9,2.1-0.9c0.5,0,0.9,0.1,1.2,0.2c0.3,0.2,0.6,0.4,0.9,0.8v-0.9h1.2
		V83.2z M64.5,77.4c0-0.8-0.2-1.4-0.5-1.8c-0.4-0.4-0.8-0.7-1.3-0.7c-0.6,0-1.1,0.2-1.4,0.7s-0.5,1.1-0.5,1.8c0,0.8,0.2,1.4,0.5,1.9
		s0.8,0.7,1.4,0.7c0.5,0,0.9-0.2,1.3-0.7C64.3,78.8,64.5,78.2,64.5,77.4z"/>
	<path class="st0" d="M73.9,80.9h-1.2v-1.3c-0.3,0.5-0.7,0.8-1.1,1.1c-0.4,0.2-0.9,0.4-1.5,0.4c-0.8,0-1.3-0.2-1.7-0.6
		c-0.4-0.4-0.6-0.9-0.6-1.6V74H69v4.5c0,0.5,0.1,0.9,0.4,1.2c0.2,0.3,0.6,0.4,1,0.4c0.5,0,1.1-0.3,1.5-0.8c0.5-0.6,0.7-1.3,0.7-2.1
		V74h1.2v6.9H73.9z"/>
	<path class="st0" d="M79.4,71.9h-1.2v-1.6h1.2V71.9z M79.4,80.9h-1.2v-7h1.2V80.9z"/>
	<path class="st0" d="M90,78.1c0,0.9-0.3,1.6-0.9,2.1c-0.6,0.5-1.4,0.8-2.3,0.8c-0.9,0-1.7-0.3-2.4-1c-0.7-0.6-1-1.5-1-2.7
		s0.3-2,1-2.7c0.7-0.6,1.5-1,2.4-1s1.6,0.2,2.2,0.7c0.5,0.5,0.8,1.1,0.8,1.7h-1.4c0-0.5-0.2-0.8-0.5-1s-0.7-0.3-1.1-0.3
		c-0.5,0-1,0.2-1.4,0.6c-0.4,0.4-0.6,1-0.6,1.9s0.2,1.5,0.6,1.9c0.4,0.4,0.9,0.6,1.4,0.6s1-0.1,1.3-0.4c0.3-0.3,0.5-0.8,0.5-1.4H90
		V78.1z"/>
	<path class="st0" d="M98.2,80.9h-1.4l-2.2-3.8l-1.4,1.4v2.4H92V70.2h1.2V77l3.1-3.1h1.6l-2.4,2.4L98.2,80.9z"/>
	<path class="st0" d="M114,77.4c0,1.2-0.3,2.1-0.9,2.7c-0.6,0.6-1.3,0.9-2.1,0.9c-0.5,0-0.9-0.1-1.2-0.2c-0.3-0.2-0.6-0.4-0.9-0.8
		v0.9h-1.2V70.2h1.2v4.6c0.2-0.4,0.5-0.7,0.9-0.8c0.3-0.2,0.7-0.3,1.2-0.3c0.8,0,1.5,0.3,2.1,0.9C113.7,75.3,114,76.2,114,77.4z
		 M112.6,77.4c0-0.8-0.2-1.4-0.5-1.9s-0.8-0.7-1.4-0.7c-0.5,0-0.9,0.2-1.3,0.7c-0.4,0.5-0.5,1.1-0.5,1.9c0,0.8,0.2,1.4,0.5,1.8
		c0.4,0.4,0.8,0.7,1.3,0.7c0.6,0,1.1-0.2,1.4-0.7S112.6,78.2,112.6,77.4z"/>
	<path class="st0" d="M121.1,75.1c-0.8-0.1-1.5,0-2,0.3c-0.5,0.4-1,1-1.4,1.8v3.6h-1.2v-7h1.2v1.8c0.4-0.7,0.8-1.2,1.4-1.5
		s1.2-0.5,2-0.5V75.1z"/>
	<path class="st0" d="M130.2,77.4c0,1.1-0.3,2-1,2.6c-0.7,0.7-1.5,1-2.4,1s-1.7-0.3-2.4-1s-1-1.5-1-2.6s0.3-2,1-2.6
		c0.7-0.7,1.5-1,2.4-1s1.7,0.3,2.4,1C129.9,75.4,130.2,76.3,130.2,77.4z M128.8,77.4c0-0.8-0.2-1.5-0.6-1.9
		c-0.4-0.4-0.9-0.6-1.4-0.6s-1,0.2-1.4,0.6c-0.4,0.4-0.6,1-0.6,1.9c0,0.8,0.2,1.5,0.6,1.9c0.4,0.4,0.9,0.6,1.4,0.6s1-0.2,1.4-0.6
		C128.6,78.8,128.8,78.2,128.8,77.4z"/>
	<path class="st0" d="M138.6,73.9L137,81h-1.2l-1-5.4h-0.1l-1,5.4h-1.2l-1.6-7.1h1.3l0.8,4.7h0.1l0.9-4.7h1.4l0.9,4.7h0.1l0.8-4.7
		H138.6z"/>
	<path class="st0" d="M145.9,80.9h-1.2v-4.5c0-0.5-0.1-0.9-0.4-1.2c-0.2-0.3-0.6-0.4-1-0.4c-0.5,0-1.1,0.3-1.5,0.8
		c-0.5,0.6-0.7,1.3-0.7,2.1v3.2h-1.2v-7h1.2v1.3c0.3-0.5,0.7-0.8,1.1-1.1c0.4-0.2,0.9-0.4,1.5-0.4c0.8,0,1.3,0.2,1.7,0.6
		c0.4,0.4,0.6,0.9,0.6,1.6v5H145.9z"/>
	<path class="st0" d="M162,71.6c-0.2-0.1-0.5-0.2-0.8-0.3s-0.7-0.1-1.1-0.1c-0.5,0-0.8,0.1-0.9,0.3c-0.2,0.2-0.2,0.5-0.2,0.8v1.5
		h2.6v1H159v6h-1.2v-6h-2.1v-1h2.1v-1.4c0-0.8,0.2-1.3,0.7-1.8c0.5-0.4,1.1-0.6,1.8-0.6c0.5,0,0.8,0,1.1,0.1s0.5,0.1,0.7,0.2v1.3
		H162z"/>
	<path class="st0" d="M170.2,77.4c0,1.1-0.3,2-1,2.6c-0.7,0.7-1.5,1-2.4,1s-1.7-0.3-2.4-1s-1-1.5-1-2.6s0.3-2,1-2.6
		c0.7-0.7,1.5-1,2.4-1s1.7,0.3,2.4,1C169.9,75.4,170.2,76.3,170.2,77.4z M168.8,77.4c0-0.8-0.2-1.5-0.6-1.9
		c-0.4-0.4-0.9-0.6-1.4-0.6s-1,0.2-1.4,0.6c-0.4,0.4-0.6,1-0.6,1.9c0,0.8,0.2,1.5,0.6,1.9c0.4,0.4,0.9,0.6,1.4,0.6s1-0.2,1.4-0.6
		C168.6,78.8,168.8,78.2,168.8,77.4z"/>
	<path class="st0" d="M178.1,80.9h-1.5l-1.8-2.7l-1.8,2.7h-1.5l2.6-3.6l-2.4-3.4h1.5l1.6,2.6l1.6-2.6h1.5l-2.4,3.4L178.1,80.9z"/>
	<path class="st0" d="M192.7,80.8c0,0.8-0.2,1.3-0.7,1.8c-0.5,0.4-1.1,0.6-1.8,0.6c-0.5,0-0.8,0-1.1-0.1s-0.5-0.1-0.7-0.2v-1.2
		c0.2,0.1,0.5,0.2,0.8,0.3s0.7,0.1,1.1,0.1c0.5,0,0.8-0.1,0.9-0.3c0.2-0.2,0.2-0.5,0.2-0.8v-7h1.2v6.8H192.7z M192.7,71.9h-1.2v-1.6
		h1.2V71.9z"/>
	<path class="st0" d="M201.9,80.9h-1.2v-1.3c-0.3,0.5-0.7,0.8-1.1,1.1c-0.4,0.2-0.9,0.4-1.5,0.4c-0.8,0-1.3-0.2-1.7-0.6
		c-0.4-0.4-0.6-0.9-0.6-1.6V74h1.2v4.5c0,0.5,0.1,0.9,0.4,1.2c0.2,0.3,0.6,0.4,1,0.4c0.5,0,1.1-0.3,1.5-0.8c0.5-0.6,0.7-1.3,0.7-2.1
		V74h1.2v6.9H201.9z"/>
	<path class="st0" d="M210.5,80.9h-1.2v-5.1c0-0.2,0-0.5-0.1-0.6c-0.1-0.2-0.2-0.2-0.5-0.2s-0.6,0.2-0.8,0.5s-0.4,0.7-0.4,1.2v4.2
		h-1.2v-5.1c0-0.2,0-0.5-0.1-0.6c-0.1-0.2-0.2-0.2-0.5-0.2s-0.6,0.2-0.8,0.5s-0.4,0.7-0.4,1.2v4.2h-1.2v-7h1.2v0.9
		c0.2-0.3,0.5-0.6,0.8-0.8s0.6-0.3,0.9-0.3s0.6,0.1,0.8,0.3c0.2,0.2,0.4,0.4,0.5,0.8c0.2-0.3,0.4-0.6,0.7-0.8
		c0.3-0.2,0.6-0.3,0.9-0.3c0.5,0,0.9,0.1,1.1,0.4c0.2,0.3,0.4,0.7,0.4,1.2L210.5,80.9L210.5,80.9z"/>
	<path class="st0" d="M218,77.4c0,1.2-0.3,2.1-0.9,2.8c-0.6,0.6-1.3,0.9-2.1,0.9c-0.5,0-0.9-0.1-1.2-0.3c-0.3-0.2-0.6-0.5-0.9-0.8
		v3.2h-1.2v-9.3h1.2v0.9c0.2-0.4,0.5-0.6,0.9-0.8c0.3-0.2,0.7-0.2,1.2-0.2c0.8,0,1.5,0.3,2.1,0.9C217.7,75.3,218,76.2,218,77.4z
		 M216.6,77.4c0-0.8-0.2-1.4-0.5-1.8s-0.8-0.7-1.4-0.7c-0.5,0-0.9,0.2-1.3,0.7c-0.4,0.4-0.5,1.1-0.5,1.8c0,0.8,0.2,1.4,0.5,1.9
		c0.4,0.5,0.8,0.7,1.3,0.7c0.6,0,1.1-0.2,1.4-0.7C216.4,78.8,216.6,78.2,216.6,77.4z"/>
	<path class="st0" d="M225.8,78.9c0,0.7-0.3,1.2-0.8,1.5c-0.5,0.4-1.2,0.5-2,0.5c-1,0-1.8-0.2-2.3-0.6c-0.5-0.4-0.8-1-0.8-1.7h1.2
		c0,0.5,0.2,0.8,0.5,1c0.4,0.2,0.8,0.2,1.3,0.2s0.9-0.1,1.1-0.3s0.4-0.4,0.4-0.7c0-0.2-0.1-0.4-0.3-0.6c-0.2-0.2-0.7-0.4-1.6-0.5
		c-1-0.1-1.6-0.4-2-0.7c-0.4-0.4-0.5-0.8-0.5-1.4c0-0.5,0.2-0.9,0.7-1.3c0.5-0.4,1.2-0.6,2.1-0.6c0.8,0,1.5,0.2,2,0.6
		c0.5,0.4,0.7,0.9,0.7,1.5h-1.2c0-0.4-0.1-0.6-0.4-0.8c-0.3-0.1-0.6-0.2-1-0.2c-0.5,0-0.9,0.1-1.2,0.3c-0.2,0.2-0.3,0.4-0.3,0.7
		s0.1,0.5,0.3,0.7c0.2,0.2,0.6,0.3,1.3,0.4c1.1,0.2,1.8,0.4,2.2,0.8C225.6,78,225.8,78.4,225.8,78.9z"/>
	<path class="st0" d="M242.2,77.4c0,1.1-0.3,2-1,2.6c-0.7,0.7-1.5,1-2.4,1s-1.7-0.3-2.4-1c-0.7-0.7-1-1.5-1-2.6s0.3-2,1-2.6
		c0.7-0.7,1.5-1,2.4-1s1.7,0.3,2.4,1C241.9,75.4,242.2,76.3,242.2,77.4z M240.8,77.4c0-0.8-0.2-1.5-0.6-1.9s-0.9-0.6-1.4-0.6
		s-1,0.2-1.4,0.6c-0.4,0.4-0.6,1-0.6,1.9c0,0.8,0.2,1.5,0.6,1.9s0.9,0.6,1.4,0.6s1-0.2,1.4-0.6C240.6,78.8,240.8,78.2,240.8,77.4z"
		/>
	<path class="st0" d="M250.1,73.9l-2.6,7.1h-1.4l-2.6-7.1h1.3l1.9,5.4h0.1l1.9-5.4H250.1z"/>
	<path class="st0" d="M258,78.5c-0.1,0.8-0.4,1.4-1,1.8c-0.6,0.5-1.3,0.7-2.1,0.7c-1,0-1.8-0.3-2.5-1c-0.6-0.6-1-1.5-1-2.7
		s0.3-2,1-2.7c0.6-0.6,1.5-1,2.5-1c0.9,0,1.6,0.3,2.2,0.8s0.8,1.5,0.8,2.8h-5c0,0.9,0.2,1.6,0.6,1.9c0.4,0.4,0.9,0.6,1.5,0.6
		c0.5,0,0.8-0.1,1.1-0.3c0.3-0.2,0.5-0.6,0.6-1h1.3V78.5z M256.5,76.4c-0.1-0.6-0.3-1-0.6-1.2c-0.3-0.2-0.7-0.3-1.1-0.3
		s-0.8,0.1-1.1,0.3c-0.3,0.2-0.6,0.6-0.8,1.2H256.5z"/>
	<path class="st0" d="M265.1,75.1c-0.8-0.1-1.5,0-2,0.3c-0.5,0.4-1,1-1.4,1.8v3.6h-1.2v-7h1.2v1.8c0.4-0.7,0.8-1.2,1.4-1.5
		s1.2-0.5,2-0.5V75.1z"/>
	<path class="st0" d="M281.8,80.7c-0.2,0.1-0.4,0.2-0.7,0.2c-0.3,0.1-0.6,0.1-1.1,0.1c-0.8,0-1.4-0.2-1.8-0.6
		c-0.5-0.4-0.7-1-0.7-1.8v-3.8h-2.1v-1h2.1v-2.4h1.2v2.4h2.6v1h-2.6v3.8c0,0.3,0.1,0.6,0.2,0.8c0.2,0.2,0.5,0.3,0.9,0.3
		c0.5,0,0.8,0,1.1-0.1c0.3-0.1,0.5-0.2,0.8-0.3v1.4H281.8z"/>
	<path class="st0" d="M289.9,80.9h-1.2v-4.5c0-0.5-0.1-0.9-0.4-1.2c-0.2-0.3-0.6-0.4-1-0.4c-0.5,0-1.1,0.3-1.5,0.8
		c-0.5,0.6-0.7,1.3-0.7,2.1v3.2h-1.2V70.2h1.2v5c0.3-0.5,0.7-0.8,1.1-1.1c0.4-0.2,0.9-0.4,1.5-0.4c0.8,0,1.3,0.2,1.7,0.6
		c0.4,0.4,0.6,0.9,0.6,1.6v5H289.9z"/>
	<path class="st0" d="M298,78.5c-0.1,0.8-0.4,1.4-1,1.8c-0.6,0.5-1.3,0.7-2.1,0.7c-1,0-1.8-0.3-2.5-1c-0.6-0.6-1-1.5-1-2.7
		s0.3-2,1-2.7c0.6-0.6,1.5-1,2.5-1c0.9,0,1.6,0.3,2.2,0.8s0.8,1.5,0.8,2.8h-5c0,0.9,0.2,1.6,0.6,1.9c0.4,0.4,0.9,0.6,1.5,0.6
		c0.5,0,0.8-0.1,1.1-0.3c0.3-0.2,0.5-0.6,0.6-1h1.3V78.5z M296.5,76.4c-0.1-0.6-0.3-1-0.6-1.2c-0.3-0.2-0.7-0.3-1.1-0.3
		s-0.8,0.1-1.1,0.3c-0.3,0.2-0.6,0.6-0.8,1.2H296.5z"/>
	<path class="st0" d="M311.5,80.9h-1.2V70.2h1.2V80.9z"/>
	<path class="st0" d="M322.1,80.9h-1.5c-0.1-0.1-0.1-0.2-0.2-0.3c0-0.1-0.1-0.3-0.1-0.5c-0.3,0.3-0.6,0.6-1.1,0.8
		c-0.4,0.2-0.9,0.2-1.3,0.2c-0.7,0-1.2-0.2-1.7-0.5s-0.7-0.8-0.7-1.4s0.2-1.1,0.6-1.5s1.1-0.6,1.9-0.8c0.6-0.1,1.1-0.2,1.5-0.3
		s0.7-0.3,0.7-0.5s-0.1-0.5-0.3-0.8s-0.6-0.4-1.2-0.4c-0.5,0-0.9,0.1-1.1,0.3s-0.4,0.4-0.5,0.8h-1.2c0.1-0.7,0.4-1.2,0.9-1.6
		c0.5-0.4,1.2-0.6,2-0.6c0.9,0,1.6,0.2,2.1,0.6c0.5,0.4,0.7,1,0.7,1.8v3.4c0,0.2,0,0.5,0.1,0.7C321.8,80.5,321.9,80.7,322.1,80.9z
		 M320.3,78.6v-1.2c-0.2,0.1-0.5,0.2-0.7,0.2c-0.2,0.1-0.6,0.1-1.2,0.2c-0.6,0.1-1,0.2-1.2,0.4s-0.3,0.5-0.3,0.8
		c0,0.2,0.1,0.5,0.3,0.7s0.5,0.3,0.8,0.3s0.8-0.1,1.2-0.3C319.7,79.4,320.1,79,320.3,78.6z"/>
	<path class="st0" d="M329.8,80.9h-6.1v-1l4.2-5h-4v-1h5.5v1l-4.2,5h4.6V80.9z"/>
	<path class="st0" d="M338.1,73.9l-2.9,7.6c-0.2,0.6-0.4,1-0.8,1.3c-0.3,0.3-0.8,0.4-1.2,0.4c-0.2,0-0.4,0-0.6,0s-0.4-0.1-0.5-0.2
		v-1.2c0.2,0.1,0.3,0.1,0.5,0.2c0.2,0,0.3,0.1,0.4,0.1c0.3,0,0.6-0.1,0.7-0.2c0.1-0.1,0.2-0.3,0.4-0.7l-2.8-7.2h1.4l2,5.5h0.1
		l1.9-5.5L338.1,73.9L338.1,73.9z"/>
	<path class="st0" d="M353.8,80.9h-1.2V80c-0.2,0.4-0.5,0.6-0.9,0.8c-0.3,0.2-0.7,0.2-1.2,0.2c-0.8,0-1.5-0.3-2.1-0.9
		c-0.6-0.6-0.9-1.5-0.9-2.7s0.3-2.1,0.9-2.8c0.6-0.6,1.3-0.9,2.1-0.9c0.5,0,0.9,0.1,1.2,0.3c0.3,0.2,0.6,0.5,0.9,0.8v-4.6h1.2V80.9z
		 M352.5,77.4c0-0.8-0.2-1.4-0.5-1.9c-0.4-0.5-0.8-0.7-1.3-0.7c-0.6,0-1.1,0.2-1.4,0.7s-0.5,1.1-0.5,1.9c0,0.8,0.2,1.4,0.5,1.8
		s0.8,0.7,1.4,0.7c0.5,0,0.9-0.2,1.3-0.7C352.3,78.8,352.5,78.2,352.5,77.4z"/>
	<path class="st0" d="M362.2,77.4c0,1.1-0.3,2-1,2.6c-0.7,0.7-1.5,1-2.4,1s-1.7-0.3-2.4-1c-0.7-0.7-1-1.5-1-2.6s0.3-2,1-2.6
		c0.7-0.7,1.5-1,2.4-1s1.7,0.3,2.4,1C361.9,75.4,362.2,76.3,362.2,77.4z M360.8,77.4c0-0.8-0.2-1.5-0.6-1.9s-0.9-0.6-1.4-0.6
		s-1,0.2-1.4,0.6c-0.4,0.4-0.6,1-0.6,1.9c0,0.8,0.2,1.5,0.6,1.9s0.9,0.6,1.4,0.6s1-0.2,1.4-0.6C360.6,78.8,360.8,78.2,360.8,77.4z"
		/>
	<path class="st0" d="M370.3,74.9c-0.3-0.1-0.6-0.1-0.8-0.2c-0.3,0-0.6,0-0.8,0.1c0.1,0.1,0.2,0.3,0.3,0.5c0.1,0.2,0.1,0.5,0.1,0.8
		c0,0.7-0.2,1.3-0.7,1.8s-1.1,0.7-1.8,0.7c-0.2,0-0.4,0-0.7-0.1c-0.3-0.1-0.5-0.1-0.7-0.2c-0.1,0.1-0.2,0.2-0.2,0.2
		c0,0.1-0.1,0.2-0.1,0.3c0,0.2,0.1,0.4,0.4,0.5s0.8,0.2,1.6,0.2c1.2,0,2,0.2,2.5,0.5c0.4,0.3,0.7,0.8,0.7,1.2c0,0.7-0.3,1.2-1,1.5
		c-0.6,0.3-1.4,0.5-2.3,0.5c-1.1,0-2-0.1-2.5-0.4c-0.5-0.3-0.8-0.7-0.8-1.2c0-0.2,0.1-0.5,0.3-0.8c0.2-0.2,0.5-0.5,0.8-0.6
		c-0.2-0.1-0.4-0.3-0.6-0.5c-0.1-0.2-0.2-0.4-0.2-0.7c0-0.2,0.1-0.5,0.3-0.7s0.4-0.3,0.7-0.5c-0.2-0.2-0.4-0.5-0.5-0.8
		s-0.2-0.6-0.2-0.9c0-0.7,0.2-1.3,0.7-1.8s1.1-0.7,1.8-0.7c0.4,0,0.7,0.1,1,0.2c0.3,0.1,0.5,0.3,0.7,0.5c0.3-0.2,0.7-0.4,1-0.5
		s0.7-0.1,1.1-0.1L370.3,74.9L370.3,74.9z M368.9,81.4c0-0.2-0.1-0.3-0.3-0.5c-0.2-0.2-0.7-0.2-1.4-0.2c-0.2,0-0.4,0-0.7,0
		c-0.3,0-0.6-0.1-1-0.1c-0.3,0.1-0.6,0.3-0.7,0.4c-0.1,0.2-0.2,0.3-0.2,0.5s0.2,0.5,0.5,0.6c0.3,0.2,0.9,0.2,1.8,0.2
		c0.7,0,1.2-0.1,1.5-0.3S368.9,81.6,368.9,81.4z M367.8,76.2c0-0.4-0.1-0.8-0.3-1c-0.2-0.2-0.5-0.4-0.9-0.4s-0.7,0.1-0.9,0.4
		c-0.2,0.2-0.3,0.6-0.3,1s0.1,0.8,0.3,1c0.2,0.2,0.5,0.4,0.9,0.4s0.7-0.1,0.9-0.4C367.7,76.9,367.8,76.6,367.8,76.2z"/>
	<path class="st0" d="M373.6,80.9h-1.4v-1.4h1.4V80.9z"/>
	<path class="st0" d="M30.4,88.2c-0.5,0.5-1.2,1.1-2.1,1.6v-1.2c1-0.7,1.9-1.5,2.6-2.5h0.8v10.8h-1.2v-8.7H30.4z"/>
	<path class="st0" d="M35.7,96.6c0-0.6,0.3-1.2,0.9-1.7c0.5-0.5,1.2-1.3,2.1-2.3c0.8-1.1,1.4-1.9,1.6-2.5s0.3-1.1,0.3-1.5
		c-0.1-0.4-0.3-0.8-0.6-1c-0.3-0.3-0.7-0.4-1.2-0.3c-0.4,0-0.9,0.2-1.2,0.5c-0.4,0.3-0.7,0.7-0.9,1.3l-1.2-0.2
		c0.3-1,0.8-1.7,1.3-2.1c0.5-0.4,1.1-0.7,1.8-0.7c0.4,0,0.8,0,1.1,0c0.3,0.1,0.7,0.2,1,0.4c0.4,0.2,0.6,0.6,0.9,1
		c0.2,0.5,0.3,1,0.2,1.7c-0.1,0.6-0.4,1.4-1,2.3c-0.6,0.9-1.7,2.3-3.4,4.2h4.5v1.1h-6.3L35.7,96.6L35.7,96.6z"/>
	<path class="st0" d="M43.5,94.1l1.1-0.2c0.2,0.5,0.4,1,0.8,1.3c0.4,0.4,0.8,0.5,1.4,0.5s1-0.2,1.3-0.7c0.3-0.4,0.5-0.9,0.4-1.5
		c0-0.6-0.3-1-0.7-1.3c-0.4-0.3-1-0.5-1.9-0.7v-0.8c0.9-0.1,1.5-0.3,1.9-0.7s0.6-0.9,0.5-1.5c0-0.6-0.3-1-0.8-1.3s-1-0.3-1.6-0.1
		s-1,0.8-1.3,1.8l-1.1-0.2c0.2-0.8,0.6-1.4,1-1.9s1-0.8,1.8-0.9c0.8-0.1,1.4,0,2,0.3s1,0.7,1.2,1.2c0.2,0.6,0.3,1.2,0.1,1.8
		c-0.2,0.7-0.6,1.2-1.4,1.8c0.6,0.2,1,0.6,1.3,1.1s0.4,1.2,0.3,2s-0.5,1.5-1.1,2s-1.3,0.7-2.1,0.7c-0.8,0-1.5-0.3-2.1-0.8
		C44.1,95.8,43.7,95.1,43.5,94.1z"/>
	<path class="st0" d="M55.9,94.4h-4.8v-1.1l5.1-7.3h0.9v7.3h1.5v1.1h-1.5v2.4h-1.2V94.4z M55.9,93.4v-4.9l-3.5,4.9H55.9z"/>
	<path class="st0" d="M60.3,93.9c0.3,1.1,0.8,1.8,1.5,1.9c0.7,0.1,1.3,0.1,1.7-0.2c0.4-0.3,0.8-0.6,0.9-1.1s0.3-0.9,0.2-1.5
		c0-0.5-0.2-1-0.4-1.4c-0.3-0.4-0.6-0.6-1-0.8c-0.4-0.1-0.9-0.1-1.4,0s-0.9,0.4-1.3,0.9l-1.1-0.1c0.1-0.2,0.5-2,1.2-5.4h4.9v1.1h-4
		c-0.2,1.1-0.4,2-0.6,2.7c0.6-0.3,1.2-0.4,1.8-0.4c0.5,0,1.1,0.1,1.6,0.4c0.5,0.2,0.9,0.5,1.1,0.9c0.2,0.4,0.4,0.8,0.5,1.2
		s0.1,0.8,0.1,1.3s-0.1,0.9-0.3,1.4s-0.4,0.9-0.8,1.2c-0.3,0.3-0.7,0.6-1.2,0.8c-0.5,0.2-1,0.3-1.7,0.2c-0.6,0-1.2-0.3-1.8-0.7
		c-0.6-0.4-0.9-1.1-1.2-2.1L60.3,93.9z"/>
	<path class="st0" d="M67.5,93.2c0-0.6,0.2-1.1,0.3-1.5c0.2-0.4,0.5-0.9,0.8-1.6l2.6-4h1.4L70,90.2c1.1-0.3,2-0.2,2.7,0.1
		c0.7,0.4,1.1,0.8,1.3,1.3s0.4,1,0.4,1.6s-0.1,1.1-0.2,1.7c-0.2,0.5-0.5,1-1,1.5c-0.5,0.4-1.1,0.7-2,0.7S69.6,97,69,96.6
		c-0.6-0.4-1-0.9-1.2-1.5C67.6,94.4,67.5,93.8,67.5,93.2z M69.5,95.2c0.4,0.4,0.9,0.6,1.5,0.7c0.6,0,1.1-0.2,1.6-0.6
		c0.4-0.5,0.6-1.1,0.6-2s-0.3-1.5-0.8-1.8s-1.1-0.5-1.8-0.4c-0.6,0.1-1.1,0.4-1.4,0.9c-0.3,0.5-0.4,1.1-0.4,1.7
		C68.9,94.3,69.1,94.8,69.5,95.2z"/>
	<path class="st0" d="M81,87.4h-5.4v-1.1h6.7v1.1c-2,3.2-3.2,6.3-3.9,9.5H77C77.8,93.7,79.1,90.5,81,87.4z"/>
	<path class="st0" d="M83.3,93.8c0-0.5,0.1-1,0.4-1.5c0.2-0.5,0.7-0.9,1.2-1.2c-0.5-0.3-0.8-0.6-1-1s-0.3-0.8-0.3-1.2
		c0-0.5,0-0.9,0.2-1.2c0.1-0.3,0.4-0.6,0.7-0.9c0.3-0.3,0.6-0.5,1-0.6s0.7-0.2,1.2-0.2c0.4,0,0.8,0,1.1,0.1s0.7,0.3,1.1,0.5
		c0.4,0.3,0.6,0.7,0.8,1.2s0.2,1.1,0,1.8s-0.7,1.2-1.5,1.6c0.7,0.2,1.2,0.5,1.5,1c0.3,0.4,0.4,1,0.4,1.6s-0.1,1.1-0.3,1.5
		s-0.4,0.7-0.6,0.9c-0.2,0.2-0.5,0.4-0.9,0.6c-0.4,0.1-0.9,0.2-1.5,0.2s-1.1-0.1-1.6-0.2c-0.4-0.1-0.8-0.4-1.1-0.7s-0.5-0.6-0.6-1
		C83.4,94.7,83.3,94.3,83.3,93.8z M84.6,93.7c0,0.5,0.1,0.9,0.2,1.3s0.5,0.6,1,0.7c0.5,0.1,1,0.1,1.6,0c0.5-0.1,0.9-0.4,1.1-0.9
		c0.2-0.5,0.3-0.9,0.2-1.4s-0.3-0.8-0.8-1.2c-0.5-0.3-1-0.4-1.5-0.4s-1,0.2-1.3,0.6C84.8,92.8,84.6,93.2,84.6,93.7z M84.8,88.8
		c0,0.4,0.1,0.8,0.4,1.2c0.3,0.4,0.8,0.6,1.4,0.6s1.1-0.2,1.4-0.6s0.5-0.8,0.4-1.3c0-0.5-0.2-0.9-0.6-1.2c-0.4-0.2-0.8-0.4-1.4-0.3
		c-0.6,0-1,0.2-1.3,0.5S84.8,88.4,84.8,88.8z"/>
	<path class="st0" d="M92.9,97c0.9-1.5,1.7-2.9,2.2-4.2c-1,0.2-1.9,0-2.6-0.4s-1.1-1-1.2-1.8c-0.1-0.8-0.1-1.4,0-2
		c0.2-0.6,0.4-1.1,0.8-1.5c0.4-0.4,0.8-0.7,1.3-0.8c0.5-0.2,0.9-0.2,1.3-0.2c0.4,0,0.8,0.1,1.2,0.2c0.4,0.2,0.8,0.4,1.1,0.8
		c0.3,0.3,0.6,0.7,0.7,1c0.1,0.4,0.2,0.8,0.2,1.4s-0.2,1.3-0.6,2.2c-0.4,0.9-1.4,2.7-3.1,5.4h-1.3V97z M92.6,90
		c0.1,0.5,0.3,1,0.7,1.3c0.4,0.4,0.8,0.5,1.3,0.5s0.8-0.2,1.1-0.4s0.5-0.6,0.8-1.1c0.2-0.6,0.2-1.2,0.1-1.6
		c-0.1-0.4-0.3-0.8-0.7-1.1s-0.7-0.4-1.2-0.4c-0.2,0-0.6,0-1,0.2s-0.7,0.5-0.9,1C92.6,88.9,92.5,89.5,92.6,90z"/>
	<path class="st0" d="M99.5,90.9c0-1.1,0.2-2,0.5-2.6s0.7-1.2,1.2-1.6c0.5-0.4,1.1-0.6,1.8-0.6s1.4,0.3,1.9,0.9
		c0.5,0.6,0.9,1.4,1.1,2.3c0.2,0.9,0.2,2,0.2,3.2s-0.3,2.2-0.6,2.9c-0.4,0.8-0.9,1.3-1.6,1.6c-0.7,0.3-1.4,0.3-2.1-0.1
		c-0.7-0.4-1.2-0.8-1.5-1.4c-0.3-0.6-0.5-1.2-0.6-1.8C99.5,92.8,99.4,92,99.5,90.9z M100.8,90.5c-0.1,1.1-0.1,2.2,0.1,3.1
		c0.2,0.9,0.6,1.5,1,1.9c0.5,0.4,1,0.4,1.5,0.2s0.9-0.7,1.1-1.4c0.2-0.7,0.3-1.4,0.3-2.2s0-1.6-0.1-2.2c-0.1-0.7-0.2-1.3-0.6-1.8
		c-0.3-0.5-0.7-0.8-1.2-0.8s-1,0.2-1.4,0.8C101.2,88.5,100.9,89.3,100.8,90.5z"/>
	<path class="st0" d="M109.9,85.4h1.8l-0.4,8.3h-0.9L109.9,85.4z M109.9,95.1h1.8v1.8h-1.8V95.1z"/>
	<path class="st0" d="M122.4,90.6c0,1.5-0.2,2.6-0.7,3.2c-0.4,0.6-0.9,0.9-1.4,0.9c-0.2,0-0.4-0.1-0.6-0.2c-0.2-0.1-0.3-0.3-0.4-0.6
		c-0.2,0.2-0.4,0.4-0.6,0.6c-0.2,0.1-0.4,0.2-0.6,0.2c-0.4,0-0.8-0.2-1.1-0.5c-0.3-0.4-0.4-0.9-0.4-1.5c0-1.1,0.3-2.1,0.9-3
		c0.6-0.9,1.1-1.3,1.7-1.3c0.2,0,0.4,0,0.4,0.1c0.1,0,0.2,0.2,0.3,0.4l0.3-0.5h0.7l-0.9,4.8c0,0.2,0,0.4,0.1,0.6
		c0.1,0.1,0.2,0.2,0.4,0.2c0.5,0,0.8-0.3,1-0.8s0.3-1.3,0.3-2.3c0-1.2-0.2-2.2-0.7-2.9s-1.1-1.1-1.9-1.1c-0.9,0-1.6,0.4-2.3,1.3
		c-0.7,0.9-1,2.2-1,3.9s0.3,3,0.9,3.7c0.6,0.7,1.4,1.1,2.2,1.1c0.3,0,0.7-0.1,1.1-0.3s0.7-0.5,0.9-0.8l0.3,0.4
		c-0.2,0.3-0.6,0.6-1,0.8s-0.8,0.3-1.3,0.3c-1,0-1.9-0.4-2.7-1.2s-1.1-2.2-1.1-4s0.4-3.3,1.2-4.2c0.8-1,1.7-1.4,2.8-1.4
		c1,0,1.8,0.4,2.4,1.2C122.1,88.2,122.4,89.2,122.4,90.6z M119.8,89.8c0-0.2,0-0.4-0.1-0.6c-0.1-0.1-0.2-0.2-0.4-0.2
		c-0.3,0-0.7,0.4-1.1,1.2c-0.4,0.8-0.6,1.6-0.6,2.4c0,0.5,0.1,0.8,0.2,1c0.1,0.2,0.3,0.3,0.5,0.3s0.4-0.1,0.6-0.3
		c0.1-0.2,0.2-0.4,0.2-0.7L119.8,89.8z"/>
	<path class="st0" d="M130.4,94h-1.9l-0.4,2.9h-1l0.4-2.9h-2.1l-0.4,2.9h-1l0.4-2.9h-1.2v-1.2h1.4l0.4-2.6h-1.8V89h1.9l0.4-2.8h1
		l-0.4,2.8h2.1l0.4-2.8h1l-0.4,2.8h1.2v1.2H129l-0.4,2.6h1.8V94z M128,90.2h-2.1l-0.4,2.6h2.1L128,90.2z"/>
	<path class="st0" d="M137.7,93.9c0,1.1-0.3,1.9-0.8,2.4s-1.1,0.8-1.7,0.8v1.6h-0.9v-1.6c-0.7,0-1.3-0.3-1.8-0.9
		c-0.5-0.6-0.8-1.5-0.8-2.7h1.4c0,1,0.1,1.7,0.4,2c0.3,0.3,0.5,0.4,0.8,0.4v-4.1c-1-0.5-1.6-1-1.9-1.5c-0.3-0.4-0.4-0.9-0.4-1.5
		c0-0.8,0.2-1.4,0.7-1.8c0.4-0.5,1-0.8,1.7-0.8V85h0.9v1.2c0.7,0,1.3,0.3,1.7,0.8s0.7,1.3,0.7,2.1h-1.4c0-0.6-0.1-1.1-0.3-1.3
		c-0.2-0.3-0.4-0.4-0.7-0.4v3.5c0.7,0.3,1.2,0.8,1.8,1.2S137.7,93.1,137.7,93.9z M134.3,90.3v-3c-0.2,0-0.5,0.1-0.7,0.3
		s-0.3,0.6-0.3,1c0,0.3,0.1,0.6,0.2,0.8C133.6,89.8,133.9,90,134.3,90.3z M136.3,94.2c0-0.5-0.1-0.8-0.3-1.1s-0.5-0.6-0.8-0.8v3.6
		c0.2,0,0.5-0.2,0.8-0.4C136.2,95.2,136.3,94.8,136.3,94.2z"/>
	<path class="st0" d="M142.4,88.9c0,1.2-0.2,2-0.5,2.3c-0.4,0.3-0.7,0.5-1,0.5s-0.7-0.2-1-0.5c-0.4-0.3-0.5-1.1-0.5-2.3
		s0.2-2,0.5-2.3c0.4-0.3,0.7-0.5,1-0.5s0.7,0.2,1,0.5S142.4,87.7,142.4,88.9z M145.5,86.3l-4.8,10.8l-0.5-0.2l4.8-10.8L145.5,86.3z
		 M141.4,88.9c0-0.8,0-1.2-0.1-1.5c-0.1-0.2-0.2-0.4-0.4-0.4s-0.4,0.1-0.4,0.4c-0.1,0.2-0.1,0.8-0.1,1.5s0,1.2,0.1,1.5
		c0.1,0.2,0.2,0.4,0.4,0.4s0.4-0.1,0.4-0.4C141.4,90.1,141.4,89.6,141.4,88.9z M146.3,94.2c0,1.2-0.2,2-0.5,2.3
		c-0.4,0.3-0.7,0.5-1,0.5s-0.7-0.2-1-0.5c-0.4-0.3-0.5-1.1-0.5-2.3s0.2-2,0.5-2.3c0.4-0.3,0.7-0.5,1-0.5s0.7,0.2,1,0.5
		C146.2,92.2,146.3,93,146.3,94.2z M145.3,94.2c0-0.8,0-1.2-0.1-1.5c-0.1-0.2-0.2-0.4-0.4-0.4s-0.4,0.1-0.4,0.4
		c-0.1,0.2-0.1,0.8-0.1,1.5s0,1.2,0.1,1.5c0.1,0.2,0.2,0.4,0.4,0.4s0.4-0.1,0.4-0.4C145.3,95.4,145.3,94.9,145.3,94.2z"/>
	<path class="st0" d="M153.8,86.9h-1.1l-1.9-1.6l-1.9,1.6h-1.1l2.2-2.6h1.5L153.8,86.9z"/>
	<path class="st0" d="M162.5,95.6l-0.6,1.2c-0.2-0.2-0.5-0.3-0.7-0.4s-0.4-0.3-0.6-0.5c-0.3,0.3-0.7,0.6-1.1,0.8s-0.8,0.3-1.3,0.3
		c-0.8,0-1.6-0.2-2.2-0.8c-0.6-0.5-0.9-1.3-0.9-2.3c0-0.7,0.2-1.2,0.5-1.7c0.4-0.4,0.8-0.8,1.3-1.2c-0.2-0.5-0.4-0.9-0.5-1.4
		s-0.2-0.9-0.2-1.2c0-0.8,0.2-1.3,0.7-1.8c0.4-0.4,1-0.6,1.6-0.6c0.5,0,1,0.2,1.4,0.5c0.4,0.4,0.6,0.9,0.6,1.5
		c0,0.8-0.2,1.4-0.7,1.9c-0.4,0.5-0.9,0.9-1.5,1.2c0.3,0.5,0.6,1,0.9,1.4s0.7,0.9,1.1,1.3c0.1-0.3,0.2-0.6,0.2-0.8
		c0-0.3,0.1-0.6,0.1-1h1.2c0,0.5-0.1,1-0.2,1.5c-0.1,0.4-0.3,0.8-0.5,1.2c0.1,0.1,0.3,0.3,0.5,0.4C162.2,95.4,162.4,95.6,162.5,95.6
		z M159.8,95.1c-0.5-0.6-1-1.1-1.4-1.6s-0.7-1-0.9-1.5c-0.3,0.2-0.6,0.5-0.7,0.8c-0.1,0.3-0.2,0.7-0.2,1.2c0,0.6,0.2,1.1,0.6,1.4
		s0.8,0.5,1.3,0.5c0.3,0,0.5-0.1,0.8-0.2C159.4,95.6,159.6,95.4,159.8,95.1z M159.4,88.1c0-0.3-0.1-0.5-0.2-0.7
		c-0.1-0.2-0.3-0.2-0.6-0.2s-0.5,0.1-0.7,0.3s-0.3,0.5-0.3,0.9c0,0.3,0,0.6,0.1,0.9s0.2,0.7,0.3,1c0.3-0.2,0.6-0.4,0.9-0.8
		C159.3,89.2,159.4,88.7,159.4,88.1z"/>
	<path class="st0" d="M170.6,91.3l-0.6,1.1l-2.6-1.6l0.1,3.2h-1.2l0.1-3.2l-2.6,1.6l-0.6-1.1l2.7-1.4l-2.7-1.4l0.6-1.1l2.6,1.6
		l-0.1-3h1.2l-0.1,3l2.6-1.6l0.6,1.1l-2.7,1.4L170.6,91.3z"/>
	<path class="st0" d="M178.3,97.7l-0.7,0.7c-1-1-1.8-2-2.3-3.1s-0.8-2.3-0.8-3.7s0.3-2.6,0.8-3.7c0.5-1.1,1.3-2.1,2.3-3.2l0.7,0.7
		c-1,0.9-1.7,1.9-2.2,2.8c-0.5,1-0.7,2.1-0.7,3.3s0.2,2.4,0.7,3.3C176.7,95.9,177.4,96.8,178.3,97.7z"/>
	<path class="st0" d="M183.1,91.6c0,1.4-0.3,2.6-0.8,3.7c-0.5,1.1-1.3,2.1-2.3,3.1l-0.7-0.7c1-0.9,1.7-1.8,2.2-2.8s0.7-2.1,0.7-3.3
		s-0.2-2.4-0.7-3.3c-0.5-1-1.2-1.9-2.2-2.8l0.7-0.7c1,1,1.8,2.1,2.3,3.2C182.8,89,183.1,90.2,183.1,91.6z"/>
	<path class="st0" d="M194.8,99.3h-7.9v-0.8h7.9V99.3z"/>
	<path class="st1" d="M30.4,30.8v5.4h-1.7V23.3h3.6c0.8,0,1.5,0.1,2.1,0.2c0.6,0.2,1.1,0.4,1.5,0.7s0.7,0.7,0.9,1.1
		c0.2,0.4,0.3,0.9,0.3,1.5c0,0.5-0.1,0.9-0.2,1.3c-0.1,0.4-0.4,0.8-0.6,1.1s-0.6,0.6-1,0.8s-0.8,0.4-1.3,0.5
		c0.2,0.1,0.4,0.3,0.6,0.5l3.8,5.1h-1.5c-0.3,0-0.6-0.1-0.7-0.4l-3.3-4.6c-0.1-0.1-0.2-0.2-0.3-0.3c-0.1-0.1-0.3-0.1-0.5-0.1h-1.7
		V30.8z M30.4,29.5h1.8c0.5,0,1-0.1,1.3-0.2c0.4-0.1,0.7-0.3,1-0.5s0.5-0.5,0.6-0.8s0.2-0.7,0.2-1c0-0.8-0.3-1.3-0.8-1.7
		s-1.3-0.6-2.3-0.6h-1.9v4.8H30.4z"/>
	<path class="st1" d="M43.4,26.9c0.5,0,1.1,0.1,1.5,0.3c0.5,0.2,0.9,0.4,1.2,0.8s0.6,0.8,0.8,1.3c0.2,0.5,0.3,1.1,0.3,1.7
		c0,0.3,0,0.4-0.1,0.5s-0.2,0.1-0.3,0.1h-6.1c0,0.6,0.1,1.1,0.2,1.5s0.3,0.8,0.6,1.1s0.6,0.5,0.9,0.6s0.7,0.2,1.2,0.2
		c0.4,0,0.7,0,1-0.1s0.5-0.2,0.8-0.3c0.2-0.1,0.4-0.2,0.5-0.3s0.3-0.1,0.4-0.1s0.2,0.1,0.3,0.2L47,35c-0.2,0.2-0.4,0.4-0.7,0.6
		s-0.6,0.3-0.9,0.4c-0.3,0.1-0.6,0.2-1,0.3c-0.3,0.1-0.7,0.1-1,0.1c-0.6,0-1.2-0.1-1.7-0.3s-1-0.5-1.4-0.9s-0.7-0.9-0.9-1.5
		c-0.2-0.6-0.3-1.3-0.3-2.1c0-0.6,0.1-1.2,0.3-1.8c0.2-0.6,0.5-1,0.8-1.4c0.4-0.4,0.8-0.7,1.3-1C42.2,27.1,42.8,26.9,43.4,26.9z
		 M43.5,28.1c-0.8,0-1.4,0.2-1.8,0.7c-0.4,0.4-0.7,1.1-0.8,1.9h5c0-0.4-0.1-0.7-0.2-1s-0.3-0.6-0.4-0.8c-0.2-0.2-0.4-0.4-0.7-0.5
		C44.1,28.2,43.8,28.1,43.5,28.1z"/>
	<path class="st1" d="M52.3,26.9c0.4,0,0.8,0,1.1,0.1c0.3,0.1,0.7,0.2,0.9,0.4h2.5V28c0,0.2-0.1,0.3-0.4,0.4l-1,0.1
		c0.2,0.4,0.3,0.8,0.3,1.3c0,0.4-0.1,0.8-0.3,1.2c-0.2,0.4-0.4,0.7-0.7,0.9c-0.3,0.3-0.7,0.5-1.1,0.6s-0.9,0.2-1.4,0.2
		c-0.4,0-0.8-0.1-1.2-0.2c-0.2,0.1-0.3,0.3-0.4,0.4c-0.1,0.1-0.1,0.3-0.1,0.4c0,0.2,0.1,0.4,0.3,0.5c0.2,0.1,0.4,0.2,0.7,0.2
		s0.6,0.1,1,0.1s0.7,0,1.1,0s0.8,0,1.1,0.1c0.4,0.1,0.7,0.2,1,0.3c0.3,0.2,0.5,0.4,0.7,0.6c0.2,0.3,0.3,0.6,0.3,1s-0.1,0.8-0.3,1.1
		c-0.2,0.4-0.5,0.7-0.8,1c-0.4,0.3-0.8,0.5-1.3,0.7s-1.1,0.3-1.8,0.3s-1.2-0.1-1.8-0.2c-0.5-0.1-0.9-0.3-1.2-0.5
		c-0.3-0.2-0.6-0.5-0.7-0.8c-0.2-0.3-0.2-0.6-0.2-0.9c0-0.5,0.1-0.8,0.4-1.1s0.7-0.6,1.2-0.8c-0.3-0.1-0.5-0.3-0.6-0.5
		c-0.2-0.2-0.2-0.5-0.2-0.8c0-0.1,0-0.3,0.1-0.4c0-0.1,0.1-0.3,0.2-0.4c0.1-0.1,0.2-0.3,0.4-0.4c0.1-0.1,0.3-0.2,0.5-0.3
		c-0.5-0.3-0.8-0.6-1.1-1c-0.3-0.4-0.4-0.9-0.4-1.5c0-0.4,0.1-0.8,0.3-1.2c0.2-0.4,0.4-0.7,0.7-0.9s0.7-0.5,1.1-0.6
		C51.3,27,51.8,26.9,52.3,26.9z M55.2,36.7c0-0.2-0.1-0.4-0.2-0.6s-0.3-0.2-0.5-0.3s-0.5-0.1-0.7-0.2c-0.3,0-0.6-0.1-0.9-0.1
		s-0.6,0-1,0c-0.3,0-0.6,0-0.9-0.1c-0.3,0.2-0.6,0.4-0.8,0.6s-0.3,0.5-0.3,0.8c0,0.2,0.1,0.4,0.2,0.6c0.1,0.2,0.3,0.3,0.5,0.5
		c0.2,0.1,0.5,0.2,0.8,0.3s0.7,0.1,1.2,0.1c0.4,0,0.8,0,1.2-0.1c0.3-0.1,0.6-0.2,0.9-0.3c0.2-0.1,0.4-0.3,0.5-0.5
		S55.2,36.9,55.2,36.7z M52.3,31.7c0.3,0,0.6,0,0.9-0.1c0.2-0.1,0.5-0.2,0.6-0.4s0.3-0.4,0.4-0.6c0.1-0.2,0.1-0.5,0.1-0.7
		c0-0.6-0.2-1-0.5-1.3s-0.8-0.5-1.5-0.5c-0.6,0-1.1,0.2-1.5,0.5c-0.3,0.3-0.5,0.8-0.5,1.3c0,0.3,0,0.5,0.1,0.7s0.2,0.4,0.4,0.6
		s0.4,0.3,0.6,0.4C51.7,31.7,52,31.7,52.3,31.7z"/>
	<path class="st1" d="M59.8,27.1v5.8c0,0.7,0.2,1.2,0.5,1.6c0.3,0.4,0.8,0.6,1.4,0.6c0.5,0,0.9-0.1,1.3-0.3s0.8-0.5,1.1-0.9v-6.7
		h1.6v9.1h-1c-0.2,0-0.4-0.1-0.4-0.3l-0.1-1c-0.4,0.4-0.8,0.8-1.3,1.1s-1.1,0.4-1.7,0.4c-0.5,0-0.9-0.1-1.3-0.2
		c-0.4-0.2-0.7-0.4-1-0.7s-0.5-0.7-0.6-1.1c-0.1-0.4-0.2-0.9-0.2-1.4v-5.8h1.7V27.1z"/>
	<path class="st1" d="M70.2,22.9v13.3h-1.6V22.9H70.2z"/>
	<path class="st1" d="M79.7,36.2H79c-0.2,0-0.3,0-0.4-0.1c-0.1,0-0.2-0.1-0.2-0.3L78.2,35c-0.2,0.2-0.5,0.4-0.7,0.6S77,35.9,76.8,36
		c-0.3,0.1-0.5,0.2-0.8,0.3s-0.6,0.1-0.9,0.1c-0.4,0-0.7,0-1-0.1s-0.6-0.2-0.8-0.4s-0.4-0.5-0.5-0.8s-0.2-0.7-0.2-1.1
		c0-0.4,0.1-0.7,0.3-1s0.5-0.6,1-0.9s1-0.5,1.7-0.6c0.7-0.2,1.6-0.2,2.6-0.2v-0.7c0-0.7-0.2-1.3-0.5-1.6c-0.3-0.4-0.8-0.5-1.3-0.5
		c-0.4,0-0.7,0-1,0.1s-0.5,0.2-0.7,0.3s-0.4,0.2-0.5,0.3s-0.3,0.1-0.4,0.1c-0.1,0-0.2,0-0.3-0.1s-0.1-0.1-0.2-0.2L73,28.5
		c0.5-0.5,1-0.8,1.6-1.1s1.2-0.4,1.9-0.4c0.5,0,1,0.1,1.4,0.3s0.7,0.4,1,0.7s0.5,0.7,0.6,1.1c0.1,0.4,0.2,0.9,0.2,1.4L79.7,36.2
		L79.7,36.2z M75.6,35.2c0.3,0,0.5,0,0.8-0.1s0.5-0.1,0.7-0.2c0.2-0.1,0.4-0.2,0.6-0.4c0.2-0.1,0.4-0.3,0.6-0.5v-1.9
		c-0.7,0-1.4,0-1.9,0.1s-0.9,0.2-1.3,0.4c-0.3,0.2-0.6,0.3-0.7,0.5s-0.2,0.4-0.2,0.7c0,0.2,0,0.5,0.1,0.6s0.2,0.3,0.3,0.4
		c0.1,0.1,0.3,0.2,0.5,0.2C75.2,35.2,75.4,35.2,75.6,35.2z"/>
	<path class="st1" d="M82.2,36.2v-9.1h0.9c0.2,0,0.3,0,0.4,0.1c0.1,0.1,0.1,0.2,0.1,0.3l0.1,1.4c0.3-0.6,0.7-1.1,1.2-1.5
		s1-0.5,1.6-0.5c0.3,0,0.5,0,0.7,0.1s0.4,0.1,0.6,0.2l-0.2,1.2c0,0.1-0.1,0.2-0.3,0.2c-0.1,0-0.2,0-0.4-0.1s-0.4-0.1-0.7-0.1
		c-0.6,0-1,0.2-1.4,0.5s-0.7,0.8-0.9,1.4v5.8L82.2,36.2L82.2,36.2z"/>
</g>
<g id="Layer_2" class="st2">
	<g id="path-7_1_" class="st3">
		<path class="st4" d="M421,181.7H-9c-3.9,0-7-3.1-7-7v-374c0-3.9,3.1-7,7-7h430c3.9,0,7,3.1,7,7v374
			C428,178.6,424.9,181.7,421,181.7z M-9-202.3c-1.7,0-3,1.3-3,3v374c0,1.7,1.3,3,3,3h430c1.7,0,3-1.3,3-3v-374c0-1.7-1.3-3-3-3H-9z
			"/>
	</g>
</g>
</svg>
