<?xml version="1.0" encoding="utf-8"?>
<!-- Generator: Adobe Illustrator 19.2.1, SVG Export Plug-In . SVG Version: 6.00 Build 0)  -->
<svg version="1.1" id="Layer_1" xmlns="http://www.w3.org/2000/svg" xmlns:xlink="http://www.w3.org/1999/xlink" x="0px" y="0px"
	 viewBox="0 0 400 320" style="enable-background:new 0 0 400 320;" xml:space="preserve">
<style type="text/css">
	.st0{fill:#48525B;}
	.st1{fill:#FF6E6E;}
	.st2{display:none;}
	.st3{display:inline;}
	.st4{fill:#979797;}
</style>
<g id="Layer_2" class="st2">
	<g id="path-5_1_" class="st3">
		<path class="st4" d="M421,182H-9c-3.9,0-7-3.1-7-7v-374c0-3.9,3.1-7,7-7h430c3.9,0,7,3.1,7,7v374C428,178.9,424.9,182,421,182z
			 M-9-202c-1.7,0-3,1.3-3,3v374c0,1.7,1.3,3,3,3h430c1.7,0,3-1.3,3-3v-374c0-1.7-1.3-3-3-3H-9z"/>
	</g>
	<g id="path-7_1_" class="st3">
		<path class="st4" d="M421,610H-9c-3.9,0-7-3.1-7-7V229c0-3.9,3.1-7,7-7h430c3.9,0,7,3.1,7,7v374C428,606.9,424.9,610,421,610z
			 M-9,226c-1.7,0-3,1.3-3,3v374c0,1.7,1.3,3,3,3h430c1.7,0,3-1.3,3-3V229c0-1.7-1.3-3-3-3H-9z"/>
	</g>
</g>
<g>
	<path class="st0" d="M30.9,53.5V52h1.2v1.5h3v1.1h-3V56h2.4v5.7h-2.4v1.4h2.8v1.1h-2.8v2.6h-1.2v-2.6h-3.2v-1.1h3.2v-1.4h-2.4V56
		h2.4v-1.4h-3v-1.1H30.9z M33.5,58.4V57h-3.9v1.4H33.5z M33.5,59.3h-3.9v1.4h3.9V59.3z M35.3,66.9l-0.9-0.8c1.1-1.6,1.7-3.5,1.7-5.9
		v-7.4h5.3v12.5c0,0.9-0.5,1.4-1.4,1.4h-1.7L38,65.6c0.6,0,1.1,0.1,1.6,0.1c0.4,0,0.6-0.2,0.6-0.7v-3.3h-3.1
		C37,63.7,36.3,65.5,35.3,66.9z M37.3,60c0,0.2,0,0.3,0,0.5h3.1v-2.8h-3L37.3,60L37.3,60z M40.3,53.8h-3v2.8h3V53.8z"/>
	<path class="st0" d="M51,53.1c-1.7,0.5-4,0.8-6.8,0.8L43.9,53c2.7,0,4.9-0.2,6.7-0.7L51,53.1z M49.5,61.2l-0.7,0.3
		c-0.1-0.2-0.1-0.4-0.2-0.5c-0.7,0.1-1.6,0.2-2.9,0.4l-0.1-0.7c0.2,0,0.4-0.2,0.6-0.5s0.4-0.6,0.5-0.9h-1.6v7.4h-1v-8.3h2.5
		c-0.4-0.3-0.8-0.6-1.3-0.9l0.6-0.6c0.6,0.4,1.2,0.9,1.7,1.3c0.7-0.4,1.3-0.8,1.9-1.4h-5.6V56h0.8c-0.2-0.5-0.4-0.9-0.6-1.3l0.9-0.3
		c0.3,0.4,0.5,1,0.7,1.6h1.2c-0.2-0.6-0.3-1.1-0.5-1.6l1-0.2c0.2,0.5,0.3,1.1,0.5,1.8h0.8c0.4-0.6,0.7-1.3,0.9-2l0.9,0.3
		c-0.3,0.6-0.5,1.2-0.8,1.6h1.2v0.8c-0.6,0.6-1.3,1.2-2.1,1.7h2.1v7.1c0,0.8-0.4,1.2-1.1,1.2h-1.3l-0.3-0.9h1.2
		c0.3,0,0.4-0.2,0.4-0.5v-6h-2.4c-0.3,0.5-0.5,1-0.8,1.3c0.5-0.1,1.1-0.1,1.5-0.2c-0.1-0.2-0.2-0.4-0.3-0.6l0.7-0.2
		C49,60.1,49.3,60.6,49.5,61.2z M47.8,63.7c0.3-0.3,0.5-0.7,0.7-1h-2.8V62h3.8v0.6c-0.2,0.6-0.6,1.2-1,1.7c0.4,0.3,0.7,0.5,1,0.8
		l-0.6,0.6c-0.3-0.3-0.6-0.6-1-0.9c-0.5,0.4-1.1,0.8-1.8,1.1l-0.5-0.7c0.7-0.3,1.2-0.6,1.7-1c-0.4-0.3-0.9-0.6-1.3-0.9l0.5-0.5
		C46.9,63,47.3,63.3,47.8,63.7z M53.2,58.3c-0.2-0.8-0.5-1.5-0.9-2.2l0.9-0.4c0.3,0.7,0.6,1.6,0.9,2.6h1.4c0.4-0.9,0.7-1.8,1-2.7
		l1,0.3c-0.3,0.9-0.6,1.7-0.9,2.4h1.6v1.1h-2.8v2.4H58v1.1h-2.6V67h-1.1v-4.1h-2.4v-1.1h2.4v-2.4h-2.7v-1.1L53.2,58.3L53.2,58.3z
		 M55.4,54H58v1h-6.4v-1h2.6c-0.2-0.7-0.4-1.3-0.6-1.8l1.1-0.2C55.1,52.6,55.2,53.3,55.4,54z"/>
	<path class="st0" d="M72.5,66.8h-1.2v-1.3h-8.8v1.3h-1.2V54.7h3.8c0.4-0.8,0.6-1.7,0.8-2.6l1.3,0.2c-0.2,0.9-0.4,1.7-0.8,2.4h6.1
		L72.5,66.8L72.5,66.8z M71.3,59.4v-3.6h-8.8v3.6H71.3z M71.3,64.4v-3.9h-8.8v3.9H71.3z"/>
	<path class="st0" d="M82.4,53.5c-0.2-0.5-0.4-0.9-0.6-1.3L83,52c0.2,0.4,0.4,1,0.5,1.5h5.7v1.1h-2.7c-0.1,0.8-0.4,1.6-0.6,2.3h3.6
		v2.9h-1.1v-1.9h-11v1.9h-1.1v-2.9h3.6l-0.7-2.3h-2.7v-1.1H82.4z M83.5,58.4v1.8H88V64c0,1.1-0.5,1.6-1.4,1.6h-1.3l-0.3-1h1.2
		c0.4,0,0.7-0.3,0.7-0.9v-2.5h-3.4v5.6h-1.1v-5.6h-3.2v4.4h-1.1v-5.4h4.3v-1.8H83.5z M85.5,54.5h-5.1l0.7,2.3h3.7
		C85.1,56.1,85.4,55.3,85.5,54.5z"/>
	<path class="st0" d="M95.6,59.4v-1.6h1.2v1.6h3.2v1.1h-3.2v1c1,0.6,2,1.2,3.1,2l-0.7,1c-0.9-0.8-1.7-1.5-2.4-2v4.2h-1.2v-4.9
		c-1,1.6-2.1,2.8-3.3,3.9l-0.7-1c1.6-1.2,2.9-2.6,3.8-4.2h-3.2v-1.1H95.6z M100,53.3c-2,0.6-4.7,1-8.1,1l-0.3-1
		c3.1,0,5.8-0.3,7.8-0.9L100,53.3z M94.2,57.7l-0.9,0.2c-0.3-1-0.7-1.9-1.2-2.8l0.9-0.3C93.4,55.7,93.9,56.7,94.2,57.7z M96.8,57
		l-1,0.4c-0.3-0.8-0.6-1.6-0.9-2.4l1-0.3C96.3,55.5,96.6,56.3,96.8,57z M99.7,54.6c-0.3,1.3-0.7,2.4-1.2,3.3l-0.9-0.3
		c0.4-0.8,0.8-1.9,1.2-3.2L99.7,54.6z M106.3,61.6c-1.5,2.1-3.4,3.8-5.7,5.1l-0.5-1.1c2.2-1.2,4-2.9,5.4-4.9L106.3,61.6z
		 M105.1,52.9c-1.2,1.5-2.6,2.7-4.4,3.7l-0.5-1.1c1.6-0.9,3-2,4.1-3.5L105.1,52.9z M105.8,57.2c-1.3,1.6-2.9,2.9-4.8,3.9l-0.5-1.1
		c1.8-0.9,3.3-2.2,4.5-3.7L105.8,57.2z"/>
	<path class="st0" d="M121.8,62v1h-3.6c1.2,1.1,2.3,2.1,3.1,3.1l-0.8,0.8c-0.3-0.4-0.6-0.8-1-1.2c-3.2,0.4-6.6,0.6-10,0.8l-0.3-0.9
		c0.3,0,0.5-0.1,0.8-0.3c0.6-0.5,1.4-1.3,2.2-2.3h-4.1v-1L121.8,62L121.8,62z M121.1,52.7v1h-5.7v1h6.1v3.4h-1.1v-2.4h-5v3.5h-1.1
		v-3.5h-5v2.4h-1.1v-3.4h6.1v-1h-5.7v-1H121.1z M120.5,59.9v1h-11.2v-1H120.5z M113.5,56.5v0.8h-3.4v-0.8H113.5z M113.5,58.1v0.8
		h-3.4v-0.8H113.5z M111.2,65.5c2.9-0.1,5.4-0.3,7.6-0.6c-0.5-0.5-1-0.9-1.5-1.4l0.6-0.5h-4.4C112.8,63.9,112.1,64.7,111.2,65.5z
		 M119.7,56.5v0.8h-3.4v-0.8H119.7z M119.7,58.1v0.8h-3.4v-0.8H119.7z"/>
	<path class="st0" d="M130.1,58h-4.5v8.7h-1.2V52.6h5.7V58z M128.9,53.7h-3.3v1.2h3.3V53.7z M125.6,57h3.3v-1.2h-3.3V57z
		 M133.8,59.2v6.2h-5.9v-6.2H133.8z M132.7,61.8v-1.6H129v1.6H132.7z M132.7,62.7H129v1.7h3.7V62.7z M131.6,58v-5.4h5.7v12.9
		c0,0.8-0.4,1.2-1.2,1.2c-0.5,0-1.1,0-1.6,0l-0.3-1.1c0.5,0,1,0.1,1.5,0.1c0.3,0,0.5-0.2,0.5-0.5v-7.1L131.6,58L131.6,58z
		 M136.2,53.7h-3.5v1.2h3.5V53.7z M132.8,57h3.5v-1.2h-3.5V57z"/>
	<path class="st0" d="M32.1,87.2h-1.4V77h-3.6v-1.3h8.6V77h-3.5L32.1,87.2L32.1,87.2z"/>
	<path class="st0" d="M43,87.2v-5.5c0-0.7-0.2-1.2-0.5-1.6c-0.3-0.3-0.8-0.5-1.5-0.5c-0.9,0-1.5,0.2-1.9,0.7s-0.6,1.3-0.6,2.4v4.4
		h-1.4V74.9h1.4v3.6c0,0.5,0,0.9-0.1,1.2h0.1c0.3-0.4,0.6-0.7,1.1-1s1-0.4,1.6-0.4c1,0,1.8,0.2,2.4,0.7c0.5,0.5,0.8,1.3,0.8,2.4V87
		H43V87.2z"/>
	<path class="st0" d="M50.7,87.4c-1.3,0-2.3-0.4-3-1.2s-1.1-1.9-1.1-3.2c0-1.4,0.3-2.5,1-3.3s1.6-1.2,2.8-1.2c1.1,0,1.9,0.3,2.6,1
		s1,1.6,1,2.8v0.9h-5.9c0,1,0.3,1.7,0.7,2.2s1.1,0.8,2,0.8c0.5,0,0.9,0,1.3-0.1s0.9-0.2,1.4-0.5v1.2c-0.5,0.2-0.9,0.3-1.3,0.4
		C51.8,87.3,51.3,87.4,50.7,87.4z M50.3,79.6c-0.7,0-1.2,0.2-1.6,0.6s-0.6,1-0.7,1.8h4.4c0-0.8-0.2-1.4-0.6-1.8S51,79.6,50.3,79.6z"
		/>
	<path class="st0" d="M63.2,87.4c-1.1,0-2-0.4-2.6-1.2s-0.9-1.9-0.9-3.3c0-1.4,0.3-2.5,0.9-3.3s1.5-1.2,2.6-1.2
		c1.2,0,2.1,0.4,2.7,1.3H66l0.2-1.2h1.1v12.4h-1.4v-3.7c0-0.6,0-1,0.1-1.3h-0.1C65.3,86.9,64.4,87.4,63.2,87.4z M63.5,86.2
		c0.8,0,1.5-0.2,1.8-0.7c0.4-0.5,0.6-1.2,0.6-2.3v-0.3c0-1.2-0.2-2-0.6-2.5s-1-0.8-1.9-0.8c-0.7,0-1.3,0.3-1.7,0.9s-0.6,1.4-0.6,2.5
		c0,1,0.2,1.8,0.6,2.4C62.2,85.9,62.7,86.2,63.5,86.2z"/>
	<path class="st0" d="M71.4,78.6v5.5c0,0.7,0.2,1.2,0.5,1.5s0.8,0.5,1.4,0.5c0.9,0,1.5-0.2,1.9-0.7s0.6-1.3,0.6-2.4v-4.5h1.4v8.6H76
		L75.8,86h-0.1c-0.3,0.4-0.6,0.7-1.1,1s-1,0.3-1.6,0.3c-1,0-1.8-0.2-2.3-0.7s-0.8-1.3-0.8-2.4v-5.6L71.4,78.6L71.4,78.6z"/>
	<path class="st0" d="M79.9,76.3c0-0.3,0.1-0.5,0.2-0.7c0.2-0.1,0.4-0.2,0.6-0.2s0.4,0.1,0.6,0.2s0.2,0.4,0.2,0.7s-0.1,0.5-0.2,0.7
		s-0.4,0.2-0.6,0.2s-0.4-0.1-0.6-0.2C79.9,76.8,79.9,76.6,79.9,76.3z M81.4,87.2H80v-8.6h1.4V87.2z"/>
	<path class="st0" d="M87.5,87.4c-1.2,0-2.2-0.4-2.9-1.1s-1-1.8-1-3.3c0-1.4,0.3-2.5,1-3.3s1.7-1.2,3-1.2c0.4,0,0.8,0,1.2,0.1
		c0.4,0.1,0.7,0.2,1,0.3l-0.4,1.2c-0.7-0.3-1.3-0.4-1.9-0.4c-0.9,0-1.5,0.3-1.9,0.8S85,81.9,85,82.9s0.2,1.8,0.6,2.4
		c0.4,0.5,1,0.8,1.8,0.8s1.5-0.2,2.2-0.5v1.2C89.1,87.2,88.4,87.4,87.5,87.4z"/>
	<path class="st0" d="M93.2,82.8l0.5-0.6l0.5-0.7l2.7-2.9h1.6L95,82.3l3.7,4.9H97l-3-4l-1,0.9v3.1h-1.4V75H93v6.4v1.4H93.2z"/>
	<path class="st0" d="M108.5,78.5c1.1,0,2,0.4,2.6,1.2s0.9,1.9,0.9,3.3c0,1.4-0.3,2.5-0.9,3.3s-1.5,1.2-2.6,1.2
		c-0.6,0-1.1-0.1-1.5-0.3s-0.8-0.5-1.1-0.9h-0.1c-0.2,0.6-0.3,1-0.3,1.1h-1V75.2h1.4v3c0,0.6,0,1.2-0.1,1.8h0.1
		C106.5,78.9,107.3,78.5,108.5,78.5z M108.3,79.6c-0.9,0-1.5,0.2-1.9,0.7s-0.6,1.3-0.6,2.5v0.1c0,1.2,0.2,2,0.6,2.5s1,0.8,1.9,0.8
		c0.8,0,1.3-0.3,1.7-0.8c0.4-0.6,0.6-1.4,0.6-2.4c0-1.1-0.2-1.9-0.6-2.4C109.7,79.9,109.1,79.6,108.3,79.6z"/>
	<path class="st0" d="M118.3,78.5c0.4,0,0.7,0,1,0.1l-0.2,1.3c-0.3-0.1-0.6-0.1-0.9-0.1c-0.5,0-0.9,0.1-1.3,0.4
		c-0.4,0.2-0.7,0.6-0.9,1s-0.3,0.9-0.3,1.5v4.6h-1.4v-8.6h1.2l0.2,1.6h0.1c0.3-0.6,0.7-1,1.2-1.3C117.3,78.6,117.8,78.5,118.3,78.5z
		"/>
	<path class="st0" d="M128.2,82.9c0,1.4-0.4,2.5-1.1,3.3s-1.7,1.2-2.9,1.2c-0.8,0-1.5-0.2-2.1-0.5c-0.6-0.4-1.1-0.9-1.4-1.6
		c-0.3-0.7-0.5-1.5-0.5-2.4c0-1.4,0.3-2.5,1-3.3s1.7-1.2,2.9-1.2c1.2,0,2.2,0.4,2.9,1.2S128.2,81.5,128.2,82.9z M121.7,82.9
		c0,1.1,0.2,1.9,0.6,2.5s1.1,0.8,1.9,0.8s1.4-0.3,1.9-0.8c0.4-0.6,0.6-1.4,0.6-2.5s-0.2-1.9-0.6-2.4s-1.1-0.8-1.9-0.8
		C122.6,79.6,121.7,80.7,121.7,82.9z"/>
	<path class="st0" d="M137.3,87.2l-1.5-4.8c-0.1-0.4-0.3-1.2-0.6-2.3h-0.1c-0.2,1-0.4,1.8-0.6,2.3l-1.5,4.8h-1.6l-2.4-8.6h1.5
		c0.5,2.1,1,3.7,1.2,4.8c0.3,1.1,0.5,1.9,0.5,2.3h0.1l0.1-0.5c0.2-0.7,0.3-1.4,0.5-1.8l1.5-4.8h1.5l1.5,4.8c0.1,0.2,0.1,0.4,0.2,0.6
		c0.1,0.2,0.1,0.4,0.2,0.6c0.1,0.2,0.1,0.4,0.1,0.6c0,0.2,0.1,0.4,0.1,0.5h0.1c0-0.4,0.2-1.2,0.6-2.5l1.2-4.6h1.4l-2.4,8.6
		L137.3,87.2L137.3,87.2z"/>
	<path class="st0" d="M148.7,87.2v-5.5c0-0.7-0.2-1.2-0.5-1.6c-0.3-0.3-0.8-0.5-1.5-0.5c-0.9,0-1.5,0.2-1.9,0.7s-0.6,1.3-0.6,2.4
		v4.4h-1.4v-8.6h1.1l0.2,1.2h0.1c0.3-0.4,0.6-0.7,1.1-1c0.5-0.2,1-0.3,1.6-0.3c1.1,0,1.8,0.3,2.3,0.8s0.8,1.3,0.8,2.4v5.6
		L148.7,87.2L148.7,87.2z"/>
	<path class="st0" d="M160.9,79.7h-2.2v7.5h-1.4v-7.5h-1.5V79l1.5-0.5V78c0-1,0.2-1.8,0.7-2.3s1.2-0.8,2.1-0.8
		c0.5,0,1.1,0.1,1.7,0.3l-0.4,1.1c-0.5-0.2-0.9-0.2-1.3-0.2c-0.5,0-0.8,0.2-1.1,0.5c-0.2,0.3-0.3,0.8-0.3,1.5v0.6h2.2L160.9,79.7
		L160.9,79.7z"/>
	<path class="st0" d="M169.9,82.9c0,1.4-0.4,2.5-1.1,3.3s-1.7,1.2-2.9,1.2c-0.8,0-1.5-0.2-2.1-0.5c-0.6-0.4-1.1-0.9-1.4-1.6
		c-0.3-0.7-0.5-1.5-0.5-2.4c0-1.4,0.3-2.5,1-3.3s1.7-1.2,2.9-1.2c1.2,0,2.2,0.4,2.9,1.2S169.9,81.5,169.9,82.9z M163.4,82.9
		c0,1.1,0.2,1.9,0.6,2.5s1.1,0.8,1.9,0.8s1.4-0.3,1.9-0.8c0.4-0.6,0.6-1.4,0.6-2.5s-0.2-1.9-0.6-2.4s-1.1-0.8-1.9-0.8
		C164.2,79.6,163.4,80.7,163.4,82.9z"/>
	<path class="st0" d="M174,82.8l-3-4.2h1.6l2.2,3.2l2.2-3.2h1.6l-3,4.2l3.1,4.4h-1.6l-2.3-3.4l-2.4,3.4h-1.6L174,82.8z"/>
	<path class="st0" d="M183.6,91c-0.5,0-0.9-0.1-1.2-0.2v-1.1c0.4,0.1,0.7,0.2,1.1,0.2s0.7-0.1,0.9-0.3c0.2-0.2,0.3-0.6,0.3-1v-9.9
		h1.4v9.9c0,0.9-0.2,1.5-0.6,1.9C184.9,90.8,184.3,91,183.6,91z M184.5,76.3c0-0.3,0.1-0.5,0.2-0.7c0.2-0.1,0.4-0.2,0.6-0.2
		s0.4,0.1,0.6,0.2s0.2,0.4,0.2,0.7s-0.1,0.5-0.2,0.7s-0.4,0.2-0.6,0.2s-0.4-0.1-0.6-0.2C184.5,76.8,184.5,76.6,184.5,76.3z"/>
	<path class="st0" d="M190,78.6v5.5c0,0.7,0.2,1.2,0.5,1.5s0.8,0.5,1.4,0.5c0.9,0,1.5-0.2,1.9-0.7s0.6-1.3,0.6-2.4v-4.5h1.4v8.6
		h-1.2l-0.2-1.1h-0.1c-0.3,0.4-0.6,0.7-1.1,1s-1,0.3-1.6,0.3c-1,0-1.8-0.2-2.3-0.7s-0.8-1.3-0.8-2.4v-5.6L190,78.6L190,78.6z"/>
	<path class="st0" d="M209.5,87.2v-5.5c0-1.4-0.6-2-1.7-2c-0.8,0-1.4,0.2-1.8,0.7s-0.6,1.2-0.6,2.1v4.7H204v-5.5
		c0-0.7-0.1-1.2-0.4-1.5s-0.7-0.5-1.3-0.5c-0.8,0-1.4,0.2-1.7,0.7s-0.6,1.3-0.6,2.4v4.4h-1.4v-8.6h1.1l0.2,1.2h0.1
		c0.2-0.4,0.6-0.7,1-1s0.9-0.4,1.5-0.4c1.3,0,2.2,0.5,2.6,1.4h0.1c0.3-0.5,0.7-0.8,1.1-1.1s1-0.4,1.6-0.4c1,0,1.7,0.2,2.2,0.8
		c0.5,0.5,0.7,1.3,0.7,2.4v5.6h-1.3V87.2z"/>
	<path class="st0" d="M217.6,87.4c-1.2,0-2-0.4-2.7-1.2h-0.1v0.3c0,0.4,0.1,0.8,0.1,1.1v3.5h-1.4V78.7h1.2l0.2,1.2h0.1
		c0.3-0.5,0.7-0.8,1.2-1s0.9-0.3,1.5-0.3c1.1,0,2,0.4,2.6,1.2s0.9,1.9,0.9,3.3c0,1.4-0.3,2.5-0.9,3.3
		C219.6,87,218.7,87.4,217.6,87.4z M217.4,79.6c-0.8,0-1.5,0.2-1.8,0.7c-0.4,0.5-0.6,1.2-0.6,2.3v0.3c0,1.2,0.2,2,0.6,2.5
		s1,0.8,1.9,0.8c0.7,0,1.3-0.3,1.7-0.9c0.4-0.6,0.6-1.4,0.6-2.4s-0.2-1.8-0.6-2.4C218.7,79.9,218.1,79.6,217.4,79.6z"/>
	<path class="st0" d="M229,84.8c0,0.8-0.3,1.4-0.9,1.9c-0.6,0.4-1.4,0.7-2.5,0.7s-2-0.2-2.7-0.5v-1.3c0.9,0.5,1.9,0.7,2.7,0.7
		c0.7,0,1.2-0.1,1.5-0.3s0.5-0.5,0.5-0.9c0-0.3-0.2-0.6-0.5-0.9c-0.3-0.2-0.9-0.5-1.7-0.8c-0.8-0.3-1.4-0.6-1.7-0.8
		s-0.6-0.5-0.7-0.7c-0.2-0.3-0.2-0.6-0.2-1c0-0.7,0.3-1.3,0.9-1.7s1.4-0.6,2.4-0.6s1.9,0.2,2.7,0.6l-0.5,1.1
		c-0.9-0.4-1.7-0.5-2.4-0.5c-0.6,0-1,0.1-1.3,0.3s-0.5,0.4-0.5,0.8c0,0.3,0.1,0.6,0.4,0.8s0.9,0.5,1.8,0.9c0.7,0.3,1.2,0.5,1.6,0.7
		c0.3,0.2,0.6,0.5,0.8,0.8C228.9,84.1,229,84.4,229,84.8z"/>
	<path class="st0" d="M242.7,82.9c0,1.4-0.4,2.5-1.1,3.3s-1.7,1.2-2.9,1.2c-0.8,0-1.5-0.2-2.1-0.5c-0.6-0.4-1.1-0.9-1.4-1.6
		c-0.3-0.7-0.5-1.5-0.5-2.4c0-1.4,0.3-2.5,1-3.3s1.7-1.2,2.9-1.2c1.2,0,2.2,0.4,2.9,1.2S242.7,81.5,242.7,82.9z M236.2,82.9
		c0,1.1,0.2,1.9,0.6,2.5s1.1,0.8,1.9,0.8s1.4-0.3,1.9-0.8c0.4-0.6,0.6-1.4,0.6-2.5s-0.2-1.9-0.6-2.4s-1.1-0.8-1.9-0.8
		C237,79.6,236.2,80.7,236.2,82.9z"/>
	<path class="st0" d="M246.6,87.2l-3.2-8.6h1.5l1.8,5.1c0.4,1,0.6,1.8,0.7,2.3h0.1c0-0.1,0-0.1,0.1-0.2s0.1-0.2,0.1-0.3
		s0.2-0.7,0.6-1.8l1.8-5.1h1.5l-3.3,8.6H246.6z"/>
	<path class="st0" d="M256.5,87.4c-1.3,0-2.3-0.4-3-1.2s-1.1-1.9-1.1-3.2c0-1.4,0.3-2.5,1-3.3s1.6-1.2,2.8-1.2c1.1,0,1.9,0.3,2.6,1
		s1,1.6,1,2.8v0.9h-5.9c0,1,0.3,1.7,0.7,2.2s1.1,0.8,2,0.8c0.5,0,0.9,0,1.3-0.1s0.9-0.2,1.4-0.5v1.2c-0.5,0.2-0.9,0.3-1.3,0.4
		C257.6,87.3,257.1,87.4,256.5,87.4z M256.1,79.6c-0.7,0-1.2,0.2-1.6,0.6s-0.6,1-0.7,1.8h4.4c0-0.8-0.2-1.4-0.6-1.8
		S256.8,79.6,256.1,79.6z"/>
	<path class="st0" d="M265.9,78.5c0.4,0,0.7,0,1,0.1l-0.2,1.3c-0.3-0.1-0.6-0.1-0.9-0.1c-0.5,0-0.9,0.1-1.3,0.4
		c-0.4,0.2-0.7,0.6-0.9,1s-0.3,0.9-0.3,1.5v4.6h-1.4v-8.6h1.2l0.2,1.6h0.1c0.3-0.6,0.7-1,1.2-1.3C264.9,78.6,265.4,78.5,265.9,78.5z
		"/>
	<path class="st0" d="M275.5,86.2c0.2,0,0.4,0,0.6-0.1c0.2,0,0.4-0.1,0.6-0.1v1.1c-0.1,0.1-0.3,0.1-0.6,0.2s-0.6,0.1-0.8,0.1
		c-1.7,0-2.5-0.9-2.5-2.6v-5h-1.2v-0.7l1.2-0.6l0.6-1.8h0.8v2h2.5v1.1h-2.5v5c0,0.5,0.1,0.9,0.4,1.1
		C274.8,86.1,275.1,86.2,275.5,86.2z"/>
	<path class="st0" d="M284.3,87.2v-5.5c0-0.7-0.2-1.2-0.5-1.6c-0.3-0.3-0.8-0.5-1.5-0.5c-0.9,0-1.5,0.2-1.9,0.7s-0.6,1.3-0.6,2.4
		v4.4h-1.4V74.9h1.4v3.6c0,0.5,0,0.9-0.1,1.2h0.1c0.3-0.4,0.6-0.7,1.1-1s1-0.4,1.6-0.4c1,0,1.8,0.2,2.4,0.7c0.5,0.5,0.8,1.3,0.8,2.4
		V87h-1.4V87.2z"/>
	<path class="st0" d="M292,87.4c-1.3,0-2.3-0.4-3-1.2s-1.1-1.9-1.1-3.2c0-1.4,0.3-2.5,1-3.3s1.6-1.2,2.8-1.2c1.1,0,1.9,0.3,2.6,1
		s1,1.6,1,2.8v0.9h-5.9c0,1,0.3,1.7,0.7,2.2s1.1,0.8,2,0.8c0.5,0,0.9,0,1.3-0.1s0.9-0.2,1.4-0.5v1.2c-0.5,0.2-0.9,0.3-1.3,0.4
		C293,87.3,292.5,87.4,292,87.4z M291.6,79.6c-0.7,0-1.2,0.2-1.6,0.6s-0.6,1-0.7,1.8h4.4c0-0.8-0.2-1.4-0.6-1.8
		S292.3,79.6,291.6,79.6z"/>
	<path class="st0" d="M302.9,87.2h-1.4V75h1.4V87.2z"/>
	<path class="st0" d="M310.9,87.2l-0.3-1.2h-0.1c-0.4,0.5-0.9,0.9-1.3,1.1c-0.4,0.2-1,0.3-1.6,0.3c-0.8,0-1.5-0.2-2-0.7
		c-0.5-0.4-0.7-1.1-0.7-1.9c0-1.7,1.4-2.7,4.1-2.7l1.5-0.1v-0.5c0-0.7-0.1-1.1-0.4-1.4s-0.7-0.5-1.4-0.5c-0.5,0-0.9,0.1-1.3,0.2
		c-0.4,0.1-0.8,0.3-1.1,0.5l-0.4-1.1c0.4-0.2,0.9-0.4,1.4-0.5s1-0.2,1.5-0.2c1,0,1.8,0.2,2.3,0.7s0.8,1.2,0.8,2.2v5.8L310.9,87.2
		L310.9,87.2z M308,86.2c0.8,0,1.4-0.2,1.9-0.6c0.5-0.4,0.7-1,0.7-1.8V83l-1.3,0.1c-1,0-1.7,0.2-2.2,0.5s-0.7,0.7-0.7,1.3
		c0,0.4,0.1,0.8,0.4,1S307.5,86.2,308,86.2z"/>
	<path class="st0" d="M320.1,87.2h-6.3v-0.9l4.6-6.6h-4.3v-1.1h5.9v1.1l-4.5,6.4h4.7L320.1,87.2L320.1,87.2z"/>
	<path class="st0" d="M320.8,78.6h1.5l1.9,4.9c0.4,1.1,0.6,1.8,0.7,2.3h0.1c0-0.2,0.2-0.6,0.3-1.1c0.2-0.5,0.3-1,0.4-1.3l1.7-4.9
		h1.5l-3.7,9.8c-0.4,0.9-0.8,1.6-1.3,2s-1.1,0.6-1.8,0.6c-0.4,0-0.8,0-1.2-0.1v-1.1c0.3,0.1,0.6,0.1,0.9,0.1c0.4,0,0.8-0.1,1.1-0.4
		s0.6-0.6,0.8-1.1l0.4-1.1L320.8,78.6z"/>
	<path class="st0" d="M337.5,87.4c-1.1,0-2-0.4-2.6-1.2s-0.9-1.9-0.9-3.3c0-1.4,0.3-2.5,0.9-3.3s1.5-1.2,2.6-1.2
		c1.2,0,2,0.4,2.7,1.3h0.1c0-0.1,0-0.3-0.1-0.6c0-0.3,0-0.5,0-0.6v-3.4h1.4v12.1h-1.1l-0.2-1.1h-0.1
		C339.5,86.9,338.6,87.4,337.5,87.4z M337.7,86.2c0.9,0,1.5-0.2,1.9-0.7s0.6-1.2,0.6-2.3v-0.3c0-1.2-0.2-2-0.6-2.6s-1-0.8-1.9-0.8
		c-0.7,0-1.3,0.3-1.7,0.9c-0.4,0.6-0.6,1.4-0.6,2.5s0.2,1.9,0.6,2.4C336.4,85.9,336.9,86.2,337.7,86.2z"/>
	<path class="st0" d="M351.7,82.9c0,1.4-0.4,2.5-1.1,3.3s-1.7,1.2-2.9,1.2c-0.8,0-1.5-0.2-2.1-0.5c-0.6-0.4-1.1-0.9-1.4-1.6
		c-0.3-0.7-0.5-1.5-0.5-2.4c0-1.4,0.3-2.5,1-3.3s1.7-1.2,2.9-1.2c1.2,0,2.2,0.4,2.9,1.2S351.7,81.5,351.7,82.9z M345.2,82.9
		c0,1.1,0.2,1.9,0.6,2.5s1.1,0.8,1.9,0.8s1.4-0.3,1.9-0.8c0.4-0.6,0.6-1.4,0.6-2.5s-0.2-1.9-0.6-2.4s-1.1-0.8-1.9-0.8
		C346.1,79.6,345.2,80.7,345.2,82.9z"/>
	<path class="st0" d="M359.7,87.1V86h-0.1c-0.6,0.9-1.5,1.3-2.7,1.3c-1.1,0-2-0.4-2.6-1.2s-0.9-1.9-0.9-3.3c0-1.4,0.3-2.5,0.9-3.3
		s1.5-1.2,2.6-1.2c1.2,0,2.1,0.4,2.7,1.3h0.1l0.2-1.1h1.1v8.7c0,1.2-0.3,2.2-0.9,2.8s-1.6,0.9-2.9,0.9c-1.2,0-2.3-0.2-3.1-0.5v-1.2
		c0.8,0.4,1.9,0.7,3.2,0.7c0.7,0,1.3-0.2,1.7-0.6c0.4-0.4,0.6-1,0.6-1.8v-0.4H359.7z M357.2,86.2c0.9,0,1.5-0.2,1.9-0.7
		s0.6-1.2,0.6-2.2V83c0-1.1-0.2-2-0.6-2.5s-1-0.8-1.9-0.8c-0.7,0-1.3,0.3-1.7,0.9c-0.4,0.6-0.6,1.4-0.6,2.4c0,1.1,0.2,1.9,0.6,2.4
		S356.5,86.2,357.2,86.2z"/>
	<path class="st0" d="M363.6,86.3c0-0.3,0.1-0.6,0.3-0.8c0.2-0.2,0.4-0.3,0.7-0.3c0.3,0,0.6,0.1,0.7,0.3c0.2,0.2,0.3,0.4,0.3,0.8
		c0,0.3-0.1,0.6-0.3,0.8c-0.2,0.2-0.4,0.3-0.7,0.3c-0.3,0-0.5-0.1-0.7-0.3S363.6,86.7,363.6,86.3z"/>
	<path class="st0" d="M32.6,109.2h-1.4v-8c0-0.7,0-1.4,0.1-2c-0.1,0.2-0.3,0.3-0.5,0.4c-0.5,0.4-1.1,0.9-1.7,1.4l-0.7-0.9l3.1-2.4
		h1.2L32.6,109.2L32.6,109.2z"/>
	<path class="st0" d="M44.4,109.2h-7.6V108l3-3c0.9-0.9,1.5-1.6,1.8-2s0.5-0.8,0.7-1.1c0.1-0.4,0.2-0.8,0.2-1.2
		c0-0.6-0.2-1.1-0.5-1.4s-0.9-0.5-1.5-0.5c-0.5,0-0.9,0.1-1.3,0.2c-0.4,0.2-0.9,0.4-1.4,0.9L37,99c1.1-0.9,2.2-1.3,3.5-1.3
		c1.1,0,1.9,0.3,2.5,0.8s0.9,1.3,0.9,2.2c0,0.5-0.1,1-0.3,1.4c-0.2,0.5-0.5,0.9-0.8,1.4c-0.4,0.5-1,1.1-1.8,2l-2.4,2.4v0.1h5.8
		L44.4,109.2L44.4,109.2z"/>
	<path class="st0" d="M53.1,100.4c0,0.7-0.2,1.3-0.6,1.8s-1,0.8-1.8,0.9v0.1c0.9,0.1,1.6,0.4,2,0.9c0.5,0.5,0.7,1.1,0.7,1.8
		c0,1.1-0.4,1.9-1.1,2.5c-0.8,0.6-1.8,0.9-3.2,0.9c-0.6,0-1.2,0-1.7-0.1s-1-0.2-1.5-0.5v-1.3c0.5,0.2,1,0.4,1.6,0.6
		c0.6,0.1,1.1,0.2,1.6,0.2c1.9,0,2.9-0.8,2.9-2.3c0-1.3-1.1-2-3.2-2h-1.1v-1.2h1.1c0.9,0,1.6-0.2,2.1-0.6c0.5-0.4,0.8-0.9,0.8-1.6
		c0-0.5-0.2-1-0.6-1.3s-0.9-0.5-1.5-0.5c-0.5,0-1,0.1-1.4,0.2s-0.9,0.4-1.5,0.8l-0.7-1c0.5-0.4,1-0.7,1.6-0.9s1.3-0.3,1.9-0.3
		c1.1,0,2,0.3,2.6,0.8C52.8,98.9,53.1,99.6,53.1,100.4z"/>
	<path class="st0" d="M63.2,106.6h-1.7v2.6h-1.4v-2.6h-5.5v-1.2l5.4-7.7h1.5v7.6h1.7V106.6z M60.1,105.3v-3.6c0-0.7,0-1.6,0.1-2.5
		h-0.1c-0.1,0.1-0.2,0.3-0.3,0.6c-0.1,0.3-0.3,0.5-0.4,0.6l-3.4,4.9H60.1z"/>
	<path class="st0" d="M67.9,102.2c1.2,0,2.1,0.3,2.8,0.9c0.7,0.6,1,1.4,1,2.5c0,1.2-0.4,2.1-1.1,2.8c-0.8,0.7-1.8,1-3.1,1
		c-1.3,0-2.3-0.2-3-0.6v-1.3c0.4,0.2,0.8,0.4,1.4,0.5c0.5,0.1,1.1,0.2,1.6,0.2c0.9,0,1.6-0.2,2.1-0.6c0.5-0.4,0.7-1,0.7-1.8
		c0-1.5-1-2.3-2.9-2.3c-0.6,0-1.3,0.1-2,0.2l-0.7-0.4l0.4-5.4h5.7v1.3h-4.5l-0.3,3.3C66.7,102.3,67.3,102.2,67.9,102.2z"/>
	<path class="st0" d="M73.5,104.3c0-4.5,1.7-6.7,5.2-6.7c0.6,0,1.1,0,1.4,0.1v1.2c-0.4-0.1-0.9-0.2-1.4-0.2c-1.2,0-2.1,0.4-2.8,1.1
		c-0.6,0.7-1,1.9-1.1,3.5h0.1c0.6-0.9,1.5-1.3,2.7-1.3c1,0,1.8,0.3,2.4,0.9c0.6,0.6,0.9,1.5,0.9,2.5c0,1.2-0.3,2.1-1,2.8
		s-1.5,1-2.7,1c-0.8,0-1.5-0.2-2.1-0.6s-1-1-1.4-1.7C73.7,106.3,73.5,105.4,73.5,104.3z M77.4,108.2c0.7,0,1.3-0.2,1.7-0.7
		s0.6-1.1,0.6-2c0-0.8-0.2-1.3-0.6-1.8c-0.4-0.4-0.9-0.6-1.6-0.6c-0.5,0-0.9,0.1-1.2,0.3c-0.4,0.2-0.7,0.4-0.9,0.8s-0.3,0.7-0.3,1
		c0,0.5,0.1,1,0.3,1.5c0.2,0.5,0.5,0.8,0.9,1.1C76.5,108,76.9,108.2,77.4,108.2z"/>
	<path class="st0" d="M84,109.2l4.7-10.1h-6.2v-1.3h7.7v1.1l-4.6,10.3H84z"/>
	<path class="st0" d="M95.5,97.6c1,0,1.9,0.2,2.5,0.7s0.9,1.2,0.9,2c0,0.6-0.2,1.1-0.5,1.5c-0.3,0.5-0.9,0.9-1.7,1.3
		c0.9,0.4,1.6,0.9,2,1.4s0.6,1,0.6,1.7c0,0.9-0.3,1.7-1,2.3s-1.6,0.8-2.7,0.8c-1.2,0-2.2-0.3-2.8-0.8c-0.7-0.5-1-1.3-1-2.3
		c0-1.3,0.8-2.3,2.4-3.1c-0.7-0.4-1.2-0.8-1.5-1.3s-0.5-1-0.5-1.6c0-0.8,0.3-1.5,0.9-2C93.6,97.9,94.5,97.6,95.5,97.6z M93.1,106.3
		c0,0.6,0.2,1.1,0.6,1.4s1,0.5,1.8,0.5c0.7,0,1.3-0.2,1.8-0.5c0.4-0.4,0.6-0.8,0.6-1.5c0-0.5-0.2-0.9-0.6-1.3s-1.1-0.8-2-1.1
		c-0.8,0.3-1.3,0.7-1.6,1.1S93.1,105.8,93.1,106.3z M95.5,98.8c-0.6,0-1.1,0.1-1.5,0.4c-0.4,0.3-0.5,0.7-0.5,1.2
		c0,0.3,0.1,0.6,0.2,0.9s0.3,0.5,0.6,0.7s0.7,0.4,1.3,0.7c0.7-0.3,1.2-0.6,1.5-1s0.4-0.8,0.4-1.2c0-0.5-0.2-0.9-0.6-1.2
		C96.6,98.9,96.1,98.8,95.5,98.8z"/>
	<path class="st0" d="M108.4,102.7c0,4.5-1.8,6.7-5.2,6.7c-0.6,0-1.1-0.1-1.4-0.2V108c0.4,0.1,0.9,0.2,1.4,0.2
		c0.8,0,1.5-0.2,2.1-0.5s1-0.8,1.3-1.5s0.5-1.5,0.5-2.6H107c-0.6,0.9-1.5,1.3-2.7,1.3c-1,0-1.8-0.3-2.4-0.9
		c-0.6-0.6-0.9-1.5-0.9-2.5c0-1.2,0.3-2.1,1-2.8s1.5-1,2.7-1c0.8,0,1.5,0.2,2.1,0.6s1,1,1.4,1.7
		C108.2,100.7,108.4,101.6,108.4,102.7z M104.5,98.8c-0.7,0-1.3,0.2-1.7,0.7c-0.4,0.5-0.6,1.1-0.6,2c0,0.8,0.2,1.3,0.6,1.7
		s0.9,0.6,1.6,0.6c0.5,0,0.9-0.1,1.3-0.3s0.7-0.4,0.9-0.8s0.3-0.7,0.3-1c0-0.5-0.1-1-0.3-1.5c-0.2-0.5-0.5-0.8-0.9-1.1
		C105.4,98.9,105,98.8,104.5,98.8z"/>
	<path class="st0" d="M117.6,103.5c0,2-0.3,3.5-0.9,4.4c-0.6,1-1.6,1.5-2.9,1.5c-1.2,0-2.2-0.5-2.8-1.5s-1-2.5-1-4.4
		c0-2,0.3-3.5,0.9-4.4s1.6-1.4,2.9-1.4c1.2,0,2.2,0.5,2.8,1.5S117.6,101.6,117.6,103.5z M111.4,103.5c0,1.7,0.2,2.9,0.6,3.6
		c0.4,0.7,1,1.1,1.8,1.1s1.4-0.4,1.8-1.1c0.4-0.8,0.6-1.9,0.6-3.6c0-1.6-0.2-2.8-0.6-3.5c-0.4-0.8-1-1.1-1.8-1.1s-1.4,0.4-1.8,1.1
		C111.6,100.6,111.4,101.8,111.4,103.5z"/>
	<path class="st0" d="M119.5,108.3c0-0.3,0.1-0.6,0.3-0.8c0.2-0.2,0.4-0.3,0.7-0.3c0.3,0,0.6,0.1,0.7,0.3c0.2,0.2,0.3,0.5,0.3,0.8
		s-0.1,0.6-0.3,0.8c-0.2,0.2-0.4,0.3-0.7,0.3c-0.3,0-0.6-0.1-0.7-0.3S119.5,108.7,119.5,108.3z M121,106h-0.9l-0.4-8.2h1.7L121,106z
		"/>
	<path class="st0" d="M136.1,103.5c0,0.7-0.1,1.4-0.3,2c-0.2,0.6-0.6,1.1-1,1.4c-0.4,0.3-0.9,0.5-1.4,0.5c-0.4,0-0.8-0.1-1.1-0.4
		c-0.3-0.3-0.5-0.6-0.6-1h-0.1c-0.2,0.4-0.5,0.8-0.9,1s-0.8,0.4-1.4,0.4c-0.8,0-1.4-0.3-1.9-0.8s-0.7-1.3-0.7-2.2
		c0-0.7,0.1-1.3,0.4-1.9c0.3-0.5,0.7-1,1.2-1.3c0.5-0.3,1.1-0.5,1.8-0.5c0.4,0,0.8,0,1.2,0.1s0.9,0.2,1.2,0.3l-0.2,3.7v0.2
		c0,0.9,0.3,1.4,1,1.4c0.5,0,0.8-0.3,1.1-0.8c0.3-0.5,0.4-1.3,0.4-2.2s-0.2-1.8-0.6-2.5s-0.9-1.2-1.6-1.6c-0.7-0.4-1.5-0.6-2.4-0.6
		c-1.1,0-2.1,0.2-3,0.7c-0.9,0.5-1.5,1.2-2,2s-0.7,1.9-0.7,3.1c0,1.6,0.4,2.8,1.2,3.6s2,1.3,3.6,1.3c1.1,0,2.2-0.2,3.4-0.7v1.1
		c-1,0.4-2.2,0.7-3.4,0.7c-1.9,0-3.4-0.5-4.4-1.6c-1.1-1-1.6-2.5-1.6-4.3c0-1.3,0.3-2.6,0.8-3.6c0.6-1.1,1.4-1.9,2.4-2.5
		s2.2-0.9,3.6-0.9c1.1,0,2.1,0.2,3,0.7s1.6,1.1,2,2S136.1,102.4,136.1,103.5z M128.1,104.5c0,1.3,0.5,2,1.5,2c1.1,0,1.6-0.8,1.7-2.4
		l0.1-2c-0.4-0.1-0.8-0.2-1.2-0.2c-0.7,0-1.2,0.2-1.6,0.7C128.3,103,128.1,103.7,128.1,104.5z"/>
	<path class="st0" d="M144.8,102.2l-0.5,2.6h2.2v1.1h-2.4l-0.7,3.3h-1.1l0.7-3.3h-2.3l-0.6,3.3H139l0.6-3.3h-2v-1.1h2.2l0.5-2.6
		h-2.1v-1h2.3l0.6-3.4h1.1l-0.6,3.4h2.3l0.6-3.4h1.1l-0.6,3.4h2v1.1h-2.2V102.2z M140.8,104.8h2.3l0.5-2.6h-2.3L140.8,104.8z"/>
	<path class="st0" d="M155.5,105.7c0,0.7-0.3,1.3-0.8,1.8s-1.3,0.8-2.3,0.9v1.8h-1v-1.7c-0.6,0-1.2-0.1-1.7-0.2
		c-0.5-0.1-1-0.2-1.3-0.4v-1.3c0.4,0.2,0.9,0.3,1.4,0.5c0.6,0.1,1.1,0.2,1.6,0.2V104c-1.1-0.3-1.8-0.7-2.3-1.2
		c-0.4-0.5-0.7-1-0.7-1.8c0-0.7,0.3-1.3,0.8-1.7s1.2-0.7,2.1-0.8v-1.4h1v1.4c1,0,1.9,0.2,2.8,0.6l-0.4,1.1c-0.8-0.3-1.6-0.5-2.4-0.6
		v3.3c0.8,0.3,1.5,0.5,1.9,0.8c0.4,0.2,0.7,0.5,0.9,0.9C155.4,104.9,155.5,105.2,155.5,105.7z M150,101c0,0.4,0.1,0.7,0.3,0.9
		c0.2,0.2,0.6,0.5,1.2,0.6v-2.9c-0.5,0.1-0.9,0.2-1.1,0.5C150.1,100.3,150,100.6,150,101z M154.1,105.8c0-0.4-0.1-0.7-0.4-0.9
		c-0.2-0.2-0.7-0.4-1.3-0.6v2.9C153.6,107,154.1,106.6,154.1,105.8z"/>
	<path class="st0" d="M162.1,101.2c0,1.2-0.2,2.1-0.6,2.7c-0.4,0.6-1,0.9-1.8,0.9c-0.7,0-1.3-0.3-1.7-0.9c-0.4-0.6-0.6-1.5-0.6-2.7
		s0.2-2.1,0.6-2.7s1-0.9,1.7-0.9c0.8,0,1.4,0.3,1.8,0.9C161.9,99.2,162.1,100,162.1,101.2z M158.5,101.2c0,0.9,0.1,1.5,0.3,1.9
		c0.2,0.4,0.5,0.7,0.9,0.7c0.8,0,1.2-0.9,1.2-2.6c0-1.7-0.4-2.6-1.2-2.6c-0.4,0-0.7,0.2-0.9,0.6C158.6,99.7,158.5,100.3,158.5,101.2
		z M167,97.8l-6.3,11.4h-1.2l6.3-11.4H167z M169.1,105.8c0,1.2-0.2,2.1-0.6,2.7c-0.4,0.6-1,0.9-1.8,0.9c-0.7,0-1.3-0.3-1.7-0.9
		c-0.4-0.6-0.6-1.5-0.6-2.7s0.2-2.1,0.6-2.7c0.4-0.6,1-0.9,1.7-0.9s1.4,0.3,1.8,0.9S169.1,104.6,169.1,105.8z M165.5,105.8
		c0,0.9,0.1,1.5,0.3,1.9c0.2,0.4,0.5,0.6,0.9,0.6s0.7-0.2,0.9-0.6c0.2-0.4,0.3-1.1,0.3-1.9c0-1.7-0.4-2.6-1.2-2.6
		c-0.4,0-0.7,0.2-0.9,0.6C165.6,104.3,165.5,104.9,165.5,105.8z"/>
	<path class="st0" d="M170.5,104.9l3.4-7.2h0.8l3.8,7.2h-1.2l-2.9-5.7l-2.6,5.7H170.5z"/>
	<path class="st0" d="M179.9,106.2c0-0.7,0.2-1.3,0.5-1.8s1-1,1.9-1.6c-0.4-0.5-0.7-0.8-0.9-1.1c-0.2-0.3-0.3-0.5-0.4-0.8
		s-0.1-0.6-0.1-0.9c0-0.8,0.3-1.4,0.8-1.8s1.2-0.7,2.2-0.7c0.9,0,1.5,0.2,2,0.7s0.7,1,0.7,1.8c0,0.6-0.2,1.1-0.5,1.6
		c-0.4,0.5-0.9,1-1.8,1.4l3.1,3c0.5-0.6,0.9-1.4,1.1-2.5h1.4c-0.4,1.5-0.9,2.6-1.6,3.4l2.3,2.3h-1.9l-1.4-1.3
		c-0.6,0.5-1.2,0.9-1.8,1.1s-1.3,0.4-2.1,0.4c-1.1,0-2-0.3-2.6-0.8C180.2,108,179.9,107.2,179.9,106.2z M183.5,108.1
		c1.2,0,2.2-0.4,3-1.1l-3.3-3.2c-0.7,0.4-1.2,0.8-1.5,1.2s-0.4,0.8-0.4,1.2c0,0.6,0.2,1.1,0.6,1.4
		C182.3,107.9,182.8,108.1,183.5,108.1z M182.3,100.1c0,0.3,0.1,0.7,0.3,1c0.2,0.3,0.5,0.7,0.9,1.1c0.6-0.4,1.1-0.7,1.4-1
		s0.4-0.7,0.4-1.1c0-0.4-0.1-0.7-0.4-1s-0.6-0.4-1-0.4c-0.5,0-0.8,0.1-1.1,0.4S182.3,99.7,182.3,100.1z"/>
	<path class="st0" d="M195.9,97l-0.3,3.1l3.1-0.9l0.2,1.5l-2.9,0.2l1.9,2.5l-1.4,0.8l-1.4-2.8l-1.2,2.8l-1.4-0.8l1.9-2.5l-2.9-0.2
		l0.2-1.5l3,0.9l-0.3-3.1H195.9z"/>
	<path class="st0" d="M200.2,104.8c0-1.4,0.2-2.7,0.6-3.9s1-2.3,1.7-3.2h1.3c-0.8,1-1.3,2.1-1.7,3.3c-0.4,1.2-0.6,2.4-0.6,3.7
		c0,1.2,0.2,2.5,0.6,3.7s0.9,2.3,1.7,3.3h-1.3c-0.8-0.9-1.3-1.9-1.8-3.1C200.4,107.4,200.2,106.2,200.2,104.8z"/>
	<path class="st0" d="M208.5,104.8c0,1.4-0.2,2.6-0.6,3.8s-1,2.2-1.7,3.1h-1.3c0.7-1,1.3-2.1,1.7-3.3c0.4-1.2,0.6-2.4,0.6-3.7
		s-0.2-2.5-0.6-3.7s-0.9-2.3-1.7-3.3h1.3c0.8,0.9,1.3,2,1.8,3.2C208.3,102.2,208.5,103.4,208.5,104.8z"/>
	<path class="st0" d="M216.3,111.7h-7.2v-1h7.2V111.7z"/>
	<path class="st1" d="M30.4,30.8v5.4h-1.7V23.3h3.6c0.8,0,1.5,0.1,2.1,0.2s1.1,0.4,1.5,0.7c0.4,0.3,0.7,0.7,0.9,1.1
		c0.2,0.4,0.3,0.9,0.3,1.5c0,0.5-0.1,0.9-0.2,1.3s-0.4,0.8-0.6,1.1s-0.6,0.6-1,0.8s-0.8,0.4-1.3,0.5c0.2,0.1,0.4,0.3,0.6,0.5
		l3.8,5.1h-1.5c-0.3,0-0.6-0.1-0.7-0.4l-3.3-4.6c-0.1-0.1-0.2-0.2-0.3-0.3c-0.1-0.1-0.3-0.1-0.5-0.1h-1.7V30.8z M30.4,29.5h1.8
		c0.5,0,1-0.1,1.3-0.2c0.4-0.1,0.7-0.3,1-0.5s0.5-0.5,0.6-0.8s0.2-0.7,0.2-1c0-0.8-0.3-1.3-0.8-1.7c-0.5-0.4-1.3-0.6-2.3-0.6h-1.9
		v4.8H30.4z"/>
	<path class="st1" d="M43.4,26.9c0.5,0,1,0.1,1.5,0.3c0.5,0.2,0.9,0.4,1.2,0.8s0.6,0.8,0.8,1.3c0.2,0.5,0.3,1.1,0.3,1.7
		c0,0.3,0,0.4-0.1,0.5s-0.2,0.1-0.3,0.1h-6.1c0,0.6,0.1,1.1,0.2,1.5s0.3,0.8,0.6,1.1s0.6,0.5,0.9,0.6s0.7,0.2,1.2,0.2
		c0.4,0,0.7,0,1-0.1s0.5-0.2,0.8-0.3c0.2-0.1,0.4-0.2,0.5-0.3c0.1-0.1,0.3-0.1,0.4-0.1s0.2,0.1,0.3,0.2L47,35
		c-0.2,0.2-0.4,0.4-0.7,0.6s-0.6,0.3-0.9,0.4s-0.6,0.2-1,0.3c-0.3,0.1-0.7,0.1-1,0.1c-0.6,0-1.2-0.1-1.7-0.3s-1-0.5-1.4-0.9
		s-0.7-0.9-0.9-1.5c-0.2-0.6-0.3-1.3-0.3-2.1c0-0.6,0.1-1.2,0.3-1.8c0.2-0.6,0.5-1,0.8-1.4c0.4-0.4,0.8-0.7,1.3-1
		C42.2,27.1,42.8,26.9,43.4,26.9z M43.5,28.1c-0.8,0-1.4,0.2-1.8,0.7c-0.4,0.4-0.7,1.1-0.8,1.9h5c0-0.4-0.1-0.7-0.2-1
		s-0.3-0.6-0.4-0.8c-0.2-0.2-0.4-0.4-0.7-0.5S43.8,28.1,43.5,28.1z"/>
	<path class="st1" d="M52.3,26.9c0.4,0,0.8,0,1.1,0.1s0.7,0.2,0.9,0.4h2.5V28c0,0.2-0.1,0.3-0.4,0.4l-1,0.1c0.2,0.4,0.3,0.8,0.3,1.3
		c0,0.4-0.1,0.8-0.3,1.2c-0.2,0.4-0.4,0.7-0.7,0.9c-0.3,0.3-0.7,0.5-1.1,0.6s-0.9,0.2-1.4,0.2c-0.4,0-0.8-0.1-1.2-0.2
		c-0.2,0.1-0.3,0.3-0.4,0.4s-0.1,0.3-0.1,0.4c0,0.2,0.1,0.4,0.3,0.5c0.2,0.1,0.4,0.2,0.7,0.2c0.3,0,0.6,0.1,1,0.1s0.7,0,1.1,0
		s0.8,0,1.1,0.1s0.7,0.2,1,0.3c0.3,0.2,0.5,0.4,0.7,0.6c0.2,0.3,0.3,0.6,0.3,1s-0.1,0.8-0.3,1.1c-0.2,0.4-0.5,0.7-0.8,1
		c-0.4,0.3-0.8,0.5-1.3,0.7s-1.1,0.3-1.8,0.3s-1.2-0.1-1.8-0.2c-0.5-0.1-0.9-0.3-1.2-0.5c-0.3-0.2-0.6-0.5-0.7-0.8
		c-0.2-0.3-0.2-0.6-0.2-0.9c0-0.5,0.1-0.8,0.4-1.1s0.7-0.6,1.2-0.8c-0.3-0.1-0.5-0.3-0.6-0.5c-0.2-0.2-0.2-0.5-0.2-0.8
		c0-0.1,0-0.3,0.1-0.4c0-0.1,0.1-0.3,0.2-0.4s0.2-0.3,0.4-0.4c0.1-0.1,0.3-0.2,0.5-0.3c-0.4-0.3-0.8-0.6-1.1-1
		c-0.3-0.4-0.4-0.9-0.4-1.5c0-0.4,0.1-0.8,0.3-1.2c0.2-0.4,0.4-0.7,0.7-0.9s0.7-0.5,1.1-0.6C51.3,27,51.8,26.9,52.3,26.9z
		 M55.2,36.7c0-0.2-0.1-0.4-0.2-0.6c-0.1-0.1-0.3-0.2-0.5-0.3c-0.2-0.1-0.5-0.1-0.7-0.2c-0.3,0-0.6-0.1-0.9-0.1s-0.6,0-1,0
		s-0.6,0-0.9-0.1c-0.3,0.2-0.6,0.4-0.8,0.6s-0.3,0.5-0.3,0.8c0,0.2,0.1,0.4,0.2,0.6s0.3,0.3,0.5,0.5c0.2,0.1,0.5,0.2,0.8,0.3
		c0.3,0.1,0.7,0.1,1.2,0.1c0.4,0,0.8,0,1.2-0.1c0.3-0.1,0.6-0.2,0.9-0.3c0.2-0.1,0.4-0.3,0.5-0.5C55.1,37.1,55.2,36.9,55.2,36.7z
		 M52.3,31.7c0.3,0,0.6,0,0.9-0.1s0.5-0.2,0.6-0.4s0.3-0.4,0.4-0.6s0.1-0.5,0.1-0.7c0-0.6-0.2-1-0.5-1.3s-0.8-0.5-1.5-0.5
		c-0.6,0-1.1,0.2-1.5,0.5c-0.3,0.3-0.5,0.8-0.5,1.3c0,0.3,0,0.5,0.1,0.7s0.2,0.4,0.4,0.6s0.4,0.3,0.6,0.4S52,31.7,52.3,31.7z"/>
	<path class="st1" d="M59.8,27.1v5.8c0,0.7,0.2,1.2,0.5,1.6s0.8,0.6,1.4,0.6c0.5,0,0.9-0.1,1.3-0.3s0.8-0.5,1.1-0.9v-6.7h1.6v9.1h-1
		c-0.2,0-0.4-0.1-0.4-0.3l-0.1-1c-0.4,0.4-0.8,0.8-1.3,1.1c-0.5,0.3-1.1,0.4-1.7,0.4c-0.5,0-0.9-0.1-1.3-0.2c-0.4-0.2-0.7-0.4-1-0.7
		s-0.5-0.7-0.6-1.1s-0.2-0.9-0.2-1.4v-5.8h1.7V27.1z"/>
	<path class="st1" d="M70.2,22.9v13.3h-1.6V22.9H70.2z"/>
	<path class="st1" d="M79.7,36.2H79c-0.2,0-0.3,0-0.4-0.1c-0.1,0-0.2-0.1-0.2-0.3L78.2,35c-0.2,0.2-0.5,0.4-0.7,0.6S77,35.9,76.8,36
		c-0.3,0.1-0.5,0.2-0.8,0.3c-0.3,0.1-0.6,0.1-0.9,0.1c-0.4,0-0.7,0-1-0.1s-0.6-0.2-0.8-0.4c-0.2-0.2-0.4-0.5-0.5-0.8
		s-0.2-0.7-0.2-1.1s0.1-0.7,0.3-1c0.2-0.3,0.5-0.6,1-0.9s1-0.5,1.7-0.6c0.7-0.2,1.6-0.2,2.6-0.2v-0.7c0-0.7-0.2-1.3-0.5-1.6
		c-0.3-0.4-0.8-0.5-1.3-0.5c-0.4,0-0.7,0-1,0.1s-0.5,0.2-0.7,0.3c-0.2,0.1-0.4,0.2-0.5,0.3c-0.1,0.1-0.3,0.1-0.4,0.1s-0.2,0-0.3-0.1
		s-0.1-0.1-0.2-0.2L73,28.5c0.5-0.5,1-0.8,1.6-1.1s1.2-0.4,1.9-0.4c0.5,0,1,0.1,1.4,0.3s0.7,0.4,1,0.7s0.5,0.7,0.6,1.1
		s0.2,0.9,0.2,1.4V36.2z M75.6,35.2c0.3,0,0.5,0,0.8-0.1c0.2-0.1,0.5-0.1,0.7-0.2s0.4-0.2,0.6-0.4c0.2-0.1,0.4-0.3,0.6-0.5v-1.9
		c-0.7,0-1.4,0-1.9,0.1s-0.9,0.2-1.3,0.4c-0.3,0.2-0.6,0.3-0.7,0.5s-0.2,0.4-0.2,0.7c0,0.2,0,0.5,0.1,0.6s0.2,0.3,0.3,0.4
		c0.1,0.1,0.3,0.2,0.5,0.2C75.2,35.2,75.4,35.2,75.6,35.2z"/>
	<path class="st1" d="M82.2,36.2v-9.1h0.9c0.2,0,0.3,0,0.4,0.1s0.1,0.2,0.1,0.3l0.1,1.4c0.3-0.6,0.7-1.1,1.2-1.5s1-0.5,1.6-0.5
		c0.3,0,0.5,0,0.7,0.1s0.4,0.1,0.6,0.2l-0.2,1.2c0,0.1-0.1,0.2-0.3,0.2c-0.1,0-0.2,0-0.4-0.1c-0.2-0.1-0.4-0.1-0.7-0.1
		c-0.6,0-1,0.2-1.4,0.5s-0.7,0.8-0.9,1.4v5.8L82.2,36.2L82.2,36.2z"/>
	<path class="st0" d="M30.8,160.4v-1.3h1.5v1.3h2.9v1.4h-2.9v1.1h2.4v5.9h-2.4v1.1h2.6v1.4h-2.6v2.5h-1.5v-2.5h-3.1v-1.4h3.1v-1.1
		h-2.4v-5.9h2.4v-1.1h-2.9v-1.4H30.8z M33.3,165.2v-1h-3.5v1H33.3z M33.3,166.4h-3.5v1.1h3.5V166.4z M35.5,174l-1.2-1.1
		c1.1-1.5,1.6-3.4,1.7-5.7v-7.6h5.7v12.6c0,1-0.5,1.6-1.6,1.6h-1.7l-0.4-1.5c0.6,0,1.1,0.1,1.6,0.1c0.4,0,0.5-0.2,0.5-0.7v-2.9h-2.7
		C37.2,170.8,36.5,172.6,35.5,174z M37.5,167.1c0,0.1,0,0.1,0,0.2h2.6v-2.4h-2.6V167.1z M40.1,161h-2.6v2.4h2.6V161z"/>
	<path class="st0" d="M51.1,160.3c-1.7,0.5-4,0.8-6.9,0.8l-0.4-1.2c2.6,0,4.9-0.2,6.7-0.7L51.1,160.3z M49.6,168.1l-0.9,0.4
		c-0.1-0.2-0.1-0.3-0.2-0.5c-0.6,0.1-1.6,0.2-2.7,0.3l-0.1-0.8c0.2,0,0.4-0.2,0.6-0.4c0.1-0.2,0.2-0.4,0.4-0.7h-1.2v7.4h-1.3v-8.5
		h2.3c-0.3-0.3-0.6-0.5-1-0.7l0.7-0.6h-2.1v-1.1h0.7c-0.2-0.4-0.3-0.8-0.5-1.2l1.2-0.4c0.2,0.4,0.4,1,0.6,1.6h1
		c-0.1-0.5-0.3-1-0.5-1.5l1.3-0.2c0.1,0.5,0.3,1,0.4,1.7h0.6c0.3-0.6,0.6-1.2,0.8-1.9l1.2,0.4c-0.2,0.5-0.5,1-0.7,1.5h1.1v1
		c-0.5,0.5-1.1,1-1.8,1.5h1.8v7.2c0,0.9-0.4,1.3-1.3,1.3h-1.3l-0.3-1.2h0.4c-0.2-0.2-0.5-0.5-0.7-0.7c-0.5,0.4-1.1,0.8-1.7,1
		l-0.7-0.9c0.6-0.3,1.1-0.5,1.5-0.9c-0.4-0.3-0.8-0.6-1.2-0.8l0.6-0.6h-0.7v-0.9h3.8v0.8c-0.2,0.6-0.5,1.1-0.9,1.6
		c0.3,0.3,0.6,0.5,0.9,0.7l-0.7,0.7h0.6c0.2,0,0.4-0.2,0.4-0.4v-5.7h-2.1c-0.2,0.4-0.4,0.7-0.6,1c0.4,0,0.7-0.1,1.1-0.1
		c-0.1-0.2-0.2-0.4-0.2-0.5l0.9-0.3C49.1,167,49.4,167.6,49.6,168.1z M49.3,163.9h-2.9c0.5,0.4,1,0.7,1.4,1.1
		C48.2,164.7,48.8,164.3,49.3,163.9z M48.2,169.7h-1.7c0.4,0.3,0.8,0.5,1.1,0.8C47.9,170.2,48.1,170,48.2,169.7z M53,165.1
		c-0.2-0.7-0.5-1.4-0.8-2l1.2-0.4c0.3,0.7,0.6,1.5,0.8,2.5h1.1c0.3-0.8,0.6-1.7,0.9-2.6l1.3,0.4c-0.3,0.8-0.5,1.5-0.8,2.2h1.5v1.4
		h-2.7v2.1h2.4v1.4h-2.4v3.9H54v-3.9h-2.3v-1.4H54v-2.1h-2.5v-1.4L53,165.1L53,165.1z M55.5,160.9H58v1.3h-6.4v-1.3H54
		c-0.2-0.6-0.4-1.2-0.6-1.7l1.5-0.3C55.2,159.5,55.4,160.2,55.5,160.9z"/>
	<path class="st0" d="M72.7,173.8h-1.5v-1.1h-8.5v1.2h-1.5v-12.3H65c0.3-0.8,0.6-1.6,0.7-2.5l1.7,0.2c-0.2,0.8-0.4,1.6-0.7,2.3h6
		V173.8z M71.1,166.2V163h-8.5v3.2H71.1z M71.1,171.2v-3.6h-8.5v3.6H71.1z"/>
	<path class="st0" d="M82.2,160.3c-0.1-0.4-0.3-0.8-0.4-1.1l1.6-0.3c0.1,0.4,0.3,0.9,0.4,1.4h5.6v1.4h-2.6c-0.1,0.7-0.3,1.4-0.5,2
		h3.5v3.1h-1.5v-1.7H77.7v1.7h-1.5v-3.1h3.6l-0.6-2h-2.6v-1.4L82.2,160.3L82.2,160.3z M83.7,165.4v1.6h4.5v3.7
		c0,1.3-0.5,1.9-1.6,1.9h-1.3l-0.4-1.3l1.2,0.1c0.4,0,0.6-0.3,0.6-1v-2h-3.1v5.5h-1.5v-5.5h-2.8v4.2h-1.5V167h4.3v-1.6L83.7,165.4
		L83.7,165.4z M85.2,161.7h-4.6l0.6,2h3.5C85,163,85.1,162.4,85.2,161.7z"/>
	<path class="st0" d="M95.4,166.2v-1.4h1.5v1.4h3v1.5h-3v0.8c1,0.5,2,1.1,2.9,1.8l-0.9,1.4c-0.8-0.8-1.5-1.3-2-1.8v4h-1.5v-4.5
		c-0.9,1.4-1.9,2.5-3,3.4l-0.9-1.3c1.5-1.1,2.7-2.3,3.6-3.7h-3v-1.6H95.4z M100.1,160.5c-2,0.6-4.7,0.9-8.1,0.9l-0.4-1.3
		c3.1,0,5.7-0.3,7.8-0.8L100.1,160.5z M94.3,164.7l-1.2,0.3c-0.3-1-0.7-1.9-1.2-2.7l1.2-0.4C93.6,162.7,94,163.7,94.3,164.7z
		 M96.9,163.9l-1.3,0.5c-0.2-0.8-0.5-1.6-0.9-2.4l1.3-0.4C96.4,162.4,96.7,163.2,96.9,163.9z M99.9,161.7c-0.3,1.2-0.7,2.3-1.2,3.3
		l-1.2-0.4c0.4-0.8,0.8-1.9,1.1-3.2L99.9,161.7z M106.4,168.8c-1.5,2-3.4,3.7-5.7,5l-0.7-1.5c2.2-1.2,4-2.8,5.3-4.7L106.4,168.8z
		 M105.2,160.1c-1.2,1.5-2.6,2.7-4.3,3.6l-0.7-1.4c1.6-0.9,2.9-2,4-3.4L105.2,160.1z M105.9,164.4c-1.3,1.6-2.9,2.9-4.7,3.9
		l-0.7-1.4c1.8-0.9,3.3-2.2,4.4-3.7L105.9,164.4z"/>
	<path class="st0" d="M121.8,168.8v1.3h-3.2c1.1,0.9,2,1.9,2.8,2.8l-1,1.1c-0.3-0.4-0.6-0.8-0.9-1.2c-3.2,0.4-6.5,0.6-10,0.8
		l-0.4-1.2c0.4-0.1,0.7-0.2,1-0.4c0.4-0.4,1.1-1,1.8-1.9h-3.8v-1.3L121.8,168.8L121.8,168.8z M121.2,159.6v1.3h-5.5v0.7h6.1v3.5
		h-1.5v-2.2h-4.6v3.3h-1.5v-3.3h-4.6v2.2h-1.5v-3.5h6.1v-0.7h-5.5v-1.3H121.2z M120.6,166.7v1.3h-11.3v-1.3H120.6z M113.5,165.7
		c-0.6,0.2-1.7,0.4-3.2,0.6l-0.3-1c1.5-0.1,2.5-0.3,3.2-0.5L113.5,165.7z M113.4,163.6l-0.4,0.9c-1-0.2-2-0.3-3-0.4l0.5-0.9
		C111.5,163.3,112.5,163.4,113.4,163.6z M111.6,172.2c2.6-0.1,4.9-0.3,6.7-0.5c-0.4-0.4-0.8-0.7-1.2-1.1l0.5-0.5h-4.1
		C113,170.9,112.4,171.6,111.6,172.2z M119.9,165.3l-0.4,1c-1-0.3-2.1-0.5-3.2-0.6l0.4-0.9C117.8,164.9,118.9,165.1,119.9,165.3z
		 M116.4,163.6c1.1-0.1,2-0.3,2.9-0.5l0.4,1c-0.9,0.2-1.9,0.4-3.1,0.5L116.4,163.6z"/>
	<path class="st0" d="M130.2,165.1h-4.4v8.7h-1.5v-14.3h5.9V165.1z M128.7,160.9h-2.9v0.9h2.9V160.9z M125.8,163.8h2.9v-0.9h-2.9
		V163.8z M134,166.1v6.4h-6.1v-6.4H134z M132.5,168.7v-1.3h-3.2v1.3H132.5z M132.5,169.9h-3.2v1.4h3.2V169.9z M131.5,165.1v-5.6h6
		v12.9c0,0.9-0.5,1.4-1.4,1.4c-0.5,0-1,0-1.5,0l-0.4-1.5c0.5,0,1,0.1,1.4,0.1c0.3,0,0.4-0.2,0.4-0.5v-6.7L131.5,165.1L131.5,165.1z
		 M136,160.9h-3v0.9h3V160.9z M133,163.8h3v-0.9h-3V163.8z"/>
	<path class="st0" d="M32.7,194.2h-2.4v-9.4h-3.1v-2h8.6v2h-3.1V194.2z"/>
	<path class="st0" d="M45.5,194.2h-2.4v-5.1c0-1.3-0.5-1.9-1.4-1.9c-0.7,0-1.1,0.2-1.4,0.7s-0.4,1.2-0.4,2.2v4.1h-2.4V182h2.4v2.5
		c0,0.2,0,0.6-0.1,1.4l-0.1,0.7h0.1c0.5-0.9,1.4-1.3,2.5-1.3c1,0,1.8,0.3,2.3,0.8s0.8,1.3,0.8,2.4L45.5,194.2L45.5,194.2z"/>
	<path class="st0" d="M51.9,194.4c-1.4,0-2.5-0.4-3.3-1.2c-0.8-0.8-1.2-1.9-1.2-3.3c0-1.5,0.4-2.6,1.1-3.4s1.7-1.2,3-1.2
		c1.2,0,2.2,0.4,2.9,1.1s1,1.7,1,2.9v1.2h-5.6c0,0.7,0.2,1.2,0.6,1.6s0.9,0.6,1.6,0.6c0.5,0,1-0.1,1.5-0.2s1-0.3,1.5-0.5v1.8
		c-0.4,0.2-0.9,0.4-1.3,0.5C53.1,194.3,52.6,194.4,51.9,194.4z M51.5,187c-0.5,0-0.9,0.2-1.2,0.5c-0.3,0.3-0.5,0.8-0.5,1.4h3.3
		c0-0.6-0.2-1-0.5-1.4S52.1,187,51.5,187z"/>
	<path class="st0" d="M64.3,194.4c-1,0-1.8-0.4-2.4-1.2c-0.6-0.8-0.9-1.9-0.9-3.3s0.3-2.5,0.9-3.3s1.4-1.2,2.4-1.2
		c0.6,0,1,0.1,1.4,0.3c0.4,0.2,0.8,0.5,1.1,1h0.1l0.2-1.1h2v12.6h-2.4v-3.7c0-0.3,0-0.8,0.1-1.3h-0.1c-0.3,0.4-0.6,0.7-1,1
		S64.9,194.4,64.3,194.4z M65.2,192.5c0.6,0,1-0.2,1.3-0.5s0.4-1,0.5-1.8v-0.3c0-0.9-0.1-1.6-0.4-2s-0.8-0.6-1.4-0.6
		c-1.1,0-1.7,0.9-1.7,2.6c0,0.9,0.1,1.5,0.4,2C64.1,192.3,64.6,192.5,65.2,192.5z"/>
	<path class="st0" d="M77.9,194.2l-0.3-1.1h-0.1c-0.3,0.4-0.6,0.7-1.1,0.9s-1,0.3-1.6,0.3c-1,0-1.8-0.3-2.3-0.8s-0.8-1.3-0.8-2.4
		v-5.7h2.4v5.1c0,0.6,0.1,1.1,0.3,1.4c0.2,0.3,0.6,0.5,1.1,0.5c0.7,0,1.1-0.2,1.4-0.7s0.4-1.2,0.4-2.2v-4.1h2.4v8.7h-1.8V194.2z"/>
	<path class="st0" d="M82.1,183.2c0-0.8,0.4-1.2,1.3-1.2s1.3,0.4,1.3,1.2c0,0.4-0.1,0.7-0.3,0.9c-0.2,0.2-0.5,0.3-1,0.3
		C82.5,184.4,82.1,184,82.1,183.2z M84.6,194.2h-2.4v-8.7h2.4V194.2z"/>
	<path class="st0" d="M90.6,194.4c-2.7,0-4.1-1.5-4.1-4.5c0-1.5,0.4-2.6,1.1-3.4s1.8-1.2,3.2-1.2c1,0,1.9,0.2,2.7,0.6l-0.7,1.8
		c-0.4-0.2-0.7-0.3-1-0.4s-0.6-0.1-1-0.1c-1.2,0-1.9,0.9-1.9,2.6s0.6,2.6,1.9,2.6c0.5,0,0.9-0.1,1.3-0.2s0.8-0.3,1.2-0.6v2
		c-0.4,0.2-0.8,0.4-1.2,0.5C91.7,194.3,91.2,194.4,90.6,194.4z"/>
	<path class="st0" d="M97.6,189.4l1-1.3l2.4-2.7h2.7l-3.5,3.8l3.7,4.9h-2.8l-2.5-3.5l-1,0.8v2.7h-2.4v-12.2h2.4v5.4L97.6,189.4
		L97.6,189.4z"/>
	<path class="st0" d="M114.2,185.3c1,0,1.8,0.4,2.4,1.2c0.6,0.8,0.9,1.9,0.9,3.3s-0.3,2.6-0.9,3.4s-1.4,1.2-2.5,1.2
		c-1,0-1.8-0.4-2.4-1.1h-0.2l-0.4,1h-1.8v-12.2h2.4v2.8c0,0.4,0,0.9-0.1,1.7h0.1C112.3,185.7,113.1,185.3,114.2,185.3z M113.5,187.2
		c-0.6,0-1,0.2-1.3,0.5c-0.3,0.4-0.4,1-0.4,1.8v0.3c0,0.9,0.1,1.6,0.4,2s0.7,0.6,1.3,0.6c0.5,0,0.9-0.2,1.2-0.7s0.4-1.1,0.4-2
		s-0.1-1.5-0.4-1.9C114.4,187.4,114,187.2,113.5,187.2z"/>
	<path class="st0" d="M124.4,185.3c0.3,0,0.6,0,0.8,0.1l-0.2,2.2c-0.2-0.1-0.4-0.1-0.7-0.1c-0.8,0-1.4,0.2-1.8,0.6s-0.6,0.9-0.6,1.6
		v4.4h-2.4v-8.7h1.8l0.4,1.5h0.1c0.3-0.5,0.6-0.9,1.1-1.2S123.8,185.3,124.4,185.3z"/>
	<path class="st0" d="M134.5,189.8c0,1.4-0.4,2.5-1.1,3.3s-1.8,1.2-3.1,1.2c-0.8,0-1.6-0.2-2.2-0.6c-0.6-0.4-1.1-0.9-1.5-1.6
		s-0.5-1.5-0.5-2.4c0-1.4,0.4-2.5,1.1-3.3s1.8-1.2,3.1-1.2c0.8,0,1.6,0.2,2.2,0.5s1.1,0.9,1.5,1.6S134.5,188.9,134.5,189.8z
		 M128.5,189.8c0,0.9,0.1,1.5,0.4,2c0.3,0.4,0.7,0.7,1.4,0.7c0.6,0,1.1-0.2,1.4-0.7c0.3-0.4,0.4-1.1,0.4-2s-0.1-1.5-0.4-1.9
		s-0.7-0.6-1.4-0.6c-0.6,0-1.1,0.2-1.4,0.6S128.5,188.9,128.5,189.8z"/>
	<path class="st0" d="M143.5,194.2l-0.7-3.1l-0.9-3.9h-0.1l-1.6,6.9h-2.6l-2.5-8.7h2.4l1,3.9c0.1,0.5,0.3,1.4,0.5,2.9h0.1
		c0-0.4,0.1-1,0.3-1.9l0.1-0.7l1.1-4.2h2.6l1,4.2c0.1,0.3,0.1,0.7,0.2,1.3c0.1,0.6,0.1,1,0.2,1.3h0.1c0.1-0.5,0.1-1,0.2-1.6
		s0.2-1,0.3-1.3l1-3.9h2.3l-2.5,8.7h-2.5V194.2z"/>
	<path class="st0" d="M158.1,194.2h-2.4v-5.1c0-0.6-0.1-1.1-0.3-1.4c-0.2-0.3-0.6-0.5-1.1-0.5c-0.7,0-1.1,0.2-1.4,0.7
		s-0.4,1.2-0.4,2.2v4.1h-2.4v-8.7h1.8l0.3,1.1h0.1c0.3-0.4,0.6-0.7,1.1-1c0.5-0.2,1-0.3,1.6-0.3c1,0,1.8,0.3,2.3,0.8
		s0.8,1.3,0.8,2.4V194.2z"/>
	<path class="st0" d="M169.5,187.3h-2.1v6.9H165v-6.9h-1.3v-1.1l1.3-0.6V185c0-1,0.2-1.7,0.7-2.2s1.3-0.7,2.4-0.7
		c0.8,0,1.6,0.1,2.2,0.4l-0.6,1.8c-0.5-0.2-0.9-0.2-1.3-0.2c-0.3,0-0.6,0.1-0.7,0.3c-0.2,0.2-0.2,0.5-0.2,0.8v0.5h2.1L169.5,187.3
		L169.5,187.3z"/>
	<path class="st0" d="M178.9,189.8c0,1.4-0.4,2.5-1.1,3.3s-1.8,1.2-3.1,1.2c-0.8,0-1.6-0.2-2.2-0.6s-1.1-0.9-1.5-1.6
		s-0.5-1.5-0.5-2.4c0-1.4,0.4-2.5,1.1-3.3s1.8-1.2,3.1-1.2c0.8,0,1.6,0.2,2.2,0.5s1.1,0.9,1.5,1.6S178.9,188.9,178.9,189.8z
		 M172.8,189.8c0,0.9,0.1,1.5,0.4,2c0.3,0.4,0.7,0.7,1.4,0.7c0.6,0,1.1-0.2,1.4-0.7c0.3-0.4,0.4-1.1,0.4-2s-0.1-1.5-0.4-1.9
		s-0.7-0.6-1.4-0.6c-0.6,0-1.1,0.2-1.4,0.6S172.8,188.9,172.8,189.8z"/>
	<path class="st0" d="M182.5,189.7l-2.8-4.3h2.7l1.7,2.8l1.7-2.8h2.7l-2.8,4.3l3,4.5H186l-1.8-3l-1.8,3h-2.7L182.5,189.7z"/>
	<path class="st0" d="M193.4,198c-0.6,0-1.1-0.1-1.6-0.2v-1.9c0.4,0.1,0.7,0.1,1.1,0.1s0.7-0.1,0.9-0.3c0.2-0.2,0.3-0.6,0.3-1v-9.3
		h2.4v9.7c0,0.9-0.3,1.6-0.8,2.1C195.1,197.8,194.4,198,193.4,198z M194,183.2c0-0.8,0.4-1.2,1.3-1.2s1.3,0.4,1.3,1.2
		c0,0.4-0.1,0.7-0.3,0.9c-0.2,0.2-0.5,0.3-1,0.3C194.4,184.4,194,184,194,183.2z"/>
	<path class="st0" d="M205.1,194.2l-0.3-1.1h-0.1c-0.3,0.4-0.6,0.7-1.1,0.9s-1,0.3-1.6,0.3c-1,0-1.8-0.3-2.3-0.8s-0.8-1.3-0.8-2.4
		v-5.7h2.4v5.1c0,0.6,0.1,1.1,0.3,1.4c0.2,0.3,0.6,0.5,1.1,0.5c0.7,0,1.1-0.2,1.4-0.7s0.4-1.2,0.4-2.2v-4.1h2.4v8.7h-1.8V194.2z"/>
	<path class="st0" d="M217.3,194.2h-2.4v-5.1c0-0.6-0.1-1.1-0.3-1.4s-0.5-0.5-1-0.5c-0.6,0-1.1,0.2-1.3,0.7
		c-0.3,0.4-0.4,1.2-0.4,2.2v4.1h-2.4v-8.7h1.8l0.3,1.1h0.1c0.2-0.4,0.6-0.7,1-0.9c0.4-0.2,1-0.3,1.5-0.3c1.3,0,2.2,0.4,2.7,1.3h0.2
		c0.2-0.4,0.6-0.7,1-0.9c0.5-0.2,1-0.3,1.5-0.3c1,0,1.7,0.3,2.2,0.8s0.8,1.3,0.8,2.4v5.7h-2.4v-5.1c0-0.6-0.1-1.1-0.3-1.4
		s-0.5-0.5-1-0.5c-0.6,0-1,0.2-1.3,0.6s-0.4,1.1-0.4,2v4.2H217.3z"/>
	<path class="st0" d="M230,194.4c-1,0-1.8-0.4-2.4-1.1h-0.1c0.1,0.7,0.1,1.2,0.1,1.3v3.5h-2.4v-12.6h1.9l0.3,1.1h0.1
		c0.6-0.9,1.4-1.3,2.5-1.3c1,0,1.8,0.4,2.4,1.2c0.6,0.8,0.9,1.9,0.9,3.3c0,0.9-0.1,1.7-0.4,2.4s-0.7,1.2-1.2,1.6
		C231.3,194.2,230.7,194.4,230,194.4z M229.3,187.2c-0.6,0-1,0.2-1.3,0.5c-0.3,0.4-0.4,1-0.4,1.8v0.3c0,0.9,0.1,1.6,0.4,2
		s0.7,0.6,1.3,0.6c1.1,0,1.6-0.9,1.6-2.6c0-0.9-0.1-1.5-0.4-1.9C230.2,187.4,229.8,187.2,229.3,187.2z"/>
	<path class="st0" d="M241.4,191.6c0,0.9-0.3,1.6-0.9,2c-0.6,0.5-1.6,0.7-2.8,0.7c-0.6,0-1.2,0-1.6-0.1s-0.9-0.2-1.3-0.4v-2
		c0.4,0.2,0.9,0.4,1.5,0.5s1,0.2,1.5,0.2c0.9,0,1.3-0.2,1.3-0.8c0-0.2-0.1-0.3-0.2-0.5c-0.1-0.1-0.3-0.2-0.6-0.4s-0.7-0.3-1.1-0.5
		c-0.7-0.3-1.2-0.5-1.5-0.8c-0.3-0.2-0.5-0.5-0.7-0.8c-0.1-0.3-0.2-0.7-0.2-1.1c0-0.8,0.3-1.4,0.9-1.8s1.5-0.6,2.6-0.6
		s2.1,0.2,3.1,0.7l-0.7,1.7c-0.4-0.2-0.8-0.3-1.2-0.5c-0.4-0.1-0.8-0.2-1.2-0.2c-0.7,0-1.1,0.2-1.1,0.6c0,0.2,0.1,0.4,0.3,0.6
		s0.7,0.4,1.5,0.7c0.7,0.3,1.2,0.5,1.5,0.8c0.3,0.2,0.6,0.5,0.7,0.8C241.3,190.8,241.4,191.2,241.4,191.6z"/>
	<path class="st0" d="M255.4,189.8c0,1.4-0.4,2.5-1.1,3.3s-1.8,1.2-3.1,1.2c-0.8,0-1.6-0.2-2.2-0.6s-1.1-0.9-1.5-1.6
		s-0.5-1.5-0.5-2.4c0-1.4,0.4-2.5,1.1-3.3s1.8-1.2,3.1-1.2c0.8,0,1.6,0.2,2.2,0.5s1.1,0.9,1.5,1.6S255.4,188.9,255.4,189.8z
		 M249.3,189.8c0,0.9,0.1,1.5,0.4,2c0.3,0.4,0.7,0.7,1.4,0.7c0.6,0,1.1-0.2,1.4-0.7c0.3-0.4,0.4-1.1,0.4-2s-0.1-1.5-0.4-1.9
		s-0.7-0.6-1.4-0.6c-0.6,0-1.1,0.2-1.4,0.6S249.3,188.9,249.3,189.8z"/>
	<path class="st0" d="M259.2,194.2l-3.3-8.7h2.5l1.7,5c0.2,0.5,0.3,1.1,0.3,1.8h0.1c0-0.6,0.1-1.2,0.4-1.8l1.7-5h2.5l-3.3,8.7H259.2
		z"/>
	<path class="st0" d="M270.2,194.4c-1.4,0-2.5-0.4-3.3-1.2c-0.8-0.8-1.2-1.9-1.2-3.3c0-1.5,0.4-2.6,1.1-3.4s1.7-1.2,3-1.2
		c1.2,0,2.2,0.4,2.9,1.1s1,1.7,1,2.9v1.2h-5.6c0,0.7,0.2,1.2,0.6,1.6s0.9,0.6,1.6,0.6c0.5,0,1-0.1,1.5-0.2s1-0.3,1.5-0.5v1.8
		c-0.4,0.2-0.9,0.4-1.3,0.5C271.5,194.3,270.9,194.4,270.2,194.4z M269.9,187c-0.5,0-0.9,0.2-1.2,0.5c-0.3,0.3-0.5,0.8-0.5,1.4h3.3
		c0-0.6-0.2-1-0.5-1.4S270.4,187,269.9,187z"/>
	<path class="st0" d="M280.6,185.3c0.3,0,0.6,0,0.8,0.1l-0.2,2.2c-0.2-0.1-0.4-0.1-0.7-0.1c-0.8,0-1.4,0.2-1.8,0.6s-0.6,0.9-0.6,1.6
		v4.4h-2.4v-8.7h1.8l0.4,1.5h0.1c0.3-0.5,0.6-0.9,1.1-1.2S280.1,185.3,280.6,185.3z"/>
	<path class="st0" d="M290.8,192.5c0.4,0,0.9-0.1,1.5-0.3v1.8c-0.6,0.3-1.3,0.4-2.2,0.4c-1,0-1.6-0.2-2.1-0.7
		c-0.4-0.5-0.7-1.2-0.7-2.2v-4.2h-1.1v-1l1.3-0.8l0.7-1.8h1.5v1.9h2.4v1.8h-2.4v4.2c0,0.3,0.1,0.6,0.3,0.8
		C290.3,192.4,290.5,192.5,290.8,192.5z"/>
	<path class="st0" d="M302.1,194.2h-2.4v-5.1c0-1.3-0.5-1.9-1.4-1.9c-0.7,0-1.1,0.2-1.4,0.7s-0.4,1.2-0.4,2.2v4.1h-2.4V182h2.4v2.5
		c0,0.2,0,0.6-0.1,1.4l-0.1,0.7h0.1c0.5-0.9,1.4-1.3,2.5-1.3c1,0,1.8,0.3,2.3,0.8s0.8,1.3,0.8,2.4L302.1,194.2L302.1,194.2z"/>
	<path class="st0" d="M308.6,194.4c-1.4,0-2.5-0.4-3.3-1.2c-0.8-0.8-1.2-1.9-1.2-3.3c0-1.5,0.4-2.6,1.1-3.4s1.7-1.2,3-1.2
		c1.2,0,2.2,0.4,2.9,1.1s1,1.7,1,2.9v1.2h-5.6c0,0.7,0.2,1.2,0.6,1.6s0.9,0.6,1.6,0.6c0.5,0,1-0.1,1.5-0.2s1-0.3,1.5-0.5v1.8
		c-0.4,0.2-0.9,0.4-1.3,0.5C309.8,194.3,309.2,194.4,308.6,194.4z M308.2,187c-0.5,0-0.9,0.2-1.2,0.5c-0.3,0.3-0.5,0.8-0.5,1.4h3.3
		c0-0.6-0.2-1-0.5-1.4S308.7,187,308.2,187z"/>
	<path class="st0" d="M320.6,194.2h-2.4V182h2.4V194.2z"/>
	<path class="st0" d="M328.6,194.2l-0.5-1.2H328c-0.4,0.5-0.8,0.9-1.2,1.1c-0.4,0.2-1,0.3-1.7,0.3c-0.8,0-1.5-0.2-2-0.7
		s-0.7-1.2-0.7-2c0-0.9,0.3-1.6,1-2.1s1.6-0.7,2.9-0.7h1.5v-0.4c0-0.9-0.5-1.3-1.4-1.3c-0.7,0-1.5,0.2-2.5,0.6l-0.8-1.6
		c1-0.5,2.1-0.8,3.3-0.8c1.2,0,2.1,0.3,2.7,0.8s0.9,1.3,0.9,2.3v5.8L328.6,194.2L328.6,194.2z M327.9,190.2H327
		c-0.7,0-1.2,0.1-1.5,0.4c-0.3,0.2-0.5,0.6-0.5,1c0,0.7,0.4,1,1.2,1c0.6,0,1-0.2,1.3-0.5s0.5-0.7,0.5-1.3L327.9,190.2L327.9,190.2z"
		/>
	<path class="st0" d="M338.8,194.2h-6.9v-1.4l4-5.5h-3.8v-1.8h6.5v1.5l-3.9,5.4h4.1L338.8,194.2L338.8,194.2z"/>
	<path class="st0" d="M339.3,185.5h2.6l1.6,4.9c0.1,0.4,0.2,0.9,0.3,1.5l0,0c0.1-0.5,0.2-1,0.3-1.5l1.6-4.9h2.6l-3.7,9.9
		c-0.3,0.9-0.8,1.6-1.4,2c-0.6,0.5-1.4,0.7-2.2,0.7c-0.4,0-0.8,0-1.2-0.1v-1.9c0.3,0.1,0.6,0.1,0.9,0.1c0.4,0,0.8-0.1,1.1-0.4
		c0.3-0.3,0.6-0.6,0.7-1.2l0.1-0.4L339.3,185.5z"/>
	<path class="st0" d="M30.9,216.4c-1,0-1.8-0.4-2.4-1.2s-0.9-1.9-0.9-3.3s0.3-2.5,0.9-3.3s1.4-1.2,2.5-1.2s1.9,0.4,2.5,1.3h0.1
		c-0.1-0.7-0.2-1.2-0.2-1.7v-2.8h2.4v12H34l-0.5-1.1h-0.1C32.9,215.9,32,216.4,30.9,216.4z M31.8,214.5c0.6,0,1.1-0.2,1.3-0.5
		c0.3-0.4,0.4-1,0.5-1.8v-0.3c0-0.9-0.1-1.6-0.4-2s-0.8-0.6-1.4-0.6c-0.5,0-0.9,0.2-1.2,0.7c-0.3,0.5-0.4,1.1-0.4,2s0.1,1.5,0.4,1.9
		S31.2,214.5,31.8,214.5z"/>
	<path class="st0" d="M46.2,211.8c0,1.4-0.4,2.5-1.1,3.3s-1.8,1.2-3.1,1.2c-0.8,0-1.6-0.2-2.2-0.6s-1.1-0.9-1.5-1.6
		s-0.5-1.5-0.5-2.4c0-1.4,0.4-2.5,1.1-3.3s1.8-1.2,3.1-1.2c0.8,0,1.6,0.2,2.2,0.5s1.1,0.9,1.5,1.6S46.2,210.9,46.2,211.8z
		 M40.2,211.8c0,0.9,0.1,1.5,0.4,2c0.3,0.4,0.7,0.7,1.4,0.7c0.6,0,1.1-0.2,1.4-0.7c0.3-0.4,0.4-1.1,0.4-2s-0.1-1.5-0.4-1.9
		s-0.7-0.6-1.4-0.6c-0.6,0-1.1,0.2-1.4,0.6S40.2,210.9,40.2,211.8z"/>
	<path class="st0" d="M55.8,216.2c0,1.3-0.4,2.2-1.1,2.9c-0.7,0.6-1.8,1-3.3,1c-1.3,0-2.4-0.2-3.3-0.5v-1.9c1.1,0.4,2.2,0.7,3.4,0.7
		c1.2,0,1.8-0.7,1.8-2v-0.2l0.1-1.1h-0.1c-0.6,0.9-1.4,1.3-2.5,1.3c-1,0-1.9-0.4-2.4-1.2c-0.6-0.8-0.9-1.9-0.9-3.3s0.3-2.5,0.9-3.3
		s1.4-1.2,2.5-1.2s1.9,0.4,2.5,1.3h0.1l0.2-1.1h2v8.6H55.8z M51.8,214.5c0.6,0,1.1-0.2,1.4-0.6s0.4-1,0.4-1.8v-0.3
		c0-0.9-0.1-1.6-0.4-2s-0.8-0.6-1.4-0.6c-1.1,0-1.7,0.9-1.7,2.6c0,0.9,0.1,1.5,0.4,2C50.8,214.3,51.2,214.5,51.8,214.5z"/>
	<path class="st0" d="M58,215.1c0-0.4,0.1-0.8,0.4-1s0.6-0.3,1-0.3s0.8,0.1,1,0.3c0.2,0.2,0.4,0.6,0.4,1s-0.1,0.7-0.4,1
		c-0.2,0.2-0.6,0.4-1,0.4s-0.8-0.1-1-0.3C58.1,215.8,58,215.5,58,215.1z"/>
	<path class="st0" d="M33.5,238.2h-2.4v-6.6v-1.1v-1.2c-0.4,0.4-0.7,0.7-0.8,0.8l-1.3,1.1l-1.2-1.5l3.7-2.9h2L33.5,238.2L33.5,238.2
		z"/>
	<path class="st0" d="M44.7,238.2h-8v-1.7l2.9-2.9c0.8-0.9,1.4-1.5,1.7-1.8c0.3-0.3,0.4-0.6,0.6-0.9c0.1-0.3,0.2-0.6,0.2-0.9
		c0-0.5-0.1-0.8-0.4-1s-0.6-0.3-1-0.3s-0.9,0.1-1.3,0.3c-0.4,0.2-0.9,0.5-1.3,0.9l-1.3-1.6c0.6-0.5,1-0.8,1.4-1s0.8-0.4,1.2-0.5
		s0.9-0.2,1.5-0.2c0.7,0,1.3,0.1,1.9,0.4s1,0.6,1.3,1.1s0.5,1,0.5,1.6c0,0.5-0.1,1-0.3,1.5c-0.2,0.5-0.5,0.9-0.9,1.4
		s-1.1,1.2-2.1,2.1l-1.5,1.4v0.1h5L44.7,238.2L44.7,238.2z"/>
	<path class="st0" d="M53.4,229.3c0,0.7-0.2,1.3-0.6,1.8s-1,0.8-1.8,1l0,0c0.9,0.1,1.6,0.4,2.1,0.8s0.7,1,0.7,1.8
		c0,1.1-0.4,2-1.2,2.6s-1.9,0.9-3.4,0.9c-1.2,0-2.3-0.2-3.3-0.6v-2.1c0.4,0.2,0.9,0.4,1.5,0.5s1.1,0.2,1.6,0.2
		c0.8,0,1.4-0.1,1.8-0.4s0.6-0.7,0.6-1.3c0-0.5-0.2-0.9-0.7-1.1s-1.1-0.3-2.1-0.3h-0.9v-1.9h0.9c0.9,0,1.5-0.1,1.9-0.3
		c0.4-0.2,0.6-0.6,0.6-1.2c0-0.9-0.5-1.3-1.6-1.3c-0.4,0-0.8,0.1-1.1,0.2c-0.4,0.1-0.8,0.3-1.3,0.6l-1.1-1.7c1-0.8,2.3-1.1,3.7-1.1
		c1.2,0,2.1,0.2,2.8,0.7C53,227.8,53.4,228.5,53.4,229.3z"/>
	<path class="st0" d="M63.2,235.8h-1.4v2.4h-2.4v-2.4h-4.9v-1.6l5-7.4h2.2v7.2h1.4v1.8H63.2z M59.5,234v-1.9c0-0.3,0-0.8,0-1.4
		s0-1,0.1-1.1h-0.1c-0.2,0.4-0.4,0.8-0.7,1.2l-2.1,3.2L59.5,234L59.5,234z"/>
	<path class="st0" d="M68.3,230.9c1.1,0,2,0.3,2.6,0.9c0.7,0.6,1,1.5,1,2.5c0,1.3-0.4,2.3-1.2,2.9c-0.8,0.7-1.9,1-3.4,1
		c-1.3,0-2.3-0.2-3.1-0.6v-2.1c0.4,0.2,0.9,0.4,1.4,0.5s1.1,0.2,1.6,0.2c1.5,0,2.2-0.6,2.2-1.8c0-1.2-0.8-1.7-2.3-1.7
		c-0.3,0-0.6,0-0.9,0.1s-0.6,0.1-0.8,0.2l-1-0.5l0.4-5.8H71v2h-4.1l-0.2,2.2l0.3-0.1C67.4,230.9,67.8,230.9,68.3,230.9z"/>
	<path class="st0" d="M73.2,233.3c0-2.3,0.5-3.9,1.4-5c1-1.1,2.4-1.7,4.3-1.7c0.7,0,1.2,0,1.5,0.1v1.9c-0.5-0.1-0.9-0.2-1.4-0.2
		c-0.8,0-1.5,0.1-2,0.4s-0.9,0.6-1.2,1.1c-0.3,0.5-0.4,1.2-0.5,2.1h0.1c0.5-0.9,1.3-1.3,2.5-1.3c1,0,1.8,0.3,2.4,1s0.9,1.5,0.9,2.7
		s-0.3,2.2-1,2.9s-1.6,1.1-2.9,1.1c-0.8,0-1.6-0.2-2.2-0.6s-1.1-1-1.5-1.7C73.4,235.3,73.2,234.4,73.2,233.3z M77.3,236.4
		c0.5,0,0.9-0.2,1.2-0.5c0.3-0.3,0.4-0.8,0.4-1.5c0-0.6-0.1-1-0.4-1.3s-0.6-0.5-1.2-0.5c-0.5,0-0.9,0.2-1.3,0.5
		c-0.3,0.3-0.5,0.7-0.5,1.1c0,0.6,0.2,1.1,0.5,1.6C76.4,236.2,76.8,236.4,77.3,236.4z"/>
	<path class="st0" d="M83.6,238.2l4.3-9.4h-5.6v-2h8.2v1.5l-4.3,9.9H83.6z"/>
	<path class="st0" d="M95.5,226.6c1.1,0,2,0.2,2.6,0.7c0.7,0.5,1,1.2,1,2c0,0.6-0.2,1.1-0.5,1.6s-0.8,0.9-1.6,1.2
		c0.9,0.5,1.5,0.9,1.8,1.4c0.4,0.5,0.6,1,0.6,1.6c0,0.9-0.4,1.7-1.1,2.3s-1.7,0.9-2.9,0.9c-1.2,0-2.2-0.3-2.9-0.8
		c-0.7-0.5-1.1-1.3-1.1-2.3c0-0.7,0.2-1.2,0.5-1.7s0.9-1,1.7-1.3c-0.7-0.4-1.1-0.9-1.4-1.3c-0.3-0.5-0.4-1-0.4-1.5
		c0-0.8,0.3-1.5,1-2C93.5,226.9,94.4,226.6,95.5,226.6z M93.7,235.2c0,0.4,0.2,0.8,0.5,1s0.7,0.4,1.3,0.4c0.6,0,1-0.1,1.3-0.4
		s0.4-0.6,0.4-1c0-0.3-0.1-0.7-0.4-1s-0.8-0.6-1.4-1C94.3,233.7,93.7,234.4,93.7,235.2z M95.5,228.4c-0.4,0-0.7,0.1-1,0.3
		c-0.3,0.2-0.4,0.5-0.4,0.8s0.1,0.6,0.3,0.8c0.2,0.2,0.6,0.5,1.1,0.8c0.5-0.2,0.9-0.5,1.1-0.7s0.3-0.5,0.3-0.9s-0.1-0.6-0.4-0.9
		C96.2,228.5,95.9,228.4,95.5,228.4z"/>
	<path class="st0" d="M108.7,231.7c0,2.2-0.5,3.9-1.4,5s-2.4,1.7-4.3,1.7c-0.7,0-1.2,0-1.5-0.1v-1.9c0.4,0.1,0.9,0.2,1.4,0.2
		c0.8,0,1.5-0.1,2-0.4c0.5-0.2,0.9-0.6,1.2-1.1c0.3-0.5,0.4-1.2,0.5-2.1h-0.1c-0.3,0.5-0.7,0.8-1,1c-0.4,0.2-0.9,0.3-1.5,0.3
		c-1,0-1.8-0.3-2.4-1c-0.6-0.6-0.9-1.5-0.9-2.7s0.3-2.2,1-2.9s1.6-1.1,2.8-1.1c0.8,0,1.6,0.2,2.2,0.6s1.1,1,1.5,1.7
		C108.5,229.7,108.7,230.6,108.7,231.7z M104.5,228.6c-0.5,0-0.9,0.2-1.2,0.5s-0.4,0.8-0.4,1.5c0,0.6,0.1,1,0.4,1.3s0.6,0.5,1.2,0.5
		c0.5,0,0.9-0.2,1.3-0.5c0.3-0.3,0.5-0.7,0.5-1.1c0-0.6-0.2-1.1-0.5-1.6C105.5,228.8,105,228.6,104.5,228.6z"/>
	<path class="st0" d="M117.8,232.5c0,2-0.3,3.5-1,4.4c-0.7,1-1.7,1.4-3,1.4s-2.3-0.5-3-1.5s-1-2.5-1-4.4c0-2,0.3-3.5,1-4.5
		s1.7-1.4,3-1.4s2.3,0.5,3,1.5C117.5,229.1,117.8,230.6,117.8,232.5z M112.2,232.5c0,1.4,0.1,2.4,0.4,3s0.6,0.9,1.2,0.9
		s1-0.3,1.2-0.9s0.4-1.6,0.4-3s-0.1-2.4-0.4-3s-0.7-0.9-1.2-0.9c-0.6,0-1,0.3-1.2,0.9C112.3,230.1,112.2,231.1,112.2,232.5z"/>
	<path class="st0" d="M119.3,237.1c0-0.4,0.1-0.8,0.4-1s0.6-0.3,1-0.3s0.8,0.1,1,0.3c0.2,0.2,0.4,0.6,0.4,1s-0.1,0.7-0.4,1
		c-0.2,0.2-0.6,0.4-1,0.4s-0.8-0.1-1-0.3C119.4,237.8,119.3,237.5,119.3,237.1z M121.6,234.4h-1.9l-0.4-7.6h2.7L121.6,234.4z"/>
	<path class="st0" d="M136.5,232.5c0,0.8-0.1,1.4-0.4,2.1c-0.2,0.6-0.6,1.1-1,1.5s-0.9,0.5-1.5,0.5c-0.4,0-0.7-0.1-1-0.3
		c-0.3-0.2-0.5-0.4-0.6-0.7h-0.1c-0.3,0.3-0.6,0.6-0.9,0.7c-0.4,0.2-0.8,0.3-1.2,0.3c-0.9,0-1.6-0.3-2.2-0.8
		c-0.6-0.5-0.8-1.3-0.8-2.3c0-1.1,0.3-2,1-2.6c0.7-0.7,1.6-1,2.7-1c0.4,0,0.9,0,1.5,0.1s1,0.2,1.4,0.3l-0.2,3.8
		c0,0.7,0.2,1.1,0.6,1.1c0.3,0,0.6-0.2,0.8-0.7c0.2-0.5,0.3-1.1,0.3-1.9s-0.2-1.6-0.5-2.2s-0.8-1.1-1.5-1.5s-1.4-0.5-2.2-0.5
		c-1,0-2,0.2-2.7,0.7c-0.7,0.5-1.4,1.1-1.8,1.9s-0.6,1.8-0.6,2.8c0,1.4,0.4,2.5,1.2,3.3c0.8,0.8,1.9,1.2,3.3,1.2
		c0.6,0,1.2-0.1,1.9-0.2c0.7-0.1,1.3-0.3,1.9-0.5v1.5c-1.1,0.5-2.3,0.7-3.7,0.7c-2,0-3.5-0.5-4.6-1.6c-1.1-1-1.7-2.5-1.7-4.3
		c0-1.3,0.3-2.5,0.9-3.5s1.4-1.9,2.4-2.5c1-0.6,2.2-0.9,3.6-0.9c1.1,0,2.2,0.2,3.1,0.7s1.6,1.1,2.1,2
		C136.3,230.3,136.5,231.3,136.5,232.5z M128.5,233.4c0,1.1,0.4,1.6,1.3,1.6c0.5,0,0.8-0.2,1.1-0.5c0.2-0.3,0.4-0.9,0.4-1.6l0.1-1.7
		c-0.2-0.1-0.5-0.1-0.9-0.1c-0.7,0-1.2,0.2-1.5,0.6C128.7,232.2,128.5,232.7,128.5,233.4z"/>
	<path class="st0" d="M145.1,231.6l-0.4,1.8h2v1.6h-2.3l-0.6,3.2h-1.7l0.6-3.2h-1.5l-0.6,3.2h-1.7l0.6-3.2h-1.9v-1.6h2.2l0.4-1.8h-2
		V230h2.3l0.6-3.2h1.7l-0.6,3.2h1.5l0.6-3.2h1.7l-0.6,3.2h1.9v1.6H145.1z M141.5,233.4h1.5l0.4-1.8h-1.5L141.5,233.4z"/>
	<path class="st0" d="M156.2,234.6c0,0.8-0.3,1.5-0.9,2s-1.4,0.8-2.5,0.9v1.6h-1.1v-1.6c-1.3,0-2.4-0.2-3.3-0.7v-2.1
		c0.5,0.2,1,0.4,1.6,0.6s1.2,0.3,1.7,0.3v-2.4l-0.5-0.2c-1-0.4-1.8-0.8-2.2-1.3s-0.6-1.1-0.6-1.8c0-0.8,0.3-1.4,0.9-1.9
		s1.4-0.8,2.5-0.9v-1.2h1.1v1.2c1.2,0.1,2.3,0.3,3.2,0.7l-0.7,1.8c-0.8-0.3-1.6-0.5-2.5-0.6v2.3c1,0.4,1.7,0.7,2.2,1
		s0.7,0.6,0.9,0.9C156.1,233.8,156.2,234.2,156.2,234.6z M150.7,230c0,0.2,0.1,0.4,0.2,0.6c0.2,0.1,0.4,0.3,0.8,0.5v-1.9
		C151,229.3,150.7,229.6,150.7,230z M153.8,234.7c0-0.2-0.1-0.4-0.3-0.6c-0.2-0.2-0.4-0.3-0.8-0.5v1.9
		C153.5,235.5,153.8,235.2,153.8,234.7z"/>
	<path class="st0" d="M162.7,230.2c0,1.2-0.2,2.1-0.7,2.7s-1.1,0.9-2,0.9s-1.5-0.3-2-0.9s-0.7-1.5-0.7-2.7c0-2.4,0.9-3.6,2.7-3.6
		c0.9,0,1.6,0.3,2,0.9C162.5,228.2,162.7,229,162.7,230.2z M159.3,230.2c0,0.7,0.1,1.2,0.2,1.5s0.3,0.5,0.6,0.5c0.5,0,0.8-0.7,0.8-2
		s-0.2-2-0.8-2c-0.3,0-0.4,0.2-0.6,0.5S159.3,229.5,159.3,230.2z M168.1,226.8l-6.3,11.4h-1.9l6.3-11.4H168.1z M170.7,234.7
		c0,1.2-0.2,2.1-0.7,2.7s-1.1,0.9-2,0.9s-1.5-0.3-2-0.9s-0.7-1.5-0.7-2.7c0-2.4,0.9-3.6,2.7-3.6c0.9,0,1.6,0.3,2,0.9
		C170.5,232.7,170.7,233.6,170.7,234.7z M167.3,234.8c0,0.7,0.1,1.2,0.2,1.5s0.3,0.5,0.6,0.5c0.5,0,0.8-0.7,0.8-2s-0.2-2-0.8-2
		c-0.3,0-0.4,0.2-0.6,0.5S167.3,234.1,167.3,234.8z"/>
	<path class="st0" d="M171.6,234.1l3.4-7.4h1.1l3.9,7.4h-1.9l-2.5-5l-2.2,5H171.6z"/>
	<path class="st0" d="M192.4,238.2h-2.9l-0.9-0.9c-1,0.7-2.1,1-3.4,1s-2.3-0.3-3-0.9s-1.1-1.4-1.1-2.4c0-0.7,0.2-1.3,0.5-1.8
		s0.9-1,1.6-1.4c-0.4-0.4-0.7-0.9-0.9-1.3c-0.2-0.4-0.3-0.9-0.3-1.3c0-0.8,0.3-1.4,0.9-1.9s1.4-0.7,2.4-0.7s1.7,0.2,2.3,0.7
		c0.6,0.5,0.9,1.1,0.9,1.8c0,0.6-0.2,1.2-0.5,1.7s-0.9,1-1.7,1.5l2.2,2.2c0.4-0.6,0.7-1.4,1-2.4h2.5c-0.2,0.7-0.4,1.4-0.8,2.1
		s-0.7,1.3-1.1,1.8L192.4,238.2z M183.5,234.9c0,0.4,0.2,0.8,0.5,1.1s0.8,0.4,1.3,0.4c0.7,0,1.2-0.2,1.8-0.5l-2.6-2.6
		c-0.3,0.2-0.5,0.5-0.7,0.7C183.6,234.3,183.5,234.6,183.5,234.9z M186.3,229.3c0-0.3-0.1-0.5-0.3-0.7s-0.4-0.2-0.7-0.2
		c-0.3,0-0.6,0.1-0.8,0.2c-0.2,0.2-0.3,0.4-0.3,0.7c0,0.5,0.2,1,0.7,1.5c0.4-0.2,0.8-0.5,1-0.7C186.2,230,186.3,229.7,186.3,229.3z"
		/>
	<path class="st0" d="M197.7,226l-0.3,2.9l2.9-0.8l0.3,2l-2.7,0.2l1.7,2.3l-1.8,0.9l-1.2-2.4l-1.1,2.4l-1.8-0.9l1.7-2.3l-2.6-0.2
		l0.3-2l2.9,0.8l-0.3-2.9H197.7z"/>
	<path class="st0" d="M201.7,233.8c0-1.4,0.2-2.7,0.6-3.9c0.4-1.2,1-2.3,1.7-3.2h2c-0.7,1-1.3,2.1-1.7,3.3s-0.6,2.4-0.6,3.7
		c0,1.3,0.2,2.5,0.6,3.7s0.9,2.3,1.6,3.2H204c-0.8-0.9-1.3-1.9-1.8-3.1C201.9,236.4,201.7,235.2,201.7,233.8z"/>
	<path class="st0" d="M211.3,233.8c0,1.4-0.2,2.6-0.6,3.8c-0.4,1.2-1,2.2-1.7,3.1h-1.9c0.7-1,1.2-2,1.6-3.2s0.6-2.4,0.6-3.7
		c0-1.3-0.2-2.5-0.6-3.7s-0.9-2.3-1.7-3.3h2c0.8,0.9,1.3,2,1.8,3.2C211.1,231.2,211.3,232.4,211.3,233.8z"/>
	<path class="st0" d="M218.5,240.7h-6.6v-1.1h6.6V240.7z"/>
	<path class="st1" d="M28.5,143.2v-12.9h4.1c0.8,0,1.5,0.1,2,0.2c0.6,0.2,1,0.4,1.4,0.7s0.6,0.6,0.8,1.1c0.2,0.4,0.3,0.9,0.3,1.4
		c0,0.3-0.1,0.6-0.1,0.9c-0.1,0.3-0.2,0.6-0.5,0.8s-0.5,0.5-0.8,0.7s-0.7,0.4-1.1,0.5c0.9,0.2,1.7,0.5,2.1,1
		c0.5,0.5,0.7,1.1,0.7,1.9c0,0.5-0.1,1-0.3,1.5s-0.5,0.8-0.9,1.2c-0.4,0.3-0.9,0.6-1.4,0.8c-0.6,0.2-1.2,0.3-1.9,0.3L28.5,143.2
		L28.5,143.2z M30.2,136.1h2.3c0.5,0,0.9-0.1,1.3-0.2c0.4-0.1,0.7-0.3,0.9-0.5c0.2-0.2,0.4-0.4,0.5-0.7s0.2-0.6,0.2-0.9
		c0-0.8-0.2-1.3-0.7-1.7s-1.2-0.5-2.1-0.5h-2.4L30.2,136.1L30.2,136.1z M30.2,137.3v4.5H33c0.5,0,0.9-0.1,1.3-0.2
		c0.4-0.1,0.7-0.3,0.9-0.5s0.4-0.5,0.5-0.7c0.1-0.3,0.2-0.6,0.2-0.9c0-0.7-0.2-1.2-0.7-1.6c-0.5-0.4-1.2-0.6-2.1-0.6H30.2z"/>
	<path class="st1" d="M43.6,133.9c0.7,0,1.3,0.1,1.8,0.3s1,0.5,1.4,0.9s0.7,0.9,0.9,1.5c0.2,0.6,0.3,1.2,0.3,1.9s-0.1,1.4-0.3,1.9
		c-0.2,0.6-0.5,1.1-0.9,1.5s-0.8,0.7-1.4,0.9c-0.5,0.2-1.1,0.3-1.8,0.3s-1.3-0.1-1.8-0.3s-1-0.5-1.4-0.9s-0.7-0.9-0.9-1.5
		c-0.2-0.6-0.3-1.2-0.3-1.9s0.1-1.4,0.3-1.9c0.2-0.6,0.5-1.1,0.9-1.5s0.8-0.7,1.4-0.9C42.3,134,42.9,133.9,43.6,133.9z M43.6,142.1
		c0.9,0,1.6-0.3,2-0.9c0.4-0.6,0.7-1.4,0.7-2.5s-0.2-1.9-0.7-2.5c-0.4-0.6-1.1-0.9-2-0.9c-0.5,0-0.9,0.1-1.2,0.2
		c-0.3,0.2-0.6,0.4-0.8,0.7c-0.2,0.3-0.4,0.7-0.5,1.1c-0.1,0.4-0.2,0.9-0.2,1.5s0.1,1,0.2,1.4s0.3,0.8,0.5,1.1s0.5,0.5,0.8,0.7
		C42.7,142,43.1,142.1,43.6,142.1z"/>
	<path class="st1" d="M51.7,129.9v13.3h-1.6v-13.3H51.7z"/>
	<path class="st1" d="M60.9,143.2c-0.2,0-0.4-0.1-0.4-0.3l-0.1-1.1c-0.4,0.5-0.8,0.9-1.3,1.1c-0.5,0.3-1.1,0.4-1.7,0.4
		c-0.5,0-1-0.1-1.4-0.3s-0.8-0.5-1.1-0.9c-0.3-0.4-0.5-0.9-0.7-1.5s-0.2-1.3-0.2-2s0.1-1.3,0.3-1.9s0.4-1.1,0.8-1.5s0.8-0.8,1.2-1
		c0.5-0.2,1-0.4,1.7-0.4c0.6,0,1,0.1,1.4,0.3s0.8,0.5,1.1,0.8v-5.1h1.6v13.4H60.9z M57.8,142c0.5,0,1-0.1,1.4-0.4
		c0.4-0.2,0.8-0.6,1.1-1v-4.4c-0.3-0.4-0.6-0.7-1-0.8c-0.4-0.2-0.7-0.2-1.2-0.2c-0.9,0-1.5,0.3-2,0.9c-0.5,0.6-0.7,1.5-0.7,2.6
		c0,0.6,0.1,1.1,0.2,1.5s0.3,0.8,0.5,1c0.2,0.3,0.4,0.5,0.7,0.6C57.1,142,57.4,142,57.8,142z"/>
</g>
</svg>
