<?xml version="1.0" encoding="utf-8"?>
<!-- Generator: Adobe Illustrator 19.2.1, SVG Export Plug-In . SVG Version: 6.00 Build 0)  -->
<svg version="1.1" id="Layer_1" xmlns="http://www.w3.org/2000/svg" xmlns:xlink="http://www.w3.org/1999/xlink" x="0px" y="0px"
	 viewBox="0 0 400 320" style="enable-background:new 0 0 400 320;" xml:space="preserve">
<style type="text/css">
	.st0{fill:#48525B;}
	.st1{fill:#FF6E6E;}
	.st2{display:none;}
	.st3{display:inline;}
	.st4{fill:#979797;}
</style>
<g>
	<path class="st0" d="M31.5,65.2h-0.8V54.5H27v-0.8h8.2v0.8h-3.7V65.2z"/>
	<path class="st0" d="M42.6,65.2v-5.5c0-0.9-0.2-1.5-0.5-1.9s-0.9-0.6-1.7-0.6c-1,0-1.8,0.3-2.2,0.8c-0.5,0.5-0.7,1.3-0.7,2.5v4.7
		h-0.8V53h0.8v3.9V58h0.1c0.3-0.5,0.7-0.9,1.2-1.1s1.1-0.3,1.8-0.3c1.9,0,2.9,1,2.9,3.1v5.6h-0.9V65.2z"/>
	<path class="st0" d="M49.6,65.4c-1.2,0-2.2-0.4-2.9-1.1c-0.7-0.8-1-1.8-1-3.2s0.3-2.4,1-3.3c0.7-0.8,1.6-1.2,2.7-1.2
		c1,0,1.8,0.3,2.4,1s0.9,1.6,0.9,2.8V61h-6.1c0,1.2,0.3,2.1,0.8,2.7c0.5,0.6,1.3,0.9,2.3,0.9c0.5,0,0.9,0,1.3-0.1s0.8-0.2,1.4-0.4
		v0.7c-0.5,0.2-0.9,0.4-1.3,0.4S50.1,65.4,49.6,65.4z M49.3,57.2c-0.8,0-1.5,0.3-2,0.8s-0.8,1.3-0.9,2.3h5.2c0-1-0.2-1.8-0.6-2.3
		C50.7,57.5,50.1,57.2,49.3,57.2z"/>
	<path class="st0" d="M62.1,65.4c-1.1,0-2-0.4-2.6-1.1c-0.6-0.7-0.9-1.8-0.9-3.2s0.3-2.5,0.9-3.3c0.6-0.8,1.5-1.2,2.6-1.2
		c1.2,0,2.1,0.5,2.8,1.4l0,0l0.1-1.2h0.7v12.3h-0.8v-3.2c0-0.6,0-1.3,0-1.9l0,0C64.4,64.9,63.4,65.4,62.1,65.4z M62.1,64.7
		c1,0,1.8-0.3,2.2-0.9c0.4-0.6,0.7-1.5,0.7-2.9v-0.1c0-1.3-0.2-2.2-0.7-2.8c-0.4-0.6-1.1-0.9-2.1-0.9c-0.9,0-1.6,0.3-2.1,1
		s-0.7,1.6-0.7,2.8s0.2,2.1,0.7,2.7C60.6,64.4,61.2,64.7,62.1,64.7z"/>
	<path class="st0" d="M69.3,56.7v5.5c0,0.9,0.2,1.5,0.5,1.9s0.9,0.6,1.7,0.6c1,0,1.8-0.3,2.2-0.8s0.7-1.3,0.7-2.5v-4.7h0.8v8.5h-0.7
		L74.4,64l0,0c-0.6,0.9-1.5,1.3-2.9,1.3c-1.9,0-2.9-1-2.9-3.1v-5.5H69.3z"/>
	<path class="st0" d="M77.9,54.3c0-0.5,0.2-0.8,0.5-0.8c0.2,0,0.3,0.1,0.4,0.2c0.1,0.1,0.1,0.3,0.1,0.6c0,0.2,0,0.4-0.1,0.6
		c-0.1,0.1-0.2,0.2-0.4,0.2C78.1,55.1,77.9,54.9,77.9,54.3z M78.8,65.2H78v-8.5h0.8V65.2z"/>
	<path class="st0" d="M85,65.4c-1.2,0-2.2-0.4-2.9-1.1s-1-1.8-1-3.2s0.4-2.5,1.1-3.3c0.7-0.8,1.7-1.2,2.9-1.2c0.7,0,1.4,0.1,2.1,0.4
		L87,57.7c-0.7-0.2-1.4-0.4-1.9-0.4c-1,0-1.8,0.3-2.4,1c-0.5,0.6-0.8,1.6-0.8,2.8c0,1.1,0.3,2,0.8,2.7c0.5,0.6,1.3,1,2.2,1
		c0.8,0,1.5-0.1,2.1-0.4v0.7C86.6,65.2,85.9,65.4,85,65.4z"/>
	<path class="st0" d="M90,61.5l4.3-4.8h0.9l-3.3,3.6l3.6,4.9h-0.9l-3.2-4.3L90,62.2v3h-0.8V53H90v6.1L90,61.5L90,61.5z"/>
	<path class="st0" d="M104.7,56.5c1.2,0,2.1,0.4,2.7,1.1s0.9,1.8,0.9,3.3c0,1.4-0.3,2.5-0.9,3.3s-1.5,1.1-2.7,1.1
		c-0.6,0-1.1-0.1-1.6-0.4s-0.9-0.6-1.1-1.1h-0.1l-0.2,1.3h-0.5V52.9h0.8V56c0,0.5,0,0.9,0,1.3V58h0.1c0.3-0.5,0.7-0.9,1.2-1.1
		C103.6,56.7,104.1,56.5,104.7,56.5z M104.7,57.2c-1,0-1.7,0.3-2.1,0.9c-0.4,0.6-0.6,1.5-0.6,2.8V61c0,1.3,0.2,2.2,0.7,2.8
		s1.2,0.8,2.1,0.8c0.9,0,1.6-0.3,2.1-1s0.7-1.6,0.7-2.8C107.5,58.5,106.6,57.2,104.7,57.2z"/>
	<path class="st0" d="M114,56.5c0.4,0,0.7,0,1.2,0.1l-0.1,0.7c-0.4-0.1-0.7-0.1-1.1-0.1c-0.7,0-1.3,0.3-1.8,0.9
		c-0.5,0.6-0.7,1.4-0.7,2.3v4.7h-0.8v-8.5h0.7l0.1,1.5h0.1c0.3-0.6,0.7-1.1,1.1-1.3C113,56.7,113.5,56.5,114,56.5z"/>
	<path class="st0" d="M123.9,60.9c0,1.4-0.3,2.5-1,3.2s-1.6,1.2-2.8,1.2c-0.7,0-1.4-0.2-2-0.5c-0.6-0.4-1-0.9-1.3-1.5
		c-0.3-0.7-0.5-1.4-0.5-2.3c0-1.4,0.3-2.5,1-3.2s1.6-1.2,2.8-1.2s2.1,0.4,2.7,1.2S123.9,59.6,123.9,60.9z M117.2,60.9
		c0,1.2,0.3,2.1,0.8,2.7c0.5,0.7,1.2,1,2.2,1s1.7-0.3,2.2-1s0.8-1.6,0.8-2.7c0-1.2-0.3-2.1-0.8-2.7c-0.5-0.6-1.2-1-2.2-1
		s-1.7,0.3-2.2,1S117.2,59.8,117.2,60.9z"/>
	<path class="st0" d="M133.1,65.2l-1.9-5.7c-0.1-0.4-0.3-1-0.5-1.7l0,0l-0.2,0.6l-0.4,1.1l-1.9,5.7h-0.8l-2.4-8.5h0.8l1.4,4.9
		c0.3,1.2,0.5,2.1,0.6,2.7l0,0c0.3-1.2,0.5-2,0.7-2.4l1.8-5.2h0.7l1.7,5.2c0.4,1.2,0.6,2,0.7,2.4l0,0c0-0.3,0.2-1.2,0.6-2.7l1.3-4.9
		h0.8l-2.2,8.5H133.1z"/>
	<path class="st0" d="M143.8,65.2v-5.5c0-0.9-0.2-1.5-0.5-1.9s-0.9-0.6-1.7-0.6c-1,0-1.8,0.3-2.2,0.8c-0.5,0.5-0.7,1.3-0.7,2.5v4.7
		h-0.8v-8.5h0.7l0.1,1.2l0,0c0.6-0.9,1.5-1.3,2.9-1.3c1.9,0,2.9,1,2.9,3.1v5.6h-0.7V65.2z"/>
	<path class="st0" d="M154.6,57.4h-2v7.8h-0.8v-7.8h-1.6v-0.5l1.6-0.3v-0.7c0-1,0.2-1.8,0.6-2.3s1-0.7,1.9-0.7
		c0.5,0,0.9,0.1,1.4,0.2l-0.2,0.7c-0.4-0.1-0.8-0.2-1.2-0.2c-0.6,0-1,0.2-1.3,0.5c-0.3,0.4-0.4,0.9-0.4,1.7v0.8h2V57.4z"/>
	<path class="st0" d="M163.3,60.9c0,1.4-0.3,2.5-1,3.2s-1.6,1.2-2.8,1.2c-0.7,0-1.4-0.2-2-0.5c-0.6-0.4-1-0.9-1.3-1.5
		c-0.3-0.7-0.5-1.4-0.5-2.3c0-1.4,0.3-2.5,1-3.2s1.6-1.2,2.8-1.2s2.1,0.4,2.7,1.2S163.3,59.6,163.3,60.9z M156.6,60.9
		c0,1.2,0.3,2.1,0.8,2.7c0.5,0.7,1.2,1,2.2,1s1.7-0.3,2.2-1s0.8-1.6,0.8-2.7c0-1.2-0.3-2.1-0.8-2.7c-0.5-0.6-1.2-1-2.2-1
		s-1.7,0.3-2.2,1S156.6,59.8,156.6,60.9z"/>
	<path class="st0" d="M167.7,60.8l-3-4.1h0.9l2.5,3.6l2.5-3.6h0.9l-2.9,4.1l3.1,4.4h-0.9l-2.7-3.8l-2.7,3.8h-0.9L167.7,60.8z"/>
	<path class="st0" d="M176.6,69c-0.4,0-0.8-0.1-1.1-0.2v-0.6c0.4,0.1,0.7,0.2,1,0.2c0.8,0,1.2-0.5,1.2-1.4V56.8h0.8v10.1
		c0,0.7-0.2,1.2-0.5,1.6C177.7,68.9,177.2,69,176.6,69z M177.6,54.3c0-0.5,0.2-0.8,0.5-0.8c0.2,0,0.3,0.1,0.4,0.2
		c0.1,0.1,0.1,0.3,0.1,0.6c0,0.2,0,0.4-0.1,0.6c-0.1,0.1-0.2,0.2-0.4,0.2C177.8,55.1,177.6,54.9,177.6,54.3z"/>
	<path class="st0" d="M182,56.7v5.5c0,0.9,0.2,1.5,0.5,1.9s0.9,0.6,1.7,0.6c1,0,1.8-0.3,2.2-0.8s0.7-1.3,0.7-2.5v-4.7h0.8v8.5h-0.7
		l-0.1-1.2l0,0c-0.6,0.9-1.5,1.3-2.9,1.3c-1.9,0-2.9-1-2.9-3.1v-5.5H182z"/>
	<path class="st0" d="M201.4,65.2v-5.6c0-0.8-0.2-1.4-0.5-1.8c-0.3-0.4-0.8-0.6-1.5-0.6c-0.9,0-1.5,0.2-1.9,0.7s-0.6,1.2-0.6,2.3v5
		h-0.8v-5.8c0-1.4-0.7-2.1-2-2.1c-0.9,0-1.5,0.3-1.9,0.8s-0.6,1.3-0.6,2.5v4.7h-0.8v-8.5h0.6l0.2,1.2l0,0c0.2-0.4,0.6-0.7,1-1
		c0.4-0.2,0.9-0.3,1.4-0.3c1.3,0,2.2,0.5,2.6,1.5l0,0c0.3-0.5,0.6-0.9,1.1-1.1c0.5-0.3,1-0.4,1.6-0.4c0.9,0,1.6,0.2,2.1,0.7
		s0.7,1.3,0.7,2.4v5.6h-0.7V65.2z"/>
	<path class="st0" d="M208.6,65.4c-1.3,0-2.3-0.5-2.9-1.5h-0.1v0.7c0,0.4,0,0.8,0,1.3v3.2h-0.7V56.8h0.7l0.1,1.2l0,0
		c0.6-0.9,1.5-1.4,2.8-1.4c1.1,0,2,0.4,2.6,1.1s0.9,1.8,0.9,3.3c0,1.4-0.3,2.5-0.9,3.2S209.7,65.4,208.6,65.4z M208.5,64.7
		c0.9,0,1.5-0.3,2-1s0.7-1.5,0.7-2.7c0-2.5-0.9-3.7-2.7-3.7c-1,0-1.7,0.3-2.2,0.8s-0.7,1.4-0.7,2.7V61c0,1.3,0.2,2.3,0.7,2.8
		S207.5,64.7,208.5,64.7z"/>
	<path class="st0" d="M219.7,63c0,0.8-0.3,1.3-0.9,1.8s-1.4,0.6-2.5,0.6s-2-0.2-2.7-0.5v-0.8c0.9,0.4,1.8,0.6,2.7,0.6
		c0.8,0,1.5-0.1,1.9-0.4c0.4-0.3,0.7-0.6,0.7-1.1c0-0.4-0.2-0.8-0.5-1.1s-0.9-0.6-1.7-0.9c-0.8-0.3-1.4-0.6-1.8-0.8
		s-0.6-0.5-0.8-0.8s-0.3-0.6-0.3-1c0-0.6,0.3-1.1,0.8-1.5s1.3-0.6,2.2-0.6s1.8,0.2,2.6,0.5l-0.3,0.7c-0.8-0.3-1.6-0.5-2.3-0.5
		s-1.2,0.1-1.6,0.3s-0.6,0.5-0.6,1c0,0.4,0.2,0.8,0.5,1.1s0.9,0.6,1.8,0.9c0.8,0.3,1.3,0.5,1.7,0.7c0.3,0.2,0.6,0.5,0.8,0.8
		C219.6,62.3,219.7,62.6,219.7,63z"/>
	<path class="st0" d="M233.1,60.9c0,1.4-0.3,2.5-1,3.2s-1.6,1.2-2.8,1.2c-0.7,0-1.4-0.2-2-0.5c-0.6-0.4-1-0.9-1.3-1.5
		c-0.3-0.7-0.5-1.4-0.5-2.3c0-1.4,0.3-2.5,1-3.2s1.6-1.2,2.8-1.2s2.1,0.4,2.7,1.2S233.1,59.6,233.1,60.9z M226.4,60.9
		c0,1.2,0.3,2.1,0.8,2.7c0.5,0.7,1.2,1,2.2,1s1.7-0.3,2.2-1s0.8-1.6,0.8-2.7c0-1.2-0.3-2.1-0.8-2.7c-0.5-0.6-1.2-1-2.2-1
		s-1.7,0.3-2.2,1S226.4,59.8,226.4,60.9z"/>
	<path class="st0" d="M237.3,65.2l-3.3-8.5h0.8l2.2,5.8c0.3,0.7,0.5,1.4,0.7,1.9l0,0c0.2-0.7,0.4-1.4,0.7-2l2.2-5.8h0.8l-3.3,8.5
		h-0.8V65.2z"/>
	<path class="st0" d="M246.2,65.4c-1.2,0-2.2-0.4-2.9-1.1c-0.7-0.8-1-1.8-1-3.2s0.3-2.4,1-3.3c0.7-0.8,1.6-1.2,2.7-1.2
		c1,0,1.8,0.3,2.4,1s0.9,1.6,0.9,2.8V61h-6.1c0,1.2,0.3,2.1,0.8,2.7c0.5,0.6,1.3,0.9,2.3,0.9c0.5,0,0.9,0,1.3-0.1s0.8-0.2,1.4-0.4
		v0.7c-0.5,0.2-0.9,0.4-1.3,0.4S246.7,65.4,246.2,65.4z M246,57.2c-0.8,0-1.5,0.3-2,0.8s-0.8,1.3-0.9,2.3h5.2c0-1-0.2-1.8-0.6-2.3
		S246.7,57.2,246,57.2z"/>
	<path class="st0" d="M254.9,56.5c0.4,0,0.7,0,1.2,0.1l-0.1,0.7c-0.4-0.1-0.7-0.1-1.1-0.1c-0.7,0-1.3,0.3-1.8,0.9
		c-0.5,0.6-0.7,1.4-0.7,2.3v4.7h-0.8v-8.5h0.7l0.1,1.5h0.1c0.3-0.6,0.7-1.1,1.1-1.3C253.9,56.7,254.3,56.5,254.9,56.5z"/>
	<path class="st0" d="M264.2,64.7c0.5,0,0.9,0,1.3-0.1v0.6c-0.4,0.1-0.8,0.2-1.3,0.2c-0.8,0-1.3-0.2-1.7-0.6c-0.4-0.4-0.5-1-0.5-1.9
		v-5.5h-1.3v-0.5l1.3-0.4l0.4-1.9h0.4v2.1h2.5v0.7h-2.5v5.4c0,0.7,0.1,1.1,0.3,1.4C263.3,64.5,263.7,64.7,264.2,64.7z"/>
	<path class="st0" d="M273.2,65.2v-5.5c0-0.9-0.2-1.5-0.5-1.9s-0.9-0.6-1.7-0.6c-1,0-1.8,0.3-2.2,0.8c-0.5,0.5-0.7,1.3-0.7,2.5v4.7
		h-0.8V53h0.8v3.9V58h0.1c0.3-0.5,0.7-0.9,1.2-1.1s1.1-0.3,1.8-0.3c1.9,0,2.9,1,2.9,3.1v5.6h-0.9V65.2z"/>
	<path class="st0" d="M280.2,65.4c-1.2,0-2.2-0.4-2.9-1.1c-0.7-0.8-1-1.8-1-3.2s0.3-2.4,1-3.3c0.7-0.8,1.6-1.2,2.7-1.2
		c1,0,1.8,0.3,2.4,1s0.9,1.6,0.9,2.8V61h-6.1c0,1.2,0.3,2.1,0.8,2.7c0.5,0.6,1.3,0.9,2.3,0.9c0.5,0,0.9,0,1.3-0.1s0.8-0.2,1.4-0.4
		v0.7c-0.5,0.2-0.9,0.4-1.3,0.4S280.7,65.4,280.2,65.4z M279.9,57.2c-0.8,0-1.5,0.3-2,0.8s-0.8,1.3-0.9,2.3h5.2c0-1-0.2-1.8-0.6-2.3
		C281.3,57.5,280.7,57.2,279.9,57.2z"/>
	<path class="st0" d="M290.4,65.2h-0.8V53h0.8V65.2z"/>
	<path class="st0" d="M298.4,65.2l-0.2-1.3h-0.1c-0.4,0.5-0.9,0.9-1.3,1.2c-0.5,0.2-1,0.3-1.6,0.3c-0.8,0-1.5-0.2-1.9-0.6
		c-0.5-0.4-0.7-1-0.7-1.8s0.3-1.5,1-1.9c0.7-0.5,1.7-0.7,3-0.7h1.6v-0.6c0-0.8-0.2-1.4-0.5-1.8s-0.9-0.6-1.6-0.6
		c-0.8,0-1.6,0.2-2.4,0.7l-0.3-0.7c0.9-0.4,1.9-0.7,2.8-0.7c0.9,0,1.6,0.2,2.1,0.7s0.7,1.2,0.7,2.3v5.6L298.4,65.2L298.4,65.2z
		 M295.3,64.7c0.9,0,1.6-0.3,2.1-0.8s0.8-1.2,0.8-2.2v-0.8l-1.5,0.1c-1.2,0.1-2,0.2-2.6,0.6s-0.8,0.8-0.8,1.5c0,0.5,0.2,0.9,0.5,1.2
		C294.3,64.5,294.7,64.7,295.3,64.7z"/>
	<path class="st0" d="M307,65.2h-6.1v-0.5l5-7.3h-4.7v-0.7h5.7v0.5l-5.1,7.3h5.1L307,65.2L307,65.2z"/>
	<path class="st0" d="M307.7,56.7h0.8l1.8,4.8c0.5,1.5,0.9,2.5,1,3l0,0c0.2-0.7,0.6-1.7,1.1-3l1.8-4.7h0.8l-3.8,9.9
		c-0.3,0.8-0.6,1.3-0.8,1.6s-0.5,0.5-0.7,0.6c-0.3,0.1-0.6,0.2-1,0.2c-0.3,0-0.6-0.1-1-0.2v-0.7c0.3,0.1,0.6,0.1,1,0.1
		c0.3,0,0.5-0.1,0.7-0.2s0.4-0.3,0.6-0.6s0.4-0.7,0.6-1.2c0.2-0.6,0.4-0.9,0.4-1.1L307.7,56.7z"/>
	<path class="st0" d="M323.8,56.5c0.6,0,1.1,0.1,1.6,0.3c0.4,0.2,0.8,0.6,1.2,1.1l0,0c0-0.7,0-1.3,0-1.9v-3.1h0.8v12.3h-0.5
		l-0.2-1.3h-0.1c-0.6,1-1.6,1.5-2.8,1.5s-2.1-0.4-2.7-1.1c-0.6-0.7-0.9-1.8-0.9-3.2c0-1.5,0.3-2.6,0.9-3.4
		C321.7,56.9,322.6,56.5,323.8,56.5z M323.8,57.2c-0.9,0-1.6,0.3-2.1,1S321,59.8,321,61c0,2.4,0.9,3.6,2.8,3.6c1,0,1.7-0.3,2.1-0.8
		c0.4-0.6,0.7-1.5,0.7-2.8v-0.1c0-1.3-0.2-2.3-0.7-2.8C325.4,57.5,324.7,57.2,323.8,57.2z"/>
	<path class="st0" d="M337.2,60.9c0,1.4-0.3,2.5-1,3.2s-1.6,1.2-2.8,1.2c-0.7,0-1.4-0.2-2-0.5c-0.6-0.4-1-0.9-1.3-1.5
		c-0.3-0.7-0.5-1.4-0.5-2.3c0-1.4,0.3-2.5,1-3.2s1.6-1.2,2.8-1.2s2.1,0.4,2.7,1.2S337.2,59.6,337.2,60.9z M330.5,60.9
		c0,1.2,0.3,2.1,0.8,2.7c0.5,0.7,1.2,1,2.2,1s1.7-0.3,2.2-1s0.8-1.6,0.8-2.7c0-1.2-0.3-2.1-0.8-2.7c-0.5-0.6-1.2-1-2.2-1
		s-1.7,0.3-2.2,1S330.5,59.8,330.5,60.9z"/>
	<path class="st0" d="M346.2,56.7v0.5l-1.8,0.1c0.5,0.6,0.7,1.2,0.7,1.9c0,0.8-0.3,1.5-0.8,2S343,62,342.1,62c-0.4,0-0.7,0-0.8,0
		c-0.3,0.2-0.5,0.4-0.7,0.6c-0.2,0.2-0.2,0.5-0.2,0.7c0,0.3,0.1,0.5,0.3,0.6s0.6,0.2,1,0.2h1.5c0.9,0,1.6,0.2,2.1,0.6
		c0.5,0.4,0.7,0.9,0.7,1.7c0,0.9-0.4,1.6-1.1,2.1s-1.8,0.7-3.1,0.7c-1.1,0-1.9-0.2-2.5-0.6s-0.9-1-0.9-1.7c0-0.6,0.2-1.1,0.5-1.5
		c0.4-0.4,0.9-0.6,1.5-0.8c-0.3-0.1-0.5-0.3-0.6-0.5c-0.2-0.2-0.2-0.4-0.2-0.7c0-0.6,0.4-1.1,1.1-1.5c-0.5-0.2-0.9-0.5-1.2-1
		c-0.3-0.4-0.4-0.9-0.4-1.5c0-0.8,0.3-1.5,0.8-2s1.3-0.8,2.2-0.8c0.6,0,1,0.1,1.3,0.2h2.8V56.7z M339.3,66.6c0,1.2,0.9,1.8,2.6,1.8
		c2.2,0,3.3-0.7,3.3-2.1c0-0.5-0.2-0.9-0.5-1.1c-0.3-0.2-0.9-0.3-1.7-0.3h-1.4C340.1,64.8,339.3,65.4,339.3,66.6z M339.9,59.4
		c0,0.7,0.2,1.2,0.6,1.5s0.9,0.5,1.6,0.5c0.7,0,1.3-0.2,1.6-0.5c0.4-0.4,0.6-0.9,0.6-1.6c0-0.7-0.2-1.3-0.6-1.6
		c-0.4-0.4-0.9-0.5-1.6-0.5c-0.7,0-1.2,0.2-1.6,0.6C340.1,58.1,339.9,58.7,339.9,59.4z"/>
	<path class="st0" d="M347.8,64.6c0-0.5,0.2-0.8,0.6-0.8c0.4,0,0.6,0.3,0.6,0.8s-0.2,0.8-0.6,0.8C348,65.4,347.8,65.1,347.8,64.6z"
		/>
	<path class="st0" d="M32.2,87.2h-0.8v-8.3c0-0.8,0-1.5,0.1-2.4c-0.1,0.1-0.2,0.2-0.2,0.2c-0.1,0.1-0.9,0.7-2.4,1.9L28.5,78l3.1-2.3
		h0.7L32.2,87.2L32.2,87.2z"/>
	<path class="st0" d="M44.1,87.2h-7.2v-0.7l3-3.2c0.9-0.9,1.5-1.6,1.8-2s0.6-0.9,0.8-1.3c0.2-0.4,0.2-0.9,0.2-1.3
		c0-0.7-0.2-1.2-0.7-1.7c-0.4-0.4-1-0.6-1.7-0.6c-1,0-1.9,0.3-2.7,1l-0.4-0.5c1-0.8,2-1.2,3.2-1.2c1,0,1.8,0.3,2.3,0.8
		s0.9,1.3,0.9,2.2c0,0.8-0.2,1.5-0.6,2.2s-1.1,1.6-2.1,2.6l-2.9,3l0,0h6.1L44.1,87.2L44.1,87.2z"/>
	<path class="st0" d="M52.8,78.5c0,0.7-0.2,1.3-0.7,1.8s-1,0.8-1.8,0.9l0,0c0.9,0.1,1.6,0.4,2.1,0.9s0.7,1.1,0.7,1.9
		c0,1.1-0.4,1.9-1.1,2.5s-1.8,0.9-3.1,0.9c-1.2,0-2.2-0.2-3-0.6V86c0.4,0.2,0.9,0.4,1.5,0.5c0.5,0.1,1.1,0.2,1.5,0.2
		c1.2,0,2-0.2,2.6-0.7s0.9-1.1,0.9-2c0-0.8-0.3-1.3-0.9-1.7c-0.6-0.4-1.5-0.6-2.6-0.6h-1.2v-0.8h1.2c0.9,0,1.7-0.2,2.3-0.7
		s0.8-1.1,0.8-1.8c0-0.6-0.2-1.1-0.7-1.5s-1-0.6-1.8-0.6c-0.6,0-1.1,0.1-1.6,0.2s-1,0.4-1.6,0.8l-0.4-0.5c0.4-0.4,1-0.7,1.6-0.9
		s1.3-0.3,1.9-0.3c1.1,0,1.9,0.2,2.4,0.7C52.5,76.9,52.8,77.6,52.8,78.5z"/>
	<path class="st0" d="M63.2,84.3h-2v2.9h-0.7v-2.9h-5.9v-0.5l5.7-8h0.9v7.9h2V84.3z M60.5,83.6v-3.3c0-1.6,0-2.9,0.1-4h-0.1
		c-0.1,0.2-0.4,0.7-1,1.5l-4,5.8H60.5z"/>
	<path class="st0" d="M67.6,80.3c1.2,0,2.2,0.3,2.9,0.9c0.7,0.6,1.1,1.4,1.1,2.4c0,1.2-0.4,2.1-1.1,2.7c-0.7,0.7-1.7,1-3,1
		c-0.6,0-1.1-0.1-1.6-0.2c-0.5-0.1-0.9-0.3-1.3-0.5v-0.8c0.6,0.3,1.1,0.5,1.5,0.6s0.9,0.2,1.4,0.2c1,0,1.8-0.3,2.4-0.8
		c0.6-0.5,0.9-1.2,0.9-2.1c0-0.8-0.3-1.5-0.9-2c-0.6-0.5-1.4-0.7-2.4-0.7c-0.7,0-1.4,0.1-2.1,0.3L64.9,81l0.5-5.2h5.5v0.8h-4.8
		l-0.4,4C66.5,80.4,67.2,80.3,67.6,80.3z"/>
	<path class="st0" d="M73.6,82.3c0-1.5,0.2-2.7,0.6-3.7c0.4-1,1-1.8,1.7-2.3s1.6-0.7,2.7-0.7c0.5,0,0.9,0.1,1.3,0.2v0.7
		c-0.4-0.1-0.8-0.2-1.4-0.2c-1.3,0-2.3,0.5-3,1.4s-1.1,2.3-1.2,4h0.1c0.4-0.5,0.8-0.9,1.4-1.2c0.5-0.3,1-0.4,1.6-0.4
		c1.1,0,1.9,0.3,2.5,0.9s0.9,1.5,0.9,2.5c0,1.2-0.3,2.1-0.9,2.8s-1.5,1-2.6,1c-1.2,0-2.1-0.4-2.7-1.3C73.9,85.1,73.6,83.9,73.6,82.3
		z M77.3,86.7c0.9,0,1.5-0.3,2-0.8s0.7-1.3,0.7-2.3c0-0.9-0.2-1.6-0.7-2s-1.1-0.7-1.9-0.7c-0.5,0-1,0.1-1.5,0.4
		c-0.5,0.2-0.8,0.5-1.1,0.9s-0.4,0.8-0.4,1.2c0,0.6,0.1,1.1,0.4,1.7s0.6,1,1,1.3C76.3,86.5,76.8,86.7,77.3,86.7z"/>
	<path class="st0" d="M84.3,87.2L89,76.5h-6.5v-0.8h7.4v0.6l-4.7,10.9H84.3z"/>
	<path class="st0" d="M95.4,75.6c1,0,1.7,0.2,2.3,0.7s0.9,1.2,0.9,2c0,0.6-0.2,1.1-0.6,1.5s-1,0.9-1.8,1.2c1,0.4,1.7,0.9,2.1,1.4
		s0.6,1.1,0.6,1.8c0,0.9-0.3,1.7-1,2.3s-1.5,0.8-2.7,0.8s-2-0.3-2.6-0.8s-0.9-1.3-0.9-2.3c0-0.7,0.2-1.3,0.6-1.8
		c0.4-0.5,1.1-1,2-1.3c-0.8-0.4-1.4-0.8-1.8-1.3s-0.5-1-0.5-1.6c0-0.5,0.1-1,0.4-1.4c0.3-0.4,0.7-0.7,1.2-1
		C94.2,75.7,94.8,75.6,95.4,75.6z M92.6,84.4c0,0.7,0.2,1.3,0.7,1.7s1.2,0.6,2,0.6c0.9,0,1.5-0.2,2.1-0.6c0.5-0.4,0.8-1,0.8-1.7
		c0-0.6-0.2-1.2-0.6-1.6c-0.4-0.4-1.2-0.8-2.4-1.3c-1,0.4-1.6,0.8-2,1.2C92.8,83.1,92.6,83.7,92.6,84.4z M95.4,76.3
		c-0.7,0-1.3,0.2-1.8,0.5s-0.7,0.9-0.7,1.5c0,0.4,0.1,0.7,0.2,1s0.4,0.5,0.7,0.8c0.3,0.2,0.8,0.5,1.6,0.8c0.8-0.3,1.5-0.7,1.8-1.1
		c0.4-0.4,0.6-0.9,0.6-1.4c0-0.6-0.2-1.1-0.7-1.5C96.7,76.5,96.1,76.3,95.4,76.3z"/>
	<path class="st0" d="M108.1,80.6c0,1.5-0.2,2.8-0.6,3.8c-0.4,1-1,1.8-1.7,2.2c-0.8,0.5-1.7,0.7-2.7,0.7c-0.5,0-1-0.1-1.5-0.2v-0.7
		c0.2,0.1,0.5,0.1,0.8,0.2c0.3,0,0.6,0.1,0.7,0.1c1.3,0,2.3-0.5,3-1.4s1.1-2.3,1.2-4.1h-0.1c-0.4,0.5-0.8,0.9-1.4,1.2
		c-0.5,0.3-1.1,0.4-1.6,0.4c-1.1,0-1.9-0.3-2.5-0.9c-0.6-0.6-0.9-1.4-0.9-2.5s0.3-2.1,1-2.8s1.5-1.1,2.5-1.1c0.8,0,1.4,0.2,2,0.6
		s1,1,1.3,1.7S108.1,79.6,108.1,80.6z M104.3,76.3c-0.8,0-1.5,0.3-2,0.8c-0.5,0.6-0.7,1.3-0.7,2.3c0,0.9,0.2,1.6,0.7,2.1
		s1.1,0.7,1.9,0.7c0.5,0,1-0.1,1.5-0.4c0.5-0.2,0.8-0.5,1.1-0.9s0.4-0.8,0.4-1.2c0-0.6-0.1-1.2-0.4-1.7s-0.6-0.9-1-1.2
		C105.4,76.4,104.9,76.3,104.3,76.3z"/>
	<path class="st0" d="M117.3,81.5c0,2-0.3,3.5-0.9,4.5c-0.6,1-1.5,1.4-2.8,1.4c-1.2,0-2.1-0.5-2.7-1.5c-0.6-1-0.9-2.5-0.9-4.4
		c0-2,0.3-3.5,0.9-4.4s1.5-1.4,2.7-1.4s2.1,0.5,2.8,1.5C117,78.1,117.3,79.5,117.3,81.5z M110.8,81.5c0,1.8,0.2,3.1,0.7,3.9
		c0.5,0.8,1.2,1.3,2.1,1.3c1,0,1.7-0.4,2.2-1.3c0.5-0.9,0.7-2.2,0.7-3.9s-0.2-3-0.7-3.8c-0.5-0.9-1.2-1.3-2.2-1.3s-1.7,0.4-2.1,1.3
		C111.1,78.5,110.8,79.8,110.8,81.5z"/>
	<path class="st0" d="M119.5,86.6c0-0.5,0.2-0.8,0.6-0.8c0.4,0,0.6,0.3,0.6,0.8s-0.2,0.8-0.6,0.8S119.5,87.1,119.5,86.6z
		 M120.4,84.3h-0.5l-0.2-8.5h0.9L120.4,84.3z"/>
	<path class="st0" d="M135.4,81.5c0,1.2-0.2,2.1-0.7,2.9c-0.5,0.7-1.1,1.1-1.9,1.1c-0.5,0-0.8-0.1-1.1-0.4s-0.5-0.7-0.5-1.1l0,0
		c-0.2,0.5-0.5,0.9-1,1.2s-0.9,0.4-1.5,0.4c-0.8,0-1.4-0.3-1.8-0.8s-0.6-1.2-0.6-2.1c0-1.1,0.3-1.9,0.9-2.6c0.6-0.7,1.4-1,2.5-1
		c0.7,0,1.5,0.1,2.2,0.3l-0.2,3.6v0.2c0,0.5,0.1,0.9,0.3,1.2s0.5,0.4,0.9,0.4c0.5,0,1-0.3,1.3-0.9c0.3-0.6,0.5-1.4,0.5-2.4
		s-0.2-1.9-0.6-2.7c-0.4-0.8-1-1.3-1.8-1.8c-0.8-0.4-1.6-0.6-2.6-0.6c-1.2,0-2.3,0.3-3.2,0.8s-1.6,1.3-2.1,2.2s-0.7,2-0.7,3.3
		c0,1.7,0.4,3,1.3,3.9c0.9,0.9,2.1,1.4,3.7,1.4c0.5,0,1,0,1.5-0.1s1.1-0.3,1.8-0.5v0.8c-1.1,0.4-2.1,0.6-3.2,0.6
		c-1.8,0-3.2-0.5-4.2-1.6s-1.5-2.5-1.5-4.4c0-1.3,0.3-2.5,0.8-3.6c0.6-1.1,1.4-1.9,2.4-2.5s2.2-0.9,3.5-0.9c1.1,0,2.1,0.2,3,0.7
		s1.5,1.1,2,2C135.1,79.4,135.4,80.4,135.4,81.5z M127,82.6c0,0.7,0.1,1.3,0.4,1.7c0.3,0.4,0.7,0.6,1.4,0.6c1.3,0,2-0.9,2.1-2.7
		l0.1-2.3c-0.4-0.1-0.9-0.2-1.5-0.2c-0.8,0-1.4,0.3-1.9,0.8C127.2,81,127,81.7,127,82.6z"/>
	<path class="st0" d="M143.8,79.9l-0.6,3.1h2.4v0.6h-2.5l-0.7,3.5h-0.7l0.7-3.5h-2.8l-0.7,3.6h-0.7l0.7-3.5h-2.2v-0.6h2.3l0.6-3.1
		h-2.3v-0.6h2.4l0.7-3.5h0.7l-0.7,3.5h2.9l0.7-3.5h0.7l-0.7,3.5h2.2V80L143.8,79.9L143.8,79.9z M139.7,83.1h2.8l0.6-3.1h-2.8
		L139.7,83.1z"/>
	<path class="st0" d="M154.3,83.8c0,0.7-0.3,1.3-0.8,1.7s-1.2,0.7-2.1,0.8v1.8h-0.6v-1.8c-0.5,0-1-0.1-1.6-0.2
		c-0.6-0.1-1-0.2-1.3-0.4v-0.8c0.4,0.2,0.9,0.3,1.4,0.5c0.5,0.1,1,0.2,1.5,0.2v-4c-0.8-0.2-1.3-0.5-1.7-0.7s-0.6-0.5-0.8-0.8
		s-0.2-0.7-0.2-1.1c0-0.6,0.2-1.2,0.7-1.6s1.2-0.7,2-0.8v-1.5h0.6v1.5c1,0,1.9,0.2,2.7,0.6l-0.3,0.7c-0.7-0.3-1.6-0.5-2.5-0.6v3.8
		c1.1,0.3,1.9,0.7,2.3,1.1C154.1,82.6,154.3,83.1,154.3,83.8z M148.9,79c0,0.4,0.1,0.8,0.4,1.1s0.8,0.5,1.4,0.7v-3.5
		c-0.6,0.1-1.1,0.3-1.4,0.6C149.1,78.2,148.9,78.6,148.9,79z M153.5,83.7c0-0.4-0.2-0.8-0.5-1.1s-0.8-0.5-1.6-0.7v3.7
		c0.6-0.1,1.1-0.3,1.5-0.6S153.5,84.2,153.5,83.7z"/>
	<path class="st0" d="M161.1,79.2c0,1.2-0.2,2.1-0.6,2.7s-1,0.9-1.7,0.9s-1.2-0.3-1.6-0.9c-0.4-0.6-0.6-1.5-0.6-2.7s0.2-2,0.6-2.7
		s0.9-0.9,1.7-0.9c0.7,0,1.3,0.3,1.7,0.9C160.9,77.2,161.1,78.1,161.1,79.2z M157.4,79.2c0,1,0.1,1.7,0.4,2.2s0.6,0.7,1.1,0.7
		c1,0,1.5-1,1.5-2.9c0-1-0.1-1.7-0.4-2.2s-0.6-0.7-1.1-0.7s-0.9,0.2-1.1,0.7S157.4,78.2,157.4,79.2z M165.7,75.8l-6.3,11.4h-0.8
		l6.3-11.4H165.7z M167.8,83.8c0,1.2-0.2,2.1-0.6,2.7c-0.4,0.6-0.9,0.9-1.7,0.9c-0.7,0-1.3-0.3-1.6-0.9s-0.6-1.5-0.6-2.7
		s0.2-2.1,0.6-2.7s0.9-0.9,1.7-0.9c0.7,0,1.3,0.3,1.7,0.9C167.6,81.8,167.8,82.6,167.8,83.8z M164,83.8c0,1,0.1,1.7,0.4,2.2
		s0.6,0.7,1.1,0.7c1,0,1.5-1,1.5-2.9s-0.5-2.9-1.5-2.9c-0.5,0-0.9,0.2-1.1,0.7S164,82.8,164,83.8z"/>
	<path class="st0" d="M169.3,82.8l3.6-7.1h0.5l3.6,7.1h-0.8l-3.1-6.2l-3.1,6.2H169.3z"/>
	<path class="st0" d="M178.7,84.3c0-0.7,0.2-1.3,0.6-1.8s1.1-1,2.1-1.6l-0.5-0.7c-0.3-0.4-0.6-0.7-0.8-1.1c-0.2-0.4-0.2-0.7-0.2-1.1
		c0-0.7,0.2-1.3,0.7-1.8c0.5-0.4,1.2-0.7,2-0.7s1.4,0.2,1.9,0.6c0.5,0.4,0.7,1,0.7,1.8c0,0.5-0.2,1-0.5,1.5c-0.4,0.5-1,1-2,1.5
		l3.5,3.6c0.3-0.4,0.6-0.8,0.8-1.2s0.4-1,0.6-1.6h0.8c-0.3,1.3-0.9,2.4-1.6,3.3l2.1,2.1h-1.1l-1.5-1.5c-0.5,0.5-0.9,0.8-1.3,1
		s-0.8,0.4-1.2,0.5s-1,0.2-1.5,0.2c-1.1,0-1.9-0.3-2.6-0.8C179,86,178.7,85.3,178.7,84.3z M182.3,86.7c0.7,0,1.3-0.1,1.8-0.3
		s1.1-0.6,1.6-1.1l-3.8-3.8c-0.7,0.4-1.2,0.7-1.5,1s-0.5,0.5-0.7,0.9c-0.1,0.3-0.2,0.7-0.2,1.1c0,0.7,0.2,1.3,0.7,1.8
		S181.4,86.7,182.3,86.7z M180.7,78c0,0.4,0.1,0.8,0.3,1.1s0.6,0.8,1.2,1.4c0.8-0.4,1.4-0.9,1.7-1.2c0.3-0.4,0.5-0.8,0.5-1.3
		s-0.2-0.9-0.5-1.2s-0.8-0.5-1.3-0.5c-0.6,0-1.1,0.2-1.4,0.5C180.9,77.1,180.7,77.5,180.7,78z"/>
	<path class="st0" d="M194.1,75l-0.3,3.2l3.2-0.8l0.2,1l-3.1,0.3l1.9,2.7l-1,0.6l-1.5-3l-1.4,3l-1-0.6l1.9-2.7l-3-0.3l0.1-1l3.1,0.8
		l-0.3-3.2H194.1z"/>
	<path class="st0" d="M198.6,82.8c0-1.4,0.2-2.7,0.6-3.9c0.4-1.2,1-2.3,1.7-3.2h0.9c-0.8,0.9-1.4,2-1.8,3.2
		c-0.4,1.2-0.6,2.5-0.6,3.8c0,2.5,0.8,4.8,2.4,6.9h-0.9c-0.8-0.9-1.3-1.9-1.8-3.1C198.8,85.4,198.6,84.2,198.6,82.8z"/>
	<path class="st0" d="M206,82.8c0,1.4-0.2,2.6-0.6,3.8c-0.4,1.2-1,2.2-1.7,3.1h-0.9c1.6-2.1,2.4-4.4,2.4-6.9c0-1.3-0.2-2.6-0.6-3.8
		c-0.4-1.2-1-2.3-1.8-3.2h0.9c0.8,0.9,1.3,2,1.8,3.2C205.8,80.2,206,81.4,206,82.8z"/>
	<path class="st0" d="M213.3,89.3h-6.6v-0.6h6.6V89.3z"/>
	<path class="st1" d="M30.2,34.7h5.6v1.5h-7.3V23.3h1.7V34.7z"/>
	<path class="st1" d="M39.6,24.2c0,0.2,0,0.3-0.1,0.4s-0.1,0.3-0.3,0.4c-0.1,0.1-0.2,0.2-0.4,0.2c-0.1,0.1-0.3,0.1-0.4,0.1
		c-0.2,0-0.3,0-0.4-0.1c-0.1-0.1-0.3-0.1-0.4-0.2c-0.1-0.1-0.2-0.2-0.2-0.4c-0.1-0.1-0.1-0.3-0.1-0.4c0-0.2,0-0.3,0.1-0.4
		s0.1-0.3,0.2-0.4c0.1-0.1,0.2-0.2,0.4-0.2c0.1-0.1,0.3-0.1,0.4-0.1c0.2,0,0.3,0,0.4,0.1c0.1,0.1,0.3,0.1,0.4,0.2
		c0.1,0.1,0.2,0.2,0.3,0.4C39.6,23.9,39.6,24.1,39.6,24.2z M39.2,27.1v9.1h-1.6v-9.1H39.2z"/>
	<path class="st1" d="M45.1,26.9c0.4,0,0.8,0,1.1,0.1s0.7,0.2,0.9,0.4h2.5V28c0,0.2-0.1,0.3-0.4,0.4l-1,0.1c0.2,0.4,0.3,0.8,0.3,1.3
		c0,0.4-0.1,0.8-0.3,1.2c-0.2,0.4-0.4,0.7-0.7,0.9c-0.3,0.3-0.7,0.5-1.1,0.6c-0.4,0.1-0.9,0.2-1.4,0.2c-0.4,0-0.8-0.1-1.2-0.2
		c-0.2,0.1-0.3,0.3-0.4,0.4c-0.1,0.1-0.1,0.3-0.1,0.4c0,0.2,0.1,0.4,0.3,0.5S44,34,44.3,34s0.6,0.1,1,0.1s0.7,0,1.1,0s0.8,0,1.1,0.1
		c0.4,0.1,0.7,0.2,1,0.3c0.3,0.2,0.5,0.4,0.7,0.6c0.2,0.3,0.3,0.6,0.3,1s-0.1,0.8-0.3,1.1c-0.2,0.4-0.5,0.7-0.8,1
		c-0.4,0.3-0.8,0.5-1.3,0.7s-1.1,0.3-1.8,0.3s-1.2-0.1-1.8-0.2c-0.5-0.1-0.9-0.3-1.2-0.5s-0.6-0.5-0.7-0.8c-0.2-0.3-0.2-0.6-0.2-0.9
		c0-0.5,0.1-0.8,0.4-1.1s0.7-0.6,1.2-0.8c-0.3-0.1-0.5-0.3-0.6-0.5c-0.2-0.2-0.2-0.5-0.2-0.8c0-0.1,0-0.3,0.1-0.4
		c0-0.1,0.1-0.3,0.2-0.4c0.1-0.1,0.2-0.3,0.4-0.4c0.1-0.1,0.3-0.2,0.5-0.3c-0.5-0.3-0.8-0.6-1.1-1s-0.4-0.9-0.4-1.5
		c0-0.4,0.1-0.8,0.3-1.2c0.2-0.4,0.4-0.7,0.7-0.9s0.7-0.5,1.1-0.6C44.2,27,44.6,26.9,45.1,26.9z M48,36.7c0-0.2-0.1-0.4-0.2-0.6
		s-0.3-0.2-0.5-0.3c-0.2-0.1-0.5-0.1-0.7-0.2c-0.3,0-0.6-0.1-0.9-0.1c-0.3,0-0.6,0-1,0c-0.3,0-0.6,0-0.9-0.1
		c-0.3,0.2-0.6,0.4-0.8,0.6s-0.3,0.5-0.3,0.8c0,0.2,0.1,0.4,0.2,0.6c0.1,0.2,0.3,0.3,0.5,0.5c0.2,0.1,0.5,0.2,0.8,0.3
		c0.3,0.1,0.7,0.1,1.2,0.1c0.4,0,0.8,0,1.2-0.1c0.3-0.1,0.6-0.2,0.9-0.3c0.2-0.1,0.4-0.3,0.5-0.5S48,36.9,48,36.7z M45.1,31.7
		c0.3,0,0.6,0,0.9-0.1c0.2-0.1,0.5-0.2,0.6-0.4s0.3-0.4,0.4-0.6c0.1-0.2,0.1-0.5,0.1-0.7c0-0.6-0.2-1-0.5-1.3s-0.8-0.5-1.5-0.5
		c-0.6,0-1.1,0.2-1.5,0.5c-0.3,0.3-0.5,0.8-0.5,1.3c0,0.3,0,0.5,0.1,0.7s0.2,0.4,0.4,0.6s0.4,0.3,0.6,0.4
		C44.5,31.7,44.8,31.7,45.1,31.7z"/>
	<path class="st1" d="M51.3,36.2V22.9h1.6v5.4c0.4-0.4,0.8-0.7,1.3-1s1-0.4,1.6-0.4c0.5,0,0.9,0.1,1.3,0.2s0.7,0.4,1,0.7
		c0.3,0.3,0.4,0.7,0.6,1.1c0.1,0.4,0.2,0.9,0.2,1.4v5.8h-1.6v-5.8c0-0.7-0.2-1.2-0.5-1.6s-0.8-0.6-1.4-0.6c-0.5,0-0.9,0.1-1.3,0.3
		c-0.4,0.2-0.8,0.5-1.1,0.9V36h-1.7V36.2z"/>
	<path class="st1" d="M64,36.3c-0.7,0-1.3-0.2-1.7-0.6s-0.6-1-0.6-1.7v-5.6h-1.1c-0.1,0-0.2,0-0.2-0.1c-0.1-0.1-0.1-0.1-0.1-0.3
		v-0.6l1.5-0.2l0.4-2.8c0-0.1,0.1-0.2,0.1-0.2c0.1-0.1,0.1-0.1,0.3-0.1h0.8v3.1H66v1.2h-2.6v5.5c0,0.4,0.1,0.7,0.3,0.9
		c0.2,0.2,0.4,0.3,0.7,0.3c0.2,0,0.3,0,0.4-0.1s0.2-0.1,0.3-0.1c0.1-0.1,0.2-0.1,0.2-0.1s0.1-0.1,0.2-0.1c0.1,0,0.2,0.1,0.2,0.2
		l0.5,0.8c-0.3,0.3-0.6,0.5-1,0.6C64.9,36.3,64.5,36.3,64,36.3z"/>
	<path class="st0" d="M32,172.2h-1.3V162h-3.6v-1.2h8.6v1.2h-3.6v10.2H32z"/>
	<path class="st0" d="M43,172.2v-5.5c0-0.7-0.2-1.2-0.5-1.6c-0.3-0.3-0.8-0.5-1.5-0.5c-0.9,0-1.6,0.2-2,0.7s-0.6,1.3-0.6,2.4v4.5
		h-1.3V160h1.3v3.7c0,0.4,0,0.8-0.1,1.1h0.1c0.3-0.4,0.6-0.7,1.1-1c0.5-0.2,1-0.4,1.6-0.4c1,0,1.8,0.2,2.4,0.7s0.8,1.3,0.8,2.4v5.6
		H43V172.2z"/>
	<path class="st0" d="M50.6,172.4c-1.3,0-2.3-0.4-3-1.2s-1.1-1.8-1.1-3.2s0.3-2.5,1-3.3s1.6-1.2,2.7-1.2c1.1,0,1.9,0.4,2.5,1.1
		s0.9,1.6,0.9,2.8v0.8h-5.9c0,1,0.3,1.8,0.8,2.3s1.2,0.8,2,0.8c0.9,0,1.8-0.2,2.7-0.6v1.2c-0.5,0.2-0.9,0.3-1.3,0.4
		C51.6,172.3,51.1,172.4,50.6,172.4z M50.2,164.6c-0.7,0-1.2,0.2-1.6,0.7c-0.4,0.4-0.6,1.1-0.7,1.9h4.5c0-0.8-0.2-1.4-0.5-1.9
		C51.4,164.8,50.9,164.6,50.2,164.6z"/>
	<path class="st0" d="M63.1,172.4c-1.1,0-2-0.4-2.6-1.2s-0.9-1.9-0.9-3.2c0-1.4,0.3-2.5,0.9-3.3s1.5-1.2,2.6-1.2
		c1.2,0,2.1,0.4,2.7,1.3h0.1l0.2-1.2h1V176h-1.3v-3.7c0-0.5,0-1,0.1-1.3h-0.1C65.2,171.9,64.3,172.4,63.1,172.4z M63.3,171.3
		c0.9,0,1.5-0.2,1.9-0.7s0.6-1.2,0.6-2.3V168c0-1.2-0.2-2.1-0.6-2.6s-1-0.8-1.9-0.8c-0.8,0-1.3,0.3-1.7,0.9
		c-0.4,0.6-0.6,1.4-0.6,2.5s0.2,1.9,0.6,2.5S62.5,171.3,63.3,171.3z"/>
	<path class="st0" d="M71.1,163.6v5.6c0,0.7,0.2,1.2,0.5,1.6c0.3,0.3,0.8,0.5,1.5,0.5c0.9,0,1.6-0.2,2-0.7s0.6-1.3,0.6-2.4v-4.5H77
		v8.6h-1.1l-0.2-1.1h-0.1c-0.3,0.4-0.6,0.7-1.1,1c-0.5,0.2-1,0.3-1.6,0.3c-1,0-1.8-0.2-2.3-0.7s-0.8-1.3-0.8-2.4v-5.6h1.3V163.6z"/>
	<path class="st0" d="M79.6,161.3c0-0.3,0.1-0.5,0.2-0.7c0.1-0.1,0.3-0.2,0.5-0.2s0.4,0.1,0.5,0.2c0.2,0.1,0.2,0.4,0.2,0.6
		s-0.1,0.5-0.2,0.7c-0.2,0.1-0.3,0.2-0.5,0.2s-0.4-0.1-0.5-0.2C79.7,161.8,79.6,161.6,79.6,161.3z M81,172.2h-1.3v-8.6H81V172.2z"/>
	<path class="st0" d="M87.2,172.4c-1.2,0-2.2-0.4-2.9-1.1s-1-1.8-1-3.2s0.3-2.5,1-3.3s1.7-1.2,2.9-1.2c0.4,0,0.8,0,1.2,0.1
		s0.7,0.2,1,0.3l-0.4,1.1c-0.3-0.1-0.6-0.2-0.9-0.3c-0.3-0.1-0.6-0.1-0.9-0.1c-1.7,0-2.6,1.1-2.6,3.3c0,1.1,0.2,1.9,0.6,2.4
		c0.4,0.6,1.1,0.8,1.9,0.8c0.7,0,1.4-0.2,2.2-0.5v1.1C88.8,172.2,88,172.4,87.2,172.4z"/>
	<path class="st0" d="M92.7,167.8c0.2-0.3,0.6-0.7,1-1.2l2.8-2.9H98l-3.5,3.6l3.7,4.9h-1.6l-3-4l-1,0.8v3.2h-1.3V160h1.3v6.4
		C92.7,166.8,92.6,167.2,92.7,167.8L92.7,167.8z"/>
	<path class="st0" d="M107.9,163.5c1.1,0,2,0.4,2.6,1.2s0.9,1.9,0.9,3.3s-0.3,2.5-0.9,3.3c-0.6,0.8-1.5,1.2-2.6,1.2
		c-0.6,0-1.1-0.1-1.5-0.3s-0.8-0.5-1.2-0.9h-0.1l-0.2,0.9h-1V160h1.3v3c0,0.7,0,1.3-0.1,1.8h0.1
		C105.8,163.9,106.7,163.5,107.9,163.5z M107.7,164.6c-0.9,0-1.5,0.3-1.9,0.8s-0.6,1.4-0.6,2.6s0.2,2.1,0.6,2.6
		c0.4,0.5,1,0.8,1.9,0.8c0.8,0,1.4-0.3,1.8-0.9s0.6-1.4,0.6-2.5s-0.2-1.9-0.6-2.5S108.5,164.6,107.7,164.6z"/>
	<path class="st0" d="M117.6,163.5c0.4,0,0.7,0,1,0.1l-0.2,1.2c-0.4-0.1-0.7-0.1-0.9-0.1c-0.7,0-1.3,0.3-1.8,0.8s-0.7,1.3-0.7,2.1
		v4.6h-1.3v-8.6h1.1l0.1,1.6h0.1c0.3-0.6,0.7-1,1.1-1.3C116.6,163.6,117.1,163.5,117.6,163.5z"/>
	<path class="st0" d="M127.7,167.9c0,1.4-0.4,2.5-1.1,3.3s-1.7,1.2-2.9,1.2c-0.8,0-1.4-0.2-2-0.5s-1.1-0.9-1.4-1.5
		c-0.3-0.7-0.5-1.5-0.5-2.4c0-1.4,0.3-2.5,1-3.3s1.7-1.2,2.9-1.2s2.1,0.4,2.9,1.2C127.3,165.5,127.7,166.6,127.7,167.9z
		 M121.1,167.9c0,1.1,0.2,1.9,0.7,2.5s1.1,0.9,1.9,0.9c0.8,0,1.5-0.3,1.9-0.9c0.4-0.6,0.7-1.4,0.7-2.5s-0.2-1.9-0.7-2.5
		c-0.4-0.6-1.1-0.8-1.9-0.8c-0.8,0-1.5,0.3-1.9,0.8C121.3,166,121.1,166.8,121.1,167.9z"/>
	<path class="st0" d="M136.9,172.2l-1.6-5c-0.1-0.3-0.3-1-0.6-2.1h-0.1c-0.2,0.9-0.4,1.6-0.5,2.1l-1.6,5H131l-2.3-8.6h1.4
		c0.6,2.2,1,3.8,1.3,4.9s0.5,1.9,0.5,2.3h0.1c0.1-0.3,0.1-0.7,0.3-1.2c0.1-0.5,0.2-0.8,0.3-1.1l1.6-4.9h1.4l1.5,4.9
		c0.3,0.9,0.5,1.6,0.6,2.3h0.1c0-0.2,0.1-0.5,0.2-0.9c0.1-0.4,0.6-2.5,1.6-6.3h1.3l-2.4,8.6H136.9z"/>
	<path class="st0" d="M148.2,172.2v-5.5c0-0.7-0.2-1.2-0.5-1.6c-0.3-0.3-0.8-0.5-1.5-0.5c-0.9,0-1.6,0.2-2,0.7s-0.6,1.3-0.6,2.4v4.5
		h-1.3v-8.6h1.1l0.2,1.2h0.1c0.3-0.4,0.6-0.7,1.1-1c0.5-0.2,1-0.3,1.6-0.3c1,0,1.8,0.2,2.3,0.7s0.8,1.3,0.8,2.4v5.6L148.2,172.2
		L148.2,172.2z"/>
	<path class="st0" d="M160.2,164.6H158v7.6h-1.3v-7.6h-1.5V164l1.5-0.5V163c0-2.1,0.9-3.2,2.8-3.2c0.5,0,1,0.1,1.6,0.3l-0.3,1
		c-0.5-0.2-0.9-0.2-1.3-0.2c-0.5,0-0.9,0.2-1.1,0.5s-0.4,0.8-0.4,1.6v0.6h2.2V164.6z"/>
	<path class="st0" d="M169.2,167.9c0,1.4-0.4,2.5-1.1,3.3s-1.7,1.2-2.9,1.2c-0.8,0-1.4-0.2-2-0.5s-1.1-0.9-1.4-1.5
		c-0.3-0.7-0.5-1.5-0.5-2.4c0-1.4,0.3-2.5,1-3.3s1.7-1.2,2.9-1.2s2.1,0.4,2.9,1.2C168.8,165.5,169.2,166.6,169.2,167.9z
		 M162.6,167.9c0,1.1,0.2,1.9,0.7,2.5s1.1,0.9,1.9,0.9c0.8,0,1.5-0.3,1.9-0.9c0.4-0.6,0.7-1.4,0.7-2.5s-0.2-1.9-0.7-2.5
		c-0.4-0.6-1.1-0.8-1.9-0.8c-0.8,0-1.5,0.3-1.9,0.8C162.9,166,162.6,166.8,162.6,167.9z"/>
	<path class="st0" d="M173.5,167.8l-3-4.2h1.5l2.3,3.3l2.2-3.3h1.5l-3,4.2l3.1,4.4h-1.5l-2.4-3.5l-2.4,3.5h-1.5L173.5,167.8z"/>
	<path class="st0" d="M182.9,176c-0.5,0-0.9-0.1-1.2-0.2v-1.1c0.4,0.1,0.7,0.2,1.1,0.2c0.4,0,0.7-0.1,0.9-0.3c0.2-0.2,0.3-0.6,0.3-1
		v-10h1.3v9.9C185.3,175.2,184.5,176,182.9,176z M183.9,161.3c0-0.3,0.1-0.5,0.2-0.7c0.1-0.1,0.3-0.2,0.5-0.2s0.4,0.1,0.5,0.2
		c0.2,0.1,0.2,0.4,0.2,0.6s-0.1,0.5-0.2,0.7c-0.2,0.1-0.3,0.2-0.5,0.2s-0.4-0.1-0.5-0.2C183.9,161.8,183.9,161.6,183.9,161.3z"/>
	<path class="st0" d="M189.2,163.6v5.6c0,0.7,0.2,1.2,0.5,1.6c0.3,0.3,0.8,0.5,1.5,0.5c0.9,0,1.6-0.2,2-0.7s0.6-1.3,0.6-2.4v-4.5
		h1.3v8.6H194l-0.2-1.1h-0.1c-0.3,0.4-0.6,0.7-1.1,1c-0.5,0.2-1,0.3-1.6,0.3c-1,0-1.8-0.2-2.3-0.7s-0.8-1.3-0.8-2.4v-5.6h1.3V163.6z
		"/>
	<path class="st0" d="M208.8,172.2v-5.6c0-0.7-0.1-1.2-0.4-1.5c-0.3-0.3-0.7-0.5-1.4-0.5c-0.8,0-1.4,0.2-1.8,0.7
		c-0.4,0.5-0.6,1.2-0.6,2.1v4.8h-1.3v-5.6c0-0.7-0.1-1.2-0.4-1.5c-0.3-0.3-0.7-0.5-1.4-0.5c-0.8,0-1.4,0.2-1.8,0.7
		c-0.4,0.5-0.6,1.3-0.6,2.4v4.5h-1.3v-8.6h1.1l0.2,1.2h0.1c0.2-0.4,0.6-0.7,1-1s0.9-0.4,1.5-0.4c1.3,0,2.2,0.5,2.6,1.5h0.1
		c0.3-0.4,0.6-0.8,1.1-1.1s1-0.4,1.7-0.4c1,0,1.7,0.2,2.2,0.7s0.7,1.3,0.7,2.4v5.6h-1.3V172.2z"/>
	<path class="st0" d="M216.7,172.4c-0.6,0-1.1-0.1-1.5-0.3s-0.8-0.5-1.2-0.9h-0.1c0.1,0.5,0.1,1,0.1,1.4v3.5h-1.3v-12.4h1.1l0.2,1.2
		h0.1c0.3-0.5,0.7-0.8,1.2-1c0.4-0.2,1-0.3,1.5-0.3c1.1,0,2,0.4,2.6,1.2s0.9,1.9,0.9,3.3c0,1.4-0.3,2.5-0.9,3.3
		C218.7,172,217.8,172.4,216.7,172.4z M216.5,164.6c-0.9,0-1.5,0.2-1.9,0.7s-0.6,1.3-0.6,2.3v0.3c0,1.2,0.2,2.1,0.6,2.6
		c0.4,0.5,1,0.8,1.9,0.8c0.7,0,1.3-0.3,1.7-0.9c0.4-0.6,0.6-1.4,0.6-2.5s-0.2-1.9-0.6-2.5C217.9,164.9,217.3,164.6,216.5,164.6z"/>
	<path class="st0" d="M228,169.9c0,0.8-0.3,1.4-0.9,1.8s-1.4,0.6-2.5,0.6s-2-0.2-2.7-0.5v-1.2c0.4,0.2,0.9,0.4,1.3,0.5
		c0.5,0.1,0.9,0.2,1.4,0.2c0.7,0,1.2-0.1,1.6-0.3c0.4-0.2,0.5-0.5,0.5-1c0-0.3-0.1-0.6-0.4-0.9s-0.9-0.5-1.7-0.8s-1.4-0.6-1.7-0.8
		s-0.6-0.5-0.8-0.8s-0.2-0.6-0.2-1c0-0.7,0.3-1.2,0.9-1.7c0.6-0.4,1.3-0.6,2.3-0.6c0.9,0,1.8,0.2,2.7,0.6l-0.5,1.1
		c-0.9-0.4-1.6-0.5-2.3-0.5c-0.6,0-1.1,0.1-1.4,0.3s-0.5,0.5-0.5,0.8c0,0.2,0.1,0.4,0.2,0.6s0.3,0.3,0.6,0.5
		c0.3,0.1,0.8,0.4,1.5,0.6c1,0.4,1.7,0.7,2.1,1.1C227.9,168.8,228,169.3,228,169.9z"/>
	<path class="st0" d="M241.7,167.9c0,1.4-0.4,2.5-1.1,3.3s-1.7,1.2-2.9,1.2c-0.8,0-1.4-0.2-2-0.5s-1.1-0.9-1.4-1.5
		c-0.3-0.7-0.5-1.5-0.5-2.4c0-1.4,0.3-2.5,1-3.3s1.7-1.2,2.9-1.2s2.1,0.4,2.9,1.2C241.4,165.5,241.7,166.6,241.7,167.9z
		 M235.2,167.9c0,1.1,0.2,1.9,0.7,2.5s1.1,0.9,1.9,0.9c0.8,0,1.5-0.3,1.9-0.9c0.4-0.6,0.7-1.4,0.7-2.5s-0.2-1.9-0.7-2.5
		c-0.4-0.6-1.1-0.8-1.9-0.8c-0.8,0-1.5,0.3-1.9,0.8C235.4,166,235.2,166.8,235.2,167.9z"/>
	<path class="st0" d="M245.9,172.2l-3.2-8.6h1.4l1.8,5.1c0.4,1.2,0.7,2,0.7,2.3h0.1c0.1-0.3,0.2-0.8,0.5-1.7s1-2.8,2.1-5.7h1.4
		l-3.2,8.6L245.9,172.2L245.9,172.2z"/>
	<path class="st0" d="M255.6,172.4c-1.3,0-2.3-0.4-3-1.2s-1.1-1.8-1.1-3.2s0.3-2.5,1-3.3s1.6-1.2,2.7-1.2c1.1,0,1.9,0.4,2.5,1.1
		s0.9,1.6,0.9,2.8v0.8h-5.7c0,1,0.3,1.8,0.8,2.3s1.2,0.8,2,0.8c0.9,0,1.8-0.2,2.7-0.6v1.2c-0.5,0.2-0.9,0.3-1.3,0.4
		C256.7,172.3,256.2,172.4,255.6,172.4z M255.3,164.6c-0.7,0-1.2,0.2-1.6,0.7c-0.4,0.4-0.7,1.1-0.7,1.9h4.5c0-0.8-0.2-1.4-0.5-1.9
		C256.5,164.8,255.9,164.6,255.3,164.6z"/>
	<path class="st0" d="M264.9,163.5c0.4,0,0.7,0,1,0.1l-0.2,1.2c-0.4-0.1-0.7-0.1-0.9-0.1c-0.7,0-1.3,0.3-1.8,0.8s-0.7,1.3-0.7,2.1
		v4.6H261v-8.6h1.1l0.1,1.6h0.1c0.3-0.6,0.7-1,1.1-1.3C263.8,163.6,264.3,163.5,264.9,163.5z"/>
	<path class="st0" d="M274.4,171.3c0.2,0,0.5,0,0.7-0.1c0.2,0,0.4-0.1,0.5-0.1v1c-0.1,0.1-0.3,0.1-0.6,0.2s-0.5,0.1-0.7,0.1
		c-1.7,0-2.5-0.9-2.5-2.6v-5.1h-1.2v-0.6l1.2-0.5l0.5-1.8h0.8v2h2.5v1h-2.5v5c0,0.5,0.1,0.9,0.4,1.2
		C273.7,171.1,274,171.3,274.4,171.3z"/>
	<path class="st0" d="M283.2,172.2v-5.5c0-0.7-0.2-1.2-0.5-1.6c-0.3-0.3-0.8-0.5-1.5-0.5c-0.9,0-1.6,0.2-2,0.7s-0.6,1.3-0.6,2.4v4.5
		h-1.3V160h1.3v3.7c0,0.4,0,0.8-0.1,1.1h0.1c0.3-0.4,0.6-0.7,1.1-1c0.5-0.2,1-0.4,1.6-0.4c1,0,1.8,0.2,2.4,0.7s0.8,1.3,0.8,2.4v5.6
		h-1.3V172.2z"/>
	<path class="st0" d="M290.7,172.4c-1.3,0-2.3-0.4-3-1.2s-1.1-1.8-1.1-3.2s0.3-2.5,1-3.3s1.6-1.2,2.7-1.2c1.1,0,1.9,0.4,2.5,1.1
		s0.9,1.6,0.9,2.8v0.8h-5.9c0,1,0.3,1.8,0.8,2.3s1.2,0.8,2,0.8c0.9,0,1.8-0.2,2.7-0.6v1.2c-0.5,0.2-0.9,0.3-1.3,0.4
		C291.8,172.3,291.3,172.4,290.7,172.4z M290.4,164.6c-0.7,0-1.2,0.2-1.6,0.7c-0.4,0.4-0.7,1.1-0.7,1.9h4.5c0-0.8-0.2-1.4-0.5-1.9
		C291.6,164.8,291.1,164.6,290.4,164.6z"/>
	<path class="st0" d="M301.6,172.2h-1.3V160h1.3V172.2z"/>
	<path class="st0" d="M309.6,172.2l-0.3-1.2h-0.1c-0.4,0.5-0.9,0.9-1.3,1.1c-0.4,0.2-1,0.3-1.6,0.3c-0.8,0-1.5-0.2-2-0.7
		c-0.5-0.4-0.7-1.1-0.7-1.9c0-1.7,1.4-2.6,4.1-2.7h1.5v-0.5c0-0.7-0.1-1.2-0.4-1.5s-0.8-0.5-1.4-0.5c-0.7,0-1.5,0.2-2.4,0.7l-0.4-1
		c0.4-0.2,0.9-0.4,1.4-0.5s1-0.2,1.5-0.2c1,0,1.8,0.2,2.3,0.7s0.7,1.2,0.7,2.2v5.8h-0.9V172.2z M306.6,171.3c0.8,0,1.4-0.2,1.9-0.7
		s0.7-1.1,0.7-1.9v-0.8l-1.3,0.1c-1,0-1.8,0.2-2.2,0.5c-0.5,0.3-0.7,0.7-0.7,1.3c0,0.5,0.1,0.8,0.4,1.1
		C305.7,171.2,306.1,171.3,306.6,171.3z"/>
	<path class="st0" d="M318.7,172.2h-6.2v-0.9l4.7-6.7h-4.4v-1h5.8v1l-4.6,6.5h4.7V172.2z"/>
	<path class="st0" d="M319.3,163.6h1.4l1.9,4.9c0.4,1.1,0.7,1.9,0.8,2.4h0.1c0.1-0.3,0.2-0.7,0.4-1.4c0.2-0.6,0.9-2.6,2.1-5.9h1.4
		l-3.7,9.8c-0.4,1-0.8,1.6-1.3,2.1c-0.5,0.4-1.1,0.6-1.8,0.6c-0.4,0-0.8,0-1.2-0.1v-1c0.3,0.1,0.6,0.1,1,0.1c0.9,0,1.5-0.5,1.9-1.5
		l0.5-1.2L319.3,163.6z"/>
	<path class="st0" d="M338.7,171.1L338.7,171.1c-0.7,0.9-1.6,1.3-2.8,1.3c-1.1,0-2-0.4-2.6-1.1c-0.6-0.8-0.9-1.9-0.9-3.3
		s0.3-2.5,0.9-3.3s1.5-1.2,2.6-1.2c1.2,0,2.1,0.4,2.7,1.3h0.1l-0.1-0.6v-0.6v-3.5h1.3v12.1h-1L338.7,171.1z M336.1,171.3
		c0.9,0,1.5-0.2,1.9-0.7s0.6-1.3,0.6-2.3V168c0-1.2-0.2-2.1-0.6-2.6c-0.4-0.5-1-0.8-1.9-0.8c-0.8,0-1.3,0.3-1.7,0.9
		c-0.4,0.6-0.6,1.4-0.6,2.5s0.2,1.9,0.6,2.5C334.8,171,335.4,171.3,336.1,171.3z"/>
	<path class="st0" d="M350.1,167.9c0,1.4-0.4,2.5-1.1,3.3s-1.7,1.2-2.9,1.2c-0.8,0-1.4-0.2-2-0.5s-1.1-0.9-1.4-1.5
		c-0.3-0.7-0.5-1.5-0.5-2.4c0-1.4,0.3-2.5,1-3.3s1.7-1.2,2.9-1.2s2.1,0.4,2.9,1.2C349.7,165.5,350.1,166.6,350.1,167.9z
		 M343.6,167.9c0,1.1,0.2,1.9,0.7,2.5s1.1,0.9,1.9,0.9c0.8,0,1.5-0.3,1.9-0.9c0.4-0.6,0.7-1.4,0.7-2.5s-0.2-1.9-0.7-2.5
		c-0.4-0.6-1.1-0.8-1.9-0.8c-0.8,0-1.5,0.3-1.9,0.8C343.8,166,343.6,166.8,343.6,167.9z"/>
	<path class="st0" d="M359.4,163.6v0.8l-1.6,0.2c0.1,0.2,0.3,0.4,0.4,0.7c0.1,0.3,0.2,0.6,0.2,1c0,0.8-0.3,1.5-0.9,2
		c-0.6,0.5-1.4,0.8-2.4,0.8c-0.3,0-0.5,0-0.7-0.1c-0.6,0.3-0.8,0.7-0.8,1.1c0,0.2,0.1,0.4,0.3,0.5s0.5,0.2,1,0.2h1.5
		c0.9,0,1.6,0.2,2.1,0.6c0.5,0.4,0.7,1,0.7,1.7c0,0.9-0.4,1.7-1.1,2.2c-0.8,0.5-1.9,0.7-3.3,0.7c-1.1,0-2-0.2-2.6-0.6
		s-0.9-1-0.9-1.8c0-0.5,0.2-1,0.5-1.4s0.8-0.6,1.4-0.8c-0.2-0.1-0.4-0.3-0.6-0.5s-0.2-0.5-0.2-0.7c0-0.3,0.1-0.6,0.2-0.8
		c0.2-0.2,0.4-0.5,0.8-0.7c-0.4-0.2-0.8-0.5-1.1-0.9s-0.4-0.9-0.4-1.5c0-0.9,0.3-1.7,0.8-2.2s1.4-0.8,2.4-0.8c0.4,0,0.9,0.1,1.2,0.2
		L359.4,163.6L359.4,163.6z M352.6,173.6c0,0.5,0.2,0.8,0.6,1.1s1,0.4,1.7,0.4c1.1,0,1.9-0.2,2.4-0.5s0.8-0.8,0.8-1.3
		s-0.1-0.8-0.4-1c-0.3-0.2-0.8-0.3-1.6-0.3h-1.6c-0.6,0-1,0.1-1.4,0.4S352.6,173.1,352.6,173.6z M353.3,166.4c0,0.6,0.2,1.1,0.5,1.4
		c0.3,0.3,0.8,0.5,1.4,0.5c1.3,0,1.9-0.6,1.9-1.8c0-1.3-0.6-1.9-1.9-1.9c-0.6,0-1.1,0.2-1.4,0.5S353.3,165.7,353.3,166.4z"/>
	<path class="st0" d="M361,171.4c0-0.3,0.1-0.6,0.2-0.8c0.2-0.2,0.4-0.3,0.7-0.3s0.5,0.1,0.7,0.3s0.3,0.4,0.3,0.8
		c0,0.3-0.1,0.6-0.3,0.8s-0.4,0.3-0.7,0.3s-0.5-0.1-0.7-0.2C361,172,361,171.7,361,171.4z"/>
	<path class="st0" d="M32.5,194.2h-1.3v-8.1c0-0.7,0-1.3,0.1-1.9c-0.1,0.1-0.2,0.2-0.4,0.3c-0.1,0.1-0.8,0.6-1.9,1.5l-0.7-0.9l3-2.3
		h1.1v11.4H32.5z"/>
	<path class="st0" d="M44.3,194.2h-7.5v-1.1l3-3c0.9-0.9,1.5-1.6,1.8-2s0.5-0.8,0.7-1.2c0.1-0.4,0.2-0.8,0.2-1.2
		c0-0.6-0.2-1.1-0.6-1.4c-0.4-0.4-0.9-0.5-1.5-0.5c-0.5,0-0.9,0.1-1.3,0.2c-0.4,0.2-0.9,0.4-1.4,0.9L37,184c1.1-0.9,2.2-1.3,3.4-1.3
		c1.1,0,1.9,0.3,2.5,0.8s0.9,1.3,0.9,2.2c0,0.7-0.2,1.4-0.6,2.1s-1.2,1.6-2.3,2.7l-2.5,2.4v0.1h5.9L44.3,194.2L44.3,194.2z"/>
	<path class="st0" d="M53.1,185.5c0,0.7-0.2,1.3-0.6,1.8c-0.4,0.5-1,0.8-1.7,0.9v0.1c0.9,0.1,1.6,0.4,2,0.9s0.7,1.1,0.7,1.8
		c0,1.1-0.4,1.9-1.1,2.5c-0.8,0.6-1.8,0.9-3.2,0.9c-0.6,0-1.2,0-1.7-0.1s-1-0.3-1.5-0.5v-1.2c0.5,0.2,1,0.4,1.6,0.6
		c0.6,0.1,1.1,0.2,1.6,0.2c2,0,3-0.8,3-2.3c0-1.4-1.1-2.1-3.3-2.1h-1.1v-1.1h1.1c0.9,0,1.6-0.2,2.1-0.6s0.8-0.9,0.8-1.6
		c0-0.6-0.2-1-0.6-1.3s-0.9-0.5-1.6-0.5c-0.5,0-1,0.1-1.4,0.2s-0.9,0.4-1.5,0.8L46,184c0.5-0.4,1-0.7,1.6-0.9
		c0.6-0.2,1.3-0.3,1.9-0.3c1.1,0,2,0.3,2.6,0.8C52.7,183.9,53.1,184.6,53.1,185.5z"/>
	<path class="st0" d="M63.2,191.6h-1.7v2.6h-1.2v-2.6h-5.6v-1.1l5.4-7.7h1.4v7.7h1.7L63.2,191.6L63.2,191.6z M60.2,190.4v-3.8
		c0-0.7,0-1.6,0.1-2.5h-0.1c-0.2,0.5-0.5,0.9-0.7,1.2l-3.6,5.1L60.2,190.4L60.2,190.4z"/>
	<path class="st0" d="M67.8,187.2c1.2,0,2.1,0.3,2.8,0.9s1,1.4,1,2.4c0,1.2-0.4,2.1-1.1,2.8c-0.8,0.7-1.8,1-3.1,1s-2.3-0.2-2.9-0.6
		v-1.2c0.4,0.2,0.8,0.4,1.4,0.6c0.5,0.1,1.1,0.2,1.6,0.2c0.9,0,1.6-0.2,2.1-0.6s0.8-1.1,0.8-1.9c0-1.6-1-2.4-2.9-2.4
		c-0.5,0-1.2,0.1-2,0.2l-0.7-0.4l0.4-5.3h5.7v1.2h-4.6l-0.3,3.4C66.7,187.3,67.3,187.2,67.8,187.2z"/>
	<path class="st0" d="M73.6,189.3c0-2.2,0.4-3.9,1.3-5c0.9-1.1,2.2-1.7,3.9-1.7c0.6,0,1.1,0,1.4,0.1v1.1c-0.4-0.1-0.9-0.2-1.4-0.2
		c-1.2,0-2.2,0.4-2.8,1.1c-0.6,0.8-1,2-1.1,3.6H75c0.6-0.9,1.5-1.3,2.7-1.3c1,0,1.8,0.3,2.4,0.9c0.6,0.6,0.9,1.5,0.9,2.5
		c0,1.2-0.3,2.1-1,2.8s-1.5,1-2.6,1c-1.2,0-2.1-0.4-2.8-1.3C73.9,192.1,73.6,190.9,73.6,189.3z M77.4,193.3c0.7,0,1.3-0.2,1.7-0.7
		s0.6-1.1,0.6-2c0-0.8-0.2-1.3-0.6-1.8c-0.4-0.4-0.9-0.6-1.7-0.6c-0.5,0-0.9,0.1-1.3,0.3s-0.7,0.5-0.9,0.8s-0.3,0.7-0.3,1.1
		c0,0.5,0.1,1,0.3,1.5s0.5,0.8,0.9,1.1S76.9,193.3,77.4,193.3z"/>
	<path class="st0" d="M84,194.2l4.7-10.2h-6.2v-1.2h7.6v1l-4.7,10.4L84,194.2L84,194.2z"/>
	<path class="st0" d="M95.5,182.6c1,0,1.9,0.2,2.5,0.7s0.9,1.2,0.9,2c0,0.6-0.2,1.1-0.5,1.5c-0.3,0.5-0.9,0.9-1.7,1.3
		c0.9,0.4,1.6,0.9,2,1.4s0.6,1.1,0.6,1.7c0,0.9-0.3,1.7-1,2.3c-0.7,0.6-1.6,0.8-2.7,0.8c-1.2,0-2.2-0.3-2.8-0.8s-1-1.3-1-2.3
		c0-1.3,0.8-2.3,2.4-3.1c-0.7-0.4-1.2-0.8-1.5-1.3s-0.5-1-0.5-1.6c0-0.8,0.3-1.5,0.9-2C93.7,182.9,94.5,182.6,95.5,182.6z M93,191.3
		c0,0.6,0.2,1.1,0.7,1.5c0.4,0.3,1,0.5,1.8,0.5s1.4-0.2,1.8-0.5c0.4-0.4,0.6-0.9,0.6-1.5c0-0.5-0.2-1-0.6-1.3s-1.1-0.8-2.1-1.1
		c-0.8,0.3-1.3,0.7-1.7,1.1C93.2,190.3,93,190.8,93,191.3z M95.5,183.7c-0.7,0-1.2,0.2-1.5,0.5c-0.4,0.3-0.6,0.7-0.6,1.2
		s0.2,0.9,0.5,1.2c0.3,0.3,0.9,0.7,1.7,1c0.7-0.3,1.3-0.6,1.6-1s0.5-0.8,0.5-1.3s-0.2-0.9-0.6-1.3C96.7,183.8,96.1,183.7,95.5,183.7
		z"/>
	<path class="st0" d="M108.4,187.7c0,4.5-1.7,6.7-5.2,6.7c-0.6,0-1.1-0.1-1.4-0.2v-1.1c0.4,0.1,0.9,0.2,1.4,0.2
		c1.2,0,2.2-0.4,2.8-1.2c0.6-0.8,1-2,1-3.6h-0.1c-0.3,0.4-0.7,0.8-1.1,1c-0.5,0.2-1,0.3-1.6,0.3c-1,0-1.8-0.3-2.4-0.9
		s-0.9-1.4-0.9-2.5c0-1.2,0.3-2.1,1-2.8s1.5-1,2.6-1c0.8,0,1.5,0.2,2,0.6c0.6,0.4,1,1,1.3,1.7S108.4,186.6,108.4,187.7z
		 M104.5,183.7c-0.7,0-1.3,0.2-1.7,0.7s-0.6,1.1-0.6,2c0,0.8,0.2,1.3,0.6,1.8s0.9,0.6,1.7,0.6c0.5,0,0.9-0.1,1.3-0.3
		s0.7-0.5,0.9-0.8s0.3-0.7,0.3-1c0-0.5-0.1-1.1-0.3-1.5c-0.2-0.5-0.5-0.8-0.9-1.1S105,183.7,104.5,183.7z"/>
	<path class="st0" d="M117.6,188.5c0,2-0.3,3.4-0.9,4.4c-0.6,1-1.6,1.5-2.9,1.5c-1.2,0-2.2-0.5-2.8-1.5s-1-2.5-1-4.4
		c0-2,0.3-3.5,0.9-4.4c0.6-1,1.6-1.4,2.8-1.4s2.2,0.5,2.8,1.5C117.3,185.1,117.6,186.6,117.6,188.5z M111.3,188.5
		c0,1.7,0.2,2.9,0.6,3.6s1,1.1,1.9,1.1s1.5-0.4,1.9-1.2c0.4-0.8,0.6-2,0.6-3.6s-0.2-2.8-0.6-3.6c-0.4-0.8-1-1.1-1.9-1.1
		s-1.5,0.4-1.9,1.1S111.3,186.8,111.3,188.5z"/>
	<path class="st0" d="M119.6,193.4c0-0.7,0.3-1.1,0.9-1.1c0.3,0,0.5,0.1,0.7,0.3s0.2,0.4,0.2,0.8c0,0.3-0.1,0.6-0.2,0.8
		c-0.2,0.2-0.4,0.3-0.7,0.3s-0.5-0.1-0.7-0.2C119.7,194,119.6,193.7,119.6,193.4z M120.9,191.1h-0.8l-0.4-8.3h1.6L120.9,191.1z"/>
	<path class="st0" d="M136.1,188.5c0,0.7-0.1,1.4-0.3,2s-0.6,1.1-1,1.4s-0.9,0.5-1.4,0.5c-0.4,0-0.8-0.1-1.1-0.4s-0.5-0.6-0.5-1
		h-0.1c-0.2,0.5-0.5,0.8-0.9,1.1c-0.4,0.3-0.8,0.4-1.4,0.4c-0.8,0-1.4-0.3-1.8-0.8c-0.4-0.5-0.7-1.3-0.7-2.2c0-1.1,0.3-1.9,0.9-2.6
		c0.6-0.7,1.4-1,2.4-1c0.4,0,0.8,0,1.2,0.1s0.9,0.2,1.2,0.3l-0.2,3.7v0.2c0,0.9,0.3,1.4,1,1.4c0.5,0,0.9-0.3,1.2-0.8
		s0.4-1.3,0.4-2.2c0-0.9-0.2-1.8-0.6-2.5c-0.4-0.7-0.9-1.3-1.6-1.6s-1.5-0.6-2.4-0.6c-1.2,0-2.2,0.2-3,0.7c-0.8,0.5-1.5,1.2-2,2.1
		s-0.7,1.9-0.7,3.1c0,1.6,0.4,2.8,1.3,3.7c0.8,0.9,2,1.3,3.6,1.3c1.1,0,2.2-0.2,3.4-0.7v1c-1,0.4-2.1,0.7-3.4,0.7
		c-1.9,0-3.4-0.5-4.4-1.6c-1-1-1.6-2.5-1.6-4.4c0-1.4,0.3-2.6,0.8-3.6c0.6-1.1,1.4-1.9,2.4-2.5s2.2-0.9,3.5-0.9c1.1,0,2.1,0.2,3,0.7
		s1.5,1.1,2,2S136.1,187.4,136.1,188.5z M128,189.5c0,1.3,0.5,2,1.5,2c1.1,0,1.7-0.8,1.8-2.4l0.1-2c-0.4-0.1-0.8-0.2-1.2-0.2
		c-0.7,0-1.2,0.2-1.6,0.7S128,188.7,128,189.5z"/>
	<path class="st0" d="M144.7,187.2l-0.5,2.7h2.2v1H144l-0.7,3.4h-1.1l0.7-3.4h-2.4l-0.6,3.3h-1l0.6-3.4h-2v-1h2.2l0.5-2.7H138v-1
		h2.3l0.6-3.4h1.1l-0.6,3.4h2.4l0.7-3.4h1l-0.6,3.5h2.1v1H144.7z M140.8,189.8h2.4l0.5-2.7h-2.4L140.8,189.8z"/>
	<path class="st0" d="M155.5,190.7c0,0.7-0.3,1.3-0.8,1.8s-1.3,0.8-2.2,0.9v1.8h-1v-1.7c-0.6,0-1.1,0-1.7-0.1s-1-0.2-1.3-0.4v-1.2
		c0.4,0.2,0.9,0.4,1.5,0.5s1.1,0.2,1.5,0.2v-3.4c-1.1-0.3-1.8-0.7-2.2-1.2s-0.6-1-0.6-1.7s0.3-1.2,0.8-1.7c0.5-0.4,1.2-0.7,2.1-0.8
		v-1.4h1v1.4c1,0,1.9,0.2,2.8,0.6l-0.4,1c-0.8-0.3-1.6-0.5-2.4-0.5v3.4c0.8,0.3,1.4,0.5,1.8,0.8s0.7,0.5,0.9,0.9
		C155.4,189.8,155.5,190.2,155.5,190.7z M149.9,185.9c0,0.4,0.1,0.7,0.4,1s0.6,0.5,1.2,0.7v-3c-0.5,0.1-0.9,0.2-1.2,0.5
		S149.9,185.6,149.9,185.9z M154.1,190.8c0-0.4-0.1-0.7-0.3-0.9c-0.2-0.2-0.7-0.5-1.3-0.7v3C153.6,192.1,154.1,191.6,154.1,190.8z"
		/>
	<path class="st0" d="M162,186.2c0,1.2-0.2,2.1-0.6,2.7s-1,0.9-1.8,0.9c-0.7,0-1.3-0.3-1.7-0.9s-0.6-1.5-0.6-2.7s0.2-2.1,0.6-2.7
		c0.4-0.6,1-0.9,1.7-0.9c0.8,0,1.3,0.3,1.7,0.9S162,185,162,186.2z M158.4,186.2c0,0.9,0.1,1.5,0.3,2c0.2,0.4,0.5,0.7,0.9,0.7
		c0.9,0,1.3-0.9,1.3-2.7c0-1.8-0.4-2.6-1.3-2.6c-0.4,0-0.7,0.2-0.9,0.7C158.5,184.6,158.4,185.3,158.4,186.2z M166.9,182.8
		l-6.3,11.4h-1.1l6.3-11.4H166.9z M168.9,190.8c0,1.2-0.2,2.1-0.6,2.7s-1,0.9-1.8,0.9c-0.7,0-1.3-0.3-1.7-0.9s-0.6-1.5-0.6-2.7
		s0.2-2.1,0.6-2.7c0.4-0.6,1-0.9,1.7-0.9s1.3,0.3,1.7,0.9S168.9,189.6,168.9,190.8z M165.3,190.8c0,0.9,0.1,1.6,0.3,2
		s0.5,0.7,0.9,0.7s0.8-0.2,1-0.7c0.2-0.4,0.3-1.1,0.3-2s-0.1-1.6-0.3-2s-0.5-0.6-1-0.6s-0.8,0.2-0.9,0.6
		C165.4,189.2,165.3,189.9,165.3,190.8z"/>
	<path class="st0" d="M170.1,189.9l3.4-7.2h0.8l3.7,7.2h-1.2l-2.9-5.8l-2.6,5.8H170.1z"/>
	<path class="st0" d="M179.3,191.2c0-0.7,0.2-1.3,0.5-1.8c0.4-0.5,1-1,1.9-1.6c-0.4-0.5-0.7-0.9-0.9-1.1c-0.2-0.3-0.3-0.5-0.4-0.8
		s-0.1-0.6-0.1-0.9c0-0.8,0.3-1.4,0.8-1.8s1.2-0.7,2.1-0.7c0.8,0,1.5,0.2,2,0.7s0.7,1,0.7,1.8c0,0.6-0.2,1.1-0.5,1.5
		c-0.4,0.5-0.9,0.9-1.8,1.4l3.2,3.1c0.3-0.3,0.5-0.7,0.7-1.1s0.3-0.9,0.4-1.4h1.3c-0.4,1.5-0.9,2.6-1.6,3.4l2.3,2.3h-1.8l-1.4-1.4
		c-0.6,0.6-1.2,0.9-1.9,1.2c-0.6,0.2-1.3,0.4-2.1,0.4c-1.1,0-2-0.3-2.6-0.8S179.3,192.2,179.3,191.2z M182.8,193.2
		c1.3,0,2.3-0.4,3.1-1.2l-3.4-3.3c-0.6,0.4-1,0.6-1.2,0.9c-0.2,0.2-0.4,0.5-0.5,0.7c-0.1,0.3-0.2,0.6-0.2,0.9c0,0.6,0.2,1.1,0.6,1.4
		C181.6,193,182.1,193.2,182.8,193.2z M181.6,185.1c0,0.4,0.1,0.7,0.3,1s0.5,0.7,1,1.2c0.7-0.4,1.1-0.8,1.4-1.1
		c0.3-0.3,0.4-0.7,0.4-1.1s-0.1-0.7-0.4-1c-0.3-0.3-0.6-0.4-1.1-0.4s-0.8,0.1-1.1,0.4S181.6,184.6,181.6,185.1z"/>
	<path class="st0" d="M195.2,182l-0.3,3.1l3.1-0.9l0.2,1.4l-3,0.2l1.9,2.5l-1.3,0.7l-1.4-2.8l-1.2,2.8l-1.4-0.7l1.9-2.5l-2.9-0.2
		l0.2-1.4l3.1,0.9l-0.3-3.1H195.2z"/>
	<path class="st0" d="M199.5,189.8c0-1.4,0.2-2.7,0.6-3.9c0.4-1.2,1-2.3,1.7-3.2h1.3c-0.8,1-1.3,2.1-1.7,3.3
		c-0.4,1.2-0.6,2.4-0.6,3.7c0,1.2,0.2,2.5,0.6,3.7c0.4,1.2,0.9,2.3,1.7,3.3h-1.2c-0.8-0.9-1.3-1.9-1.8-3.1
		C199.7,192.4,199.5,191.2,199.5,189.8z"/>
	<path class="st0" d="M207.7,189.8c0,1.4-0.2,2.6-0.6,3.8c-0.4,1.2-1,2.2-1.7,3.1h-1.2c0.7-1,1.3-2.1,1.7-3.3
		c0.4-1.2,0.6-2.4,0.6-3.7c0-1.3-0.2-2.5-0.6-3.7c-0.4-1.2-0.9-2.3-1.7-3.3h1.3c0.8,0.9,1.3,2,1.8,3.2
		C207.5,187.2,207.7,188.4,207.7,189.8z"/>
	<path class="st0" d="M215.5,196.7h-7.2v-1h7.2V196.7z"/>
	<path class="st1" d="M30.4,137.8v5.4h-1.7v-12.9h3.6c0.8,0,1.5,0.1,2.1,0.2c0.6,0.2,1.1,0.4,1.5,0.7s0.7,0.7,0.9,1.1
		c0.2,0.4,0.3,0.9,0.3,1.5c0,0.5-0.1,0.9-0.2,1.3c-0.1,0.4-0.4,0.8-0.6,1.1s-0.6,0.6-1,0.8s-0.8,0.4-1.3,0.5
		c0.2,0.1,0.4,0.3,0.6,0.5l3.8,5.1h-1.5c-0.3,0-0.6-0.1-0.7-0.4l-3.3-4.6c-0.1-0.1-0.2-0.2-0.3-0.3s-0.3-0.1-0.5-0.1L30.4,137.8
		L30.4,137.8z M30.4,136.5h1.8c0.5,0,1-0.1,1.3-0.2c0.4-0.1,0.7-0.3,1-0.5s0.5-0.5,0.6-0.8s0.2-0.7,0.2-1c0-0.8-0.3-1.3-0.8-1.7
		s-1.3-0.6-2.3-0.6h-1.9v4.8H30.4z"/>
	<path class="st1" d="M43.4,133.9c0.5,0,1.1,0.1,1.5,0.3c0.5,0.2,0.9,0.4,1.2,0.8s0.6,0.8,0.8,1.3s0.3,1.1,0.3,1.7
		c0,0.3,0,0.4-0.1,0.5s-0.2,0.1-0.3,0.1h-6.1c0,0.6,0.1,1.1,0.2,1.5s0.3,0.8,0.6,1.1s0.6,0.5,0.9,0.6c0.3,0.1,0.7,0.2,1.2,0.2
		c0.4,0,0.7,0,1-0.1s0.5-0.2,0.8-0.3c0.2-0.1,0.4-0.2,0.5-0.3s0.3-0.1,0.4-0.1c0.1,0,0.2,0.1,0.3,0.2L47,142
		c-0.2,0.2-0.4,0.4-0.7,0.6s-0.6,0.3-0.9,0.4c-0.3,0.1-0.6,0.2-1,0.3c-0.3,0.1-0.7,0.1-1,0.1c-0.6,0-1.2-0.1-1.7-0.3s-1-0.5-1.4-0.9
		s-0.7-0.9-0.9-1.5s-0.3-1.3-0.3-2.1c0-0.6,0.1-1.2,0.3-1.8s0.5-1,0.8-1.4c0.4-0.4,0.8-0.7,1.3-1C42.2,134.1,42.8,133.9,43.4,133.9z
		 M43.5,135.1c-0.8,0-1.4,0.2-1.8,0.7c-0.4,0.4-0.7,1.1-0.8,1.9h5c0-0.4-0.1-0.7-0.2-1c-0.1-0.3-0.3-0.6-0.4-0.8
		c-0.2-0.2-0.4-0.4-0.7-0.5C44.1,135.2,43.8,135.1,43.5,135.1z"/>
	<path class="st1" d="M52.3,133.9c0.4,0,0.8,0,1.1,0.1s0.7,0.2,0.9,0.4h2.5v0.6c0,0.2-0.1,0.3-0.4,0.4l-1,0.1
		c0.2,0.4,0.3,0.8,0.3,1.3c0,0.4-0.1,0.8-0.3,1.2s-0.4,0.7-0.7,0.9c-0.3,0.3-0.7,0.5-1.1,0.6c-0.4,0.1-0.9,0.2-1.4,0.2
		c-0.4,0-0.8-0.1-1.2-0.2c-0.2,0.1-0.3,0.3-0.4,0.4c-0.1,0.1-0.1,0.3-0.1,0.4c0,0.2,0.1,0.4,0.3,0.5s0.4,0.2,0.7,0.2s0.6,0.1,1,0.1
		s0.7,0,1.1,0s0.8,0,1.1,0.1c0.4,0.1,0.7,0.2,1,0.3c0.3,0.2,0.5,0.4,0.7,0.6c0.2,0.3,0.3,0.6,0.3,1s-0.1,0.8-0.3,1.1
		c-0.2,0.4-0.5,0.7-0.8,1c-0.4,0.3-0.8,0.5-1.3,0.7s-1.1,0.3-1.8,0.3s-1.2-0.1-1.8-0.2c-0.5-0.1-0.9-0.3-1.2-0.5s-0.6-0.5-0.7-0.8
		c-0.2-0.3-0.2-0.6-0.2-0.9c0-0.5,0.1-0.8,0.4-1.1s0.7-0.6,1.2-0.8c-0.3-0.1-0.5-0.3-0.6-0.5c-0.2-0.2-0.2-0.5-0.2-0.8
		c0-0.1,0-0.3,0.1-0.4c0-0.1,0.1-0.3,0.2-0.4c0.1-0.1,0.2-0.3,0.4-0.4c0.1-0.1,0.3-0.2,0.5-0.3c-0.5-0.3-0.8-0.6-1.1-1
		s-0.4-0.9-0.4-1.5c0-0.4,0.1-0.8,0.3-1.2s0.4-0.7,0.7-0.9s0.7-0.5,1.1-0.6C51.3,134,51.8,133.9,52.3,133.9z M55.2,143.7
		c0-0.2-0.1-0.4-0.2-0.6s-0.3-0.2-0.5-0.3s-0.5-0.1-0.7-0.2c-0.3,0-0.6-0.1-0.9-0.1c-0.3,0-0.6,0-1,0c-0.3,0-0.6,0-0.9-0.1
		c-0.3,0.2-0.6,0.4-0.8,0.6s-0.3,0.5-0.3,0.8c0,0.2,0.1,0.4,0.2,0.6c0.1,0.2,0.3,0.3,0.5,0.5c0.2,0.1,0.5,0.2,0.8,0.3
		s0.7,0.1,1.2,0.1c0.4,0,0.8,0,1.2-0.1c0.3-0.1,0.6-0.2,0.9-0.3c0.2-0.1,0.4-0.3,0.5-0.5S55.2,143.9,55.2,143.7z M52.3,138.7
		c0.3,0,0.6,0,0.9-0.1c0.2-0.1,0.5-0.2,0.6-0.4s0.3-0.4,0.4-0.6c0.1-0.2,0.1-0.5,0.1-0.7c0-0.6-0.2-1-0.5-1.3s-0.8-0.5-1.5-0.5
		c-0.6,0-1.1,0.2-1.5,0.5c-0.3,0.3-0.5,0.8-0.5,1.3c0,0.3,0,0.5,0.1,0.7s0.2,0.4,0.4,0.6s0.4,0.3,0.6,0.4
		C51.7,138.7,52,138.7,52.3,138.7z"/>
	<path class="st1" d="M59.8,134.1v5.8c0,0.7,0.2,1.2,0.5,1.6c0.3,0.4,0.8,0.6,1.4,0.6c0.5,0,0.9-0.1,1.3-0.3s0.8-0.5,1.1-0.9v-6.7
		h1.6v9.1h-1c-0.2,0-0.4-0.1-0.4-0.3l-0.1-1c-0.4,0.4-0.8,0.8-1.3,1.1s-1.1,0.4-1.7,0.4c-0.5,0-0.9-0.1-1.3-0.2
		c-0.4-0.2-0.7-0.4-1-0.7s-0.5-0.7-0.6-1.1c-0.1-0.4-0.2-0.9-0.2-1.4v-5.8h1.7V134.1z"/>
	<path class="st1" d="M70.2,129.9v13.3h-1.6v-13.3H70.2z"/>
	<path class="st1" d="M79.7,143.2H79c-0.2,0-0.3,0-0.4-0.1c-0.1,0-0.2-0.1-0.2-0.3l-0.2-0.8c-0.2,0.2-0.5,0.4-0.7,0.6
		s-0.5,0.3-0.7,0.4c-0.3,0.1-0.5,0.2-0.8,0.3s-0.6,0.1-0.9,0.1c-0.4,0-0.7,0-1-0.1s-0.6-0.2-0.8-0.4s-0.4-0.5-0.5-0.8
		s-0.2-0.7-0.2-1.1c0-0.4,0.1-0.7,0.3-1s0.5-0.6,1-0.9s1-0.5,1.7-0.6c0.7-0.2,1.6-0.2,2.6-0.2v-0.7c0-0.7-0.2-1.3-0.5-1.6
		c-0.3-0.4-0.8-0.5-1.3-0.5c-0.4,0-0.7,0-1,0.1s-0.5,0.2-0.7,0.3s-0.4,0.2-0.5,0.3s-0.3,0.1-0.4,0.1c-0.1,0-0.2,0-0.3-0.1
		s-0.1-0.1-0.2-0.2l-0.3-0.5c0.5-0.5,1-0.8,1.6-1.1s1.2-0.4,1.9-0.4c0.5,0,1,0.1,1.4,0.3s0.7,0.4,1,0.7s0.5,0.7,0.6,1.1
		c0.1,0.4,0.2,0.9,0.2,1.4L79.7,143.2L79.7,143.2z M75.6,142.2c0.3,0,0.5,0,0.8-0.1s0.5-0.1,0.7-0.2c0.2-0.1,0.4-0.2,0.6-0.4
		c0.2-0.1,0.4-0.3,0.6-0.5v-1.9c-0.7,0-1.4,0-1.9,0.1s-0.9,0.2-1.3,0.4c-0.3,0.2-0.6,0.3-0.7,0.5s-0.2,0.4-0.2,0.7
		c0,0.2,0,0.5,0.1,0.6s0.2,0.3,0.3,0.4c0.1,0.1,0.3,0.2,0.5,0.2C75.2,142.2,75.4,142.2,75.6,142.2z"/>
	<path class="st1" d="M82.2,143.2v-9.1h0.9c0.2,0,0.3,0,0.4,0.1c0.1,0.1,0.1,0.2,0.1,0.3l0.1,1.4c0.3-0.6,0.7-1.1,1.2-1.5
		s1-0.5,1.6-0.5c0.3,0,0.5,0,0.7,0.1s0.4,0.1,0.6,0.2l-0.2,1.2c0,0.1-0.1,0.2-0.3,0.2c-0.1,0-0.2,0-0.4-0.1s-0.4-0.1-0.7-0.1
		c-0.6,0-1,0.2-1.4,0.5s-0.7,0.8-0.9,1.4v5.8h-1.7V143.2z"/>
	<path class="st0" d="M32.7,279.2h-2.4v-9.4h-3.1v-2h8.6v2h-3.1V279.2z"/>
	<path class="st0" d="M45.5,279.2h-2.4v-5.1c0-1.3-0.5-1.9-1.4-1.9c-0.7,0-1.1,0.2-1.4,0.7s-0.4,1.2-0.4,2.2v4.1h-2.4V267h2.4v2.5
		c0,0.2,0,0.6-0.1,1.4l-0.1,0.7h0.1c0.5-0.9,1.4-1.3,2.5-1.3c1,0,1.8,0.3,2.3,0.8s0.8,1.3,0.8,2.4v5.7H45.5z"/>
	<path class="st0" d="M51.9,279.4c-1.4,0-2.5-0.4-3.3-1.2c-0.8-0.8-1.2-1.9-1.2-3.3c0-1.5,0.4-2.6,1.1-3.4c0.7-0.8,1.7-1.2,3-1.2
		c1.2,0,2.2,0.4,2.9,1.1s1,1.7,1,2.9v1.2h-5.6c0,0.7,0.2,1.2,0.6,1.6s0.9,0.6,1.6,0.6c0.5,0,1-0.1,1.5-0.2s1-0.3,1.5-0.5v1.8
		c-0.4,0.2-0.9,0.4-1.3,0.5C53.1,279.3,52.6,279.4,51.9,279.4z M51.5,272c-0.5,0-0.9,0.2-1.2,0.5s-0.5,0.8-0.5,1.4h3.3
		c0-0.6-0.2-1-0.5-1.4S52.1,272,51.5,272z"/>
	<path class="st0" d="M64.3,279.4c-1,0-1.8-0.4-2.4-1.2c-0.6-0.8-0.9-1.9-0.9-3.3s0.3-2.5,0.9-3.3c0.6-0.8,1.4-1.2,2.4-1.2
		c0.6,0,1,0.1,1.4,0.3c0.4,0.2,0.8,0.5,1.1,1h0.1l0.2-1.1h2v12.6h-2.4v-3.7c0-0.3,0-0.8,0.1-1.3h-0.1c-0.3,0.4-0.6,0.7-1,1
		S64.9,279.4,64.3,279.4z M65.2,277.5c0.6,0,1-0.2,1.3-0.5s0.4-1,0.5-1.8v-0.3c0-0.9-0.1-1.6-0.4-2s-0.8-0.6-1.4-0.6
		c-1.1,0-1.7,0.9-1.7,2.6c0,0.9,0.1,1.5,0.4,2C64.1,277.3,64.6,277.5,65.2,277.5z"/>
	<path class="st0" d="M77.9,279.2l-0.3-1.1h-0.1c-0.3,0.4-0.6,0.7-1.1,0.9s-1,0.3-1.6,0.3c-1,0-1.8-0.3-2.3-0.8s-0.8-1.3-0.8-2.4
		v-5.7h2.4v5.1c0,0.6,0.1,1.1,0.3,1.4s0.6,0.5,1.1,0.5c0.7,0,1.1-0.2,1.4-0.7s0.4-1.2,0.4-2.2v-4.1h2.4v8.7h-1.8V279.2z"/>
	<path class="st0" d="M82.1,268.2c0-0.8,0.4-1.2,1.3-1.2c0.9,0,1.3,0.4,1.3,1.2c0,0.4-0.1,0.7-0.3,0.9c-0.2,0.2-0.5,0.3-1,0.3
		C82.5,269.4,82.1,269,82.1,268.2z M84.6,279.2h-2.4v-8.7h2.4V279.2z"/>
	<path class="st0" d="M90.6,279.4c-2.7,0-4.1-1.5-4.1-4.5c0-1.5,0.4-2.6,1.1-3.4c0.7-0.8,1.8-1.2,3.2-1.2c1,0,1.9,0.2,2.7,0.6
		l-0.7,1.8c-0.4-0.2-0.7-0.3-1-0.4s-0.6-0.1-1-0.1c-1.2,0-1.9,0.9-1.9,2.6s0.6,2.6,1.9,2.6c0.5,0,0.9-0.1,1.3-0.2s0.8-0.3,1.2-0.6v2
		c-0.4,0.2-0.8,0.4-1.2,0.5C91.7,279.3,91.2,279.4,90.6,279.4z"/>
	<path class="st0" d="M97.6,274.4l1-1.3l2.4-2.7h2.7l-3.5,3.8l3.7,4.9h-2.8l-2.5-3.5l-1,0.8v2.7h-2.4v-12.2h2.4v5.4L97.6,274.4
		L97.6,274.4z"/>
	<path class="st0" d="M114.2,270.3c1,0,1.8,0.4,2.4,1.2c0.6,0.8,0.9,1.9,0.9,3.3s-0.3,2.6-0.9,3.4s-1.4,1.2-2.5,1.2
		c-1,0-1.8-0.4-2.4-1.1h-0.2l-0.4,1h-1.8v-12.2h2.4v2.8c0,0.4,0,0.9-0.1,1.7h0.1C112.3,270.7,113.1,270.3,114.2,270.3z M113.5,272.2
		c-0.6,0-1,0.2-1.3,0.5c-0.3,0.4-0.4,1-0.4,1.8v0.3c0,0.9,0.1,1.6,0.4,2c0.3,0.4,0.7,0.6,1.3,0.6c0.5,0,0.9-0.2,1.2-0.7
		s0.4-1.1,0.4-2s-0.1-1.5-0.4-1.9C114.4,272.4,114,272.2,113.5,272.2z"/>
	<path class="st0" d="M124.4,270.3c0.3,0,0.6,0,0.8,0.1l-0.2,2.2c-0.2-0.1-0.4-0.1-0.7-0.1c-0.8,0-1.4,0.2-1.8,0.6
		c-0.4,0.4-0.6,0.9-0.6,1.6v4.4h-2.4v-8.7h1.8l0.4,1.5h0.1c0.3-0.5,0.6-0.9,1.1-1.2S123.8,270.3,124.4,270.3z"/>
	<path class="st0" d="M134.7,274.8c0,1.4-0.4,2.5-1.1,3.3s-1.8,1.2-3.1,1.2c-0.8,0-1.6-0.2-2.2-0.6c-0.6-0.4-1.1-0.9-1.5-1.6
		s-0.5-1.5-0.5-2.4c0-1.4,0.4-2.5,1.1-3.3c0.7-0.8,1.8-1.2,3.1-1.2c0.8,0,1.6,0.2,2.2,0.5s1.1,0.9,1.5,1.6S134.7,273.9,134.7,274.8z
		 M128.7,274.8c0,0.9,0.1,1.5,0.4,2c0.3,0.4,0.7,0.7,1.4,0.7c0.6,0,1.1-0.2,1.4-0.7c0.3-0.4,0.4-1.1,0.4-2s-0.1-1.5-0.4-1.9
		s-0.7-0.6-1.4-0.6c-0.6,0-1.1,0.2-1.4,0.6S128.7,273.9,128.7,274.8z"/>
	<path class="st0" d="M143.8,279.2l-0.7-3.1l-0.9-3.9h-0.1l-1.6,6.9h-2.6l-2.5-8.7h2.4l1,3.9c0.2,0.7,0.3,1.6,0.5,2.9l0,0
		c0-0.4,0.1-1,0.3-1.9l0.1-0.7l1.1-4.2h2.6l1,4.2c0,0.1,0.1,0.3,0.1,0.5s0.1,0.5,0.1,0.7c0,0.3,0.1,0.5,0.1,0.7s0.1,0.4,0.1,0.6l0,0
		c0-0.4,0.1-0.9,0.2-1.5c0.1-0.7,0.2-1.1,0.3-1.3l1-3.9h2.3l-2.5,8.7L143.8,279.2L143.8,279.2z"/>
	<path class="st0" d="M158.4,279.2H156v-5.1c0-0.6-0.1-1.1-0.3-1.4s-0.6-0.5-1.1-0.5c-0.7,0-1.1,0.2-1.4,0.7s-0.4,1.2-0.4,2.2v4.1
		h-2.4v-8.7h1.8l0.3,1.1h0.1c0.3-0.4,0.6-0.7,1.1-1c0.5-0.2,1-0.3,1.6-0.3c1,0,1.8,0.3,2.3,0.8s0.8,1.3,0.8,2.4L158.4,279.2
		L158.4,279.2z"/>
	<path class="st0" d="M169.9,272.3h-2.1v6.9h-2.4v-6.9h-1.3v-1.1l1.3-0.6V270c0-1,0.2-1.7,0.7-2.2s1.3-0.7,2.4-0.7
		c0.8,0,1.6,0.1,2.2,0.4l-0.6,1.8c-0.5-0.2-0.9-0.2-1.3-0.2c-0.3,0-0.6,0.1-0.7,0.3c-0.2,0.2-0.2,0.5-0.2,0.8v0.5h2.1v1.6H169.9z"/>
	<path class="st0" d="M179.2,274.8c0,1.4-0.4,2.5-1.1,3.3s-1.8,1.2-3.1,1.2c-0.8,0-1.6-0.2-2.2-0.6s-1.1-0.9-1.5-1.6
		s-0.5-1.5-0.5-2.4c0-1.4,0.4-2.5,1.1-3.3c0.7-0.8,1.8-1.2,3.1-1.2c0.8,0,1.6,0.2,2.2,0.5s1.1,0.9,1.5,1.6S179.2,273.9,179.2,274.8z
		 M173.1,274.8c0,0.9,0.1,1.5,0.4,2c0.3,0.4,0.7,0.7,1.4,0.7c0.6,0,1.1-0.2,1.4-0.7c0.3-0.4,0.4-1.1,0.4-2s-0.1-1.5-0.4-1.9
		s-0.7-0.6-1.4-0.6c-0.6,0-1.1,0.2-1.4,0.6S173.1,273.9,173.1,274.8z"/>
	<path class="st0" d="M182.9,274.7l-2.8-4.3h2.7l1.7,2.8l1.7-2.8h2.7l-2.8,4.3l3,4.5h-2.7l-1.8-3l-1.8,3h-2.7L182.9,274.7z"/>
	<path class="st0" d="M193.8,283c-0.6,0-1.1-0.1-1.6-0.2v-1.9c0.4,0.1,0.7,0.1,1.1,0.1c0.4,0,0.7-0.1,0.9-0.3c0.2-0.2,0.3-0.6,0.3-1
		v-9.3h2.4v9.7c0,0.9-0.3,1.6-0.8,2.1C195.6,282.8,194.8,283,193.8,283z M194.4,268.2c0-0.8,0.4-1.2,1.3-1.2c0.9,0,1.3,0.4,1.3,1.2
		c0,0.4-0.1,0.7-0.3,0.9c-0.2,0.2-0.5,0.3-1,0.3C194.9,269.4,194.4,269,194.4,268.2z"/>
	<path class="st0" d="M205.6,279.2l-0.3-1.1h-0.1c-0.3,0.4-0.6,0.7-1.1,0.9s-1,0.3-1.6,0.3c-1,0-1.8-0.3-2.3-0.8s-0.8-1.3-0.8-2.4
		v-5.7h2.4v5.1c0,0.6,0.1,1.1,0.3,1.4s0.6,0.5,1.1,0.5c0.7,0,1.1-0.2,1.4-0.7s0.4-1.2,0.4-2.2v-4.1h2.4v8.7h-1.8V279.2z"/>
	<path class="st0" d="M217.8,279.2h-2.4v-5.1c0-0.6-0.1-1.1-0.3-1.4s-0.5-0.5-1-0.5c-0.6,0-1.1,0.2-1.3,0.7
		c-0.3,0.4-0.4,1.2-0.4,2.2v4.1h-2.5v-8.7h1.8l0.3,1.1h0.1c0.2-0.4,0.6-0.7,1-0.9c0.4-0.2,1-0.3,1.5-0.3c1.3,0,2.2,0.4,2.7,1.3h0.2
		c0.2-0.4,0.6-0.7,1-0.9c0.5-0.2,1-0.3,1.5-0.3c1,0,1.7,0.3,2.2,0.8s0.8,1.3,0.8,2.4v5.7h-2.4v-5.1c0-0.6-0.1-1.1-0.3-1.4
		s-0.5-0.5-1-0.5c-0.6,0-1,0.2-1.3,0.6s-0.4,1.1-0.4,2v4.2H217.8z"/>
	<path class="st0" d="M230.4,279.4c-1,0-1.8-0.4-2.4-1.1h-0.1c0.1,0.7,0.1,1.2,0.1,1.3v3.5h-2.4v-12.6h1.9l0.3,1.1h0.1
		c0.6-0.9,1.4-1.3,2.5-1.3c1,0,1.8,0.4,2.4,1.2c0.6,0.8,0.9,1.9,0.9,3.3c0,0.9-0.1,1.7-0.4,2.4s-0.7,1.2-1.2,1.6
		C231.7,279.2,231.1,279.4,230.4,279.4z M229.7,272.2c-0.6,0-1,0.2-1.3,0.5c-0.3,0.4-0.4,1-0.4,1.8v0.3c0,0.9,0.1,1.6,0.4,2
		c0.3,0.4,0.7,0.6,1.3,0.6c1.1,0,1.6-0.9,1.6-2.6c0-0.9-0.1-1.5-0.4-1.9C230.7,272.4,230.3,272.2,229.7,272.2z"/>
	<path class="st0" d="M241.9,276.6c0,0.9-0.3,1.6-0.9,2c-0.6,0.5-1.6,0.7-2.8,0.7c-0.6,0-1.2,0-1.6-0.1c-0.4-0.1-0.9-0.2-1.3-0.4v-2
		c0.4,0.2,0.9,0.4,1.5,0.5s1,0.2,1.5,0.2c0.9,0,1.3-0.2,1.3-0.8c0-0.2-0.1-0.3-0.2-0.5c-0.1-0.1-0.3-0.2-0.6-0.4s-0.7-0.3-1.1-0.5
		c-0.7-0.3-1.2-0.5-1.5-0.8c-0.3-0.2-0.5-0.5-0.7-0.8c-0.1-0.3-0.2-0.7-0.2-1.1c0-0.8,0.3-1.4,0.9-1.8s1.5-0.6,2.6-0.6
		s2.1,0.2,3.1,0.7l-0.7,1.7c-0.4-0.2-0.8-0.3-1.2-0.5c-0.4-0.1-0.8-0.2-1.2-0.2c-0.7,0-1.1,0.2-1.1,0.6c0,0.2,0.1,0.4,0.3,0.6
		s0.7,0.4,1.5,0.7c0.7,0.3,1.2,0.5,1.5,0.8c0.3,0.2,0.6,0.5,0.7,0.8C241.8,275.8,241.9,276.2,241.9,276.6z"/>
	<path class="st0" d="M255.8,274.8c0,1.4-0.4,2.5-1.1,3.3s-1.8,1.2-3.1,1.2c-0.8,0-1.6-0.2-2.2-0.6s-1.1-0.9-1.5-1.6
		s-0.5-1.5-0.5-2.4c0-1.4,0.4-2.5,1.1-3.3c0.7-0.8,1.8-1.2,3.1-1.2c0.8,0,1.6,0.2,2.2,0.5s1.1,0.9,1.5,1.6S255.8,273.9,255.8,274.8z
		 M249.8,274.8c0,0.9,0.1,1.5,0.4,2c0.3,0.4,0.7,0.7,1.4,0.7c0.6,0,1.1-0.2,1.4-0.7c0.3-0.4,0.4-1.1,0.4-2s-0.1-1.5-0.4-1.9
		s-0.7-0.6-1.4-0.6c-0.6,0-1.1,0.2-1.4,0.6S249.8,273.9,249.8,274.8z"/>
	<path class="st0" d="M259.9,279.2l-3.3-8.7h2.5l1.7,5c0.2,0.6,0.3,1.2,0.4,1.8l0,0c0-0.5,0.1-1.1,0.4-1.8l1.7-5h2.5l-3.3,8.7H259.9
		z"/>
	<path class="st0" d="M270.8,279.4c-1.4,0-2.5-0.4-3.3-1.2c-0.8-0.8-1.2-1.9-1.2-3.3c0-1.5,0.4-2.6,1.1-3.4c0.7-0.8,1.7-1.2,3-1.2
		c1.2,0,2.2,0.4,2.9,1.1s1,1.7,1,2.9v1.2h-5.6c0,0.7,0.2,1.2,0.6,1.6s0.9,0.6,1.6,0.6c0.5,0,1-0.1,1.5-0.2s1-0.3,1.5-0.5v1.8
		c-0.4,0.2-0.9,0.4-1.3,0.5C272.1,279.3,271.5,279.4,270.8,279.4z M270.5,272c-0.5,0-0.9,0.2-1.2,0.5s-0.5,0.8-0.5,1.4h3.3
		c0-0.6-0.2-1-0.5-1.4S271,272,270.5,272z"/>
	<path class="st0" d="M281.2,270.3c0.3,0,0.6,0,0.8,0.1l-0.2,2.2c-0.2-0.1-0.4-0.1-0.7-0.1c-0.8,0-1.4,0.2-1.8,0.6
		c-0.4,0.4-0.6,0.9-0.6,1.6v4.4h-2.4v-8.7h1.8l0.4,1.5h0.1c0.3-0.5,0.6-0.9,1.1-1.2S280.7,270.3,281.2,270.3z"/>
	<path class="st0" d="M291.4,277.5c0.4,0,0.9-0.1,1.5-0.3v1.8c-0.6,0.3-1.3,0.4-2.2,0.4c-1,0-1.6-0.2-2.1-0.7
		c-0.4-0.5-0.7-1.2-0.7-2.2v-4.2h-1v-1l1.3-0.8l0.7-1.8h1.5v1.9h2.4v1.8h-2.4v4.2c0,0.3,0.1,0.6,0.3,0.8
		C290.9,277.4,291.1,277.5,291.4,277.5z"/>
	<path class="st0" d="M302.8,279.2h-2.4v-5.1c0-1.3-0.5-1.9-1.4-1.9c-0.7,0-1.1,0.2-1.4,0.7s-0.4,1.2-0.4,2.2v4.1h-2.4V267h2.4v2.5
		c0,0.2,0,0.6-0.1,1.4l-0.1,0.7h0.1c0.5-0.9,1.4-1.3,2.5-1.3c1,0,1.8,0.3,2.3,0.8s0.8,1.3,0.8,2.4v5.7H302.8z"/>
	<path class="st0" d="M309.2,279.4c-1.4,0-2.5-0.4-3.3-1.2c-0.8-0.8-1.2-1.9-1.2-3.3c0-1.5,0.4-2.6,1.1-3.4c0.7-0.8,1.7-1.2,3-1.2
		c1.2,0,2.2,0.4,2.9,1.1s1,1.7,1,2.9v1.2h-5.6c0,0.7,0.2,1.2,0.6,1.6s0.9,0.6,1.6,0.6c0.5,0,1-0.1,1.5-0.2s1-0.3,1.5-0.5v1.8
		c-0.4,0.2-0.9,0.4-1.3,0.5C310.4,279.3,309.9,279.4,309.2,279.4z M308.8,272c-0.5,0-0.9,0.2-1.2,0.5s-0.5,0.8-0.5,1.4h3.3
		c0-0.6-0.2-1-0.5-1.4S309.4,272,308.8,272z"/>
	<path class="st0" d="M321.2,279.2h-2.4V267h2.4V279.2z"/>
	<path class="st0" d="M329.3,279.2l-0.5-1.2h-0.1c-0.4,0.5-0.8,0.9-1.2,1.1s-1,0.3-1.7,0.3c-0.8,0-1.5-0.2-2-0.7s-0.7-1.2-0.7-2
		c0-0.9,0.3-1.6,1-2.1s1.6-0.7,2.9-0.7h1.5v-0.4c0-0.9-0.5-1.3-1.4-1.3c-0.7,0-1.5,0.2-2.5,0.6l-0.8-1.6c1-0.5,2.1-0.8,3.3-0.8
		s2.1,0.3,2.7,0.8s0.9,1.3,0.9,2.3v5.8L329.3,279.2L329.3,279.2z M328.6,275.2h-0.9c-0.7,0-1.2,0.1-1.5,0.4c-0.3,0.2-0.5,0.6-0.5,1
		c0,0.7,0.4,1,1.2,1c0.6,0,1-0.2,1.3-0.5s0.5-0.7,0.5-1.3L328.6,275.2L328.6,275.2z"/>
	<path class="st0" d="M339.5,279.2h-6.9v-1.4l4-5.5h-3.8v-1.8h6.5v1.5l-3.9,5.4h4.1L339.5,279.2L339.5,279.2z"/>
	<path class="st0" d="M339.9,270.5h2.6l1.6,4.9c0.1,0.4,0.2,0.9,0.3,1.5l0,0c0.1-0.5,0.2-1,0.3-1.5l1.6-4.9h2.6l-3.7,9.9
		c-0.3,0.9-0.8,1.6-1.4,2c-0.6,0.5-1.4,0.7-2.2,0.7c-0.4,0-0.8,0-1.2-0.1v-1.9c0.3,0.1,0.6,0.1,0.9,0.1c0.4,0,0.8-0.1,1.1-0.4
		s0.6-0.6,0.7-1.2l0.1-0.4L339.9,270.5z"/>
	<path class="st0" d="M357.2,279.4c-1,0-1.8-0.4-2.4-1.2s-0.9-1.9-0.9-3.3s0.3-2.5,0.9-3.3c0.6-0.8,1.4-1.2,2.5-1.2s1.9,0.4,2.5,1.3
		h0.1c-0.1-0.7-0.2-1.2-0.2-1.7v-2.8h2.4v12h-1.8l-0.5-1.1h-0.1C359.1,278.9,358.3,279.4,357.2,279.4z M358,277.5
		c0.6,0,1.1-0.2,1.3-0.5c0.3-0.4,0.4-1,0.5-1.8v-0.3c0-0.9-0.1-1.6-0.4-2s-0.8-0.6-1.4-0.6c-0.5,0-0.9,0.2-1.2,0.7s-0.4,1.1-0.4,2
		s0.1,1.5,0.4,1.9S357.5,277.5,358,277.5z"/>
	<path class="st0" d="M372.5,274.8c0,1.4-0.4,2.5-1.1,3.3s-1.8,1.2-3.1,1.2c-0.8,0-1.6-0.2-2.2-0.6s-1.1-0.9-1.5-1.6
		s-0.5-1.5-0.5-2.4c0-1.4,0.4-2.5,1.1-3.3c0.7-0.8,1.8-1.2,3.1-1.2c0.8,0,1.6,0.2,2.2,0.5s1.1,0.9,1.5,1.6S372.5,273.9,372.5,274.8z
		 M366.5,274.8c0,0.9,0.1,1.5,0.4,2c0.3,0.4,0.7,0.7,1.4,0.7c0.6,0,1.1-0.2,1.4-0.7c0.3-0.4,0.4-1.1,0.4-2s-0.1-1.5-0.4-1.9
		s-0.7-0.6-1.4-0.6c-0.6,0-1.1,0.2-1.4,0.6S366.5,273.9,366.5,274.8z"/>
	<path class="st0" d="M382.1,270.5v1.2l-1.4,0.4c0.2,0.4,0.4,0.8,0.4,1.3c0,0.9-0.3,1.7-1,2.2s-1.6,0.8-2.7,0.8H377h-0.4
		c-0.2,0.2-0.4,0.4-0.4,0.6c0,0.3,0.4,0.5,1.3,0.5h1.5c1,0,1.7,0.2,2.2,0.6s0.8,1,0.8,1.8c0,1-0.4,1.8-1.3,2.4s-2.1,0.8-3.7,0.8
		c-1.2,0-2.2-0.2-2.8-0.6s-1-1-1-1.8c0-0.5,0.2-1,0.5-1.3s0.8-0.6,1.4-0.8c-0.2-0.1-0.5-0.3-0.6-0.5c-0.2-0.2-0.3-0.5-0.3-0.8
		s0.1-0.6,0.3-0.8c0.2-0.2,0.5-0.4,0.8-0.7c-0.5-0.2-0.8-0.5-1.1-1c-0.3-0.4-0.4-1-0.4-1.5c0-1,0.3-1.7,0.9-2.2
		c0.6-0.5,1.5-0.8,2.7-0.8c0.2,0,0.5,0,0.9,0.1s0.6,0.1,0.6,0.1L382.1,270.5L382.1,270.5z M375.3,280.4c0,0.3,0.2,0.6,0.5,0.8
		c0.3,0.2,0.8,0.3,1.3,0.3c0.9,0,1.5-0.1,2-0.4s0.7-0.6,0.7-1c0-0.3-0.1-0.6-0.4-0.7c-0.3-0.1-0.7-0.2-1.3-0.2h-1.2
		c-0.4,0-0.8,0.1-1.1,0.3C375.5,279.8,375.3,280.1,375.3,280.4z M376.2,273.3c0,0.5,0.1,0.8,0.3,1.1c0.2,0.3,0.5,0.4,1,0.4
		c0.4,0,0.8-0.1,1-0.4s0.3-0.7,0.3-1.1c0-1.1-0.4-1.6-1.3-1.6S376.2,272.3,376.2,273.3z"/>
	<path class="st0" d="M383.2,278.1c0-0.4,0.1-0.8,0.4-1s0.6-0.3,1-0.3s0.8,0.1,1,0.3c0.2,0.2,0.4,0.6,0.4,1s-0.1,0.7-0.4,1
		c-0.2,0.2-0.6,0.4-1,0.4s-0.8-0.1-1-0.3C383.3,278.8,383.2,278.5,383.2,278.1z"/>
	<path class="st0" d="M33.5,301.2h-2.4v-6.6v-1.1v-1.2c-0.4,0.4-0.7,0.7-0.8,0.8l-1.3,1.1l-1.2-1.5l3.7-2.9h2V301.2z"/>
	<path class="st0" d="M44.7,301.2h-8v-1.7l2.9-2.9c0.8-0.9,1.4-1.5,1.7-1.8s0.4-0.6,0.6-0.9c0.1-0.3,0.2-0.6,0.2-0.9
		c0-0.5-0.1-0.8-0.4-1c-0.3-0.2-0.6-0.3-1-0.3s-0.9,0.1-1.3,0.3c-0.4,0.2-0.9,0.5-1.3,0.9l-1.3-1.6c0.6-0.5,1-0.8,1.4-1
		s0.8-0.4,1.2-0.5s0.9-0.2,1.5-0.2c0.7,0,1.3,0.1,1.9,0.4s1,0.6,1.3,1.1s0.5,1,0.5,1.6c0,0.5-0.1,1-0.3,1.5s-0.5,0.9-0.9,1.4
		s-1.1,1.2-2.1,2.1l-1.5,1.4v0.1h5v2H44.7z"/>
	<path class="st0" d="M53.3,292.3c0,0.7-0.2,1.3-0.6,1.8c-0.4,0.5-1,0.8-1.8,1l0,0c0.9,0.1,1.6,0.4,2.1,0.8s0.7,1,0.7,1.8
		c0,1.1-0.4,2-1.2,2.6s-1.9,0.9-3.4,0.9c-1.2,0-2.3-0.2-3.3-0.6v-2.1c0.4,0.2,0.9,0.4,1.5,0.5s1.1,0.2,1.6,0.2
		c0.8,0,1.4-0.1,1.8-0.4c0.4-0.3,0.6-0.7,0.6-1.3c0-0.5-0.2-0.9-0.7-1.1s-1.1-0.3-2.1-0.3h-0.9v-1.9h0.9c0.9,0,1.5-0.1,1.9-0.3
		c0.4-0.2,0.6-0.6,0.6-1.2c0-0.9-0.5-1.3-1.6-1.3c-0.4,0-0.8,0.1-1.1,0.2c-0.4,0.1-0.8,0.3-1.3,0.6l-1.1-1.7c1-0.8,2.3-1.1,3.7-1.1
		c1.2,0,2.1,0.2,2.8,0.7C53,290.8,53.3,291.5,53.3,292.3z"/>
	<path class="st0" d="M63.2,298.8h-1.4v2.4h-2.4v-2.4h-4.9v-1.6l5-7.4h2.2v7.2h1.4v1.8H63.2z M59.4,297v-1.9c0-0.3,0-0.8,0-1.4
		s0-1,0.1-1.1h-0.1c-0.2,0.4-0.4,0.8-0.7,1.2l-2.1,3.2L59.4,297L59.4,297z"/>
	<path class="st0" d="M68.2,293.9c1.1,0,2,0.3,2.6,0.9c0.7,0.6,1,1.5,1,2.5c0,1.3-0.4,2.3-1.2,2.9c-0.8,0.7-1.9,1-3.4,1
		c-1.3,0-2.3-0.2-3.1-0.6v-2.1c0.4,0.2,0.9,0.4,1.4,0.5s1.1,0.2,1.6,0.2c1.5,0,2.2-0.6,2.2-1.8c0-1.2-0.8-1.7-2.3-1.7
		c-0.3,0-0.6,0-0.9,0.1c-0.3,0.1-0.6,0.1-0.8,0.2l-1-0.5l0.4-5.8h6.2v2h-4.1l-0.2,2.2l0.3-0.1C67.4,293.9,67.8,293.9,68.2,293.9z"/>
	<path class="st0" d="M73.1,296.3c0-2.3,0.5-3.9,1.4-5c1-1.1,2.4-1.7,4.3-1.7c0.7,0,1.2,0,1.5,0.1v1.9c-0.5-0.1-0.9-0.2-1.4-0.2
		c-0.8,0-1.5,0.1-2,0.4s-0.9,0.6-1.2,1.1s-0.4,1.2-0.5,2.1h0.1c0.5-0.9,1.3-1.3,2.5-1.3c1,0,1.8,0.3,2.4,1s0.9,1.5,0.9,2.7
		s-0.3,2.2-1,2.9s-1.6,1.1-2.9,1.1c-0.8,0-1.6-0.2-2.2-0.6c-0.6-0.4-1.1-1-1.5-1.7C73.3,298.3,73.1,297.4,73.1,296.3z M77.3,299.4
		c0.5,0,0.9-0.2,1.2-0.5s0.4-0.8,0.4-1.5c0-0.6-0.1-1-0.4-1.3s-0.6-0.5-1.2-0.5c-0.5,0-0.9,0.2-1.3,0.5c-0.3,0.3-0.5,0.7-0.5,1.1
		c0,0.6,0.2,1.1,0.5,1.6C76.3,299.2,76.8,299.4,77.3,299.4z"/>
	<path class="st0" d="M83.5,301.2l4.3-9.4h-5.6v-2h8.2v1.5l-4.3,9.9H83.5z"/>
	<path class="st0" d="M95.4,289.6c1.1,0,2,0.2,2.6,0.7c0.7,0.5,1,1.2,1,2c0,0.6-0.2,1.1-0.5,1.6s-0.8,0.9-1.6,1.2
		c0.9,0.5,1.5,0.9,1.8,1.4c0.4,0.5,0.6,1,0.6,1.6c0,0.9-0.4,1.7-1.1,2.3s-1.7,0.9-2.9,0.9s-2.2-0.3-2.9-0.8s-1.1-1.3-1.1-2.3
		c0-0.7,0.2-1.2,0.5-1.7s0.9-1,1.7-1.3c-0.7-0.4-1.1-0.9-1.4-1.3c-0.3-0.5-0.4-1-0.4-1.5c0-0.8,0.3-1.5,1-2
		C93.4,289.9,94.3,289.6,95.4,289.6z M93.6,298.2c0,0.4,0.2,0.8,0.5,1s0.7,0.4,1.3,0.4s1-0.1,1.3-0.4s0.4-0.6,0.4-1
		c0-0.3-0.1-0.7-0.4-1c-0.3-0.3-0.8-0.6-1.4-1C94.2,296.7,93.6,297.4,93.6,298.2z M95.4,291.4c-0.4,0-0.7,0.1-1,0.3
		c-0.3,0.2-0.4,0.5-0.4,0.8s0.1,0.6,0.3,0.8c0.2,0.2,0.6,0.5,1.1,0.8c0.5-0.2,0.9-0.5,1.1-0.7s0.3-0.5,0.3-0.9s-0.1-0.6-0.4-0.9
		C96.1,291.5,95.8,291.4,95.4,291.4z"/>
	<path class="st0" d="M108.5,294.7c0,2.2-0.5,3.9-1.4,5s-2.4,1.7-4.3,1.7c-0.7,0-1.2,0-1.5-0.1v-1.9c0.4,0.1,0.9,0.2,1.4,0.2
		c0.8,0,1.5-0.1,2-0.4c0.5-0.2,0.9-0.6,1.2-1.1s0.4-1.2,0.5-2.1h-0.1c-0.3,0.5-0.7,0.8-1,1c-0.4,0.2-0.9,0.3-1.5,0.3
		c-1,0-1.8-0.3-2.4-1c-0.6-0.6-0.9-1.5-0.9-2.7s0.3-2.2,1-2.9s1.6-1.1,2.8-1.1c0.8,0,1.6,0.2,2.2,0.6s1.1,1,1.5,1.7
		C108.4,292.7,108.5,293.6,108.5,294.7z M104.4,291.6c-0.5,0-0.9,0.2-1.2,0.5s-0.4,0.8-0.4,1.5c0,0.6,0.1,1,0.4,1.3
		c0.3,0.3,0.6,0.5,1.2,0.5c0.5,0,0.9-0.2,1.3-0.5c0.3-0.3,0.5-0.7,0.5-1.1c0-0.6-0.2-1.1-0.5-1.6
		C105.3,291.8,104.9,291.6,104.4,291.6z"/>
	<path class="st0" d="M117.7,295.5c0,2-0.3,3.5-1,4.4c-0.7,1-1.7,1.4-3,1.4s-2.3-0.5-3-1.5s-1-2.5-1-4.4c0-2,0.3-3.5,1-4.5
		s1.7-1.4,3-1.4s2.3,0.5,3,1.5C117.3,292.1,117.7,293.6,117.7,295.5z M112.1,295.5c0,1.4,0.1,2.4,0.4,3s0.6,0.9,1.2,0.9
		c0.6,0,1-0.3,1.2-0.9s0.4-1.6,0.4-3s-0.1-2.4-0.4-3c-0.3-0.6-0.7-0.9-1.2-0.9c-0.6,0-1,0.3-1.2,0.9
		C112.2,293.1,112.1,294.1,112.1,295.5z"/>
	<path class="st0" d="M119.1,300.1c0-0.4,0.1-0.8,0.4-1s0.6-0.3,1-0.3s0.8,0.1,1,0.3c0.2,0.2,0.4,0.6,0.4,1s-0.1,0.7-0.4,1
		c-0.2,0.2-0.6,0.4-1,0.4s-0.8-0.1-1-0.3C119.3,300.8,119.1,300.5,119.1,300.1z M121.5,297.4h-1.9l-0.4-7.6h2.7L121.5,297.4z"/>
	<path class="st0" d="M136.4,295.3c0,0.8-0.1,1.4-0.4,2.1c-0.2,0.6-0.6,1.1-1,1.5s-0.9,0.5-1.5,0.5c-0.4,0-0.7-0.1-1-0.3
		s-0.5-0.4-0.6-0.7h-0.1c-0.6,0.7-1.3,1-2.1,1c-0.9,0-1.6-0.3-2.2-0.8c-0.6-0.5-0.8-1.3-0.8-2.3c0-1.1,0.3-2,1-2.7
		c0.7-0.7,1.6-1,2.7-1c0.4,0,0.9,0,1.5,0.1s1,0.2,1.3,0.3l-0.2,3.8c0,0.7,0.2,1.1,0.6,1.1c0.3,0,0.6-0.2,0.8-0.7s0.3-1.1,0.3-1.9
		s-0.2-1.6-0.5-2.2s-0.8-1.1-1.5-1.5s-1.4-0.5-2.2-0.5c-1.1,0-2,0.2-2.7,0.6c-0.8,0.4-1.4,1.1-1.8,1.9s-0.6,1.8-0.6,2.8
		c0,1.4,0.4,2.5,1.2,3.3s1.9,1.2,3.3,1.2c0.6,0,1.2-0.1,1.8-0.2c0.7-0.1,1.3-0.3,2-0.5v1.5c-1.1,0.5-2.4,0.7-3.7,0.7
		c-2,0-3.5-0.5-4.6-1.6c-1.1-1-1.7-2.5-1.7-4.3c0-1.3,0.3-2.5,0.8-3.5c0.6-1,1.4-1.9,2.4-2.5s2.2-0.9,3.6-0.9c1.1,0,2.2,0.2,3.1,0.7
		c0.9,0.5,1.6,1.1,2.1,2C136.1,293.2,136.4,294.2,136.4,295.3z M128.4,296.3c0,1.1,0.4,1.6,1.3,1.6c0.5,0,0.8-0.2,1.1-0.5
		c0.2-0.3,0.4-0.9,0.4-1.6l0.1-1.7c-0.3-0.1-0.6-0.1-0.9-0.1c-0.7,0-1.2,0.2-1.5,0.6C128.5,295,128.4,295.6,128.4,296.3z"/>
	<path class="st0" d="M145,294.6l-0.4,1.8h2v1.6h-2.3l-0.6,3.2H142l0.6-3.2h-1.5l-0.6,3.2h-1.7l0.6-3.2h-1.9v-1.6h2.2l0.4-1.8h-2
		V293h2.3l0.6-3.2h1.7l-0.6,3.2h1.5l0.6-3.2h1.7l-0.6,3.2h1.9v1.6H145z M141.4,296.4h1.5l0.4-1.8h-1.5L141.4,296.4z"/>
	<path class="st0" d="M156,297.6c0,0.8-0.3,1.5-0.9,2c-0.6,0.5-1.4,0.8-2.5,0.9v1.6h-1.1v-1.6c-1.3,0-2.4-0.2-3.3-0.7v-2.1
		c0.5,0.2,1,0.4,1.6,0.6s1.2,0.3,1.7,0.3v-2.4L151,296c-1-0.4-1.8-0.8-2.2-1.3s-0.6-1.1-0.6-1.8c0-0.8,0.3-1.4,0.9-1.9
		c0.6-0.5,1.4-0.8,2.5-0.9v-1.2h1.1v1.2c1.2,0.1,2.3,0.3,3.2,0.7l-0.7,1.8c-0.8-0.3-1.6-0.5-2.5-0.6v2.3c1,0.4,1.7,0.7,2.2,1
		s0.7,0.6,0.9,0.9C155.9,296.8,156,297.2,156,297.6z M150.5,293c0,0.2,0.1,0.4,0.2,0.6c0.2,0.1,0.4,0.3,0.8,0.5v-1.9
		C150.9,292.3,150.5,292.6,150.5,293z M153.7,297.7c0-0.2-0.1-0.4-0.3-0.6s-0.4-0.3-0.8-0.5v1.9
		C153.3,298.5,153.7,298.2,153.7,297.7z"/>
	<path class="st0" d="M162.5,293.2c0,1.2-0.2,2.1-0.7,2.7s-1.1,0.9-2,0.9s-1.5-0.3-2-0.9s-0.7-1.5-0.7-2.7c0-2.4,0.9-3.6,2.7-3.6
		c0.9,0,1.6,0.3,2,0.9C162.3,291.2,162.5,292,162.5,293.2z M159.1,293.2c0,0.7,0.1,1.2,0.2,1.5s0.3,0.5,0.6,0.5c0.5,0,0.8-0.7,0.8-2
		s-0.2-2-0.8-2c-0.3,0-0.4,0.2-0.6,0.5S159.1,292.5,159.1,293.2z M167.9,289.8l-6.3,11.4h-1.9l6.3-11.4H167.9z M170.5,297.7
		c0,1.2-0.2,2.1-0.7,2.7s-1.1,0.9-2,0.9s-1.5-0.3-2-0.9s-0.7-1.5-0.7-2.7c0-2.4,0.9-3.6,2.7-3.6c0.9,0,1.6,0.3,2,0.9
		C170.3,295.7,170.5,296.6,170.5,297.7z M167.1,297.8c0,0.7,0.1,1.2,0.2,1.5s0.3,0.5,0.6,0.5c0.5,0,0.8-0.7,0.8-2s-0.2-2-0.8-2
		c-0.3,0-0.4,0.2-0.6,0.5S167.1,297.1,167.1,297.8z"/>
	<path class="st0" d="M171.1,297.1l3.4-7.4h1.1l3.9,7.4h-1.9l-2.5-5l-2.2,5H171.1z"/>
	<path class="st0" d="M191.6,301.2h-2.9l-0.9-0.9c-1,0.7-2.1,1-3.4,1c-1.3,0-2.3-0.3-3-0.9s-1.1-1.4-1.1-2.4c0-0.7,0.2-1.3,0.5-1.8
		s0.9-1,1.6-1.4c-0.4-0.4-0.7-0.9-0.9-1.3s-0.3-0.9-0.3-1.3c0-0.8,0.3-1.4,0.9-1.9c0.6-0.5,1.4-0.7,2.4-0.7s1.7,0.2,2.3,0.7
		s0.9,1.1,0.9,1.8c0,0.6-0.2,1.2-0.5,1.7s-0.9,1-1.7,1.5l2.2,2.2c0.4-0.6,0.7-1.4,1-2.4h2.5c-0.2,0.7-0.4,1.4-0.8,2.1
		s-0.7,1.3-1.1,1.8L191.6,301.2z M182.7,297.9c0,0.4,0.2,0.8,0.5,1.1s0.8,0.4,1.3,0.4c0.7,0,1.2-0.2,1.8-0.5l-2.6-2.6
		c-0.3,0.2-0.5,0.5-0.7,0.7C182.8,297.3,182.7,297.6,182.7,297.9z M185.5,292.3c0-0.3-0.1-0.5-0.3-0.7s-0.4-0.2-0.7-0.2
		s-0.6,0.1-0.8,0.2c-0.2,0.2-0.3,0.4-0.3,0.7c0,0.5,0.2,1,0.7,1.5c0.4-0.2,0.8-0.5,1-0.7C185.4,293,185.5,292.7,185.5,292.3z"/>
	<path class="st0" d="M196.9,289l-0.3,2.9l2.9-0.8l0.3,2l-2.7,0.2l1.7,2.3l-1.8,0.9l-1.2-2.4l-1.1,2.4l-1.8-0.9l1.7-2.3l-2.6-0.2
		l0.3-2l2.9,0.8l-0.3-2.9H196.9z"/>
	<path class="st0" d="M200.9,296.8c0-1.4,0.2-2.7,0.6-3.9c0.4-1.2,1-2.3,1.7-3.2h2c-0.7,1-1.3,2.1-1.7,3.3s-0.6,2.4-0.6,3.7
		c0,1.3,0.2,2.5,0.6,3.7s0.9,2.3,1.6,3.2h-1.9c-0.8-0.9-1.3-1.9-1.8-3.1C201.1,299.4,200.9,298.2,200.9,296.8z"/>
	<path class="st0" d="M210.5,296.8c0,1.4-0.2,2.6-0.6,3.8c-0.4,1.2-1,2.2-1.7,3.1h-1.9c0.7-1,1.2-2,1.6-3.2c0.4-1.2,0.6-2.4,0.6-3.7
		c0-1.3-0.2-2.5-0.6-3.7s-0.9-2.3-1.7-3.3h2c0.8,0.9,1.3,2,1.8,3.2C210.3,294.2,210.5,295.4,210.5,296.8z"/>
	<path class="st0" d="M217.7,303.7h-6.6v-1.1h6.6V303.7z"/>
	<path class="st1" d="M28.5,250.2v-12.9h4.1c0.8,0,1.5,0.1,2,0.2c0.6,0.2,1,0.4,1.4,0.7c0.4,0.3,0.6,0.6,0.8,1.1
		c0.2,0.4,0.3,0.9,0.3,1.4c0,0.3,0,0.6-0.1,0.9s-0.2,0.6-0.5,0.8s-0.5,0.5-0.8,0.7s-0.7,0.4-1.1,0.5c0.9,0.2,1.7,0.5,2.1,1
		c0.5,0.5,0.7,1.1,0.7,1.9c0,0.5-0.1,1-0.3,1.5s-0.5,0.8-0.9,1.2c-0.4,0.3-0.9,0.6-1.4,0.8s-1.2,0.3-1.9,0.3h-4.4V250.2z
		 M30.2,243.1h2.3c0.5,0,0.9-0.1,1.3-0.2c0.4-0.1,0.7-0.3,0.9-0.5s0.4-0.4,0.5-0.7c0.1-0.3,0.2-0.6,0.2-0.9c0-0.8-0.2-1.3-0.7-1.7
		c-0.5-0.4-1.2-0.5-2.1-0.5h-2.4V243.1z M30.2,244.3v4.5H33c0.5,0,0.9-0.1,1.3-0.2c0.4-0.1,0.7-0.3,0.9-0.5s0.4-0.5,0.5-0.7
		s0.2-0.6,0.2-0.9c0-0.7-0.2-1.2-0.7-1.6s-1.2-0.6-2.1-0.6L30.2,244.3L30.2,244.3z"/>
	<path class="st1" d="M43.5,240.9c0.7,0,1.3,0.1,1.8,0.3c0.5,0.2,1,0.5,1.4,0.9s0.7,0.9,0.9,1.5s0.3,1.2,0.3,1.9
		c0,0.7-0.1,1.4-0.3,1.9c-0.2,0.6-0.5,1.1-0.9,1.5s-0.8,0.7-1.4,0.9c-0.5,0.2-1.1,0.3-1.8,0.3s-1.3-0.1-1.8-0.3
		c-0.5-0.2-1-0.5-1.4-0.9s-0.7-0.9-0.9-1.5s-0.3-1.2-0.3-1.9c0-0.7,0.1-1.4,0.3-1.9c0.2-0.6,0.5-1.1,0.9-1.5s0.8-0.7,1.4-0.9
		C42.3,241,42.9,240.9,43.5,240.9z M43.5,249.1c0.9,0,1.6-0.3,2-0.9s0.7-1.4,0.7-2.5s-0.2-1.9-0.7-2.5c-0.4-0.6-1.1-0.9-2-0.9
		c-0.5,0-0.9,0.1-1.2,0.2c-0.3,0.2-0.6,0.4-0.8,0.7s-0.4,0.7-0.5,1.1s-0.2,0.9-0.2,1.5s0.1,1,0.2,1.4c0.1,0.4,0.3,0.8,0.5,1.1
		s0.5,0.5,0.8,0.7C42.7,249,43.1,249.1,43.5,249.1z"/>
	<path class="st1" d="M51.7,236.9v13.3h-1.6v-13.3H51.7z"/>
	<path class="st1" d="M60.9,250.2c-0.2,0-0.4-0.1-0.4-0.3l-0.1-1.1c-0.4,0.5-0.8,0.9-1.3,1.1c-0.5,0.3-1.1,0.4-1.7,0.4
		c-0.5,0-1-0.1-1.4-0.3c-0.4-0.2-0.8-0.5-1.1-0.9s-0.5-0.9-0.7-1.5s-0.2-1.3-0.2-2s0.1-1.3,0.3-1.9s0.4-1.1,0.8-1.5
		c0.3-0.4,0.8-0.8,1.2-1c0.5-0.2,1-0.4,1.7-0.4c0.6,0,1,0.1,1.4,0.3c0.4,0.2,0.8,0.5,1.1,0.8v-5.1h1.6v13.4H60.9z M57.8,249
		c0.5,0,1-0.1,1.4-0.4c0.4-0.2,0.8-0.6,1.1-1v-4.4c-0.3-0.4-0.6-0.7-1-0.8c-0.4-0.2-0.7-0.2-1.2-0.2c-0.9,0-1.5,0.3-2,0.9
		s-0.7,1.5-0.7,2.6c0,0.6,0.1,1.1,0.2,1.5c0.1,0.4,0.3,0.8,0.5,1c0.2,0.3,0.4,0.5,0.7,0.6C57.1,249,57.4,249,57.8,249z"/>
</g>
<g id="Layer_2" class="st2">
	<g id="path-5_1_" class="st3">
		<path class="st4" d="M421,610.4H-9c-3.9,0-7-3.1-7-7v-374c0-3.9,3.1-7,7-7h430c3.9,0,7,3.1,7,7v374
			C428,607.3,424.9,610.4,421,610.4z M-9,226.4c-1.7,0-3,1.3-3,3v374c0,1.7,1.3,3,3,3h430c1.7,0,3-1.3,3-3v-374c0-1.7-1.3-3-3-3H-9z
			"/>
	</g>
</g>
</svg>
