<svg xmlns="http://www.w3.org/2000/svg" viewBox="0 0 346 76.4"><defs><style>.a{fill:#48525b;}.b{fill:#05beff;}</style></defs><title>fonts-4</title><path class="a" d="M31.3,54a12.83,12.83,0,0,0-.1-1.8h1.2c0,0.6-.1,1.2-0.1,1.8h1.4a10.36,10.36,0,0,0,1.6-.1V55c-0.3,0-.9-0.1-1.6-0.1H32.4v1.4h2.4c0,0.4-.1,1.2-0.1,2.6a17.89,17.89,0,0,0,.1,2.7H32.4v1.3h0.8a12.17,12.17,0,0,0,2.1-.1v1.1c-0.5,0-1.2-.1-2.1-0.1H32.4v1a12.13,12.13,0,0,0,.1,1.8H31.2c0-.6.1-1.2,0.1-1.8v-1H30.1a12.27,12.27,0,0,0-2.3.1V62.8c0.6,0,1.3.1,2,.1h1.6V61.6H28.8c0-.5.1-1.4,0.1-2.7a16.39,16.39,0,0,0-.1-2.6h2.6V54.9H29.7a6.6,6.6,0,0,0-1.4.1V53.9c0.5,0,1.1.1,1.6,0.1h1.4Zm2.4,4.4V57.2H29.9v1.2h3.8Zm0,2.2V59.4H29.9v1.2h3.8Zm7.7-4.4v8.7a1.55,1.55,0,0,1-.4,1.4,4.36,4.36,0,0,1-1.8.5,3.51,3.51,0,0,0-.6-1.4,3.47,3.47,0,0,0,1.3-.1c0.2,0,.3-0.3.3-0.7V61.5H37.1a12.88,12.88,0,0,1-.6,2.5,11.61,11.61,0,0,1-1.4,2.7,6.57,6.57,0,0,0-1.2-.6,8.37,8.37,0,0,0,1.4-2.4,12.17,12.17,0,0,0,.6-3.1c0.1-1.2.1-2.5,0.1-3.9s0-2.7-.1-3.8h5.3A17.22,17.22,0,0,1,41.4,56.2Zm-1.1,4.4V57.7H37.4c0,0.9,0,1.9-.1,2.9h3Zm0-3.8V54H37.4v2.8h2.9Z" transform="translate(-27.6 -22.9)"/><path class="a" d="M48.2,53.6l-4.3.3a3,3,0,0,0-.4-1,24.88,24.88,0,0,0,3.7-.2,15.27,15.27,0,0,0,3.1-.5,3.7,3.7,0,0,0,.5,1.1A14.69,14.69,0,0,1,48.2,53.6Zm-0.5,3.7,1.5-.8H44V55.7h0.6a6.66,6.66,0,0,0-.6-1.2,2,2,0,0,1,.8-0.4,6.66,6.66,0,0,1,.6,1.2l-0.6.4h5.1l-0.7-.4a6,6,0,0,0,.9-1.5L51,54.4a3.88,3.88,0,0,0-1,1.4h0.4v0.9c-0.3.2-1,.5-2.1,1.1L48.5,58l-0.6.6h2.9c0,0.5-.1,1.3-0.1,2.2v4a1.74,1.74,0,0,1-.3,1.2,2.66,2.66,0,0,1-1.5.6,7.6,7.6,0,0,0-.4-1.1q1.2,0,1.2-.6V59.4H44.9v7.2H43.7c0-.8.1-1.6,0.1-2.2V60.8a17,17,0,0,0-.1-2.2h3.9a18,18,0,0,0-1.7-1.4l0.6-.6Zm1.7,4.5a2,2,0,0,1-.8.4l-0.2-.5a7.72,7.72,0,0,0-1.5.2c-0.5.1-.9,0.2-1.3,0.3l-0.3-.9a1.54,1.54,0,0,0,.7-0.7,7,7,0,0,1,.8-1,3.6,3.6,0,0,0,.9.5l-1.2,1.2,1.7-.1a1.06,1.06,0,0,1-.2-0.5,1.61,1.61,0,0,1,.7-0.4C49,61,49.3,61.5,49.4,61.8Zm-0.6.7a3.6,3.6,0,0,0-.5.9l-0.6.9c0.3,0.2.7,0.4,1,.6l-0.6.7a5.5,5.5,0,0,0-.9-0.7c-0.6.4-1.1,0.7-1.4,0.9a9.22,9.22,0,0,1-.5-0.8c0.5-.2,1-0.4,1.4-0.6a3.38,3.38,0,0,0-1-.4l0.3-.6L47.2,64a2.51,2.51,0,0,1,.4-0.7H45.7V62.6a3.11,3.11,0,0,1,1.1.1h2V62.5Zm-0.7-7.4a3,3,0,0,0-1,.4,5.09,5.09,0,0,1-.4-1.4,6.89,6.89,0,0,1,.8-0.3A13.92,13.92,0,0,0,48.1,55.1Zm6,11.8c0-1,.1-2.2.1-3.5a22.81,22.81,0,0,0-3,.1V62.4c0.6,0,1.6.1,3,.1V59.9a21.92,21.92,0,0,0-2.9.1V59c0.6,0,1.1.1,1.4,0.1h2.4a16.65,16.65,0,0,0,.8-2.9c0.3,0.1.8,0.2,1.4,0.4a14.33,14.33,0,0,0-1.2,2.5,14.84,14.84,0,0,0,2.3-.1v1c-0.6,0-1.6-.1-3.1-0.1v2.6a21.85,21.85,0,0,0,2.8-.1v1.1a21,21,0,0,0-2.8-.1c0,1.2,0,2.4.1,3.5H54.1ZM58,54.4v1a8.8,8.8,0,0,0-1.4-.1H52.9a9.89,9.89,0,0,0-1.5.1v-1a4.92,4.92,0,0,1,1.4.1h3.7C56.8,54.5,57.3,54.4,58,54.4Zm-3.9,3.8c-0.3.1-.7,0.3-1,0.4-0.5-1.1-.7-1.8-0.8-1.9a6.31,6.31,0,0,0,.9-0.4C53.6,57.1,53.9,57.7,54.1,58.2Zm0.4-6.1c0.4,0.8.7,1.3,0.9,1.8a10.37,10.37,0,0,0-1,.4,11.2,11.2,0,0,0-.8-1.8A3.55,3.55,0,0,0,54.5,52.1Z" transform="translate(-27.6 -22.9)"/><path class="a" d="M66.2,53.6a13.39,13.39,0,0,0-.6,1.2h7.2c0,0.8-.1,1.9-0.1,3.1v5.6c0,0.9,0,1.9.1,3.1H71.5V65H62.6v1.7H61.3c0-1.2.1-2.3,0.1-3.1V58c0-1.1,0-2.1-.1-3.1h3.1a14.26,14.26,0,0,0,.9-2.7c0.5,0.2,1,.5,1.5.7A2.17,2.17,0,0,0,66.2,53.6Zm5.3,5.5V55.8H62.6v3.3h8.9Zm0,4.7V60.3H62.6v3.5h8.9Z" transform="translate(-27.6 -22.9)"/><path class="a" d="M78.1,54.8a11.48,11.48,0,0,0-1.9.1V53.8c0.7,0,1.4.1,2.1,0.1h4c-0.2-.5-0.4-0.9-0.6-1.4a4.79,4.79,0,0,0,1.3-.4,12.67,12.67,0,0,1,.6,1.8h3.2a20.92,20.92,0,0,0,2.6-.1v1.1c-0.8,0-1.6-.1-2.6-0.1H84.9a8.1,8.1,0,0,0,1.3.6A8.39,8.39,0,0,0,85,57.3h4.6c0,0.3-.1.8-0.1,1.2a6.6,6.6,0,0,0,.1,1.4H88.4V58.3H77.2v1.6H75.9c0-.5.1-1,0.1-1.2a8.17,8.17,0,0,0-.1-1.4h7.9a17.4,17.4,0,0,0,1.1-2.5H80.3a10.67,10.67,0,0,1,.9,1.9l-1.2.6a10.66,10.66,0,0,0-.9-1.9,4.61,4.61,0,0,0,1-.5l-2-.1h0Zm5.4,4.1c0,0.5-.1.9-0.1,1.4h4.7c0,0.6-.1,1.2-0.1,1.8v1.6a1.28,1.28,0,0,1-.6,1.3,8.54,8.54,0,0,1-1.9.6,3.36,3.36,0,0,0-.5-1.4,4.14,4.14,0,0,0,1.4-.2,0.73,0.73,0,0,0,.4-0.8V61.4H83.4v3.3a17,17,0,0,0,.1,2.2H82.1c0-.7.1-1.4,0.1-2.2V61.4H79.1v3.9H77.8c0-.5.1-1.3,0.1-2.4a17.77,17.77,0,0,0-.1-2.5h4.4a7.08,7.08,0,0,0-.1-1.4l1.4-.1h0Z" transform="translate(-27.6 -22.9)"/><path class="a" d="M95.7,59.5a11.8,11.8,0,0,0-.1-1.6h1.2c0,0.5-.1,1-0.1,1.6h1.2a13.42,13.42,0,0,0,2.1-.1v1.2c-0.6,0-1.3-.1-2.1-0.1H96.7v3.6a20.9,20.9,0,0,0,.1,2.5H95.6c0-.8.1-1.7,0.1-2.5V61.6A17.76,17.76,0,0,1,92.5,66a3.47,3.47,0,0,0-1.1-.8A19.91,19.91,0,0,0,95,60.4H94.2a14.77,14.77,0,0,0-2.1.1V59.3c0.7,0,1.4.1,2.1,0.1l1.5,0.1h0Zm1-5.4-4.1.6a5,5,0,0,0-.5-1.3,30.07,30.07,0,0,0,3.9-.3,15.52,15.52,0,0,0,3.4-.8,4.68,4.68,0,0,0,.8,1.4C99.2,53.8,98.1,53.9,96.7,54.1Zm-2.2,3.5c-0.4.2-.7,0.4-1.1,0.6a8.1,8.1,0,0,0-1.2-2.5,11.73,11.73,0,0,1,1.1-.5A25.78,25.78,0,0,1,94.5,57.6Zm2.5-.3a2,2,0,0,0-1.1.3c-0.2-.8-0.4-1.7-0.7-2.7l1.1-.2A25,25,0,0,1,97,57.3Zm3.4,6.5c-0.3.3-.7,0.6-1,0.9A20.5,20.5,0,0,0,97,62.1a3.82,3.82,0,0,0,.9-0.9C98.8,62.1,99.7,63,100.4,63.8ZM98.7,58a2.46,2.46,0,0,0-1.1-.4,12.78,12.78,0,0,0,1.5-3.1,13.92,13.92,0,0,0,1.3.6C99.8,56,99.3,57,98.7,58Zm5.5,6a42.14,42.14,0,0,1-3.9,2.8,3.84,3.84,0,0,0-1.1-1.1,10,10,0,0,0,2.8-1.6,16.15,16.15,0,0,0,3-2.9,14.25,14.25,0,0,0,1.2,1.1C105.7,62.8,105,63.3,104.2,64Zm0-4.7a26.73,26.73,0,0,1-3.2,2.6,3.18,3.18,0,0,0-1-1,12,12,0,0,0,2.6-1.8,19,19,0,0,0,2-2.2l1.2,0.9C105.5,58.1,104.9,58.6,104.2,59.3Zm-0.6-4a23.21,23.21,0,0,0-2.2,2.1,4.36,4.36,0,0,0-1.1-.9,13.3,13.3,0,0,0,2.4-1.9,14.23,14.23,0,0,0,1.8-1.9,5.3,5.3,0,0,0,1.2,1A9.57,9.57,0,0,0,103.6,55.3Z" transform="translate(-27.6 -22.9)"/><path class="a" d="M120.6,56.8V55.4h-5.1v3.4h-1.2V55.4h-5.2v1.4h-1.3c0-.5.1-0.9,0.1-1.2a3.75,3.75,0,0,0-.1-1.1h6.5V53.6h-3.1a11.57,11.57,0,0,0-2.1.1v-1c0.4,0,1.1.1,2,.1h7.3a12.84,12.84,0,0,0,2.2-.1v0.9h-5.1v0.9h6.4c0,0.3-.1.7-0.1,1.1a4.87,4.87,0,0,0,.1,1.2h-1.3Zm-1.4,7.9c0.4,0.4.8,0.9,1.2,1.3l-1.2.9a6.35,6.35,0,0,0-.7-1.2l-4.3.3a40,40,0,0,0-4.5.6,8.33,8.33,0,0,0-.4-1.5,5.87,5.87,0,0,0,2-.6,7.89,7.89,0,0,0,1.8-1.6h-2.6a13.42,13.42,0,0,0-2.1.1V62c0.6,0,1.3.1,2.1,0.1h8.9a14.77,14.77,0,0,0,2.1-.1v1c-0.7,0-1.4-.1-2.1-0.1h-4.5l-1.5,1.2c-0.5.4-.9,0.8-1.4,1.2,0.5,0,1.3,0,2.4-.1s2.2-.1,3.5-0.2l-1-1a7.46,7.46,0,0,0,1.2-.7Zm-5.9-5.9h-3.6V57.9h3.6v0.9Zm4.4,0.9a16.22,16.22,0,0,0,2.3-.1v1c-0.8,0-1.5-.1-2.3-0.1h-6.1a11.48,11.48,0,0,0-1.9.1v-1c0.6,0,1.2.1,1.8,0.1h6.2Zm-4.4-2.5h-3.4V56.3h3.4v0.9Zm6.6-.1h-3.5V56.2h3.5v0.9Zm0.3,1.6h-3.8V57.8h3.8v0.9Z" transform="translate(-27.6 -22.9)"/><path class="a" d="M130.1,55.8a11.8,11.8,0,0,0,.1,1.6h-4.9v7.2c0,0.4,0,1.1.1,2.2h-1.2c0-.7.1-1.5,0.1-2.4V54.5a17.67,17.67,0,0,0-.1-1.9h6c0,0.4-.1.9-0.1,1.4v1.8h0ZM129,54.6V53.5h-3.7v1.1H129Zm0,1.9V55.4h-3.7v1.1H129Zm4.7,2.3c0,0.6-.1,1.2-0.1,1.8v2.9a10.28,10.28,0,0,0,.1,1.7h-5.9a11.48,11.48,0,0,0,.1-1.8V60.6a12.13,12.13,0,0,0-.1-1.8h5.9Zm-1.1,2.6V59.8H129v1.6h3.6Zm0,2.8V62.4H129v1.8h3.6Zm-0.9-10.1a9.51,9.51,0,0,0-.1-1.4h6c0,0.6-.1,1.2-0.1,1.8V65.2a1.45,1.45,0,0,1-.5,1.3,3.92,3.92,0,0,1-1.4.4,7,7,0,0,0-.8-1.4h1.1a0.57,0.57,0,0,0,.6-0.7V57.4h-4.9c0-.5.1-1,0.1-1.6V54.1h0Zm4.8,0.5V53.5h-3.7v1.1h3.7Zm0,1.9V55.4h-3.7v1.1h3.7Z" transform="translate(-27.6 -22.9)"/><path class="a" d="M34,71.4H31.5v9.5H30.1V71.4H27.6V70.2H34v1.2Z" transform="translate(-27.6 -22.9)"/><path class="a" d="M41.9,80.9H40.7V76.4a1.59,1.59,0,0,0-.4-1.2,1.16,1.16,0,0,0-1-.4,2.06,2.06,0,0,0-1.5.8,3.14,3.14,0,0,0-.7,2.1v3.2H35.9V70.2h1.2v5a3.84,3.84,0,0,1,1.1-1.1,3.31,3.31,0,0,1,1.5-.4,2.2,2.2,0,0,1,1.7.6,2.11,2.11,0,0,1,.6,1.6l-0.1,5h0Z" transform="translate(-27.6 -22.9)"/><path class="a" d="M50,78.5a2.35,2.35,0,0,1-1,1.8,3.14,3.14,0,0,1-2.1.7,3.32,3.32,0,0,1-2.5-1,3.7,3.7,0,0,1-1-2.7,3.47,3.47,0,0,1,1-2.7,3.55,3.55,0,0,1,2.5-1,3.29,3.29,0,0,1,2.2.8,3.62,3.62,0,0,1,.8,2.8h-5a2.4,2.4,0,0,0,.6,1.9,2,2,0,0,0,1.5.6,1.8,1.8,0,0,0,1.1-.3,1.7,1.7,0,0,0,.6-1H50v0.1Zm-1.5-2.1a1.71,1.71,0,0,0-.6-1.2,2.17,2.17,0,0,0-2.2,0,2.28,2.28,0,0,0-.8,1.2h3.6Z" transform="translate(-27.6 -22.9)"/><path class="a" d="M65.8,83.2H64.6V80a1.42,1.42,0,0,1-.9.8,2.13,2.13,0,0,1-1.2.3,2.88,2.88,0,0,1-2.1-.9,3.77,3.77,0,0,1-.9-2.8,3.67,3.67,0,0,1,.9-2.7,2.88,2.88,0,0,1,2.1-.9,3.73,3.73,0,0,1,1.2.2,3.24,3.24,0,0,1,.9.8V73.9h1.2v9.3Zm-1.3-5.8a3,3,0,0,0-.5-1.8,1.89,1.89,0,0,0-1.3-.7,1.51,1.51,0,0,0-1.4.7,3.45,3.45,0,0,0-.5,1.8,3.56,3.56,0,0,0,.5,1.9,1.51,1.51,0,0,0,1.4.7,1.57,1.57,0,0,0,1.3-.7A3.56,3.56,0,0,0,64.5,77.4Z" transform="translate(-27.6 -22.9)"/><path class="a" d="M73.9,80.9H72.7V79.6a3.84,3.84,0,0,1-1.1,1.1,3.31,3.31,0,0,1-1.5.4,2.2,2.2,0,0,1-1.7-.6,2.11,2.11,0,0,1-.6-1.6V74H69v4.5a1.59,1.59,0,0,0,.4,1.2,1.16,1.16,0,0,0,1,.4,2.06,2.06,0,0,0,1.5-.8,3.14,3.14,0,0,0,.7-2.1V74h1.2v6.9h0.1Z" transform="translate(-27.6 -22.9)"/><path class="a" d="M79.4,71.9H78.2V70.3h1.2v1.6Zm0,9H78.2v-7h1.2v7Z" transform="translate(-27.6 -22.9)"/><path class="a" d="M90,78.1a2.58,2.58,0,0,1-.9,2.1,3.57,3.57,0,0,1-2.3.8,3.25,3.25,0,0,1-2.4-1,3.34,3.34,0,0,1-1-2.7,3.47,3.47,0,0,1,1-2.7,3.69,3.69,0,0,1,2.4-1,3.23,3.23,0,0,1,2.2.7,2.46,2.46,0,0,1,.8,1.7H88.4a1.1,1.1,0,0,0-.5-1,2,2,0,0,0-2.5.3,3.31,3.31,0,0,0,0,3.8,2,2,0,0,0,1.4.6,1.84,1.84,0,0,0,1.3-.4,2,2,0,0,0,.5-1.4H90v0.2Z" transform="translate(-27.6 -22.9)"/><path class="a" d="M98.2,80.9H96.8l-2.2-3.8-1.4,1.4v2.4H92V70.2h1.2V77l3.1-3.1h1.6l-2.4,2.4Z" transform="translate(-27.6 -22.9)"/><path class="a" d="M114,77.4a3.67,3.67,0,0,1-.9,2.7,2.88,2.88,0,0,1-2.1.9,3.73,3.73,0,0,1-1.2-.2,3.24,3.24,0,0,1-.9-0.8v0.9h-1.2V70.2h1.2v4.6a1.42,1.42,0,0,1,.9-0.8,2.13,2.13,0,0,1,1.2-.3,2.88,2.88,0,0,1,2.1.9A4.1,4.1,0,0,1,114,77.4Zm-1.4,0a3.56,3.56,0,0,0-.5-1.9,1.51,1.51,0,0,0-1.4-.7,1.57,1.57,0,0,0-1.3.7,2.85,2.85,0,0,0-.5,1.9,3,3,0,0,0,.5,1.8,1.89,1.89,0,0,0,1.3.7,1.51,1.51,0,0,0,1.4-.7A3.2,3.2,0,0,0,112.6,77.4Z" transform="translate(-27.6 -22.9)"/><path class="a" d="M121.1,75.1a3.16,3.16,0,0,0-2,.3,5.37,5.37,0,0,0-1.4,1.8v3.6h-1.2v-7h1.2v1.8a3.42,3.42,0,0,1,1.4-1.5,4.23,4.23,0,0,1,2-.5v1.5Z" transform="translate(-27.6 -22.9)"/><path class="a" d="M130.2,77.4a3.41,3.41,0,1,1,0-.52A3.4,3.4,0,0,1,130.2,77.4Zm-1.4,0a2.71,2.71,0,0,0-.6-1.9,1.93,1.93,0,0,0-2.73-.07l-0.07.07a2.55,2.55,0,0,0-.6,1.9,2.71,2.71,0,0,0,.6,1.9,1.93,1.93,0,0,0,2.73.07l0.07-.07A2.88,2.88,0,0,0,128.8,77.4Z" transform="translate(-27.6 -22.9)"/><path class="a" d="M138.6,73.9L137,81h-1.2l-1-5.4h-0.1l-1,5.4h-1.2l-1.6-7.1h1.3l0.8,4.7h0.1l0.9-4.7h1.4l0.9,4.7h0.1l0.8-4.7h1.4Z" transform="translate(-27.6 -22.9)"/><path class="a" d="M145.9,80.9h-1.2V76.4a1.59,1.59,0,0,0-.4-1.2,1.16,1.16,0,0,0-1-.4,2.06,2.06,0,0,0-1.5.8,3.14,3.14,0,0,0-.7,2.1v3.2h-1.2v-7h1.2v1.3a3.84,3.84,0,0,1,1.1-1.1,3.31,3.31,0,0,1,1.5-.4,2.2,2.2,0,0,1,1.7.6,2.11,2.11,0,0,1,.6,1.6v5h-0.1Z" transform="translate(-27.6 -22.9)"/><path class="a" d="M162,71.6a6.89,6.89,0,0,0-.8-0.3,3.75,3.75,0,0,0-1.1-.1,1,1,0,0,0-.9.3,1.08,1.08,0,0,0-.2.8v1.5h2.6v1H159v6h-1.2v-6h-2.1v-1h2.1V72.4a2.27,2.27,0,0,1,.7-1.8,2.79,2.79,0,0,1,1.8-.6,3.42,3.42,0,0,1,1.1.1,6.37,6.37,0,0,1,.7.2v1.3H162Z" transform="translate(-27.6 -22.9)"/><path class="a" d="M170.2,77.4a3.41,3.41,0,1,1,0-.52A3.4,3.4,0,0,1,170.2,77.4Zm-1.4,0a2.71,2.71,0,0,0-.6-1.9,1.93,1.93,0,0,0-2.73-.07l-0.07.07a2.55,2.55,0,0,0-.6,1.9,2.71,2.71,0,0,0,.6,1.9,1.93,1.93,0,0,0,2.73.07l0.07-.07A2.88,2.88,0,0,0,168.8,77.4Z" transform="translate(-27.6 -22.9)"/><path class="a" d="M178.1,80.9h-1.5l-1.8-2.7L173,80.9h-1.5l2.6-3.6-2.4-3.4h1.5l1.6,2.6,1.6-2.6h1.5l-2.4,3.4Z" transform="translate(-27.6 -22.9)"/><path class="a" d="M192.7,80.8a2.27,2.27,0,0,1-.7,1.8,2.79,2.79,0,0,1-1.8.6,3.42,3.42,0,0,1-1.1-.1,6.37,6.37,0,0,1-.7-0.2V81.7a6.89,6.89,0,0,0,.8.3,3.75,3.75,0,0,0,1.1.1,1,1,0,0,0,.9-0.3,1.08,1.08,0,0,0,.2-0.8V74h1.2v6.8h0.1Zm0-8.9h-1.2V70.3h1.2v1.6Z" transform="translate(-27.6 -22.9)"/><path class="a" d="M201.9,80.9h-1.2V79.6a3.84,3.84,0,0,1-1.1,1.1,3.31,3.31,0,0,1-1.5.4,2.2,2.2,0,0,1-1.7-.6,2.11,2.11,0,0,1-.6-1.6V74H197v4.5a1.59,1.59,0,0,0,.4,1.2,1.16,1.16,0,0,0,1,.4,2.06,2.06,0,0,0,1.5-.8,3.14,3.14,0,0,0,.7-2.1V74h1.2v6.9h0.1Z" transform="translate(-27.6 -22.9)"/><path class="a" d="M210.5,80.9h-1.2V75.8a1.08,1.08,0,0,0-.1-0.6c-0.1-.2-0.2-0.2-0.5-0.2a1,1,0,0,0-.8.5,2.14,2.14,0,0,0-.4,1.2v4.2h-1.2V75.8a1.08,1.08,0,0,0-.1-0.6c-0.1-.2-0.2-0.2-0.5-0.2a1,1,0,0,0-.8.5,2.14,2.14,0,0,0-.4,1.2v4.2h-1.2v-7h1.2v0.9a3,3,0,0,1,.8-0.8,1.61,1.61,0,0,1,.9-0.3,1.14,1.14,0,0,1,.8.3,1.58,1.58,0,0,1,.5.8,2.7,2.7,0,0,1,.7-0.8,1.61,1.61,0,0,1,.9-0.3,1.25,1.25,0,0,1,1.1.4,2.14,2.14,0,0,1,.4,1.2l-0.1,5.6h0Z" transform="translate(-27.6 -22.9)"/><path class="a" d="M218,77.4a4.1,4.1,0,0,1-.9,2.8,2.88,2.88,0,0,1-2.1.9,2.13,2.13,0,0,1-1.2-.3,6.47,6.47,0,0,1-.9-0.8v3.2h-1.2V73.9h1.2v0.9a1.76,1.76,0,0,1,.9-0.8,2.17,2.17,0,0,1,1.2-.2,2.88,2.88,0,0,1,2.1.9A3.67,3.67,0,0,1,218,77.4Zm-1.4,0a3,3,0,0,0-.5-1.8,1.75,1.75,0,0,0-1.4-.7,1.57,1.57,0,0,0-1.3.7,2.57,2.57,0,0,0-.5,1.8,3.56,3.56,0,0,0,.5,1.9,1.57,1.57,0,0,0,1.3.7,1.51,1.51,0,0,0,1.4-.7A3.56,3.56,0,0,0,216.6,77.4Z" transform="translate(-27.6 -22.9)"/><path class="a" d="M225.8,78.9a1.65,1.65,0,0,1-.8,1.5,3.15,3.15,0,0,1-2,.5,3.71,3.71,0,0,1-2.3-.6,2.14,2.14,0,0,1-.8-1.7h1.2a1.1,1.1,0,0,0,.5,1,2.74,2.74,0,0,0,1.3.2,1.61,1.61,0,0,0,1.1-.3,1,1,0,0,0,.4-0.7,0.86,0.86,0,0,0-.3-0.6,2.89,2.89,0,0,0-1.6-.5,3.82,3.82,0,0,1-2-.7,1.74,1.74,0,0,1-.5-1.4,1.57,1.57,0,0,1,.7-1.3,3.28,3.28,0,0,1,2.1-.6,3.17,3.17,0,0,1,2,.6,1.8,1.8,0,0,1,.7,1.5h-1.2a0.81,0.81,0,0,0-.4-0.8,3,3,0,0,0-1-.2,2.13,2.13,0,0,0-1.2.3,1,1,0,0,0,0,1.4,2.44,2.44,0,0,0,1.3.4,4.21,4.21,0,0,1,2.2.8A1.43,1.43,0,0,1,225.8,78.9Z" transform="translate(-27.6 -22.9)"/><path class="a" d="M242.2,77.4a3.41,3.41,0,1,1,0-.52A3.4,3.4,0,0,1,242.2,77.4Zm-1.4,0a2.71,2.71,0,0,0-.6-1.9,1.93,1.93,0,0,0-2.73-.07l-0.07.07a2.55,2.55,0,0,0-.6,1.9,2.71,2.71,0,0,0,.6,1.9,1.93,1.93,0,0,0,2.73.07l0.07-.07A2.88,2.88,0,0,0,240.8,77.4Z" transform="translate(-27.6 -22.9)"/><path class="a" d="M250.1,73.9L247.5,81h-1.4l-2.6-7.1h1.3l1.9,5.4h0.1l1.9-5.4h1.4Z" transform="translate(-27.6 -22.9)"/><path class="a" d="M258,78.5a2.35,2.35,0,0,1-1,1.8,3.14,3.14,0,0,1-2.1.7,3.32,3.32,0,0,1-2.5-1,3.7,3.7,0,0,1-1-2.7,3.47,3.47,0,0,1,1-2.7,3.55,3.55,0,0,1,2.5-1,3.29,3.29,0,0,1,2.2.8,3.62,3.62,0,0,1,.8,2.8h-5a2.4,2.4,0,0,0,.6,1.9,2,2,0,0,0,1.5.6,1.8,1.8,0,0,0,1.1-.3,1.7,1.7,0,0,0,.6-1H258v0.1Zm-1.5-2.1a1.71,1.71,0,0,0-.6-1.2,2.17,2.17,0,0,0-2.2,0,2.28,2.28,0,0,0-.8,1.2h3.6Z" transform="translate(-27.6 -22.9)"/><path class="a" d="M265.1,75.1a3.16,3.16,0,0,0-2,.3,5.37,5.37,0,0,0-1.4,1.8v3.6h-1.2v-7h1.2v1.8a3.42,3.42,0,0,1,1.4-1.5,4.23,4.23,0,0,1,2-.5v1.5Z" transform="translate(-27.6 -22.9)"/><path class="a" d="M281.8,80.7a1.45,1.45,0,0,1-.7.2,3.42,3.42,0,0,1-1.1.1,2.44,2.44,0,0,1-1.8-.6,2.14,2.14,0,0,1-.7-1.8V74.8h-2.1v-1h2.1V71.4h1.2v2.4h2.6v1h-2.6v3.8a1.88,1.88,0,0,0,.2.8,1.22,1.22,0,0,0,.9.3,3.42,3.42,0,0,0,1.1-.1c0.3-.1.5-0.2,0.8-0.3v1.4h0.1Z" transform="translate(-27.6 -22.9)"/><path class="a" d="M289.9,80.9h-1.2V76.4a1.59,1.59,0,0,0-.4-1.2,1.16,1.16,0,0,0-1-.4,2.06,2.06,0,0,0-1.5.8,3.14,3.14,0,0,0-.7,2.1v3.2h-1.2V70.2h1.2v5a3.84,3.84,0,0,1,1.1-1.1,3.31,3.31,0,0,1,1.5-.4,2.2,2.2,0,0,1,1.7.6,2.11,2.11,0,0,1,.6,1.6v5h-0.1Z" transform="translate(-27.6 -22.9)"/><path class="a" d="M298,78.5a2.35,2.35,0,0,1-1,1.8,3.14,3.14,0,0,1-2.1.7,3.32,3.32,0,0,1-2.5-1,3.7,3.7,0,0,1-1-2.7,3.47,3.47,0,0,1,1-2.7,3.55,3.55,0,0,1,2.5-1,3.29,3.29,0,0,1,2.2.8,3.62,3.62,0,0,1,.8,2.8h-5a2.4,2.4,0,0,0,.6,1.9,2,2,0,0,0,1.5.6,1.8,1.8,0,0,0,1.1-.3,1.7,1.7,0,0,0,.6-1H298v0.1Zm-1.5-2.1a1.71,1.71,0,0,0-.6-1.2,2.17,2.17,0,0,0-2.2,0,2.28,2.28,0,0,0-.8,1.2h3.6Z" transform="translate(-27.6 -22.9)"/><path class="a" d="M311.5,80.9h-1.2V70.2h1.2V80.9Z" transform="translate(-27.6 -22.9)"/><path class="a" d="M322.1,80.9h-1.5c-0.1-.1-0.1-0.2-0.2-0.3a4.33,4.33,0,0,1-.1-0.5,3.13,3.13,0,0,1-1.1.8,3,3,0,0,1-1.3.2,3.1,3.1,0,0,1-1.7-.5,1.51,1.51,0,0,1-.7-1.4,2,2,0,0,1,.6-1.5,4.19,4.19,0,0,1,1.9-.8q0.9-.15,1.5-0.3a0.81,0.81,0,0,0,.7-0.5,1.6,1.6,0,0,0-.3-0.8,1.34,1.34,0,0,0-1.2-.4,1.61,1.61,0,0,0-1.1.3,1.58,1.58,0,0,0-.5.8h-1.2a2.36,2.36,0,0,1,.9-1.6,3.17,3.17,0,0,1,2-.6,3.28,3.28,0,0,1,2.1.6,2.14,2.14,0,0,1,.7,1.8v3.4a1.7,1.7,0,0,0,.1.7A2.09,2.09,0,0,0,322.1,80.9Zm-1.8-2.3V77.4a1.85,1.85,0,0,1-.7.2,7.07,7.07,0,0,1-1.2.2,2.35,2.35,0,0,0-1.2.4,1.14,1.14,0,0,0-.3.8,1.08,1.08,0,0,0,.3.7,1.14,1.14,0,0,0,.8.3,3,3,0,0,0,1.2-.3,2.89,2.89,0,0,0,1.1-1.1h0Z" transform="translate(-27.6 -22.9)"/><path class="a" d="M329.8,80.9h-6.1v-1l4.2-5h-4v-1h5.5v1l-4.2,5h4.6v1Z" transform="translate(-27.6 -22.9)"/><path class="a" d="M338.1,73.9l-2.9,7.6a2.42,2.42,0,0,1-.8,1.3,1.75,1.75,0,0,1-1.2.4h-0.6a0.76,0.76,0,0,1-.5-0.2V81.8c0.2,0.1.3,0.1,0.5,0.2a2.27,2.27,0,0,1,.4.1,1.17,1.17,0,0,0,.7-0.2,3.22,3.22,0,0,0,.4-0.7L331.3,74h1.4l2,5.5h0.1l1.9-5.5,1.4-.1h0Z" transform="translate(-27.6 -22.9)"/><path class="a" d="M353.8,80.9h-1.2V80a1.76,1.76,0,0,1-.9.8,2.17,2.17,0,0,1-1.2.2,2.88,2.88,0,0,1-2.1-.9,3.67,3.67,0,0,1-.9-2.7,4.1,4.1,0,0,1,.9-2.8,2.88,2.88,0,0,1,2.1-.9,2.13,2.13,0,0,1,1.2.3,6.47,6.47,0,0,1,.9.8V70.2h1.2V80.9Zm-1.3-3.5a3.56,3.56,0,0,0-.5-1.9,1.57,1.57,0,0,0-1.3-.7,1.51,1.51,0,0,0-1.4.7,3.56,3.56,0,0,0-.5,1.9,3,3,0,0,0,.5,1.8,1.75,1.75,0,0,0,1.4.7,1.57,1.57,0,0,0,1.3-.7A3,3,0,0,0,352.5,77.4Z" transform="translate(-27.6 -22.9)"/><path class="a" d="M362.2,77.4a3.41,3.41,0,1,1,0-.52A3.4,3.4,0,0,1,362.2,77.4Zm-1.4,0a2.71,2.71,0,0,0-.6-1.9,1.93,1.93,0,0,0-2.73-.07l-0.07.07a2.55,2.55,0,0,0-.6,1.9,2.71,2.71,0,0,0,.6,1.9,1.93,1.93,0,0,0,2.73.07l0.07-.07a2.88,2.88,0,0,0,.6-1.9h0Z" transform="translate(-27.6 -22.9)"/><path class="a" d="M370.3,74.9c-0.3-.1-0.6-0.1-0.8-0.2a2,2,0,0,0-.8.1,2.18,2.18,0,0,1,.3.5,2,2,0,0,1,.1.8,2.4,2.4,0,0,1-2.3,2.5h-0.2a2,2,0,0,1-.7-0.1,6.37,6.37,0,0,1-.7-0.2l-0.2.2c0,0.1-.1.2-0.1,0.3a0.51,0.51,0,0,0,.4.5,5.14,5.14,0,0,0,1.6.2,4.94,4.94,0,0,1,2.5.5,1.69,1.69,0,0,1,.7,1.2,1.5,1.5,0,0,1-1,1.5,5.21,5.21,0,0,1-2.3.5,5.4,5.4,0,0,1-2.5-.4,1.41,1.41,0,0,1-.8-1.2,1.6,1.6,0,0,1,.3-0.8,2.41,2.41,0,0,1,.8-0.6,2.65,2.65,0,0,1-.6-0.5,1.45,1.45,0,0,1-.2-0.7,1.08,1.08,0,0,1,.3-0.7,4.23,4.23,0,0,1,.7-0.5,2.18,2.18,0,0,1-.5-0.8,2.92,2.92,0,0,1-.2-0.9,2.4,2.4,0,0,1,2.3-2.5h0.2a3,3,0,0,1,1,.2,1.79,1.79,0,0,1,.7.5,4.67,4.67,0,0,1,1-.5,3.75,3.75,0,0,1,1.1-.1l-0.1,1.2h0Zm-1.4,6.5a0.68,0.68,0,0,0-.3-0.5,2.39,2.39,0,0,0-1.4-.2h-0.7c-0.3,0-.6-0.1-1-0.1a2.15,2.15,0,0,0-.7.4,1.06,1.06,0,0,0-.2.5,0.74,0.74,0,0,0,.5.6,4,4,0,0,0,1.8.2,2.81,2.81,0,0,0,1.5-.3A0.9,0.9,0,0,0,368.9,81.4Zm-1.1-5.2a1.49,1.49,0,0,0-.3-1,1.27,1.27,0,0,0-.9-0.4,1,1,0,0,0-.9.4,1.82,1.82,0,0,0,0,2,1.27,1.27,0,0,0,.9.4,1,1,0,0,0,.9-0.4A1.69,1.69,0,0,0,367.8,76.2Z" transform="translate(-27.6 -22.9)"/><path class="a" d="M373.6,80.9h-1.4V79.5h1.4v1.4Z" transform="translate(-27.6 -22.9)"/><path class="a" d="M30.4,88.2a9.55,9.55,0,0,1-2.1,1.6V88.6a10.3,10.3,0,0,0,2.6-2.5h0.8V96.9H30.5V88.2H30.4Z" transform="translate(-27.6 -22.9)"/><path class="a" d="M35.7,96.6a2.23,2.23,0,0,1,.9-1.7c0.5-.5,1.2-1.3,2.1-2.3a12.06,12.06,0,0,0,1.6-2.5,4.94,4.94,0,0,0,.3-1.5,1.7,1.7,0,0,0-.6-1,1.25,1.25,0,0,0-1.2-.3,1.84,1.84,0,0,0-1.2.5,2.54,2.54,0,0,0-.9,1.3l-1.2-.2a4.22,4.22,0,0,1,1.3-2.1,2.87,2.87,0,0,1,1.8-.7h1.1a4.18,4.18,0,0,1,1,.4,2.93,2.93,0,0,1,.9,1,3.08,3.08,0,0,1,.2,1.7,6.13,6.13,0,0,1-1,2.3,41.36,41.36,0,0,1-3.4,4.2h4.5v1.1H35.6l0.1-.2h0Z" transform="translate(-27.6 -22.9)"/><path class="a" d="M43.5,94.1l1.1-.2a2.87,2.87,0,0,0,.8,1.3,1.74,1.74,0,0,0,1.4.5,1.36,1.36,0,0,0,1.3-.7,1.91,1.91,0,0,0,.4-1.5,1.56,1.56,0,0,0-.7-1.3,5,5,0,0,0-1.9-.7V90.7a3,3,0,0,0,1.9-.7,1.65,1.65,0,0,0,.5-1.5,1.44,1.44,0,0,0-.8-1.3,1.79,1.79,0,0,0-1.6-.1,2.39,2.39,0,0,0-1.3,1.8l-1.1-.2a4.89,4.89,0,0,1,1-1.9,2.61,2.61,0,0,1,1.8-.9,3.28,3.28,0,0,1,2,.3,2.33,2.33,0,0,1,1.2,1.2,2.79,2.79,0,0,1,.1,1.8A3.31,3.31,0,0,1,48.2,91a2.37,2.37,0,0,1,1.3,1.1,3.16,3.16,0,0,1,.3,2,3.09,3.09,0,0,1-1.1,2,3.14,3.14,0,0,1-2.1.7,3.23,3.23,0,0,1-2.1-.8A2.78,2.78,0,0,1,43.5,94.1Z" transform="translate(-27.6 -22.9)"/><path class="a" d="M55.9,94.4H51.1V93.3L56.2,86h0.9v7.3h1.5v1.1H57.1v2.4H55.9V94.4Zm0-1V88.5l-3.5,4.9h3.5Z" transform="translate(-27.6 -22.9)"/><path class="a" d="M60.3,93.9c0.3,1.1.8,1.8,1.5,1.9a2.31,2.31,0,0,0,1.7-.2,1.94,1.94,0,0,0,.9-1.1,3.64,3.64,0,0,0,.2-1.5,3.26,3.26,0,0,0-.4-1.4,2.54,2.54,0,0,0-1-.8,3.3,3.3,0,0,0-1.4,0,2.22,2.22,0,0,0-1.3.9l-1.1-.1q0.15-.3,1.2-5.4h4.9v1.1h-4a24.82,24.82,0,0,1-.6,2.7,3.92,3.92,0,0,1,1.8-.4,3.17,3.17,0,0,1,1.6.4,2,2,0,0,1,1.1.9,6.12,6.12,0,0,1,.5,1.2,5.28,5.28,0,0,1,.1,1.3,3.53,3.53,0,0,1-.3,1.4,2.55,2.55,0,0,1-.8,1.2,3.6,3.6,0,0,1-1.2.8A3.08,3.08,0,0,1,62,97a3.39,3.39,0,0,1-1.8-.7A3.55,3.55,0,0,1,59,94.2Z" transform="translate(-27.6 -22.9)"/><path class="a" d="M67.5,93.2a5.67,5.67,0,0,1,.3-1.5c0.2-.4.5-0.9,0.8-1.6l2.6-4h1.4L70,90.2a4,4,0,0,1,2.7.1A2.7,2.7,0,0,1,74,91.6a4.19,4.19,0,0,1,.4,1.6,9.85,9.85,0,0,1-.2,1.7,4.37,4.37,0,0,1-1,1.5,3,3,0,0,1-2,.7,3.79,3.79,0,0,1-2.2-.5,2.89,2.89,0,0,1-1.2-1.5A6.79,6.79,0,0,1,67.5,93.2Zm2,2a2.63,2.63,0,0,0,1.5.7,2.45,2.45,0,0,0,1.6-.6,3,3,0,0,0,.6-2,2,2,0,0,0-.8-1.8,2.69,2.69,0,0,0-1.8-.4,1.94,1.94,0,0,0-1.4.9,3.29,3.29,0,0,0-.4,1.7A2.63,2.63,0,0,0,69.5,95.2Z" transform="translate(-27.6 -22.9)"/><path class="a" d="M81,87.4H75.6V86.3h6.7v1.1a29.42,29.42,0,0,0-3.9,9.5H77A33.82,33.82,0,0,1,81,87.4Z" transform="translate(-27.6 -22.9)"/><path class="a" d="M83.3,93.8a2.82,2.82,0,0,1,.4-1.5,2.78,2.78,0,0,1,1.2-1.2,2.4,2.4,0,0,1-1-1,2.66,2.66,0,0,1-.3-1.2,2.17,2.17,0,0,1,.2-1.2,2.76,2.76,0,0,1,.7-0.9,2.07,2.07,0,0,1,1-.6,4.3,4.3,0,0,1,1.2-.2,3.75,3.75,0,0,1,1.1.1,9.74,9.74,0,0,1,1.1.5,2.55,2.55,0,0,1,.8,1.2,2.76,2.76,0,0,1,0,1.8,2.6,2.6,0,0,1-1.5,1.6,2.38,2.38,0,0,1,1.5,1,2.73,2.73,0,0,1,.4,1.6,3.34,3.34,0,0,1-.3,1.5,2.76,2.76,0,0,1-1.5,1.5,6.05,6.05,0,0,1-1.5.2,7.77,7.77,0,0,1-1.6-.2,2.59,2.59,0,0,1-1.1-.7,2.07,2.07,0,0,1-.6-1A5.07,5.07,0,0,1,83.3,93.8Zm1.3-.1a5.07,5.07,0,0,0,.2,1.3,1.13,1.13,0,0,0,1,.7,4.3,4.3,0,0,0,1.6,0,1.44,1.44,0,0,0,1.1-.9,2.3,2.3,0,0,0,.2-1.4,1.85,1.85,0,0,0-.8-1.2,2.82,2.82,0,0,0-1.5-.4,1.61,1.61,0,0,0-1.3.6A2.11,2.11,0,0,0,84.6,93.7Zm0.2-4.9a1.8,1.8,0,0,0,3.13,1.27L88,90a1.57,1.57,0,0,0,.4-1.3,1.43,1.43,0,0,0-.6-1.2,2.09,2.09,0,0,0-1.4-.3,1.73,1.73,0,0,0-1.3.5A1.43,1.43,0,0,0,84.8,88.8Z" transform="translate(-27.6 -22.9)"/><path class="a" d="M92.9,97a28.61,28.61,0,0,0,2.2-4.2,3.72,3.72,0,0,1-2.6-.4,2.3,2.3,0,0,1-1.2-1.8,6.67,6.67,0,0,1,0-2,3.61,3.61,0,0,1,.8-1.5,2.58,2.58,0,0,1,1.3-.8,3.18,3.18,0,0,1,1.3-.2,5,5,0,0,1,1.2.2,2.84,2.84,0,0,1,1.1.8,3,3,0,0,1,.7,1,5.21,5.21,0,0,1,.2,1.4,5.61,5.61,0,0,1-.6,2.2,52,52,0,0,1-3.1,5.4H92.9V97Zm-0.3-7a2.09,2.09,0,0,0,.7,1.3,1.66,1.66,0,0,0,1.3.5,1.82,1.82,0,0,0,1.1-.4,3.47,3.47,0,0,0,.8-1.1,3,3,0,0,0,.1-1.6,1.9,1.9,0,0,0-.7-1.1,1.75,1.75,0,0,0-1.2-.4,2.17,2.17,0,0,0-1,.2,1.79,1.79,0,0,0-.9,1A3,3,0,0,0,92.6,90Z" transform="translate(-27.6 -22.9)"/><path class="a" d="M99.5,90.9a6,6,0,0,1,.5-2.6,4.81,4.81,0,0,1,1.2-1.6,2.79,2.79,0,0,1,1.8-.6,2.46,2.46,0,0,1,1.9.9,5.48,5.48,0,0,1,1.1,2.3,15.67,15.67,0,0,1,.2,3.2,7.39,7.39,0,0,1-.6,2.9A3.12,3.12,0,0,1,104,97a2.24,2.24,0,0,1-2.1-.1,3.42,3.42,0,0,1-1.5-1.4,6.36,6.36,0,0,1-.6-1.8A6.38,6.38,0,0,1,99.5,90.9Zm1.3-.4a10.5,10.5,0,0,0,.1,3.1,3.77,3.77,0,0,0,1,1.9,1.39,1.39,0,0,0,1.5.2,2,2,0,0,0,1.1-1.4,7.8,7.8,0,0,0,.3-2.2,14.79,14.79,0,0,0-.1-2.2,3.51,3.51,0,0,0-.6-1.8,1.41,1.41,0,0,0-1.2-.8,1.61,1.61,0,0,0-1.4.8A4.86,4.86,0,0,0,100.8,90.5Z" transform="translate(-27.6 -22.9)"/><path class="a" d="M109.9,85.4h1.8l-0.4,8.3h-0.9Zm0,9.7h1.8v1.8h-1.8V95.1Z" transform="translate(-27.6 -22.9)"/><path class="a" d="M122.4,90.6a5.23,5.23,0,0,1-.7,3.2,1.74,1.74,0,0,1-1.4.9,1.42,1.42,0,0,1-.6-0.2,0.92,0.92,0,0,1-.4-0.6l-0.6.6a1.42,1.42,0,0,1-.6.2,1.61,1.61,0,0,1-1.1-.5,2.41,2.41,0,0,1-.4-1.5,5.29,5.29,0,0,1,.9-3,2.2,2.2,0,0,1,1.7-1.3c0.2,0,.4,0,0.4.1a0.68,0.68,0,0,1,.3.4l0.3-.5h0.7L120,93.2a1.27,1.27,0,0,0,.1.6,0.52,0.52,0,0,0,.4.2,1,1,0,0,0,1-.8,6.71,6.71,0,0,0,.3-2.3,5,5,0,0,0-.7-2.9,2.26,2.26,0,0,0-1.9-1.1,2.79,2.79,0,0,0-2.3,1.3,6.25,6.25,0,0,0-1,3.9,5.9,5.9,0,0,0,.9,3.7,3,3,0,0,0,2.2,1.1,2.61,2.61,0,0,0,1.1-.3,2.36,2.36,0,0,0,.9-0.8l0.3,0.4a2.72,2.72,0,0,1-1,.8,2.77,2.77,0,0,1-1.3.3,3.73,3.73,0,0,1-2.7-1.2c-0.8-.8-1.1-2.2-1.1-4a6.38,6.38,0,0,1,1.2-4.2,3.36,3.36,0,0,1,2.8-1.4,2.85,2.85,0,0,1,2.4,1.2A4.19,4.19,0,0,1,122.4,90.6Zm-2.6-.8a1.27,1.27,0,0,0-.1-0.6,0.52,0.52,0,0,0-.4-0.2,1.82,1.82,0,0,0-1.1,1.2,5.33,5.33,0,0,0-.6,2.4,2.15,2.15,0,0,0,.2,1,0.55,0.55,0,0,0,.5.3,0.86,0.86,0,0,0,.6-0.3,1.45,1.45,0,0,0,.2-0.7Z" transform="translate(-27.6 -22.9)"/><path class="a" d="M130.4,94h-1.9l-0.4,2.9h-1l0.4-2.9h-2.1L125,96.9h-1l0.4-2.9h-1.2V92.8h1.4l0.4-2.6h-1.8V89h1.9l0.4-2.8h1L126.1,89h2.1l0.4-2.8h1L129.2,89h1.2v1.2H129l-0.4,2.6h1.8V94h0ZM128,90.2h-2.1l-0.4,2.6h2.1Z" transform="translate(-27.6 -22.9)"/><path class="a" d="M137.7,93.9a3.29,3.29,0,0,1-.8,2.4,2.46,2.46,0,0,1-1.7.8v1.6h-0.9V97.1a2.27,2.27,0,0,1-1.8-.9,4.14,4.14,0,0,1-.8-2.7h1.4a3.13,3.13,0,0,0,.4,2,1,1,0,0,0,.8.4V91.8a4.46,4.46,0,0,1-1.9-1.5,2.41,2.41,0,0,1-.4-1.5,2.57,2.57,0,0,1,2.4-2.6V85h0.9v1.2a2.14,2.14,0,0,1,1.7.8,3.52,3.52,0,0,1,.7,2.1h-1.4a2.06,2.06,0,0,0-.3-1.3,0.75,0.75,0,0,0-.7-0.4v3.5a11.28,11.28,0,0,1,1.8,1.2A1.85,1.85,0,0,1,137.7,93.9Zm-3.4-3.6v-3a1.08,1.08,0,0,0-.7.3,1.49,1.49,0,0,0-.3,1,1.88,1.88,0,0,0,.2.8A1.71,1.71,0,0,0,134.3,90.3Zm2,3.9a1.8,1.8,0,0,0-.3-1.1,3,3,0,0,0-.8-0.8v3.6a2,2,0,0,0,.8-0.4A2.27,2.27,0,0,0,136.3,94.2Z" transform="translate(-27.6 -22.9)"/><path class="a" d="M142.4,88.9a3.66,3.66,0,0,1-.5,2.3,1.87,1.87,0,0,1-1,.5,1.59,1.59,0,0,1-1-.5c-0.4-.3-0.5-1.1-0.5-2.3a3.66,3.66,0,0,1,.5-2.3,1.87,1.87,0,0,1,1-.5,1.59,1.59,0,0,1,1,.5A3.66,3.66,0,0,1,142.4,88.9Zm3.1-2.6-4.8,10.8-0.5-.2L145,86.1Zm-4.1,2.6a5.35,5.35,0,0,0-.1-1.5,0.54,0.54,0,0,0-.4-0.4,0.37,0.37,0,0,0-.4.4,5.35,5.35,0,0,0-.1,1.5,5.76,5.76,0,0,0,.1,1.5,0.54,0.54,0,0,0,.4.4,0.37,0.37,0,0,0,.4-0.4A5.76,5.76,0,0,0,141.4,88.9Zm4.9,5.3a3.66,3.66,0,0,1-.5,2.3,1.87,1.87,0,0,1-1,.5,1.59,1.59,0,0,1-1-.5c-0.4-.3-0.5-1.1-0.5-2.3a3.66,3.66,0,0,1,.5-2.3,1.87,1.87,0,0,1,1-.5,1.59,1.59,0,0,1,1,.5c0.4,0.3.5,1.1,0.5,2.3h0Zm-1,0a5.35,5.35,0,0,0-.1-1.5,0.54,0.54,0,0,0-.4-0.4,0.37,0.37,0,0,0-.4.4,5.35,5.35,0,0,0-.1,1.5,5.76,5.76,0,0,0,.1,1.5,0.54,0.54,0,0,0,.4.4,0.37,0.37,0,0,0,.4-0.4,5.76,5.76,0,0,0,.1-1.5h0Z" transform="translate(-27.6 -22.9)"/><path class="a" d="M153.8,86.9h-1.1l-1.9-1.6-1.9,1.6h-1.1l2.2-2.6h1.5Z" transform="translate(-27.6 -22.9)"/><path class="a" d="M162.5,95.6l-0.6,1.2a2.51,2.51,0,0,0-.7-0.4,2.65,2.65,0,0,1-.6-0.5,4.44,4.44,0,0,1-1.1.8,2.77,2.77,0,0,1-1.3.3,3,3,0,0,1-2.2-.8,2.87,2.87,0,0,1-.9-2.3,3.1,3.1,0,0,1,.5-1.7,15.38,15.38,0,0,1,1.3-1.2,7.84,7.84,0,0,1-.5-1.4,7.38,7.38,0,0,1-.2-1.2A2.23,2.23,0,0,1,158.25,86h0.25a2.39,2.39,0,0,1,1.4.5,2,2,0,0,1,.6,1.5,2.49,2.49,0,0,1-.7,1.9,4.43,4.43,0,0,1-1.5,1.2c0.3,0.5.6,1,.9,1.4a12.66,12.66,0,0,0,1.1,1.3,3.09,3.09,0,0,0,.2-0.8c0-.3.1-0.6,0.1-1h1.2a7.72,7.72,0,0,1-.2,1.5,6.12,6.12,0,0,1-.5,1.2,2.18,2.18,0,0,0,.5.4C162.2,95.4,162.4,95.6,162.5,95.6Zm-2.7-.5c-0.5-.6-1-1.1-1.4-1.6a6,6,0,0,1-.9-1.5,1.78,1.78,0,0,0-.7.8,3.73,3.73,0,0,0-.2,1.2,1.68,1.68,0,0,0,.6,1.4,2.11,2.11,0,0,0,1.3.5,2.35,2.35,0,0,0,.8-0.2A3.81,3.81,0,0,0,159.8,95.1Zm-0.4-7a1.45,1.45,0,0,0-.2-0.7,0.56,0.56,0,0,0-.6-0.2,0.91,0.91,0,0,0-.7.3,1.22,1.22,0,0,0-.3.9,2.77,2.77,0,0,0,.1.9c0.1,0.3.2,0.7,0.3,1a3.24,3.24,0,0,0,.9-0.8,1.62,1.62,0,0,0,.5-1.4h0Z" transform="translate(-27.6 -22.9)"/><path class="a" d="M170.6,91.3L170,92.4l-2.6-1.6,0.1,3.2h-1.2l0.1-3.2-2.6,1.6-0.6-1.1,2.7-1.4-2.7-1.4,0.6-1.1,2.6,1.6-0.1-3h1.2l-0.1,3,2.6-1.6,0.6,1.1-2.7,1.4Z" transform="translate(-27.6 -22.9)"/><path class="a" d="M178.3,97.7l-0.7.7a10.84,10.84,0,0,1-2.3-3.1,9,9,0,0,1,0-7.4,12.79,12.79,0,0,1,2.3-3.2l0.7,0.7a10.78,10.78,0,0,0-2.2,2.8,7.25,7.25,0,0,0-.7,3.3,7,7,0,0,0,.7,3.3A12.34,12.34,0,0,0,178.3,97.7Z" transform="translate(-27.6 -22.9)"/><path class="a" d="M183.1,91.6a8.74,8.74,0,0,1-.8,3.7,10.84,10.84,0,0,1-2.3,3.1l-0.7-.7a9.35,9.35,0,0,0,2.2-2.8,7.25,7.25,0,0,0,.7-3.3,7,7,0,0,0-.7-3.3,9.35,9.35,0,0,0-2.2-2.8l0.7-.7a11.22,11.22,0,0,1,2.3,3.2A8,8,0,0,1,183.1,91.6Z" transform="translate(-27.6 -22.9)"/><path class="a" d="M194.8,99.3h-7.9V98.5h7.9v0.8Z" transform="translate(-27.6 -22.9)"/><path class="b" d="M30.4,30.8v5.4H28.7V23.3h3.6a12.48,12.48,0,0,1,2.1.2,5.23,5.23,0,0,1,1.5.7,3.13,3.13,0,0,1,.9,1.1,3.34,3.34,0,0,1,.3,1.5,5.07,5.07,0,0,1-.2,1.3,3.88,3.88,0,0,1-.6,1.1,2.72,2.72,0,0,1-1,.8,5,5,0,0,1-1.3.5,2.65,2.65,0,0,1,.6.5l3.8,5.1H36.9a0.67,0.67,0,0,1-.7-0.4l-3.3-4.6-0.3-.3a0.75,0.75,0,0,0-.5-0.1H30.4v0.1Zm0-1.3h1.8a4.44,4.44,0,0,0,1.3-.2,3.13,3.13,0,0,0,1-.5,1.56,1.56,0,0,0,.6-0.8,3.55,3.55,0,0,0,.2-1,2,2,0,0,0-.8-1.7,3.71,3.71,0,0,0-2.3-.6H30.3v4.8h0.1Z" transform="translate(-27.6 -22.9)"/><path class="b" d="M43.4,26.9a3.65,3.65,0,0,1,1.5.3,2.55,2.55,0,0,1,1.2.8,5.67,5.67,0,0,1,.8,1.3,4.67,4.67,0,0,1,.3,1.7,0.62,0.62,0,0,1-.1.5,0.37,0.37,0,0,1-.3.1H40.7a6,6,0,0,0,.2,1.5,2.44,2.44,0,0,0,1.5,1.7,3.73,3.73,0,0,0,1.2.2,3.08,3.08,0,0,0,1-.1c0.3-.1.5-0.2,0.8-0.3a2.19,2.19,0,0,0,.5-0.3,0.6,0.6,0,0,1,.4-0.1,0.53,0.53,0,0,1,.3.2L47,35a4.35,4.35,0,0,1-.7.6,3.55,3.55,0,0,1-.9.4c-0.3.1-.6,0.2-1,0.3a3.4,3.4,0,0,1-1,.1,4.67,4.67,0,0,1-1.7-.3,4.19,4.19,0,0,1-1.4-.9,3.77,3.77,0,0,1-.9-1.5,6.65,6.65,0,0,1-.3-2.1,5.66,5.66,0,0,1,.3-1.8,4.68,4.68,0,0,1,.8-1.4,6.42,6.42,0,0,1,1.3-1A4.89,4.89,0,0,1,43.4,26.9Zm0.1,1.2a2.14,2.14,0,0,0-1.8.7,3.34,3.34,0,0,0-.8,1.9h5a3,3,0,0,0-.2-1,5.94,5.94,0,0,0-.4-0.8,1.79,1.79,0,0,0-.7-0.5A3,3,0,0,0,43.5,28.1Z" transform="translate(-27.6 -22.9)"/><path class="b" d="M52.3,26.9a3.75,3.75,0,0,1,1.1.1,2.47,2.47,0,0,1,.9.4h2.5V28a0.42,0.42,0,0,1-.4.4l-1,.1a2.77,2.77,0,0,1,.3,1.3,2.66,2.66,0,0,1-.3,1.2,2.18,2.18,0,0,1-.7.9,2.38,2.38,0,0,1-1.1.6,5.9,5.9,0,0,1-1.4.2,5,5,0,0,1-1.2-.2,1.51,1.51,0,0,0-.4.4,0.6,0.6,0,0,0-.1.4,0.55,0.55,0,0,0,.3.5,1.45,1.45,0,0,0,.7.2c0.3,0,.6.1,1,0.1h1.1a3.75,3.75,0,0,1,1.1.1c0.4,0.1.7,0.2,1,.3a4.35,4.35,0,0,1,.7.6,1.69,1.69,0,0,1,.3,1,2,2,0,0,1-.3,1.1,3.92,3.92,0,0,1-.8,1,5.39,5.39,0,0,1-1.3.7,4.84,4.84,0,0,1-1.8.3,9.91,9.91,0,0,1-1.8-.2,3.34,3.34,0,0,1-1.2-.5,1.78,1.78,0,0,1-.7-0.8,1.49,1.49,0,0,1-.2-0.9,1.37,1.37,0,0,1,.4-1.1,3.6,3.6,0,0,1,1.2-.8,1,1,0,0,1-.6-0.5,1.08,1.08,0,0,1-.2-0.8,0.6,0.6,0,0,1,.1-0.4,0.76,0.76,0,0,1,.2-0.4,1.51,1.51,0,0,1,.4-0.4,2.19,2.19,0,0,1,.5-0.3,3.57,3.57,0,0,1-1.1-1,2.41,2.41,0,0,1-.4-1.5,2.66,2.66,0,0,1,.3-1.2,2.18,2.18,0,0,1,.7-0.9,3.88,3.88,0,0,1,1.1-.6A3.75,3.75,0,0,0,52.3,26.9Zm2.9,9.8a1.42,1.42,0,0,0-.2-0.6,0.85,0.85,0,0,0-.5-0.3c-0.2-.1-0.5-0.1-0.7-0.2a2.48,2.48,0,0,0-.9-0.1h-1a2.77,2.77,0,0,1-.9-0.1,5.55,5.55,0,0,0-.8.6,1.14,1.14,0,0,0-.3.8,1.42,1.42,0,0,0,.2.6,2.36,2.36,0,0,0,.5.5,6.89,6.89,0,0,0,.8.3,4.12,4.12,0,0,0,1.2.1,4.87,4.87,0,0,0,1.2-.1l0.9-.3a1.21,1.21,0,0,0,.5-0.5A1.65,1.65,0,0,0,55.2,36.7Zm-2.9-5a2.77,2.77,0,0,0,.9-0.1,1.27,1.27,0,0,0,.6-0.4c0.1-.2.3-0.4,0.4-0.6a1.7,1.7,0,0,0,.1-0.7,1.73,1.73,0,0,0-.5-1.3,2.07,2.07,0,0,0-1.5-.5,2.46,2.46,0,0,0-1.5.5,1.9,1.9,0,0,0-.5,1.3,1.48,1.48,0,0,0,.1.7,1.84,1.84,0,0,0,1,1A2.77,2.77,0,0,0,52.3,31.7Z" transform="translate(-27.6 -22.9)"/><path class="b" d="M59.8,27.1v5.8a2.54,2.54,0,0,0,.5,1.6,1.68,1.68,0,0,0,1.4.6,2.77,2.77,0,0,0,1.3-.3,3.13,3.13,0,0,0,1.1-.9V27.2h1.6v9.1h-1A0.35,0.35,0,0,1,64.3,36h0l-0.1-1a6.89,6.89,0,0,1-1.3,1.1,3.29,3.29,0,0,1-1.7.4,5.07,5.07,0,0,1-1.3-.2,3.59,3.59,0,0,1-1-.7,2.38,2.38,0,0,1-.6-1.1,5.9,5.9,0,0,1-.2-1.4V27.3h1.7V27.1Z" transform="translate(-27.6 -22.9)"/><path class="b" d="M70.2,22.9V36.2H68.6V22.9h1.6Z" transform="translate(-27.6 -22.9)"/><path class="b" d="M79.7,36.2H79a0.48,0.48,0,0,1-.4-0.1,0.25,0.25,0,0,1-.2-0.29h0L78.2,35c-0.2.2-.5,0.4-0.7,0.6a2.51,2.51,0,0,1-.7.4c-0.3.1-.5,0.2-0.8,0.3a2.77,2.77,0,0,1-.9.1,3.08,3.08,0,0,1-1-.1,2,2,0,0,1-.8-0.4,2.18,2.18,0,0,1-.5-0.8,3.59,3.59,0,0,1-.2-1.1,1.69,1.69,0,0,1,.3-1,3,3,0,0,1,1-.9,4.28,4.28,0,0,1,1.7-.6,10.17,10.17,0,0,1,2.6-.2V30.6a2.35,2.35,0,0,0-.5-1.6,1.54,1.54,0,0,0-1.3-.5,3.08,3.08,0,0,0-1,.1,4.88,4.88,0,0,0-.7.3,2.19,2.19,0,0,0-.5.3,0.6,0.6,0,0,1-.4.1,0.37,0.37,0,0,1-.3-0.1L73.3,29,73,28.5a5.72,5.72,0,0,1,1.6-1.1,4.06,4.06,0,0,1,1.9-.4,3.19,3.19,0,0,1,1.4.3,3.59,3.59,0,0,1,1,.7,2.38,2.38,0,0,1,.6,1.1,5.9,5.9,0,0,1,.2,1.4v5.7h0Zm-4.1-1a2.2,2.2,0,0,0,.8-0.1,6.37,6.37,0,0,0,.7-0.2,2.09,2.09,0,0,0,.6-0.4,2.65,2.65,0,0,0,.6-0.5V32.1a10.89,10.89,0,0,0-1.9.1,5,5,0,0,0-1.3.4,2.1,2.1,0,0,0-.7.5,1.45,1.45,0,0,0-.2.7,1.08,1.08,0,0,0,.1.6c0.1,0.1.2,0.3,0.3,0.4a0.76,0.76,0,0,0,.5.2A0.48,0.48,0,0,0,75.6,35.2Z" transform="translate(-27.6 -22.9)"/><path class="b" d="M82.2,36.2V27.1h0.9a0.48,0.48,0,0,1,.4.1,0.37,0.37,0,0,1,.1.3l0.1,1.4a4.43,4.43,0,0,1,1.2-1.5,2.35,2.35,0,0,1,1.6-.5,1.48,1.48,0,0,1,.7.1c0.2,0.1.4,0.1,0.6,0.2l-0.2,1.2a0.25,0.25,0,0,1-.29.2h0a0.76,0.76,0,0,1-.4-0.1,1.48,1.48,0,0,0-.7-0.1,2.17,2.17,0,0,0-1.4.5,2.84,2.84,0,0,0-.9,1.4v5.8l-1.7.1h0Z" transform="translate(-27.6 -22.9)"/></svg>
