<svg xmlns="http://www.w3.org/2000/svg" viewBox="0 0 343.2 195"><defs><style>.a{fill:#48525b;}.b{fill:#05beff;}</style></defs><title>fonts-5</title><path class="a" d="M355.2,216.8a1,1,0,1,1,.3.8A1.14,1.14,0,0,1,355.2,216.8Z" transform="translate(-27.1 -22.9)"/><path class="a" d="M35.8,54.3H32.5v1.5H35v5.4H32.5v1.4h2.8v0.8H32.5V66H31.7V63.4H28.1V62.6h3.6V61.2H29.2V55.8h2.5V54.3H28.5V53.5h3.2V52h0.8v1.5h3.3v0.8Zm-1.6,3.9V56.7H30v1.5h4.2Zm0,2.2V58.9H30v1.5h4.2Zm7.1,4.5a1,1,0,0,1-.4.9,2.42,2.42,0,0,1-1.4.3h-1l-0.3-.8h1.9a0.35,0.35,0,0,0,.4-0.4V61.2H37.3a8.53,8.53,0,0,1-2,5l-0.7-.5a8.18,8.18,0,0,0,1.5-2.8,14.22,14.22,0,0,0,.5-3.6V52.5h4.7V64.9h0Zm-0.9-8.7v-3h-3v3h3Zm0,4V57h-3v3.2h3Z" transform="translate(-27.1 -22.9)"/><path class="a" d="M51.2,52.7a22.23,22.23,0,0,1-6.7.7l-0.2-.8h1.2a16.37,16.37,0,0,0,5.2-.7Zm0.1,12.2a0.86,0.86,0,0,1-.3.8,1.9,1.9,0,0,1-.9.3H49.5l-0.3-.8h0.9a0.35,0.35,0,0,0,.4-0.4V58.7H48.1a12.83,12.83,0,0,1-1,1.5,11.14,11.14,0,0,0,1.7-.2,1.42,1.42,0,0,0-.2-0.4l0.6-.3a5.07,5.07,0,0,1,.9,1.6l-0.6.4a0.76,0.76,0,0,0-.2-0.5c-1.1.2-2.1,0.3-3,.4l-0.2-.6A6.1,6.1,0,0,0,47.3,59H45.4v7.2H44.6V58.3h2.8a11.91,11.91,0,0,0-1.6-1l0.6-.4a8.76,8.76,0,0,1,1.2.7,20,20,0,0,0,2.1-1H44.4V55.9h6.7v0.7c-0.9.5-1.8,1-2.9,1.5l0.3,0.3h2.9l-0.1,6.5h0Zm-4.8-10-0.7.3a3.53,3.53,0,0,0-.9-1.1l0.6-.3A5.67,5.67,0,0,1,46.5,54.9Zm3.3,9.5-0.5.5a4.44,4.44,0,0,0-1.1-.8,9.39,9.39,0,0,1-1.8,1.2L46,64.7a4.69,4.69,0,0,0,1.6-1,14.63,14.63,0,0,0-1.3-.9l0.4-.5H46.2V61.6h3.5v0.7a9.13,9.13,0,0,1-.8,1.3A6.47,6.47,0,0,1,49.8,64.4Zm-1-2.1h-2a12.61,12.61,0,0,1,1.3.9A1.85,1.85,0,0,0,48.8,62.3Zm-0.1-7.4-0.7.3c-0.2-.4-0.4-0.8-0.7-1.3l0.7-.2A3.46,3.46,0,0,1,48.7,54.9Zm2.6-1.1a7.1,7.1,0,0,1-1,1.4l-0.7-.3a13.69,13.69,0,0,0,1-1.4Zm6.6,5.4H55.3v2.3h2.2v0.8H55.3V66H54.5V62.3H52.2V61.5h2.3V59.2H52V58.4h1.6a15,15,0,0,0-1-3l0.6-.4H51.9V54.2h2.6a10.4,10.4,0,0,0-.8-2l0.7-.3a9,9,0,0,1,.8,2.3h2.5V55H56.6l0.6,0.4a17.1,17.1,0,0,1-.9,3h1.6v0.8h0ZM56.4,55H53.3a19.3,19.3,0,0,1,1.1,3.4h1.1A21.36,21.36,0,0,0,56.4,55Z" transform="translate(-27.1 -22.9)"/><path class="a" d="M72.6,66H71.7V64.6H62.1V66H61.2V54.6h2.9a16.29,16.29,0,0,0,1.5-2.7l0.9,0.3c-0.2.5-.7,1.3-1.3,2.4h7.5V66H72.6Zm-0.8-6.9V55.3H62.2v3.8h9.6Zm0,4.6V59.9H62.2v3.8h9.6Z" transform="translate(-27.1 -22.9)"/><path class="a" d="M89.5,54.3H86.2l0.7,0.4c-0.4.7-.8,1.4-1.2,2h3.8v2.9H88.7V57.5H77.6v2H76.8V56.7h3.9a13.73,13.73,0,0,0-1.3-2l0.6-.4H76.8V53.5h6a5.23,5.23,0,0,0-.7-1.2l0.8-.3a8,8,0,0,1,.8,1.6h5.9v0.7H89.5ZM88,63.8a1.85,1.85,0,0,1-.2.7,1,1,0,0,1-.7.4c-0.3,0-.7.1-1,0.1H85.6l-0.3-.8h0.8a2,2,0,0,0,1-.1,0.53,0.53,0,0,0,.2-0.3v-3H83.5v5.3H82.7V60.8H78.9v4.3H78.1V60h4.5V58.3h0.8V60H88v3.8Zm-2-9.5H80a16.16,16.16,0,0,1,1.4,2.4h3.2A9.46,9.46,0,0,0,86,54.3Z" transform="translate(-27.1 -22.9)"/><path class="a" d="M99.9,63.2l-0.5.7a15.17,15.17,0,0,0-2.7-2.2V66H95.9V61.2a17.22,17.22,0,0,1-3.6,3.5L91.8,64a15,15,0,0,0,3.8-3.8H92.4V59.4h3.5V57.8h0.8v1.6h3v0.8h-3v0.7A19.09,19.09,0,0,1,99.9,63.2ZM99.7,52.7A31.9,31.9,0,0,1,92.6,54l-0.4-.8A34.1,34.1,0,0,0,99.1,52Zm-5.2,4.9-0.8.4a16.5,16.5,0,0,0-1.3-2.9l0.7-.4A19.54,19.54,0,0,1,94.5,57.6Zm2.3-.6-0.8.3a11.86,11.86,0,0,0-1-2.8l0.8-.3A13.32,13.32,0,0,1,96.8,57Zm3-2.8a16.57,16.57,0,0,1-1.3,3.5l-0.8-.4A21.9,21.9,0,0,0,98.9,54Zm6.1,6.8a17,17,0,0,1-6.1,5.1l-0.5-.7a16.85,16.85,0,0,0,6.1-5Zm-0.3-4.3a14.6,14.6,0,0,1-4.9,3.8l-0.5-.7a14.51,14.51,0,0,0,4.8-3.7Zm-0.2-4.1a18.85,18.85,0,0,1-4.4,3.6l-0.6-.7a13.17,13.17,0,0,0,4.4-3.4Z" transform="translate(-27.1 -22.9)"/><path class="a" d="M121.9,62.3h-4.5a21.84,21.84,0,0,1,3.8,3.1l-0.6.6-1.2-1.2c-3.9.5-7.1,0.9-9.7,1l-0.1-.7a12,12,0,0,0,3.2-2.9H108V61.4h13.9v0.9Zm-0.3-4.4h-0.8V55.2h-5.5v3.6h-0.8V55.2h-5.4v2.6h-0.8V54.4h6.2V53.1h-5.6V52.4h12.2v0.7h-5.7v1.3h6.3l-0.1,3.5h0Zm-1,2.4H109.3V59.5h11.3v0.8Zm-6.7-2.1a38.23,38.23,0,0,1-3.9.8l-0.3-.7a25.34,25.34,0,0,0,3.9-.7Zm-0.1-1.7-0.3.6a22.87,22.87,0,0,0-3.6-.7l0.3-.7A24.48,24.48,0,0,1,113.8,56.5Zm4.7,7.7a15.81,15.81,0,0,0-1.8-1.3l0.4-.6h-3.3a18.2,18.2,0,0,1-2.8,2.8Q115.35,64.65,118.5,64.2Zm1.6-7.9a18.45,18.45,0,0,1-3.8.7l-0.3-.7a20.37,20.37,0,0,0,3.7-.7Zm0.1,2-0.4.7c-1.1-.3-2.4-0.6-3.8-0.9l0.4-.6A24.86,24.86,0,0,1,120.2,58.3Z" transform="translate(-27.1 -22.9)"/><path class="a" d="M130.3,57.6h-4.8V66h-0.9V52.4h5.6v5.2h0.1Zm-0.9-3.1V53.2h-3.9v1.3h3.9Zm0,2.3V55.3h-3.9v1.5h3.9Zm4.7,7.7h-6.3V58.8h6.3v5.7Zm-0.8-3.3V59.6h-4.6v1.6h4.6Zm0,2.5V62h-4.6v1.7h4.6Zm4,1a1,1,0,0,1-.4.9,2.27,2.27,0,0,1-1.3.3h-0.9l-0.3-.8h1.4a0.71,0.71,0,0,0,.6-0.6V57.4h-4.7V52.2h5.5l0.1,12.5h0Zm-0.9-10.2V53.2h-3.9v1.3h3.9Zm0,2.3V55.3h-3.9v1.5h3.9Z" transform="translate(-27.1 -22.9)"/><path class="a" d="M35.6,75.3H32.1V86.2H30.8V75.3H27.3V74.1h8.3v1.2Z" transform="translate(-27.1 -22.9)"/><path class="a" d="M44.4,86.2H43.1v-5c0-1.8-.7-2.8-2.1-2.8a2.14,2.14,0,0,0-1.7.8,3.22,3.22,0,0,0-.7,2v4.9H37.3V73.3h1.3v5.6h0a3.11,3.11,0,0,1,2.8-1.6c1.9,0,2.9,1.2,2.9,3.5l0.1,5.4h0Z" transform="translate(-27.1 -22.9)"/><path class="a" d="M53.9,82.2H47.8a3.2,3.2,0,0,0,.8,2.3,2.86,2.86,0,0,0,2.1.8,3.94,3.94,0,0,0,2.7-1v1.2a4.82,4.82,0,0,1-3,.8,3.36,3.36,0,0,1-2.8-1.2,5.4,5.4,0,0,1-1-3.3,5.24,5.24,0,0,1,1.1-3.3,3.54,3.54,0,0,1,2.8-1.3,3.31,3.31,0,0,1,2.6,1.1,4.48,4.48,0,0,1,.9,3l-0.1.9h0Zm-1.3-1.1a2.88,2.88,0,0,0-.6-1.9,1.86,1.86,0,0,0-1.6-.7,2.34,2.34,0,0,0-1.7.7,3.1,3.1,0,0,0-.9,1.9h4.8Z" transform="translate(-27.1 -22.9)"/><path class="a" d="M67.4,90.2H66.1V84.7h0a3.18,3.18,0,0,1-3,1.7,3.09,3.09,0,0,1-2.6-1.2,4.55,4.55,0,0,1-1-3.2,5.14,5.14,0,0,1,1.1-3.4,3.77,3.77,0,0,1,2.9-1.3,2.9,2.9,0,0,1,2.6,1.4h0V77.5h1.3V90.2ZM66.1,81a2.41,2.41,0,0,0-.7-1.8,2.55,2.55,0,0,0-3.8.1,4,4,0,0,0-.7,2.6,3.61,3.61,0,0,0,.7,2.4,2.27,2.27,0,0,0,1.8.9,2.52,2.52,0,0,0,2-.9,3.14,3.14,0,0,0,.7-2.1V81Z" transform="translate(-27.1 -22.9)"/><path class="a" d="M77.1,86.2H75.8V84.8h0a3,3,0,0,1-2.7,1.6c-2.1,0-3.1-1.2-3.1-3.7V77.5h1.3v4.9c0,1.9.7,2.8,2.1,2.8a2.14,2.14,0,0,0,1.7-.8,3.22,3.22,0,0,0,.7-2v-5h1.3v8.8Z" transform="translate(-27.1 -22.9)"/><path class="a" d="M79.8,74.4a1.07,1.07,0,0,1,.2-0.6,1.14,1.14,0,0,1,.6-0.3,0.71,0.71,0,0,1,.6.3,0.9,0.9,0,0,1-.6,1.5,1.42,1.42,0,0,1-.6-0.2A0.84,0.84,0,0,1,79.8,74.4Zm0.1,11.8V77.6h1.3v8.6H79.9Z" transform="translate(-27.1 -22.9)"/><path class="a" d="M89.9,85.8a4.65,4.65,0,0,1-2.3.6,4,4,0,0,1-4.1-4.3,4.7,4.7,0,0,1,1.2-3.4,4.79,4.79,0,0,1,5.2-.9v1.4a3.14,3.14,0,0,0-2.1-.7,2.7,2.7,0,0,0-2.2,1,3.49,3.49,0,0,0-.9,2.5,3.65,3.65,0,0,0,.8,2.4,2.79,2.79,0,0,0,2.2.9,3.23,3.23,0,0,0,2.1-.8l0.1,1.3h0Z" transform="translate(-27.1 -22.9)"/><path class="a" d="M99.1,86.2H97.2l-3.9-4.1h0v4.1H92V73.4h1.3v8.1h0l3.7-4h1.7l-4.1,4.2Z" transform="translate(-27.1 -22.9)"/><path class="a" d="M105.9,84.9v1.3h-1.3V73.4h1.3v5.7h0a3.21,3.21,0,0,1,3-1.7,3.09,3.09,0,0,1,2.6,1.2,5,5,0,0,1,1,3.1,5.62,5.62,0,0,1-1.1,3.5,3.47,3.47,0,0,1-2.9,1.3,3.21,3.21,0,0,1-2.6-1.6h0Zm0-2.2a2.64,2.64,0,0,0,.7,1.9,2.5,2.5,0,0,0,1.8.8,2.33,2.33,0,0,0,2-1,4.53,4.53,0,0,0,.7-2.7,3.33,3.33,0,0,0-.7-2.3,2.17,2.17,0,0,0-1.8-.8,2.79,2.79,0,0,0-2,.8,3.23,3.23,0,0,0-.8,2.1l0.1,1.2h0Z" transform="translate(-27.1 -22.9)"/><path class="a" d="M119.1,78.9a1.49,1.49,0,0,0-1-.3,1.76,1.76,0,0,0-1.5.9,3.92,3.92,0,0,0-.6,2.3v4.4h-1.3V77.6H116v1.8h0a2.84,2.84,0,0,1,.9-1.4,2.35,2.35,0,0,1,1.3-.5,1.51,1.51,0,0,1,.8.1l0.1,1.3h0Z" transform="translate(-27.1 -22.9)"/><path class="a" d="M119.8,82a4.7,4.7,0,0,1,1.2-3.4,4.38,4.38,0,0,1,3.2-1.2,3.77,3.77,0,0,1,3,1.2,4.86,4.86,0,0,1,1.1,3.3,4.46,4.46,0,0,1-1.2,3.3,4.14,4.14,0,0,1-3.1,1.2,3.92,3.92,0,0,1-3-1.2A4.38,4.38,0,0,1,119.8,82Zm1.3-.1a3.65,3.65,0,0,0,.8,2.4,2.9,2.9,0,0,0,4.2,0,4.81,4.81,0,0,0,0-5,2.9,2.9,0,0,0-4.2,0A4.24,4.24,0,0,0,121.1,81.9Z" transform="translate(-27.1 -22.9)"/><path class="a" d="M141.3,77.6l-2.6,8.6h-1.4l-1.8-6.3a2,2,0,0,1-.1-0.8h0c0,0.1-.1.4-0.2,0.8l-2,6.3h-1.3l-2.6-8.6h1.4l1.8,6.6a2,2,0,0,1,.1.8h0.1a3.09,3.09,0,0,1,.2-0.8l2-6.5h1.2l1.8,6.6c0,0.2.1,0.4,0.1,0.8h0.1c0-.2.1-0.5,0.1-0.8l1.8-6.6,1.3-.1h0Z" transform="translate(-27.1 -22.9)"/><path class="a" d="M150,86.2h-1.3V81.3c0-1.9-.7-2.8-2-2.8a2.5,2.5,0,0,0-1.8.8,2.72,2.72,0,0,0-.7,2v4.9h-1.3V77.6h1.3V79h0a3,3,0,0,1,2.8-1.6,2.79,2.79,0,0,1,2.2.9,4,4,0,0,1,.8,2.6v5.3Z" transform="translate(-27.1 -22.9)"/><path class="a" d="M160.8,74.6a1.49,1.49,0,0,0-.9-0.2c-1,0-1.5.6-1.5,1.9v1.4h2v1.1h-2v7.5h-1.3V78.8h-1.5V77.7h1.5V76.3a2.86,2.86,0,0,1,.8-2.1,2.73,2.73,0,0,1,1.9-.8,2.79,2.79,0,0,1,1,.1v1.1Z" transform="translate(-27.1 -22.9)"/><path class="a" d="M161.4,82a4.7,4.7,0,0,1,1.2-3.4,4.38,4.38,0,0,1,3.2-1.2,3.77,3.77,0,0,1,3,1.2,4.86,4.86,0,0,1,1.1,3.3,4.46,4.46,0,0,1-1.2,3.3,4.14,4.14,0,0,1-3.1,1.2,3.92,3.92,0,0,1-3-1.2A4.38,4.38,0,0,1,161.4,82Zm1.3-.1a3.65,3.65,0,0,0,.8,2.4,2.9,2.9,0,0,0,4.2,0,4.81,4.81,0,0,0,0-5,2.9,2.9,0,0,0-4.2,0A4.24,4.24,0,0,0,162.7,81.9Z" transform="translate(-27.1 -22.9)"/><path class="a" d="M178,77.6L175.1,82l2.9,4.2h-1.5l-1.7-2.8a2.09,2.09,0,0,0-.4-0.6h0a4.58,4.58,0,0,1-.4.6l-1.8,2.8h-1.5l3-4.2-2.8-4.4h1.5l2.1,3.6h0c0.1-.1.1-0.2,0.2-0.3l2-3.4H178v0.1h0Z" transform="translate(-27.1 -22.9)"/><path class="a" d="M185,85.8a5.39,5.39,0,0,1-.9,3.3,2.85,2.85,0,0,1-2.4,1.2,2,2,0,0,1-1.1-.3V88.8a2.84,2.84,0,0,0,1.2.4c1.3,0,1.9-1,1.9-3.1V77.6H185v8.2Zm-1.5-11.4a1.07,1.07,0,0,1,.2-0.6,0.86,0.86,0,0,1,.6-0.3,0.71,0.71,0,0,1,.6.3,0.9,0.9,0,0,1-.6,1.5,1.07,1.07,0,0,1-.6-0.2A1.45,1.45,0,0,1,183.5,74.4Z" transform="translate(-27.1 -22.9)"/><path class="a" d="M194.7,86.2h-1.3V84.8h0a3,3,0,0,1-2.7,1.6c-2.1,0-3.1-1.2-3.1-3.7V77.5h1.3v4.9c0,1.9.7,2.8,2.1,2.8a2.14,2.14,0,0,0,1.7-.8,3.22,3.22,0,0,0,.7-2v-5h1.3v8.8Z" transform="translate(-27.1 -22.9)"/><path class="a" d="M209.7,86.2h-1.3v-5a3.58,3.58,0,0,0-.5-2.1,1.75,1.75,0,0,0-1.5-.6,1.9,1.9,0,0,0-1.5.8,3.38,3.38,0,0,0-.6,2v4.9H203V81.1c0-1.7-.7-2.6-2-2.6a1.9,1.9,0,0,0-1.5.8,3.17,3.17,0,0,0-.6,2v4.9h-1.3V77.6h1.3V79h0a3,3,0,0,1,2.7-1.6,2.46,2.46,0,0,1,1.5.5,2,2,0,0,1,.9,1.3,3.06,3.06,0,0,1,2.9-1.8c1.9,0,2.9,1.2,2.9,3.5v5.3h-0.1Z" transform="translate(-27.1 -22.9)"/><path class="a" d="M213.7,84.9v5.2h-1.3V77.5h1.3V79h0a3.21,3.21,0,0,1,3-1.7,3.09,3.09,0,0,1,2.6,1.2,5,5,0,0,1,1,3.1,5.62,5.62,0,0,1-1.1,3.5,3.47,3.47,0,0,1-2.9,1.3,2.9,2.9,0,0,1-2.6-1.5h0Zm0-2.2a2.41,2.41,0,0,0,.7,1.8,2.5,2.5,0,0,0,1.8.8,2.33,2.33,0,0,0,2-1,4.53,4.53,0,0,0,.7-2.7,3.33,3.33,0,0,0-.7-2.3,2.17,2.17,0,0,0-1.8-.8,3,3,0,0,0-2,.8,2.65,2.65,0,0,0-.8,2.1l0.1,1.3h0Z" transform="translate(-27.1 -22.9)"/><path class="a" d="M221.9,84.4a3.93,3.93,0,0,0,2.5.8q1.8,0,1.8-1.2a1,1,0,0,0-.4-0.9,7.64,7.64,0,0,0-1.6-.8,5.24,5.24,0,0,1-1.9-1.1,2.17,2.17,0,0,1-.5-1.4,2.27,2.27,0,0,1,.9-1.8,3.51,3.51,0,0,1,2.3-.7,4.48,4.48,0,0,1,2,.4v1.4a4,4,0,0,0-2.2-.6,2.13,2.13,0,0,0-1.2.3,1.05,1.05,0,0,0-.5.9,1.22,1.22,0,0,0,.3.9,4.68,4.68,0,0,0,1.5.8,8.35,8.35,0,0,1,2,1.1,1.74,1.74,0,0,1,.5,1.4,2,2,0,0,1-.9,1.8,4.27,4.27,0,0,1-2.4.7,5.21,5.21,0,0,1-2.3-.5V84.4h0.1Z" transform="translate(-27.1 -22.9)"/><path class="a" d="M233.2,82a4.7,4.7,0,0,1,1.2-3.4,4.22,4.22,0,0,1,3.2-1.2,3.77,3.77,0,0,1,3,1.2,4.86,4.86,0,0,1,1.1,3.3,4.46,4.46,0,0,1-1.2,3.3,4.14,4.14,0,0,1-3.1,1.2,3.92,3.92,0,0,1-3-1.2A4.38,4.38,0,0,1,233.2,82Zm1.3-.1a3.65,3.65,0,0,0,.8,2.4,2.9,2.9,0,0,0,4.2,0,4.81,4.81,0,0,0,0-5,2.9,2.9,0,0,0-4.2,0A4.24,4.24,0,0,0,234.5,81.9Z" transform="translate(-27.1 -22.9)"/><path class="a" d="M250.6,77.6l-3.5,8.6h-1.2l-3.3-8.6H244l2.2,6.3a3.46,3.46,0,0,1,.3,1.2h0a5.31,5.31,0,0,1,.3-1.1l2.3-6.4h1.5Z" transform="translate(-27.1 -22.9)"/><path class="a" d="M258.9,82.2h-6.1a3.2,3.2,0,0,0,.8,2.3,2.86,2.86,0,0,0,2.1.8,3.94,3.94,0,0,0,2.7-1v1.2a4.82,4.82,0,0,1-3,.8,3.36,3.36,0,0,1-2.8-1.2,5.4,5.4,0,0,1-1-3.3,5.24,5.24,0,0,1,1.1-3.3,3.54,3.54,0,0,1,2.8-1.3,3.31,3.31,0,0,1,2.6,1.1,4.48,4.48,0,0,1,.9,3l-0.1.9h0Zm-1.4-1.1a2.88,2.88,0,0,0-.6-1.9,1.86,1.86,0,0,0-1.6-.7,2.34,2.34,0,0,0-1.7.7,3.1,3.1,0,0,0-.9,1.9h4.8Z" transform="translate(-27.1 -22.9)"/><path class="a" d="M265.4,78.9a1.49,1.49,0,0,0-1-.3,1.76,1.76,0,0,0-1.5.9,3.92,3.92,0,0,0-.6,2.3v4.4H261V77.6h1.3v1.8h0a2.84,2.84,0,0,1,.9-1.4,2.35,2.35,0,0,1,1.3-.5,1.51,1.51,0,0,1,.8.1l0.1,1.3h0Z" transform="translate(-27.1 -22.9)"/><path class="a" d="M274.9,86.1a2.27,2.27,0,0,1-1.3.3c-1.5,0-2.2-.8-2.2-2.5V78.7h-1.5V77.6h1.5V75.5l1.3-.4v2.5h2.2v1.1h-2.2v5A2.27,2.27,0,0,0,273,85a1.33,1.33,0,0,0,1,.4,1.22,1.22,0,0,0,.9-0.3v1h0Z" transform="translate(-27.1 -22.9)"/><path class="a" d="M283.8,86.2h-1.3v-5c0-1.8-.7-2.8-2.1-2.8a2.14,2.14,0,0,0-1.7.8,3.22,3.22,0,0,0-.7,2v4.9h-1.3V73.3H278v5.6h0a3.11,3.11,0,0,1,2.8-1.6c1.9,0,2.9,1.2,2.9,3.5l0.1,5.4h0Z" transform="translate(-27.1 -22.9)"/><path class="a" d="M293.4,82.2h-6.1a3.2,3.2,0,0,0,.8,2.3,2.86,2.86,0,0,0,2.1.8,3.94,3.94,0,0,0,2.7-1v1.2a4.82,4.82,0,0,1-3,.8,3.36,3.36,0,0,1-2.8-1.2,5.4,5.4,0,0,1-1-3.3,5.24,5.24,0,0,1,1.1-3.3,3.54,3.54,0,0,1,2.8-1.3,3.31,3.31,0,0,1,2.6,1.1,4.48,4.48,0,0,1,.9,3l-0.1.9h0ZM292,81.1a2.88,2.88,0,0,0-.6-1.9,1.86,1.86,0,0,0-1.6-.7,2.34,2.34,0,0,0-1.7.7,3.1,3.1,0,0,0-.9,1.9H292Z" transform="translate(-27.1 -22.9)"/><path class="a" d="M299.5,86.2V73.4h1.3V86.2h-1.3Z" transform="translate(-27.1 -22.9)"/><path class="a" d="M303.9,78.2a5.47,5.47,0,0,1,2.9-.8c2,0,3,1.1,3,3.2v5.6h-1.3V84.8h0a3,3,0,0,1-2.7,1.6,2.58,2.58,0,0,1-2-.7,2.41,2.41,0,0,1-.7-1.8c0-1.6.9-2.5,2.8-2.8l2.6-.4c0-1.5-.6-2.2-1.8-2.2a4.3,4.3,0,0,0-2.8,1.1V78.2Zm2.4,3.9a3.2,3.2,0,0,0-1.5.5,1.9,1.9,0,0,0-.4,1.2,1.55,1.55,0,0,0,1.7,1.5,2.06,2.06,0,0,0,1.7-.7,2.49,2.49,0,0,0,.7-1.9V81.8Z" transform="translate(-27.1 -22.9)"/><path class="a" d="M318.3,86.2h-7V85.8l5.2-7.1h-4.7V77.6h6.6v0.3l-5.2,7.2h5.1v1.1h0Z" transform="translate(-27.1 -22.9)"/><path class="a" d="M327,77.6l-4,10.1c-0.7,1.8-1.7,2.6-2.9,2.6a2.77,2.77,0,0,1-.9-0.1V89a2.49,2.49,0,0,0,.8.1,1.74,1.74,0,0,0,1.6-1.3l0.7-1.7-3.4-8.6h1.4l2.4,6.7a3.93,3.93,0,0,0,.2.6h0a3.93,3.93,0,0,1,.2-0.6l2.5-6.8H327v0.2h0Z" transform="translate(-27.1 -22.9)"/><path class="a" d="M339.8,86.2h-1.3V84.7h0a3.18,3.18,0,0,1-3,1.7,3.09,3.09,0,0,1-2.6-1.2,5.71,5.71,0,0,1,.1-6.6,3.47,3.47,0,0,1,2.9-1.3,2.79,2.79,0,0,1,2.6,1.4h0V73.3h1.3V86.2ZM338.5,81a2.4,2.4,0,0,0-2.5-2.5,2.22,2.22,0,0,0-2,1,4.21,4.21,0,0,0-.7,2.6,3.61,3.61,0,0,0,.7,2.4,2.32,2.32,0,0,0,1.9.9,2.56,2.56,0,0,0,1.9-.8,3.23,3.23,0,0,0,.8-2.1V81h-0.1Z" transform="translate(-27.1 -22.9)"/><path class="a" d="M342,82a4.7,4.7,0,0,1,1.2-3.4,4.22,4.22,0,0,1,3.2-1.2,3.77,3.77,0,0,1,3,1.2,4.86,4.86,0,0,1,1.1,3.3,4.46,4.46,0,0,1-1.2,3.3,4.14,4.14,0,0,1-3.1,1.2,3.92,3.92,0,0,1-3-1.2A4.38,4.38,0,0,1,342,82Zm1.4-.1a3.65,3.65,0,0,0,.8,2.4,2.9,2.9,0,0,0,4.2,0,4.81,4.81,0,0,0,0-5,2.9,2.9,0,0,0-4.2,0A4.24,4.24,0,0,0,343.4,81.9Z" transform="translate(-27.1 -22.9)"/><path class="a" d="M360,85.5q0,4.8-4.5,4.8a6.09,6.09,0,0,1-2.8-.6V88.4a6.3,6.3,0,0,0,2.8.8c2.1,0,3.2-1.1,3.2-3.4v-1h0a3.4,3.4,0,0,1-3,1.7,3.09,3.09,0,0,1-2.6-1.2,4.45,4.45,0,0,1-1-3.1,5.42,5.42,0,0,1,1.1-3.5,3.47,3.47,0,0,1,2.9-1.3,2.9,2.9,0,0,1,2.6,1.4h0V77.6H360v7.9ZM358.7,81a2.4,2.4,0,0,0-2.5-2.5,2.22,2.22,0,0,0-2,1,4,4,0,0,0-.7,2.6,3.17,3.17,0,0,0,.7,2.3,2.32,2.32,0,0,0,1.9.9,2.56,2.56,0,0,0,1.9-.8,3.23,3.23,0,0,0,.8-2.1V81h-0.1Z" transform="translate(-27.1 -22.9)"/><path class="a" d="M362.4,85.5a0.91,0.91,0,0,1,.3-0.7,0.86,0.86,0,0,1,.6-0.3,0.71,0.71,0,0,1,.6.3,0.91,0.91,0,0,1,.3.7,0.71,0.71,0,0,1-.3.6,1.69,1.69,0,0,1-.6.3A1.06,1.06,0,0,1,362.4,85.5Z" transform="translate(-27.1 -22.9)"/><path class="a" d="M35.2,107.2H28.4V106h2.8V96.5l-2.8.9V96.1l4.1-1.3V106h2.7v1.2Z" transform="translate(-27.1 -22.9)"/><path class="a" d="M44.2,107.2H37V106l3.5-3.5a12.3,12.3,0,0,0,2.2-2.6,3.29,3.29,0,0,0,.4-1.7,2,2,0,0,0-.6-1.6,2.35,2.35,0,0,0-1.7-.6,4.62,4.62,0,0,0-3.1,1.4V96A5.24,5.24,0,0,1,41,94.9a3.49,3.49,0,0,1,2.5.9,3.24,3.24,0,0,1,.9,2.4,4.28,4.28,0,0,1-.6,2.2,14.93,14.93,0,0,1-2.3,2.8L38.7,106h5.7v1.2H44.2Z" transform="translate(-27.1 -22.9)"/><path class="a" d="M46.5,105.3a4.19,4.19,0,0,0,2.8,1,3.17,3.17,0,0,0,2-.6,2.14,2.14,0,0,0,.8-1.7c0-1.6-1.1-2.4-3.4-2.4h-1v-1.1h1c2,0,3-.8,3-2.3s-0.8-2.1-2.3-2.1A3.58,3.58,0,0,0,47,97V95.7a5,5,0,0,1,2.7-.7,3.65,3.65,0,0,1,2.4.8,2.58,2.58,0,0,1,.9,2.1,3,3,0,0,1-2.4,3.1h0a3.4,3.4,0,0,1,2.1.9,2.79,2.79,0,0,1,.8,2,3.09,3.09,0,0,1-1.2,2.6,4.36,4.36,0,0,1-3,1,5.4,5.4,0,0,1-2.7-.6l-0.1-1.6h0Z" transform="translate(-27.1 -22.9)"/><path class="a" d="M63.4,103.9H61.8v3.2H60.5v-3.2H54.8V103l5.4-8h1.6v7.8h1.6v1.1Zm-2.9-1V96.3h0a4.54,4.54,0,0,1-.5.9l-3.8,5.7h4.3Z" transform="translate(-27.1 -22.9)"/><path class="a" d="M65.4,105.5a4.9,4.9,0,0,0,2.5.8,3,3,0,0,0,2.1-.7,2.63,2.63,0,0,0,.8-2,2.41,2.41,0,0,0-.8-1.9,3.7,3.7,0,0,0-2.3-.7,16.67,16.67,0,0,0-1.9.1v-6h5.8v1.2H67v3.6h1a4,4,0,0,1,3,1,3.87,3.87,0,0,1-.1,5.5,5,5,0,0,1-3.1,1,5.51,5.51,0,0,1-2.5-.5v-1.4h0.1Z" transform="translate(-27.1 -22.9)"/><path class="a" d="M81.1,96.5a4.55,4.55,0,0,0-2-.5,2.9,2.9,0,0,0-2.6,1.5,7.49,7.49,0,0,0-1,3.9h0a2.84,2.84,0,0,1,2.8-1.7,3,3,0,0,1,2.5,1,4,4,0,0,1,.9,2.7,4.17,4.17,0,0,1-1.1,2.9,3.34,3.34,0,0,1-2.7,1.1,3.27,3.27,0,0,1-2.9-1.5,6.78,6.78,0,0,1-1-4,8.66,8.66,0,0,1,1.3-5,4.23,4.23,0,0,1,3.6-2,4,4,0,0,1,2,.4v1.2h0.2Zm-5.4,6.7a3.23,3.23,0,0,0,.7,2.2,2.27,2.27,0,0,0,1.8.9,2.14,2.14,0,0,0,1.7-.8,3.22,3.22,0,0,0,.7-2,3.28,3.28,0,0,0-.6-2.1,2.14,2.14,0,0,0-1.8-.7,2.06,2.06,0,0,0-1.7.7A3,3,0,0,0,75.7,103.2Z" transform="translate(-27.1 -22.9)"/><path class="a" d="M91,95.5l-4.8,11.7H84.9l4.5-10.9H83.3V95.1h7.8v0.4H91Z" transform="translate(-27.1 -22.9)"/><path class="a" d="M95.3,100.8a3.23,3.23,0,0,1-2.2-3,2.7,2.7,0,0,1,1-2.2,4.15,4.15,0,0,1,2.5-.8,3.57,3.57,0,0,1,2.3.8,2.52,2.52,0,0,1,.9,2,3.5,3.5,0,0,1-2.2,3.1h0c1.8,0.7,2.6,1.8,2.6,3.3a3,3,0,0,1-1.1,2.4,4.37,4.37,0,0,1-2.9.9,3.66,3.66,0,0,1-2.5-.9,2.76,2.76,0,0,1-1-2.3c0-1.4.8-2.5,2.6-3.3h0Zm1.1,0.7q-2.4.9-2.4,2.7a1.58,1.58,0,0,0,.7,1.5,3.51,3.51,0,0,0,1.8.6,2.35,2.35,0,0,0,1.7-.6,2.13,2.13,0,0,0,.7-1.5C98.9,103,98.1,102.1,96.4,101.5Zm2.1-3.6a1.73,1.73,0,0,0-.5-1.3,2.21,2.21,0,0,0-2.8,0,1.61,1.61,0,0,0-.6,1.3,2.6,2.6,0,0,0,2,2.4A2.82,2.82,0,0,0,98.5,97.9Z" transform="translate(-27.1 -22.9)"/><path class="a" d="M102.5,105.7a4.2,4.2,0,0,0,2.1.6,2.93,2.93,0,0,0,2.6-1.3,6.89,6.89,0,0,0,.9-3.8h0a2.68,2.68,0,0,1-2.7,1.6,3.59,3.59,0,0,1-3.6-3.8,4.17,4.17,0,0,1,1.1-2.9,3.49,3.49,0,0,1,2.8-1.2,3.37,3.37,0,0,1,2.8,1.4,7.74,7.74,0,0,1,1,4.1,8.37,8.37,0,0,1-1.3,5.1,4.15,4.15,0,0,1-3.6,1.8,4.64,4.64,0,0,1-2.1-.4v-1.2Zm0.7-7a2.72,2.72,0,0,0,.7,2,2.34,2.34,0,0,0,1.8.8,2.06,2.06,0,0,0,1.7-.7,2.19,2.19,0,0,0,.7-1.7,3.51,3.51,0,0,0-.7-2.3,2.27,2.27,0,0,0-1.8-.9,2.14,2.14,0,0,0-1.7.8A3.72,3.72,0,0,0,103.2,98.7Z" transform="translate(-27.1 -22.9)"/><path class="a" d="M111.1,101.4a9.43,9.43,0,0,1,1-4.9,3.31,3.31,0,0,1,3-1.6c2.5,0,3.8,2.1,3.8,6.2a8.88,8.88,0,0,1-1,4.7,3.31,3.31,0,0,1-3,1.6,3,3,0,0,1-2.8-1.6A7.75,7.75,0,0,1,111.1,101.4Zm1.3-.1c0,3.3.9,5,2.6,5s2.6-1.7,2.6-5c0-3.5-.8-5.2-2.5-5.2S112.4,97.8,112.4,101.3Z" transform="translate(-27.1 -22.9)"/><path class="a" d="M121.2,106.5a0.6,0.6,0,0,1,.3-0.6,1.69,1.69,0,0,1,.6-0.3,0.9,0.9,0,0,1,0,1.8,0.91,0.91,0,0,1-.7-0.3A1.42,1.42,0,0,1,121.2,106.5Zm1.5-11.4-0.1,8.7h-1.1l-0.1-8.7h1.3Z" transform="translate(-27.1 -22.9)"/><path class="a" d="M135.7,98.2c-0.3,3.1-.4,4.7-0.4,4.7,0,1.2.3,1.8,1,1.8a1.82,1.82,0,0,0,1.6-1,5.7,5.7,0,0,0-.9-6.4,5.59,5.59,0,0,0-4.1-1.5,5.24,5.24,0,0,0-4.1,1.8,6.13,6.13,0,0,0-1.6,4.4,5.5,5.5,0,0,0,1.6,4.2,5.36,5.36,0,0,0,4.2,1.6,8,8,0,0,0,3.6-.7v1a9.69,9.69,0,0,1-3.6.6,6.41,6.41,0,0,1-4.9-1.9,6.79,6.79,0,0,1-1.9-4.9,6.93,6.93,0,0,1,2-5.1,6.86,6.86,0,0,1,5-2,6.77,6.77,0,0,1,4.7,1.7,5.55,5.55,0,0,1,1.9,4.5,5.18,5.18,0,0,1-1,3.3,3,3,0,0,1-2.4,1.3c-1.2,0-1.8-.7-1.9-2h0a2.45,2.45,0,0,1-4.3,1.1,3.33,3.33,0,0,1-.7-2.3,4.9,4.9,0,0,1,1-3.2,3.32,3.32,0,0,1,2.6-1.3,2.28,2.28,0,0,1,1.1.3,0.94,0.94,0,0,1,.6.8h0a8.15,8.15,0,0,1,.1-1h0.8v0.2h0Zm-5.3,4.3a2.54,2.54,0,0,0,.4,1.6,1.43,1.43,0,0,0,1.2.6,2,2,0,0,0,1.7-1.1,5.55,5.55,0,0,0,.6-2.8q0-1.8-1.5-1.8a1.86,1.86,0,0,0-1.7,1A4.9,4.9,0,0,0,130.4,102.5Z" transform="translate(-27.1 -22.9)"/><path class="a" d="M150.8,98.5l-0.2.9h-2.2l-0.5,2.6h2.4l-0.2.9h-2.4l-0.8,3.4h-1l0.7-3.4h-2.1l-0.7,3.4h-1l0.7-3.4h-2.2l0.1-.9h2.3l0.5-2.6h-2.3l0.2-.9h2.4l0.7-3.4h1l-0.7,3.4h2.1l0.7-3.4h1l-0.7,3.4h2.2Zm-3.4.9h-2.1l-0.6,2.6h2.2Z" transform="translate(-27.1 -22.9)"/><path class="a" d="M156.4,109h-0.9v-1.8a5,5,0,0,1-2.9-.7v-1.4a4,4,0,0,0,1.3.7,4.53,4.53,0,0,0,1.6.3v-4.4a5.62,5.62,0,0,1-2.4-1.7,3.45,3.45,0,0,1-.5-1.8,3.23,3.23,0,0,1,.8-2.1,3.09,3.09,0,0,1,2.1-1.1V93.5h0.9V95a4.11,4.11,0,0,1,2.3.5v1.4a3.7,3.7,0,0,0-2.3-.7v4.5a9.13,9.13,0,0,1,2.3,1.5,2.41,2.41,0,0,1,.7,1.8,2.79,2.79,0,0,1-.8,2,3.76,3.76,0,0,1-2.2,1v2h0Zm-0.9-12.8a1.85,1.85,0,0,0-1.2.7,1.59,1.59,0,0,0-.4,1.2,1.8,1.8,0,0,0,.3,1.1,3.85,3.85,0,0,0,1.3,1v-4h0Zm0.9,9.8a1.76,1.76,0,0,0,1.7-1.8c0-.8-0.6-1.5-1.7-2.1V106Z" transform="translate(-27.1 -22.9)"/><path class="a" d="M161.1,98.1a3.65,3.65,0,0,1,.8-2.4,2.58,2.58,0,0,1,2.1-.9,2.63,2.63,0,0,1,2,.8,3.07,3.07,0,0,1,.7,2.2,3.57,3.57,0,0,1-.8,2.3,2.58,2.58,0,0,1-2.1.9A2.6,2.6,0,0,1,161.1,98.1Zm1.1,0a2.54,2.54,0,0,0,.5,1.6,1.49,1.49,0,0,0,1.3.6,1.61,1.61,0,0,0,1.3-.6,2.86,2.86,0,0,0,.5-1.7,2.54,2.54,0,0,0-.4-1.6,1.43,1.43,0,0,0-1.2-.6,1.61,1.61,0,0,0-1.3.6A2.06,2.06,0,0,0,162.2,98.1Zm9.7-3-7.8,12.2h-1.2l7.8-12.2h1.2Zm-3.6,9.3a3.65,3.65,0,0,1,.8-2.4,2.58,2.58,0,0,1,2.1-.9,2.79,2.79,0,0,1,2,.8,3.17,3.17,0,0,1,.7,2.3,3.37,3.37,0,0,1-.8,2.3,2.58,2.58,0,0,1-2.1.9,2.79,2.79,0,0,1-2-.8A3.84,3.84,0,0,1,168.3,104.4Zm1.1-.1a2.54,2.54,0,0,0,.5,1.6,1.49,1.49,0,0,0,1.3.6,1.61,1.61,0,0,0,1.3-.6,2.86,2.86,0,0,0,.5-1.7,2.54,2.54,0,0,0-.4-1.6,1.43,1.43,0,0,0-1.2-.6,1.49,1.49,0,0,0-1.3.6A2.94,2.94,0,0,0,169.4,104.3Z" transform="translate(-27.1 -22.9)"/><path class="a" d="M184.4,101.9h-1.2l-2.8-5.2h0l-2.6,5.2h-1.2l3.6-7h0.5Z" transform="translate(-27.1 -22.9)"/><path class="a" d="M195.8,105.5a5.56,5.56,0,0,1-4.3,1.9,4.48,4.48,0,0,1-3-.9,3.25,3.25,0,0,1-1.1-2.5c0-1.7.9-2.9,2.8-3.7a3.11,3.11,0,0,1-1.4-2.5,2.52,2.52,0,0,1,.9-2,3.29,3.29,0,0,1,2.2-.8,2.82,2.82,0,0,1,2.1.7,2.56,2.56,0,0,1,.8,1.9c0,1.3-.8,2.2-2.3,2.8a7.23,7.23,0,0,1,3.4,3.2,7.75,7.75,0,0,0,1.4-4.5,4.87,4.87,0,0,0-.1-1.2h1.3a3.75,3.75,0,0,1,.1,1.1,9.59,9.59,0,0,1-2,5.6,5.22,5.22,0,0,0,1.2,1.3,1.69,1.69,0,0,0,1,.3,5.76,5.76,0,0,0,1-.2v1.2a2.54,2.54,0,0,1-1.2.2,1.84,1.84,0,0,1-1.3-.4A4.18,4.18,0,0,1,195.8,105.5Zm-0.6-1a12.16,12.16,0,0,0-1.9-2.5,5.61,5.61,0,0,0-2-1.2,4.78,4.78,0,0,0-1.9,1.2,2.61,2.61,0,0,0-.6,1.8,2.14,2.14,0,0,0,.8,1.7,3.17,3.17,0,0,0,2,.6A4.19,4.19,0,0,0,195.2,104.5Zm-3.7-4.8a5.65,5.65,0,0,0,1.6-.9,1.54,1.54,0,0,0,.5-1.3,1.66,1.66,0,0,0-.5-1.2,1.59,1.59,0,0,0-1.2-.4,2.17,2.17,0,0,0-1.4.5,1.66,1.66,0,0,0-.5,1.2A2.31,2.31,0,0,0,191.5,99.7Z" transform="translate(-27.1 -22.9)"/><path class="a" d="M206.7,97.9l-2.3.5,1.6,2.1-0.9.6-1.3-2.2-1.3,2.2-0.9-.6,1.6-2.1-2.3-.5,0.4-1,2.2,0.8-0.2-2.6h1.1l-0.2,2.6,2.2-.8Z" transform="translate(-27.1 -22.9)"/><path class="a" d="M211.1,109.9a11,11,0,0,1-2.6-7.4,11.59,11.59,0,0,1,2.6-7.5h1.2a11.15,11.15,0,0,0-2.7,7.5,11.51,11.51,0,0,0,2.6,7.4h-1.1Z" transform="translate(-27.1 -22.9)"/><path class="a" d="M212.6,109.9a10.81,10.81,0,0,0,2.6-7.4,11.52,11.52,0,0,0-2.7-7.5h1.2a10.89,10.89,0,0,1,2.6,7.5,11.13,11.13,0,0,1-2.6,7.4h-1.1Z" transform="translate(-27.1 -22.9)"/><path class="a" d="M224.7,109.7h-7.2v-1h7.2v1Z" transform="translate(-27.1 -22.9)"/><path class="b" d="M30.4,30.8v5.4H28.7V23.3h3.6a12.48,12.48,0,0,1,2.1.2,5.23,5.23,0,0,1,1.5.7,3.13,3.13,0,0,1,.9,1.1,3.34,3.34,0,0,1,.3,1.5,5.07,5.07,0,0,1-.2,1.3,3.88,3.88,0,0,1-.6,1.1,2.72,2.72,0,0,1-1,.8,5,5,0,0,1-1.3.5,2.65,2.65,0,0,1,.6.5l3.8,5.1H36.9a0.67,0.67,0,0,1-.7-0.4l-3.3-4.6-0.3-.3a0.75,0.75,0,0,0-.5-0.1H30.4v0.1Zm0-1.3h1.8a4.44,4.44,0,0,0,1.3-.2,3.13,3.13,0,0,0,1-.5,1.56,1.56,0,0,0,.6-0.8,3.55,3.55,0,0,0,.2-1,2,2,0,0,0-.8-1.7,3.71,3.71,0,0,0-2.3-.6H30.3v4.8h0.1Z" transform="translate(-27.1 -22.9)"/><path class="b" d="M43.4,26.9a3.65,3.65,0,0,1,1.5.3,2.55,2.55,0,0,1,1.2.8,5.67,5.67,0,0,1,.8,1.3,4.67,4.67,0,0,1,.3,1.7,0.62,0.62,0,0,1-.1.5,0.37,0.37,0,0,1-.3.1H40.7a6.05,6.05,0,0,0,.2,1.5,2.44,2.44,0,0,0,1.5,1.7,3.73,3.73,0,0,0,1.2.2,3.08,3.08,0,0,0,1-.1c0.3-.1.5-0.2,0.8-0.3a2.19,2.19,0,0,0,.5-0.3,0.6,0.6,0,0,1,.4-0.1,0.53,0.53,0,0,1,.3.2L47,35a4.35,4.35,0,0,1-.7.6,3.55,3.55,0,0,1-.9.4c-0.3.1-.6,0.2-1,0.3a3.4,3.4,0,0,1-1,.1,4.67,4.67,0,0,1-1.7-.3,4.19,4.19,0,0,1-1.4-.9,3.77,3.77,0,0,1-.9-1.5,6.65,6.65,0,0,1-.3-2.1,5.66,5.66,0,0,1,.3-1.8,4.68,4.68,0,0,1,.8-1.4,6.42,6.42,0,0,1,1.3-1A4.89,4.89,0,0,1,43.4,26.9Zm0.1,1.2a2.14,2.14,0,0,0-1.8.7,3.34,3.34,0,0,0-.8,1.9h5a3,3,0,0,0-.2-1,5.94,5.94,0,0,0-.4-0.8,1.79,1.79,0,0,0-.7-0.5A3,3,0,0,0,43.5,28.1Z" transform="translate(-27.1 -22.9)"/><path class="b" d="M52.3,26.9a3.75,3.75,0,0,1,1.1.1,2.47,2.47,0,0,1,.9.4h2.5V28a0.42,0.42,0,0,1-.4.4l-1,.1a2.77,2.77,0,0,1,.3,1.3,2.66,2.66,0,0,1-.3,1.2,2.18,2.18,0,0,1-.7.9,2.38,2.38,0,0,1-1.1.6,5.9,5.9,0,0,1-1.4.2,5,5,0,0,1-1.2-.2,1.51,1.51,0,0,0-.4.4,0.6,0.6,0,0,0-.1.4,0.55,0.55,0,0,0,.3.5,1.45,1.45,0,0,0,.7.2c0.3,0,.6.1,1,0.1h1.1a3.75,3.75,0,0,1,1.1.1c0.4,0.1.7,0.2,1,.3a4.35,4.35,0,0,1,.7.6,1.69,1.69,0,0,1,.3,1,2,2,0,0,1-.3,1.1,3.92,3.92,0,0,1-.8,1,5.39,5.39,0,0,1-1.3.7,4.84,4.84,0,0,1-1.8.3,9.91,9.91,0,0,1-1.8-.2,3.34,3.34,0,0,1-1.2-.5,1.78,1.78,0,0,1-.7-0.8,1.49,1.49,0,0,1-.2-0.9,1.37,1.37,0,0,1,.4-1.1,3.6,3.6,0,0,1,1.2-.8,1,1,0,0,1-.6-0.5,1.08,1.08,0,0,1-.2-0.8,0.6,0.6,0,0,1,.1-0.4,0.76,0.76,0,0,1,.2-0.4,1.51,1.51,0,0,1,.4-0.4,2.19,2.19,0,0,1,.5-0.3,3.57,3.57,0,0,1-1.1-1,2.41,2.41,0,0,1-.4-1.5,2.66,2.66,0,0,1,.3-1.2,2.18,2.18,0,0,1,.7-0.9,3.88,3.88,0,0,1,1.1-.6A3.75,3.75,0,0,0,52.3,26.9Zm2.9,9.8a1.42,1.42,0,0,0-.2-0.6,0.85,0.85,0,0,0-.5-0.3c-0.2-.1-0.5-0.1-0.7-0.2s-0.6-.1-0.9-0.1h-1a2.77,2.77,0,0,1-.9-0.1,5.55,5.55,0,0,0-.8.6,1.14,1.14,0,0,0-.3.8,1.42,1.42,0,0,0,.2.6,2.36,2.36,0,0,0,.5.5,6.89,6.89,0,0,0,.8.3,4.12,4.12,0,0,0,1.2.1,4.87,4.87,0,0,0,1.2-.1l0.9-.3a1.21,1.21,0,0,0,.5-0.5A1.65,1.65,0,0,0,55.2,36.7Zm-2.9-5a2.77,2.77,0,0,0,.9-0.1,1.27,1.27,0,0,0,.6-0.4c0.1-.2.3-0.4,0.4-0.6a1.7,1.7,0,0,0,.1-0.7,1.73,1.73,0,0,0-.5-1.3,2.07,2.07,0,0,0-1.5-.5,2.46,2.46,0,0,0-1.5.5,1.9,1.9,0,0,0-.5,1.3,1.48,1.48,0,0,0,.1.7,1.84,1.84,0,0,0,1,1A2.77,2.77,0,0,0,52.3,31.7Z" transform="translate(-27.1 -22.9)"/><path class="b" d="M59.8,27.1v5.8a2.54,2.54,0,0,0,.5,1.6,1.68,1.68,0,0,0,1.4.6,2.77,2.77,0,0,0,1.3-.3,3.13,3.13,0,0,0,1.1-.9V27.2h1.6v9.1h-1a0.35,0.35,0,0,1-.4-0.3l-0.1-1a6.89,6.89,0,0,1-1.3,1.1,3.29,3.29,0,0,1-1.7.4,5.07,5.07,0,0,1-1.3-.2,3.59,3.59,0,0,1-1-.7,2.38,2.38,0,0,1-.6-1.1,5.9,5.9,0,0,1-.2-1.4V27.3h1.7V27.1Z" transform="translate(-27.1 -22.9)"/><path class="b" d="M70.2,22.9V36.2H68.6V22.9h1.6Z" transform="translate(-27.1 -22.9)"/><path class="b" d="M79.7,36.2H79a0.48,0.48,0,0,1-.4-0.1,0.25,0.25,0,0,1-.2-0.3L78.2,35c-0.2.2-.5,0.4-0.7,0.6a2.51,2.51,0,0,1-.7.4c-0.3.1-.5,0.2-0.8,0.3a2.77,2.77,0,0,1-.9.1,3.08,3.08,0,0,1-1-.1,2,2,0,0,1-.8-0.4,2.18,2.18,0,0,1-.5-0.8,3.59,3.59,0,0,1-.2-1.1,1.69,1.69,0,0,1,.3-1,3,3,0,0,1,1-.9,4.28,4.28,0,0,1,1.7-.6,10.17,10.17,0,0,1,2.6-.2V30.6a2.35,2.35,0,0,0-.5-1.6,1.54,1.54,0,0,0-1.3-.5,3.08,3.08,0,0,0-1,.1,4.88,4.88,0,0,0-.7.3,2.19,2.19,0,0,0-.5.3,0.6,0.6,0,0,1-.4.1,0.37,0.37,0,0,1-.3-0.1L73.3,29,73,28.5a5.72,5.72,0,0,1,1.6-1.1,4.06,4.06,0,0,1,1.9-.4,3.19,3.19,0,0,1,1.4.3,3.59,3.59,0,0,1,1,.7,2.38,2.38,0,0,1,.6,1.1,5.9,5.9,0,0,1,.2,1.4v5.7h0Zm-4.1-1a2.2,2.2,0,0,0,.8-0.1,6.37,6.37,0,0,0,.7-0.2,2.09,2.09,0,0,0,.6-0.4,2.65,2.65,0,0,0,.6-0.5V32.1a10.89,10.89,0,0,0-1.9.1,5,5,0,0,0-1.3.4,2.1,2.1,0,0,0-.7.5,1.45,1.45,0,0,0-.2.7,1.08,1.08,0,0,0,.1.6c0.1,0.1.2,0.3,0.3,0.4a0.76,0.76,0,0,0,.5.2A0.48,0.48,0,0,0,75.6,35.2Z" transform="translate(-27.1 -22.9)"/><path class="b" d="M82.2,36.2V27.1h0.9a0.48,0.48,0,0,1,.4.1,0.37,0.37,0,0,1,.1.3l0.1,1.4a4.43,4.43,0,0,1,1.2-1.5,2.35,2.35,0,0,1,1.6-.5,1.48,1.48,0,0,1,.7.1c0.2,0.1.4,0.1,0.6,0.2l-0.2,1.2a0.25,0.25,0,0,1-.3.2,0.76,0.76,0,0,1-.4-0.1,1.48,1.48,0,0,0-.7-0.1,2.17,2.17,0,0,0-1.4.5,2.84,2.84,0,0,0-.9,1.4v5.8l-1.7.1h0Z" transform="translate(-27.1 -22.9)"/><path class="a" d="M35.5,170.6h-3V173H31.1v-2.4H28v-1.3h3.1v-1H28.7v-5.6h2.4v-1H28.2v-1.3h2.9V159h1.4v1.4h2.9v1.3H32.5v1h2.4v5.6H32.5v1h3v1.3Zm-2-5.7V164H30.1v0.9h3.4Zm0,2.2v-1H30.1v1h3.4Zm8,4.3a1.85,1.85,0,0,1-.5,1.2,3.87,3.87,0,0,1-2.6.4L38,171.6h1.4a0.52,0.52,0,0,0,.4-0.2A0.76,0.76,0,0,0,40,171v-2.8H37.5a11.33,11.33,0,0,1-1.5,4.9l-1.2-.8a10.1,10.1,0,0,0,1.5-5.9v-7.2h5.1l0.1,12.2h0Zm-1.4-8.5v-2.3H37.7v2.3h2.4Zm0,4v-2.5H37.7v2.5h2.4Z" transform="translate(-27.1 -22.9)"/><path class="a" d="M51.3,160a29.57,29.57,0,0,1-6.8.7l-0.4-1.2a31.8,31.8,0,0,0,6.5-.5Zm0.1,11.9a0.91,0.91,0,0,1-.4.8,2.94,2.94,0,0,1-1.7.3l-0.4-1.1-0.2.2-0.6-.6a8.64,8.64,0,0,1-1.6,1l-0.6-.9a5.67,5.67,0,0,0,1.3-.8,2.89,2.89,0,0,0-1-.6l0.6-.6H46.1v-1h3.5v0.9a6.55,6.55,0,0,1-.8,1.3l0.6,0.6-0.4.4h0.5q0.6,0,.6-0.3V166H48.4a4.44,4.44,0,0,1-.8,1.1,2.77,2.77,0,0,0,.9-0.1c-0.1-.1-0.1-0.2-0.2-0.3l0.9-.4a8,8,0,0,1,.8,1.6l-0.9.4a0.52,0.52,0,0,0-.2-0.4,11.34,11.34,0,0,1-2.5.3l-0.2-1a2.17,2.17,0,0,0,1-1.1H45.8v7H44.4V165h2.7c-0.4-.3-0.9-0.5-1.4-0.8l1.4-.5a2.51,2.51,0,0,1,.8.5,10.9,10.9,0,0,0,1.1-.6H44.3v-1.1h7v1a23.94,23.94,0,0,1-2.4,1.3l0.1,0.1h2.5l-0.1,7h0Zm-4.9-10-1.2.4a3.59,3.59,0,0,0-.7-1l1.2-.4A9.82,9.82,0,0,0,46.5,161.9Zm2.4,0.1-1.2.3a7.46,7.46,0,0,0-.7-1.2l1.2-.3A5.35,5.35,0,0,1,48.9,162Zm-0.5,7.6H47.1a4.05,4.05,0,0,0,.9.5A2.18,2.18,0,0,0,48.4,169.6Zm3-8.8a6.53,6.53,0,0,1-1,1.5l-1.2-.5a3.81,3.81,0,0,0,.9-1.3Zm6.5,5.8H55.6v1.8h2v1.3h-2V173H54.1v-3.3h-2v-1.3h2v-1.8H51.8v-1.3h1.3a10.51,10.51,0,0,0-.8-2.5l0.9-.6H52v-1.3h2.1a11.11,11.11,0,0,0-.7-1.6l1.4-.3a16.67,16.67,0,0,1,.8,2h2.2v1.3H56.4l1,0.4a13.8,13.8,0,0,1-.7,2.6H58l-0.1,1.3h0Zm-2-4.4H53.6a24.63,24.63,0,0,1,.9,3.1h0.8A15.47,15.47,0,0,0,55.9,162.2Z" transform="translate(-27.1 -22.9)"/><path class="a" d="M72.9,173H71.4v-1.2H62.6V173H61.1V161.4h3a19.65,19.65,0,0,0,1.3-2.5l1.5,0.3a11.3,11.3,0,0,1-1.1,2.2h7L72.9,173h0Zm-1.5-7.2v-3.1H62.6v3.1h8.8Zm0,4.6v-3.1H62.6v3.1h8.8Z" transform="translate(-27.1 -22.9)"/><path class="a" d="M89.4,166.3H88V165H77.7v1.3H76.3v-2.6h3.6a11.42,11.42,0,0,0-.9-1.6l1.1-.4H76.3v-1.3H82a3.74,3.74,0,0,0-.6-1l1.6-.3a7.26,7.26,0,0,1,.6,1.4h5.5v1.3H85.3l1.1,0.5a5.3,5.3,0,0,1-.8,1.5h3.5v2.5h0.3ZM88,170.8a1.28,1.28,0,0,1-.4,1,5.32,5.32,0,0,1-2.3.3l-0.5-1.4a5.83,5.83,0,0,0,1.8-.1,0.28,0.28,0,0,0,.1-0.3V168h-3v5H82.3v-5h-3v4.1H77.9v-5.4h4.4v-1.3h1.4v1.3h4.4L88,170.8h0Zm-2.6-9.2H80.5a12.22,12.22,0,0,1,1,2h2.7A7,7,0,0,0,85.4,161.6Z" transform="translate(-27.1 -22.9)"/><path class="a" d="M100.2,170l-0.8,1.2a22,22,0,0,0-2.3-2v3.9H95.7V169a13.26,13.26,0,0,1-2.9,2.9l-0.9-1.1a12.71,12.71,0,0,0,3.3-3.3H92.4v-1.3h3.3v-1.4h1.4v1.4h2.7v1.3H97.1v0.3A23,23,0,0,1,100.2,170Zm-0.3-9.9a38,38,0,0,1-7.1,1.3l-0.6-1.3a30.7,30.7,0,0,0,6.9-1.2Zm-5.1,4.4-1.3.6a15.54,15.54,0,0,0-1.2-2.8l1.2-.6A13.82,13.82,0,0,1,94.8,164.5Zm2.3-.7-1.3.4a15.25,15.25,0,0,0-.9-2.5l1.3-.5A11.42,11.42,0,0,1,97.1,163.8Zm3-2.5a16.57,16.57,0,0,1-1.3,3.5l-1.2-.6a17.45,17.45,0,0,0,1.3-3.3ZM106,168a14.33,14.33,0,0,1-5.7,5.1L99.4,172a13,13,0,0,0,5.4-4.9Zm-0.4-8.4a13,13,0,0,1-4.4,3.9l-1.1-1a13.72,13.72,0,0,0,4.4-3.6Zm0.3,3.9a14.93,14.93,0,0,1-4.8,4.5l-1-1.1a11.36,11.36,0,0,0,4.6-4.3Z" transform="translate(-27.1 -22.9)"/><path class="a" d="M122,169.7h-4a17.94,17.94,0,0,1,3.2,2.6l-1,.9c-0.4-.4-0.8-0.7-1-0.9-3.1.3-6.4,0.6-9.8,0.7l-0.3-1.1a5.47,5.47,0,0,0,3-2.1h-4.2v-1.2h14l0.1,1.1h0Zm-0.3-4.9h-1.4v-2.4h-4.6v3.5h-1.4v-3.5h-4.5v2.4h-1.4v-3.6h6v-0.7h-5.5v-1.2H121v1.2h-5.4v0.7h6v3.6h0.1Zm-0.8,2.9H109.2v-1.2h11.7v1.2Zm-7-2.3c-1.1.3-2.4,0.5-3.6,0.7l-0.4-1c1.2-.2,2.4-0.4,3.6-0.7Zm0-2.2-0.5,1a22.71,22.71,0,0,0-3.4-.5l0.4-1A29.39,29.39,0,0,1,113.9,163.2Zm3.9,8a11.85,11.85,0,0,0-1.2-.8l0.8-.7h-3.3a12.84,12.84,0,0,1-2.3,1.9C113.9,171.5,115.9,171.4,117.8,171.2Zm2.1-7.5a36,36,0,0,1-3.6.4l-0.4-1a15.86,15.86,0,0,0,3.4-.4ZM120,165l-0.4.9a21.36,21.36,0,0,0-3.5-.6l0.4-.9A19.68,19.68,0,0,1,120,165Z" transform="translate(-27.1 -22.9)"/><path class="a" d="M130.4,164.6h-4.6V173h-1.4V159.4h6v5.2Zm-1.4-3.2v-0.7h-3.2v0.7H129Zm0,1.9v-0.8h-3.2v0.8H129Zm5.3,8.2h-6.6v-6.2h6.6v6.2Zm-1.4-3.7v-1.2h-3.8v1.2h3.8Zm0,2.5V169h-3.8v1.3h3.8Zm4.5,1.3a1.37,1.37,0,0,1-.4,1.1,1.61,1.61,0,0,1-.9.3h-1l-0.5-1.4h0.8a0.75,0.75,0,0,0,.5-0.1c0.1,0,.1-0.1.1-0.2v-6.8h-4.5v-5.1h5.9v12.2h0ZM136,161.4v-0.7h-3.1v0.7H136Zm0,1.9v-0.8h-3.1v0.8H136Z" transform="translate(-27.1 -22.9)"/><path class="a" d="M36,182.7H32.5v10.5H30.6V182.7H27.1v-1.6h8.8v1.6H36Z" transform="translate(-27.1 -22.9)"/><path class="a" d="M45.2,193.2H43.4v-5q0-2.4-1.8-2.4a1.8,1.8,0,0,0-1.5.7,2.79,2.79,0,0,0-.6,1.8v4.9H37.7V180.4h1.8v5.5h0a3.11,3.11,0,0,1,2.8-1.6c1.9,0,2.9,1.2,2.9,3.5v5.4h0Z" transform="translate(-27.1 -22.9)"/><path class="a" d="M54.9,189.4h-6a2.44,2.44,0,0,0,2.7,2.6,4.11,4.11,0,0,0,2.6-.9v1.5a5.57,5.57,0,0,1-3,.8,3.77,3.77,0,0,1-3-1.2,4.86,4.86,0,0,1-1.1-3.3,4.79,4.79,0,0,1,1.2-3.3,3.74,3.74,0,0,1,2.9-1.3,3.39,3.39,0,0,1,2.7,1.1,4.7,4.7,0,0,1,1,3v1h0ZM53.1,188a2.86,2.86,0,0,0-.5-1.7,1.68,1.68,0,0,0-1.4-.6,2.2,2.2,0,0,0-1.5.6,3,3,0,0,0-.8,1.7h4.2Z" transform="translate(-27.1 -22.9)"/><path class="a" d="M68.5,197.2H66.7v-5.4h0a2.91,2.91,0,0,1-2.8,1.6,3.09,3.09,0,0,1-2.6-1.2,4.55,4.55,0,0,1-1-3.2,5.14,5.14,0,0,1,1.1-3.4,3.47,3.47,0,0,1,2.9-1.3,2.66,2.66,0,0,1,2.5,1.3h0v-1.1h1.8v12.7H68.5Zm-1.8-9a2.72,2.72,0,0,0-.6-1.7,1.86,1.86,0,0,0-1.6-.7,2.14,2.14,0,0,0-1.8.9,3.59,3.59,0,0,0-.6,2.4,3.28,3.28,0,0,0,.6,2.1,2.09,2.09,0,0,0,1.6.8,2.14,2.14,0,0,0,1.7-.8,3.08,3.08,0,0,0,.6-1.9l0.1-1.1h0Z" transform="translate(-27.1 -22.9)"/><path class="a" d="M78.5,193.2H76.7v-1.4h0a3,3,0,0,1-2.7,1.6c-2,0-3.1-1.2-3.1-3.7v-5.2h1.8v5c0,1.6.6,2.4,1.9,2.4a1.8,1.8,0,0,0,1.5-.7,2.35,2.35,0,0,0,.6-1.7v-5h1.8v8.7Z" transform="translate(-27.1 -22.9)"/><path class="a" d="M80.9,181.6a1,1,0,1,1,.3.8A2.61,2.61,0,0,1,80.9,181.6Zm0.2,11.6v-8.6h1.8v8.6H81.1Z" transform="translate(-27.1 -22.9)"/><path class="a" d="M91.7,192.8a4.5,4.5,0,0,1-2.4.6,4.11,4.11,0,0,1-4.3-4.3,4.46,4.46,0,0,1,4.7-4.7,4.14,4.14,0,0,1,2.1.4v1.7a3.72,3.72,0,0,0-2-.7,3.23,3.23,0,0,0-2.1.8,2.82,2.82,0,0,0-.8,2.3,3.07,3.07,0,0,0,.7,2.2,2.79,2.79,0,0,0,2,.8,3.52,3.52,0,0,0,2.1-.7v1.6Z" transform="translate(-27.1 -22.9)"/><path class="a" d="M101.3,193.2H98.9L95.5,189h0v4.2H93.7V180.4h1.8v8.1h0l3.3-4h2.3l-3.7,4.1Z" transform="translate(-27.1 -22.9)"/><path class="a" d="M108.4,192v1.2h-1.8V180.4h1.8V186h0a3.15,3.15,0,0,1,2.9-1.6,3.09,3.09,0,0,1,2.6,1.2,5,5,0,0,1,.9,3.1,5.62,5.62,0,0,1-1.1,3.5,3.47,3.47,0,0,1-2.9,1.3,3.34,3.34,0,0,1-2.4-1.5h0Zm0-2.4a2.52,2.52,0,0,0,.6,1.7,1.86,1.86,0,0,0,1.6.7,2,2,0,0,0,1.8-.9,4.27,4.27,0,0,0,.6-2.4,3.28,3.28,0,0,0-.6-2.1,1.86,1.86,0,0,0-1.6-.7,2.06,2.06,0,0,0-1.7.7,2.94,2.94,0,0,0-.7,1.9v1.1h0Z" transform="translate(-27.1 -22.9)"/><path class="a" d="M121.9,186.3a1.8,1.8,0,0,0-1.1-.3,1.6,1.6,0,0,0-1.4.8,4,4,0,0,0-.6,2.1v4.3H117v-8.6h1.8v1.7h0a2.42,2.42,0,0,1,2.3-1.9,2,2,0,0,1,.8.1v1.8Z" transform="translate(-27.1 -22.9)"/><path class="a" d="M122.5,189a4.87,4.87,0,0,1,1.2-3.4,4.46,4.46,0,0,1,3.3-1.2,4,4,0,0,1,3.1,1.2,4.86,4.86,0,0,1,1.1,3.3,4.46,4.46,0,0,1-1.2,3.3,4.87,4.87,0,0,1-6.4,0A4.32,4.32,0,0,1,122.5,189Zm1.9-.1a3.07,3.07,0,0,0,.7,2.2,2.56,2.56,0,0,0,1.9.8c1.7,0,2.5-1,2.5-3.1a3.92,3.92,0,0,0-.6-2.3,2.27,2.27,0,0,0-1.9-.8,2.56,2.56,0,0,0-1.9.8A3.61,3.61,0,0,0,124.4,188.9Z" transform="translate(-27.1 -22.9)"/><path class="a" d="M144.8,184.6l-2.5,8.6h-1.9l-1.6-5.8a2.77,2.77,0,0,1-.1-0.9h0a5.07,5.07,0,0,1-.2.9l-1.7,5.8h-1.9l-2.6-8.6h1.9l1.6,6.2a2.2,2.2,0,0,1,.1.8H136a2.92,2.92,0,0,1,.2-0.9l1.8-6.2h1.7l1.6,6.2a5.38,5.38,0,0,1,.1.8h0.1c0-.3.1-0.5,0.1-0.8l1.5-6.2h1.7v0.1h0Z" transform="translate(-27.1 -22.9)"/><path class="a" d="M153.8,193.2H152v-4.9c0-1.7-.6-2.5-1.8-2.5a1.8,1.8,0,0,0-1.5.7,2.61,2.61,0,0,0-.6,1.8v4.9h-1.8v-8.6h1.8V186h0a3,3,0,0,1,2.8-1.6c1.9,0,2.9,1.2,2.9,3.6v5.2h0Z" transform="translate(-27.1 -22.9)"/><path class="a" d="M165,181.9a2.92,2.92,0,0,0-.9-0.2c-0.9,0-1.4.6-1.4,1.7v1.2h2v1.5h-2v7.2h-1.8v-7.2h-1.5v-1.5h1.5v-1.3a2.79,2.79,0,0,1,.9-2.2,3.29,3.29,0,0,1,2.2-.8,3.09,3.09,0,0,1,1.1.2v1.4H165Z" transform="translate(-27.1 -22.9)"/><path class="a" d="M165.6,189a4.87,4.87,0,0,1,1.2-3.4,4.46,4.46,0,0,1,3.3-1.2,4,4,0,0,1,3.1,1.2,4.86,4.86,0,0,1,1.1,3.3,4.46,4.46,0,0,1-1.2,3.3,4.87,4.87,0,0,1-6.4,0A4.32,4.32,0,0,1,165.6,189Zm1.8-.1a3.07,3.07,0,0,0,.7,2.2,2.56,2.56,0,0,0,1.9.8c1.7,0,2.5-1,2.5-3.1a3.92,3.92,0,0,0-.6-2.3,2.27,2.27,0,0,0-1.9-.8,2.56,2.56,0,0,0-1.9.8A3.61,3.61,0,0,0,167.4,188.9Z" transform="translate(-27.1 -22.9)"/><path class="a" d="M183.2,184.6l-2.9,4.3,2.8,4.3H181l-1.5-2.6c-0.1-.2-0.3-0.5-0.4-0.7h0a2.74,2.74,0,0,1-.4.7l-1.6,2.6H175l2.9-4.3-2.8-4.4h2.1l1.5,2.8a5.74,5.74,0,0,0,.4.7h0a5.74,5.74,0,0,0,.4-0.7l1.6-2.8h2.1v0.1Z" transform="translate(-27.1 -22.9)"/><path class="a" d="M190.5,192.9a4.89,4.89,0,0,1-.9,3.2,2.84,2.84,0,0,1-2.5,1.1,2.66,2.66,0,0,1-1.2-.3v-1.6a3,3,0,0,0,1.1.4c1.1,0,1.7-.9,1.7-2.6v-8.6h1.8v8.4h0Zm-2-11.3a1,1,0,1,1,.3.8A1.33,1.33,0,0,1,188.5,181.6Z" transform="translate(-27.1 -22.9)"/><path class="a" d="M200.5,193.2h-1.8v-1.4h0a3,3,0,0,1-2.7,1.6c-2,0-3.1-1.2-3.1-3.7v-5.2h1.8v5c0,1.6.6,2.4,1.9,2.4a1.8,1.8,0,0,0,1.5-.7,2.35,2.35,0,0,0,.6-1.7v-5h1.8v8.7Z" transform="translate(-27.1 -22.9)"/><path class="a" d="M215.9,193.2h-1.8v-5a3.16,3.16,0,0,0-.4-1.9,1.49,1.49,0,0,0-1.3-.6,1.46,1.46,0,0,0-1.3.7,3.51,3.51,0,0,0-.6,1.8v4.9h-1.8V188c0-1.5-.6-2.3-1.8-2.3a1.46,1.46,0,0,0-1.3.7,2.73,2.73,0,0,0-.5,1.8v4.9h-1.8v-8.6h1.8v1.4h0a3,3,0,0,1,2.7-1.6,2.58,2.58,0,0,1,2.5,1.7,3,3,0,0,1,2.9-1.7c1.9,0,2.8,1.2,2.8,3.5v5.4h-0.1Z" transform="translate(-27.1 -22.9)"/><path class="a" d="M220.2,192v5.1h-1.8V184.5h1.8v1.4h0a3.15,3.15,0,0,1,2.9-1.6,3.09,3.09,0,0,1,2.6,1.2,5,5,0,0,1,.9,3.1,5.62,5.62,0,0,1-1.1,3.5,3.47,3.47,0,0,1-2.9,1.3,2.81,2.81,0,0,1-2.4-1.4h0Zm0-2.4a2.52,2.52,0,0,0,.6,1.7,1.86,1.86,0,0,0,1.6.7,2,2,0,0,0,1.8-.9,4.27,4.27,0,0,0,.6-2.4,3.28,3.28,0,0,0-.6-2.1,1.86,1.86,0,0,0-1.6-.7,2.14,2.14,0,0,0-1.7.8,3.16,3.16,0,0,0-.7,1.9v1h0Z" transform="translate(-27.1 -22.9)"/><path class="a" d="M228.3,191.2a4.63,4.63,0,0,0,2.5.8c1.1,0,1.7-.4,1.7-1.1a0.75,0.75,0,0,0-.4-0.7,11.12,11.12,0,0,0-1.6-.8,3.7,3.7,0,0,1-1.8-1.1,2.39,2.39,0,0,1-.5-1.4,2.17,2.17,0,0,1,1-1.9,4.09,4.09,0,0,1,2.5-.7,4.64,4.64,0,0,1,2.1.4v1.6a4.28,4.28,0,0,0-2.2-.6,1.8,1.8,0,0,0-1.1.3,0.81,0.81,0,0,0-.4.8,0.91,0.91,0,0,0,.3.7,5.24,5.24,0,0,0,1.5.7,4.12,4.12,0,0,1,1.9,1.1,2.39,2.39,0,0,1,.5,1.4,2.06,2.06,0,0,1-1,1.9,4.21,4.21,0,0,1-2.6.7,6,6,0,0,1-2.4-.5v-1.6Z" transform="translate(-27.1 -22.9)"/><path class="a" d="M239.7,189a4.87,4.87,0,0,1,1.2-3.4,4.46,4.46,0,0,1,3.3-1.2,4,4,0,0,1,3.1,1.2,4.86,4.86,0,0,1,1.1,3.3,4.46,4.46,0,0,1-1.2,3.3,4.87,4.87,0,0,1-6.4,0A4.32,4.32,0,0,1,239.7,189Zm1.9-.1a3.07,3.07,0,0,0,.7,2.2,2.56,2.56,0,0,0,1.9.8c1.7,0,2.5-1,2.5-3.1a3.92,3.92,0,0,0-.6-2.3,2.27,2.27,0,0,0-1.9-.8,2.56,2.56,0,0,0-1.9.8A3.61,3.61,0,0,0,241.6,188.9Z" transform="translate(-27.1 -22.9)"/><path class="a" d="M257.8,184.6l-3.4,8.6h-1.9l-3.2-8.6h2l1.9,5.9a3.92,3.92,0,0,1,.3,1.3h0a3.08,3.08,0,0,1,.3-1.3l2-6,2,0.1h0Z" transform="translate(-27.1 -22.9)"/><path class="a" d="M266.3,189.4h-5.9a2.44,2.44,0,0,0,2.7,2.6,4.11,4.11,0,0,0,2.6-.9v1.5a5.57,5.57,0,0,1-3,.8,3.77,3.77,0,0,1-3-1.2,4.86,4.86,0,0,1-1.1-3.3,4.79,4.79,0,0,1,1.2-3.3,3.74,3.74,0,0,1,2.9-1.3,3.39,3.39,0,0,1,2.7,1.1,4.7,4.7,0,0,1,1,3v1h-0.1Zm-1.8-1.4a2.86,2.86,0,0,0-.5-1.7,1.68,1.68,0,0,0-1.4-.6,2.2,2.2,0,0,0-1.5.6,3,3,0,0,0-.8,1.7h4.2Z" transform="translate(-27.1 -22.9)"/><path class="a" d="M273.1,186.3a1.8,1.8,0,0,0-1.1-.3,1.6,1.6,0,0,0-1.4.8,4,4,0,0,0-.6,2.1v4.3h-1.8v-8.6H270v1.7h0a2.42,2.42,0,0,1,2.3-1.9,2,2,0,0,1,.8.1v1.8h0Z" transform="translate(-27.1 -22.9)"/><path class="a" d="M283,193.1a2.81,2.81,0,0,1-1.5.3c-1.6,0-2.5-.9-2.5-2.7V186h-1.5v-1.5H279v-2l1.8-.6v2.6h2.1V186h-2v4.4a2.13,2.13,0,0,0,.3,1.2,1.27,1.27,0,0,0,.9.4,1.61,1.61,0,0,0,.9-0.3v1.4h0Z" transform="translate(-27.1 -22.9)"/><path class="a" d="M292.3,193.2h-1.8v-5q0-2.4-1.8-2.4a1.8,1.8,0,0,0-1.5.7,2.79,2.79,0,0,0-.6,1.8v4.9h-1.8V180.4h1.8v5.5h0a3.11,3.11,0,0,1,2.8-1.6c1.9,0,2.9,1.2,2.9,3.5v5.4h0Z" transform="translate(-27.1 -22.9)"/><path class="a" d="M301.9,189.4H296a2.44,2.44,0,0,0,2.7,2.6,4.11,4.11,0,0,0,2.6-.9v1.5a5.57,5.57,0,0,1-3,.8,3.77,3.77,0,0,1-3-1.2,4.86,4.86,0,0,1-1.1-3.3,4.79,4.79,0,0,1,1.2-3.3,3.74,3.74,0,0,1,2.9-1.3,3.39,3.39,0,0,1,2.7,1.1,4.7,4.7,0,0,1,1,3v1h-0.1Zm-1.7-1.4a2.86,2.86,0,0,0-.5-1.7,1.68,1.68,0,0,0-1.4-.6,2.2,2.2,0,0,0-1.5.6,3,3,0,0,0-.8,1.7h4.2Z" transform="translate(-27.1 -22.9)"/><path class="a" d="M307.8,193.2V180.4h1.8v12.8h-1.8Z" transform="translate(-27.1 -22.9)"/><path class="a" d="M312.5,185.1a6.21,6.21,0,0,1,3.1-.8c2.2,0,3.3,1.1,3.3,3.4v5.5h-1.8v-1.3h0a2.9,2.9,0,0,1-2.6,1.5,2.72,2.72,0,0,1-2-.7,2.49,2.49,0,0,1-.7-1.9c0-1.6,1-2.6,2.9-2.8l2.5-.3c0-1.3-.6-1.9-1.7-1.9a4.64,4.64,0,0,0-2.9,1l-0.1-1.7h0Zm2.6,4.1a2,2,0,0,0-1.3.5,1.78,1.78,0,0,0-.4,1,1,1,0,0,0,.4.9,1.82,1.82,0,0,0,1.1.4,1.8,1.8,0,0,0,1.5-.7,2.45,2.45,0,0,0,.6-1.6v-0.8Z" transform="translate(-27.1 -22.9)"/><path class="a" d="M327.5,193.2h-7.3v-0.7L325,186h-4.4v-1.5h6.9v0.7l-4.8,6.5h4.7l0.1,1.5h0Z" transform="translate(-27.1 -22.9)"/><path class="a" d="M336.6,184.6l-3.8,9.8c-0.8,1.9-1.8,2.9-3.3,2.9a3.42,3.42,0,0,1-1.1-.1v-1.5a2.92,2.92,0,0,0,.9.2,1.59,1.59,0,0,0,1.5-1.1l0.6-1.4-3.4-8.6h2l2.1,6.2c0,0.1.1,0.4,0.2,0.8h0a4.5,4.5,0,0,1,.2-0.8l2.2-6.2h1.9v-0.2h0Z" transform="translate(-27.1 -22.9)"/><path class="a" d="M349.7,193.2h-1.8v-1.4h0a3.24,3.24,0,0,1-2.9,1.6,3.09,3.09,0,0,1-2.6-1.2,5.71,5.71,0,0,1,.1-6.6,3.47,3.47,0,0,1,2.9-1.3,2.56,2.56,0,0,1,2.5,1.3h0v-5.3h1.8v12.9Zm-1.9-5.1a2.11,2.11,0,0,0-.6-1.6,2.18,2.18,0,0,0-1.6-.7,2.27,2.27,0,0,0-1.8.9,3.33,3.33,0,0,0-.7,2.3,3.28,3.28,0,0,0,.6,2.1,2.14,2.14,0,0,0,1.7.8,2.29,2.29,0,0,0,1.7-.8,3.22,3.22,0,0,0,.7-2v-1h0Z" transform="translate(-27.1 -22.9)"/><path class="a" d="M351.7,189a4.87,4.87,0,0,1,1.2-3.4,4.46,4.46,0,0,1,3.3-1.2,4,4,0,0,1,3.1,1.2,4.86,4.86,0,0,1,1.1,3.3,4.46,4.46,0,0,1-1.2,3.3,4.87,4.87,0,0,1-6.4,0A4.32,4.32,0,0,1,351.7,189Zm1.9-.1a3.07,3.07,0,0,0,.7,2.2,2.56,2.56,0,0,0,1.9.8c1.7,0,2.5-1,2.5-3.1a3.92,3.92,0,0,0-.6-2.3,2.27,2.27,0,0,0-1.9-.8,2.56,2.56,0,0,0-1.9.8A3.61,3.61,0,0,0,353.6,188.9Z" transform="translate(-27.1 -22.9)"/><path class="a" d="M370.3,192.4c0,3.2-1.6,4.9-4.9,4.9a6.09,6.09,0,0,1-2.8-.6V195a6,6,0,0,0,2.8.8,2.75,2.75,0,0,0,3.1-3.1v-0.9h0a3.05,3.05,0,0,1-2.9,1.6,3.09,3.09,0,0,1-2.6-1.2,4.45,4.45,0,0,1-1-3.1,5.42,5.42,0,0,1,1.1-3.5,3.47,3.47,0,0,1,2.9-1.3,2.66,2.66,0,0,1,2.5,1.3h0v-1.1h1.8v7.9h0Zm-1.8-4.3a2.27,2.27,0,0,0-.6-1.6,2.18,2.18,0,0,0-1.6-.7,2,2,0,0,0-1.8.9,4.27,4.27,0,0,0-.7,2.4,3.28,3.28,0,0,0,.6,2.1,2.09,2.09,0,0,0,1.6.8,2.14,2.14,0,0,0,1.7-.8,3.22,3.22,0,0,0,.7-2l0.1-1.1h0Z" transform="translate(-27.1 -22.9)"/><path class="a" d="M35.5,214.2H28.4v-1.5H31V204l-2.7.7v-1.6l4.6-1.2v10.8h2.6v1.5h0Z" transform="translate(-27.1 -22.9)"/><path class="a" d="M44.8,214.2H37.3v-1.5l3.5-3.5a9,9,0,0,0,1.7-2,3.23,3.23,0,0,0,.6-1.8,1.83,1.83,0,0,0-2.1-2,4.49,4.49,0,0,0-3.1,1.3v-1.8a5.75,5.75,0,0,1,3.4-1.1,4,4,0,0,1,2.7.9,3,3,0,0,1,1,2.4,4.56,4.56,0,0,1-.6,2.2,11.16,11.16,0,0,1-2.2,2.6l-2.7,2.6h5.4v1.7H44.8Z" transform="translate(-27.1 -22.9)"/><path class="a" d="M47.1,212a4.68,4.68,0,0,0,2.8.9,2.88,2.88,0,0,0,1.9-.6,1.8,1.8,0,0,0,.7-1.5c0-1.4-1-2.1-3.1-2.1h-1v-1.5h1c1.8,0,2.8-.7,2.8-2a1.8,1.8,0,0,0-2.1-1.9,4.58,4.58,0,0,0-2.4.8v-1.6a5.07,5.07,0,0,1,2.8-.7,4.46,4.46,0,0,1,2.6.8,2.39,2.39,0,0,1,1,2.1,2.84,2.84,0,0,1-2.4,3h0a3.67,3.67,0,0,1,2.1.9,2.36,2.36,0,0,1,.8,1.9,3.42,3.42,0,0,1-1.2,2.7,4.72,4.72,0,0,1-3.2,1,5.54,5.54,0,0,1-2.8-.6V212H47.1Z" transform="translate(-27.1 -22.9)"/><path class="a" d="M64.5,211.2H63v3H61.3v-3H55.8V210l5.3-7.9h2v7.7h1.5l-0.1,1.4h0Zm-3.3-1.4v-5.9h0a4.05,4.05,0,0,1-.5.9l-3.3,5h3.8Z" transform="translate(-27.1 -22.9)"/><path class="a" d="M66.4,212.1a5,5,0,0,0,2.6.8,2.88,2.88,0,0,0,1.9-.6,2.06,2.06,0,0,0,.7-1.7c0-1.5-1-2.3-2.9-2.3a14.16,14.16,0,0,0-1.9.1v-6.3h6.1v1.6H68.4v3.1h1a4,4,0,0,1,2.9,1,3.39,3.39,0,0,1,1.1,2.7,3.7,3.7,0,0,1-1.2,2.9,4.77,4.77,0,0,1-3.2,1.1,6.84,6.84,0,0,1-2.7-.5v-1.9h0.1Z" transform="translate(-27.1 -22.9)"/><path class="a" d="M82.7,203.9a4.55,4.55,0,0,0-2-.5,2.88,2.88,0,0,0-2.5,1.3,5.93,5.93,0,0,0-.9,3.4h0a3,3,0,0,1,2.7-1.6,3.17,3.17,0,0,1,2.5,1,4.43,4.43,0,0,1-.2,5.6,3.63,3.63,0,0,1-2.8,1.2,3.44,3.44,0,0,1-3-1.5,6.91,6.91,0,0,1-1-4.1,8.68,8.68,0,0,1,1.4-5,4.35,4.35,0,0,1,3.8-1.9,5.84,5.84,0,0,1,2.1.3v1.8H82.7Zm-5.3,6.3a2.88,2.88,0,0,0,.6,1.9,1.9,1.9,0,0,0,1.5.8,1.8,1.8,0,0,0,1.5-.7,2.79,2.79,0,0,0,.6-1.8,3,3,0,0,0-.5-1.8,2.17,2.17,0,0,0-3,0A2.36,2.36,0,0,0,77.4,210.2Z" transform="translate(-27.1 -22.9)"/><path class="a" d="M92.9,202.8l-4.6,11.4H86.4l4.5-10.5H85v-1.6h8l-0.1.7h0Z" transform="translate(-27.1 -22.9)"/><path class="a" d="M97,207.8a3.05,3.05,0,0,1-2.1-2.9,2.66,2.66,0,0,1,1.1-2.2,3.85,3.85,0,0,1,2.6-.8,4.15,4.15,0,0,1,2.5.8,2.39,2.39,0,0,1,1,2.1c0,1.3-.8,2.3-2.3,3h0c1.8,0.6,2.6,1.7,2.6,3.2a3.1,3.1,0,0,1-1.1,2.5,4.77,4.77,0,0,1-3.1.9,4,4,0,0,1-2.7-.9,3,3,0,0,1-1.1-2.3c0-1.5.9-2.6,2.6-3.4h0Zm1.3,0.9q-2.1.9-2.1,2.4a1.82,1.82,0,0,0,.6,1.4,2.54,2.54,0,0,0,1.6.5,3,3,0,0,0,1.6-.5,1.61,1.61,0,0,0,.6-1.3C100.6,210,99.8,209.2,98.3,208.7Zm1.9-3.7a1.66,1.66,0,0,0-.5-1.2,1.7,1.7,0,0,0-1.3-.4,2.11,2.11,0,0,0-1.3.5,1.35,1.35,0,0,0-.5,1.2,2.27,2.27,0,0,0,1.8,2.1C99.6,206.6,100.2,205.9,100.2,205Z" transform="translate(-27.1 -22.9)"/><path class="a" d="M104.6,212.3a4.28,4.28,0,0,0,2.2.6,2.62,2.62,0,0,0,2.4-1.2,5.51,5.51,0,0,0,.9-3.4h0a2.79,2.79,0,0,1-2.6,1.4,3.25,3.25,0,0,1-2.5-1.1,3.62,3.62,0,0,1-1-2.7,4.43,4.43,0,0,1,1.1-3,3.7,3.7,0,0,1,2.9-1.2,3.27,3.27,0,0,1,2.9,1.5,6.91,6.91,0,0,1,1,4.1,8.37,8.37,0,0,1-1.3,5.1,4.33,4.33,0,0,1-3.7,1.8,5.56,5.56,0,0,1-2.3-.4v-1.5h0Zm1.1-6.5a2.61,2.61,0,0,0,.6,1.8,1.86,1.86,0,0,0,1.6.7,2.05,2.05,0,0,0,2.1-2.1,3.38,3.38,0,0,0-.6-2,1.94,1.94,0,0,0-1.6-.8,1.8,1.8,0,0,0-1.5.7A2.52,2.52,0,0,0,105.7,205.8Z" transform="translate(-27.1 -22.9)"/><path class="a" d="M113.4,208.4a9,9,0,0,1,1.1-4.8,3.53,3.53,0,0,1,3.2-1.6c2.6,0,3.9,2.1,3.9,6.2a8.82,8.82,0,0,1-1.1,4.7,3.78,3.78,0,0,1-6.1.1A8.49,8.49,0,0,1,113.4,208.4Zm1.8-.1c0,3.1.7,4.6,2.2,4.6s2.2-1.6,2.2-4.7-0.7-4.8-2.2-4.8S115.2,205,115.2,208.3Z" transform="translate(-27.1 -22.9)"/><path class="a" d="M123.6,213.3a1.13,1.13,0,1,1,1.1,1.1,1.61,1.61,0,0,1-.9-0.3C123.8,213.8,123.6,213.6,123.6,213.3Zm2.1-11.2-0.2,8.6H124l-0.2-8.6h1.9Z" transform="translate(-27.1 -22.9)"/><path class="a" d="M141.3,205.2c-0.3,2.8-.4,4.3-0.4,4.7q0,1.5.9,1.5a1.55,1.55,0,0,0,1.4-1,4.65,4.65,0,0,0,.5-2.5,4.9,4.9,0,0,0-1.4-3.6,5.3,5.3,0,0,0-3.9-1.4,5.66,5.66,0,0,0-4.1,1.7,5.89,5.89,0,0,0-1.6,4.3,5.35,5.35,0,0,0,1.5,4,5.59,5.59,0,0,0,4.1,1.5,7.82,7.82,0,0,0,3.5-.7v1.2a9.88,9.88,0,0,1-3.7.6,7.14,7.14,0,0,1-5-1.8,6.18,6.18,0,0,1-1.9-4.8,6.93,6.93,0,0,1,2-5.1,6.79,6.79,0,0,1,5.1-2.1,7.21,7.21,0,0,1,4.8,1.7,5.48,5.48,0,0,1,1.9,4.4,5.33,5.33,0,0,1-1.1,3.4,3.17,3.17,0,0,1-2.6,1.3,1.69,1.69,0,0,1-1.9-1.9h0a2.42,2.42,0,0,1-2.3,1.9,2.56,2.56,0,0,1-1.9-.8,3.33,3.33,0,0,1-.7-2.3,4.9,4.9,0,0,1,1-3.2A2.9,2.9,0,0,1,138,205a2.28,2.28,0,0,1,1.1.3,1.24,1.24,0,0,1,.6.8h0l0.1-.9h1.5Zm-5.2,4.3a2.41,2.41,0,0,0,.4,1.5,1.17,1.17,0,0,0,1.1.5,1.68,1.68,0,0,0,1.5-1,5,5,0,0,0,.6-2.6c0-1.1-.5-1.7-1.4-1.7a1.68,1.68,0,0,0-1.5,1A4.45,4.45,0,0,0,136.1,209.5Z" transform="translate(-27.1 -22.9)"/><path class="a" d="M156.3,205.4l-0.2,1.1h-2l-0.5,2.4h2.1l-0.3,1.1h-2.1l-0.7,3.2h-1.3L152,210h-2l-0.7,3.2H148l0.7-3.2h-2l0.2-1.1h2l0.5-2.4h-2.1l0.2-1.1h2.1l0.7-3.2h1.3l-0.7,3.2H153l0.7-3.2H155l-0.7,3.2h2Zm-3.5,1.1h-2.1l-0.5,2.4h2.1Z" transform="translate(-27.1 -22.9)"/><path class="a" d="M162,216h-1v-1.8a5.56,5.56,0,0,1-3-.7v-1.8a3.65,3.65,0,0,0,1.4.7,5,5,0,0,0,1.6.3v-3.9a6.34,6.34,0,0,1-2.5-1.6,2.81,2.81,0,0,1-.7-1.9,3.28,3.28,0,0,1,.9-2.2,3.58,3.58,0,0,1,2.2-1.1v-1.5h1V202a4.77,4.77,0,0,1,2.4.5v1.7a4.9,4.9,0,0,0-2.4-.8v4a9.08,9.08,0,0,1,2.5,1.5,2.64,2.64,0,0,1,.7,1.9,3,3,0,0,1-.8,2.1,3.5,3.5,0,0,1-2.3,1V216h0Zm-1-12.4a1.54,1.54,0,0,0-1.4,1.6,1.69,1.69,0,0,0,.3,1,3.53,3.53,0,0,0,1.1.9v-3.5h0Zm1,9.1a1.55,1.55,0,0,0,1.5-1.6,2.17,2.17,0,0,0-1.5-1.8v3.4Z" transform="translate(-27.1 -22.9)"/><path class="a" d="M166.9,205.2a3.65,3.65,0,0,1,.8-2.4,2.79,2.79,0,0,1,2.2-.9,2.48,2.48,0,0,1,2,.8,3.07,3.07,0,0,1,.7,2.2,3.37,3.37,0,0,1-.8,2.3,2.72,2.72,0,0,1-2.1.9,2.79,2.79,0,0,1-2-.8A2.52,2.52,0,0,1,166.9,205.2Zm1.3-.1a2.41,2.41,0,0,0,.4,1.5,1.17,1.17,0,0,0,1.1.5c1,0,1.5-.7,1.5-2s-0.5-2-1.5-2a1.29,1.29,0,0,0-1.1.5A2.7,2.7,0,0,0,168.2,205.1Zm9.8-3-7.8,12.2h-1.5l7.8-12.2H178Zm-3.8,9.3a3.65,3.65,0,0,1,.8-2.4,2.72,2.72,0,0,1,2.1-.9,2.48,2.48,0,0,1,2,.8,3.17,3.17,0,0,1,.7,2.3,3.37,3.37,0,0,1-.8,2.3,2.72,2.72,0,0,1-2.1.9,2.79,2.79,0,0,1-2-.8A3.41,3.41,0,0,1,174.2,211.4Zm1.3-.1a2.41,2.41,0,0,0,.4,1.5,1.43,1.43,0,0,0,1.1.5c1,0,1.5-.7,1.5-2a2.41,2.41,0,0,0-.4-1.5,1.43,1.43,0,0,0-1.1-.5C176.1,209.2,175.5,209.9,175.5,211.3Z" transform="translate(-27.1 -22.9)"/><path class="a" d="M190.7,209h-1.5l-2.7-5.1h0L184,209h-1.5l3.6-7.1h0.8Z" transform="translate(-27.1 -22.9)"/><path class="a" d="M202.1,212.7a5.8,5.8,0,0,1-4.4,1.7,5,5,0,0,1-3.1-.9,3.09,3.09,0,0,1-1.2-2.6c0-1.6,1-2.8,2.9-3.6a3.25,3.25,0,0,1-1.4-2.5,2.52,2.52,0,0,1,.9-2,3.65,3.65,0,0,1,2.4-.8,3.51,3.51,0,0,1,2.3.7,2.32,2.32,0,0,1,.9,1.9,3.13,3.13,0,0,1-2.2,2.8,7.21,7.21,0,0,1,3.2,2.9,6.87,6.87,0,0,0,1.3-4.3,5,5,0,0,0-.2-1.2h1.7a3.75,3.75,0,0,1,.1,1.1,8.88,8.88,0,0,1-2.1,5.6,5.67,5.67,0,0,0,1,1.1,1.69,1.69,0,0,0,1,.3,2.66,2.66,0,0,0,1.2-.3v1.5a4,4,0,0,1-1.5.3,2.3,2.3,0,0,1-1.4-.4A8,8,0,0,1,202.1,212.7Zm-0.9-1.3a8.45,8.45,0,0,0-3.7-3.4c-1.5.6-2.2,1.5-2.2,2.7a1.86,1.86,0,0,0,.7,1.6,2.61,2.61,0,0,0,1.8.6A4.48,4.48,0,0,0,201.2,211.4Zm-3.4-4.9c1.2-.4,1.9-1.1,1.9-1.9a1.16,1.16,0,0,0-.4-1,1.37,1.37,0,0,0-1.1-.4,1.59,1.59,0,0,0-1.2.4,1.43,1.43,0,0,0-.5,1.1A2.2,2.2,0,0,0,197.8,206.5Z" transform="translate(-27.1 -22.9)"/><path class="a" d="M213.5,205l-2.3.4,1.6,2-1.1.8-1.3-2.2-1.3,2.2-1.1-.8,1.6-2-2.3-.4,0.5-1.3,2.2,0.9-0.3-2.5h1.5l-0.3,2.5,2.2-.9Z" transform="translate(-27.1 -22.9)"/><path class="a" d="M218,216.9a10.64,10.64,0,0,1-2.6-7.4A11.59,11.59,0,0,1,218,202h1.6a12,12,0,0,0-2.6,7.5,11.71,11.71,0,0,0,2.6,7.4H218Z" transform="translate(-27.1 -22.9)"/><path class="a" d="M219.9,216.9a11.51,11.51,0,0,0,2.6-7.4,12,12,0,0,0-2.6-7.5h1.6a11.15,11.15,0,0,1,2.7,7.5,10.71,10.71,0,0,1-2.7,7.4h-1.6Z" transform="translate(-27.1 -22.9)"/><path class="a" d="M232.5,216.7h-7.2v-1h7.2v1Z" transform="translate(-27.1 -22.9)"/><path class="b" d="M28.5,143.2V130.3h4.1a10.32,10.32,0,0,1,2,.2,4.58,4.58,0,0,1,1.4.7,2.26,2.26,0,0,1,.8,1.1,3.19,3.19,0,0,1,.3,1.4,2.77,2.77,0,0,1-.1.9,1.37,1.37,0,0,1-.5.8c-0.3.2-.5,0.5-0.8,0.7a3.7,3.7,0,0,1-1.1.5,3.76,3.76,0,0,1,2.1,1,2.49,2.49,0,0,1,.7,1.9,4,4,0,0,1-.3,1.5,3.45,3.45,0,0,1-.9,1.2,6.38,6.38,0,0,1-1.4.8,5.41,5.41,0,0,1-1.9.3H28.5v-0.1Zm1.7-7.1h2.3a5.07,5.07,0,0,0,1.3-.2,1.93,1.93,0,0,0,.9-0.5,1.79,1.79,0,0,0,.5-0.7,2.92,2.92,0,0,0,.2-0.9,1.94,1.94,0,0,0-.7-1.7,3.28,3.28,0,0,0-2.1-.5H30.2v4.5Zm0,1.2v4.5H33a5.07,5.07,0,0,0,1.3-.2,1.93,1.93,0,0,0,.9-0.5,3,3,0,0,0,.5-0.7,2.39,2.39,0,0,0,.2-0.9,1.86,1.86,0,0,0-.7-1.6,3.28,3.28,0,0,0-2.1-.6H30.2Z" transform="translate(-27.1 -22.9)"/><path class="b" d="M43.5,133.9a4.84,4.84,0,0,1,1.8.3,4.19,4.19,0,0,1,1.4.9,3.77,3.77,0,0,1,.9,1.5,5.82,5.82,0,0,1,.3,1.9,5.41,5.41,0,0,1-.3,1.9,3.77,3.77,0,0,1-.9,1.5,3.39,3.39,0,0,1-1.4.9,5.55,5.55,0,0,1-3.6,0,4.19,4.19,0,0,1-1.4-.9,3.77,3.77,0,0,1-.9-1.5,5.82,5.82,0,0,1-.3-1.9,5.41,5.41,0,0,1,.3-1.9,3.77,3.77,0,0,1,.9-1.5,3.39,3.39,0,0,1,1.4-.9A5.66,5.66,0,0,1,43.5,133.9Zm0,8.2a2.26,2.26,0,0,0,2-.9,4.37,4.37,0,0,0,.7-2.5,3.73,3.73,0,0,0-.7-2.5,2.26,2.26,0,0,0-2-.9,3.73,3.73,0,0,0-1.2.2,2.7,2.7,0,0,0-.8.7,3.7,3.7,0,0,0-.5,1.1,6.05,6.05,0,0,0-.2,1.5,5.21,5.21,0,0,0,.2,1.4,3.7,3.7,0,0,0,.5,1.1,2.7,2.7,0,0,0,.8.7C42.7,142,43.1,142.1,43.5,142.1Z" transform="translate(-27.1 -22.9)"/><path class="b" d="M51.7,129.9v13.3H50.1V129.9h1.6Z" transform="translate(-27.1 -22.9)"/><path class="b" d="M60.9,143.2a0.35,0.35,0,0,1-.4-0.3l-0.1-1.1a3.34,3.34,0,0,1-1.3,1.1,3.29,3.29,0,0,1-1.7.4A3.19,3.19,0,0,1,56,143a3.13,3.13,0,0,1-1.1-.9,5.23,5.23,0,0,1-.7-1.5,6.48,6.48,0,0,1-.2-2,5.82,5.82,0,0,1,.3-1.9,3.61,3.61,0,0,1,.8-1.5,3.78,3.78,0,0,1,1.2-1,4.26,4.26,0,0,1,1.7-.4,2.9,2.9,0,0,1,1.4.3,4.44,4.44,0,0,1,1.1.8v-5.1h1.6v13.4H60.9ZM57.8,142a2.3,2.3,0,0,0,1.4-.4,3.46,3.46,0,0,0,1.1-1v-4.4a1.89,1.89,0,0,0-1-.8,2.34,2.34,0,0,0-1.2-.2,2.38,2.38,0,0,0-2,.9,4,4,0,0,0-.7,2.6,6.05,6.05,0,0,0,.2,1.5,2.34,2.34,0,0,0,.5,1,1.34,1.34,0,0,0,.7.6A1.64,1.64,0,0,0,57.8,142Z" transform="translate(-27.1 -22.9)"/></svg>
