<svg xmlns="http://www.w3.org/2000/svg" viewBox="0 0 338.5 217.8"><defs><style>.a{fill:#48525b;}.b{fill:#05beff;}</style></defs><title>fonts-3</title><path class="a" d="M30.9,53.5V52h1.2v1.5h3v1.1h-3V56h2.4v5.7H32.1v1.4h2.8v1.1H32.1v2.6H30.9V64.2H27.7V63.1h3.2V61.7H28.5V56h2.4V54.6h-3V53.5h3Zm2.6,4.9V57H29.6v1.4h3.9Zm0,0.9H29.6v1.4h3.9V59.3Zm1.8,7.6-0.9-.8a10,10,0,0,0,1.7-5.9V52.8h5.3V65.3a1.27,1.27,0,0,1-1.13,1.4h-2L38,65.6c0.6,0,1.1.1,1.6,0.1a0.57,0.57,0,0,0,.6-0.7V61.7H37.1A9.83,9.83,0,0,1,35.3,66.9Zm2-6.9v0.5h3.1V57.7h-3L37.3,60h0Zm3-6.2h-3v2.8h3V53.8Z" transform="translate(-27.1 -22.9)"/><path class="a" d="M51,53.1a24.8,24.8,0,0,1-6.8.8L43.9,53a25.49,25.49,0,0,0,6.7-.7Zm-1.5,8.1-0.7.3a2.57,2.57,0,0,0-.2-0.5c-0.7.1-1.6,0.2-2.9,0.4l-0.1-.7a0.9,0.9,0,0,0,.6-0.5,4,4,0,0,0,.5-0.9H45.1v7.4h-1V58.4h2.5a14.63,14.63,0,0,0-1.3-.9l0.6-.6c0.6,0.4,1.2.9,1.7,1.3a8.47,8.47,0,0,0,1.9-1.4H43.9V56h0.8c-0.2-.5-0.4-0.9-0.6-1.3l0.9-.3a5.93,5.93,0,0,1,.7,1.6h1.2c-0.2-.6-0.3-1.1-0.5-1.6l1-.2c0.2,0.5.3,1.1,0.5,1.8h0.8a7.22,7.22,0,0,0,.9-2l0.9,0.3a11.88,11.88,0,0,1-.8,1.6h1.2v0.8a12,12,0,0,1-2.1,1.7h2.1v7.1a1,1,0,0,1-1.1,1.2H48.5l-0.3-.9h1.2a0.4,0.4,0,0,0,.4-0.5v-6H47.4a7.38,7.38,0,0,1-.8,1.3c0.5-.1,1.1-0.1,1.5-0.2l-0.3-.6,0.7-.2A3.91,3.91,0,0,1,49.5,61.2Zm-1.7,2.5a6.07,6.07,0,0,0,.7-1H45.7V62h3.8v0.6a5.85,5.85,0,0,1-1,1.7,8.74,8.74,0,0,1,1,.8l-0.6.6a9,9,0,0,0-1-.9,7.84,7.84,0,0,1-1.8,1.1l-0.5-.7a6.93,6.93,0,0,0,1.7-1c-0.4-.3-0.9-0.6-1.3-0.9l0.5-.5A7.7,7.7,0,0,1,47.8,63.7Zm5.4-5.4a8.49,8.49,0,0,0-.9-2.2l0.9-.4a25.58,25.58,0,0,1,.9,2.6h1.4c0.4-.9.7-1.8,1-2.7l1,0.3q-0.45,1.35-.9,2.4h1.6v1.1H55.4v2.4H58v1.1H55.4V67H54.3V62.9H51.9V61.8h2.4V59.4H51.6V58.3h1.6ZM55.4,54H58v1H51.6V54h2.6a18.88,18.88,0,0,0-.6-1.8l1.1-.2A6.79,6.79,0,0,1,55.4,54Z" transform="translate(-27.1 -22.9)"/><path class="a" d="M72.5,66.8H71.3V65.5H62.5v1.3H61.3V54.7h3.8a11.22,11.22,0,0,0,.8-2.6l1.3,0.2a8.47,8.47,0,0,1-.8,2.4h6.1V66.8h0Zm-1.2-7.4V55.8H62.5v3.6h8.8Zm0,5V60.5H62.5v3.9h8.8Z" transform="translate(-27.1 -22.9)"/><path class="a" d="M82.4,53.5c-0.2-.5-0.4-0.9-0.6-1.3L83,52a6.61,6.61,0,0,1,.5,1.5h5.7v1.1H86.5a15.45,15.45,0,0,1-.6,2.3h3.6v2.9H88.4V57.9h-11v1.9H76.3V56.9h3.6l-0.7-2.3H76.5V53.5h5.9Zm1.1,4.9v1.8H88V64a1.33,1.33,0,0,1-1.4,1.6H85.3l-0.3-1h1.2a0.75,0.75,0,0,0,.7-0.9V61.2H83.5v5.6H82.4V61.2H79.2v4.4H78.1V60.2h4.3V58.4h1.1Zm2-3.9H80.4l0.7,2.3h3.7A8.78,8.78,0,0,0,85.5,54.5Z" transform="translate(-27.1 -22.9)"/><path class="a" d="M95.6,59.4V57.8h1.2v1.6H100v1.1H96.8v1c1,0.6,2,1.2,3.1,2l-0.7,1c-0.9-.8-1.7-1.5-2.4-2v4.2H95.6V61.8a18.36,18.36,0,0,1-3.3,3.9l-0.7-1a13.72,13.72,0,0,0,3.8-4.2H92.2V59.4h3.4Zm4.4-6.1a28.67,28.67,0,0,1-8.1,1l-0.3-1a28.32,28.32,0,0,0,7.8-.9Zm-5.8,4.4-0.9.2a13.9,13.9,0,0,0-1.2-2.8l0.9-.3A25.15,25.15,0,0,1,94.2,57.7Zm2.6-.7-1,.4L94.9,55l1-.3A13.57,13.57,0,0,1,96.8,57Zm2.9-2.4a12.67,12.67,0,0,1-1.2,3.3l-0.9-.3a22,22,0,0,0,1.2-3.2Zm6.6,7a17.47,17.47,0,0,1-5.7,5.1l-0.5-1.1a15.9,15.9,0,0,0,5.4-4.9Zm-1.2-8.7a14.47,14.47,0,0,1-4.4,3.7l-0.5-1.1a12.55,12.55,0,0,0,4.1-3.5Zm0.7,4.3a15.26,15.26,0,0,1-4.8,3.9L100.5,60a13.55,13.55,0,0,0,4.5-3.7Z" transform="translate(-27.1 -22.9)"/><path class="a" d="M121.8,62v1h-3.6a30.13,30.13,0,0,1,3.1,3.1l-0.8.8a10.59,10.59,0,0,0-1-1.2c-3.2.4-6.6,0.6-10,.8l-0.3-.9a1.33,1.33,0,0,0,.8-0.3,16.6,16.6,0,0,0,2.2-2.3h-4.1V62h13.7Zm-0.7-9.3v1h-5.7v1h6.1v3.4h-1.1V55.7h-5v3.5h-1.1V55.7h-5v2.4h-1.1V54.7h6.1v-1h-5.7v-1h12.5Zm-0.6,7.2v1H109.3v-1h11.2Zm-7-3.4v0.8h-3.4V56.5h3.4Zm0,1.6v0.8h-3.4V58.1h3.4Zm-2.3,7.4a75.84,75.84,0,0,0,7.6-.6c-0.5-.5-1-0.9-1.5-1.4l0.6-.5h-4.4A17.94,17.94,0,0,1,111.2,65.5Zm8.5-9v0.8h-3.4V56.5h3.4Zm0,1.6v0.8h-3.4V58.1h3.4Z" transform="translate(-27.1 -22.9)"/><path class="a" d="M130.1,58h-4.5v8.7h-1.2V52.6h5.7V58Zm-1.2-4.3h-3.3v1.2h3.3V53.7ZM125.6,57h3.3V55.8h-3.3V57Zm8.2,2.2v6.2h-5.9V59.2h5.9Zm-1.1,2.6V60.2H129v1.6h3.7Zm0,0.9H129v1.7h3.7V62.7ZM131.6,58V52.6h5.7V65.5a1.06,1.06,0,0,1-1.2,1.2h-1.6l-0.3-1.1c0.5,0,1,.1,1.5.1a0.47,0.47,0,0,0,.5-0.5V58.1l-4.6-.1h0Zm4.6-4.3h-3.5v1.2h3.5V53.7ZM132.8,57h3.5V55.8h-3.5V57Z" transform="translate(-27.1 -22.9)"/><path class="a" d="M32.1,87.2H30.7V77H27.1V75.7h8.6V77H32.2L32.1,87.2h0Z" transform="translate(-27.1 -22.9)"/><path class="a" d="M43,87.2V81.7a2.54,2.54,0,0,0-.5-1.6,2.07,2.07,0,0,0-1.5-.5,2.23,2.23,0,0,0-1.9.7,3.84,3.84,0,0,0-.6,2.4v4.4H37.1V74.9h1.4v3.6a4.12,4.12,0,0,1-.1,1.2h0.1a3.57,3.57,0,0,1,1.1-1,2.93,2.93,0,0,1,1.6-.4,3.61,3.61,0,0,1,2.4.7,3.29,3.29,0,0,1,.8,2.4V87H43v0.2Z" transform="translate(-27.1 -22.9)"/><path class="a" d="M50.7,87.4a3.77,3.77,0,0,1-3-1.2A4.77,4.77,0,0,1,46.6,83a4.83,4.83,0,0,1,1-3.3,3.49,3.49,0,0,1,2.8-1.2,3.39,3.39,0,0,1,2.6,1,3.71,3.71,0,0,1,1,2.8v0.9H48.1a3.39,3.39,0,0,0,.7,2.2,2.48,2.48,0,0,0,2,.8,5.28,5.28,0,0,0,1.3-.1,4.76,4.76,0,0,0,1.4-.5v1.2a9.29,9.29,0,0,1-1.3.4A6,6,0,0,1,50.7,87.4Zm-0.4-7.8a2.11,2.11,0,0,0-1.6.6A3,3,0,0,0,48,82h4.4a2.44,2.44,0,0,0-.6-1.8A1.89,1.89,0,0,0,50.3,79.6Z" transform="translate(-27.1 -22.9)"/><path class="a" d="M63.2,87.4a3.09,3.09,0,0,1-2.6-1.2,6.5,6.5,0,0,1,0-6.6,3.09,3.09,0,0,1,2.6-1.2,3,3,0,0,1,2.7,1.3H66l0.2-1.2h1.1V90.9H65.9V87.2a4.51,4.51,0,0,1,.1-1.3H65.9A3,3,0,0,1,63.2,87.4Zm0.3-1.2a2,2,0,0,0,1.8-.7,3.52,3.52,0,0,0,.6-2.3V82.9a4,4,0,0,0-.6-2.5,2.27,2.27,0,0,0-1.9-.8,2,2,0,0,0-1.7.9,4.4,4.4,0,0,0-.6,2.5,4.27,4.27,0,0,0,.6,2.4A2.34,2.34,0,0,0,63.5,86.2Z" transform="translate(-27.1 -22.9)"/><path class="a" d="M71.4,78.6v5.5a2.07,2.07,0,0,0,.5,1.5,2,2,0,0,0,1.4.5,2.23,2.23,0,0,0,1.9-.7,3.84,3.84,0,0,0,.6-2.4V78.5h1.4v8.6H76L75.8,86H75.7a3.57,3.57,0,0,1-1.1,1,2.88,2.88,0,0,1-1.6.3,3.17,3.17,0,0,1-2.3-.7,3.29,3.29,0,0,1-.8-2.4V78.6h1.5Z" transform="translate(-27.1 -22.9)"/><path class="a" d="M79.9,76.3a1.45,1.45,0,0,1,.2-0.7,1,1,0,0,1,1.2,0,0.75,0.75,0,0,1,.2.7,1.45,1.45,0,0,1-.2.7,0.64,0.64,0,0,1-.6.2,1.42,1.42,0,0,1-.6-0.2A0.84,0.84,0,0,1,79.9,76.3Zm1.5,10.9H80V78.6h1.4v8.6Z" transform="translate(-27.1 -22.9)"/><path class="a" d="M87.5,87.4a4,4,0,0,1-2.9-1.1,4.5,4.5,0,0,1-1-3.3,4.83,4.83,0,0,1,1-3.3,3.77,3.77,0,0,1,3-1.2,4.87,4.87,0,0,1,1.2.1c0.4,0.1.7,0.2,1,.3l-0.4,1.2a4.64,4.64,0,0,0-1.9-.4,2.27,2.27,0,0,0-1.9.8,4,4,0,0,0-.6,2.4,4.27,4.27,0,0,0,.6,2.4,2.2,2.2,0,0,0,1.8.8,5.45,5.45,0,0,0,2.2-.5v1.2A3.28,3.28,0,0,1,87.5,87.4Z" transform="translate(-27.1 -22.9)"/><path class="a" d="M93.2,82.8l0.5-.6,0.5-.7,2.7-2.9h1.6L95,82.3l3.7,4.9H97l-3-4-1,.9v3.1H91.6V75H93v7.8h0.2Z" transform="translate(-27.1 -22.9)"/><path class="a" d="M108.5,78.5a3.09,3.09,0,0,1,2.6,1.2,6.5,6.5,0,0,1,0,6.6,3.09,3.09,0,0,1-2.6,1.2,3.34,3.34,0,0,1-1.5-.3,3.13,3.13,0,0,1-1.1-.9h-0.1a6.2,6.2,0,0,0-.3,1.1h-1V75.2h1.4v3a10.87,10.87,0,0,1-.1,1.8h0.1A2.63,2.63,0,0,1,108.5,78.5Zm-0.2,1.1a2.23,2.23,0,0,0-1.9.7,4,4,0,0,0-.6,2.5v0.1a4,4,0,0,0,.6,2.5,2.27,2.27,0,0,0,1.9.8,2,2,0,0,0,1.7-.8,4.27,4.27,0,0,0,.6-2.4,3.84,3.84,0,0,0-.6-2.4A1.67,1.67,0,0,0,108.3,79.6Z" transform="translate(-27.1 -22.9)"/><path class="a" d="M118.3,78.5a3.08,3.08,0,0,1,1,.1l-0.2,1.3a2.77,2.77,0,0,0-.9-0.1,2,2,0,0,0-1.3.4,2.19,2.19,0,0,0-.9,1,3.34,3.34,0,0,0-.3,1.5v4.6h-1.4V78.7h1.2l0.2,1.6h0.1A3,3,0,0,1,117,79,1.54,1.54,0,0,1,118.3,78.5Z" transform="translate(-27.1 -22.9)"/><path class="a" d="M128.2,82.9a4.86,4.86,0,0,1-1.1,3.3,3.7,3.7,0,0,1-2.9,1.2,4.65,4.65,0,0,1-2.1-.5,3.64,3.64,0,0,1-1.4-1.6,6,6,0,0,1-.5-2.4,4.83,4.83,0,0,1,1-3.3,4.1,4.1,0,0,1,5.8,0h0A4.9,4.9,0,0,1,128.2,82.9Zm-6.5,0a4.4,4.4,0,0,0,.6,2.5,2.13,2.13,0,0,0,1.9.8,2.56,2.56,0,0,0,1.9-.8,4.4,4.4,0,0,0,.6-2.5,3.84,3.84,0,0,0-.6-2.4,2.41,2.41,0,0,0-1.9-.8C122.6,79.6,121.7,80.7,121.7,82.9Z" transform="translate(-27.1 -22.9)"/><path class="a" d="M137.3,87.2l-1.5-4.8c-0.1-.4-0.3-1.2-0.6-2.3h-0.1a14.6,14.6,0,0,1-.6,2.3L133,87.2h-1.6L129,78.6h1.5c0.5,2.1,1,3.7,1.2,4.8a12.09,12.09,0,0,1,.5,2.3h0.1l0.1-.5a14.31,14.31,0,0,1,.5-1.8l1.5-4.8h1.5l1.5,4.8c0.1,0.2.1,0.4,0.2,0.6s0.1,0.4.2,0.6a1.27,1.27,0,0,1,.1.6,4.33,4.33,0,0,0,.1.5h0.1a11.37,11.37,0,0,1,.6-2.5l1.2-4.6h1.4l-2.4,8.6h-1.6Z" transform="translate(-27.1 -22.9)"/><path class="a" d="M148.7,87.2V81.7a2.54,2.54,0,0,0-.5-1.6,2.07,2.07,0,0,0-1.5-.5,2.23,2.23,0,0,0-1.9.7,3.84,3.84,0,0,0-.6,2.4v4.4h-1.4V78.5h1.1l0.2,1.2h0.1a3.57,3.57,0,0,1,1.1-1,4.15,4.15,0,0,1,1.6-.3,3,3,0,0,1,2.3.8,3.29,3.29,0,0,1,.8,2.4v5.6h-1.3Z" transform="translate(-27.1 -22.9)"/><path class="a" d="M160.9,79.7h-2.2v7.5h-1.4V79.7h-1.5V79l1.5-.5V78a3.17,3.17,0,0,1,.7-2.3,2.86,2.86,0,0,1,2.1-.8,5.55,5.55,0,0,1,1.7.3l-0.4,1.1a3.18,3.18,0,0,0-1.3-.2,1.43,1.43,0,0,0-1.1.5,2.81,2.81,0,0,0-.3,1.5v0.6h2.2v1h0Z" transform="translate(-27.1 -22.9)"/><path class="a" d="M169.9,82.9a4.86,4.86,0,0,1-1.1,3.3,3.7,3.7,0,0,1-2.9,1.2,4.65,4.65,0,0,1-2.1-.5,3.64,3.64,0,0,1-1.4-1.6,6,6,0,0,1-.5-2.4,4.83,4.83,0,0,1,1-3.3,4.1,4.1,0,0,1,5.8,0h0A4.9,4.9,0,0,1,169.9,82.9Zm-6.5,0a4.4,4.4,0,0,0,.6,2.5,2.13,2.13,0,0,0,1.9.8,2.56,2.56,0,0,0,1.9-.8,4.4,4.4,0,0,0,.6-2.5,3.84,3.84,0,0,0-.6-2.4,2.41,2.41,0,0,0-1.9-.8C164.2,79.6,163.4,80.7,163.4,82.9Z" transform="translate(-27.1 -22.9)"/><path class="a" d="M174,82.8l-3-4.2h1.6l2.2,3.2,2.2-3.2h1.6l-3,4.2,3.1,4.4h-1.6l-2.3-3.4-2.4,3.4h-1.6Z" transform="translate(-27.1 -22.9)"/><path class="a" d="M183.6,91a3.73,3.73,0,0,1-1.2-.2V89.7a4.25,4.25,0,0,0,1.1.2,1.22,1.22,0,0,0,.9-0.3,1.49,1.49,0,0,0,.3-1V78.7h1.4v9.9a2.55,2.55,0,0,1-.6,1.9A4.14,4.14,0,0,1,183.6,91Zm0.9-14.7a1.45,1.45,0,0,1,.2-0.7,1,1,0,0,1,1.2,0,0.75,0.75,0,0,1,.2.7,1.45,1.45,0,0,1-.2.7,0.64,0.64,0,0,1-.6.2,1.42,1.42,0,0,1-.6-0.2A0.84,0.84,0,0,1,184.5,76.3Z" transform="translate(-27.1 -22.9)"/><path class="a" d="M190,78.6v5.5a2.07,2.07,0,0,0,.5,1.5,2,2,0,0,0,1.4.5,2.23,2.23,0,0,0,1.9-.7,3.84,3.84,0,0,0,.6-2.4V78.5h1.4v8.6h-1.2L194.4,86h-0.1a3.57,3.57,0,0,1-1.1,1,2.88,2.88,0,0,1-1.6.3,3.17,3.17,0,0,1-2.3-.7,3.29,3.29,0,0,1-.8-2.4V78.6H190Z" transform="translate(-27.1 -22.9)"/><path class="a" d="M209.5,87.2V81.7c0-1.4-.6-2-1.7-2a2.14,2.14,0,0,0-1.8.7,3.28,3.28,0,0,0-.6,2.1v4.7H204V81.7a2.08,2.08,0,0,0-.4-1.5,1.73,1.73,0,0,0-1.3-.5,1.83,1.83,0,0,0-1.7.7,4.65,4.65,0,0,0-.6,2.4v4.4h-1.4V78.6h1.1l0.2,1.2H200a3.18,3.18,0,0,1,1-1,2.41,2.41,0,0,1,1.5-.4,2.6,2.6,0,0,1,2.6,1.4h0.1a3.84,3.84,0,0,1,1.1-1.1,2.73,2.73,0,0,1,1.6-.4,2.61,2.61,0,0,1,2.2.8,3.29,3.29,0,0,1,.7,2.4v5.6h-1.3v0.1h0Z" transform="translate(-27.1 -22.9)"/><path class="a" d="M217.6,87.4a3.29,3.29,0,0,1-2.7-1.2h-0.1v0.3c0,0.4.1,0.8,0.1,1.1v3.5h-1.4V78.7h1.2l0.2,1.2H215a2.34,2.34,0,0,1,1.2-1,3.65,3.65,0,0,1,1.5-.3,3.09,3.09,0,0,1,2.6,1.2,6.5,6.5,0,0,1,0,6.6A4.06,4.06,0,0,1,217.6,87.4Zm-0.2-7.8a2,2,0,0,0-1.8.7,3.52,3.52,0,0,0-.6,2.3v0.3a4,4,0,0,0,.6,2.5,2.27,2.27,0,0,0,1.9.8,2,2,0,0,0,1.7-.9,5.1,5.1,0,0,0,0-4.8,2.27,2.27,0,0,0-1.8-.9h0Z" transform="translate(-27.1 -22.9)"/><path class="a" d="M229,84.8a2.32,2.32,0,0,1-.9,1.9,4.37,4.37,0,0,1-2.5.7,6.84,6.84,0,0,1-2.7-.5V85.6a5.72,5.72,0,0,0,2.7.7,2.81,2.81,0,0,0,1.5-.3,1.05,1.05,0,0,0,.5-0.9,1.38,1.38,0,0,0-.5-0.9,9.26,9.26,0,0,0-1.7-.8,9.26,9.26,0,0,1-1.7-.8,2.31,2.31,0,0,1-.7-0.7,1.64,1.64,0,0,1-.2-1,2,2,0,0,1,.9-1.7,4.27,4.27,0,0,1,2.4-.6,6,6,0,0,1,2.7.6l-0.5,1.1a5.74,5.74,0,0,0-2.4-.5,2.27,2.27,0,0,0-1.3.3,0.89,0.89,0,0,0-.5.8,0.91,0.91,0,0,0,.4.8,14.29,14.29,0,0,0,1.8.9c0.7,0.3,1.2.5,1.6,0.7a3,3,0,0,1,.8.8C228.9,84.1,229,84.4,229,84.8Z" transform="translate(-27.1 -22.9)"/><path class="a" d="M242.7,82.9a4.86,4.86,0,0,1-1.1,3.3,3.7,3.7,0,0,1-2.9,1.2,4.65,4.65,0,0,1-2.1-.5,3.64,3.64,0,0,1-1.4-1.6,6,6,0,0,1-.5-2.4,4.83,4.83,0,0,1,1-3.3,4.1,4.1,0,0,1,5.8,0h0A4.9,4.9,0,0,1,242.7,82.9Zm-6.5,0a4.4,4.4,0,0,0,.6,2.5,2.13,2.13,0,0,0,1.9.8,2.56,2.56,0,0,0,1.9-.8,4.4,4.4,0,0,0,.6-2.5,3.84,3.84,0,0,0-.6-2.4,2.41,2.41,0,0,0-1.9-.8C237,79.6,236.2,80.7,236.2,82.9Z" transform="translate(-27.1 -22.9)"/><path class="a" d="M246.6,87.2l-3.2-8.6h1.5l1.8,5.1a13.23,13.23,0,0,1,.7,2.3h0.1a0.2,0.2,0,0,1,.1-0.2,0.37,0.37,0,0,0,.1-0.3,15.56,15.56,0,0,1,.6-1.8l1.8-5.1h1.5l-3.3,8.6h-1.7Z" transform="translate(-27.1 -22.9)"/><path class="a" d="M256.5,87.4a3.77,3.77,0,0,1-3-1.2,4.77,4.77,0,0,1-1.1-3.2,4.83,4.83,0,0,1,1-3.3,3.49,3.49,0,0,1,2.8-1.2,3.39,3.39,0,0,1,2.6,1,3.7,3.7,0,0,1,1,2.8v0.9h-5.9a3.39,3.39,0,0,0,.7,2.2,2.48,2.48,0,0,0,2,.8,5.28,5.28,0,0,0,1.3-.1,4.76,4.76,0,0,0,1.4-.5v1.2a9.29,9.29,0,0,1-1.3.4A6.05,6.05,0,0,1,256.5,87.4Zm-0.4-7.8a2.11,2.11,0,0,0-1.6.6,3,3,0,0,0-.7,1.8h4.4a2.44,2.44,0,0,0-.6-1.8A1.89,1.89,0,0,0,256.1,79.6Z" transform="translate(-27.1 -22.9)"/><path class="a" d="M265.9,78.5a3.08,3.08,0,0,1,1,.1l-0.2,1.3a2.77,2.77,0,0,0-.9-0.1,2,2,0,0,0-1.3.4,2.19,2.19,0,0,0-.9,1,3.34,3.34,0,0,0-.3,1.5v4.6h-1.4V78.7h1.2l0.2,1.6h0.1a3,3,0,0,1,1.2-1.3A1.54,1.54,0,0,1,265.9,78.5Z" transform="translate(-27.1 -22.9)"/><path class="a" d="M275.5,86.2a1.27,1.27,0,0,0,.6-0.1c0.2,0,.4-0.1.6-0.1v1.1a2,2,0,0,1-.6.2,2.49,2.49,0,0,1-.8.1c-1.7,0-2.5-.9-2.5-2.6v-5h-1.2V79.1l1.2-.6,0.6-1.8h0.8v2h2.5v1.1h-2.5v5a1.25,1.25,0,0,0,.4,1.1A1.22,1.22,0,0,0,275.5,86.2Z" transform="translate(-27.1 -22.9)"/><path class="a" d="M284.3,87.2V81.7a2.54,2.54,0,0,0-.5-1.6,2.07,2.07,0,0,0-1.5-.5,2.23,2.23,0,0,0-1.9.7,3.84,3.84,0,0,0-.6,2.4v4.4h-1.4V74.9h1.4v3.6a4.12,4.12,0,0,1-.1,1.2h0.1a3.57,3.57,0,0,1,1.1-1,2.93,2.93,0,0,1,1.6-.4,3.61,3.61,0,0,1,2.4.7,3.29,3.29,0,0,1,.8,2.4V87h-1.4v0.2Z" transform="translate(-27.1 -22.9)"/><path class="a" d="M292,87.4a3.77,3.77,0,0,1-3-1.2,4.77,4.77,0,0,1-1.1-3.2,4.83,4.83,0,0,1,1-3.3,3.49,3.49,0,0,1,2.8-1.2,3.39,3.39,0,0,1,2.6,1,3.7,3.7,0,0,1,1,2.8v0.9h-5.9a3.39,3.39,0,0,0,.7,2.2,2.48,2.48,0,0,0,2,.8,5.28,5.28,0,0,0,1.3-.1,4.76,4.76,0,0,0,1.4-.5v1.2a9.29,9.29,0,0,1-1.3.4A7.72,7.72,0,0,1,292,87.4Zm-0.4-7.8a2.11,2.11,0,0,0-1.6.6,3,3,0,0,0-.7,1.8h4.4a2.44,2.44,0,0,0-.6-1.8A1.89,1.89,0,0,0,291.6,79.6Z" transform="translate(-27.1 -22.9)"/><path class="a" d="M302.9,87.2h-1.4V75h1.4V87.2Z" transform="translate(-27.1 -22.9)"/><path class="a" d="M310.9,87.2L310.6,86h-0.1a4.23,4.23,0,0,1-1.3,1.1,3.81,3.81,0,0,1-1.6.3,2.72,2.72,0,0,1-2-.7,2.35,2.35,0,0,1-.7-1.9c0-1.7,1.4-2.7,4.1-2.7l1.5-.1V81.5a1.61,1.61,0,0,0-1.8-1.9,5.07,5.07,0,0,0-1.3.2,3.7,3.7,0,0,0-1.1.5l-0.4-1.1a5.78,5.78,0,0,1,1.4-.5,7.72,7.72,0,0,1,1.5-.2,3.17,3.17,0,0,1,2.3.7,3,3,0,0,1,.8,2.2v5.8h-1Zm-2.9-1a2.88,2.88,0,0,0,1.9-.6,2.14,2.14,0,0,0,.7-1.8V83l-1.3.1a4.2,4.2,0,0,0-2.2.5,1.36,1.36,0,0,0-.7,1.3,1.16,1.16,0,0,0,.4,1A2.13,2.13,0,0,0,308,86.2Z" transform="translate(-27.1 -22.9)"/><path class="a" d="M320.1,87.2h-6.3V86.3l4.6-6.6h-4.3V78.6H320v1.1l-4.5,6.4h4.7l-0.1,1.1h0Z" transform="translate(-27.1 -22.9)"/><path class="a" d="M320.8,78.6h1.5l1.9,4.9a16.45,16.45,0,0,1,.7,2.3H325c0-.2.2-0.6,0.3-1.1a10.37,10.37,0,0,1,.4-1.3l1.7-4.9h1.5l-3.7,9.8a5.32,5.32,0,0,1-1.3,2,2.79,2.79,0,0,1-1.8.6,4.87,4.87,0,0,1-1.2-.1V89.7a2.77,2.77,0,0,0,.9.1,1.5,1.5,0,0,0,1.1-.4,3.13,3.13,0,0,0,.8-1.1l0.4-1.1Z" transform="translate(-27.1 -22.9)"/><path class="a" d="M337.5,87.4a3.09,3.09,0,0,1-2.6-1.2,6.5,6.5,0,0,1,0-6.6,3.44,3.44,0,0,1,5.3.1h0.1a1.76,1.76,0,0,0-.1-0.6v-4h1.4V87.2h-1.1l-0.2-1.1h-0.1A3.51,3.51,0,0,1,337.5,87.4Zm0.2-1.2a2.23,2.23,0,0,0,1.9-.7,3.52,3.52,0,0,0,.6-2.3V82.9a4.54,4.54,0,0,0-.6-2.6,2.33,2.33,0,0,0-3.6.1,4.4,4.4,0,0,0-.6,2.5,3.84,3.84,0,0,0,.6,2.4A1.85,1.85,0,0,0,337.7,86.2Z" transform="translate(-27.1 -22.9)"/><path class="a" d="M351.7,82.9a4.86,4.86,0,0,1-1.1,3.3,3.7,3.7,0,0,1-2.9,1.2,4.65,4.65,0,0,1-2.1-.5,3.64,3.64,0,0,1-1.4-1.6,6,6,0,0,1-.5-2.4,4.83,4.83,0,0,1,1-3.3,4.1,4.1,0,0,1,5.8,0h0A4.9,4.9,0,0,1,351.7,82.9Zm-6.5,0a4.4,4.4,0,0,0,.6,2.5,2.13,2.13,0,0,0,1.9.8,2.56,2.56,0,0,0,1.9-.8,4.4,4.4,0,0,0,.6-2.5,3.84,3.84,0,0,0-.6-2.4,2.41,2.41,0,0,0-1.9-.8C346.1,79.6,345.2,80.7,345.2,82.9Z" transform="translate(-27.1 -22.9)"/><path class="a" d="M359.7,87.1V86h-0.1a3,3,0,0,1-2.7,1.3,3.09,3.09,0,0,1-2.6-1.2,6.5,6.5,0,0,1,0-6.6,3.09,3.09,0,0,1,2.6-1.2,3,3,0,0,1,2.7,1.3h0.1l0.2-1.1H361v8.7a3.93,3.93,0,0,1-.9,2.8,4,4,0,0,1-2.9.9,9.14,9.14,0,0,1-3.1-.5V89.2a7.22,7.22,0,0,0,3.2.7,2.35,2.35,0,0,0,1.7-.6,2.44,2.44,0,0,0,.6-1.8V87.1h0.1Zm-2.5-.9a2.23,2.23,0,0,0,1.9-.7,3.4,3.4,0,0,0,.6-2.2V83a4.18,4.18,0,0,0-.6-2.5,2.27,2.27,0,0,0-1.9-.8,2,2,0,0,0-1.7.9,4.27,4.27,0,0,0-.6,2.4,3.84,3.84,0,0,0,.6,2.4A2.14,2.14,0,0,0,357.2,86.2Z" transform="translate(-27.1 -22.9)"/><path class="a" d="M363.6,86.3a1.14,1.14,0,0,1,.3-0.8,0.91,0.91,0,0,1,.7-0.3,0.78,0.78,0,0,1,.7.3,1,1,0,0,1,.3.8,1.14,1.14,0,0,1-.3.8A1,1,0,0,1,363.6,86.3Z" transform="translate(-27.1 -22.9)"/><path class="a" d="M32.6,109.2H31.2v-8a12.75,12.75,0,0,1,.1-2,1,1,0,0,1-.5.4c-0.5.4-1.1,0.9-1.7,1.4l-0.7-.9,3.1-2.4h1.2l-0.1,11.5h0Z" transform="translate(-27.1 -22.9)"/><path class="a" d="M44.4,109.2H36.8V108l3-3a20.66,20.66,0,0,0,1.8-2c0.3-.4.5-0.8,0.7-1.1a5,5,0,0,0,.2-1.2,2,2,0,0,0-.5-1.4,2.25,2.25,0,0,0-1.5-.5,5.07,5.07,0,0,0-1.3.2,4.64,4.64,0,0,0-1.4.9L37,99a5.26,5.26,0,0,1,3.5-1.3,3.74,3.74,0,0,1,2.5.8,2.79,2.79,0,0,1,.9,2.2,3.19,3.19,0,0,1-.3,1.4,10,10,0,0,1-.8,1.4c-0.4.5-1,1.1-1.8,2l-2.4,2.4V108h5.8v1.2h0Z" transform="translate(-27.1 -22.9)"/><path class="a" d="M53.1,100.4a2.79,2.79,0,0,1-.6,1.8,2.61,2.61,0,0,1-1.8.9v0.1a2.89,2.89,0,0,1,2,.9,2.41,2.41,0,0,1,.7,1.8,3.1,3.1,0,0,1-1.1,2.5,5.07,5.07,0,0,1-3.2.9,9.15,9.15,0,0,1-1.7-.1,4.42,4.42,0,0,1-1.5-.5v-1.3c0.5,0.2,1,.4,1.6.6a10,10,0,0,0,1.6.2c1.9,0,2.9-.8,2.9-2.3,0-1.3-1.1-2-3.2-2H47.7v-1.2h1.1a3.28,3.28,0,0,0,2.1-.6,1.94,1.94,0,0,0,.8-1.6,1.61,1.61,0,0,0-.6-1.3,2.46,2.46,0,0,0-1.5-.5,5.9,5.9,0,0,0-1.4.2,5.57,5.57,0,0,0-1.5.8l-0.7-1a5.07,5.07,0,0,1,1.6-.9,6.28,6.28,0,0,1,1.9-.3,4,4,0,0,1,2.6.8A2.64,2.64,0,0,1,53.1,100.4Z" transform="translate(-27.1 -22.9)"/><path class="a" d="M63.2,106.6H61.5v2.6H60.1v-2.6H54.6v-1.2L60,97.7h1.5v7.6h1.7v1.3Zm-3.1-1.3v-3.6a22.63,22.63,0,0,1,.1-2.5H60.1a1.63,1.63,0,0,0-.3.6,1.54,1.54,0,0,1-.4.6L56,105.3h4.1Z" transform="translate(-27.1 -22.9)"/><path class="a" d="M67.9,102.2a4.1,4.1,0,0,1,2.8.9,3,3,0,0,1,1,2.5,3.76,3.76,0,0,1-1.1,2.8,4.45,4.45,0,0,1-3.1,1,6.12,6.12,0,0,1-3-.6v-1.3a4.57,4.57,0,0,0,1.4.5,8.75,8.75,0,0,0,1.6.2,3.28,3.28,0,0,0,2.1-.6,2.14,2.14,0,0,0,.7-1.8c0-1.5-1-2.3-2.9-2.3a15,15,0,0,0-2,.2l-0.7-.4,0.4-5.4h5.7v1.3H66.3L66,102.5A6.8,6.8,0,0,1,67.9,102.2Z" transform="translate(-27.1 -22.9)"/><path class="a" d="M73.5,104.3c0-4.5,1.7-6.7,5.2-6.7a5.31,5.31,0,0,1,1.4.1v1.2a5.9,5.9,0,0,0-1.4-.2,3.76,3.76,0,0,0-2.8,1.1,6,6,0,0,0-1.1,3.5h0.1a3,3,0,0,1,2.7-1.3,3.24,3.24,0,0,1,2.4.9,3.49,3.49,0,0,1,.9,2.5,3.71,3.71,0,0,1-1,2.8,3.47,3.47,0,0,1-2.7,1,3.7,3.7,0,0,1-2.1-.6,4.74,4.74,0,0,1-1.4-1.7C73.7,106.3,73.5,105.4,73.5,104.3Zm3.9,3.9a2.06,2.06,0,0,0,1.7-.7,3,3,0,0,0,.6-2,2.61,2.61,0,0,0-.6-1.8,2.48,2.48,0,0,0-2.8-.3,1.76,1.76,0,0,0-.9.8,2.24,2.24,0,0,0-.3,1,4,4,0,0,0,.3,1.5,2.44,2.44,0,0,0,.9,1.1A1.6,1.6,0,0,0,77.4,108.2Z" transform="translate(-27.1 -22.9)"/><path class="a" d="M84,109.2l4.7-10.1H82.5V97.8h7.7v1.1l-4.6,10.3H84Z" transform="translate(-27.1 -22.9)"/><path class="a" d="M95.5,97.6a3.9,3.9,0,0,1,2.5.7,2.52,2.52,0,0,1,.9,2,2.46,2.46,0,0,1-.5,1.5,4,4,0,0,1-1.7,1.3,5.4,5.4,0,0,1,2,1.4,2.52,2.52,0,0,1,.6,1.7,2.9,2.9,0,0,1-1,2.3,4,4,0,0,1-2.7.8,4.45,4.45,0,0,1-2.8-.8,2.64,2.64,0,0,1-1-2.3c0-1.3.8-2.3,2.4-3.1a3.92,3.92,0,0,1-1.5-1.3,3,3,0,0,1-.5-1.6,2.52,2.52,0,0,1,.9-2A5,5,0,0,1,95.5,97.6Zm-2.4,8.7a1.68,1.68,0,0,0,.6,1.4,3,3,0,0,0,1.8.5,3.45,3.45,0,0,0,1.8-.5,1.89,1.89,0,0,0,.6-1.5,1.76,1.76,0,0,0-.6-1.3,5.26,5.26,0,0,0-2-1.1,3.44,3.44,0,0,0-1.6,1.1A2.51,2.51,0,0,0,93.1,106.3Zm2.4-7.5a2.41,2.41,0,0,0-1.5.4,1.35,1.35,0,0,0-.5,1.2,2.92,2.92,0,0,0,.2.9,1.34,1.34,0,0,0,.6.7,13.08,13.08,0,0,0,1.3.7,3.56,3.56,0,0,0,1.5-1,1.92,1.92,0,0,0,.4-1.2,1.43,1.43,0,0,0-.6-1.2A1.62,1.62,0,0,0,95.5,98.8Z" transform="translate(-27.1 -22.9)"/><path class="a" d="M108.4,102.7c0,4.5-1.8,6.7-5.2,6.7a4.64,4.64,0,0,1-1.4-.2V108a5.9,5.9,0,0,0,1.4.2,4.65,4.65,0,0,0,2.1-.5,2.78,2.78,0,0,0,1.3-1.5,6.33,6.33,0,0,0,.5-2.6H107a3,3,0,0,1-2.7,1.3,3.24,3.24,0,0,1-2.4-.9,3.49,3.49,0,0,1-.9-2.5,3.71,3.71,0,0,1,1-2.8,3.47,3.47,0,0,1,2.7-1,3.7,3.7,0,0,1,2.1.6,4.74,4.74,0,0,1,1.4,1.7C108.2,100.7,108.4,101.6,108.4,102.7Zm-3.9-3.9a2.06,2.06,0,0,0-1.7.7,3,3,0,0,0-.6,2,2.2,2.2,0,0,0,.6,1.7,2.11,2.11,0,0,0,1.6.6,2.77,2.77,0,0,0,1.3-.3,1.76,1.76,0,0,0,.9-0.8,2.24,2.24,0,0,0,.3-1,4,4,0,0,0-.3-1.5,2.44,2.44,0,0,0-.9-1.1A2.13,2.13,0,0,0,104.5,98.8Z" transform="translate(-27.1 -22.9)"/><path class="a" d="M117.6,103.5a8.26,8.26,0,0,1-.9,4.4,3.16,3.16,0,0,1-2.9,1.5,3.11,3.11,0,0,1-2.8-1.5,8.67,8.67,0,0,1-1-4.4,8.26,8.26,0,0,1,.9-4.4,3.3,3.3,0,0,1,2.9-1.4,3.11,3.11,0,0,1,2.8,1.5A8.26,8.26,0,0,1,117.6,103.5Zm-6.2,0a7.77,7.77,0,0,0,.6,3.6,2,2,0,0,0,3.6,0,8.06,8.06,0,0,0,.6-3.6,7.57,7.57,0,0,0-.6-3.5,1.83,1.83,0,0,0-1.8-1.1A2,2,0,0,0,112,100,7,7,0,0,0,111.4,103.5Z" transform="translate(-27.1 -22.9)"/><path class="a" d="M119.5,108.3a1.14,1.14,0,0,1,.3-0.8,0.91,0.91,0,0,1,.7-0.3,0.78,0.78,0,0,1,.7.3,1.22,1.22,0,0,1,0,1.6,0.91,0.91,0,0,1-.7.3,0.78,0.78,0,0,1-.7-0.3A1.49,1.49,0,0,1,119.5,108.3ZM121,106h-0.9l-0.4-8.2h1.7Z" transform="translate(-27.1 -22.9)"/><path class="a" d="M136.1,103.5a6.45,6.45,0,0,1-.3,2,3,3,0,0,1-1,1.4,2.39,2.39,0,0,1-1.4.5,1.5,1.5,0,0,1-1.1-.4,2.07,2.07,0,0,1-.6-1h-0.1a2.19,2.19,0,0,1-.9,1,2.89,2.89,0,0,1-1.4.4,2.56,2.56,0,0,1-1.9-.8,3.07,3.07,0,0,1-.7-2.2,4.06,4.06,0,0,1,.4-1.9,3.74,3.74,0,0,1,1.2-1.3,3.45,3.45,0,0,1,1.8-.5,4.87,4.87,0,0,1,1.2.1c0.4,0.1.9,0.2,1.2,0.3l-0.2,3.7V105c0,0.9.3,1.4,1,1.4a1.27,1.27,0,0,0,1.1-.8,4.56,4.56,0,0,0,.4-2.2,5.14,5.14,0,0,0-.6-2.5,4.1,4.1,0,0,0-1.6-1.6,4.75,4.75,0,0,0-2.4-.6,6,6,0,0,0-3,.7,5.48,5.48,0,0,0-2,2,5.93,5.93,0,0,0-.7,3.1,4.37,4.37,0,0,0,4.8,4.9,8.63,8.63,0,0,0,3.4-.7v1.1a9.37,9.37,0,0,1-3.4.7,5.67,5.67,0,0,1-4.4-1.6,5.58,5.58,0,0,1-1.6-4.3,8.29,8.29,0,0,1,.8-3.6,6.42,6.42,0,0,1,2.4-2.5,6.87,6.87,0,0,1,3.6-.9,6,6,0,0,1,3,.7,4.31,4.31,0,0,1,2,2A8.57,8.57,0,0,1,136.1,103.5Zm-8,1c0,1.3.5,2,1.5,2s1.6-.8,1.7-2.4l0.1-2a5,5,0,0,0-1.2-.2,1.86,1.86,0,0,0-1.6.7A3.31,3.31,0,0,0,128.1,104.5Z" transform="translate(-27.1 -22.9)"/><path class="a" d="M144.8,102.2l-0.5,2.6h2.2v1.1h-2.4l-0.7,3.3h-1.1l0.7-3.3h-2.3l-0.6,3.3H139l0.6-3.3h-2v-1.1h2.2l0.5-2.6h-2.1v-1h2.3l0.6-3.4h1.1l-0.6,3.4h2.3l0.6-3.4h1.1l-0.6,3.4h2v1.1h-2.2v-0.1h0Zm-4,2.6h2.3l0.5-2.6h-2.3Z" transform="translate(-27.1 -22.9)"/><path class="a" d="M155.5,105.7a2.5,2.5,0,0,1-.8,1.8,3.74,3.74,0,0,1-2.3.9v1.8h-1v-1.7a8.81,8.81,0,0,1-1.7-.2,4,4,0,0,1-1.3-.4v-1.3c0.4,0.2.9,0.3,1.4,0.5a10,10,0,0,0,1.6.2V104a4.94,4.94,0,0,1-2.3-1.2,2.67,2.67,0,0,1-.7-1.8,2.14,2.14,0,0,1,.8-1.7,4,4,0,0,1,2.1-.8V97.1h1v1.4a6.71,6.71,0,0,1,2.8.6l-0.4,1.1a10.55,10.55,0,0,0-2.4-.6v3.3a9,9,0,0,1,1.9.8,2,2,0,0,1,.9.9A1.37,1.37,0,0,1,155.5,105.7ZM150,101a1.22,1.22,0,0,0,.3.9,2.22,2.22,0,0,0,1.2.6V99.6a1.63,1.63,0,0,0-1.1.5A1,1,0,0,0,150,101Zm4.1,4.8a1,1,0,0,0-.4-0.9,4,4,0,0,0-1.3-.6v2.9C153.6,107,154.1,106.6,154.1,105.8Z" transform="translate(-27.1 -22.9)"/><path class="a" d="M162.1,101.2a4.91,4.91,0,0,1-.6,2.7,2.15,2.15,0,0,1-3.5,0,6.37,6.37,0,0,1,0-5.4,2.15,2.15,0,0,1,3.5,0A5.15,5.15,0,0,1,162.1,101.2Zm-3.6,0a4.39,4.39,0,0,0,.3,1.9,1.07,1.07,0,0,0,.9.7c0.8,0,1.2-.9,1.2-2.6s-0.4-2.6-1.2-2.6a1,1,0,0,0-.9.6A5.25,5.25,0,0,0,158.5,101.2Zm8.5-3.4-6.3,11.4h-1.2l6.3-11.4H167Zm2.1,8a4.91,4.91,0,0,1-.6,2.7,2.15,2.15,0,0,1-3.5,0,6.37,6.37,0,0,1,0-5.4,2,2,0,0,1,1.7-.9,2.14,2.14,0,0,1,1.8.9A4.91,4.91,0,0,1,169.1,105.8Zm-3.6,0a4.39,4.39,0,0,0,.3,1.9,1,1,0,0,0,1.8,0,4.7,4.7,0,0,0,.3-1.9c0-1.7-.4-2.6-1.2-2.6a1,1,0,0,0-.9.6A5.25,5.25,0,0,0,165.5,105.8Z" transform="translate(-27.1 -22.9)"/><path class="a" d="M170.5,104.9l3.4-7.2h0.8l3.8,7.2h-1.2l-2.9-5.7-2.6,5.7h-1.3Z" transform="translate(-27.1 -22.9)"/><path class="a" d="M179.9,106.2a3.45,3.45,0,0,1,.5-1.8,6.53,6.53,0,0,1,1.9-1.6c-0.4-.5-0.7-0.8-0.9-1.1a3,3,0,0,1-.4-0.8,2.77,2.77,0,0,1-.1-0.9,2.2,2.2,0,0,1,.8-1.8,3.39,3.39,0,0,1,2.2-.7,2.58,2.58,0,0,1,2,.7,2.27,2.27,0,0,1,.7,1.8,3,3,0,0,1-.5,1.6,4.51,4.51,0,0,1-1.8,1.4l3.1,3a5.27,5.27,0,0,0,1.1-2.5h1.4a8.29,8.29,0,0,1-1.6,3.4l2.3,2.3h-1.9l-1.4-1.3a5.82,5.82,0,0,1-1.8,1.1,6.54,6.54,0,0,1-2.1.4,4,4,0,0,1-2.6-.8A3.24,3.24,0,0,1,179.9,106.2Zm3.6,1.9a4.43,4.43,0,0,0,3-1.1l-3.3-3.2a4.9,4.9,0,0,0-1.5,1.2,1.92,1.92,0,0,0-.4,1.2,1.68,1.68,0,0,0,.6,1.4A2.54,2.54,0,0,0,183.5,108.1Zm-1.2-8a1.93,1.93,0,0,0,.3,1,7.29,7.29,0,0,0,.9,1.1,10.44,10.44,0,0,0,1.4-1,1.5,1.5,0,0,0,.4-1.1A1.37,1.37,0,0,0,184,98.7H183.9a1.37,1.37,0,0,0-1.1.4A1.39,1.39,0,0,0,182.3,100.1Z" transform="translate(-27.1 -22.9)"/><path class="a" d="M195.9,97l-0.3,3.1,3.1-.9,0.2,1.5-2.9.2,1.9,2.5-1.4.8-1.4-2.8-1.2,2.8-1.4-.8,1.9-2.5-2.9-.2,0.2-1.5,3,0.9L194.4,97h1.5Z" transform="translate(-27.1 -22.9)"/><path class="a" d="M200.2,104.8a12.26,12.26,0,0,1,.6-3.9,10.86,10.86,0,0,1,1.7-3.2h1.3a10.36,10.36,0,0,0-1.7,3.3,11.48,11.48,0,0,0-.6,3.7,11.93,11.93,0,0,0,.6,3.7,10.36,10.36,0,0,0,1.7,3.3h-1.3a10.52,10.52,0,0,1-1.8-3.1A15.18,15.18,0,0,1,200.2,104.8Z" transform="translate(-27.1 -22.9)"/><path class="a" d="M208.5,104.8a11.64,11.64,0,0,1-.6,3.8,10.3,10.3,0,0,1-1.7,3.1h-1.3a12.89,12.89,0,0,0,1.7-3.3,11.71,11.71,0,0,0,0-7.4,10.36,10.36,0,0,0-1.7-3.3h1.3a11.07,11.07,0,0,1,1.8,3.2A16.66,16.66,0,0,1,208.5,104.8Z" transform="translate(-27.1 -22.9)"/><path class="a" d="M216.3,111.7h-7.2v-1h7.2v1Z" transform="translate(-27.1 -22.9)"/><path class="b" d="M30.4,30.8v5.4H28.7V23.3h3.6a12.48,12.48,0,0,1,2.1.2,3.48,3.48,0,0,1,1.5.7,3.13,3.13,0,0,1,.9,1.1,3.34,3.34,0,0,1,.3,1.5,5.07,5.07,0,0,1-.2,1.3,3.88,3.88,0,0,1-.6,1.1,2.72,2.72,0,0,1-1,.8,5,5,0,0,1-1.3.5,2.65,2.65,0,0,1,.6.5l3.8,5.1H36.9a0.67,0.67,0,0,1-.7-0.4l-3.3-4.6-0.3-.3a0.75,0.75,0,0,0-.5-0.1H30.4v0.1Zm0-1.3h1.8a4.44,4.44,0,0,0,1.3-.2,3.13,3.13,0,0,0,1-.5,1.56,1.56,0,0,0,.6-0.8,3.55,3.55,0,0,0,.2-1,2,2,0,0,0-.8-1.7,3.71,3.71,0,0,0-2.3-.6H30.3v4.8h0.1Z" transform="translate(-27.1 -22.9)"/><path class="b" d="M43.4,26.9a4,4,0,0,1,1.5.3,2.55,2.55,0,0,1,1.2.8,5.67,5.67,0,0,1,.8,1.3,4.67,4.67,0,0,1,.3,1.7,0.62,0.62,0,0,1-.1.5,0.37,0.37,0,0,1-.3.1H40.7a6,6,0,0,0,.2,1.5,2.44,2.44,0,0,0,1.5,1.7,3.73,3.73,0,0,0,1.2.2,3.08,3.08,0,0,0,1-.1c0.3-.1.5-0.2,0.8-0.3a2.19,2.19,0,0,0,.5-0.3,0.6,0.6,0,0,1,.4-0.1,0.53,0.53,0,0,1,.3.2L47,35a4.35,4.35,0,0,1-.7.6,3.55,3.55,0,0,1-.9.4c-0.3.1-.6,0.2-1,0.3a3.4,3.4,0,0,1-1,.1,4.67,4.67,0,0,1-1.7-.3,4.19,4.19,0,0,1-1.4-.9,3.77,3.77,0,0,1-.9-1.5,6.65,6.65,0,0,1-.3-2.1,5.66,5.66,0,0,1,.3-1.8,4.68,4.68,0,0,1,.8-1.4,6.42,6.42,0,0,1,1.3-1A4.89,4.89,0,0,1,43.4,26.9Zm0.1,1.2a2.14,2.14,0,0,0-1.8.7,3.34,3.34,0,0,0-.8,1.9h5a3,3,0,0,0-.2-1,5.94,5.94,0,0,0-.4-0.8,1.79,1.79,0,0,0-.7-0.5A4.51,4.51,0,0,0,43.5,28.1Z" transform="translate(-27.1 -22.9)"/><path class="b" d="M52.3,26.9a3.75,3.75,0,0,1,1.1.1,2.47,2.47,0,0,1,.9.4h2.5V28a0.42,0.42,0,0,1-.4.4l-1,.1a2.77,2.77,0,0,1,.3,1.3,2.66,2.66,0,0,1-.3,1.2,2.18,2.18,0,0,1-.7.9,2.38,2.38,0,0,1-1.1.6,5.9,5.9,0,0,1-1.4.2,5,5,0,0,1-1.2-.2,1.51,1.51,0,0,0-.4.4,0.6,0.6,0,0,0-.1.4,0.55,0.55,0,0,0,.3.5,1.45,1.45,0,0,0,.7.2c0.3,0,.6.1,1,0.1h1.1a3.75,3.75,0,0,1,1.1.1l1,0.3a4.35,4.35,0,0,1,.7.6,1.69,1.69,0,0,1,.3,1,2,2,0,0,1-.3,1.1,3.92,3.92,0,0,1-.8,1,5.39,5.39,0,0,1-1.3.7,4.84,4.84,0,0,1-1.8.3,9.91,9.91,0,0,1-1.8-.2,3.34,3.34,0,0,1-1.2-.5,1.78,1.78,0,0,1-.7-0.8,1.49,1.49,0,0,1-.2-0.9,1.37,1.37,0,0,1,.4-1.1,3.6,3.6,0,0,1,1.2-.8,1,1,0,0,1-.6-0.5,1.08,1.08,0,0,1-.2-0.8,0.6,0.6,0,0,1,.1-0.4,0.76,0.76,0,0,1,.2-0.4,1.51,1.51,0,0,1,.4-0.4,2.19,2.19,0,0,1,.5-0.3,5.24,5.24,0,0,1-1.1-1,2.41,2.41,0,0,1-.4-1.5,2.66,2.66,0,0,1,.3-1.2,2.18,2.18,0,0,1,.7-0.9,3.88,3.88,0,0,1,1.1-.6A3.75,3.75,0,0,0,52.3,26.9Zm2.9,9.8a1.42,1.42,0,0,0-.2-0.6,2.19,2.19,0,0,0-.5-0.3c-0.2-.1-0.5-0.1-0.7-0.2a2.48,2.48,0,0,0-.9-0.1h-1a2.48,2.48,0,0,1-.9-0.1,5.55,5.55,0,0,0-.8.6,1.14,1.14,0,0,0-.3.8,1.42,1.42,0,0,0,.2.6,2.36,2.36,0,0,0,.5.5,6.89,6.89,0,0,0,.8.3,4.12,4.12,0,0,0,1.2.1,4.87,4.87,0,0,0,1.2-.1l0.9-.3a1.21,1.21,0,0,0,.5-0.5A1.63,1.63,0,0,1,55.2,36.7Zm-2.9-5a2.77,2.77,0,0,0,.9-0.1,0.92,0.92,0,0,0,.6-0.4c0.1-.2.3-0.4,0.4-0.6a1.7,1.7,0,0,0,.1-0.7,1.73,1.73,0,0,0-.5-1.3,2.07,2.07,0,0,0-1.5-.5,2.46,2.46,0,0,0-1.5.5,1.9,1.9,0,0,0-.5,1.3,1.48,1.48,0,0,0,.1.7,1.84,1.84,0,0,0,1,1A2.48,2.48,0,0,0,52.3,31.7Z" transform="translate(-27.1 -22.9)"/><path class="b" d="M59.8,27.1v5.8a2.54,2.54,0,0,0,.5,1.6,1.68,1.68,0,0,0,1.4.6,2.77,2.77,0,0,0,1.3-.3,3.13,3.13,0,0,0,1.1-.9V27.2h1.6v9.1h-1A0.35,0.35,0,0,1,64.3,36h0l-0.1-1a6.89,6.89,0,0,1-1.3,1.1,3.29,3.29,0,0,1-1.7.4,5.07,5.07,0,0,1-1.3-.2,3.59,3.59,0,0,1-1-.7,2.38,2.38,0,0,1-.6-1.1,5.9,5.9,0,0,1-.2-1.4V27.3h1.7V27.1Z" transform="translate(-27.1 -22.9)"/><path class="b" d="M70.2,22.9V36.2H68.6V22.9h1.6Z" transform="translate(-27.1 -22.9)"/><path class="b" d="M79.7,36.2H79a0.48,0.48,0,0,1-.4-0.1,0.25,0.25,0,0,1-.2-0.29h0L78.2,35c-0.2.2-.5,0.4-0.7,0.6a2.51,2.51,0,0,1-.7.4c-0.3.1-.5,0.2-0.8,0.3a2.77,2.77,0,0,1-.9.1,3.08,3.08,0,0,1-1-.1,2,2,0,0,1-.8-0.4,2.18,2.18,0,0,1-.5-0.8,3.59,3.59,0,0,1-.2-1.1,1.69,1.69,0,0,1,.3-1,3,3,0,0,1,1-.9,4.28,4.28,0,0,1,1.7-.6,10.17,10.17,0,0,1,2.6-.2V30.6a2.35,2.35,0,0,0-.5-1.6,1.54,1.54,0,0,0-1.3-.5,3.08,3.08,0,0,0-1,.1,4.88,4.88,0,0,0-.7.3,2.19,2.19,0,0,0-.5.3,0.6,0.6,0,0,1-.4.1,0.37,0.37,0,0,1-.3-0.1L73.3,29,73,28.5a5.72,5.72,0,0,1,1.6-1.1,4.06,4.06,0,0,1,1.9-.4,3.19,3.19,0,0,1,1.4.3,3.59,3.59,0,0,1,1,.7,2.38,2.38,0,0,1,.6,1.1,5.9,5.9,0,0,1,.2,1.4v5.7Zm-4.1-1a2.2,2.2,0,0,0,.8-0.1c0.2-.1.5-0.1,0.7-0.2a2.09,2.09,0,0,0,.6-0.4,2.65,2.65,0,0,0,.6-0.5V32.1a10.89,10.89,0,0,0-1.9.1,5,5,0,0,0-1.3.4,2.1,2.1,0,0,0-.7.5,1.45,1.45,0,0,0-.2.7,1.08,1.08,0,0,0,.1.6c0.1,0.1.2,0.3,0.3,0.4a0.76,0.76,0,0,0,.5.2A0.48,0.48,0,0,0,75.6,35.2Z" transform="translate(-27.1 -22.9)"/><path class="b" d="M82.2,36.2V27.1h0.9a0.48,0.48,0,0,1,.4.1,0.37,0.37,0,0,1,.1.3l0.1,1.4a4.43,4.43,0,0,1,1.2-1.5,2.35,2.35,0,0,1,1.6-.5,1.48,1.48,0,0,1,.7.1c0.2,0.1.4,0.1,0.6,0.2l-0.2,1.2a0.25,0.25,0,0,1-.29.2h0a0.76,0.76,0,0,1-.4-0.1,1.48,1.48,0,0,0-.7-0.1,2.17,2.17,0,0,0-1.4.5,2.84,2.84,0,0,0-.9,1.4v5.8l-1.7.1h0Z" transform="translate(-27.1 -22.9)"/><path class="a" d="M30.8,160.4v-1.3h1.5v1.3h2.9v1.4H32.3v1.1h2.4v5.9H32.3v1.1h2.6v1.4H32.3v2.5H30.8v-2.5H27.7v-1.4h3.1v-1.1H28.4v-5.9h2.4v-1.1H27.9v-1.4h2.9Zm2.5,4.8v-1H29.8v1h3.5Zm0,1.2H29.8v1.1h3.5v-1.1Zm2.2,7.6-1.2-1.1a10.12,10.12,0,0,0,1.7-5.7v-7.6h5.7v12.6a1.43,1.43,0,0,1-1.6,1.6H38.4L38,172.3c0.6,0,1.1.1,1.6,0.1s0.5-.2.5-0.7v-2.9H37.4A10.84,10.84,0,0,1,35.5,174Zm2-6.9v0.2h2.6v-2.4H37.5v2.2Zm2.6-6.1H37.5v2.4h2.6V161Z" transform="translate(-27.1 -22.9)"/><path class="a" d="M51.1,160.3a25.08,25.08,0,0,1-6.9.8l-0.4-1.2a26,26,0,0,0,6.7-.7Zm-1.5,7.8-0.9.4c-0.1-.2-0.1-0.3-0.2-0.5-0.6.1-1.6,0.2-2.7,0.3l-0.1-.8a1.06,1.06,0,0,0,.6-0.4,5.74,5.74,0,0,1,.4-0.7H45.5v7.4H44.2v-8.5h2.3a3.59,3.59,0,0,0-1-.7l0.7-.6H44.1v-1.1h0.7c-0.2-.4-0.3-0.8-0.5-1.2l1.2-.4a13.78,13.78,0,0,1,.6,1.6h1a8.8,8.8,0,0,0-.5-1.5l1.3-.2c0.1,0.5.3,1,.4,1.7h0.6a10.84,10.84,0,0,0,.8-1.9l1.2,0.4c-0.2.5-.5,1-0.7,1.5h1.1v1a14.28,14.28,0,0,1-1.8,1.5h1.8v7.2a1.12,1.12,0,0,1-1.3,1.3H48.7l-0.3-1.2h0.4l-0.7-.7a5.85,5.85,0,0,1-1.7,1l-0.7-.9a5.43,5.43,0,0,0,1.5-.9,8.34,8.34,0,0,0-1.2-.8l0.6-.6H45.9v-0.9h3.8v0.8a5.07,5.07,0,0,1-.9,1.6,5.5,5.5,0,0,0,.9.7l-0.7.7h0.6a0.43,0.43,0,0,0,.4-0.4v-5.7H47.9a8.8,8.8,0,0,1-.6,1c0.4,0,.7-0.1,1.1-0.1a1.69,1.69,0,0,1-.2-0.5l0.9-.3A6,6,0,0,0,49.6,168.1Zm-0.3-4.2H46.4a17.09,17.09,0,0,1,1.4,1.1c0.4-.3,1-0.7,1.5-1.1h0Zm-1.1,5.8H46.5a10.47,10.47,0,0,1,1.1.8,2.1,2.1,0,0,0,.6-0.8h0Zm4.8-4.6a11.92,11.92,0,0,0-.8-2l1.2-.4a12.27,12.27,0,0,1,.8,2.5h1.1c0.3-.8.6-1.7,0.9-2.6l1.3,0.4c-0.3.8-.5,1.5-0.8,2.2h1.5v1.4H55.5v2.1h2.4v1.4H55.5V174H54v-3.9H51.7v-1.4H54v-2.1H51.5v-1.4l1.5-.1h0Zm2.5-4.2H58v1.3H51.6v-1.3H54c-0.2-.6-0.4-1.2-0.6-1.7l1.5-.3a6.64,6.64,0,0,1,.6,2h0Z" transform="translate(-27.1 -22.9)"/><path class="a" d="M72.7,173.8H71.2v-1.1H62.7v1.2H61.2V161.6H65a10.27,10.27,0,0,0,.7-2.5l1.7,0.2a15.46,15.46,0,0,1-.7,2.3h6v12.2Zm-1.6-7.6V163H62.6v3.2h8.5Zm0,5v-3.6H62.6v3.6h8.5Z" transform="translate(-27.1 -22.9)"/><path class="a" d="M82.2,160.3c-0.1-.4-0.3-0.8-0.4-1.1l1.6-.3c0.1,0.4.3,0.9,0.4,1.4h5.6v1.4H86.8a11.7,11.7,0,0,1-.5,2h3.5v3.1H88.3v-1.7H77.7v1.7H76.2v-3.1h3.6l-0.6-2H76.6v-1.4h5.6Zm1.5,5.1V167h4.5v3.7c0,1.3-.5,1.9-1.6,1.9H85.3l-0.4-1.3,1.2,0.1c0.4,0,.6-0.3.6-1v-2H83.6v5.5H82.1v-5.5H79.3v4.2H77.8V167h4.3v-1.6h1.6Zm1.5-3.7H80.6l0.6,2h3.5a7.34,7.34,0,0,0,.5-2h0Z" transform="translate(-27.1 -22.9)"/><path class="a" d="M95.4,166.2v-1.4h1.5v1.4h3v1.5h-3v0.8a17.48,17.48,0,0,1,2.9,1.8l-0.9,1.4c-0.8-.8-1.5-1.3-2-1.8v4H95.4v-4.5a14.32,14.32,0,0,1-3,3.4l-0.9-1.3a14,14,0,0,0,3.6-3.7h-3v-1.6h3.3Zm4.7-5.7a29.19,29.19,0,0,1-8.1.9l-0.4-1.3a34,34,0,0,0,7.8-.8Zm-5.8,4.2-1.2.3a11.07,11.07,0,0,0-1.2-2.7l1.2-.4A11.82,11.82,0,0,1,94.3,164.7Zm2.6-.8-1.3.5a11.72,11.72,0,0,0-.9-2.4l1.3-.4A13.57,13.57,0,0,1,96.9,163.9Zm3-2.2a16.07,16.07,0,0,1-1.2,3.3l-1.2-.4a14.75,14.75,0,0,0,1.1-3.2Zm6.5,7.1a18.38,18.38,0,0,1-5.7,5l-0.7-1.5a15.13,15.13,0,0,0,5.3-4.7Zm-1.2-8.7a13.57,13.57,0,0,1-4.3,3.6l-0.7-1.4a13.17,13.17,0,0,0,4-3.4Zm0.7,4.3a16.07,16.07,0,0,1-4.7,3.9l-0.7-1.4a12.28,12.28,0,0,0,4.4-3.7Z" transform="translate(-27.1 -22.9)"/><path class="a" d="M121.8,168.8v1.3h-3.2a24.64,24.64,0,0,1,2.8,2.8l-1,1.1-0.9-1.2c-3.2.4-6.5,0.6-10,.8l-0.4-1.2a3,3,0,0,0,1-.4,17.65,17.65,0,0,0,1.8-1.9h-3.8v-1.3h13.7Zm-0.6-9.2v1.3h-5.5v0.7h6.1v3.5h-1.5v-2.2h-4.6v3.3h-1.5v-3.3h-4.6v2.2h-1.5v-3.5h6.1v-0.7h-5.5v-1.3h12.5Zm-0.6,7.1V168H109.3v-1.3h11.3Zm-7.1-1a20.45,20.45,0,0,1-3.2.6l-0.3-1a15.27,15.27,0,0,0,3.2-.5Zm-0.1-2.1-0.4.9c-1-.2-2-0.3-3-0.4l0.5-.9A25.35,25.35,0,0,1,113.4,163.6Zm-1.8,8.6c2.6-.1,4.9-0.3,6.7-0.5-0.4-.4-0.8-0.7-1.2-1.1l0.5-.5h-4.1a7.56,7.56,0,0,1-1.9,2.1h0Zm8.3-6.9-0.4,1a16.47,16.47,0,0,0-3.2-.6l0.4-.9a30.62,30.62,0,0,1,3.2.5h0Zm-3.5-1.7a21.76,21.76,0,0,0,2.9-.5l0.4,1a22.36,22.36,0,0,1-3.1.5Z" transform="translate(-27.1 -22.9)"/><path class="a" d="M130.2,165.1h-4.4v8.7h-1.5V159.5h5.9v5.6Zm-1.5-4.2h-2.9v0.9h2.9v-0.9Zm-2.9,2.9h2.9v-0.9h-2.9v0.9Zm8.2,2.3v6.4h-6.1v-6.4H134Zm-1.5,2.6v-1.3h-3.2v1.3h3.2Zm0,1.2h-3.2v1.4h3.2v-1.4Zm-1-4.8v-5.6h6v12.9a1.27,1.27,0,0,1-1.13,1.4H134.6l-0.4-1.5c0.5,0,1,.1,1.4.1a0.4,0.4,0,0,0,.4-0.5v-6.7l-4.5-.1h0Zm4.5-4.2h-3v0.9h3v-0.9Zm-3,2.9h3v-0.9h-3v0.9Z" transform="translate(-27.1 -22.9)"/><path class="a" d="M32.7,194.2H30.3v-9.4H27.2v-2h8.6v2H32.7v9.4Z" transform="translate(-27.1 -22.9)"/><path class="a" d="M45.5,194.2H43.1v-5.1c0-1.3-.5-1.9-1.4-1.9a1.42,1.42,0,0,0-1.4.7,4.32,4.32,0,0,0-.4,2.2v4.1H37.5V182h2.4v2.5a10.33,10.33,0,0,1-.1,1.4l-0.1.7h0.1a2.66,2.66,0,0,1,2.5-1.3,3.2,3.2,0,0,1,2.3.8,3.29,3.29,0,0,1,.8,2.4l0.1,5.7h0Z" transform="translate(-27.1 -22.9)"/><path class="a" d="M51.9,194.4a4.15,4.15,0,0,1-4.5-4.5,5,5,0,0,1,1.1-3.4,3.77,3.77,0,0,1,3-1.2,3.64,3.64,0,0,1,3.9,4v1.2H49.8a2.06,2.06,0,0,0,1.91,2.2H52a7.72,7.72,0,0,0,1.5-.2A8.8,8.8,0,0,0,55,192v1.8a6.94,6.94,0,0,1-1.3.5C53.1,194.3,52.6,194.4,51.9,194.4ZM51.5,187a1.66,1.66,0,0,0-1.2.5,2,2,0,0,0-.5,1.4h3.3a2.17,2.17,0,0,0-.5-1.4A1.08,1.08,0,0,0,51.5,187Z" transform="translate(-27.1 -22.9)"/><path class="a" d="M64.3,194.4a2.85,2.85,0,0,1-2.4-1.2,6.5,6.5,0,0,1,0-6.6,2.85,2.85,0,0,1,2.4-1.2,2.9,2.9,0,0,1,1.4.3,2.59,2.59,0,0,1,1.1,1h0.1l0.2-1.1h2v12.6H66.7v-3.7a6.64,6.64,0,0,1,.1-1.3H66.7a4.74,4.74,0,0,1-1,1A2.1,2.1,0,0,1,64.3,194.4Zm0.9-1.9a1.73,1.73,0,0,0,1.3-.5,3.52,3.52,0,0,0,.5-1.8v-0.3a3.52,3.52,0,0,0-.4-2,1.68,1.68,0,0,0-1.4-.6c-1.1,0-1.7.9-1.7,2.6a3.74,3.74,0,0,0,.4,2A1.38,1.38,0,0,0,65.2,192.5Z" transform="translate(-27.1 -22.9)"/><path class="a" d="M77.9,194.2l-0.3-1.1H77.5a2.44,2.44,0,0,1-1.1.9,4.15,4.15,0,0,1-1.6.3,3.2,3.2,0,0,1-2.3-.8,3.29,3.29,0,0,1-.8-2.4v-5.7h2.4v5.1a2.65,2.65,0,0,0,.3,1.4,1.29,1.29,0,0,0,1.1.5,1.42,1.42,0,0,0,1.4-.7,4.32,4.32,0,0,0,.4-2.2v-4.1h2.4v8.7H77.9v0.1Z" transform="translate(-27.1 -22.9)"/><path class="a" d="M82.1,183.2a1.3,1.3,0,0,1,2.6,0,1.22,1.22,0,0,1-.3.9,1.33,1.33,0,0,1-1,.3A1.09,1.09,0,0,1,82.1,183.2Zm2.5,11H82.2v-8.7h2.4v8.7Z" transform="translate(-27.1 -22.9)"/><path class="a" d="M90.6,194.4c-2.7,0-4.1-1.5-4.1-4.5a5,5,0,0,1,1.1-3.4,4.08,4.08,0,0,1,3.2-1.2,6,6,0,0,1,2.7.6l-0.7,1.8a6.89,6.89,0,0,0-1-.4,3.08,3.08,0,0,0-1-.1c-1.2,0-1.9.9-1.9,2.6s0.6,2.6,1.9,2.6a5.07,5.07,0,0,0,1.3-.2,3.38,3.38,0,0,0,1.2-.6v2a6.12,6.12,0,0,1-1.2.5A3.34,3.34,0,0,1,90.6,194.4Z" transform="translate(-27.1 -22.9)"/><path class="a" d="M97.6,189.4l1-1.3,2.4-2.7h2.7l-3.5,3.8,3.7,4.9h-2.8l-2.5-3.5-1,.8v2.7H95.2V181.9h2.4v7.5h0Z" transform="translate(-27.1 -22.9)"/><path class="a" d="M114.2,185.3a2.85,2.85,0,0,1,2.4,1.2,5.39,5.39,0,0,1,.9,3.3,5.71,5.71,0,0,1-.9,3.4,2.91,2.91,0,0,1-2.5,1.2,3,3,0,0,1-2.4-1.1h-0.2l-0.4,1h-1.8V182.1h2.4v2.8a12.28,12.28,0,0,1-.1,1.7h0.1A2.76,2.76,0,0,1,114.2,185.3Zm-0.7,1.9a1.73,1.73,0,0,0-1.3.5,3,3,0,0,0-.4,1.8v0.3a3.52,3.52,0,0,0,.4,2,1.49,1.49,0,0,0,1.3.6,1.31,1.31,0,0,0,1.2-.7,3.74,3.74,0,0,0,.4-2,3.16,3.16,0,0,0-.4-1.9A1.43,1.43,0,0,0,113.5,187.2Z" transform="translate(-27.1 -22.9)"/><path class="a" d="M124.4,185.3a2,2,0,0,1,.8.1l-0.2,2.2a1.48,1.48,0,0,0-.7-0.1,2.44,2.44,0,0,0-1.8.6,2.11,2.11,0,0,0-.6,1.6v4.4h-2.4v-8.7h1.8l0.4,1.5h0.1a3.18,3.18,0,0,1,1.1-1.2A2.6,2.6,0,0,1,124.4,185.3Z" transform="translate(-27.1 -22.9)"/><path class="a" d="M134.5,189.8a4.86,4.86,0,0,1-1.1,3.3,4.49,4.49,0,0,1-5.3.6,4.63,4.63,0,0,1-1.5-1.6,4.71,4.71,0,0,1-.5-2.4,4.86,4.86,0,0,1,1.1-3.3,4,4,0,0,1,3.1-1.2,5.09,5.09,0,0,1,2.2.5,3.89,3.89,0,0,1,1.5,1.6A5.1,5.1,0,0,1,134.5,189.8Zm-6,0a3.74,3.74,0,0,0,.4,2,1.61,1.61,0,0,0,1.4.7,1.51,1.51,0,0,0,1.4-.7,3.52,3.52,0,0,0,.4-2,3.16,3.16,0,0,0-.4-1.9,1.56,1.56,0,0,0-1.4-.6,1.68,1.68,0,0,0-1.4.6A3.16,3.16,0,0,0,128.5,189.8Z" transform="translate(-27.1 -22.9)"/><path class="a" d="M143.5,194.2l-0.7-3.1-0.9-3.9h-0.1l-1.6,6.9h-2.6l-2.5-8.7h2.4l1,3.9c0.1,0.5.3,1.4,0.5,2.9h0.1a9.91,9.91,0,0,1,.3-1.9l0.1-.7,1.1-4.2h2.6l1,4.2a12.29,12.29,0,0,1,.2,1.3,12.29,12.29,0,0,0,.2,1.3h0.1c0.1-.5.1-1,0.2-1.6a8.57,8.57,0,0,1,.3-1.3l1-3.9h2.3l-2.5,8.7h-2.5v0.1h0Z" transform="translate(-27.1 -22.9)"/><path class="a" d="M158.1,194.2h-2.4v-5.1a2.65,2.65,0,0,0-.3-1.4,1.29,1.29,0,0,0-1.1-.5,1.42,1.42,0,0,0-1.4.7,4.32,4.32,0,0,0-.4,2.2v4.1h-2.4v-8.7h1.8l0.3,1.1h0.1a3.57,3.57,0,0,1,1.1-1,4.15,4.15,0,0,1,1.6-.3,3.2,3.2,0,0,1,2.3.8,3.29,3.29,0,0,1,.8,2.4v5.7h0Z" transform="translate(-27.1 -22.9)"/><path class="a" d="M169.5,187.3h-2.1v6.9H165v-6.9h-1.3v-1.1l1.3-.6V185a2.92,2.92,0,0,1,.7-2.2,3.29,3.29,0,0,1,2.4-.7,5.09,5.09,0,0,1,2.2.4l-0.6,1.8a3.18,3.18,0,0,0-1.3-.2,0.78,0.78,0,0,0-.7.3,1.08,1.08,0,0,0-.2.8v0.5h2.1l-0.1,1.6h0Z" transform="translate(-27.1 -22.9)"/><path class="a" d="M178.9,189.8a4.86,4.86,0,0,1-1.1,3.3,4.49,4.49,0,0,1-5.3.6,4.63,4.63,0,0,1-1.5-1.6,4.71,4.71,0,0,1-.5-2.4,4.86,4.86,0,0,1,1.1-3.3,4,4,0,0,1,3.1-1.2,5.09,5.09,0,0,1,2.2.5,3.89,3.89,0,0,1,1.5,1.6A5.1,5.1,0,0,1,178.9,189.8Zm-6.1,0a3.74,3.74,0,0,0,.4,2,1.61,1.61,0,0,0,1.4.7,1.51,1.51,0,0,0,1.4-.7,3.52,3.52,0,0,0,.4-2,3.16,3.16,0,0,0-.4-1.9,1.56,1.56,0,0,0-1.4-.6,1.68,1.68,0,0,0-1.4.6,3.16,3.16,0,0,0-.4,1.9h0Z" transform="translate(-27.1 -22.9)"/><path class="a" d="M182.5,189.7l-2.8-4.3h2.7l1.7,2.8,1.7-2.8h2.7l-2.8,4.3,3,4.5H186l-1.8-3-1.8,3h-2.7Z" transform="translate(-27.1 -22.9)"/><path class="a" d="M193.4,198a7.77,7.77,0,0,1-1.6-.2v-1.9a4.1,4.1,0,0,0,1.1.1,1.22,1.22,0,0,0,.9-0.3,1.49,1.49,0,0,0,.3-1v-9.3h2.4v9.7a2.86,2.86,0,0,1-.8,2.1A3,3,0,0,1,193.4,198Zm0.6-14.8a1.3,1.3,0,0,1,2.6,0,1.22,1.22,0,0,1-.3.9,1.33,1.33,0,0,1-1,.3A1.09,1.09,0,0,1,194,183.2Z" transform="translate(-27.1 -22.9)"/><path class="a" d="M205.1,194.2l-0.3-1.1h-0.1a2.44,2.44,0,0,1-1.1.9,4.15,4.15,0,0,1-1.6.3,3.2,3.2,0,0,1-2.3-.8,3.29,3.29,0,0,1-.8-2.4v-5.7h2.4v5.1a2.65,2.65,0,0,0,.3,1.4,1.29,1.29,0,0,0,1.1.5,1.42,1.42,0,0,0,1.4-.7,4.32,4.32,0,0,0,.4-2.2v-4.1h2.4v8.7h-1.8v0.1h0Z" transform="translate(-27.1 -22.9)"/><path class="a" d="M217.3,194.2h-2.4v-5.1a2.65,2.65,0,0,0-.3-1.4,1.1,1.1,0,0,0-1-.5,1.27,1.27,0,0,0-1.3.7,4.09,4.09,0,0,0-.4,2.2v4.1h-2.4v-8.7h1.8l0.3,1.1h0.1a2.19,2.19,0,0,1,1-.9,3.65,3.65,0,0,1,1.5-.3,2.79,2.79,0,0,1,2.7,1.3h0.2a2.19,2.19,0,0,1,1-.9,4,4,0,0,1,1.5-.3,3,3,0,0,1,2.2.8,3.29,3.29,0,0,1,.8,2.4v5.7h-2.4v-5.1a2.65,2.65,0,0,0-.3-1.4,1.1,1.1,0,0,0-1-.5,1.49,1.49,0,0,0-1.3.6,3.52,3.52,0,0,0-.4,2v4.2h0.1Z" transform="translate(-27.1 -22.9)"/><path class="a" d="M230,194.4a3,3,0,0,1-2.4-1.1h-0.1a9.29,9.29,0,0,1,.1,1.3v3.5h-2.4V185.5h1.9l0.3,1.1h0.1a2.76,2.76,0,0,1,2.5-1.3,2.85,2.85,0,0,1,2.4,1.2,5.39,5.39,0,0,1,.9,3.3,6.05,6.05,0,0,1-.4,2.4,4,4,0,0,1-1.2,1.6A2.35,2.35,0,0,1,230,194.4Zm-0.7-7.2a1.73,1.73,0,0,0-1.3.5,3,3,0,0,0-.4,1.8v0.3a3.52,3.52,0,0,0,.4,2,1.49,1.49,0,0,0,1.3.6c1.1,0,1.6-.9,1.6-2.6a3.16,3.16,0,0,0-.4-1.9A1.31,1.31,0,0,0,229.3,187.2Z" transform="translate(-27.1 -22.9)"/><path class="a" d="M241.4,191.6a2.26,2.26,0,0,1-.9,2,4.46,4.46,0,0,1-2.8.7,7.59,7.59,0,0,1-1.6-.1,6.47,6.47,0,0,1-1.3-.4v-2a5.27,5.27,0,0,0,1.5.5,8.87,8.87,0,0,0,1.5.2c0.9,0,1.3-.2,1.3-0.8a1.06,1.06,0,0,0-.2-0.5,5.92,5.92,0,0,0-.6-0.4,11.73,11.73,0,0,0-1.1-.5,5,5,0,0,1-1.5-.8,2.7,2.7,0,0,1-.7-0.8,3.59,3.59,0,0,1-.2-1.1,2,2,0,0,1,.9-1.8,4.76,4.76,0,0,1,2.6-.6,6.7,6.7,0,0,1,3.1.7l-0.7,1.7c-0.4-.2-0.8-0.3-1.2-0.5a5,5,0,0,0-1.2-.2c-0.7,0-1.1.2-1.1,0.6a0.86,0.86,0,0,0,.3.6,5.24,5.24,0,0,0,1.5.7,5,5,0,0,1,1.5.8,1.78,1.78,0,0,1,.7.8A5,5,0,0,1,241.4,191.6Z" transform="translate(-27.1 -22.9)"/><path class="a" d="M255.4,189.8a4.86,4.86,0,0,1-1.1,3.3,4.49,4.49,0,0,1-5.3.6,4.63,4.63,0,0,1-1.5-1.6,4.71,4.71,0,0,1-.5-2.4,4.86,4.86,0,0,1,1.1-3.3,4,4,0,0,1,3.1-1.2,5.09,5.09,0,0,1,2.2.5,3.89,3.89,0,0,1,1.5,1.6A5.1,5.1,0,0,1,255.4,189.8Zm-6.1,0a3.74,3.74,0,0,0,.4,2,1.61,1.61,0,0,0,1.4.7,1.51,1.51,0,0,0,1.4-.7,3.52,3.52,0,0,0,.4-2,3.16,3.16,0,0,0-.4-1.9,1.56,1.56,0,0,0-1.4-.6,1.68,1.68,0,0,0-1.4.6,3.16,3.16,0,0,0-.4,1.9h0Z" transform="translate(-27.1 -22.9)"/><path class="a" d="M259.2,194.2l-3.3-8.7h2.5l1.7,5a4.84,4.84,0,0,1,.3,1.8h0.1a3.92,3.92,0,0,1,.4-1.8l1.7-5h2.5l-3.3,8.7h-2.6Z" transform="translate(-27.1 -22.9)"/><path class="a" d="M270.2,194.4a4.15,4.15,0,0,1-4.5-4.5,5,5,0,0,1,1.1-3.4,3.77,3.77,0,0,1,3-1.2,3.64,3.64,0,0,1,3.9,4v1.2h-5.6a2.06,2.06,0,0,0,1.91,2.2h0.29a7.72,7.72,0,0,0,1.5-.2,8.8,8.8,0,0,0,1.5-.5v1.8a6.94,6.94,0,0,1-1.3.5C271.5,194.3,270.9,194.4,270.2,194.4Zm-0.3-7.4a1.66,1.66,0,0,0-1.2.5,2,2,0,0,0-.5,1.4h3.3a2.17,2.17,0,0,0-.5-1.4,1.17,1.17,0,0,0-1.1-.5h0Z" transform="translate(-27.1 -22.9)"/><path class="a" d="M280.6,185.3a2,2,0,0,1,.8.1l-0.2,2.2a1.48,1.48,0,0,0-.7-0.1,2.44,2.44,0,0,0-1.8.6,2.11,2.11,0,0,0-.6,1.6v4.4h-2.4v-8.7h1.8l0.4,1.5H278a3.18,3.18,0,0,1,1.1-1.2A2.82,2.82,0,0,1,280.6,185.3Z" transform="translate(-27.1 -22.9)"/><path class="a" d="M290.8,192.5a4.94,4.94,0,0,0,1.5-.3V194a4.81,4.81,0,0,1-2.2.4,2.67,2.67,0,0,1-2.1-.7,3.39,3.39,0,0,1-.7-2.2v-4.2h-1.1v-1l1.3-.8,0.7-1.8h1.5v1.9h2.4v1.8h-2.4v4.2a1.14,1.14,0,0,0,.3.8C290.3,192.4,290.5,192.5,290.8,192.5Z" transform="translate(-27.1 -22.9)"/><path class="a" d="M302.1,194.2h-2.4v-5.1c0-1.3-.5-1.9-1.4-1.9a1.42,1.42,0,0,0-1.4.7,4.32,4.32,0,0,0-.4,2.2v4.1h-2.4V182h2.4v2.5a10.33,10.33,0,0,1-.1,1.4l-0.1.7h0.1a2.66,2.66,0,0,1,2.5-1.3,3.2,3.2,0,0,1,2.3.8,3.29,3.29,0,0,1,.8,2.4l0.1,5.7h0Z" transform="translate(-27.1 -22.9)"/><path class="a" d="M308.6,194.4a4.15,4.15,0,0,1-4.5-4.5,5,5,0,0,1,1.1-3.4,3.77,3.77,0,0,1,3-1.2,3.64,3.64,0,0,1,3.9,4v1.2h-5.6a2.06,2.06,0,0,0,1.91,2.2h0.29a7.72,7.72,0,0,0,1.5-.2,8.8,8.8,0,0,0,1.5-.5v1.8a6.94,6.94,0,0,1-1.3.5C309.8,194.3,309.2,194.4,308.6,194.4Zm-0.4-7.4a1.66,1.66,0,0,0-1.2.5,2,2,0,0,0-.5,1.4h3.3a2.17,2.17,0,0,0-.5-1.4A1.17,1.17,0,0,0,308.2,187Z" transform="translate(-27.1 -22.9)"/><path class="a" d="M320.6,194.2h-2.4V182h2.4v12.2Z" transform="translate(-27.1 -22.9)"/><path class="a" d="M328.6,194.2l-0.5-1.2H328a3,3,0,0,1-2.9,1.4,2.44,2.44,0,0,1-2.7-2.7,2.39,2.39,0,0,1,1-2.1,4.79,4.79,0,0,1,2.9-.7h1.5v-0.4a1.19,1.19,0,0,0-1.4-1.3,6.88,6.88,0,0,0-2.5.6l-0.8-1.6a7.31,7.31,0,0,1,3.3-.8,4.14,4.14,0,0,1,2.7.8,2.87,2.87,0,0,1,.9,2.3v5.8l-1.4-.1h0Zm-0.7-4H327a2.08,2.08,0,0,0-1.5.4,1.23,1.23,0,0,0-.5,1,1,1,0,0,0,1,1l0.22,0a1.71,1.71,0,0,0,1.8-1.8l-0.1-.6h0Z" transform="translate(-27.1 -22.9)"/><path class="a" d="M338.8,194.2h-6.9v-1.4l4-5.5h-3.8v-1.8h6.5V187l-3.9,5.4h4.1v1.8h0Z" transform="translate(-27.1 -22.9)"/><path class="a" d="M339.3,185.5h2.6l1.6,4.9q0.15,0.6.3,1.5h0l0.3-1.5,1.6-4.9h2.6l-3.7,9.9a3.81,3.81,0,0,1-1.4,2,3.41,3.41,0,0,1-2.2.7,4.87,4.87,0,0,1-1.2-.1v-1.9a2.77,2.77,0,0,0,.9.1,1.5,1.5,0,0,0,1.1-.4,2,2,0,0,0,.7-1.2l0.1-.4Z" transform="translate(-27.1 -22.9)"/><path class="a" d="M30.9,216.4a2.85,2.85,0,0,1-2.4-1.2,6.5,6.5,0,0,1,0-6.6,2.91,2.91,0,0,1,2.5-1.2,2.76,2.76,0,0,1,2.5,1.3h0.1a12.77,12.77,0,0,1-.2-1.7v-2.8h2.4v12H34l-0.5-1.1H33.4A2.86,2.86,0,0,1,30.9,216.4Zm0.9-1.9a1.58,1.58,0,0,0,1.3-.5,3.87,3.87,0,0,0,.5-1.8v-0.3a3.52,3.52,0,0,0-.4-2,1.68,1.68,0,0,0-1.4-.6,1.31,1.31,0,0,0-1.2.7,3.74,3.74,0,0,0-.4,2,3.16,3.16,0,0,0,.4,1.9A1.31,1.31,0,0,0,31.8,214.5Z" transform="translate(-27.1 -22.9)"/><path class="a" d="M46.2,211.8a4.86,4.86,0,0,1-1.1,3.3,4.49,4.49,0,0,1-5.3.6,4.63,4.63,0,0,1-1.5-1.6,4.71,4.71,0,0,1-.5-2.4,4.86,4.86,0,0,1,1.1-3.3,4,4,0,0,1,3.1-1.2,5.09,5.09,0,0,1,2.2.5,3.89,3.89,0,0,1,1.5,1.6A5.1,5.1,0,0,1,46.2,211.8Zm-6,0a3.74,3.74,0,0,0,.4,2,1.61,1.61,0,0,0,1.4.7,1.51,1.51,0,0,0,1.4-.7,3.52,3.52,0,0,0,.4-2,3.16,3.16,0,0,0-.4-1.9,1.56,1.56,0,0,0-1.4-.6,1.68,1.68,0,0,0-1.4.6A3.16,3.16,0,0,0,40.2,211.8Z" transform="translate(-27.1 -22.9)"/><path class="a" d="M55.8,216.2a3.84,3.84,0,0,1-1.1,2.9,5,5,0,0,1-3.3,1,10.42,10.42,0,0,1-3.3-.5v-1.9a9.83,9.83,0,0,0,3.4.7c1.2,0,1.8-.7,1.8-2v-0.2l0.1-1.1H53.3a2.76,2.76,0,0,1-2.5,1.3,2.73,2.73,0,0,1-2.4-1.2,6.5,6.5,0,0,1,0-6.6,2.91,2.91,0,0,1,2.5-1.2,2.76,2.76,0,0,1,2.5,1.3h0.1l0.2-1.1h2v8.6h0.1Zm-4-1.7a1.68,1.68,0,0,0,1.4-.6,3,3,0,0,0,.4-1.8v-0.3a3.52,3.52,0,0,0-.4-2,1.68,1.68,0,0,0-1.4-.6c-1.1,0-1.7.9-1.7,2.6a3.74,3.74,0,0,0,.4,2A1.36,1.36,0,0,0,51.8,214.5Z" transform="translate(-27.1 -22.9)"/><path class="a" d="M58,215.1a1.16,1.16,0,0,1,.4-1,1.69,1.69,0,0,1,1-.3,1.49,1.49,0,0,1,1,.3,1.53,1.53,0,0,1,.4,1,1.28,1.28,0,0,1-.4,1,1.53,1.53,0,0,1-1,.4,1.49,1.49,0,0,1-1-.3A1.67,1.67,0,0,1,58,215.1Z" transform="translate(-27.1 -22.9)"/><path class="a" d="M33.5,238.2H31.1v-8.9l-0.8.8L29,231.2l-1.2-1.5,3.7-2.9h2v11.4h0Z" transform="translate(-27.1 -22.9)"/><path class="a" d="M44.7,238.2h-8v-1.7l2.9-2.9c0.8-.9,1.4-1.5,1.7-1.8a4.7,4.7,0,0,0,.6-0.9,2.92,2.92,0,0,0,.2-0.9,1,1,0,0,0-.4-1,1.69,1.69,0,0,0-1-.3,3.08,3.08,0,0,0-1.3.3,5.08,5.08,0,0,0-1.3.9l-1.3-1.6a7.57,7.57,0,0,1,1.4-1,6.12,6.12,0,0,1,1.2-.5,6.05,6.05,0,0,1,1.5-.2,4.06,4.06,0,0,1,1.9.4,2.85,2.85,0,0,1,1.3,1.1,3,3,0,0,1,.5,1.6,4,4,0,0,1-.3,1.5,5.51,5.51,0,0,1-.9,1.4,20.16,20.16,0,0,1-2.1,2.1l-1.5,1.4v0.1h5l-0.1,2h0Z" transform="translate(-27.1 -22.9)"/><path class="a" d="M53.4,229.3a2.79,2.79,0,0,1-.6,1.8,3.17,3.17,0,0,1-1.8,1h0a4,4,0,0,1,2.1.8,2.14,2.14,0,0,1,.7,1.8,3.09,3.09,0,0,1-1.2,2.6,5.51,5.51,0,0,1-3.4.9,8.81,8.81,0,0,1-3.3-.6v-2.1a5.27,5.27,0,0,0,1.5.5,10,10,0,0,0,1.6.2,3,3,0,0,0,1.8-.4,1.49,1.49,0,0,0,.6-1.3,1.08,1.08,0,0,0-.7-1.1,5.48,5.48,0,0,0-2.1-.3H47.7v-1.9h0.9a4.39,4.39,0,0,0,1.9-.3,1.21,1.21,0,0,0,.6-1.2c0-.9-0.5-1.3-1.6-1.3a3.6,3.6,0,0,0-1.1.2,4.88,4.88,0,0,0-1.3.6L46,227.5a5.8,5.8,0,0,1,3.7-1.1,4.65,4.65,0,0,1,2.8.7A3.85,3.85,0,0,1,53.4,229.3Z" transform="translate(-27.1 -22.9)"/><path class="a" d="M63.2,235.8H61.8v2.4H59.4v-2.4H54.5v-1.6l5-7.4h2.2V234h1.4v1.8h0.1ZM59.5,234v-3.3a2.53,2.53,0,0,1,.1-1.1H59.5a7.46,7.46,0,0,1-.7,1.2L56.7,234h2.8Z" transform="translate(-27.1 -22.9)"/><path class="a" d="M68.3,230.9a3.57,3.57,0,0,1,2.6.9,3.17,3.17,0,0,1,1,2.5,3.43,3.43,0,0,1-1.2,2.9,4.94,4.94,0,0,1-3.4,1,6.84,6.84,0,0,1-3.1-.6v-2.1a5.78,5.78,0,0,0,1.4.5,8.75,8.75,0,0,0,1.6.2c1.5,0,2.2-.6,2.2-1.8s-0.8-1.7-2.3-1.7a2.77,2.77,0,0,0-.9.1c-0.3.1-.6,0.1-0.8,0.2l-1-.5,0.4-5.8H71v2H66.9l-0.2,2.2,0.3-.1A5.28,5.28,0,0,0,68.3,230.9Z" transform="translate(-27.1 -22.9)"/><path class="a" d="M73.2,233.3a7.65,7.65,0,0,1,1.4-5,5.49,5.49,0,0,1,4.3-1.7,5.76,5.76,0,0,1,1.5.1v1.9a6.75,6.75,0,0,0-1.4-.2,4,4,0,0,0-2,.4,3.18,3.18,0,0,0-1.2,1.1,5.39,5.39,0,0,0-.5,2.1h0.1a2.56,2.56,0,0,1,2.5-1.3,3,3,0,0,1,2.4,1,3.83,3.83,0,0,1,.9,2.7,4,4,0,0,1-1,2.9,3.84,3.84,0,0,1-2.9,1.1,4,4,0,0,1-2.2-.6,5,5,0,0,1-1.5-1.7A11.08,11.08,0,0,1,73.2,233.3Zm4.1,3.1a1.66,1.66,0,0,0,1.2-.5,2.08,2.08,0,0,0,.4-1.5,1.7,1.7,0,0,0-.4-1.3,1.5,1.5,0,0,0-1.2-.5,2.11,2.11,0,0,0-1.3.5,1.61,1.61,0,0,0-.5,1.1,3,3,0,0,0,.5,1.6,1.76,1.76,0,0,0,1.3.6h0Z" transform="translate(-27.1 -22.9)"/><path class="a" d="M83.6,238.2l4.3-9.4H82.3v-2h8.2v1.5l-4.3,9.9H83.6Z" transform="translate(-27.1 -22.9)"/><path class="a" d="M95.5,226.6a4,4,0,0,1,2.6.7,2.33,2.33,0,0,1,1,2,3,3,0,0,1-2.1,2.8,4.66,4.66,0,0,1,1.8,1.4,2.45,2.45,0,0,1,.6,1.6,3,3,0,0,1-1.1,2.3,4.37,4.37,0,0,1-2.9.9,5,5,0,0,1-2.9-.8,2.71,2.71,0,0,1-1.1-2.3,3.1,3.1,0,0,1,.5-1.7,3.36,3.36,0,0,1,1.7-1.3,4.46,4.46,0,0,1-1.4-1.3,2.82,2.82,0,0,1-.4-1.5,2.33,2.33,0,0,1,1-2A4.55,4.55,0,0,1,95.5,226.6Zm-1.8,8.6a1.23,1.23,0,0,0,.5,1,2.23,2.23,0,0,0,1.3.4,1.7,1.7,0,0,0,1.3-.4,1.28,1.28,0,0,0,.4-1,1.43,1.43,0,0,0-.4-1,10.44,10.44,0,0,0-1.4-1,2.38,2.38,0,0,0-1.7,2h0Zm1.8-6.8a1.69,1.69,0,0,0-1,.3,0.91,0.91,0,0,0-.4.8,1.14,1.14,0,0,0,.3.8,6.29,6.29,0,0,0,1.1.8,3.48,3.48,0,0,0,1.1-.7,1.22,1.22,0,0,0,.3-0.9,1.09,1.09,0,0,0-.4-0.9,3,3,0,0,0-1-.2h0Z" transform="translate(-27.1 -22.9)"/><path class="a" d="M108.7,231.7a7.84,7.84,0,0,1-1.4,5,5.35,5.35,0,0,1-4.3,1.7,5.76,5.76,0,0,1-1.5-.1v-1.9a5.9,5.9,0,0,0,1.4.2,4,4,0,0,0,2-.4,2.54,2.54,0,0,0,1.2-1.1,5.39,5.39,0,0,0,.5-2.1h-0.1a3.14,3.14,0,0,1-1,1,3.34,3.34,0,0,1-1.5.3,3,3,0,0,1-2.4-1,3.67,3.67,0,0,1-.9-2.7,4,4,0,0,1,1-2.9,3.76,3.76,0,0,1,2.8-1.1,4,4,0,0,1,2.2.6,5,5,0,0,1,1.5,1.7A7.78,7.78,0,0,1,108.7,231.7Zm-4.2-3.1a1.66,1.66,0,0,0-1.2.5,2.08,2.08,0,0,0-.4,1.5,1.7,1.7,0,0,0,.4,1.3,1.5,1.5,0,0,0,1.2.5,2.11,2.11,0,0,0,1.3-.5,1.61,1.61,0,0,0,.5-1.1,3,3,0,0,0-.5-1.6,1.61,1.61,0,0,0-1.3-.6h0Z" transform="translate(-27.1 -22.9)"/><path class="a" d="M117.8,232.5a7.34,7.34,0,0,1-1,4.4,3.37,3.37,0,0,1-3,1.4,3.44,3.44,0,0,1-3-1.5,7.75,7.75,0,0,1-1-4.4,7.9,7.9,0,0,1,1-4.5,3.37,3.37,0,0,1,3-1.4,3.44,3.44,0,0,1,3,1.5A8.34,8.34,0,0,1,117.8,232.5Zm-5.6,0a7.39,7.39,0,0,0,.4,3,1.26,1.26,0,0,0,1.2.9,1.18,1.18,0,0,0,1.2-.9,9.74,9.74,0,0,0,.4-3,7.39,7.39,0,0,0-.4-3,1.35,1.35,0,0,0-1.2-.9,1.18,1.18,0,0,0-1.2.9A7.39,7.39,0,0,0,112.2,232.5Z" transform="translate(-27.1 -22.9)"/><path class="a" d="M119.3,237.1a1.16,1.16,0,0,1,.4-1,1.69,1.69,0,0,1,1-.3,1.49,1.49,0,0,1,1,.3,1.53,1.53,0,0,1,.4,1,1.28,1.28,0,0,1-.4,1,1.53,1.53,0,0,1-1,.4,1.49,1.49,0,0,1-1-.3A1.67,1.67,0,0,1,119.3,237.1Zm2.3-2.7h-1.9l-0.4-7.6H122Z" transform="translate(-27.1 -22.9)"/><path class="a" d="M136.5,232.5a4.92,4.92,0,0,1-.4,2.1,4,4,0,0,1-1,1.5,2,2,0,0,1-1.5.5,1.69,1.69,0,0,1-1-.3,1.34,1.34,0,0,1-.6-0.7h-0.1a2.76,2.76,0,0,1-.9.7,2.66,2.66,0,0,1-1.2.3,3.29,3.29,0,0,1-2.2-.8,2.82,2.82,0,0,1-.8-2.3,3.25,3.25,0,0,1,1-2.6,3.62,3.62,0,0,1,2.7-1,8.64,8.64,0,0,1,1.5.1c0.6,0.1,1,.2,1.4.3l-0.2,3.8c0,0.7.2,1.1,0.6,1.1a0.91,0.91,0,0,0,.8-0.7,5.53,5.53,0,0,0-.2-4.1,3.61,3.61,0,0,0-1.5-1.5,4.19,4.19,0,0,0-2.2-.5,4.73,4.73,0,0,0-2.7.7,5.46,5.46,0,0,0-1.8,1.9,6.39,6.39,0,0,0-.6,2.8,4.15,4.15,0,0,0,4.5,4.5,13.67,13.67,0,0,0,1.9-.2,10.55,10.55,0,0,0,1.9-.5v1.5a8.73,8.73,0,0,1-3.7.7,6.14,6.14,0,0,1-4.6-1.6,5.64,5.64,0,0,1-1.7-4.3,6.76,6.76,0,0,1,.9-3.5,7.18,7.18,0,0,1,2.4-2.5,6.87,6.87,0,0,1,3.6-.9,6.43,6.43,0,0,1,3.1.7,5.06,5.06,0,0,1,2.1,2A6.67,6.67,0,0,1,136.5,232.5Zm-8,.9c0,1.1.4,1.6,1.3,1.6a1.43,1.43,0,0,0,1.1-.5,3.1,3.1,0,0,0,.4-1.6l0.1-1.7a2.22,2.22,0,0,0-.9-0.1,1.75,1.75,0,0,0-1.5.6A3.1,3.1,0,0,0,128.5,233.4Z" transform="translate(-27.1 -22.9)"/><path class="a" d="M145.1,231.6l-0.4,1.8h2V235h-2.3l-0.6,3.2h-1.7l0.6-3.2h-1.5l-0.6,3.2h-1.7l0.6-3.2h-1.9v-1.6h2.2l0.4-1.8h-2V230h2.3l0.6-3.2h1.7l-0.6,3.2h1.5l0.6-3.2H146l-0.6,3.2h1.9v1.6h-2.2Zm-3.6,1.8H143l0.4-1.8h-1.5Z" transform="translate(-27.1 -22.9)"/><path class="a" d="M156.2,234.6a2.52,2.52,0,0,1-.9,2,4.38,4.38,0,0,1-2.5.9v1.6h-1.1v-1.6a6.71,6.71,0,0,1-3.3-.7v-2.1c0.5,0.2,1,.4,1.6.6a5.55,5.55,0,0,0,1.7.3v-2.4l-0.5-.2a5.53,5.53,0,0,1-2.2-1.3,2.79,2.79,0,0,1-.6-1.8,2.32,2.32,0,0,1,.9-1.9,4.38,4.38,0,0,1,2.5-.9v-1.2h1.1v1.2a10.05,10.05,0,0,1,3.2.7l-0.7,1.8a10.15,10.15,0,0,0-2.5-.6v2.3a16.42,16.42,0,0,1,2.2,1,2.55,2.55,0,0,1,.9.9A9.32,9.32,0,0,1,156.2,234.6Zm-5.5-4.6a1.42,1.42,0,0,0,.2.6c0.2,0.1.4,0.3,0.8,0.5v-1.9A0.91,0.91,0,0,0,150.7,230Zm3.1,4.7a0.86,0.86,0,0,0-.3-0.6,2.77,2.77,0,0,0-.8-0.5v1.9C153.5,235.5,153.8,235.2,153.8,234.7Z" transform="translate(-27.1 -22.9)"/><path class="a" d="M162.7,230.2a4.15,4.15,0,0,1-.7,2.7,2.67,2.67,0,0,1-3.77.23L158,232.9a4.15,4.15,0,0,1-.7-2.7q0-3.6,2.7-3.6a2.26,2.26,0,0,1,2,.9A4.33,4.33,0,0,1,162.7,230.2Zm-3.4,0a4.87,4.87,0,0,0,.2,1.5,0.63,0.63,0,0,0,.6.5c0.5,0,.8-0.7.8-2s-0.2-2-.8-2a0.74,0.74,0,0,0-.6.5A3,3,0,0,0,159.3,230.2Zm8.8-3.4-6.3,11.4h-1.9l6.3-11.4h1.9Zm2.6,7.9a4.15,4.15,0,0,1-.7,2.7,2.67,2.67,0,0,1-3.77.23L166,237.4a4.15,4.15,0,0,1-.7-2.7q0-3.6,2.7-3.6a2.26,2.26,0,0,1,2,.9,4.53,4.53,0,0,1,.7,2.7h0Zm-3.4.1a4.87,4.87,0,0,0,.2,1.5,0.63,0.63,0,0,0,.6.5c0.5,0,.8-0.7.8-2s-0.2-2-.8-2a0.74,0.74,0,0,0-.6.5,3,3,0,0,0-.2,1.5h0Z" transform="translate(-27.1 -22.9)"/><path class="a" d="M171.6,234.1l3.4-7.4h1.1l3.9,7.4h-1.9l-2.5-5-2.2,5h-1.8Z" transform="translate(-27.1 -22.9)"/><path class="a" d="M192.4,238.2h-2.9l-0.9-.9a5.68,5.68,0,0,1-3.4,1,4.48,4.48,0,0,1-3-.9,3,3,0,0,1-1.1-2.4,3.45,3.45,0,0,1,.5-1.8,4.48,4.48,0,0,1,1.6-1.4,5.08,5.08,0,0,1-.9-1.3,3.08,3.08,0,0,1-.3-1.3,2.32,2.32,0,0,1,.9-1.9,3.61,3.61,0,0,1,2.4-.7,3.33,3.33,0,0,1,2.3.7,2.27,2.27,0,0,1,.9,1.8,3.37,3.37,0,0,1-.5,1.7,5.16,5.16,0,0,1-1.7,1.5l2.2,2.2a9.12,9.12,0,0,0,1-2.4H192a9,9,0,0,1-.8,2.1,14.19,14.19,0,0,1-1.1,1.8Zm-8.9-3.3a1.61,1.61,0,0,0,.5,1.1,1.84,1.84,0,0,0,1.3.4,3.74,3.74,0,0,0,1.8-.5l-2.6-2.6a4.62,4.62,0,0,0-.7.7A1.61,1.61,0,0,0,183.5,234.9Zm2.8-5.6a0.91,0.91,0,0,0-.3-0.7,0.84,0.84,0,0,0-.7-0.2,1.88,1.88,0,0,0-.8.2,0.91,0.91,0,0,0-.3.7,2.08,2.08,0,0,0,.7,1.5,4.31,4.31,0,0,0,1-.7,0.73,0.73,0,0,0,.4-0.8h0Z" transform="translate(-27.1 -22.9)"/><path class="a" d="M197.7,226l-0.3,2.9,2.9-.8,0.3,2-2.7.2,1.7,2.3-1.8.9-1.2-2.4-1.1,2.4-1.8-.9,1.7-2.3-2.6-.2,0.3-2,2.9,0.8-0.3-2.9h2Z" transform="translate(-27.1 -22.9)"/><path class="a" d="M201.7,233.8a12.26,12.26,0,0,1,.6-3.9,10.86,10.86,0,0,1,1.7-3.2h2a12.89,12.89,0,0,0-1.7,3.3,11.71,11.71,0,0,0,0,7.4,10.67,10.67,0,0,0,1.6,3.2H204a10.52,10.52,0,0,1-1.8-3.1A13.8,13.8,0,0,1,201.7,233.8Z" transform="translate(-27.1 -22.9)"/><path class="a" d="M211.3,233.8a11.64,11.64,0,0,1-.6,3.8,10.3,10.3,0,0,1-1.7,3.1h-1.9a12,12,0,0,0,1.6-3.2,11.71,11.71,0,0,0,0-7.4,10.36,10.36,0,0,0-1.7-3.3h2a11.07,11.07,0,0,1,1.8,3.2A15.18,15.18,0,0,1,211.3,233.8Z" transform="translate(-27.1 -22.9)"/><path class="a" d="M218.5,240.7h-6.6v-1.1h6.6v1.1Z" transform="translate(-27.1 -22.9)"/><path class="b" d="M28.5,143.2V130.3h4.1a10.32,10.32,0,0,1,2,.2,4.58,4.58,0,0,1,1.4.7,2.26,2.26,0,0,1,.8,1.1,3.19,3.19,0,0,1,.3,1.4c0,0.3-.1.6-0.1,0.9a1.37,1.37,0,0,1-.5.8c-0.3.2-.5,0.5-0.8,0.7a3.7,3.7,0,0,1-1.1.5,3.76,3.76,0,0,1,2.1,1,2.49,2.49,0,0,1,.7,1.9,4,4,0,0,1-.3,1.5,3.45,3.45,0,0,1-.9,1.2,6.38,6.38,0,0,1-1.4.8,5.82,5.82,0,0,1-1.9.3l-4.4-.1h0Zm1.7-7.1h2.3a5.07,5.07,0,0,0,1.3-.2,1.93,1.93,0,0,0,.9-0.5,1.79,1.79,0,0,0,.5-0.7,2.92,2.92,0,0,0,.2-0.9,1.94,1.94,0,0,0-.7-1.7,3.28,3.28,0,0,0-2.1-.5H30.2v4.5h0Zm0,1.2v4.5H33a5.07,5.07,0,0,0,1.3-.2,1.93,1.93,0,0,0,.9-0.5,3,3,0,0,0,.5-0.7,2.92,2.92,0,0,0,.2-0.9,1.86,1.86,0,0,0-.7-1.6,3.28,3.28,0,0,0-2.1-.6H30.2Z" transform="translate(-27.1 -22.9)"/><path class="b" d="M43.6,133.9a4.84,4.84,0,0,1,1.8.3,4.19,4.19,0,0,1,1.4.9,3.77,3.77,0,0,1,.9,1.5,5.82,5.82,0,0,1,.3,1.9,5.41,5.41,0,0,1-.3,1.9,3.77,3.77,0,0,1-.9,1.5,3.39,3.39,0,0,1-1.4.9,5.55,5.55,0,0,1-3.6,0,4.19,4.19,0,0,1-1.4-.9,3.77,3.77,0,0,1-.9-1.5,5.82,5.82,0,0,1-.3-1.9,5.41,5.41,0,0,1,.3-1.9,3.77,3.77,0,0,1,.9-1.5,3.39,3.39,0,0,1,1.4-.9A4.84,4.84,0,0,1,43.6,133.9Zm0,8.2a2.26,2.26,0,0,0,2-.9,4.37,4.37,0,0,0,.7-2.5,3.73,3.73,0,0,0-.7-2.5,2.26,2.26,0,0,0-2-.9,3.73,3.73,0,0,0-1.2.2,2.7,2.7,0,0,0-.8.7,3.7,3.7,0,0,0-.5,1.1,6.05,6.05,0,0,0-.2,1.5,5.21,5.21,0,0,0,.2,1.4,3.7,3.7,0,0,0,.5,1.1,2.7,2.7,0,0,0,.8.7c0.3,0,.7.1,1.2,0.1h0Z" transform="translate(-27.1 -22.9)"/><path class="b" d="M51.7,129.9v13.3H50.1V129.9h1.6Z" transform="translate(-27.1 -22.9)"/><path class="b" d="M60.9,143.2a0.35,0.35,0,0,1-.4-0.29h0l-0.1-1.1a3.34,3.34,0,0,1-1.3,1.1,3.29,3.29,0,0,1-1.7.4A3.19,3.19,0,0,1,56,143a3.13,3.13,0,0,1-1.1-.9,5.23,5.23,0,0,1-.7-1.5,6.48,6.48,0,0,1-.2-2,5.82,5.82,0,0,1,.3-1.9,3.61,3.61,0,0,1,.8-1.5,5.3,5.3,0,0,1,1.2-1,4.26,4.26,0,0,1,1.7-.4,2.9,2.9,0,0,1,1.4.3,4.44,4.44,0,0,1,1.1.8v-5.1h1.6v13.4H60.9ZM57.8,142a2.3,2.3,0,0,0,1.4-.4,3.46,3.46,0,0,0,1.1-1v-4.4a1.89,1.89,0,0,0-1-.8,2.34,2.34,0,0,0-1.2-.2,2.38,2.38,0,0,0-2,.9,4,4,0,0,0-.7,2.6,6.05,6.05,0,0,0,.2,1.5,2.34,2.34,0,0,0,.5,1,1.34,1.34,0,0,0,.7.6A1.64,1.64,0,0,0,57.8,142Z" transform="translate(-27.1 -22.9)"/></svg>
