<?xml version="1.0" encoding="utf-8"?>
<!-- Generator: Adobe Illustrator 19.2.1, SVG Export Plug-In . SVG Version: 6.00 Build 0)  -->
<svg version="1.1" id="Layer_1" xmlns="http://www.w3.org/2000/svg" xmlns:xlink="http://www.w3.org/1999/xlink" x="0px" y="0px"
	 viewBox="0 0 400 320" style="enable-background:new 0 0 400 320;" xml:space="preserve">
<style type="text/css">
	.st0{fill:#48525B;}
	.st1{fill:#FF6E6E;}
	.st2{display:none;}
	.st3{display:inline;}
	.st4{fill:#979797;}
</style>
<g>
	<path class="st0" d="M355.2,216.8c0-0.3,0.1-0.6,0.3-0.8s0.5-0.3,0.8-0.3s0.6,0.1,0.8,0.3s0.3,0.5,0.3,0.8s-0.1,0.6-0.3,0.8
		s-0.5,0.3-0.8,0.3s-0.6-0.1-0.8-0.3C355.3,217.4,355.2,217.1,355.2,216.8z"/>
	<path class="st0" d="M35.8,54.3h-3.3v1.5H35v5.4h-2.5v1.4h2.8v0.8h-2.8V66h-0.8v-2.6h-3.6v-0.8h3.6v-1.4h-2.5v-5.4h2.5v-1.5h-3.2
		v-0.8h3.2V52h0.8v1.5h3.3V54.3z M34.2,58.2v-1.5H30v1.5H34.2z M34.2,60.4v-1.5H30v1.5H34.2z M41.3,64.9c0,0.4-0.1,0.7-0.4,0.9
		c-0.3,0.2-0.7,0.3-1.4,0.3c-0.3,0-0.7,0-1,0l-0.3-0.8c0.9,0,1.5,0,1.9,0c0.1,0,0.2,0,0.3-0.1s0.1-0.2,0.1-0.3v-3.7h-3.2
		c-0.3,2.2-0.9,3.9-2,5l-0.7-0.5c0.6-0.7,1.1-1.6,1.5-2.8c0.3-1.2,0.5-2.3,0.5-3.6v-6.8h4.7L41.3,64.9L41.3,64.9z M40.4,56.2v-3h-3
		v3H40.4z M40.4,60.2V57h-3v3.2H40.4z"/>
	<path class="st0" d="M51.2,52.7c-1.8,0.5-4.1,0.8-6.7,0.7l-0.2-0.8c0.4,0,0.8,0,1.2,0c2,0,3.7-0.2,5.2-0.7L51.2,52.7z M51.3,64.9
		c0,0.4-0.1,0.7-0.3,0.8S50.5,66,50.1,66h-0.6l-0.3-0.8c0.2,0,0.4,0,0.9,0c0.1,0,0.2,0,0.3-0.1s0.1-0.2,0.1-0.3v-6.1h-2.4
		c-0.4,0.7-0.7,1.1-1,1.5c0.5,0,1.1-0.1,1.7-0.2c0-0.1-0.1-0.2-0.2-0.4l0.6-0.3c0.4,0.5,0.7,1,0.9,1.6l-0.6,0.4
		c0-0.2-0.1-0.4-0.2-0.5c-1.1,0.2-2.1,0.3-3,0.4l-0.2-0.6c0.5-0.5,0.9-1,1.2-1.6h-1.9v7.2h-0.8v-7.9h2.8c-0.3-0.2-0.8-0.6-1.6-1
		l0.6-0.4c0.3,0.1,0.7,0.4,1.2,0.7c0.7-0.3,1.4-0.6,2.1-1h-5.3v-0.7h6.7v0.7c-0.9,0.5-1.8,1-2.9,1.5c0.1,0.1,0.2,0.2,0.3,0.3h2.9
		L51.3,64.9L51.3,64.9z M46.5,54.9l-0.7,0.3c-0.3-0.5-0.6-0.9-0.9-1.1l0.6-0.3C45.8,54,46.1,54.4,46.5,54.9z M49.8,64.4l-0.5,0.5
		c-0.3-0.3-0.7-0.6-1.1-0.8c-0.6,0.5-1.2,0.9-1.8,1.2L46,64.7c0.5-0.2,1.1-0.5,1.6-1c-0.4-0.3-0.8-0.6-1.3-0.9l0.4-0.5h-0.5v-0.7
		h3.5v0.7c-0.2,0.4-0.5,0.9-0.8,1.3C49.2,63.8,49.5,64.1,49.8,64.4z M48.8,62.3h-2c0.6,0.4,1.1,0.7,1.3,0.9
		C48.5,62.9,48.7,62.6,48.8,62.3z M48.7,54.9L48,55.2c-0.2-0.4-0.4-0.8-0.7-1.3l0.7-0.2C48.3,54,48.5,54.4,48.7,54.9z M51.3,53.8
		c-0.3,0.5-0.6,1-1,1.4l-0.7-0.3c0.5-0.6,0.8-1.1,1-1.4L51.3,53.8z M57.9,59.2h-2.6v2.3h2.2v0.8h-2.2V66h-0.8v-3.7h-2.3v-0.8h2.3
		v-2.3H52v-0.8h1.6c-0.2-0.9-0.5-1.9-1-3l0.6-0.4h-1.3v-0.8h2.6c-0.2-0.6-0.4-1.3-0.8-2l0.7-0.3c0.4,0.7,0.6,1.5,0.8,2.3h2.5V55
		h-1.1l0.6,0.4c-0.2,1-0.5,2-0.9,3h1.6L57.9,59.2L57.9,59.2z M56.4,55h-3.1c0.5,1.1,0.8,2.2,1.1,3.4h1.1
		C55.9,57.3,56.2,56.1,56.4,55z"/>
	<path class="st0" d="M72.6,66h-0.9v-1.4h-9.6V66h-0.9V54.6h2.9c0.5-0.7,1-1.6,1.5-2.7l0.9,0.3c-0.2,0.5-0.7,1.3-1.3,2.4h7.5V66
		H72.6z M71.8,59.1v-3.8h-9.6v3.8H71.8z M71.8,63.7v-3.8h-9.6v3.8H71.8z"/>
	<path class="st0" d="M89.5,54.3h-3.3l0.7,0.4c-0.4,0.7-0.8,1.4-1.2,2h3.8v2.9h-0.8v-2.1H77.6v2h-0.8v-2.8h3.9
		c-0.4-0.7-0.8-1.4-1.3-2l0.6-0.4h-3.2v-0.8h6c-0.1-0.3-0.4-0.8-0.7-1.2l0.8-0.3c0.3,0.5,0.6,1,0.8,1.6h5.9v0.7H89.5z M88,63.8
		c0,0.2-0.1,0.5-0.2,0.7c-0.2,0.2-0.4,0.4-0.7,0.4s-0.7,0.1-1,0.1c-0.2,0-0.4,0-0.5,0l-0.3-0.8c0.3,0,0.6,0,0.8,0c0.6,0,0.9,0,1-0.1
		s0.2-0.2,0.2-0.3v-3h-3.8v5.3h-0.8v-5.3h-3.8v4.3h-0.8V60h4.5v-1.7h0.8V60H88V63.8z M86,54.3h-6c0.6,0.9,1.1,1.7,1.4,2.4h3.2
		C85.2,56,85.6,55.2,86,54.3z"/>
	<path class="st0" d="M99.9,63.2l-0.5,0.7c-0.7-0.8-1.7-1.5-2.7-2.2V66h-0.8v-4.8c-0.9,1.2-2,2.3-3.6,3.5L91.8,64
		c1.8-1.4,3.1-2.6,3.8-3.8h-3.2v-0.8h3.5v-1.6h0.8v1.6h3v0.8h-3v0.7C98.1,61.7,99.1,62.5,99.9,63.2z M99.7,52.7
		c-2.2,0.7-4.6,1.1-7.1,1.3l-0.4-0.8c2.5-0.2,4.9-0.6,6.9-1.2L99.7,52.7z M94.5,57.6L93.7,58c-0.2-0.8-0.7-1.7-1.3-2.9l0.7-0.4
		C93.6,55.6,94.1,56.5,94.5,57.6z M96.8,57L96,57.3c-0.2-0.9-0.5-1.8-1-2.8l0.8-0.3C96.2,55.1,96.6,56,96.8,57z M99.8,54.2
		c-0.3,1.2-0.7,2.3-1.3,3.5l-0.8-0.4c0.5-1.1,0.9-2.2,1.2-3.3L99.8,54.2z M105.9,61c-1.2,1.8-3.2,3.5-6.1,5.1l-0.5-0.7
		c2.9-1.6,4.9-3.2,6.1-5L105.9,61z M105.6,56.7c-1,1.3-2.6,2.6-4.9,3.8l-0.5-0.7c2.1-1.1,3.7-2.3,4.8-3.7L105.6,56.7z M105.4,52.6
		c-1,1.2-2.5,2.4-4.4,3.6l-0.6-0.7c1.9-1,3.4-2.1,4.4-3.4L105.4,52.6z"/>
	<path class="st0" d="M121.9,62.3h-4.5c1.6,1.1,2.9,2.1,3.8,3.1l-0.6,0.6c-0.4-0.4-0.8-0.8-1.2-1.2c-3.9,0.5-7.1,0.9-9.7,1l-0.1-0.7
		c1.1-0.6,2.1-1.6,3.2-2.9H108v-0.8h13.9V62.3z M121.6,57.9h-0.8v-2.7h-5.5v3.6h-0.8v-3.6h-5.4v2.6h-0.8v-3.4h6.2v-1.3h-5.6v-0.7
		h12.2v0.7h-5.7v1.3h6.3L121.6,57.9L121.6,57.9z M120.6,60.3h-11.3v-0.8h11.3V60.3z M113.9,58.2c-1.2,0.3-2.5,0.6-3.9,0.8l-0.3-0.7
		c1.6-0.2,2.9-0.4,3.9-0.7L113.9,58.2z M113.8,56.5l-0.3,0.6c-1.2-0.3-2.4-0.6-3.6-0.7l0.3-0.7C111.6,55.9,112.8,56.2,113.8,56.5z
		 M118.5,64.2c-0.6-0.5-1.3-1-1.8-1.3l0.4-0.6h-3.3c-1.1,1.3-2,2.2-2.8,2.8C113.9,64.8,116.4,64.5,118.5,64.2z M120.1,56.3
		c-1.1,0.3-2.3,0.6-3.8,0.7l-0.3-0.7c1.6-0.2,2.8-0.4,3.7-0.7L120.1,56.3z M120.2,58.3l-0.4,0.7c-1.1-0.3-2.4-0.6-3.8-0.9l0.4-0.6
		C117.9,57.7,119.2,58,120.2,58.3z"/>
	<path class="st0" d="M130.3,57.6h-4.8V66h-0.9V52.4h5.6v5.2H130.3z M129.4,54.5v-1.3h-3.9v1.3H129.4z M129.4,56.8v-1.5h-3.9v1.5
		H129.4z M134.1,64.5h-6.3v-5.7h6.3V64.5z M133.3,61.2v-1.6h-4.6v1.6H133.3z M133.3,63.7V62h-4.6v1.7H133.3z M137.3,64.7
		c0,0.4-0.1,0.7-0.4,0.9s-0.7,0.3-1.3,0.3h-0.9l-0.3-0.8c0.2,0,0.7,0,1.4,0c0.2,0,0.3-0.1,0.4-0.2s0.2-0.2,0.2-0.4v-7.1h-4.7v-5.2
		h5.5L137.3,64.7L137.3,64.7z M136.4,54.5v-1.3h-3.9v1.3H136.4z M136.4,56.8v-1.5h-3.9v1.5H136.4z"/>
	<path class="st0" d="M35.6,75.3h-3.5v10.9h-1.3V75.3h-3.5v-1.2h8.3V75.3z"/>
	<path class="st0" d="M44.4,86.2h-1.3v-5c0-1.8-0.7-2.8-2.1-2.8c-0.7,0-1.3,0.3-1.7,0.8s-0.7,1.2-0.7,2v4.9h-1.3V73.3h1.3v5.6l0,0
		c0.7-1.1,1.6-1.6,2.8-1.6c1.9,0,2.9,1.2,2.9,3.5L44.4,86.2L44.4,86.2z"/>
	<path class="st0" d="M53.9,82.2h-6.1c0,1,0.3,1.8,0.8,2.3s1.2,0.8,2.1,0.8c1,0,1.9-0.3,2.7-1v1.2c-0.8,0.6-1.8,0.8-3,0.8
		s-2.2-0.4-2.8-1.2s-1-1.9-1-3.3c0-1.3,0.4-2.4,1.1-3.3c0.8-0.9,1.7-1.3,2.8-1.3s2,0.4,2.6,1.1c0.6,0.7,0.9,1.7,0.9,3L53.9,82.2
		L53.9,82.2z M52.6,81.1c0-0.8-0.2-1.4-0.6-1.9c-0.4-0.5-0.9-0.7-1.6-0.7c-0.6,0-1.2,0.2-1.7,0.7s-0.8,1.1-0.9,1.9H52.6z"/>
	<path class="st0" d="M67.4,90.2h-1.3v-5.5l0,0c-0.6,1.1-1.6,1.7-3,1.7c-1.1,0-2-0.4-2.6-1.2c-0.7-0.8-1-1.8-1-3.2s0.4-2.6,1.1-3.4
		s1.7-1.3,2.9-1.3c1.2,0,2,0.5,2.6,1.4l0,0v-1.2h1.3V90.2z M66.1,81c0-0.7-0.2-1.3-0.7-1.8s-1.1-0.8-1.8-0.8c-0.8,0-1.5,0.3-2,0.9
		c-0.5,0.6-0.7,1.5-0.7,2.6c0,1,0.2,1.8,0.7,2.4c0.5,0.6,1.1,0.9,1.8,0.9c0.8,0,1.5-0.3,2-0.9c0.5-0.6,0.7-1.3,0.7-2.1V81z"/>
	<path class="st0" d="M77.1,86.2h-1.3v-1.4l0,0c-0.6,1-1.5,1.6-2.7,1.6c-2.1,0-3.1-1.2-3.1-3.7v-5.2h1.3v4.9c0,1.9,0.7,2.8,2.1,2.8
		c0.7,0,1.3-0.3,1.7-0.8s0.7-1.2,0.7-2v-5h1.3V86.2z"/>
	<path class="st0" d="M79.8,74.4c0-0.2,0.1-0.5,0.2-0.6s0.4-0.3,0.6-0.3c0.2,0,0.5,0.1,0.6,0.3c0.2,0.2,0.3,0.4,0.3,0.6
		c0,0.2-0.1,0.4-0.3,0.6c-0.2,0.2-0.4,0.3-0.6,0.3c-0.2,0-0.4-0.1-0.6-0.2C79.8,74.9,79.8,74.7,79.8,74.4z M79.9,86.2v-8.6h1.3v8.6
		H79.9z"/>
	<path class="st0" d="M89.9,85.8c-0.7,0.4-1.5,0.6-2.3,0.6c-1.2,0-2.2-0.4-3-1.2s-1.1-1.8-1.1-3.1c0-1.4,0.4-2.6,1.2-3.4
		s1.9-1.3,3.2-1.3c0.7,0,1.4,0.1,2,0.4v1.4c-0.6-0.5-1.3-0.7-2.1-0.7c-0.9,0-1.6,0.3-2.2,1C85,80.1,84.7,81,84.7,82s0.3,1.8,0.8,2.4
		c0.5,0.6,1.3,0.9,2.2,0.9c0.8,0,1.5-0.3,2.1-0.8L89.9,85.8L89.9,85.8z"/>
	<path class="st0" d="M99.1,86.2h-1.9l-3.9-4.1l0,0v4.1H92V73.4h1.3v8.1l0,0l3.7-4h1.7l-4.1,4.2L99.1,86.2z"/>
	<path class="st0" d="M105.9,84.9v1.3h-1.3V73.4h1.3v5.7l0,0c0.7-1.2,1.7-1.7,3-1.7c1.1,0,2,0.4,2.6,1.2s1,1.8,1,3.1
		c0,1.4-0.4,2.6-1.1,3.5s-1.7,1.3-2.9,1.3C107.4,86.4,106.5,85.9,105.9,84.9L105.9,84.9z M105.9,82.7c0,0.7,0.2,1.4,0.7,1.9
		s1.1,0.8,1.8,0.8c0.8,0,1.5-0.3,2-1s0.7-1.6,0.7-2.7c0-1-0.2-1.7-0.7-2.3s-1.1-0.8-1.8-0.8c-0.8,0-1.5,0.3-2,0.8
		c-0.5,0.6-0.8,1.3-0.8,2.1L105.9,82.7L105.9,82.7z"/>
	<path class="st0" d="M119.1,78.9c-0.2-0.2-0.6-0.3-1-0.3c-0.6,0-1.1,0.3-1.5,0.9c-0.4,0.6-0.6,1.3-0.6,2.3v4.4h-1.3v-8.6h1.3v1.8
		l0,0c0.2-0.6,0.5-1.1,0.9-1.4s0.9-0.5,1.3-0.5c0.4,0,0.7,0,0.8,0.1L119.1,78.9L119.1,78.9z"/>
	<path class="st0" d="M119.8,82c0-1.4,0.4-2.6,1.2-3.4c0.8-0.8,1.9-1.2,3.2-1.2s2.3,0.4,3,1.2s1.1,1.9,1.1,3.3
		c0,1.4-0.4,2.5-1.2,3.3s-1.8,1.2-3.1,1.2c-1.2,0-2.3-0.4-3-1.2C120.2,84.4,119.8,83.3,119.8,82z M121.1,81.9c0,1,0.3,1.8,0.8,2.4
		c0.5,0.6,1.2,0.9,2.1,0.9c0.9,0,1.6-0.3,2.1-0.9c0.5-0.6,0.7-1.4,0.7-2.5s-0.2-1.9-0.7-2.5s-1.2-0.9-2.1-0.9
		c-0.9,0-1.6,0.3-2.1,0.9S121.1,80.9,121.1,81.9z"/>
	<path class="st0" d="M141.3,77.6l-2.6,8.6h-1.4l-1.8-6.3c-0.1-0.2-0.1-0.5-0.1-0.8l0,0c0,0.1-0.1,0.4-0.2,0.8l-2,6.3h-1.3l-2.6-8.6
		h1.4l1.8,6.6c0.1,0.2,0.1,0.5,0.1,0.8h0.1c0-0.2,0.1-0.5,0.2-0.8l2-6.5h1.2l1.8,6.6c0,0.2,0.1,0.4,0.1,0.8h0.1
		c0-0.2,0.1-0.5,0.1-0.8l1.8-6.6L141.3,77.6L141.3,77.6z"/>
	<path class="st0" d="M150,86.2h-1.3v-4.9c0-1.9-0.7-2.8-2-2.8c-0.7,0-1.3,0.3-1.8,0.8s-0.7,1.2-0.7,2v4.9h-1.3v-8.6h1.3V79l0,0
		c0.6-1.1,1.6-1.6,2.8-1.6c0.9,0,1.7,0.3,2.2,0.9s0.8,1.5,0.8,2.6V86.2z"/>
	<path class="st0" d="M160.8,74.6c-0.3-0.2-0.6-0.2-0.9-0.2c-1,0-1.5,0.6-1.5,1.9v1.4h2v1.1h-2v7.5h-1.3v-7.5h-1.5v-1.1h1.5v-1.4
		c0-0.9,0.3-1.6,0.8-2.1s1.2-0.8,1.9-0.8c0.4,0,0.8,0,1,0.1V74.6z"/>
	<path class="st0" d="M161.4,82c0-1.4,0.4-2.6,1.2-3.4c0.8-0.8,1.9-1.2,3.2-1.2s2.3,0.4,3,1.2s1.1,1.9,1.1,3.3
		c0,1.4-0.4,2.5-1.2,3.3s-1.8,1.2-3.1,1.2c-1.2,0-2.3-0.4-3-1.2C161.8,84.4,161.4,83.3,161.4,82z M162.7,81.9c0,1,0.3,1.8,0.8,2.4
		c0.5,0.6,1.2,0.9,2.1,0.9c0.9,0,1.6-0.3,2.1-0.9c0.5-0.6,0.7-1.4,0.7-2.5s-0.2-1.9-0.7-2.5s-1.2-0.9-2.1-0.9
		c-0.9,0-1.6,0.3-2.1,0.9S162.7,80.9,162.7,81.9z"/>
	<path class="st0" d="M178,77.6l-2.9,4.4l2.9,4.2h-1.5l-1.7-2.8c-0.1-0.2-0.2-0.4-0.4-0.6l0,0c0,0-0.1,0.2-0.4,0.6l-1.8,2.8h-1.5
		l3-4.2l-2.8-4.4h1.5l2.1,3.6l0,0c0.1-0.1,0.1-0.2,0.2-0.3l2-3.4h1.3V77.6z"/>
	<path class="st0" d="M185,85.8c0,1.4-0.3,2.5-0.9,3.3s-1.4,1.2-2.4,1.2c-0.4,0-0.8-0.1-1.1-0.3v-1.2c0.4,0.2,0.8,0.4,1.2,0.4
		c1.3,0,1.9-1,1.9-3.1v-8.5h1.3V85.8z M183.5,74.4c0-0.2,0.1-0.5,0.2-0.6c0.2-0.2,0.4-0.3,0.6-0.3c0.2,0,0.5,0.1,0.6,0.3
		c0.2,0.2,0.3,0.4,0.3,0.6c0,0.2-0.1,0.4-0.3,0.6c-0.2,0.2-0.4,0.3-0.6,0.3c-0.2,0-0.5-0.1-0.6-0.2
		C183.6,74.9,183.5,74.7,183.5,74.4z"/>
	<path class="st0" d="M194.7,86.2h-1.3v-1.4l0,0c-0.6,1-1.5,1.6-2.7,1.6c-2.1,0-3.1-1.2-3.1-3.7v-5.2h1.3v4.9c0,1.9,0.7,2.8,2.1,2.8
		c0.7,0,1.3-0.3,1.7-0.8s0.7-1.2,0.7-2v-5h1.3V86.2z"/>
	<path class="st0" d="M209.7,86.2h-1.3v-5c0-1-0.2-1.7-0.5-2.1s-0.8-0.6-1.5-0.6c-0.6,0-1.1,0.3-1.5,0.8c-0.4,0.6-0.6,1.2-0.6,2v4.9
		H203v-5.1c0-1.7-0.7-2.6-2-2.6c-0.6,0-1.1,0.3-1.5,0.8s-0.6,1.2-0.6,2v4.9h-1.3v-8.6h1.3V79l0,0c0.6-1,1.5-1.6,2.7-1.6
		c0.6,0,1.1,0.2,1.5,0.5c0.5,0.3,0.8,0.8,0.9,1.3c0.6-1.2,1.6-1.8,2.9-1.8c1.9,0,2.9,1.2,2.9,3.5v5.3H209.7z"/>
	<path class="st0" d="M213.7,84.9v5.2h-1.3V77.5h1.3V79l0,0c0.7-1.2,1.7-1.7,3-1.7c1.1,0,2,0.4,2.6,1.2s1,1.8,1,3.1
		c0,1.4-0.4,2.6-1.1,3.5s-1.7,1.3-2.9,1.3C215.2,86.4,214.3,85.9,213.7,84.9L213.7,84.9z M213.7,82.7c0,0.7,0.2,1.3,0.7,1.8
		s1.1,0.8,1.8,0.8c0.8,0,1.5-0.3,2-1s0.7-1.6,0.7-2.7c0-1-0.2-1.7-0.7-2.3s-1.1-0.8-1.8-0.8c-0.8,0-1.4,0.3-2,0.8s-0.8,1.3-0.8,2.1
		L213.7,82.7L213.7,82.7z"/>
	<path class="st0" d="M221.9,84.4c0.8,0.6,1.6,0.8,2.5,0.8c1.2,0,1.8-0.4,1.8-1.2c0-0.4-0.1-0.7-0.4-0.9c-0.3-0.2-0.8-0.5-1.6-0.8
		c-0.9-0.4-1.6-0.7-1.9-1.1c-0.3-0.4-0.5-0.8-0.5-1.4c0-0.7,0.3-1.3,0.9-1.8s1.4-0.7,2.3-0.7c0.7,0,1.4,0.1,2,0.4v1.4
		c-0.6-0.4-1.4-0.6-2.2-0.6c-0.5,0-0.9,0.1-1.2,0.3s-0.5,0.5-0.5,0.9s0.1,0.7,0.3,0.9s0.7,0.5,1.5,0.8c1,0.4,1.6,0.8,2,1.1
		s0.5,0.9,0.5,1.4c0,0.8-0.3,1.4-0.9,1.8s-1.4,0.7-2.4,0.7c-0.9,0-1.7-0.2-2.3-0.5v-1.5H221.9z"/>
	<path class="st0" d="M233.2,82c0-1.4,0.4-2.6,1.2-3.4c0.8-0.8,1.8-1.2,3.2-1.2c1.3,0,2.3,0.4,3,1.2s1.1,1.9,1.1,3.3
		c0,1.4-0.4,2.5-1.2,3.3s-1.8,1.2-3.1,1.2c-1.2,0-2.3-0.4-3-1.2C233.6,84.4,233.2,83.3,233.2,82z M234.5,81.9c0,1,0.3,1.8,0.8,2.4
		c0.5,0.6,1.2,0.9,2.1,0.9c0.9,0,1.6-0.3,2.1-0.9c0.5-0.6,0.7-1.4,0.7-2.5s-0.2-1.9-0.7-2.5s-1.2-0.9-2.1-0.9
		c-0.9,0-1.6,0.3-2.1,0.9S234.5,80.9,234.5,81.9z"/>
	<path class="st0" d="M250.6,77.6l-3.5,8.6h-1.2l-3.3-8.6h1.4l2.2,6.3c0.2,0.5,0.3,0.9,0.3,1.2l0,0c0.1-0.5,0.2-0.9,0.3-1.1l2.3-6.4
		H250.6z"/>
	<path class="st0" d="M258.9,82.2h-6.1c0,1,0.3,1.8,0.8,2.3s1.2,0.8,2.1,0.8c1,0,1.9-0.3,2.7-1v1.2c-0.8,0.6-1.8,0.8-3,0.8
		c-1.2,0-2.2-0.4-2.8-1.2s-1-1.9-1-3.3c0-1.3,0.4-2.4,1.1-3.3c0.8-0.9,1.7-1.3,2.8-1.3c1.1,0,2,0.4,2.6,1.1c0.6,0.7,0.9,1.7,0.9,3
		L258.9,82.2L258.9,82.2z M257.5,81.1c0-0.8-0.2-1.4-0.6-1.9c-0.4-0.5-0.9-0.7-1.6-0.7c-0.6,0-1.2,0.2-1.7,0.7s-0.8,1.1-0.9,1.9
		H257.5z"/>
	<path class="st0" d="M265.4,78.9c-0.2-0.2-0.6-0.3-1-0.3c-0.6,0-1.1,0.3-1.5,0.9c-0.4,0.6-0.6,1.3-0.6,2.3v4.4H261v-8.6h1.3v1.8
		l0,0c0.2-0.6,0.5-1.1,0.9-1.4s0.9-0.5,1.3-0.5c0.4,0,0.7,0,0.8,0.1L265.4,78.9L265.4,78.9z"/>
	<path class="st0" d="M274.9,86.1c-0.3,0.2-0.7,0.3-1.3,0.3c-1.5,0-2.2-0.8-2.2-2.5v-5.2h-1.5v-1.1h1.5v-2.1l1.3-0.4v2.5h2.2v1.1
		h-2.2v5c0,0.6,0.1,1,0.3,1.3c0.2,0.2,0.5,0.4,1,0.4c0.4,0,0.7-0.1,0.9-0.3V86.1z"/>
	<path class="st0" d="M283.8,86.2h-1.3v-5c0-1.8-0.7-2.8-2.1-2.8c-0.7,0-1.3,0.3-1.7,0.8s-0.7,1.2-0.7,2v4.9h-1.3V73.3h1.3v5.6l0,0
		c0.7-1.1,1.6-1.6,2.8-1.6c1.9,0,2.9,1.2,2.9,3.5L283.8,86.2L283.8,86.2z"/>
	<path class="st0" d="M293.4,82.2h-6.1c0,1,0.3,1.8,0.8,2.3s1.2,0.8,2.1,0.8c1,0,1.9-0.3,2.7-1v1.2c-0.8,0.6-1.8,0.8-3,0.8
		s-2.2-0.4-2.8-1.2s-1-1.9-1-3.3c0-1.3,0.4-2.4,1.1-3.3c0.8-0.9,1.7-1.3,2.8-1.3s2,0.4,2.6,1.1c0.6,0.7,0.9,1.7,0.9,3L293.4,82.2
		L293.4,82.2z M292,81.1c0-0.8-0.2-1.4-0.6-1.9c-0.4-0.5-0.9-0.7-1.6-0.7c-0.6,0-1.2,0.2-1.7,0.7s-0.8,1.1-0.9,1.9H292z"/>
	<path class="st0" d="M299.5,86.2V73.4h1.3v12.8H299.5z"/>
	<path class="st0" d="M303.9,78.2c0.8-0.5,1.8-0.8,2.9-0.8c2,0,3,1.1,3,3.2v5.6h-1.3v-1.4l0,0c-0.6,1-1.5,1.6-2.7,1.6
		c-0.9,0-1.5-0.2-2-0.7s-0.7-1.1-0.7-1.8c0-1.6,0.9-2.5,2.8-2.8l2.6-0.4c0-1.5-0.6-2.2-1.8-2.2c-1,0-2,0.4-2.8,1.1V78.2z
		 M306.3,82.1c-0.7,0.1-1.3,0.3-1.5,0.5s-0.4,0.7-0.4,1.2c0,0.4,0.2,0.8,0.5,1.1s0.7,0.4,1.2,0.4c0.7,0,1.3-0.2,1.7-0.7
		c0.5-0.5,0.7-1.1,0.7-1.9v-0.9L306.3,82.1z"/>
	<path class="st0" d="M318.3,86.2h-7v-0.4l5.2-7.1h-4.7v-1.1h6.6v0.3l-5.2,7.2h5.1L318.3,86.2L318.3,86.2z"/>
	<path class="st0" d="M327,77.6l-4,10.1c-0.7,1.8-1.7,2.6-2.9,2.6c-0.3,0-0.6,0-0.9-0.1V89c0.3,0.1,0.6,0.1,0.8,0.1
		c0.7,0,1.2-0.4,1.6-1.3l0.7-1.7l-3.4-8.6h1.4l2.4,6.7c0,0.1,0.1,0.3,0.2,0.6l0,0c0-0.1,0.1-0.3,0.2-0.6l2.5-6.8h1.4V77.6z"/>
	<path class="st0" d="M339.8,86.2h-1.3v-1.5l0,0c-0.6,1.1-1.6,1.7-3,1.7c-1.1,0-2-0.4-2.6-1.2s-1-1.8-1-3.2s0.4-2.6,1.1-3.4
		c0.7-0.9,1.7-1.3,2.9-1.3s2.1,0.5,2.6,1.4l0,0v-5.4h1.3V86.2z M338.5,81c0-0.7-0.2-1.3-0.7-1.8s-1.1-0.7-1.8-0.7
		c-0.9,0-1.5,0.3-2,1s-0.7,1.5-0.7,2.6c0,1,0.2,1.8,0.7,2.4c0.5,0.6,1.1,0.9,1.9,0.9c0.8,0,1.4-0.3,1.9-0.8c0.5-0.6,0.8-1.3,0.8-2.1
		V81H338.5z"/>
	<path class="st0" d="M342,82c0-1.4,0.4-2.6,1.2-3.4c0.8-0.8,1.8-1.2,3.2-1.2c1.3,0,2.3,0.4,3,1.2s1.1,1.9,1.1,3.3
		c0,1.4-0.4,2.5-1.2,3.3s-1.8,1.2-3.1,1.2c-1.2,0-2.3-0.4-3-1.2C342.4,84.4,342,83.3,342,82z M343.4,81.9c0,1,0.3,1.8,0.8,2.4
		c0.5,0.6,1.2,0.9,2.1,0.9c0.9,0,1.6-0.3,2.1-0.9c0.5-0.6,0.7-1.4,0.7-2.5s-0.2-1.9-0.7-2.5s-1.2-0.9-2.1-0.9
		c-0.9,0-1.6,0.3-2.1,0.9S343.4,80.9,343.4,81.9z"/>
	<path class="st0" d="M360,85.5c0,3.2-1.5,4.8-4.5,4.8c-1.1,0-2-0.2-2.8-0.6v-1.3c1,0.5,1.9,0.8,2.8,0.8c2.1,0,3.2-1.1,3.2-3.4v-1
		l0,0c-0.7,1.1-1.7,1.7-3,1.7c-1.1,0-2-0.4-2.6-1.2c-0.7-0.8-1-1.8-1-3.1c0-1.5,0.4-2.6,1.1-3.5c0.7-0.9,1.7-1.3,2.9-1.3
		s2,0.5,2.6,1.4l0,0v-1.2h1.3V85.5z M358.7,81c0-0.7-0.2-1.3-0.7-1.8s-1.1-0.7-1.8-0.7c-0.9,0-1.5,0.3-2,1c-0.5,0.6-0.7,1.5-0.7,2.6
		c0,1,0.2,1.8,0.7,2.3c0.5,0.6,1.1,0.9,1.9,0.9c0.8,0,1.4-0.3,1.9-0.8c0.5-0.6,0.8-1.3,0.8-2.1V81H358.7z"/>
	<path class="st0" d="M362.4,85.5c0-0.3,0.1-0.5,0.3-0.7s0.4-0.3,0.6-0.3c0.2,0,0.5,0.1,0.6,0.3c0.2,0.2,0.3,0.4,0.3,0.7
		c0,0.2-0.1,0.5-0.3,0.6s-0.4,0.3-0.6,0.3c-0.2,0-0.5-0.1-0.6-0.3C362.5,86,362.4,85.7,362.4,85.5z"/>
	<path class="st0" d="M35.2,107.2h-6.8V106h2.8v-9.5l-2.8,0.9v-1.3l4.1-1.3V106h2.7V107.2z"/>
	<path class="st0" d="M44.2,107.2H37V106l3.5-3.5c1.2-1.2,1.9-2,2.2-2.6c0.3-0.5,0.4-1.1,0.4-1.7c0-0.7-0.2-1.3-0.6-1.6
		c-0.4-0.4-1-0.6-1.7-0.6c-1.1,0-2.1,0.5-3.1,1.4V96c0.9-0.7,2-1.1,3.3-1.1c1,0,1.9,0.3,2.5,0.9c0.6,0.6,0.9,1.4,0.9,2.4
		c0,0.8-0.2,1.5-0.6,2.2s-1.2,1.7-2.3,2.8l-2.8,2.8l0,0h5.7v1.2H44.2z"/>
	<path class="st0" d="M46.5,105.3c0.8,0.7,1.8,1,2.8,1c0.8,0,1.5-0.2,2-0.6s0.8-1,0.8-1.7c0-1.6-1.1-2.4-3.4-2.4h-1v-1.1h1
		c2,0,3-0.8,3-2.3c0-1.4-0.8-2.1-2.3-2.1c-0.9,0-1.7,0.3-2.4,0.9v-1.3c0.8-0.5,1.7-0.7,2.7-0.7s1.8,0.3,2.4,0.8
		c0.6,0.5,0.9,1.2,0.9,2.1c0,1.6-0.8,2.6-2.4,3.1l0,0c0.9,0.1,1.6,0.4,2.1,0.9s0.8,1.2,0.8,2c0,1.1-0.4,2-1.2,2.6
		c-0.8,0.7-1.8,1-3,1c-1.1,0-2-0.2-2.7-0.6L46.5,105.3L46.5,105.3z"/>
	<path class="st0" d="M63.4,103.9h-1.6v3.2h-1.3v-3.2h-5.7V103l5.4-8h1.6v7.8h1.6V103.9z M60.5,102.9v-5.3c0-0.4,0-0.8,0-1.3l0,0
		c0,0.1-0.2,0.4-0.5,0.9l-3.8,5.7L60.5,102.9L60.5,102.9z"/>
	<path class="st0" d="M65.4,105.5c0.8,0.5,1.7,0.8,2.5,0.8c0.9,0,1.5-0.2,2.1-0.7c0.5-0.5,0.8-1.1,0.8-2c0-0.8-0.3-1.5-0.8-1.9
		s-1.3-0.7-2.3-0.7c-0.3,0-1,0-1.9,0.1v-6h5.8v1.2H67v3.6c0.5,0,0.8,0,1,0c1.3,0,2.3,0.3,3,1c0.7,0.6,1.1,1.5,1.1,2.7
		s-0.4,2.2-1.2,2.8s-1.8,1-3.1,1c-1.1,0-1.9-0.2-2.5-0.5v-1.4H65.4z"/>
	<path class="st0" d="M81.1,96.5c-0.6-0.3-1.3-0.5-2-0.5c-1.1,0-2,0.5-2.6,1.5s-1,2.3-1,3.9l0,0c0.6-1.2,1.5-1.7,2.8-1.7
		c1.1,0,1.9,0.3,2.5,1s0.9,1.6,0.9,2.7c0,1.2-0.4,2.1-1.1,2.9c-0.7,0.8-1.6,1.1-2.7,1.1c-1.3,0-2.2-0.5-2.9-1.5s-1-2.3-1-4
		c0-2,0.4-3.7,1.3-5s2.1-2,3.6-2c0.8,0,1.5,0.1,2,0.4v1.2H81.1z M75.7,103.2c0,0.9,0.2,1.6,0.7,2.2c0.5,0.6,1.1,0.9,1.8,0.9
		s1.3-0.3,1.7-0.8s0.7-1.2,0.7-2c0-0.9-0.2-1.6-0.6-2.1c-0.4-0.5-1-0.7-1.8-0.7c-0.7,0-1.3,0.2-1.7,0.7S75.7,102.5,75.7,103.2z"/>
	<path class="st0" d="M91,95.5l-4.8,11.7h-1.3l4.5-10.9h-6.1v-1.2h7.8v0.4H91z"/>
	<path class="st0" d="M95.3,100.8c-1.5-0.7-2.2-1.7-2.2-3c0-0.9,0.3-1.6,1-2.2c0.7-0.5,1.5-0.8,2.5-0.8c0.9,0,1.7,0.3,2.3,0.8
		s0.9,1.2,0.9,2c0,1.3-0.8,2.4-2.2,3.1l0,0c1.8,0.7,2.6,1.8,2.6,3.3c0,1-0.4,1.8-1.1,2.4s-1.7,0.9-2.9,0.9c-1,0-1.8-0.3-2.5-0.9
		c-0.7-0.6-1-1.3-1-2.3C92.7,102.7,93.5,101.6,95.3,100.8L95.3,100.8z M96.4,101.5c-1.6,0.6-2.4,1.5-2.4,2.7c0,0.7,0.2,1.2,0.7,1.5
		s1.1,0.6,1.8,0.6s1.3-0.2,1.7-0.6s0.7-0.9,0.7-1.5C98.9,103,98.1,102.1,96.4,101.5z M98.5,97.9c0-0.6-0.2-1-0.5-1.3
		c-0.4-0.3-0.8-0.5-1.4-0.5c-0.6,0-1,0.2-1.4,0.5s-0.6,0.8-0.6,1.3c0,1.1,0.7,1.9,2,2.4C97.8,99.7,98.5,98.9,98.5,97.9z"/>
	<path class="st0" d="M102.5,105.7c0.7,0.4,1.4,0.6,2.1,0.6c1.1,0,2-0.4,2.6-1.3c0.6-0.9,0.9-2.2,0.9-3.8l0,0
		c-0.5,1.1-1.4,1.6-2.7,1.6c-1,0-1.9-0.4-2.6-1.1c-0.7-0.7-1-1.6-1-2.7c0-1.2,0.4-2.1,1.1-2.9c0.7-0.8,1.6-1.2,2.8-1.2
		s2.1,0.5,2.8,1.4c0.6,1,1,2.3,1,4.1c0,2.2-0.4,3.9-1.3,5.1c-0.8,1.2-2.1,1.8-3.6,1.8c-0.8,0-1.5-0.1-2.1-0.4V105.7z M103.2,98.7
		c0,0.8,0.2,1.5,0.7,2c0.4,0.5,1.1,0.8,1.8,0.8s1.3-0.2,1.7-0.7c0.5-0.5,0.7-1,0.7-1.7c0-0.9-0.2-1.7-0.7-2.3s-1.1-0.9-1.8-0.9
		s-1.3,0.3-1.7,0.8C103.5,97.3,103.2,98,103.2,98.7z"/>
	<path class="st0" d="M111.1,101.4c0-2.1,0.3-3.8,1-4.9s1.7-1.6,3-1.6c2.5,0,3.8,2.1,3.8,6.2c0,2-0.3,3.6-1,4.7
		c-0.7,1.1-1.7,1.6-3,1.6c-1.2,0-2.2-0.5-2.8-1.6C111.4,104.8,111.1,103.3,111.1,101.4z M112.4,101.3c0,3.3,0.9,5,2.6,5
		c1.7,0,2.6-1.7,2.6-5c0-3.5-0.8-5.2-2.5-5.2C113.3,96,112.4,97.8,112.4,101.3z"/>
	<path class="st0" d="M121.2,106.5c0-0.3,0.1-0.5,0.3-0.6s0.4-0.3,0.6-0.3c0.2,0,0.4,0.1,0.6,0.3c0.2,0.2,0.3,0.4,0.3,0.6
		c0,0.2-0.1,0.4-0.3,0.6s-0.4,0.3-0.6,0.3c-0.3,0-0.5-0.1-0.7-0.3C121.3,106.9,121.2,106.7,121.2,106.5z M122.7,95.1l-0.1,8.7h-1.1
		l-0.1-8.7H122.7z"/>
	<path class="st0" d="M135.7,98.2c-0.3,3.1-0.4,4.7-0.4,4.7c0,1.2,0.3,1.8,1,1.8c0.6,0,1.2-0.3,1.6-1c0.4-0.7,0.6-1.5,0.6-2.6
		c0-1.6-0.5-2.8-1.5-3.8s-2.4-1.5-4.1-1.5c-1.7,0-3,0.6-4.1,1.8c-1.1,1.2-1.6,2.6-1.6,4.4c0,1.7,0.5,3.2,1.6,4.2
		c1,1.1,2.4,1.6,4.2,1.6c1.4,0,2.6-0.2,3.6-0.7v1c-1,0.4-2.2,0.6-3.6,0.6c-2,0-3.7-0.6-4.9-1.9c-1.2-1.2-1.9-2.9-1.9-4.9
		c0-2.1,0.7-3.8,2-5.1c1.3-1.3,3-2,5-2c1.9,0,3.5,0.6,4.7,1.7c1.3,1.1,1.9,2.6,1.9,4.5c0,1.3-0.3,2.4-1,3.3s-1.5,1.3-2.4,1.3
		c-1.2,0-1.8-0.7-1.9-2l0,0c-0.4,1.4-1.2,2-2.4,2c-0.8,0-1.4-0.3-1.9-0.9s-0.7-1.3-0.7-2.3c0-1.3,0.3-2.3,1-3.2
		c0.7-0.8,1.5-1.3,2.6-1.3c0.4,0,0.7,0.1,1.1,0.3s0.6,0.5,0.6,0.8l0,0c0,0,0-0.3,0.1-1h0.8V98.2z M130.4,102.5
		c0,0.7,0.1,1.2,0.4,1.6c0.3,0.4,0.7,0.6,1.2,0.6c0.7,0,1.3-0.4,1.7-1.1c0.4-0.7,0.6-1.6,0.6-2.8s-0.5-1.8-1.5-1.8
		c-0.7,0-1.3,0.3-1.7,1S130.4,101.5,130.4,102.5z"/>
	<path class="st0" d="M150.8,98.5l-0.2,0.9h-2.2l-0.5,2.6h2.4l-0.2,0.9h-2.4l-0.8,3.4h-1l0.7-3.4h-2.1l-0.7,3.4h-1l0.7-3.4h-2.2
		l0.1-0.9h2.3l0.5-2.6h-2.3l0.2-0.9h2.4l0.7-3.4h1l-0.7,3.4h2.1l0.7-3.4h1l-0.7,3.4H150.8z M147.4,99.4h-2.1l-0.6,2.6h2.2
		L147.4,99.4z"/>
	<path class="st0" d="M156.4,109h-0.9v-1.8c-1.2,0-2.2-0.2-2.9-0.7v-1.4c0.3,0.3,0.8,0.5,1.3,0.7s1.1,0.3,1.6,0.3v-4.4
		c-1.3-0.6-2.1-1.2-2.4-1.7c-0.3-0.5-0.5-1.1-0.5-1.8c0-0.8,0.3-1.5,0.8-2.1s1.2-1,2.1-1.1v-1.5h0.9V95c1.1,0,1.9,0.2,2.3,0.5v1.4
		c-0.5-0.4-1.3-0.7-2.3-0.7v4.5c1,0.5,1.8,1,2.3,1.5s0.7,1.1,0.7,1.8c0,0.8-0.3,1.5-0.8,2s-1.3,0.9-2.2,1L156.4,109L156.4,109z
		 M155.5,96.2c-0.5,0.1-0.9,0.3-1.2,0.7c-0.3,0.3-0.4,0.7-0.4,1.2s0.1,0.8,0.3,1.1s0.6,0.6,1.3,1L155.5,96.2L155.5,96.2z M156.4,106
		c1.1-0.2,1.7-0.8,1.7-1.8c0-0.8-0.6-1.5-1.7-2.1V106z"/>
	<path class="st0" d="M161.1,98.1c0-1,0.3-1.8,0.8-2.4s1.2-0.9,2.1-0.9c0.9,0,1.5,0.3,2,0.8s0.7,1.3,0.7,2.2s-0.3,1.7-0.8,2.3
		s-1.2,0.9-2.1,0.9c-0.8,0-1.5-0.3-2-0.8S161.1,99,161.1,98.1z M162.2,98.1c0,0.7,0.2,1.2,0.5,1.6c0.3,0.4,0.7,0.6,1.3,0.6
		c0.5,0,1-0.2,1.3-0.6c0.3-0.4,0.5-1,0.5-1.7s-0.1-1.2-0.4-1.6c-0.3-0.4-0.7-0.6-1.2-0.6s-1,0.2-1.3,0.6
		C162.4,96.8,162.2,97.4,162.2,98.1z M171.9,95.1l-7.8,12.2h-1.2l7.8-12.2H171.9z M168.3,104.4c0-1,0.3-1.8,0.8-2.4
		c0.5-0.6,1.2-0.9,2.1-0.9c0.8,0,1.5,0.3,2,0.8s0.7,1.3,0.7,2.3s-0.3,1.7-0.8,2.3s-1.2,0.9-2.1,0.9c-0.8,0-1.5-0.3-2-0.8
		C168.6,106,168.3,105.3,168.3,104.4z M169.4,104.3c0,0.7,0.2,1.2,0.5,1.6c0.3,0.4,0.7,0.6,1.3,0.6c0.5,0,1-0.2,1.3-0.6
		c0.3-0.4,0.5-1,0.5-1.7s-0.1-1.2-0.4-1.6s-0.7-0.6-1.2-0.6c-0.6,0-1,0.2-1.3,0.6S169.4,103.6,169.4,104.3z"/>
	<path class="st0" d="M184.4,101.9h-1.2l-2.8-5.2l0,0l-2.6,5.2h-1.2l3.6-7h0.5L184.4,101.9z"/>
	<path class="st0" d="M195.8,105.5c-1.2,1.3-2.6,1.9-4.3,1.9c-1.3,0-2.3-0.3-3-0.9s-1.1-1.5-1.1-2.5c0-1.7,0.9-2.9,2.8-3.7
		c-0.9-0.7-1.4-1.5-1.4-2.5c0-0.8,0.3-1.5,0.9-2c0.6-0.5,1.3-0.8,2.2-0.8s1.6,0.2,2.1,0.7s0.8,1.1,0.8,1.9c0,1.3-0.8,2.2-2.3,2.8
		c1.2,0.4,2.3,1.5,3.4,3.2c0.9-1.3,1.4-2.8,1.4-4.5c0-0.4,0-0.8-0.1-1.2h1.3c0.1,0.3,0.1,0.7,0.1,1.1c0,1.9-0.7,3.8-2,5.6
		c0.5,0.7,0.9,1.1,1.2,1.3s0.6,0.3,1,0.3c0.2,0,0.6-0.1,1-0.2v1.2c-0.4,0.2-0.8,0.2-1.2,0.2c-0.5,0-1-0.1-1.3-0.4
		C196.8,106.8,196.4,106.3,195.8,105.5z M195.2,104.5c-0.7-1.2-1.4-2-1.9-2.5s-1.2-0.9-2-1.2c-0.9,0.3-1.5,0.8-1.9,1.2
		s-0.6,1.1-0.6,1.8s0.3,1.3,0.8,1.7s1.2,0.6,2,0.6C192.9,106.2,194.2,105.7,195.2,104.5z M191.5,99.7c0.7-0.3,1.3-0.6,1.6-0.9
		c0.4-0.3,0.5-0.8,0.5-1.3s-0.2-0.9-0.5-1.2s-0.7-0.4-1.2-0.4c-0.6,0-1,0.2-1.4,0.5c-0.3,0.3-0.5,0.7-0.5,1.2
		C190,98.5,190.5,99.2,191.5,99.7z"/>
	<path class="st0" d="M206.7,97.9l-2.3,0.5l1.6,2.1l-0.9,0.6l-1.3-2.2l-1.3,2.2l-0.9-0.6l1.6-2.1l-2.3-0.5l0.4-1l2.2,0.8l-0.2-2.6
		h1.1l-0.2,2.6l2.2-0.8L206.7,97.9z"/>
	<path class="st0" d="M211.1,109.9c-1.7-2-2.6-4.4-2.6-7.4c0-2.9,0.9-5.4,2.6-7.5h1.2c-1.8,2.1-2.7,4.6-2.7,7.5
		c0,2.8,0.9,5.3,2.6,7.4H211.1z"/>
	<path class="st0" d="M212.6,109.9c1.8-2.1,2.6-4.5,2.6-7.4c0-2.8-0.9-5.3-2.7-7.5h1.2c1.8,2.1,2.6,4.5,2.6,7.5
		c0,2.9-0.9,5.4-2.6,7.4H212.6z"/>
	<path class="st0" d="M224.7,109.7h-7.2v-1h7.2V109.7z"/>
	<path class="st1" d="M30.4,30.8v5.4h-1.7V23.3h3.6c0.8,0,1.5,0.1,2.1,0.2c0.6,0.2,1.1,0.4,1.5,0.7s0.7,0.7,0.9,1.1
		c0.2,0.4,0.3,0.9,0.3,1.5c0,0.5-0.1,0.9-0.2,1.3c-0.1,0.4-0.4,0.8-0.6,1.1s-0.6,0.6-1,0.8s-0.8,0.4-1.3,0.5
		c0.2,0.1,0.4,0.3,0.6,0.5l3.8,5.1h-1.5c-0.3,0-0.6-0.1-0.7-0.4l-3.3-4.6c-0.1-0.1-0.2-0.2-0.3-0.3s-0.3-0.1-0.5-0.1h-1.7V30.8z
		 M30.4,29.5h1.8c0.5,0,1-0.1,1.3-0.2c0.4-0.1,0.7-0.3,1-0.5s0.5-0.5,0.6-0.8s0.2-0.7,0.2-1c0-0.8-0.3-1.3-0.8-1.7s-1.3-0.6-2.3-0.6
		h-1.9v4.8H30.4z"/>
	<path class="st1" d="M43.4,26.9c0.5,0,1.1,0.1,1.5,0.3c0.5,0.2,0.9,0.4,1.2,0.8s0.6,0.8,0.8,1.3s0.3,1.1,0.3,1.7
		c0,0.3,0,0.4-0.1,0.5s-0.2,0.1-0.3,0.1h-6.1c0,0.6,0.1,1.1,0.2,1.5s0.3,0.8,0.6,1.1s0.6,0.5,0.9,0.6c0.3,0.1,0.7,0.2,1.2,0.2
		c0.4,0,0.7,0,1-0.1s0.5-0.2,0.8-0.3c0.2-0.1,0.4-0.2,0.5-0.3s0.3-0.1,0.4-0.1c0.1,0,0.2,0.1,0.3,0.2L47,35
		c-0.2,0.2-0.4,0.4-0.7,0.6s-0.6,0.3-0.9,0.4c-0.3,0.1-0.6,0.2-1,0.3c-0.3,0.1-0.7,0.1-1,0.1c-0.6,0-1.2-0.1-1.7-0.3s-1-0.5-1.4-0.9
		s-0.7-0.9-0.9-1.5s-0.3-1.3-0.3-2.1c0-0.6,0.1-1.2,0.3-1.8s0.5-1,0.8-1.4c0.4-0.4,0.8-0.7,1.3-1C42.2,27.1,42.8,26.9,43.4,26.9z
		 M43.5,28.1c-0.8,0-1.4,0.2-1.8,0.7c-0.4,0.4-0.7,1.1-0.8,1.9h5c0-0.4-0.1-0.7-0.2-1c-0.1-0.3-0.3-0.6-0.4-0.8
		c-0.2-0.2-0.4-0.4-0.7-0.5C44.1,28.2,43.8,28.1,43.5,28.1z"/>
	<path class="st1" d="M52.3,26.9c0.4,0,0.8,0,1.1,0.1s0.7,0.2,0.9,0.4h2.5V28c0,0.2-0.1,0.3-0.4,0.4l-1,0.1c0.2,0.4,0.3,0.8,0.3,1.3
		c0,0.4-0.1,0.8-0.3,1.2s-0.4,0.7-0.7,0.9c-0.3,0.3-0.7,0.5-1.1,0.6c-0.4,0.1-0.9,0.2-1.4,0.2c-0.4,0-0.8-0.1-1.2-0.2
		c-0.2,0.1-0.3,0.3-0.4,0.4c-0.1,0.1-0.1,0.3-0.1,0.4c0,0.2,0.1,0.4,0.3,0.5s0.4,0.2,0.7,0.2s0.6,0.1,1,0.1s0.7,0,1.1,0
		s0.8,0,1.1,0.1c0.4,0.1,0.7,0.2,1,0.3c0.3,0.2,0.5,0.4,0.7,0.6c0.2,0.3,0.3,0.6,0.3,1s-0.1,0.8-0.3,1.1c-0.2,0.4-0.5,0.7-0.8,1
		c-0.4,0.3-0.8,0.5-1.3,0.7s-1.1,0.3-1.8,0.3s-1.2-0.1-1.8-0.2c-0.5-0.1-0.9-0.3-1.2-0.5s-0.6-0.5-0.7-0.8c-0.2-0.3-0.2-0.6-0.2-0.9
		c0-0.5,0.1-0.8,0.4-1.1s0.7-0.6,1.2-0.8c-0.3-0.1-0.5-0.3-0.6-0.5c-0.2-0.2-0.2-0.5-0.2-0.8c0-0.1,0-0.3,0.1-0.4
		c0-0.1,0.1-0.3,0.2-0.4c0.1-0.1,0.2-0.3,0.4-0.4c0.1-0.1,0.3-0.2,0.5-0.3c-0.5-0.3-0.8-0.6-1.1-1s-0.4-0.9-0.4-1.5
		c0-0.4,0.1-0.8,0.3-1.2s0.4-0.7,0.7-0.9s0.7-0.5,1.1-0.6C51.3,27,51.8,26.9,52.3,26.9z M55.2,36.7c0-0.2-0.1-0.4-0.2-0.6
		s-0.3-0.2-0.5-0.3s-0.5-0.1-0.7-0.2c-0.3,0-0.6-0.1-0.9-0.1c-0.3,0-0.6,0-1,0c-0.3,0-0.6,0-0.9-0.1c-0.3,0.2-0.6,0.4-0.8,0.6
		s-0.3,0.5-0.3,0.8c0,0.2,0.1,0.4,0.2,0.6c0.1,0.2,0.3,0.3,0.5,0.5c0.2,0.1,0.5,0.2,0.8,0.3s0.7,0.1,1.2,0.1c0.4,0,0.8,0,1.2-0.1
		c0.3-0.1,0.6-0.2,0.9-0.3c0.2-0.1,0.4-0.3,0.5-0.5S55.2,36.9,55.2,36.7z M52.3,31.7c0.3,0,0.6,0,0.9-0.1c0.2-0.1,0.5-0.2,0.6-0.4
		s0.3-0.4,0.4-0.6c0.1-0.2,0.1-0.5,0.1-0.7c0-0.6-0.2-1-0.5-1.3s-0.8-0.5-1.5-0.5c-0.6,0-1.1,0.2-1.5,0.5c-0.3,0.3-0.5,0.8-0.5,1.3
		c0,0.3,0,0.5,0.1,0.7s0.2,0.4,0.4,0.6s0.4,0.3,0.6,0.4C51.7,31.7,52,31.7,52.3,31.7z"/>
	<path class="st1" d="M59.8,27.1v5.8c0,0.7,0.2,1.2,0.5,1.6c0.3,0.4,0.8,0.6,1.4,0.6c0.5,0,0.9-0.1,1.3-0.3s0.8-0.5,1.1-0.9v-6.7
		h1.6v9.1h-1c-0.2,0-0.4-0.1-0.4-0.3l-0.1-1c-0.4,0.4-0.8,0.8-1.3,1.1s-1.1,0.4-1.7,0.4c-0.5,0-0.9-0.1-1.3-0.2
		c-0.4-0.2-0.7-0.4-1-0.7s-0.5-0.7-0.6-1.1c-0.1-0.4-0.2-0.9-0.2-1.4v-5.8h1.7V27.1z"/>
	<path class="st1" d="M70.2,22.9v13.3h-1.6V22.9H70.2z"/>
	<path class="st1" d="M79.7,36.2H79c-0.2,0-0.3,0-0.4-0.1c-0.1,0-0.2-0.1-0.2-0.3L78.2,35c-0.2,0.2-0.5,0.4-0.7,0.6S77,35.9,76.8,36
		c-0.3,0.1-0.5,0.2-0.8,0.3s-0.6,0.1-0.9,0.1c-0.4,0-0.7,0-1-0.1s-0.6-0.2-0.8-0.4s-0.4-0.5-0.5-0.8s-0.2-0.7-0.2-1.1
		c0-0.4,0.1-0.7,0.3-1s0.5-0.6,1-0.9s1-0.5,1.7-0.6c0.7-0.2,1.6-0.2,2.6-0.2v-0.7c0-0.7-0.2-1.3-0.5-1.6c-0.3-0.4-0.8-0.5-1.3-0.5
		c-0.4,0-0.7,0-1,0.1s-0.5,0.2-0.7,0.3s-0.4,0.2-0.5,0.3s-0.3,0.1-0.4,0.1c-0.1,0-0.2,0-0.3-0.1s-0.1-0.1-0.2-0.2L73,28.5
		c0.5-0.5,1-0.8,1.6-1.1s1.2-0.4,1.9-0.4c0.5,0,1,0.1,1.4,0.3s0.7,0.4,1,0.7s0.5,0.7,0.6,1.1c0.1,0.4,0.2,0.9,0.2,1.4L79.7,36.2
		L79.7,36.2z M75.6,35.2c0.3,0,0.5,0,0.8-0.1s0.5-0.1,0.7-0.2c0.2-0.1,0.4-0.2,0.6-0.4c0.2-0.1,0.4-0.3,0.6-0.5v-1.9
		c-0.7,0-1.4,0-1.9,0.1s-0.9,0.2-1.3,0.4c-0.3,0.2-0.6,0.3-0.7,0.5s-0.2,0.4-0.2,0.7c0,0.2,0,0.5,0.1,0.6s0.2,0.3,0.3,0.4
		c0.1,0.1,0.3,0.2,0.5,0.2C75.2,35.2,75.4,35.2,75.6,35.2z"/>
	<path class="st1" d="M82.2,36.2v-9.1h0.9c0.2,0,0.3,0,0.4,0.1c0.1,0.1,0.1,0.2,0.1,0.3l0.1,1.4c0.3-0.6,0.7-1.1,1.2-1.5
		s1-0.5,1.6-0.5c0.3,0,0.5,0,0.7,0.1s0.4,0.1,0.6,0.2l-0.2,1.2c0,0.1-0.1,0.2-0.3,0.2c-0.1,0-0.2,0-0.4-0.1s-0.4-0.1-0.7-0.1
		c-0.6,0-1,0.2-1.4,0.5s-0.7,0.8-0.9,1.4v5.8L82.2,36.2L82.2,36.2z"/>
	<path class="st0" d="M35.5,170.6h-3v2.4h-1.4v-2.4H28v-1.3h3.1v-1h-2.4v-5.6h2.4v-1h-2.9v-1.3h2.9V159h1.4v1.4h2.9v1.3h-2.9v1h2.4
		v5.6h-2.4v1h3V170.6z M33.5,164.9V164h-3.4v0.9H33.5z M33.5,167.1v-1h-3.4v1H33.5z M41.5,171.4c0,0.5-0.2,0.8-0.5,1.2
		c-0.3,0.3-1.2,0.5-2.6,0.4l-0.4-1.4c0.2,0,0.7,0,1.4,0c0.2,0,0.3-0.1,0.4-0.2c0.1-0.1,0.2-0.3,0.2-0.4v-2.8h-2.5
		c-0.2,2-0.7,3.6-1.5,4.9l-1.2-0.8c1-1.4,1.5-3.4,1.5-5.9v-7.2h5.1L41.5,171.4L41.5,171.4z M40.1,162.9v-2.3h-2.4v2.3H40.1z
		 M40.1,166.9v-2.5h-2.4v2.5H40.1z"/>
	<path class="st0" d="M51.3,160c-2.1,0.5-4.4,0.7-6.8,0.7l-0.4-1.2c2.5,0,4.6-0.1,6.5-0.5L51.3,160z M51.4,171.9
		c0,0.3-0.1,0.6-0.4,0.8c-0.2,0.2-0.8,0.3-1.7,0.3l-0.4-1.1l-0.2,0.2l-0.6-0.6c-0.5,0.4-1,0.7-1.6,1l-0.6-0.9
		c0.5-0.2,0.9-0.5,1.3-0.8c-0.2-0.2-0.5-0.4-1-0.6l0.6-0.6h-0.7v-1h3.5v0.9c-0.2,0.4-0.4,0.8-0.8,1.3l0.6,0.6l-0.4,0.4
		c0.2,0,0.3,0,0.5,0c0.4,0,0.6-0.1,0.6-0.3V166h-1.7c-0.2,0.4-0.5,0.8-0.8,1.1c0.3,0,0.6,0,0.9-0.1c-0.1-0.1-0.1-0.2-0.2-0.3
		l0.9-0.4c0.3,0.5,0.6,1,0.8,1.6l-0.9,0.4c0-0.2-0.1-0.3-0.2-0.4c-0.9,0.2-1.7,0.3-2.5,0.3l-0.2-1c0.4-0.2,0.8-0.6,1-1.1h-1.4v7
		h-1.4V165h2.7c-0.4-0.3-0.9-0.5-1.4-0.8l1.4-0.5c0.2,0.1,0.5,0.2,0.8,0.5c0.4-0.2,0.8-0.4,1.1-0.6h-4.7v-1.1h7v1
		c-0.6,0.4-1.4,0.8-2.4,1.3l0.1,0.1h2.5L51.4,171.9L51.4,171.9z M46.5,161.9l-1.2,0.4c-0.2-0.4-0.4-0.7-0.7-1l1.2-0.4
		C45.9,161.1,46.2,161.5,46.5,161.9z M48.9,162l-1.2,0.3c-0.2-0.4-0.4-0.8-0.7-1.2l1.2-0.3C48.4,161,48.6,161.4,48.9,162z
		 M48.4,169.6h-1.3c0.3,0.2,0.6,0.4,0.9,0.5C48.1,170,48.3,169.8,48.4,169.6z M51.4,160.8c-0.2,0.5-0.6,1-1,1.5l-1.2-0.5
		c0.4-0.4,0.7-0.8,0.9-1.3L51.4,160.8z M57.9,166.6h-2.3v1.8h2v1.3h-2v3.3h-1.5v-3.3h-2v-1.3h2v-1.8h-2.3v-1.3h1.3
		c-0.2-1-0.5-1.9-0.8-2.5l0.9-0.6H52v-1.3h2.1c-0.2-0.5-0.4-1.1-0.7-1.6l1.4-0.3c0.3,0.7,0.6,1.3,0.8,2h2.2v1.3h-1.4l1,0.4
		c-0.2,1-0.4,1.9-0.7,2.6H58L57.9,166.6L57.9,166.6z M55.9,162.2h-2.3c0.3,0.8,0.6,1.8,0.9,3.1h0.8
		C55.6,164.3,55.8,163.3,55.9,162.2z"/>
	<path class="st0" d="M72.9,173h-1.5v-1.2h-8.8v1.2h-1.5v-11.6h3c0.5-0.8,0.9-1.6,1.3-2.5l1.5,0.3c-0.3,0.7-0.6,1.5-1.1,2.2h7
		L72.9,173L72.9,173z M71.4,165.8v-3.1h-8.8v3.1H71.4z M71.4,170.4v-3.1h-8.8v3.1H71.4z"/>
	<path class="st0" d="M89.4,166.3H88V165H77.7v1.3h-1.4v-2.6h3.6c-0.3-0.6-0.6-1.2-0.9-1.6l1.1-0.4h-3.8v-1.3H82
		c-0.1-0.3-0.3-0.6-0.6-1l1.6-0.3c0.3,0.6,0.5,1,0.6,1.4h5.5v1.3h-3.8l1.1,0.5c-0.2,0.6-0.5,1.1-0.8,1.5h3.5v2.5H89.4z M88,170.8
		c0,0.4-0.1,0.7-0.4,1c-0.3,0.2-1.1,0.3-2.3,0.3l-0.5-1.4c1.1,0,1.7,0,1.8-0.1s0.1-0.1,0.1-0.3V168h-3v5h-1.4v-5h-3v4.1h-1.4v-5.4
		h4.4v-1.3h1.4v1.3h4.4L88,170.8L88,170.8z M85.4,161.6h-4.9c0.5,0.8,0.8,1.5,1,2h2.7C84.6,163.2,85,162.5,85.4,161.6z"/>
	<path class="st0" d="M100.2,170l-0.8,1.2c-0.7-0.7-1.5-1.4-2.3-2v3.9h-1.4V169c-0.7,1-1.7,2-2.9,2.9l-0.9-1.1
		c1.6-1.2,2.7-2.3,3.3-3.3h-2.8v-1.3h3.3v-1.4h1.4v1.4h2.7v1.3h-2.7v0.3C98.4,168.6,99.4,169.3,100.2,170z M99.9,160.1
		c-1.7,0.5-4,1-7.1,1.3l-0.6-1.3c2.7-0.2,5-0.6,6.9-1.2L99.9,160.1z M94.8,164.5l-1.3,0.6c-0.4-1.2-0.8-2.1-1.2-2.8l1.2-0.6
		C94.1,162.7,94.5,163.6,94.8,164.5z M97.1,163.8l-1.3,0.4c-0.2-0.8-0.5-1.6-0.9-2.5l1.3-0.5C96.6,162,96.9,162.9,97.1,163.8z
		 M100.1,161.3c-0.3,1.2-0.7,2.3-1.3,3.5l-1.2-0.6c0.5-0.9,0.9-2,1.3-3.3L100.1,161.3z M106,168c-1.2,2-3.1,3.7-5.7,5.1l-0.9-1.1
		c2.5-1.3,4.3-3,5.4-4.9L106,168z M105.6,159.6c-1,1.5-2.5,2.8-4.4,3.9l-1.1-1c2-1.1,3.4-2.3,4.4-3.6L105.6,159.6z M105.9,163.5
		c-1.1,1.7-2.7,3.2-4.8,4.5l-1-1.1c2.2-1.3,3.8-2.7,4.6-4.3L105.9,163.5z"/>
	<path class="st0" d="M122,169.7h-4c1.3,0.9,2.4,1.7,3.2,2.6l-1,0.9c-0.4-0.4-0.8-0.7-1-0.9c-3.1,0.3-6.4,0.6-9.8,0.7l-0.3-1.1
		c0.8-0.1,1.9-0.8,3-2.1h-4.2v-1.2h14L122,169.7L122,169.7z M121.7,164.8h-1.4v-2.4h-4.6v3.5h-1.4v-3.5h-4.5v2.4h-1.4v-3.6h6v-0.7
		h-5.5v-1.2H121v1.2h-5.4v0.7h6v3.6H121.7z M120.9,167.7h-11.7v-1.2h11.7V167.7z M113.9,165.4c-1.1,0.3-2.4,0.5-3.6,0.7l-0.4-1
		c1.2-0.2,2.4-0.4,3.6-0.7L113.9,165.4z M113.9,163.2l-0.5,1c-0.9-0.2-2-0.4-3.4-0.5l0.4-1C111.7,162.8,112.9,163,113.9,163.2z
		 M117.8,171.2c-0.2-0.2-0.6-0.4-1.2-0.8l0.8-0.7h-3.3c-0.8,0.8-1.5,1.4-2.3,1.9C113.9,171.5,115.9,171.4,117.8,171.2z M119.9,163.7
		c-1.1,0.2-2.3,0.3-3.6,0.4l-0.4-1c1.3,0,2.5-0.2,3.4-0.4L119.9,163.7z M120,165l-0.4,0.9c-1.2-0.3-2.3-0.5-3.5-0.6l0.4-0.9
		C117.7,164.5,118.9,164.7,120,165z"/>
	<path class="st0" d="M130.4,164.6h-4.6v8.4h-1.4v-13.6h6V164.6z M129,161.4v-0.7h-3.2v0.7H129z M129,163.3v-0.8h-3.2v0.8H129z
		 M134.3,171.5h-6.6v-6.2h6.6V171.5z M132.9,167.8v-1.2h-3.8v1.2H132.9z M132.9,170.3V169h-3.8v1.3H132.9z M137.4,171.6
		c0,0.5-0.1,0.8-0.4,1.1c-0.3,0.2-0.6,0.3-0.9,0.3c-0.5,0-0.8,0-1,0l-0.5-1.4c0.3,0,0.6,0,0.8,0s0.4,0,0.5-0.1
		c0.1,0,0.1-0.1,0.1-0.2v-6.8h-4.5v-5.1h5.9L137.4,171.6L137.4,171.6z M136,161.4v-0.7h-3.1v0.7H136z M136,163.3v-0.8h-3.1v0.8H136z
		"/>
	<path class="st0" d="M36,182.7h-3.5v10.5h-1.9v-10.5h-3.5v-1.6h8.8v1.6H36z"/>
	<path class="st0" d="M45.2,193.2h-1.8v-5c0-1.6-0.6-2.4-1.8-2.4c-0.6,0-1.1,0.2-1.5,0.7s-0.6,1.1-0.6,1.8v4.9h-1.8v-12.8h1.8v5.5
		l0,0c0.7-1.1,1.6-1.6,2.8-1.6c1.9,0,2.9,1.2,2.9,3.5L45.2,193.2L45.2,193.2z"/>
	<path class="st0" d="M54.9,189.4h-6c0.1,1.7,1,2.6,2.7,2.6c1,0,1.8-0.3,2.6-0.9v1.5c-0.8,0.5-1.8,0.8-3,0.8c-1.3,0-2.3-0.4-3-1.2
		s-1.1-1.9-1.1-3.3c0-1.3,0.4-2.4,1.2-3.3c0.8-0.9,1.8-1.3,2.9-1.3c1.2,0,2.1,0.4,2.7,1.1s1,1.8,1,3L54.9,189.4L54.9,189.4z
		 M53.1,188c0-0.7-0.2-1.3-0.5-1.7s-0.8-0.6-1.4-0.6c-0.6,0-1,0.2-1.5,0.6c-0.4,0.4-0.7,1-0.8,1.7H53.1z"/>
	<path class="st0" d="M68.5,197.2h-1.8v-5.4l0,0c-0.6,1.1-1.5,1.6-2.8,1.6c-1.1,0-2-0.4-2.6-1.2c-0.7-0.8-1-1.8-1-3.2
		s0.4-2.6,1.1-3.4c0.7-0.9,1.7-1.3,2.9-1.3c1.1,0,2,0.4,2.5,1.3l0,0v-1.1h1.8v12.7H68.5z M66.7,188.2c0-0.6-0.2-1.2-0.6-1.7
		c-0.4-0.5-0.9-0.7-1.6-0.7c-0.8,0-1.3,0.3-1.8,0.9s-0.6,1.4-0.6,2.4c0,0.9,0.2,1.6,0.6,2.1c0.4,0.5,1,0.8,1.6,0.8
		c0.7,0,1.3-0.3,1.7-0.8s0.6-1.2,0.6-1.9L66.7,188.2L66.7,188.2z"/>
	<path class="st0" d="M78.5,193.2h-1.8v-1.4l0,0c-0.6,1-1.5,1.6-2.7,1.6c-2,0-3.1-1.2-3.1-3.7v-5.2h1.8v5c0,1.6,0.6,2.4,1.9,2.4
		c0.6,0,1.1-0.2,1.5-0.7c0.4-0.4,0.6-1,0.6-1.7v-5h1.8V193.2z"/>
	<path class="st0" d="M80.9,181.6c0-0.3,0.1-0.6,0.3-0.8s0.5-0.3,0.8-0.3s0.6,0.1,0.8,0.3s0.3,0.5,0.3,0.8s-0.1,0.6-0.3,0.8
		s-0.5,0.3-0.8,0.3s-0.6-0.1-0.8-0.3C81.1,182.1,80.9,181.9,80.9,181.6z M81.1,193.2v-8.6h1.8v8.6H81.1z"/>
	<path class="st0" d="M91.7,192.8c-0.6,0.4-1.5,0.6-2.4,0.6c-1.3,0-2.3-0.4-3.1-1.2s-1.2-1.8-1.2-3.1c0-1.4,0.4-2.6,1.3-3.4
		c0.8-0.9,2-1.3,3.4-1.3c0.9,0,1.6,0.1,2.1,0.4v1.7c-0.6-0.4-1.3-0.7-2-0.7c-0.8,0-1.5,0.3-2.1,0.8s-0.8,1.3-0.8,2.3
		c0,0.9,0.2,1.7,0.7,2.2s1.2,0.8,2,0.8c0.7,0,1.4-0.2,2.1-0.7V192.8z"/>
	<path class="st0" d="M101.3,193.2h-2.4l-3.4-4.2l0,0v4.2h-1.8v-12.8h1.8v8.1l0,0l3.3-4h2.3l-3.7,4.1L101.3,193.2z"/>
	<path class="st0" d="M108.4,192v1.2h-1.8v-12.8h1.8v5.6l0,0c0.7-1.1,1.6-1.6,2.9-1.6c1.1,0,2,0.4,2.6,1.2s0.9,1.8,0.9,3.1
		c0,1.4-0.4,2.6-1.1,3.5s-1.7,1.3-2.9,1.3C109.9,193.4,109,192.9,108.4,192L108.4,192z M108.4,189.6c0,0.7,0.2,1.2,0.6,1.7
		c0.4,0.5,0.9,0.7,1.6,0.7c0.8,0,1.4-0.3,1.8-0.9s0.6-1.4,0.6-2.4c0-0.9-0.2-1.6-0.6-2.1s-0.9-0.7-1.6-0.7s-1.3,0.2-1.7,0.7
		s-0.7,1.1-0.7,1.9L108.4,189.6L108.4,189.6z"/>
	<path class="st0" d="M121.9,186.3c-0.3-0.2-0.6-0.3-1.1-0.3c-0.6,0-1.1,0.3-1.4,0.8s-0.6,1.2-0.6,2.1v4.3H117v-8.6h1.8v1.7l0,0
		c0.4-1.2,1.2-1.9,2.3-1.9c0.3,0,0.6,0,0.8,0.1V186.3z"/>
	<path class="st0" d="M122.5,189c0-1.4,0.4-2.5,1.2-3.4c0.8-0.8,1.9-1.2,3.3-1.2c1.3,0,2.4,0.4,3.1,1.2s1.1,1.9,1.1,3.3
		c0,1.4-0.4,2.5-1.2,3.3s-1.9,1.2-3.2,1.2c-1.3,0-2.4-0.4-3.2-1.2S122.5,190.3,122.5,189z M124.4,188.9c0,0.9,0.2,1.7,0.7,2.2
		s1.1,0.8,1.9,0.8c1.7,0,2.5-1,2.5-3.1c0-1-0.2-1.7-0.6-2.3c-0.4-0.5-1-0.8-1.9-0.8c-0.8,0-1.4,0.3-1.9,0.8S124.4,188,124.4,188.9z"
		/>
	<path class="st0" d="M144.8,184.6l-2.5,8.6h-1.9l-1.6-5.8c-0.1-0.3-0.1-0.6-0.1-0.9l0,0c0,0.2-0.1,0.5-0.2,0.9l-1.7,5.8h-1.9
		l-2.6-8.6h1.9l1.6,6.2c0.1,0.3,0.1,0.5,0.1,0.8h0.1c0-0.3,0.1-0.6,0.2-0.9l1.8-6.2h1.7l1.6,6.2c0,0.1,0.1,0.4,0.1,0.8h0.1
		c0-0.3,0.1-0.5,0.1-0.8l1.5-6.2h1.7V184.6z"/>
	<path class="st0" d="M153.8,193.2H152v-4.9c0-1.7-0.6-2.5-1.8-2.5c-0.6,0-1.1,0.2-1.5,0.7s-0.6,1-0.6,1.8v4.9h-1.8v-8.6h1.8v1.4
		l0,0c0.6-1.1,1.6-1.6,2.8-1.6c1.9,0,2.9,1.2,2.9,3.6L153.8,193.2L153.8,193.2z"/>
	<path class="st0" d="M165,181.9c-0.3-0.1-0.6-0.2-0.9-0.2c-0.9,0-1.4,0.6-1.4,1.7v1.2h2v1.5h-2v7.2h-1.8v-7.2h-1.5v-1.5h1.5v-1.3
		c0-0.9,0.3-1.7,0.9-2.2c0.6-0.5,1.3-0.8,2.2-0.8c0.5,0,0.8,0.1,1.1,0.2v1.4H165z"/>
	<path class="st0" d="M165.6,189c0-1.4,0.4-2.5,1.2-3.4c0.8-0.8,1.9-1.2,3.3-1.2c1.3,0,2.4,0.4,3.1,1.2s1.1,1.9,1.1,3.3
		c0,1.4-0.4,2.5-1.2,3.3s-1.9,1.2-3.2,1.2s-2.4-0.4-3.2-1.2S165.6,190.3,165.6,189z M167.4,188.9c0,0.9,0.2,1.7,0.7,2.2
		s1.1,0.8,1.9,0.8c1.7,0,2.5-1,2.5-3.1c0-1-0.2-1.7-0.6-2.3c-0.4-0.5-1-0.8-1.9-0.8c-0.8,0-1.4,0.3-1.9,0.8S167.4,188,167.4,188.9z"
		/>
	<path class="st0" d="M183.2,184.6l-2.9,4.3l2.8,4.3H181l-1.5-2.6c-0.1-0.2-0.3-0.5-0.4-0.7l0,0c0,0.1-0.2,0.4-0.4,0.7l-1.6,2.6H175
		l2.9-4.3l-2.8-4.4h2.1l1.5,2.8c0.1,0.2,0.2,0.4,0.4,0.7l0,0c0.2-0.3,0.3-0.5,0.4-0.7l1.6-2.8h2.1V184.6z"/>
	<path class="st0" d="M190.5,192.9c0,1.4-0.3,2.5-0.9,3.2c-0.6,0.8-1.4,1.1-2.5,1.1c-0.4,0-0.8-0.1-1.2-0.3v-1.6
		c0.4,0.2,0.8,0.4,1.1,0.4c1.1,0,1.7-0.9,1.7-2.6v-8.6h1.8L190.5,192.9L190.5,192.9z M188.5,181.6c0-0.3,0.1-0.6,0.3-0.8
		s0.5-0.3,0.8-0.3s0.6,0.1,0.8,0.3s0.3,0.5,0.3,0.8s-0.1,0.6-0.3,0.8s-0.5,0.3-0.8,0.3s-0.6-0.1-0.8-0.3
		C188.6,182.1,188.5,181.9,188.5,181.6z"/>
	<path class="st0" d="M200.5,193.2h-1.8v-1.4l0,0c-0.6,1-1.5,1.6-2.7,1.6c-2,0-3.1-1.2-3.1-3.7v-5.2h1.8v5c0,1.6,0.6,2.4,1.9,2.4
		c0.6,0,1.1-0.2,1.5-0.7c0.4-0.4,0.6-1,0.6-1.7v-5h1.8V193.2z"/>
	<path class="st0" d="M215.9,193.2h-1.8v-5c0-0.9-0.1-1.5-0.4-1.9c-0.3-0.4-0.7-0.6-1.3-0.6c-0.5,0-1,0.2-1.3,0.7s-0.6,1.1-0.6,1.8
		v4.9h-1.8V188c0-1.5-0.6-2.3-1.8-2.3c-0.5,0-1,0.2-1.3,0.7c-0.4,0.5-0.5,1.1-0.5,1.8v4.9h-1.8v-8.6h1.8v1.4l0,0
		c0.6-1,1.5-1.6,2.7-1.6s2,0.6,2.5,1.7c0.6-1.2,1.6-1.7,2.9-1.7c1.9,0,2.8,1.2,2.8,3.5v5.4H215.9z"/>
	<path class="st0" d="M220.2,192v5.1h-1.8v-12.6h1.8v1.4l0,0c0.7-1.1,1.6-1.6,2.9-1.6c1.1,0,2,0.4,2.6,1.2s0.9,1.8,0.9,3.1
		c0,1.4-0.4,2.6-1.1,3.5c-0.7,0.9-1.7,1.3-2.9,1.3C221.6,193.4,220.8,192.9,220.2,192L220.2,192z M220.2,189.6
		c0,0.7,0.2,1.2,0.6,1.7c0.4,0.5,0.9,0.7,1.6,0.7c0.8,0,1.4-0.3,1.8-0.9s0.6-1.4,0.6-2.4c0-0.9-0.2-1.6-0.6-2.1s-0.9-0.7-1.6-0.7
		s-1.3,0.3-1.7,0.8s-0.7,1.2-0.7,1.9L220.2,189.6L220.2,189.6z"/>
	<path class="st0" d="M228.3,191.2c0.8,0.5,1.6,0.8,2.5,0.8c1.1,0,1.7-0.4,1.7-1.1c0-0.3-0.1-0.5-0.4-0.7c-0.2-0.2-0.8-0.4-1.6-0.8
		c-0.9-0.3-1.5-0.7-1.8-1.1c-0.3-0.4-0.5-0.9-0.5-1.4c0-0.8,0.3-1.4,1-1.9s1.5-0.7,2.5-0.7c0.8,0,1.5,0.1,2.1,0.4v1.6
		c-0.7-0.4-1.4-0.6-2.2-0.6c-0.5,0-0.8,0.1-1.1,0.3s-0.4,0.4-0.4,0.8c0,0.3,0.1,0.5,0.3,0.7s0.7,0.4,1.5,0.7
		c0.9,0.3,1.6,0.7,1.9,1.1c0.3,0.4,0.5,0.9,0.5,1.4c0,0.8-0.3,1.5-1,1.9c-0.7,0.5-1.5,0.7-2.6,0.7c-0.9,0-1.7-0.2-2.4-0.5V191.2z"/>
	<path class="st0" d="M239.7,189c0-1.4,0.4-2.5,1.2-3.4c0.8-0.8,1.9-1.2,3.3-1.2c1.3,0,2.4,0.4,3.1,1.2s1.1,1.9,1.1,3.3
		c0,1.4-0.4,2.5-1.2,3.3s-1.9,1.2-3.2,1.2s-2.4-0.4-3.2-1.2S239.7,190.3,239.7,189z M241.6,188.9c0,0.9,0.2,1.7,0.7,2.2
		s1.1,0.8,1.9,0.8c1.7,0,2.5-1,2.5-3.1c0-1-0.2-1.7-0.6-2.3c-0.4-0.5-1-0.8-1.9-0.8c-0.8,0-1.4,0.3-1.9,0.8S241.6,188,241.6,188.9z"
		/>
	<path class="st0" d="M257.8,184.6l-3.4,8.6h-1.9l-3.2-8.6h2l1.9,5.9c0.2,0.5,0.3,1,0.3,1.3l0,0c0-0.4,0.1-0.9,0.3-1.3l2-6
		L257.8,184.6L257.8,184.6z"/>
	<path class="st0" d="M266.3,189.4h-5.9c0.1,1.7,1,2.6,2.7,2.6c1,0,1.8-0.3,2.6-0.9v1.5c-0.8,0.5-1.8,0.8-3,0.8
		c-1.3,0-2.3-0.4-3-1.2s-1.1-1.9-1.1-3.3c0-1.3,0.4-2.4,1.2-3.3c0.8-0.9,1.8-1.3,2.9-1.3c1.2,0,2.1,0.4,2.7,1.1s1,1.8,1,3v1H266.3z
		 M264.5,188c0-0.7-0.2-1.3-0.5-1.7s-0.8-0.6-1.4-0.6c-0.6,0-1,0.2-1.5,0.6c-0.4,0.4-0.7,1-0.8,1.7H264.5z"/>
	<path class="st0" d="M273.1,186.3c-0.3-0.2-0.6-0.3-1.1-0.3c-0.6,0-1.1,0.3-1.4,0.8s-0.6,1.2-0.6,2.1v4.3h-1.8v-8.6h1.8v1.7l0,0
		c0.4-1.2,1.2-1.9,2.3-1.9c0.3,0,0.6,0,0.8,0.1V186.3z"/>
	<path class="st0" d="M283,193.1c-0.3,0.2-0.8,0.3-1.5,0.3c-1.6,0-2.5-0.9-2.5-2.7V186h-1.5v-1.5h1.5v-2l1.8-0.6v2.6h2.1v1.5h-2v4.4
		c0,0.5,0.1,0.9,0.3,1.2c0.2,0.2,0.5,0.4,0.9,0.4c0.3,0,0.6-0.1,0.9-0.3L283,193.1L283,193.1z"/>
	<path class="st0" d="M292.3,193.2h-1.8v-5c0-1.6-0.6-2.4-1.8-2.4c-0.6,0-1.1,0.2-1.5,0.7s-0.6,1.1-0.6,1.8v4.9h-1.8v-12.8h1.8v5.5
		l0,0c0.7-1.1,1.6-1.6,2.8-1.6c1.9,0,2.9,1.2,2.9,3.5L292.3,193.2L292.3,193.2z"/>
	<path class="st0" d="M301.9,189.4H296c0.1,1.7,1,2.6,2.7,2.6c1,0,1.8-0.3,2.6-0.9v1.5c-0.8,0.5-1.8,0.8-3,0.8c-1.3,0-2.3-0.4-3-1.2
		s-1.1-1.9-1.1-3.3c0-1.3,0.4-2.4,1.2-3.3c0.8-0.9,1.8-1.3,2.9-1.3c1.2,0,2.1,0.4,2.7,1.1s1,1.8,1,3v1H301.9z M300.2,188
		c0-0.7-0.2-1.3-0.5-1.7s-0.8-0.6-1.4-0.6c-0.6,0-1,0.2-1.5,0.6c-0.4,0.4-0.7,1-0.8,1.7H300.2z"/>
	<path class="st0" d="M307.8,193.2v-12.8h1.8v12.8H307.8z"/>
	<path class="st0" d="M312.5,185.1c0.9-0.5,1.9-0.8,3.1-0.8c2.2,0,3.3,1.1,3.3,3.4v5.5h-1.8v-1.3l0,0c-0.6,1-1.5,1.5-2.6,1.5
		c-0.8,0-1.5-0.2-2-0.7s-0.7-1.1-0.7-1.9c0-1.6,1-2.6,2.9-2.8l2.5-0.3c0-1.3-0.6-1.9-1.7-1.9c-1,0-2,0.3-2.9,1L312.5,185.1
		L312.5,185.1z M315.1,189.2c-0.6,0.1-1.1,0.2-1.3,0.5s-0.4,0.6-0.4,1s0.1,0.7,0.4,0.9c0.3,0.2,0.6,0.4,1.1,0.4
		c0.6,0,1.1-0.2,1.5-0.7s0.6-1,0.6-1.6v-0.8L315.1,189.2z"/>
	<path class="st0" d="M327.5,193.2h-7.3v-0.7l4.8-6.5h-4.4v-1.5h6.9v0.7l-4.8,6.5h4.7L327.5,193.2L327.5,193.2z"/>
	<path class="st0" d="M336.6,184.6l-3.8,9.8c-0.8,1.9-1.8,2.9-3.3,2.9c-0.5,0-0.8,0-1.1-0.1v-1.5c0.3,0.1,0.6,0.2,0.9,0.2
		c0.7,0,1.2-0.4,1.5-1.1l0.6-1.4l-3.4-8.6h2l2.1,6.2c0,0.1,0.1,0.4,0.2,0.8l0,0c0-0.2,0.1-0.4,0.2-0.8l2.2-6.2h1.9V184.6z"/>
	<path class="st0" d="M349.7,193.2h-1.8v-1.4l0,0c-0.6,1-1.6,1.6-2.9,1.6c-1.1,0-2-0.4-2.6-1.2s-1-1.8-1-3.2s0.4-2.6,1.1-3.4
		c0.7-0.9,1.7-1.3,2.9-1.3s2,0.4,2.5,1.3l0,0v-5.3h1.8V193.2z M347.8,188.1c0-0.7-0.2-1.2-0.6-1.6c-0.4-0.4-0.9-0.7-1.6-0.7
		c-0.7,0-1.3,0.3-1.8,0.9s-0.7,1.3-0.7,2.3c0,0.9,0.2,1.6,0.6,2.1c0.4,0.5,1,0.8,1.7,0.8s1.2-0.3,1.7-0.8c0.4-0.5,0.7-1.2,0.7-2
		L347.8,188.1L347.8,188.1z"/>
	<path class="st0" d="M351.7,189c0-1.4,0.4-2.5,1.2-3.4c0.8-0.8,1.9-1.2,3.3-1.2c1.3,0,2.4,0.4,3.1,1.2s1.1,1.9,1.1,3.3
		c0,1.4-0.4,2.5-1.2,3.3s-1.9,1.2-3.2,1.2s-2.4-0.4-3.2-1.2S351.7,190.3,351.7,189z M353.6,188.9c0,0.9,0.2,1.7,0.7,2.2
		s1.1,0.8,1.9,0.8c1.7,0,2.5-1,2.5-3.1c0-1-0.2-1.7-0.6-2.3c-0.4-0.5-1-0.8-1.9-0.8c-0.8,0-1.4,0.3-1.9,0.8S353.6,188,353.6,188.9z"
		/>
	<path class="st0" d="M370.3,192.4c0,3.2-1.6,4.9-4.9,4.9c-1.1,0-2-0.2-2.8-0.6V195c0.9,0.5,1.9,0.8,2.8,0.8c2,0,3.1-1,3.1-3.1v-0.9
		l0,0c-0.6,1.1-1.6,1.6-2.9,1.6c-1.1,0-2-0.4-2.6-1.2c-0.7-0.8-1-1.8-1-3.1c0-1.5,0.4-2.6,1.1-3.5c0.7-0.9,1.7-1.3,2.9-1.3
		c1.1,0,2,0.4,2.5,1.3l0,0v-1.1h1.8L370.3,192.4L370.3,192.4z M368.5,188.1c0-0.6-0.2-1.2-0.6-1.6s-0.9-0.7-1.6-0.7
		c-0.8,0-1.4,0.3-1.8,0.9c-0.4,0.6-0.7,1.4-0.7,2.4c0,0.9,0.2,1.6,0.6,2.1c0.4,0.5,1,0.8,1.6,0.8c0.7,0,1.3-0.3,1.7-0.8
		s0.7-1.2,0.7-2L368.5,188.1L368.5,188.1z"/>
	<path class="st0" d="M35.5,214.2h-7.1v-1.5H31V204l-2.7,0.7v-1.6l4.6-1.2v10.8h2.6L35.5,214.2L35.5,214.2z"/>
	<path class="st0" d="M44.8,214.2h-7.5v-1.5l3.5-3.5c0.8-0.8,1.4-1.4,1.7-2c0.4-0.6,0.6-1.2,0.6-1.8c0-1.3-0.7-2-2.1-2
		c-1.1,0-2.1,0.4-3.1,1.3v-1.8c1-0.7,2.1-1.1,3.4-1.1c1.1,0,2,0.3,2.7,0.9c0.7,0.6,1,1.4,1,2.4c0,0.7-0.2,1.5-0.6,2.2
		c-0.4,0.7-1.1,1.6-2.2,2.6l-2.7,2.6l0,0h5.4v1.7H44.8z"/>
	<path class="st0" d="M47.1,212c0.8,0.6,1.8,0.9,2.8,0.9c0.8,0,1.4-0.2,1.9-0.6c0.5-0.4,0.7-0.9,0.7-1.5c0-1.4-1-2.1-3.1-2.1h-1
		v-1.5h1c1.8,0,2.8-0.7,2.8-2c0-1.2-0.7-1.9-2.1-1.9c-0.8,0-1.6,0.3-2.4,0.8v-1.6c0.8-0.5,1.7-0.7,2.8-0.7c1,0,1.9,0.3,2.6,0.8
		s1,1.2,1,2.1c0,1.6-0.8,2.6-2.4,3l0,0c0.9,0.1,1.5,0.4,2.1,0.9s0.8,1.2,0.8,1.9c0,1.1-0.4,2-1.2,2.7s-1.9,1-3.2,1
		c-1.2,0-2.1-0.2-2.8-0.6V212H47.1z"/>
	<path class="st0" d="M64.5,211.2H63v3h-1.7v-3h-5.5V210l5.3-7.9h2v7.7h1.5L64.5,211.2L64.5,211.2z M61.2,209.8v-4.7
		c0-0.4,0-0.8,0-1.2l0,0c-0.1,0.3-0.3,0.6-0.5,0.9l-3.3,5H61.2z"/>
	<path class="st0" d="M66.4,212.1c0.8,0.5,1.7,0.8,2.6,0.8c0.8,0,1.4-0.2,1.9-0.6c0.5-0.4,0.7-1,0.7-1.7c0-1.5-1-2.3-2.9-2.3
		c-0.5,0-1.1,0-1.9,0.1v-6.3h6.1v1.6h-4.5v3.1c0.5,0,0.8,0,1,0c1.2,0,2.2,0.3,2.9,1c0.7,0.6,1.1,1.5,1.1,2.7s-0.4,2.2-1.2,2.9
		s-1.9,1.1-3.2,1.1c-1.1,0-2-0.2-2.7-0.5v-1.9H66.4z"/>
	<path class="st0" d="M82.7,203.9c-0.6-0.3-1.3-0.5-2-0.5c-1,0-1.9,0.4-2.5,1.3s-0.9,2-0.9,3.4l0,0c0.6-1,1.5-1.6,2.7-1.6
		c1,0,1.9,0.3,2.5,1s0.9,1.6,0.9,2.7c0,1.2-0.4,2.2-1.1,2.9c-0.7,0.8-1.7,1.2-2.8,1.2c-1.3,0-2.3-0.5-3-1.5s-1-2.3-1-4.1
		c0-2,0.5-3.7,1.4-5s2.2-1.9,3.8-1.9c0.9,0,1.6,0.1,2.1,0.3v1.8H82.7z M77.4,210.2c0,0.8,0.2,1.4,0.6,1.9c0.4,0.5,0.9,0.8,1.5,0.8
		s1.1-0.2,1.5-0.7s0.6-1.1,0.6-1.8c0-0.8-0.2-1.4-0.5-1.8c-0.4-0.4-0.9-0.6-1.5-0.6s-1.1,0.2-1.5,0.6S77.4,209.6,77.4,210.2z"/>
	<path class="st0" d="M92.9,202.8l-4.6,11.4h-1.9l4.5-10.5H85v-1.6h8L92.9,202.8L92.9,202.8z"/>
	<path class="st0" d="M97,207.8c-1.4-0.6-2.1-1.6-2.1-2.9c0-0.9,0.4-1.7,1.1-2.2c0.7-0.6,1.6-0.8,2.6-0.8s1.8,0.3,2.5,0.8
		s1,1.2,1,2.1c0,1.3-0.8,2.3-2.3,3l0,0c1.8,0.6,2.6,1.7,2.6,3.2c0,1.1-0.4,1.9-1.1,2.5s-1.8,0.9-3.1,0.9c-1.1,0-2-0.3-2.7-0.9
		c-0.7-0.6-1.1-1.4-1.1-2.3C94.4,209.7,95.3,208.6,97,207.8L97,207.8z M98.3,208.7c-1.4,0.6-2.1,1.4-2.1,2.4c0,0.6,0.2,1,0.6,1.4
		c0.4,0.3,0.9,0.5,1.6,0.5c0.6,0,1.1-0.2,1.6-0.5c0.4-0.3,0.6-0.8,0.6-1.3C100.6,210,99.8,209.2,98.3,208.7z M100.2,205
		c0-0.5-0.2-0.9-0.5-1.2s-0.7-0.4-1.3-0.4c-0.5,0-0.9,0.2-1.3,0.5s-0.5,0.7-0.5,1.2c0,0.9,0.6,1.7,1.8,2.1
		C99.6,206.6,100.2,205.9,100.2,205z"/>
	<path class="st0" d="M104.6,212.3c0.7,0.4,1.4,0.6,2.2,0.6c1.1,0,1.9-0.4,2.4-1.2c0.6-0.8,0.9-1.9,0.9-3.4l0,0
		c-0.5,0.9-1.4,1.4-2.6,1.4c-1,0-1.9-0.4-2.5-1.1c-0.7-0.7-1-1.6-1-2.7c0-1.2,0.4-2.2,1.1-3s1.7-1.2,2.9-1.2c1.3,0,2.2,0.5,2.9,1.5
		s1,2.3,1,4.1c0,2.2-0.4,3.9-1.3,5.1c-0.9,1.2-2.1,1.8-3.7,1.8c-0.9,0-1.6-0.1-2.3-0.4L104.6,212.3L104.6,212.3z M105.7,205.8
		c0,0.8,0.2,1.3,0.6,1.8s0.9,0.7,1.6,0.7c0.6,0,1.1-0.2,1.5-0.6c0.4-0.4,0.6-0.9,0.6-1.5c0-0.8-0.2-1.4-0.6-2
		c-0.4-0.5-0.9-0.8-1.6-0.8c-0.6,0-1.1,0.2-1.5,0.7C105.9,204.6,105.7,205.1,105.7,205.8z"/>
	<path class="st0" d="M113.4,208.4c0-2.1,0.4-3.7,1.1-4.8s1.8-1.6,3.2-1.6c2.6,0,3.9,2.1,3.9,6.2c0,2-0.4,3.6-1.1,4.7
		s-1.8,1.6-3.1,1.6s-2.3-0.5-3-1.5S113.4,210.3,113.4,208.4z M115.2,208.3c0,3.1,0.7,4.6,2.2,4.6s2.2-1.6,2.2-4.7
		c0-3.2-0.7-4.8-2.2-4.8C116,203.4,115.2,205,115.2,208.3z"/>
	<path class="st0" d="M123.6,213.3c0-0.3,0.1-0.6,0.3-0.8s0.5-0.3,0.8-0.3s0.6,0.1,0.8,0.3s0.3,0.5,0.3,0.8s-0.1,0.6-0.3,0.8
		s-0.5,0.3-0.8,0.3s-0.6-0.1-0.9-0.3C123.8,213.8,123.6,213.6,123.6,213.3z M125.7,202.1l-0.2,8.6H124l-0.2-8.6H125.7z"/>
	<path class="st0" d="M141.3,205.2c-0.3,2.8-0.4,4.3-0.4,4.7c0,1,0.3,1.5,0.9,1.5c0.6,0,1-0.3,1.4-1c0.4-0.6,0.5-1.5,0.5-2.5
		c0-1.5-0.5-2.7-1.4-3.6c-0.9-0.9-2.2-1.4-3.9-1.4c-1.6,0-3,0.6-4.1,1.7s-1.6,2.6-1.6,4.3s0.5,3,1.5,4s2.4,1.5,4.1,1.5
		c1.3,0,2.5-0.2,3.5-0.7v1.2c-1,0.4-2.2,0.6-3.7,0.6c-2,0-3.7-0.6-5-1.8s-1.9-2.8-1.9-4.8c0-2.1,0.7-3.8,2-5.1
		c1.3-1.4,3.1-2.1,5.1-2.1c1.9,0,3.5,0.6,4.8,1.7c1.3,1.1,1.9,2.6,1.9,4.4c0,1.4-0.4,2.5-1.1,3.4c-0.7,0.9-1.6,1.3-2.6,1.3
		c-1.2,0-1.9-0.6-1.9-1.9l0,0c-0.4,1.2-1.2,1.9-2.3,1.9c-0.8,0-1.4-0.3-1.9-0.8c-0.5-0.6-0.7-1.3-0.7-2.3c0-1.3,0.3-2.3,1-3.2
		s1.5-1.2,2.5-1.2c0.4,0,0.7,0.1,1.1,0.3c0.3,0.2,0.5,0.4,0.6,0.8l0,0l0.1-0.9L141.3,205.2L141.3,205.2z M136.1,209.5
		c0,0.6,0.1,1.1,0.4,1.5s0.6,0.5,1.1,0.5c0.6,0,1.1-0.3,1.5-1s0.6-1.5,0.6-2.6s-0.5-1.7-1.4-1.7c-0.6,0-1.1,0.3-1.5,1
		S136.1,208.6,136.1,209.5z"/>
	<path class="st0" d="M156.3,205.4l-0.2,1.1h-2l-0.5,2.4h2.1l-0.3,1.1h-2.1l-0.7,3.2h-1.3l0.7-3.2h-2l-0.7,3.2H148l0.7-3.2h-2
		l0.2-1.1h2l0.5-2.4h-2.1l0.2-1.1h2.1l0.7-3.2h1.3l-0.7,3.2h2.1l0.7-3.2h1.3l-0.7,3.2H156.3z M152.8,206.5h-2.1l-0.5,2.4h2.1
		L152.8,206.5z"/>
	<path class="st0" d="M162,216h-1v-1.8c-1.2,0-2.2-0.2-3-0.7v-1.8c0.3,0.3,0.8,0.5,1.4,0.7c0.6,0.2,1.1,0.3,1.6,0.3v-3.9
		c-1.2-0.5-2-1-2.5-1.6s-0.7-1.2-0.7-1.9c0-0.8,0.3-1.5,0.9-2.2c0.6-0.6,1.3-1,2.2-1.1v-1.5h1v1.5c1.1,0,1.9,0.2,2.4,0.5v1.7
		c-0.7-0.5-1.5-0.7-2.4-0.8v4c1.1,0.5,2,1,2.5,1.5s0.7,1.2,0.7,1.9c0,0.8-0.3,1.6-0.8,2.1c-0.6,0.6-1.3,0.9-2.3,1L162,216L162,216z
		 M161,203.6c-0.9,0.2-1.4,0.7-1.4,1.6c0,0.4,0.1,0.7,0.3,1s0.6,0.6,1.1,0.9L161,203.6L161,203.6z M162,212.7c1-0.2,1.5-0.7,1.5-1.6
		c0-0.7-0.5-1.3-1.5-1.8V212.7z"/>
	<path class="st0" d="M166.9,205.2c0-1,0.3-1.8,0.8-2.4s1.3-0.9,2.2-0.9s1.6,0.3,2,0.8c0.5,0.5,0.7,1.3,0.7,2.2c0,1-0.3,1.7-0.8,2.3
		s-1.3,0.9-2.1,0.9s-1.5-0.3-2-0.8C167.1,206.8,166.9,206.1,166.9,205.2z M168.2,205.1c0,0.6,0.1,1.1,0.4,1.5s0.6,0.5,1.1,0.5
		c1,0,1.5-0.7,1.5-2s-0.5-2-1.5-2c-0.5,0-0.9,0.2-1.1,0.5C168.4,203.9,168.2,204.4,168.2,205.1z M178,202.1l-7.8,12.2h-1.5l7.8-12.2
		H178z M174.2,211.4c0-1,0.3-1.8,0.8-2.4c0.5-0.6,1.3-0.9,2.1-0.9c0.9,0,1.6,0.3,2,0.8c0.5,0.5,0.7,1.3,0.7,2.3s-0.3,1.7-0.8,2.3
		s-1.3,0.9-2.1,0.9s-1.5-0.3-2-0.8C174.4,213,174.2,212.2,174.2,211.4z M175.5,211.3c0,0.6,0.1,1.1,0.4,1.5c0.3,0.3,0.6,0.5,1.1,0.5
		c1,0,1.5-0.7,1.5-2c0-0.6-0.1-1.1-0.4-1.5c-0.3-0.3-0.6-0.5-1.1-0.5C176.1,209.2,175.5,209.9,175.5,211.3z"/>
	<path class="st0" d="M190.7,209h-1.5l-2.7-5.1l0,0L184,209h-1.5l3.6-7.1h0.8L190.7,209z"/>
	<path class="st0" d="M202.1,212.7c-1.2,1.2-2.6,1.7-4.4,1.7c-1.3,0-2.3-0.3-3.1-0.9c-0.8-0.6-1.2-1.5-1.2-2.6c0-1.6,1-2.8,2.9-3.6
		c-0.9-0.7-1.4-1.6-1.4-2.5c0-0.8,0.3-1.5,0.9-2c0.6-0.5,1.4-0.8,2.4-0.8c0.9,0,1.7,0.2,2.3,0.7s0.9,1.1,0.9,1.9
		c0,1.2-0.8,2.2-2.2,2.8c1.2,0.5,2.2,1.4,3.2,2.9c0.9-1.2,1.3-2.6,1.3-4.3c0-0.4-0.1-0.8-0.2-1.2h1.7c0.1,0.3,0.1,0.7,0.1,1.1
		c0,2-0.7,3.8-2.1,5.6c0.4,0.5,0.7,0.9,1,1.1c0.3,0.2,0.6,0.3,1,0.3s0.8-0.1,1.2-0.3v1.5c-0.5,0.2-1,0.3-1.5,0.3s-1-0.1-1.4-0.4
		S202.6,213.3,202.1,212.7z M201.2,211.4c-1.1-1.7-2.3-2.8-3.7-3.4c-1.5,0.6-2.2,1.5-2.2,2.7c0,0.7,0.2,1.2,0.7,1.6
		c0.5,0.4,1,0.6,1.8,0.6C199.1,212.9,200.3,212.4,201.2,211.4z M197.8,206.5c1.2-0.4,1.9-1.1,1.9-1.9c0-0.4-0.1-0.8-0.4-1
		c-0.3-0.3-0.6-0.4-1.1-0.4s-0.9,0.1-1.2,0.4c-0.3,0.3-0.5,0.6-0.5,1.1C196.6,205.5,197,206.1,197.8,206.5z"/>
	<path class="st0" d="M213.5,205l-2.3,0.4l1.6,2l-1.1,0.8l-1.3-2.2l-1.3,2.2l-1.1-0.8l1.6-2l-2.3-0.4l0.5-1.3l2.2,0.9l-0.3-2.5h1.5
		l-0.3,2.5l2.2-0.9L213.5,205z"/>
	<path class="st0" d="M218,216.9c-1.8-2-2.6-4.5-2.6-7.4s0.9-5.4,2.6-7.5h1.6c-1.7,2.2-2.6,4.7-2.6,7.5s0.9,5.2,2.6,7.4H218z"/>
	<path class="st0" d="M219.9,216.9c1.7-2.1,2.6-4.6,2.6-7.4c0-2.8-0.9-5.3-2.6-7.5h1.6c1.8,2.1,2.7,4.6,2.7,7.5s-0.9,5.4-2.7,7.4
		H219.9z"/>
	<path class="st0" d="M232.5,216.7h-7.2v-1h7.2V216.7z"/>
	<path class="st1" d="M28.5,143.2v-12.9h4.1c0.8,0,1.5,0.1,2,0.2c0.6,0.2,1,0.4,1.4,0.7s0.6,0.6,0.8,1.1c0.2,0.4,0.3,0.9,0.3,1.4
		c0,0.3,0,0.6-0.1,0.9c-0.1,0.3-0.2,0.6-0.5,0.8s-0.5,0.5-0.8,0.7s-0.7,0.4-1.1,0.5c0.9,0.2,1.7,0.5,2.1,1c0.5,0.5,0.7,1.1,0.7,1.9
		c0,0.5-0.1,1-0.3,1.5s-0.5,0.8-0.9,1.2c-0.4,0.3-0.9,0.6-1.4,0.8s-1.2,0.3-1.9,0.3h-4.4V143.2z M30.2,136.1h2.3
		c0.5,0,0.9-0.1,1.3-0.2c0.4-0.1,0.7-0.3,0.9-0.5s0.4-0.4,0.5-0.7s0.2-0.6,0.2-0.9c0-0.8-0.2-1.3-0.7-1.7s-1.2-0.5-2.1-0.5h-2.4
		V136.1z M30.2,137.3v4.5H33c0.5,0,0.9-0.1,1.3-0.2c0.4-0.1,0.7-0.3,0.9-0.5s0.4-0.5,0.5-0.7s0.2-0.6,0.2-0.9c0-0.7-0.2-1.2-0.7-1.6
		c-0.5-0.4-1.2-0.6-2.1-0.6H30.2z"/>
	<path class="st1" d="M43.5,133.9c0.7,0,1.3,0.1,1.8,0.3s1,0.5,1.4,0.9s0.7,0.9,0.9,1.5s0.3,1.2,0.3,1.9s-0.1,1.4-0.3,1.9
		c-0.2,0.6-0.5,1.1-0.9,1.5s-0.8,0.7-1.4,0.9c-0.5,0.2-1.1,0.3-1.8,0.3s-1.3-0.1-1.8-0.3s-1-0.5-1.4-0.9s-0.7-0.9-0.9-1.5
		s-0.3-1.2-0.3-1.9s0.1-1.4,0.3-1.9c0.2-0.6,0.5-1.1,0.9-1.5s0.8-0.7,1.4-0.9S42.9,133.9,43.5,133.9z M43.5,142.1
		c0.9,0,1.6-0.3,2-0.9c0.4-0.6,0.7-1.4,0.7-2.5s-0.2-1.9-0.7-2.5c-0.4-0.6-1.1-0.9-2-0.9c-0.5,0-0.9,0.1-1.2,0.2
		c-0.3,0.2-0.6,0.4-0.8,0.7s-0.4,0.7-0.5,1.1c-0.1,0.4-0.2,0.9-0.2,1.5s0.1,1,0.2,1.4c0.1,0.4,0.3,0.8,0.5,1.1s0.5,0.5,0.8,0.7
		C42.7,142,43.1,142.1,43.5,142.1z"/>
	<path class="st1" d="M51.7,129.9v13.3h-1.6v-13.3H51.7z"/>
	<path class="st1" d="M60.9,143.2c-0.2,0-0.4-0.1-0.4-0.3l-0.1-1.1c-0.4,0.5-0.8,0.9-1.3,1.1c-0.5,0.3-1.1,0.4-1.7,0.4
		c-0.5,0-1-0.1-1.4-0.3s-0.8-0.5-1.1-0.9s-0.5-0.9-0.7-1.5s-0.2-1.3-0.2-2s0.1-1.3,0.3-1.9s0.4-1.1,0.8-1.5c0.3-0.4,0.8-0.8,1.2-1
		c0.5-0.2,1-0.4,1.7-0.4c0.6,0,1,0.1,1.4,0.3s0.8,0.5,1.1,0.8v-5.1h1.6v13.4H60.9z M57.8,142c0.5,0,1-0.1,1.4-0.4
		c0.4-0.2,0.8-0.6,1.1-1v-4.4c-0.3-0.4-0.6-0.7-1-0.8c-0.4-0.2-0.7-0.2-1.2-0.2c-0.9,0-1.5,0.3-2,0.9c-0.5,0.6-0.7,1.5-0.7,2.6
		c0,0.6,0.1,1.1,0.2,1.5c0.1,0.4,0.3,0.8,0.5,1c0.2,0.3,0.4,0.5,0.7,0.6C57.1,142,57.4,142,57.8,142z"/>
</g>
</svg>
