<svg xmlns="http://www.w3.org/2000/svg" viewBox="0 0 400 80"><defs><style>.a{fill:#9b9b9b;}.b{fill:#4a4a4a;}</style></defs><title>forms</title><path class="a" d="M19.85,19.8V6.9h1.7v5.3h6.7V6.9H30V19.8h-1.7V13.7h-6.7v6.1h-1.7Z"/><path class="a" d="M38.75,18.6a8.16,8.16,0,0,1-1.7,1.1,3.42,3.42,0,0,1-1.7.3,3.65,3.65,0,0,1-2.4-.8,2.24,2.24,0,0,1-.8-1.9,2.77,2.77,0,0,1,.3-1.3,2.36,2.36,0,0,1,.8-0.9,3.7,3.7,0,0,1,1.1-.5,4.64,4.64,0,0,1,1.4-.2,21.22,21.22,0,0,0,2.8-.5V13.5a2,2,0,0,0-.4-1.4,2.43,2.43,0,0,0-1.8-.5,2.36,2.36,0,0,0-1.6.4,3,3,0,0,0-.8,1.4l-1.5-.2a3.38,3.38,0,0,1,.7-1.6,2.84,2.84,0,0,1,1.4-.9,6.65,6.65,0,0,1,2.1-.3,5,5,0,0,1,1.9.3,2.33,2.33,0,0,1,1.1.7,2.81,2.81,0,0,1,.5,1.1,5.76,5.76,0,0,1,.1,1.5v2.1a17.21,17.21,0,0,0,.1,2.8,3.58,3.58,0,0,0,.4,1.1h-1.7A3.53,3.53,0,0,1,38.75,18.6Zm-0.2-3.5a17.14,17.14,0,0,1-2.6.6,7.83,7.83,0,0,0-1.4.3,1,1,0,0,0-.6.5,1.88,1.88,0,0,0-.2.8,1.61,1.61,0,0,0,.5,1.1,2,2,0,0,0,1.4.4,2.73,2.73,0,0,0,1.6-.4,2.66,2.66,0,0,0,1-1.1,3.51,3.51,0,0,0,.3-1.6V15.1h0Z"/><path class="a" d="M42.65,23.4V10.5h1.4v1.2a3.18,3.18,0,0,1,1.2-1.1,3.41,3.41,0,0,1,1.6-.4,3.7,3.7,0,0,1,2.1.6,3.91,3.91,0,0,1,1.4,1.7,6.55,6.55,0,0,1,.5,2.5,7.08,7.08,0,0,1-.5,2.6,3.35,3.35,0,0,1-1.5,1.8,3.94,3.94,0,0,1-2.1.6,3.19,3.19,0,0,1-1.4-.3,2.72,2.72,0,0,1-1-.8v4.5h-1.7Zm1.4-8.2a4.15,4.15,0,0,0,.7,2.7,2.25,2.25,0,0,0,3.6,0,4.25,4.25,0,0,0,.8-2.8,4.15,4.15,0,0,0-.7-2.7,2.25,2.25,0,0,0-3.6,0A4.65,4.65,0,0,0,44.05,15.2Z"/><path class="a" d="M52.65,23.4V10.5h1.4v1.2a3.18,3.18,0,0,1,1.2-1.1,3.41,3.41,0,0,1,1.6-.4,3.7,3.7,0,0,1,2.1.6,3.91,3.91,0,0,1,1.4,1.7,6.55,6.55,0,0,1,.5,2.5,7.08,7.08,0,0,1-.5,2.6,3.35,3.35,0,0,1-1.5,1.8,3.94,3.94,0,0,1-2.1.6,3.19,3.19,0,0,1-1.4-.3,2.72,2.72,0,0,1-1-.8v4.5h-1.7Zm1.4-8.2a4.15,4.15,0,0,0,.7,2.7,2.25,2.25,0,0,0,3.6,0,4.25,4.25,0,0,0,.8-2.8,4.15,4.15,0,0,0-.7-2.7,2.25,2.25,0,0,0-3.6,0A4.65,4.65,0,0,0,54.05,15.2Z"/><path class="a" d="M62.65,8.7V6.9h1.6V8.7h-1.6Zm0,11.1V10.5h1.6v9.3h-1.6Z"/><path class="a" d="M66.65,19.8V10.5h1.4v1.3a3.44,3.44,0,0,1,3-1.5,4.15,4.15,0,0,1,1.6.3,3.13,3.13,0,0,1,1.1.8,2.19,2.19,0,0,1,.5,1.2,5.76,5.76,0,0,1,.1,1.5v5.7h-1.6V14.1a4.64,4.64,0,0,0-.2-1.4,1.34,1.34,0,0,0-.7-0.8,2,2,0,0,0-1.1-.3,2.35,2.35,0,0,0-1.7.6,3,3,0,0,0-.7,2.4v5.1h-1.7v0.1Z"/><path class="a" d="M83.05,16.8l1.6,0.2a3.84,3.84,0,0,1-1.4,2.2,4.55,4.55,0,0,1-2.7.8,3.94,3.94,0,0,1-3.2-1.3,4.79,4.79,0,0,1-1.2-3.5,5.31,5.31,0,0,1,1.2-3.7,4.35,4.35,0,0,1,6.2,0,5.05,5.05,0,0,1,1.2,3.6v0.4h-7a3.7,3.7,0,0,0,.9,2.4,2.57,2.57,0,0,0,2,.8A2.44,2.44,0,0,0,83.05,16.8Zm-5.2-2.6h5.2a3.8,3.8,0,0,0-.6-1.8,2.52,2.52,0,0,0-2-.9,2.41,2.41,0,0,0-1.8.7A4.45,4.45,0,0,0,77.85,14.2Z"/><path class="a" d="M86.05,17l1.6-.2a2.1,2.1,0,0,0,.7,1.4,2.86,2.86,0,0,0,1.7.5,2.36,2.36,0,0,0,1.6-.4,1.39,1.39,0,0,0,.5-1,0.89,0.89,0,0,0-.5-0.8,10.42,10.42,0,0,0-1.6-.5,8.06,8.06,0,0,1-2.4-.8,2.19,2.19,0,0,1-1-.9,2.77,2.77,0,0,1-.3-1.3,2.66,2.66,0,0,1,.3-1.2,3.45,3.45,0,0,1,.8-0.9,4.61,4.61,0,0,1,1-.5,5.9,5.9,0,0,1,1.4-.2,5.41,5.41,0,0,1,1.9.3,1.93,1.93,0,0,1,1.2.9,2.92,2.92,0,0,1,.5,1.4L92,13a1.68,1.68,0,0,0-.6-1.1,2,2,0,0,0-1.4-.4,2.54,2.54,0,0,0-1.6.4,0.92,0.92,0,0,0-.5.8,1.42,1.42,0,0,0,.2.6,0.92,0.92,0,0,0,.6.4,9.31,9.31,0,0,0,1.4.4,17,17,0,0,1,2.3.7,2.72,2.72,0,0,1,1,.8,2.59,2.59,0,0,1,.4,1.4,3,3,0,0,1-.5,1.5A3.48,3.48,0,0,1,92,19.6a4.21,4.21,0,0,1-2,.4,4.65,4.65,0,0,1-2.8-.8A3.8,3.8,0,0,1,86.05,17Z"/><path class="a" d="M95.05,17l1.6-.2a2.1,2.1,0,0,0,.7,1.4,2.86,2.86,0,0,0,1.7.5,2.36,2.36,0,0,0,1.6-.4,1.39,1.39,0,0,0,.5-1,0.89,0.89,0,0,0-.5-0.8,10.42,10.42,0,0,0-1.6-.5,8.06,8.06,0,0,1-2.4-.8,2.19,2.19,0,0,1-1-.9,2.77,2.77,0,0,1-.3-1.3,2.66,2.66,0,0,1,.3-1.2,3.45,3.45,0,0,1,.8-0.9,4.61,4.61,0,0,1,1-.5,5.9,5.9,0,0,1,1.4-.2,5.41,5.41,0,0,1,1.9.3,1.93,1.93,0,0,1,1.2.9,2.92,2.92,0,0,1,.5,1.4L101,13a1.68,1.68,0,0,0-.6-1.1,2,2,0,0,0-1.4-.4,2.54,2.54,0,0,0-1.6.4,0.92,0.92,0,0,0-.5.8,1.42,1.42,0,0,0,.2.6,0.92,0.92,0,0,0,.6.4,9.31,9.31,0,0,0,1.4.4,17,17,0,0,1,2.3.7,2.72,2.72,0,0,1,1,.8,2.59,2.59,0,0,1,.4,1.4,3,3,0,0,1-.5,1.5,3.48,3.48,0,0,1-1.3,1.1,4.21,4.21,0,0,1-2,.4,4.65,4.65,0,0,1-2.8-.8A3.8,3.8,0,0,1,95.05,17Z"/><path class="a" d="M111.45,19.8l-2.9-9.3h1.6l1.5,5.4,0.6,2c0-.1.2-0.7,0.5-1.9l1.5-5.5h1.6l1.4,5.4,0.5,1.8,0.5-1.8,1.6-5.4h1.5l-2.9,9.3h-1.6l-1.5-5.6L115,12.6l-1.9,7.2h-1.6Z"/><path class="a" d="M122.65,8.7V6.9h1.6V8.7h-1.6Zm0,11.1V10.5h1.6v9.3h-1.6Z"/><path class="a" d="M126.65,19.8V6.9h1.6V19.8h-1.6Z"/><path class="a" d="M130.65,19.8V6.9h1.6V19.8h-1.6Z"/><path class="a" d="M139.65,19.8V10.5h1.4v1.3a3.44,3.44,0,0,1,3-1.5,4.15,4.15,0,0,1,1.6.3,3.13,3.13,0,0,1,1.1.8,2.19,2.19,0,0,1,.5,1.2,5.76,5.76,0,0,1,.1,1.5v5.7h-1.6V14.1a4.64,4.64,0,0,0-.2-1.4,1.34,1.34,0,0,0-.7-0.8,2,2,0,0,0-1.1-.3,2.35,2.35,0,0,0-1.7.6,3,3,0,0,0-.7,2.4v5.1h-1.7v0.1Z"/><path class="a" d="M156.05,16.8l1.6,0.2a3.84,3.84,0,0,1-1.4,2.2,4.55,4.55,0,0,1-2.7.8,3.94,3.94,0,0,1-3.2-1.3,4.79,4.79,0,0,1-1.2-3.5,5.31,5.31,0,0,1,1.2-3.7,4.35,4.35,0,0,1,6.2,0,5.05,5.05,0,0,1,1.2,3.6v0.4h-7a3.7,3.7,0,0,0,.9,2.4,2.57,2.57,0,0,0,2,.8A2.44,2.44,0,0,0,156.05,16.8Zm-5.2-2.6h5.2a3.8,3.8,0,0,0-.6-1.8,2.52,2.52,0,0,0-2-.9,2.41,2.41,0,0,0-1.8.7A4.45,4.45,0,0,0,150.85,14.2Z"/><path class="a" d="M162.35,19.8l-3.6-9.3h1.7l2,5.6c0.2,0.6.4,1.2,0.6,1.9a9.42,9.42,0,0,1,.6-1.8l2.1-5.7h1.6l-3.5,9.3h-1.5Z"/><path class="a" d="M175.05,16.8l1.6,0.2a3.84,3.84,0,0,1-1.4,2.2,4.55,4.55,0,0,1-2.7.8,3.94,3.94,0,0,1-3.2-1.3,4.79,4.79,0,0,1-1.2-3.5,5.31,5.31,0,0,1,1.2-3.7,4.35,4.35,0,0,1,6.2,0,5.05,5.05,0,0,1,1.2,3.6v0.4h-7a3.7,3.7,0,0,0,.9,2.4,2.57,2.57,0,0,0,2,.8A2.44,2.44,0,0,0,175.05,16.8ZM170,14.2h5.2a3.8,3.8,0,0,0-.6-1.8,2.52,2.52,0,0,0-2-.9,2.41,2.41,0,0,0-1.8.7A3,3,0,0,0,170,14.2Z"/><path class="a" d="M178.75,19.8V10.5h1.4v1.4a3.85,3.85,0,0,1,1-1.3,1.69,1.69,0,0,1,1-.3,3.32,3.32,0,0,1,1.6.5l-0.5,1.5a2.66,2.66,0,0,0-1.2-.3,1.4,1.4,0,0,0-.9.3,2,2,0,0,0-.6.9,5.66,5.66,0,0,0-.3,1.8v4.9h-1.5V19.8Z"/><path class="a" d="M195.85,16.4l1.6,0.2a4,4,0,0,1-1.3,2.5,3.92,3.92,0,0,1-2.6.9,3.87,3.87,0,0,1-3.1-1.3,4.89,4.89,0,0,1-1.2-3.6,6.69,6.69,0,0,1,.5-2.6,3.53,3.53,0,0,1,1.5-1.7,4.28,4.28,0,0,1,2.2-.6,4.15,4.15,0,0,1,2.5.8,2.87,2.87,0,0,1,1.2,2.2l-1.5.2a2.19,2.19,0,0,0-.8-1.4,2.11,2.11,0,0,0-1.3-.5,2.32,2.32,0,0,0-1.9.9,4.15,4.15,0,0,0-.7,2.7,3.81,3.81,0,0,0,.7,2.7,2.65,2.65,0,0,0,1.9.9,2.45,2.45,0,0,0,1.6-.6A2.68,2.68,0,0,0,195.85,16.4Z"/><path class="a" d="M198.15,15.1a4.91,4.91,0,0,1,1.4-3.8,4.27,4.27,0,0,1,2.9-1,3.87,3.87,0,0,1,3.1,1.3,5,5,0,0,1,1.2,3.5,7,7,0,0,1-.5,2.8,4.1,4.1,0,0,1-1.6,1.6,4.38,4.38,0,0,1-2.3.6,4.08,4.08,0,0,1-3.2-1.3A6.51,6.51,0,0,1,198.15,15.1Zm1.6,0a4.14,4.14,0,0,0,.8,2.7,2.52,2.52,0,0,0,2,.9,2.66,2.66,0,0,0,2-.9,3.65,3.65,0,0,0,.8-2.7,3.84,3.84,0,0,0-.8-2.6,2.52,2.52,0,0,0-2-.9,2.66,2.66,0,0,0-2,.9A3.39,3.39,0,0,0,199.75,15.1Z"/><path class="a" d="M208.75,19.8V10.5h1.4v1.3a3.18,3.18,0,0,1,1.2-1.1,3.06,3.06,0,0,1,1.7-.4,2.86,2.86,0,0,1,1.7.4,2.15,2.15,0,0,1,.9,1.2,3.26,3.26,0,0,1,2.9-1.6,2.86,2.86,0,0,1,2.1.8,3.29,3.29,0,0,1,.7,2.4v6.4h-1.6V14a4.63,4.63,0,0,0-.2-1.4,1.34,1.34,0,0,0-.6-0.7,1.61,1.61,0,0,0-.9-0.3,1.86,1.86,0,0,0-1.6.7,2.92,2.92,0,0,0-.7,2.1v5.4h-1.6V13.7a2.54,2.54,0,0,0-.4-1.6,1.43,1.43,0,0,0-1.3-.5,1.75,1.75,0,0,0-1.2.4,1.59,1.59,0,0,0-.8,1,7.66,7.66,0,0,0-.3,2v4.8h-1.4Z"/><path class="a" d="M230.15,16.8l1.6,0.2a3.84,3.84,0,0,1-1.4,2.2,4.55,4.55,0,0,1-2.7.8,3.94,3.94,0,0,1-3.2-1.3,4.79,4.79,0,0,1-1.2-3.5,5.31,5.31,0,0,1,1.2-3.7,4.35,4.35,0,0,1,6.2,0,5.05,5.05,0,0,1,1.2,3.6v0.4h-7a3.7,3.7,0,0,0,.9,2.4,2.57,2.57,0,0,0,2,.8,2.46,2.46,0,0,0,1.5-.5A3.08,3.08,0,0,0,230.15,16.8ZM225,14.2h5.2a3.8,3.8,0,0,0-.6-1.8,2.52,2.52,0,0,0-2-.9,2.41,2.41,0,0,0-1.8.7A3,3,0,0,0,225,14.2Z"/><path class="a" d="M242.15,18.4l0.2,1.4a4.87,4.87,0,0,1-1.2.1,2.27,2.27,0,0,1-1.3-.3,2.34,2.34,0,0,1-.7-0.7A4.21,4.21,0,0,1,239,17V11.6h-1.2V10.4H239V8.1l1.6-.9v3.3h1.6v1.2h-1.6v5.5a2,2,0,0,0,.1.9,0.85,0.85,0,0,0,.3.3,0.75,0.75,0,0,0,.5.1A1.48,1.48,0,0,1,242.15,18.4Z"/><path class="a" d="M243.15,15.1a4.9,4.9,0,0,1,1.4-3.8,4.27,4.27,0,0,1,2.9-1,3.87,3.87,0,0,1,3.1,1.3,5,5,0,0,1,1.2,3.5,7,7,0,0,1-.5,2.8,4.1,4.1,0,0,1-1.6,1.6,4.38,4.38,0,0,1-2.3.6,4.08,4.08,0,0,1-3.2-1.3A6.51,6.51,0,0,1,243.15,15.1Zm1.6,0a4.14,4.14,0,0,0,.8,2.7,2.52,2.52,0,0,0,2,.9,2.66,2.66,0,0,0,2-.9,3.65,3.65,0,0,0,.8-2.7,3.84,3.84,0,0,0-.8-2.6,2.52,2.52,0,0,0-2-.9,2.66,2.66,0,0,0-2,.9A3.39,3.39,0,0,0,244.75,15.1Z"/><path class="a" d="M262.15,18.4l0.2,1.4a4.87,4.87,0,0,1-1.2.1,2.27,2.27,0,0,1-1.3-.3,2.34,2.34,0,0,1-.7-0.7A4.21,4.21,0,0,1,259,17V11.6h-1.2V10.4H259V8.1l1.6-.9v3.3h1.6v1.2h-1.6v5.5a2,2,0,0,0,.1.9,0.85,0.85,0,0,0,.3.3,0.75,0.75,0,0,0,.5.1A1.7,1.7,0,0,1,262.15,18.4Z"/><path class="a" d="M263.75,19.8V6.9h1.6v4.6a3.86,3.86,0,0,1,4.6-.9,2.35,2.35,0,0,1,1.1,1.1,5.84,5.84,0,0,1,.3,2.1v5.9h-1.6V13.8a2.46,2.46,0,0,0-.5-1.7,1.72,1.72,0,0,0-1.5-.5,2,2,0,0,0-1.3.4,2.19,2.19,0,0,0-.9,1,4,4,0,0,0-.3,1.7v5.1h-1.5Z"/><path class="a" d="M273.15,15.1a4.9,4.9,0,0,1,1.4-3.8,4.27,4.27,0,0,1,2.9-1,3.87,3.87,0,0,1,3.1,1.3,5,5,0,0,1,1.2,3.5,7,7,0,0,1-.5,2.8,4.1,4.1,0,0,1-1.6,1.6,4.38,4.38,0,0,1-2.3.6,4.08,4.08,0,0,1-3.2-1.3A6.51,6.51,0,0,1,273.15,15.1Zm1.6,0a4.14,4.14,0,0,0,.8,2.7,2.52,2.52,0,0,0,2,.9,2.66,2.66,0,0,0,2-.9,3.65,3.65,0,0,0,.8-2.7,3.84,3.84,0,0,0-.8-2.6,2.52,2.52,0,0,0-2-.9,2.66,2.66,0,0,0-2,.9A3.39,3.39,0,0,0,274.75,15.1Z"/><path class="a" d="M283.15,17l1.6-.2a2.1,2.1,0,0,0,.7,1.4,2.86,2.86,0,0,0,1.7.5,2.36,2.36,0,0,0,1.6-.4,1.39,1.39,0,0,0,.5-1,0.89,0.89,0,0,0-.5-0.8,10.42,10.42,0,0,0-1.6-.5,8.06,8.06,0,0,1-2.4-.8,2.19,2.19,0,0,1-1-.9,2.77,2.77,0,0,1-.3-1.3,2.66,2.66,0,0,1,.3-1.2,2.28,2.28,0,0,1,.8-0.9,4.61,4.61,0,0,1,1-.5,5.9,5.9,0,0,1,1.4-.2,5.41,5.41,0,0,1,1.9.3,1.93,1.93,0,0,1,1.2.9,2.92,2.92,0,0,1,.5,1.4l-1.5.2a1.68,1.68,0,0,0-.6-1.1,2,2,0,0,0-1.4-.4,2.54,2.54,0,0,0-1.6.4,0.92,0.92,0,0,0-.5.8,1.42,1.42,0,0,0,.2.6,0.92,0.92,0,0,0,.6.4,9.31,9.31,0,0,0,1.4.4,17,17,0,0,1,2.3.7,2.72,2.72,0,0,1,1,.8,2.59,2.59,0,0,1,.4,1.4,3,3,0,0,1-.5,1.5,3.48,3.48,0,0,1-1.3,1.1,4.21,4.21,0,0,1-2,.4,4.65,4.65,0,0,1-2.8-.8A3.8,3.8,0,0,1,283.15,17Z"/><path class="a" d="M299.15,16.8l1.6,0.2a3.84,3.84,0,0,1-1.4,2.2,4.55,4.55,0,0,1-2.7.8,3.94,3.94,0,0,1-3.2-1.3,4.79,4.79,0,0,1-1.2-3.5,5.31,5.31,0,0,1,1.2-3.7,4.35,4.35,0,0,1,6.2,0,5.05,5.05,0,0,1,1.2,3.6v0.4h-7a3.7,3.7,0,0,0,.9,2.4,2.57,2.57,0,0,0,2,.8A2.44,2.44,0,0,0,299.15,16.8ZM294,14.2h5.2a3.8,3.8,0,0,0-.6-1.8,2.52,2.52,0,0,0-2-.9,2.41,2.41,0,0,0-1.8.7A3.55,3.55,0,0,0,294,14.2Z"/><path class="a" d="M309.45,19.8l-2.9-9.3h1.6l1.5,5.4,0.6,2c0-.1.2-0.7,0.5-1.9l1.5-5.5h1.6l1.4,5.4,0.5,1.8,0.5-1.8,1.6-5.4h1.5l-2.9,9.3h-1.6l-1.5-5.6L313,12.6l-1.9,7.2h-1.6Z"/><path class="a" d="M320.75,19.8V6.9h1.6v4.6a3.86,3.86,0,0,1,4.6-.9,2.35,2.35,0,0,1,1.1,1.1,5.84,5.84,0,0,1,.3,2.1v5.9h-1.6V13.8a2.46,2.46,0,0,0-.5-1.7,1.72,1.72,0,0,0-1.5-.5,2,2,0,0,0-1.3.4,2.19,2.19,0,0,0-.9,1,4,4,0,0,0-.3,1.7v5.1h-1.5Z"/><path class="a" d="M330.15,15.1a4.9,4.9,0,0,1,1.4-3.8,4.27,4.27,0,0,1,2.9-1,3.87,3.87,0,0,1,3.1,1.3,5,5,0,0,1,1.2,3.5,7,7,0,0,1-.5,2.8,4.1,4.1,0,0,1-1.6,1.6,4.38,4.38,0,0,1-2.3.6,4.08,4.08,0,0,1-3.2-1.3A7.4,7.4,0,0,1,330.15,15.1Zm1.7,0a4.14,4.14,0,0,0,.8,2.7,2.52,2.52,0,0,0,2,.9,2.66,2.66,0,0,0,2-.9,3.65,3.65,0,0,0,.8-2.7,3.84,3.84,0,0,0-.8-2.6,2.52,2.52,0,0,0-2-.9,2.66,2.66,0,0,0-2,.9A3.39,3.39,0,0,0,331.85,15.1Z"/><path class="a" d="M346.15,19.8V11.7h-1.4V10.5h1.4v-1a4.63,4.63,0,0,1,.2-1.4,2.54,2.54,0,0,1,.8-1,2.54,2.54,0,0,1,1.6-.4,10.4,10.4,0,0,1,1.5.2l-0.2,1.4a2.77,2.77,0,0,0-.9-0.1,1.33,1.33,0,0,0-1,.3,1.74,1.74,0,0,0-.3,1.2v0.9h1.8v1.2h-1.8v8.1h-1.7V19.8Z"/><path class="a" d="M356.85,18.6a12,12,0,0,1-1.7,1.1,4.67,4.67,0,0,1-1.7.3,3.65,3.65,0,0,1-2.4-.8,2.24,2.24,0,0,1-.8-1.9,2.77,2.77,0,0,1,.3-1.3,2.36,2.36,0,0,1,.8-0.9,3.7,3.7,0,0,1,1.1-.5,4.64,4.64,0,0,1,1.4-.2,21.22,21.22,0,0,0,2.8-.5V13.5a2,2,0,0,0-.4-1.4,2.43,2.43,0,0,0-1.8-.5,2.36,2.36,0,0,0-1.6.4,3,3,0,0,0-.8,1.4l-1.5-.2a3.38,3.38,0,0,1,.7-1.6,2.84,2.84,0,0,1,1.4-.9,6.65,6.65,0,0,1,2.1-.3,5,5,0,0,1,1.9.3,2.33,2.33,0,0,1,1.1.7,2.81,2.81,0,0,1,.5,1.1,5.76,5.76,0,0,1,.1,1.5v2.1a17.22,17.22,0,0,0,.1,2.8,3.58,3.58,0,0,0,.4,1.1h-1.7C357.05,19.5,357,19.1,356.85,18.6Zm-0.1-3.5a17.14,17.14,0,0,1-2.6.6,7.83,7.83,0,0,0-1.4.3,1,1,0,0,0-.6.5,1.88,1.88,0,0,0-.2.8,1.61,1.61,0,0,0,.5,1.1,2,2,0,0,0,1.4.4,2.73,2.73,0,0,0,1.6-.4,2.66,2.66,0,0,0,1-1.1,3.51,3.51,0,0,0,.3-1.6V15.1Z"/><path class="a" d="M360.85,8.7V6.9h1.6V8.7h-1.6Zm0,11.1V10.5h1.6v9.3h-1.6Z"/><path class="a" d="M364.75,19.8V6.9h1.6V19.8h-1.6Z"/><path class="a" d="M25.75,40.6a8.16,8.16,0,0,1-1.7,1.1,3.42,3.42,0,0,1-1.7.3,3.65,3.65,0,0,1-2.4-.8,2.24,2.24,0,0,1-.8-1.9,2.77,2.77,0,0,1,.3-1.3,2.36,2.36,0,0,1,.8-0.9,3.7,3.7,0,0,1,1.1-.5,4.64,4.64,0,0,1,1.4-.2,21.22,21.22,0,0,0,2.8-.5V35.5a2,2,0,0,0-.4-1.4,2.43,2.43,0,0,0-1.8-.5,2.36,2.36,0,0,0-1.6.4,3,3,0,0,0-.8,1.4l-1.5-.2a3.38,3.38,0,0,1,.7-1.6,2.84,2.84,0,0,1,1.4-.9,6.65,6.65,0,0,1,2.1-.3,5,5,0,0,1,1.9.3,2.33,2.33,0,0,1,1.1.7,2.81,2.81,0,0,1,.5,1.1,5.76,5.76,0,0,1,.1,1.5v2.1a17.21,17.21,0,0,0,.1,2.8,3.58,3.58,0,0,0,.4,1.1h-1.7A3.53,3.53,0,0,1,25.75,40.6Zm-0.2-3.5a17.14,17.14,0,0,1-2.6.6,7.83,7.83,0,0,0-1.4.3,1,1,0,0,0-.6.5,1.88,1.88,0,0,0-.2.8,1.61,1.61,0,0,0,.5,1.1,2,2,0,0,0,1.4.4,2.73,2.73,0,0,0,1.6-.4,2.66,2.66,0,0,0,1-1.1,3.51,3.51,0,0,0,.3-1.6V37.1h0Z"/><path class="a" d="M29.65,45.4V32.5h1.4v1.2a3.18,3.18,0,0,1,1.2-1.1,3.41,3.41,0,0,1,1.6-.4,3.7,3.7,0,0,1,2.1.6,3.91,3.91,0,0,1,1.4,1.7,6.55,6.55,0,0,1,.5,2.5,7.08,7.08,0,0,1-.5,2.6,3.35,3.35,0,0,1-1.5,1.8,3.94,3.94,0,0,1-2.1.6,3.19,3.19,0,0,1-1.4-.3,2.72,2.72,0,0,1-1-.8v4.5h-1.7Zm1.4-8.2a4.15,4.15,0,0,0,.7,2.7,2.25,2.25,0,0,0,3.6,0,4.25,4.25,0,0,0,.8-2.8,4.15,4.15,0,0,0-.7-2.7,2.25,2.25,0,0,0-3.6,0A4.65,4.65,0,0,0,31.05,37.2Z"/><path class="a" d="M39.65,45.4V32.5h1.4v1.2a3.18,3.18,0,0,1,1.2-1.1,3.41,3.41,0,0,1,1.6-.4,3.7,3.7,0,0,1,2.1.6,3.91,3.91,0,0,1,1.4,1.7,6.55,6.55,0,0,1,.5,2.5,7.08,7.08,0,0,1-.5,2.6,3.35,3.35,0,0,1-1.5,1.8,3.94,3.94,0,0,1-2.1.6,3.19,3.19,0,0,1-1.4-.3,2.72,2.72,0,0,1-1-.8v4.5h-1.7Zm1.4-8.2a4.15,4.15,0,0,0,.7,2.7,2.25,2.25,0,0,0,3.6,0,4.25,4.25,0,0,0,.8-2.8,4.15,4.15,0,0,0-.7-2.7,2.25,2.25,0,0,0-3.6,0A4.65,4.65,0,0,0,41.05,37.2Z"/><path class="a" d="M49.65,41.8V32.5h1.4v1.4a3.85,3.85,0,0,1,1-1.3,1.69,1.69,0,0,1,1-.3,3.32,3.32,0,0,1,1.6.5l-0.5,1.5A2.66,2.66,0,0,0,53,34a1.4,1.4,0,0,0-.9.3,2,2,0,0,0-.6.9,5.66,5.66,0,0,0-.3,1.8v4.9h-1.5V41.8Z"/><path class="a" d="M62.05,38.8l1.6,0.2a3.84,3.84,0,0,1-1.4,2.2,4.55,4.55,0,0,1-2.7.8,3.94,3.94,0,0,1-3.2-1.3,4.79,4.79,0,0,1-1.2-3.5,5.31,5.31,0,0,1,1.2-3.7,4.35,4.35,0,0,1,6.2,0,5.05,5.05,0,0,1,1.2,3.6v0.4h-7a3.7,3.7,0,0,0,.9,2.4,2.57,2.57,0,0,0,2,.8A2.44,2.44,0,0,0,62.05,38.8Zm-5.2-2.6h5.2a3.8,3.8,0,0,0-.6-1.8,2.52,2.52,0,0,0-2-.9,2.41,2.41,0,0,0-1.8.7A3.55,3.55,0,0,0,56.85,36.2Z"/><path class="a" d="M71.75,38.4l1.6,0.2a4,4,0,0,1-1.3,2.5,3.92,3.92,0,0,1-2.6.9,3.87,3.87,0,0,1-3.1-1.3,4.89,4.89,0,0,1-1.2-3.6,6.69,6.69,0,0,1,.5-2.6,3.53,3.53,0,0,1,1.5-1.7,4.28,4.28,0,0,1,2.2-.6,4.15,4.15,0,0,1,2.5.8,2.87,2.87,0,0,1,1.2,2.2l-1.5.2a2.19,2.19,0,0,0-.8-1.4,2.11,2.11,0,0,0-1.3-.5,2.32,2.32,0,0,0-1.9.9,4.15,4.15,0,0,0-.7,2.7,3.81,3.81,0,0,0,.7,2.7,2.65,2.65,0,0,0,1.9.9,2.45,2.45,0,0,0,1.6-.6A2.24,2.24,0,0,0,71.75,38.4Z"/><path class="a" d="M74.65,30.7V28.9h1.6v1.8h-1.6Zm0,11.1V32.5h1.6v9.3h-1.6Z"/><path class="a" d="M84.75,40.6a8.16,8.16,0,0,1-1.7,1.1,4.67,4.67,0,0,1-1.7.3,3.65,3.65,0,0,1-2.4-.8,2.24,2.24,0,0,1-.8-1.9,2.77,2.77,0,0,1,.3-1.3,2.36,2.36,0,0,1,.8-0.9,3.7,3.7,0,0,1,1.1-.5,4.64,4.64,0,0,1,1.4-.2,21.22,21.22,0,0,0,2.8-.5V35.5a2,2,0,0,0-.4-1.4,2.43,2.43,0,0,0-1.8-.5A2.08,2.08,0,0,0,80,35.4l-1.5-.2a3.38,3.38,0,0,1,.7-1.6,2.84,2.84,0,0,1,1.4-.9,6.65,6.65,0,0,1,2.1-.3,5,5,0,0,1,1.9.3,2.33,2.33,0,0,1,1.1.7,2.81,2.81,0,0,1,.5,1.1,5.76,5.76,0,0,1,.1,1.5v2.1a17.21,17.21,0,0,0,.1,2.8,3.58,3.58,0,0,0,.4,1.1h-1.7C85,41.5,84.85,41.1,84.75,40.6Zm-0.1-3.5a17.14,17.14,0,0,1-2.6.6,7.83,7.83,0,0,0-1.4.3,1,1,0,0,0-.6.5,1.88,1.88,0,0,0-.2.8,1.61,1.61,0,0,0,.5,1.1,2,2,0,0,0,1.4.4,2.73,2.73,0,0,0,1.6-.4,2.66,2.66,0,0,0,1-1.1,3.51,3.51,0,0,0,.3-1.6V37.1h0Z"/><path class="a" d="M92.15,40.4l0.2,1.4a4.87,4.87,0,0,1-1.2.1,2.27,2.27,0,0,1-1.3-.3,2.34,2.34,0,0,1-.7-0.7A4.21,4.21,0,0,1,89,39V33.6h-1.2V32.4H89V30.1l1.6-.9v3.3h1.6v1.2h-1.6v5.5a2,2,0,0,0,.1.9,0.85,0.85,0,0,0,.3.3,0.75,0.75,0,0,0,.5.1A1.48,1.48,0,0,1,92.15,40.4Z"/><path class="a" d="M100.05,38.8l1.6,0.2a3.84,3.84,0,0,1-1.4,2.2,4.55,4.55,0,0,1-2.7.8,3.94,3.94,0,0,1-3.2-1.3,4.79,4.79,0,0,1-1.2-3.5,5.31,5.31,0,0,1,1.2-3.7,4.35,4.35,0,0,1,6.2,0,5.05,5.05,0,0,1,1.2,3.6v0.4h-7a3.7,3.7,0,0,0,.9,2.4,2.57,2.57,0,0,0,2,.8A2.44,2.44,0,0,0,100.05,38.8Zm-5.2-2.6h5.2a3.8,3.8,0,0,0-.6-1.8,2.52,2.52,0,0,0-2-.9,2.41,2.41,0,0,0-1.8.7A4.45,4.45,0,0,0,94.85,36.2Z"/><path class="a" d="M110.45,41.8l-2.9-9.3h1.6l1.5,5.4,0.6,2c0-.1.2-0.7,0.5-1.9l1.5-5.5h1.6l1.4,5.4,0.5,1.8,0.5-1.8,1.6-5.4h1.5l-2.9,9.3h-1.6l-1.5-5.6L114,34.6l-1.9,7.2h-1.6Z"/><path class="a" d="M121.65,41.8V28.9h1.6v4.6a3.86,3.86,0,0,1,4.6-.9,2.35,2.35,0,0,1,1.1,1.1,5.84,5.84,0,0,1,.3,2.1v5.9h-1.6V35.8a2.46,2.46,0,0,0-.5-1.7,1.72,1.72,0,0,0-1.5-.5,2,2,0,0,0-1.3.4,2.19,2.19,0,0,0-.9,1,4,4,0,0,0-.3,1.7v5.1h-1.5Z"/><path class="a" d="M137.75,40.6a8.16,8.16,0,0,1-1.7,1.1,4.67,4.67,0,0,1-1.7.3,3.65,3.65,0,0,1-2.4-.8,2.24,2.24,0,0,1-.8-1.9,2.77,2.77,0,0,1,.3-1.3,2.36,2.36,0,0,1,.8-0.9,3.7,3.7,0,0,1,1.1-.5,4.64,4.64,0,0,1,1.4-.2,21.22,21.22,0,0,0,2.8-.5V35.5a2,2,0,0,0-.4-1.4,2.43,2.43,0,0,0-1.8-.5,2.08,2.08,0,0,0-2.4,1.8l-1.5-.2a3.38,3.38,0,0,1,.7-1.6,2.84,2.84,0,0,1,1.4-.9,6.65,6.65,0,0,1,2.1-.3,5,5,0,0,1,1.9.3,2.33,2.33,0,0,1,1.1.7,2.81,2.81,0,0,1,.5,1.1,5.76,5.76,0,0,1,.1,1.5v2.1a17.21,17.21,0,0,0,.1,2.8,3.58,3.58,0,0,0,.4,1.1h-1.7C138,41.5,137.85,41.1,137.75,40.6Zm-0.1-3.5a17.14,17.14,0,0,1-2.6.6,7.83,7.83,0,0,0-1.4.3,1,1,0,0,0-.6.5,1.88,1.88,0,0,0-.2.8,1.61,1.61,0,0,0,.5,1.1,2,2,0,0,0,1.4.4,2.73,2.73,0,0,0,1.6-.4,2.66,2.66,0,0,0,1-1.1,3.51,3.51,0,0,0,.3-1.6V37.1h0Z"/><path class="a" d="M145.15,40.4l0.2,1.4a4.87,4.87,0,0,1-1.2.1,2.27,2.27,0,0,1-1.3-.3,2.34,2.34,0,0,1-.7-0.7A4.21,4.21,0,0,1,142,39V33.6h-1.2V32.4H142V30.1l1.6-.9v3.3h1.6v1.2h-1.6v5.5a2,2,0,0,0,.1.9,0.85,0.85,0,0,0,.3.3,0.75,0.75,0,0,0,.5.1A1.48,1.48,0,0,1,145.15,40.4Z"/><path class="a" d="M155.15,40.4l0.2,1.4a4.87,4.87,0,0,1-1.2.1,2.27,2.27,0,0,1-1.3-.3,2.34,2.34,0,0,1-.7-0.7A4.21,4.21,0,0,1,152,39V33.6h-1.2V32.4H152V30.1l1.6-.9v3.3h1.6v1.2h-1.6v5.5a2,2,0,0,0,.1.9,0.85,0.85,0,0,0,.3.3,0.75,0.75,0,0,0,.5.1A1.48,1.48,0,0,1,155.15,40.4Z"/><path class="a" d="M156.75,41.8V28.9h1.6v4.6a3.86,3.86,0,0,1,4.6-.9,2.35,2.35,0,0,1,1.1,1.1,5.84,5.84,0,0,1,.3,2.1v5.9h-1.6V35.8a2.46,2.46,0,0,0-.5-1.7,1.72,1.72,0,0,0-1.5-.5,2,2,0,0,0-1.3.4,2.19,2.19,0,0,0-.9,1,4,4,0,0,0-.3,1.7v5.1h-1.5Z"/><path class="a" d="M173.15,38.8l1.6,0.2a3.84,3.84,0,0,1-1.4,2.2,4.55,4.55,0,0,1-2.7.8,3.94,3.94,0,0,1-3.2-1.3,4.79,4.79,0,0,1-1.2-3.5,5.31,5.31,0,0,1,1.2-3.7,4.35,4.35,0,0,1,6.2,0,5.05,5.05,0,0,1,1.2,3.6v0.4h-7a3.7,3.7,0,0,0,.9,2.4,2.57,2.57,0,0,0,2,.8,2.46,2.46,0,0,0,1.5-.5A3.08,3.08,0,0,0,173.15,38.8ZM168,36.2h5.2a3.8,3.8,0,0,0-.6-1.8,2.52,2.52,0,0,0-2-.9,2.41,2.41,0,0,0-1.8.7A3,3,0,0,0,168,36.2Z"/><path class="a" d="M176.65,45.4l-0.2-1.5a2.77,2.77,0,0,0,.9.1,1.55,1.55,0,0,0,.8-0.2,1.21,1.21,0,0,0,.5-0.5,8.66,8.66,0,0,0,.5-1.2,2.27,2.27,0,0,0,.1-0.4l-3.5-9.4h1.7l1.9,5.4a14.16,14.16,0,0,1,.7,2.2,17.23,17.23,0,0,1,.7-2.1l2-5.4h1.6l-3.6,9.5q-0.6,1.5-.9,2.1a2.71,2.71,0,0,1-1,1.1,2.84,2.84,0,0,1-1.3.4A1.53,1.53,0,0,1,176.65,45.4Z"/><path class="a" d="M196.85,40.6a12,12,0,0,1-1.7,1.1,4.67,4.67,0,0,1-1.7.3,3.65,3.65,0,0,1-2.4-.8,2.24,2.24,0,0,1-.8-1.9,2.77,2.77,0,0,1,.3-1.3,2.36,2.36,0,0,1,.8-0.9,3.7,3.7,0,0,1,1.1-.5,4.64,4.64,0,0,1,1.4-.2,21.22,21.22,0,0,0,2.8-.5V35.5a2,2,0,0,0-.4-1.4,2.43,2.43,0,0,0-1.8-.5,2.08,2.08,0,0,0-2.4,1.8l-1.5-.2a3.38,3.38,0,0,1,.7-1.6,2.84,2.84,0,0,1,1.4-.9,6.65,6.65,0,0,1,2.1-.3,5,5,0,0,1,1.9.3,2.33,2.33,0,0,1,1.1.7,2.81,2.81,0,0,1,.5,1.1,5.76,5.76,0,0,1,.1,1.5v2.1a17.21,17.21,0,0,0,.1,2.8,3.58,3.58,0,0,0,.4,1.1h-1.7A3.53,3.53,0,0,1,196.85,40.6Zm-0.1-3.5a17.14,17.14,0,0,1-2.6.6,7.83,7.83,0,0,0-1.4.3,1,1,0,0,0-.6.5,1.88,1.88,0,0,0-.2.8,1.61,1.61,0,0,0,.5,1.1,2,2,0,0,0,1.4.4,2.73,2.73,0,0,0,1.6-.4,2.66,2.66,0,0,0,1-1.1,3.51,3.51,0,0,0,.3-1.6V37.1h0Z"/><path class="a" d="M200.75,41.8V28.9h1.6V41.8h-1.6Z"/><path class="a" d="M204.75,41.8V32.5h1.4v1.4a3.85,3.85,0,0,1,1-1.3,1.69,1.69,0,0,1,1-.3,3.32,3.32,0,0,1,1.6.5l-0.5,1.5a2.66,2.66,0,0,0-1.2-.3,1.4,1.4,0,0,0-.9.3,2,2,0,0,0-.6.9,5.66,5.66,0,0,0-.3,1.8v4.9h-1.5V41.8Z"/><path class="a" d="M217.15,38.8l1.6,0.2a3.84,3.84,0,0,1-1.4,2.2,4.55,4.55,0,0,1-2.7.8,3.94,3.94,0,0,1-3.2-1.3,4.79,4.79,0,0,1-1.2-3.5,5.31,5.31,0,0,1,1.2-3.7,4.35,4.35,0,0,1,6.2,0,5.05,5.05,0,0,1,1.2,3.6v0.4h-7a3.7,3.7,0,0,0,.9,2.4,2.57,2.57,0,0,0,2,.8,2.46,2.46,0,0,0,1.5-.5A3.08,3.08,0,0,0,217.15,38.8ZM212,36.2h5.2a3.8,3.8,0,0,0-.6-1.8,2.52,2.52,0,0,0-2-.9,2.41,2.41,0,0,0-1.8.7A3,3,0,0,0,212,36.2Z"/><path class="a" d="M226.85,40.6a8.16,8.16,0,0,1-1.7,1.1,4.67,4.67,0,0,1-1.7.3,3.65,3.65,0,0,1-2.4-.8,2.24,2.24,0,0,1-.8-1.9,2.77,2.77,0,0,1,.3-1.3,2.36,2.36,0,0,1,.8-0.9,3.7,3.7,0,0,1,1.1-.5,4.64,4.64,0,0,1,1.4-.2,21.22,21.22,0,0,0,2.8-.5V35.5a2,2,0,0,0-.4-1.4,2.43,2.43,0,0,0-1.8-.5,2.08,2.08,0,0,0-2.4,1.8l-1.5-.2a3.38,3.38,0,0,1,.7-1.6,2.84,2.84,0,0,1,1.4-.9,6.65,6.65,0,0,1,2.1-.3,5,5,0,0,1,1.9.3,2.33,2.33,0,0,1,1.1.7,2.81,2.81,0,0,1,.5,1.1,5.76,5.76,0,0,1,.1,1.5v2.1a17.22,17.22,0,0,0,.1,2.8,3.58,3.58,0,0,0,.4,1.1h-1.7A3.53,3.53,0,0,1,226.85,40.6Zm-0.1-3.5a17.14,17.14,0,0,1-2.6.6,7.83,7.83,0,0,0-1.4.3,1,1,0,0,0-.6.5,1.88,1.88,0,0,0-.2.8,1.61,1.61,0,0,0,.5,1.1,2,2,0,0,0,1.4.4,2.73,2.73,0,0,0,1.6-.4,2.66,2.66,0,0,0,1-1.1,3.51,3.51,0,0,0,.3-1.6V37.1Z"/><path class="a" d="M236.85,41.8V40.6a3,3,0,0,1-2.6,1.4,4.2,4.2,0,0,1-2.1-.6,5,5,0,0,1-1.5-1.7,6.5,6.5,0,0,1,0-5,3.91,3.91,0,0,1,1.4-1.7,3.7,3.7,0,0,1,2.1-.6,2.41,2.41,0,0,1,1.5.4,3.13,3.13,0,0,1,1.1.9V29.1h1.6V41.8h-1.5Zm-5-4.7a4.14,4.14,0,0,0,.8,2.7,2.27,2.27,0,0,0,1.8.9,2.5,2.5,0,0,0,1.8-.8,3.85,3.85,0,0,0,.7-2.6,4.28,4.28,0,0,0-.7-2.8,2.25,2.25,0,0,0-3.6,0A3.26,3.26,0,0,0,231.85,37.1Z"/><path class="a" d="M240.75,45.4l-0.2-1.5a2.77,2.77,0,0,0,.9.1,1.55,1.55,0,0,0,.8-0.2,1.2,1.2,0,0,0,.5-0.5,8.67,8.67,0,0,0,.5-1.2,2.27,2.27,0,0,0,.1-0.4l-3.5-9.4h1.7l1.9,5.4a14.16,14.16,0,0,1,.7,2.2,17.24,17.24,0,0,1,.7-2.1l2-5.4h1.6l-3.6,9.5q-0.6,1.5-.9,2.1a2.71,2.71,0,0,1-1,1.1,2.84,2.84,0,0,1-1.3.4A1.48,1.48,0,0,1,240.75,45.4Z"/><path class="a" d="M254.75,41.8V28.9h1.6v4.6a3.86,3.86,0,0,1,4.6-.9,2.35,2.35,0,0,1,1.1,1.1,5.84,5.84,0,0,1,.3,2.1v5.9h-1.6V35.8a2.46,2.46,0,0,0-.5-1.7,1.72,1.72,0,0,0-1.5-.5,2,2,0,0,0-1.3.4,2.19,2.19,0,0,0-.9,1,4,4,0,0,0-.3,1.7v5.1h-1.5Z"/><path class="a" d="M270.85,40.6a8.16,8.16,0,0,1-1.7,1.1,4.67,4.67,0,0,1-1.7.3,3.65,3.65,0,0,1-2.4-.8,2.24,2.24,0,0,1-.8-1.9,2.77,2.77,0,0,1,.3-1.3,2.36,2.36,0,0,1,.8-0.9,3.7,3.7,0,0,1,1.1-.5,4.64,4.64,0,0,1,1.4-.2,21.22,21.22,0,0,0,2.8-.5V35.5a2,2,0,0,0-.4-1.4,2.43,2.43,0,0,0-1.8-.5,2.08,2.08,0,0,0-2.4,1.8l-1.5-.2a3.38,3.38,0,0,1,.7-1.6,2.84,2.84,0,0,1,1.4-.9,6.65,6.65,0,0,1,2.1-.3,5,5,0,0,1,1.9.3,2.33,2.33,0,0,1,1.1.7,2.81,2.81,0,0,1,.5,1.1,5.76,5.76,0,0,1,.1,1.5v2.1a17.22,17.22,0,0,0,.1,2.8,3.58,3.58,0,0,0,.4,1.1h-1.7C271.05,41.5,271,41.1,270.85,40.6Zm-0.1-3.5a17.14,17.14,0,0,1-2.6.6,7.83,7.83,0,0,0-1.4.3,1,1,0,0,0-.6.5,1.88,1.88,0,0,0-.2.8,1.61,1.61,0,0,0,.5,1.1,2,2,0,0,0,1.4.4,2.73,2.73,0,0,0,1.6-.4,2.66,2.66,0,0,0,1-1.1,3.51,3.51,0,0,0,.3-1.6V37.1Z"/><path class="a" d="M277.35,41.8l-3.6-9.3h1.7l2,5.6c0.2,0.6.4,1.2,0.6,1.9a9.41,9.41,0,0,1,.6-1.8l2.1-5.7h1.6l-3.5,9.3h-1.5Z"/><path class="a" d="M290.15,38.8l1.6,0.2a3.84,3.84,0,0,1-1.4,2.2,4.55,4.55,0,0,1-2.7.8,3.94,3.94,0,0,1-3.2-1.3,4.79,4.79,0,0,1-1.2-3.5,5.31,5.31,0,0,1,1.2-3.7,4.35,4.35,0,0,1,6.2,0,5.05,5.05,0,0,1,1.2,3.6v0.4h-7a3.7,3.7,0,0,0,.9,2.4,2.57,2.57,0,0,0,2,.8A2.44,2.44,0,0,0,290.15,38.8ZM285,36.2h5.2a3.8,3.8,0,0,0-.6-1.8,2.52,2.52,0,0,0-2-.9,2.41,2.41,0,0,0-1.8.7A4.45,4.45,0,0,0,285,36.2Z"/><path class="a" d="M294.25,41.8V40h1.8v1.8h-1.8Z"/><path class="a" d="M299.35,41.8V28.9h1.7V41.8h-1.7Z"/><path class="a" d="M307.25,40.4l0.2,1.4a4.87,4.87,0,0,1-1.2.1,2.27,2.27,0,0,1-1.3-.3,2.34,2.34,0,0,1-.7-0.7,4.21,4.21,0,0,1-.2-1.9V33.6h-1.2V32.4h1.2V30.1l1.6-.9v3.3h1.6v1.2h-1.6v5.5a2,2,0,0,0,.1.9,0.85,0.85,0,0,0,.3.3,0.75,0.75,0,0,0,.5.1A1.48,1.48,0,0,1,307.25,40.4Z"/><path class="a" d="M308.85,33.5l-0.4-2.4V28.9h1.8v2.2l-0.4,2.4h-1Z"/><path class="a" d="M311.65,39l1.6-.2a2.1,2.1,0,0,0,.7,1.4,2.86,2.86,0,0,0,1.7.5,2.36,2.36,0,0,0,1.6-.4,1.39,1.39,0,0,0,.5-1,0.89,0.89,0,0,0-.5-0.8,10.42,10.42,0,0,0-1.6-.5,8.06,8.06,0,0,1-2.4-.8,2.19,2.19,0,0,1-1-.9A2.77,2.77,0,0,1,312,35a2.66,2.66,0,0,1,.3-1.2,3.45,3.45,0,0,1,.8-0.9,4.61,4.61,0,0,1,1-.5,5.9,5.9,0,0,1,1.4-.2,5.41,5.41,0,0,1,1.9.3,1.93,1.93,0,0,1,1.2.9,2.92,2.92,0,0,1,.5,1.4l-1.5.2a1.68,1.68,0,0,0-.6-1.1,2,2,0,0,0-1.4-.4,2.54,2.54,0,0,0-1.6.4,0.92,0.92,0,0,0-.5.8,1.42,1.42,0,0,0,.2.6,0.92,0.92,0,0,0,.6.4,9.3,9.3,0,0,0,1.4.4,17,17,0,0,1,2.3.7,2.72,2.72,0,0,1,1,.8,2.59,2.59,0,0,1,.4,1.4,3,3,0,0,1-.5,1.5,3.48,3.48,0,0,1-1.3,1.1,4.21,4.21,0,0,1-2,.4,4.65,4.65,0,0,1-2.8-.8A3.3,3.3,0,0,1,311.65,39Z"/><path class="a" d="M332.35,41.8V40.4a3.69,3.69,0,0,1-4.5,1.3,4.44,4.44,0,0,1-1.1-.8,3.34,3.34,0,0,1-.5-1.2,5.76,5.76,0,0,1-.1-1.5V32.4h1.6v5.2a7.16,7.16,0,0,0,.1,1.7,2.07,2.07,0,0,0,.6,1,2.14,2.14,0,0,0,1.2.4,2,2,0,0,0,1.3-.4,2.84,2.84,0,0,0,.9-1,4.18,4.18,0,0,0,.3-1.8v-5h1.6v9.3h-1.4Z"/><path class="a" d="M336.25,45.4V32.5h1.4v1.2a3.18,3.18,0,0,1,1.2-1.1,3.41,3.41,0,0,1,1.6-.4,3.7,3.7,0,0,1,2.1.6,3.91,3.91,0,0,1,1.4,1.7,6.55,6.55,0,0,1,.5,2.5,7.08,7.08,0,0,1-.5,2.6,3.35,3.35,0,0,1-1.5,1.8,3.94,3.94,0,0,1-2.1.6,3.19,3.19,0,0,1-1.4-.3,2.72,2.72,0,0,1-1-.8v4.5h-1.7Zm1.4-8.2a4.15,4.15,0,0,0,.7,2.7,2.25,2.25,0,0,0,3.6,0,4.25,4.25,0,0,0,.8-2.8,4.15,4.15,0,0,0-.7-2.7,2.25,2.25,0,0,0-3.6,0A4.65,4.65,0,0,0,337.65,37.2Z"/><path class="a" d="M354.75,40.4l0.2,1.4a4.87,4.87,0,0,1-1.2.1,2.27,2.27,0,0,1-1.3-.3,2.34,2.34,0,0,1-.7-0.7,4.21,4.21,0,0,1-.2-1.9V33.6h-1.1V32.4h1.2V30.1l1.6-.9v3.3h1.6v1.2h-1.6v5.5a2,2,0,0,0,.1.9,0.45,0.45,0,0,0,.3.3,0.75,0.75,0,0,0,.5.1A0.92,0.92,0,0,1,354.75,40.4Z"/><path class="a" d="M355.65,37.1a4.9,4.9,0,0,1,1.4-3.8,4.27,4.27,0,0,1,2.9-1,3.87,3.87,0,0,1,3.1,1.3,5,5,0,0,1,1.2,3.5,7,7,0,0,1-.5,2.8,4.1,4.1,0,0,1-1.6,1.6,4.38,4.38,0,0,1-2.3.6,4.08,4.08,0,0,1-3.2-1.3A6.51,6.51,0,0,1,355.65,37.1Zm1.7,0a4.14,4.14,0,0,0,.8,2.7,2.52,2.52,0,0,0,2,.9,2.66,2.66,0,0,0,2-.9,3.65,3.65,0,0,0,.8-2.7,3.84,3.84,0,0,0-.8-2.6,2.52,2.52,0,0,0-2-.9,2.66,2.66,0,0,0-2,.9A3.39,3.39,0,0,0,357.35,37.1Z"/><path class="a" d="M19.55,67.4l-0.2-1.5a2.77,2.77,0,0,0,.9.1,1.55,1.55,0,0,0,.8-0.2,1.21,1.21,0,0,0,.5-0.5,8.66,8.66,0,0,0,.5-1.2,2.27,2.27,0,0,0,.1-0.4l-3.5-9.4h1.7l1.9,5.4a14.16,14.16,0,0,1,.7,2.2,17.23,17.23,0,0,1,.7-2.1l2-5.4h1.6l-3.6,9.5q-0.6,1.5-.9,2.1a2.71,2.71,0,0,1-1,1.1,2.84,2.84,0,0,1-1.3.4A1.53,1.53,0,0,1,19.55,67.4Z"/><path class="a" d="M28.05,59.1a4.9,4.9,0,0,1,1.4-3.8,4.27,4.27,0,0,1,2.9-1,3.87,3.87,0,0,1,3.1,1.3,5,5,0,0,1,1.2,3.5,7,7,0,0,1-.5,2.8,4.1,4.1,0,0,1-1.6,1.6,4.38,4.38,0,0,1-2.3.6,4.08,4.08,0,0,1-3.2-1.3A5.27,5.27,0,0,1,28.05,59.1Zm1.6,0a4.14,4.14,0,0,0,.8,2.7,2.52,2.52,0,0,0,2,.9,2.66,2.66,0,0,0,2-.9,3.65,3.65,0,0,0,.8-2.7,3.84,3.84,0,0,0-.8-2.6,2.52,2.52,0,0,0-2-.9,2.66,2.66,0,0,0-2,.9A3.39,3.39,0,0,0,29.65,59.1Z"/><path class="a" d="M44.75,63.8V62.4a3.69,3.69,0,0,1-4.5,1.3,4.44,4.44,0,0,1-1.1-.8,2.19,2.19,0,0,1-.5-1.2,5.76,5.76,0,0,1-.1-1.5V54.4h1.6v5.2a7.16,7.16,0,0,0,.1,1.7,2.07,2.07,0,0,0,.6,1,2.14,2.14,0,0,0,1.2.4,2,2,0,0,0,1.3-.4,2.84,2.84,0,0,0,.9-1,4.18,4.18,0,0,0,.3-1.8v-5h1.6v9.3h-1.4Z"/><path class="a" d="M55.35,63.8l-2.9-9.3h1.6l1.5,5.4,0.6,2c0-.1.2-0.7,0.5-1.9l1.5-5.5h1.6l1.4,5.4,0.5,1.8,0.5-1.8,1.6-5.4h1.5l-2.8,9.3h-1.6l-1.5-5.6L59,56.6l-1.9,7.2h-1.7Z"/><path class="a" d="M66.65,63.8V50.9h1.6v4.6a3.86,3.86,0,0,1,4.6-.9A2.35,2.35,0,0,1,74,55.7a5.84,5.84,0,0,1,.3,2.1v5.9h-1.6V57.8a2.46,2.46,0,0,0-.5-1.7,1.72,1.72,0,0,0-1.5-.5,2,2,0,0,0-1.3.4,2.19,2.19,0,0,0-.9,1,4,4,0,0,0-.3,1.7v5.1h-1.5Z"/><path class="a" d="M82.75,62.6a8.16,8.16,0,0,1-1.7,1.1,4.67,4.67,0,0,1-1.7.3,3.65,3.65,0,0,1-2.4-.8,2.24,2.24,0,0,1-.8-1.9,2.77,2.77,0,0,1,.3-1.3,2.36,2.36,0,0,1,.8-0.9,3.7,3.7,0,0,1,1.1-.5,4.64,4.64,0,0,1,1.4-.2,21.22,21.22,0,0,0,2.8-.5V57.5a2,2,0,0,0-.4-1.4,2.43,2.43,0,0,0-1.8-.5A2.08,2.08,0,0,0,78,57.4l-1.5-.2a3.38,3.38,0,0,1,.7-1.6,2.84,2.84,0,0,1,1.4-.9,6.65,6.65,0,0,1,2.1-.3,5,5,0,0,1,1.9.3,2.33,2.33,0,0,1,1.1.7,2.81,2.81,0,0,1,.5,1.1,5.76,5.76,0,0,1,.1,1.5v2.1a17.21,17.21,0,0,0,.1,2.8,3.58,3.58,0,0,0,.4,1.1h-1.7C83,63.5,82.85,63.1,82.75,62.6Zm-0.1-3.5a17.14,17.14,0,0,1-2.6.6,7.83,7.83,0,0,0-1.4.3,1,1,0,0,0-.6.5,1.88,1.88,0,0,0-.2.8,1.61,1.61,0,0,0,.5,1.1,2,2,0,0,0,1.4.4,2.73,2.73,0,0,0,1.6-.4,2.66,2.66,0,0,0,1-1.1,3.51,3.51,0,0,0,.3-1.6V59.1h0Z"/><path class="a" d="M90.15,62.4l0.2,1.4a4.87,4.87,0,0,1-1.2.1,2.27,2.27,0,0,1-1.3-.3,2.34,2.34,0,0,1-.7-0.7A4.21,4.21,0,0,1,87,61V55.6h-1.2V54.4H87V52.1l1.6-.9v3.3h1.6v1.2h-1.6v5.5a2,2,0,0,0,.1.9,0.85,0.85,0,0,0,.3.3,0.75,0.75,0,0,0,.5.1A1.48,1.48,0,0,1,90.15,62.4Z"/><path class="a" d="M96.65,67.4l-0.2-1.5a2.77,2.77,0,0,0,.9.1,1.55,1.55,0,0,0,.8-0.2,1.21,1.21,0,0,0,.5-0.5,8.66,8.66,0,0,0,.5-1.2,2.27,2.27,0,0,0,.1-0.4l-3.5-9.4h1.7l1.9,5.4a14.16,14.16,0,0,1,.7,2.2,17.23,17.23,0,0,1,.7-2.1l2-5.4h1.6l-3.6,9.5q-0.6,1.5-.9,2.1a2.71,2.71,0,0,1-1,1.1,2.84,2.84,0,0,1-1.3.4A1.48,1.48,0,0,1,96.65,67.4Z"/><path class="a" d="M105.05,59.1a4.9,4.9,0,0,1,1.4-3.8,4.27,4.27,0,0,1,2.9-1,3.87,3.87,0,0,1,3.1,1.3,5,5,0,0,1,1.2,3.5,7,7,0,0,1-.5,2.8,4.1,4.1,0,0,1-1.6,1.6,4.38,4.38,0,0,1-2.3.6,4.08,4.08,0,0,1-3.2-1.3A6.51,6.51,0,0,1,105.05,59.1Zm1.7,0a4.14,4.14,0,0,0,.8,2.7,2.52,2.52,0,0,0,2,.9,2.66,2.66,0,0,0,2-.9,3.65,3.65,0,0,0,.8-2.7,3.84,3.84,0,0,0-.8-2.6,2.52,2.52,0,0,0-2-.9,2.66,2.66,0,0,0-2,.9A3.39,3.39,0,0,0,106.75,59.1Z"/><path class="a" d="M121.85,63.8V62.4a3.69,3.69,0,0,1-4.5,1.3,3.13,3.13,0,0,1-1.1-.8,3.34,3.34,0,0,1-.5-1.2,5.76,5.76,0,0,1-.1-1.5V54.4h1.6v5.2a7.16,7.16,0,0,0,.1,1.7,2.07,2.07,0,0,0,.6,1,2.14,2.14,0,0,0,1.2.4,2,2,0,0,0,1.3-.4,2.84,2.84,0,0,0,.9-1,4.18,4.18,0,0,0,.3-1.8v-5h1.6v9.3h-1.4Z"/><path class="a" d="M125.65,63.8V54.5h1.4v1.4a3.85,3.85,0,0,1,1-1.3,1.69,1.69,0,0,1,1-.3,3.32,3.32,0,0,1,1.6.5l-0.5,1.5A2.66,2.66,0,0,0,129,56a1.4,1.4,0,0,0-.9.3,2,2,0,0,0-.6.9,5.66,5.66,0,0,0-.3,1.8v4.9h-1.5V63.8Z"/><path class="a" d="M138.45,63.8l-2.9-9.3h1.6l1.5,5.4,0.6,2c0-.1.2-0.7,0.5-1.9l1.5-5.5h1.6l1.4,5.4,0.5,1.8,0.5-1.8,1.6-5.4h1.5l-2.9,9.3h-1.6l-1.5-5.6L142,56.6l-1.9,7.2h-1.6Z"/><path class="a" d="M149.15,59.1a4.9,4.9,0,0,1,1.4-3.8,4.27,4.27,0,0,1,2.9-1,3.87,3.87,0,0,1,3.1,1.3,5,5,0,0,1,1.2,3.5,7,7,0,0,1-.5,2.8,4.1,4.1,0,0,1-1.6,1.6,4.38,4.38,0,0,1-2.3.6,4.08,4.08,0,0,1-3.2-1.3A6.51,6.51,0,0,1,149.15,59.1Zm1.6,0a4.14,4.14,0,0,0,.8,2.7,2.52,2.52,0,0,0,2,.9,2.66,2.66,0,0,0,2-.9,3.65,3.65,0,0,0,.8-2.7,3.84,3.84,0,0,0-.8-2.6,2.52,2.52,0,0,0-2-.9,2.66,2.66,0,0,0-2,.9A3.39,3.39,0,0,0,150.75,59.1Z"/><path class="a" d="M159.65,63.8V54.5h1.4v1.4a3.85,3.85,0,0,1,1-1.3,1.69,1.69,0,0,1,1-.3,3.32,3.32,0,0,1,1.6.5l-0.5,1.5A2.66,2.66,0,0,0,163,56a1.4,1.4,0,0,0-.9.3,2,2,0,0,0-.6.9,5.66,5.66,0,0,0-.3,1.8v4.9h-1.5V63.8Z"/><path class="a" d="M165.65,63.8V50.9h1.6V63.8h-1.6Z"/><path class="a" d="M175.75,63.8V62.6a3,3,0,0,1-2.6,1.4,4.2,4.2,0,0,1-2.1-.6,5,5,0,0,1-1.5-1.7,6.5,6.5,0,0,1,0-5A3.91,3.91,0,0,1,171,55a3.7,3.7,0,0,1,2.1-.6,2.41,2.41,0,0,1,1.5.4,3.13,3.13,0,0,1,1.1.9V51.1h1.6V63.8h-1.5Zm-5-4.7a4.14,4.14,0,0,0,.8,2.7,2.27,2.27,0,0,0,1.8.9,2.5,2.5,0,0,0,1.8-.8,3.85,3.85,0,0,0,.7-2.6,4.28,4.28,0,0,0-.7-2.8,2.25,2.25,0,0,0-3.6,0A3.26,3.26,0,0,0,170.75,59.1Z"/><path class="a" d="M184.65,63.8V50.9h1.6V63.8h-1.6Z"/><path class="a" d="M188.15,59.1a4.9,4.9,0,0,1,1.4-3.8,4.27,4.27,0,0,1,2.9-1,3.87,3.87,0,0,1,3.1,1.3,5,5,0,0,1,1.2,3.5,7,7,0,0,1-.5,2.8,4.1,4.1,0,0,1-1.6,1.6,4.38,4.38,0,0,1-2.3.6,4.08,4.08,0,0,1-3.2-1.3A6.51,6.51,0,0,1,188.15,59.1Zm1.6,0a4.14,4.14,0,0,0,.8,2.7,2.52,2.52,0,0,0,2,.9,2.66,2.66,0,0,0,2-.9,3.65,3.65,0,0,0,.8-2.7,3.84,3.84,0,0,0-.8-2.6,2.52,2.52,0,0,0-2-.9,2.66,2.66,0,0,0-2,.9A3.39,3.39,0,0,0,189.75,59.1Z"/><path class="a" d="M198.15,59.1a4.9,4.9,0,0,1,1.4-3.8,4.27,4.27,0,0,1,2.9-1,3.87,3.87,0,0,1,3.1,1.3,5,5,0,0,1,1.2,3.5,7,7,0,0,1-.5,2.8,4.1,4.1,0,0,1-1.6,1.6,4.38,4.38,0,0,1-2.3.6,4.08,4.08,0,0,1-3.2-1.3A6.51,6.51,0,0,1,198.15,59.1Zm1.6,0a4.14,4.14,0,0,0,.8,2.7,2.52,2.52,0,0,0,2,.9,2.66,2.66,0,0,0,2-.9,3.65,3.65,0,0,0,.8-2.7,3.84,3.84,0,0,0-.8-2.6,2.52,2.52,0,0,0-2-.9,2.66,2.66,0,0,0-2,.9A3.39,3.39,0,0,0,199.75,59.1Z"/><path class="a" d="M208.75,63.8V50.9h1.6v7.3l3.7-3.8h2l-3.6,3.5,3.9,5.9h-2l-3.1-4.8-1.1,1.1v3.7h-1.4Z"/><path class="a" d="M217.15,61l1.6-.2a2.1,2.1,0,0,0,.7,1.4,2.86,2.86,0,0,0,1.7.5,2.36,2.36,0,0,0,1.6-.4,1.39,1.39,0,0,0,.5-1,0.89,0.89,0,0,0-.5-0.8,10.42,10.42,0,0,0-1.6-.5,8.06,8.06,0,0,1-2.4-.8,2.19,2.19,0,0,1-1-.9,2.77,2.77,0,0,1-.3-1.3,2.66,2.66,0,0,1,.3-1.2,3.45,3.45,0,0,1,.8-0.9,4.61,4.61,0,0,1,1-.5,5.9,5.9,0,0,1,1.4-.2,5.41,5.41,0,0,1,1.9.3,1.93,1.93,0,0,1,1.2.9,2.92,2.92,0,0,1,.5,1.4l-1.5.2a1.68,1.68,0,0,0-.6-1.1,2,2,0,0,0-1.4-.4,2.54,2.54,0,0,0-1.6.4,0.92,0.92,0,0,0-.5.8,1.42,1.42,0,0,0,.2.6,0.92,0.92,0,0,0,.6.4,9.3,9.3,0,0,0,1.4.4,17,17,0,0,1,2.3.7,2.72,2.72,0,0,1,1,.8,2.59,2.59,0,0,1,.4,1.4,3,3,0,0,1-.5,1.5,3.48,3.48,0,0,1-1.3,1.1,4.21,4.21,0,0,1-2,.4,4.65,4.65,0,0,1-2.8-.8A2.93,2.93,0,0,1,217.15,61Z"/><path class="a" d="M231.65,63.8V50.9h1.6V63.8h-1.6Z"/><path class="a" d="M235.75,52.7V50.9h1.6v1.8h-1.6Zm0,11.1V54.5h1.6v9.3h-1.6Z"/><path class="a" d="M239.75,63.8V50.9h1.6v7.3l3.7-3.8h2l-3.6,3.5,3.9,5.9h-2l-3.1-4.8-1.1,1.1v3.7h-1.4Z"/><path class="a" d="M255.15,60.8l1.6,0.2a3.84,3.84,0,0,1-1.4,2.2,4.55,4.55,0,0,1-2.7.8,3.94,3.94,0,0,1-3.2-1.3,4.79,4.79,0,0,1-1.2-3.5,5.31,5.31,0,0,1,1.2-3.7,4.35,4.35,0,0,1,6.2,0,5.05,5.05,0,0,1,1.2,3.6v0.4h-7a3.7,3.7,0,0,0,.9,2.4,2.57,2.57,0,0,0,2,.8,2.46,2.46,0,0,0,1.5-.5A3.08,3.08,0,0,0,255.15,60.8ZM250,58.2h5.2a3.8,3.8,0,0,0-.6-1.8,2.52,2.52,0,0,0-2-.9,2.41,2.41,0,0,0-1.8.7A3,3,0,0,0,250,58.2Z"/><path class="a" d="M259.15,63.8V62H261v1.8h-1.8Z"/><rect class="b" x="17.95" y="74.3" width="351" height="1"/></svg>