<svg xmlns="http://www.w3.org/2000/svg" viewBox="0 0 430 100"><defs><style>.a{fill:#ff6e6e;}.b{opacity:0.25;}.c{isolation:isolate;}.d{fill:#fff;}.e{fill:#fa6400;}.f{fill:#f50;}.g{fill:#ff0050;}</style></defs><title>form_sl</title><rect class="a" x="63.5" y="59.5" width="353" height="3"/><g class="b"><rect class="a" x="63" y="13" width="354" height="16"/></g><g class="b"><rect class="a" x="63" y="67" width="354" height="18"/></g><g class="b"><rect class="a" x="63" y="33" width="354" height="22"/></g><g class="c"><path class="d" d="M68.6,51H66.9V38.1h1.7V51Z"/><path class="d" d="M71.8,51V41.9h1a0.35,0.35,0,0,1,.4.3l0.1,1a6.89,6.89,0,0,1,1.3-1.1,3.29,3.29,0,0,1,1.7-.4,5.07,5.07,0,0,1,1.3.2,2.29,2.29,0,0,1,1,.7,3.88,3.88,0,0,1,.6,1.1,5.9,5.9,0,0,1,.2,1.4V51H77.8V45.2a2.54,2.54,0,0,0-.5-1.6,1.56,1.56,0,0,0-1.4-.6,2.77,2.77,0,0,0-1.3.3,3.13,3.13,0,0,0-1.1.9V51H71.8Z"/><path class="d" d="M81.8,54.1V41.9h1a0.35,0.35,0,0,1,.4.3l0.1,1.1a3.34,3.34,0,0,1,1.3-1.1,4.71,4.71,0,0,1,1.7-.4,3.19,3.19,0,0,1,1.4.3,3.13,3.13,0,0,1,1.1.9,5.23,5.23,0,0,1,.7,1.5,6.48,6.48,0,0,1,.2,2,5.82,5.82,0,0,1-.3,1.9,3.61,3.61,0,0,1-.8,1.5,2.94,2.94,0,0,1-1.2,1,4.26,4.26,0,0,1-1.7.4,2.9,2.9,0,0,1-1.4-.3,2.84,2.84,0,0,1-1.1-.8v4H81.8V54.1ZM85.9,43a2.3,2.3,0,0,0-1.4.4,5.24,5.24,0,0,0-1.1,1v4.4a1.89,1.89,0,0,0,1,.8,2.34,2.34,0,0,0,1.2.2,2.52,2.52,0,0,0,2-.9,4,4,0,0,0,.7-2.6,6.05,6.05,0,0,0-.2-1.5,2.34,2.34,0,0,0-.5-1,1.34,1.34,0,0,0-.7-0.6A3,3,0,0,0,85.9,43Z"/><path class="d" d="M93.2,41.9v5.8a2.54,2.54,0,0,0,.5,1.6,1.68,1.68,0,0,0,1.4.6,2.77,2.77,0,0,0,1.3-.3,3.13,3.13,0,0,0,1.1-.9V42h1.6v9h-1a0.35,0.35,0,0,1-.4-0.3l-0.1-1a6.89,6.89,0,0,1-1.3,1.1,3.29,3.29,0,0,1-1.7.4,5.07,5.07,0,0,1-1.3-.2,3.59,3.59,0,0,1-1-.7,2.38,2.38,0,0,1-.6-1.1,5.9,5.9,0,0,1-.2-1.4V42h1.7V41.9Z"/><path class="d" d="M104.6,51.1a2.09,2.09,0,0,1-2.3-2.3V43.2h-1.1c-0.1,0-.2,0-0.2-0.1a0.28,0.28,0,0,1-.1-0.3V42.2l1.5-.2,0.4-2.8a0.35,0.35,0,0,1,.1-0.2,0.28,0.28,0,0,1,.3-0.1H104V42h2.6v1.2H104v5.5a1.22,1.22,0,0,0,.3.9,0.91,0.91,0,0,0,.7.3,0.48,0.48,0,0,0,.4-0.1,0.37,0.37,0,0,1,.3-0.1,0.31,0.31,0,0,1,.2-0.1,0.35,0.35,0,0,1,.2-0.1,0.22,0.22,0,0,1,.2.2l0.5,0.8a2.07,2.07,0,0,1-1,.6h-1.2Z"/><path class="d" d="M114.7,51.1a2.09,2.09,0,0,1-2.3-2.3V43.2h-1.1c-0.1,0-.2,0-0.2-0.1a0.28,0.28,0,0,1-.1-0.3V42.2l1.5-.2,0.4-2.8A0.35,0.35,0,0,1,113,39a0.28,0.28,0,0,1,.3-0.1h0.8V42h2.6v1.2h-2.6v5.5a1.22,1.22,0,0,0,.3.9,0.91,0.91,0,0,0,.7.3,0.48,0.48,0,0,0,.4-0.1,0.37,0.37,0,0,1,.3-0.1,0.31,0.31,0,0,1,.2-0.1,0.35,0.35,0,0,1,.2-0.1,0.22,0.22,0,0,1,.2.2l0.5,0.8a2.07,2.07,0,0,1-1,.6h-1.2Z"/><path class="d" d="M122.3,41.7a3.65,3.65,0,0,1,1.5.3,2.55,2.55,0,0,1,1.2.8,5.67,5.67,0,0,1,.8,1.3,4.67,4.67,0,0,1,.3,1.7,0.62,0.62,0,0,1-.1.5,0.37,0.37,0,0,1-.3.1h-6.1a6.05,6.05,0,0,0,.2,1.5,2.44,2.44,0,0,0,1.5,1.7,3.73,3.73,0,0,0,1.2.2,3.08,3.08,0,0,0,1-.1c0.3-.1.5-0.2,0.8-0.3a2.19,2.19,0,0,0,.5-0.3,0.6,0.6,0,0,1,.4-0.1,0.53,0.53,0,0,1,.3.2l0.4,0.6a4.35,4.35,0,0,1-.7.6,3.55,3.55,0,0,1-.9.4c-0.3.1-.6,0.2-1,0.3a3.4,3.4,0,0,1-1,.1,4.67,4.67,0,0,1-1.7-.3,4.19,4.19,0,0,1-1.4-.9,3.77,3.77,0,0,1-.9-1.5,6.65,6.65,0,0,1-.3-2.1,5.66,5.66,0,0,1,.3-1.8,4.68,4.68,0,0,1,.8-1.4,6.42,6.42,0,0,1,1.3-1A4.14,4.14,0,0,1,122.3,41.7Zm0,1.2a2.14,2.14,0,0,0-1.8.7,3.34,3.34,0,0,0-.8,1.9h5a3,3,0,0,0-.2-1,5.94,5.94,0,0,0-.4-0.8,1.79,1.79,0,0,0-.7-0.5A2.28,2.28,0,0,0,122.3,42.9Z"/><path class="d" d="M129.7,46.3l-3.1-4.4h1.5a0.37,0.37,0,0,1,.3.1l0.2,0.2,2.2,3.4c0.1-.2.1-0.3,0.2-0.5l2-2.9a0.38,0.38,0,0,1,.2-0.2,0.2,0.2,0,0,1,.2-0.1h1.5l-3.1,4.4,3.2,4.8h-1.5a0.37,0.37,0,0,1-.3-0.1l-0.2-.2-2.3-3.6a1.06,1.06,0,0,1-.2.5l-2.1,3.1a0.38,0.38,0,0,1-.2.2,0.37,0.37,0,0,1-.3.1h-1.4Z"/><path class="d" d="M139.4,51.1a2.09,2.09,0,0,1-2.3-2.3V43.2H136c-0.1,0-.2,0-0.2-0.1a0.28,0.28,0,0,1-.1-0.3V42.2l1.5-.2,0.4-2.8a0.35,0.35,0,0,1,.1-0.2,0.28,0.28,0,0,1,.3-0.1h0.8V42h2.6v1.2h-2.6v5.5a1.22,1.22,0,0,0,.3.9,0.91,0.91,0,0,0,.7.3,0.48,0.48,0,0,0,.4-0.1,0.37,0.37,0,0,1,.3-0.1,0.31,0.31,0,0,1,.2-0.1,0.35,0.35,0,0,1,.2-0.1,0.22,0.22,0,0,1,.2.2l0.5,0.8a2.07,2.07,0,0,1-1,.6h-1.2Z"/></g><g class="c"><path class="e" d="M71.3,16.3v1.3H67.5v2.6h3.2v1.3H67.5V25H65.9V16.3h5.4Z"/><path class="e" d="M74.3,17.1a0.76,0.76,0,0,1-.1.4c-0.1.1-.1,0.2-0.2,0.3a0.53,0.53,0,0,1-.3.2H73.4a0.76,0.76,0,0,1-.4-0.1,0.92,0.92,0,0,1-.5-0.5,0.48,0.48,0,0,1-.1-0.4,0.6,0.6,0,0,1,.1-0.4,0.92,0.92,0,0,1,.5-0.5,2.27,2.27,0,0,1,.4-0.1,0.6,0.6,0,0,1,.4.1c0.1,0.1.2,0.1,0.3,0.2a0.53,0.53,0,0,1,.2.3v0.5Zm-0.2,1.7V25H72.6V18.8h1.5Z"/><path class="e" d="M78.3,18.7a4.25,4.25,0,0,1,1.1.2,2.18,2.18,0,0,1,.8.5,3.49,3.49,0,0,1,.6.9,3.73,3.73,0,0,1,.2,1.2v0.3a0.2,0.2,0,0,1-.1.2l-0.1.1h-4a2,2,0,0,0,.5,1.4,1.59,1.59,0,0,0,1.2.4,1.27,1.27,0,0,0,.6-0.1c0.2-.1.3-0.1,0.5-0.2s0.2-.1.3-0.2a0.37,0.37,0,0,1,.3-0.1h0.2l0.1,0.1,0.4,0.5a1.47,1.47,0,0,1-.6.5,3.33,3.33,0,0,0-.6.3,0.6,0.6,0,0,1-.6.3H78.4a5,5,0,0,1-1.2-.2,3.33,3.33,0,0,1-1-.6,1.7,1.7,0,0,1-.6-1,3.18,3.18,0,0,1-.2-1.4,5,5,0,0,1,.2-1.2,2.07,2.07,0,0,1,.6-1,5.5,5.5,0,0,1,.9-0.7A5,5,0,0,1,78.3,18.7Zm0.1,1.1a1.16,1.16,0,0,0-1,.4,2.34,2.34,0,0,0-.5,1h2.8a0.75,0.75,0,0,0-.1-0.5,1.47,1.47,0,0,0-.2-0.4A1.38,1.38,0,0,0,79,20,1.42,1.42,0,0,0,78.4,19.8Z"/><path class="e" d="M83.8,16.1V25H82.3V16.1h1.5Z"/><path class="e" d="M89.8,25a0.42,0.42,0,0,1-.4-0.3l-0.1-.6-0.4.4a2.19,2.19,0,0,1-.5.3,1.06,1.06,0,0,1-.5.2c-0.2,0-.4.1-0.6,0.1a2.92,2.92,0,0,1-.9-0.2,1.34,1.34,0,0,1-.7-0.6,3.13,3.13,0,0,1-.5-1A5.07,5.07,0,0,1,85,22a5.07,5.07,0,0,1,.2-1.3,3.13,3.13,0,0,1,.5-1,2.7,2.7,0,0,1,.8-0.7,2,2,0,0,1,1.1-.2,2.92,2.92,0,0,1,.9.2c0.2,0.1.5,0.3,0.7,0.4V16.1h1.5V25H89.8Zm-2-1.1a1.88,1.88,0,0,0,.8-0.2,2.65,2.65,0,0,0,.6-0.5V20.4c-0.2-.2-0.4-0.3-0.5-0.4a1.85,1.85,0,0,0-1.2,0,1.76,1.76,0,0,0-.5.4,1.69,1.69,0,0,0-.3.6,2.77,2.77,0,0,0-.1.9,2.22,2.22,0,0,0,.1.9,4.17,4.17,0,0,0,.2.6,0.62,0.62,0,0,0,.4.3A0.48,0.48,0,0,0,87.8,23.9Z"/><path class="e" d="M96.2,16.1V25H94.7V16.1h1.5Z"/><path class="e" d="M102.7,25H102a0.37,0.37,0,0,1-.3-0.1,0.77,0.77,0,0,1-.2-0.3l-0.1-.4c-0.2.1-.3,0.3-0.5,0.4a2.19,2.19,0,0,1-.5.3c-0.2.1-.3,0.1-0.5,0.2a1.27,1.27,0,0,1-.6.1,1.48,1.48,0,0,1-.7-0.1L98,24.8a1,1,0,0,1-.4-0.5,1.7,1.7,0,0,1-.1-0.7,1.85,1.85,0,0,1,.2-0.7,1.7,1.7,0,0,1,.6-0.6,11.73,11.73,0,0,1,1.1-.5,9,9,0,0,1,1.8-.2V21.2a1.22,1.22,0,0,0-.3-0.9,1,1,0,0,0-.8-0.3,1.27,1.27,0,0,0-.6.1,1.47,1.47,0,0,0-.4.2c-0.1.1-.2,0.1-0.3,0.2a0.5,0.5,0,0,1-.6,0L98,20.3l-0.3-.5a4,4,0,0,1,2.6-1,3,3,0,0,1,1,.2,1.79,1.79,0,0,1,.7.5,2,2,0,0,1,.4.8,3,3,0,0,1,.2,1V25h0.1Zm-2.9-.9h0.4a2.27,2.27,0,0,1,.4-0.1c0.1-.1.2-0.1,0.3-0.2l0.3-.3v-1a3.75,3.75,0,0,0-1.1.1,6.37,6.37,0,0,0-.7.2,1.38,1.38,0,0,0-.4.3v0.2a1.07,1.07,0,0,0,.2.6A1.42,1.42,0,0,0,99.8,24.1Z"/><path class="e" d="M104.2,25V16.1h1.5v3.5a1.56,1.56,0,0,1,.8-0.6,2,2,0,0,1,1.1-.2,2.92,2.92,0,0,1,.9.2,1.34,1.34,0,0,1,.7.6,3.13,3.13,0,0,1,.5,1,5.07,5.07,0,0,1,.2,1.3,5.07,5.07,0,0,1-.2,1.3,3.13,3.13,0,0,1-.5,1,2.7,2.7,0,0,1-.8.7,2,2,0,0,1-1.1.2,0.75,0.75,0,0,1-.5-0.1,0.52,0.52,0,0,1-.4-0.2,0.52,0.52,0,0,0-.4-0.2l-0.3-.3-0.1.4a0.35,0.35,0,0,1-.1.2c-0.1,0-.1.1-0.2,0.1h-1.1Zm2.8-5.1a1.88,1.88,0,0,0-.8.2,2.65,2.65,0,0,0-.6.5v2.8a1.4,1.4,0,0,0,.5.4,1.85,1.85,0,0,0,1.2,0,1.76,1.76,0,0,0,.5-0.4,1.49,1.49,0,0,0,.3-0.7,2.77,2.77,0,0,0,.1-0.9,2.22,2.22,0,0,0-.1-0.9,4.17,4.17,0,0,0-.2-0.6,0.42,0.42,0,0,0-.4-0.3A0.75,0.75,0,0,0,107,19.9Z"/><path class="e" d="M113.5,18.7a4.25,4.25,0,0,1,1.1.2,2.18,2.18,0,0,1,.8.5,3.49,3.49,0,0,1,.6.9,3.73,3.73,0,0,1,.2,1.2v0.3a0.2,0.2,0,0,1-.1.2l-0.1.1h-4a2,2,0,0,0,.5,1.4,1.59,1.59,0,0,0,1.2.4,1.27,1.27,0,0,0,.6-0.1c0.2-.1.3-0.1,0.5-0.2s0.2-.1.3-0.2a0.37,0.37,0,0,1,.3-0.1h0.2l0.1,0.1,0.4,0.5a1.47,1.47,0,0,1-.6.5,3.33,3.33,0,0,0-.6.3,6.37,6.37,0,0,1-.7.2,1.63,1.63,0,0,1-.7,0,5,5,0,0,1-1.2-.2,3.33,3.33,0,0,1-1-.6,1.7,1.7,0,0,1-.6-1,3.18,3.18,0,0,1-.2-1.4,5,5,0,0,1,.2-1.2,2.07,2.07,0,0,1,.6-1,5.5,5.5,0,0,1,.9-0.7C112.6,18.8,113.1,18.7,113.5,18.7Zm0.1,1.1a1.16,1.16,0,0,0-1,.4,2.34,2.34,0,0,0-.5,1h2.8a0.75,0.75,0,0,0-.1-0.5,1.47,1.47,0,0,0-.2-0.4,1.38,1.38,0,0,0-.4-0.3A1.42,1.42,0,0,0,113.6,19.8Z"/><path class="e" d="M119,16.1V25h-1.5V16.1H119Z"/></g><g class="c"><path class="a" d="M72.9,71.3v1.2H67.7v3.8h4.4v1.2H67.7v4.6H66.2V71.4h6.7V71.3Z"/><path class="a" d="M76.4,72a0.6,0.6,0,0,1-.1.4c-0.1.1-.1,0.2-0.2,0.3a0.53,0.53,0,0,1-.3.2,2.27,2.27,0,0,1-.4.1,0.48,0.48,0,0,1-.4-0.1,0.92,0.92,0,0,1-.5-0.5,2.27,2.27,0,0,1-.1-0.4,0.48,0.48,0,0,1,.1-0.4c0.1-.1.1-0.2,0.2-0.3a0.53,0.53,0,0,1,.3-0.2,2.27,2.27,0,0,1,.4-0.1,0.48,0.48,0,0,1,.4.1,0.92,0.92,0,0,1,.5.5A2.27,2.27,0,0,0,76.4,72Zm-0.3,2.4V82H74.8V74.4h1.3Z"/><path class="a" d="M81.4,74.3a5.07,5.07,0,0,1,1.3.2,3.59,3.59,0,0,1,1,.7,3,3,0,0,1,.7,1.1,3.18,3.18,0,0,1,.2,1.4c0,0.2,0,.4-0.1.4s-0.1.1-.3,0.1H79.1a5.07,5.07,0,0,0,.2,1.3,1.93,1.93,0,0,0,.5.9,2.18,2.18,0,0,0,.8.5,3,3,0,0,0,1,.2,2.77,2.77,0,0,0,.9-0.1,3.33,3.33,0,0,0,.6-0.3,1.38,1.38,0,0,0,.4-0.3,0.5,0.5,0,0,1,.6,0l0.4,0.5a2.65,2.65,0,0,1-.6.5c-0.2.1-.5,0.3-0.7,0.4a2.35,2.35,0,0,1-.8.2c-0.3,0-.6.1-0.8,0.1a4,4,0,0,1-1.5-.3A2.84,2.84,0,0,1,79,81a4.11,4.11,0,0,1-.8-1.3,4.67,4.67,0,0,1-.3-1.7,7.72,7.72,0,0,1,.2-1.5,3.46,3.46,0,0,1,.7-1.2,4.44,4.44,0,0,1,1.1-.8A7.72,7.72,0,0,1,81.4,74.3Zm0.1,1a1.89,1.89,0,0,0-1.5.6,2.63,2.63,0,0,0-.7,1.5h4.1a2.77,2.77,0,0,0-.1-0.9,1.61,1.61,0,0,0-.4-0.7,2.09,2.09,0,0,0-.6-0.4A2.2,2.2,0,0,0,81.5,75.3Z"/><path class="a" d="M87.8,71V82H86.5V71h1.3Z"/><path class="a" d="M95.5,82a0.42,0.42,0,0,1-.4-0.3L95,80.8a3.13,3.13,0,0,1-1.1.9,3.26,3.26,0,0,1-1.4.4,2.66,2.66,0,0,1-1.2-.3,2.18,2.18,0,0,1-.9-0.7,6.66,6.66,0,0,1-.6-1.2,7.93,7.93,0,0,1-.2-1.7,7.77,7.77,0,0,1,.2-1.6,5.17,5.17,0,0,1,.6-1.3,2.54,2.54,0,0,1,1-.8,3.19,3.19,0,0,1,1.4-.3,3.73,3.73,0,0,1,1.2.2,2.76,2.76,0,0,1,.9.7V71h1.3V82H95.5Zm-2.6-1a2,2,0,0,0,1.1-.3,6.47,6.47,0,0,0,.9-0.8V76.2a1.78,1.78,0,0,0-.8-0.7,3,3,0,0,0-1-.2,1.82,1.82,0,0,0-1.6.8,3.4,3.4,0,0,0-.6,2.2,5.28,5.28,0,0,0,.1,1.3,2.47,2.47,0,0,0,.4.9,1.33,1.33,0,0,0,.6.5h0.9Z"/><path class="a" d="M104.4,74.3a5.07,5.07,0,0,1,1.3.2,3.59,3.59,0,0,1,1,.7,3,3,0,0,1,.7,1.1,3.18,3.18,0,0,1,.2,1.4c0,0.2,0,.4-0.1.4s-0.1.1-.3,0.1h-5.1a5.07,5.07,0,0,0,.2,1.3,1.93,1.93,0,0,0,.5.9,2.18,2.18,0,0,0,.8.5,3,3,0,0,0,1,.2,2.77,2.77,0,0,0,.9-0.1,3.33,3.33,0,0,0,.6-0.3,1.38,1.38,0,0,0,.4-0.3,0.5,0.5,0,0,1,.6,0l0.4,0.5a2.65,2.65,0,0,1-.6.5c-0.2.1-.5,0.3-0.7,0.4a2.35,2.35,0,0,1-.8.2c-0.3,0-.6.1-0.8,0.1a4,4,0,0,1-1.5-.3A2.84,2.84,0,0,1,102,81a4.11,4.11,0,0,1-.8-1.3,4.67,4.67,0,0,1-.3-1.7,7.72,7.72,0,0,1,.2-1.5,3.46,3.46,0,0,1,.7-1.2,4.44,4.44,0,0,1,1.1-.8A7.72,7.72,0,0,1,104.4,74.3Zm0,1a1.89,1.89,0,0,0-1.5.6,2.63,2.63,0,0,0-.7,1.5h4.1a2.77,2.77,0,0,0-.1-0.9,1.61,1.61,0,0,0-.4-0.7,2.09,2.09,0,0,0-.6-0.4A2,2,0,0,0,104.4,75.3Z"/><path class="a" d="M109.3,82V74.4h0.8a0.37,0.37,0,0,1,.3.1,0.28,0.28,0,0,1,.1.3l0.1,1.2a4,4,0,0,1,1-1.2,2,2,0,0,1,1.3-.4,1.27,1.27,0,0,1,.6.1,1.06,1.06,0,0,1,.5.2l-0.2,1a0.22,0.22,0,0,1-.2.2,0.37,0.37,0,0,1-.3-0.1,0.92,0.92,0,0,0-.6-0.1,1.59,1.59,0,0,0-1.2.4,3.6,3.6,0,0,0-.8,1.2v4.8h-1.4V82Z"/><path class="a" d="M115.3,82V74.4h0.8a0.37,0.37,0,0,1,.3.1,0.28,0.28,0,0,1,.1.3l0.1,1.2a4,4,0,0,1,1-1.2,2,2,0,0,1,1.3-.4,1.27,1.27,0,0,1,.6.1,1.06,1.06,0,0,1,.5.2l-0.2,1a0.22,0.22,0,0,1-.2.2,0.37,0.37,0,0,1-.3-0.1,0.92,0.92,0,0,0-.6-0.1,1.59,1.59,0,0,0-1.2.4,3.6,3.6,0,0,0-.8,1.2v4.8h-1.4V82Z"/><path class="a" d="M124.4,74.3a3.34,3.34,0,0,1,1.5.3,2.84,2.84,0,0,1,1.1.8,2.92,2.92,0,0,1,.7,1.2,6.52,6.52,0,0,1,.3,1.6,4.15,4.15,0,0,1-.3,1.6A3.46,3.46,0,0,1,127,81a4.44,4.44,0,0,1-1.1.8,3.9,3.9,0,0,1-3,0,2.84,2.84,0,0,1-1.1-.8,3.75,3.75,0,0,1-.7-1.2,4.42,4.42,0,0,1,0-3.2,3.46,3.46,0,0,1,.7-1.2,4.44,4.44,0,0,1,1.1-.8A4,4,0,0,1,124.4,74.3Zm0,6.8a2,2,0,0,0,1.7-.8,4,4,0,0,0,0-4.2,2,2,0,0,0-1.7-.8,3,3,0,0,0-1,.2,1.34,1.34,0,0,0-.7.6,2.47,2.47,0,0,0-.4.9,4.87,4.87,0,0,0-.1,1.2,4.48,4.48,0,0,0,.1,1.2,1.88,1.88,0,0,0,.4.9,4.35,4.35,0,0,0,.7.6A3,3,0,0,0,124.4,81.1Z"/><path class="a" d="M129.7,82V74.4h0.8a0.37,0.37,0,0,1,.3.1,0.28,0.28,0,0,1,.1.3L131,76a4,4,0,0,1,1-1.2,2,2,0,0,1,1.3-.4,1.27,1.27,0,0,1,.6.1,1.06,1.06,0,0,1,.5.2l-0.2,1a0.22,0.22,0,0,1-.2.2,0.37,0.37,0,0,1-.3-0.1,0.92,0.92,0,0,0-.6-0.1,1.59,1.59,0,0,0-1.2.4,3.6,3.6,0,0,0-.8,1.2v4.8h-1.4V82Z"/><path class="a" d="M138.6,82V74.4h0.8a0.42,0.42,0,0,1,.4.3l0.1,0.8a6.47,6.47,0,0,1,.9-0.8,2.38,2.38,0,0,1,1.2-.3,1.59,1.59,0,0,1,1.2.4,3.46,3.46,0,0,1,.7,1.2,1.61,1.61,0,0,1,.4-0.7,2.65,2.65,0,0,1,.6-0.5,4.88,4.88,0,0,1,.7-0.3,1.7,1.7,0,0,1,.7-0.1,3.6,3.6,0,0,1,1.1.2,1.56,1.56,0,0,1,.8.6,1.93,1.93,0,0,1,.5.9,5,5,0,0,1,.2,1.2v4.8h-1.3V77.3a2.12,2.12,0,0,0-.4-1.4,1.43,1.43,0,0,0-1.1-.5,1.27,1.27,0,0,0-.6.1,2.19,2.19,0,0,0-.5.3,1.27,1.27,0,0,0-.4.6,2.2,2.2,0,0,0-.1.8V82h-1.3V77.2a2,2,0,0,0-.4-1.4,1.29,1.29,0,0,0-1.1-.5,1.61,1.61,0,0,0-.9.3,5,5,0,0,0-.8.7V82h-1.4Z"/><path class="a" d="M154,74.3a5.07,5.07,0,0,1,1.3.2,3.59,3.59,0,0,1,1,.7,3,3,0,0,1,.7,1.1,3.18,3.18,0,0,1,.2,1.4c0,0.2,0,.4-0.1.4s-0.1.1-.3,0.1h-5.1a5.07,5.07,0,0,0,.2,1.3,1.93,1.93,0,0,0,.5.9,2.18,2.18,0,0,0,.8.5,3,3,0,0,0,1,.2,2.77,2.77,0,0,0,.9-0.1,3.33,3.33,0,0,0,.6-0.3,1.38,1.38,0,0,0,.4-0.3,0.5,0.5,0,0,1,.6,0l0.4,0.5a2.65,2.65,0,0,1-.6.5c-0.2.1-.5,0.3-0.7,0.4a2.35,2.35,0,0,1-.8.2c-0.3,0-.6.1-0.8,0.1a4,4,0,0,1-1.5-.3,2.84,2.84,0,0,1-1.1-.8,4.11,4.11,0,0,1-.8-1.3,4.67,4.67,0,0,1-.3-1.7,7.72,7.72,0,0,1,.2-1.5,3.46,3.46,0,0,1,.7-1.2,4.44,4.44,0,0,1,1.1-.8A6.05,6.05,0,0,1,154,74.3Zm0,1a1.89,1.89,0,0,0-1.5.6,2.63,2.63,0,0,0-.7,1.5h4.1a2.77,2.77,0,0,0-.1-0.9,1.61,1.61,0,0,0-.4-0.7,2.09,2.09,0,0,0-.6-0.4A2,2,0,0,0,154,75.3Z"/><path class="a" d="M163.2,75.7a0.53,0.53,0,0,1-.3.2,0.37,0.37,0,0,1-.3-0.1c-0.1-.1-0.2-0.1-0.3-0.2a2.57,2.57,0,0,0-.5-0.2,1.48,1.48,0,0,0-.7-0.1,1.27,1.27,0,0,0-.6.1c-0.2.1-.3,0.1-0.5,0.2a0.85,0.85,0,0,0-.3.3,0.6,0.6,0,0,0-.1.4,0.76,0.76,0,0,0,.2.5c0.1,0.1.3,0.2,0.4,0.3l0.6,0.3c0.2,0.1.5,0.1,0.7,0.2s0.5,0.2.7,0.3a2.09,2.09,0,0,1,.6.4,1.27,1.27,0,0,1,.4.6,1.88,1.88,0,0,1,.2.8,3,3,0,0,1-.2,1,1.56,1.56,0,0,1-.6.8,2.62,2.62,0,0,1-.9.5,5,5,0,0,1-1.2.2,3.19,3.19,0,0,1-1.4-.3,4.13,4.13,0,0,1-1.1-.7l0.3-.5c0-.1.1-0.1,0.1-0.2s0.1-.1.2-0.1a0.37,0.37,0,0,1,.3.1,1.47,1.47,0,0,0,.4.2,0.76,0.76,0,0,0,.5.2,2,2,0,0,0,.8.1,1.48,1.48,0,0,0,.7-0.1,2.19,2.19,0,0,0,.5-0.3,1.38,1.38,0,0,0,.3-0.4,0.9,0.9,0,0,0,.1-0.5,0.76,0.76,0,0,0-.2-0.5l-0.4-.4-0.6-.3c-0.2-.1-0.5-0.1-0.7-0.2s-0.5-.2-0.7-0.3a2.09,2.09,0,0,1-.6-0.4,1.27,1.27,0,0,1-.4-0.6,1.7,1.7,0,0,1,0-1.6,1.79,1.79,0,0,1,.5-0.7,2.18,2.18,0,0,1,.8-0.5A3.59,3.59,0,0,1,161,74a5.07,5.07,0,0,1,1.3.2,3.33,3.33,0,0,1,1,.6Z"/><path class="a" d="M169.7,75.7a0.53,0.53,0,0,1-.3.2,0.37,0.37,0,0,1-.3-0.1c-0.1-.1-0.2-0.1-0.3-0.2a2.57,2.57,0,0,0-.5-0.2,1.48,1.48,0,0,0-.7-0.1,1.27,1.27,0,0,0-.6.1c-0.2.1-.3,0.1-0.5,0.2a0.85,0.85,0,0,0-.3.3,0.6,0.6,0,0,0-.1.4,0.76,0.76,0,0,0,.2.5c0.1,0.1.3,0.2,0.4,0.3l0.6,0.3c0.2,0.1.5,0.1,0.7,0.2s0.5,0.2.7,0.3a2.09,2.09,0,0,1,.6.4,1.27,1.27,0,0,1,.4.6,1.88,1.88,0,0,1,.2.8,3,3,0,0,1-.2,1,1.56,1.56,0,0,1-.6.8,2.62,2.62,0,0,1-.9.5,5,5,0,0,1-1.2.2,3.19,3.19,0,0,1-1.4-.3,4.13,4.13,0,0,1-1.1-.7l0.3-.5c0-.1.1-0.1,0.1-0.2s0.1-.1.2-0.1a0.37,0.37,0,0,1,.3.1,1.47,1.47,0,0,0,.4.2,0.76,0.76,0,0,0,.5.2,2,2,0,0,0,.8.1,1.48,1.48,0,0,0,.7-0.1,2.19,2.19,0,0,0,.5-0.3,1.38,1.38,0,0,0,.3-0.4,0.9,0.9,0,0,0,.1-0.5,0.76,0.76,0,0,0-.2-0.5l-0.4-.4-0.6-.3c-0.2-.1-0.5-0.1-0.7-0.2s-0.5-.2-0.7-0.3a2.09,2.09,0,0,1-.6-0.4,1.27,1.27,0,0,1-.4-0.6,1.7,1.7,0,0,1,0-1.6,1.79,1.79,0,0,1,.5-0.7,2.18,2.18,0,0,1,.8-0.5,3.59,3.59,0,0,1,1.1-.2,5.07,5.07,0,0,1,1.3.2,3.33,3.33,0,0,1,1,.6Z"/><path class="a" d="M177.4,82h-0.6a0.37,0.37,0,0,1-.3-0.1,0.77,0.77,0,0,1-.2-0.3l-0.1-.7c-0.2.2-.4,0.3-0.6,0.5a2.09,2.09,0,0,1-.6.4,1.45,1.45,0,0,1-.7.2c-0.2,0-.5.1-0.8,0.1a2,2,0,0,1-.8-0.1,1.61,1.61,0,0,1-.7-0.4c-0.2-.2-0.3-0.4-0.5-0.6a2.13,2.13,0,0,1,0-1.8,1.42,1.42,0,0,1,.8-0.7,4.57,4.57,0,0,1,1.4-.5,12.73,12.73,0,0,1,2.2-.2V77.2a1.7,1.7,0,0,0-.4-1.3,1.43,1.43,0,0,0-1.1-.5,2,2,0,0,0-.8.1l-0.6.3a1.38,1.38,0,0,0-.4.3,0.37,0.37,0,0,1-.3.1c-0.1,0-.2,0-0.2-0.1a0.38,0.38,0,0,1-.2-0.2l-0.2-.4a4.19,4.19,0,0,1,1.4-.9,4.15,4.15,0,0,1,1.6-.3,3.6,3.6,0,0,1,1.1.2,1.56,1.56,0,0,1,.8.6,2.62,2.62,0,0,1,.5.9,4.3,4.3,0,0,1,.2,1.2V82h0.1Zm-3.5-.8a1.08,1.08,0,0,0,.6-0.1,4.17,4.17,0,0,1,.6-0.2c0.2-.1.3-0.2,0.5-0.3s0.3-.3.5-0.4V78.6a8.08,8.08,0,0,0-1.6.1,4.05,4.05,0,0,0-1,.3,3.11,3.11,0,0,0-.6.4,1.07,1.07,0,0,0-.2.6,0.75,0.75,0,0,0,.1.5c0.1,0.1.2,0.3,0.3,0.4a0.52,0.52,0,0,0,.4.2A0.6,0.6,0,0,0,173.9,81.2Z"/><path class="a" d="M182,74.3a2.77,2.77,0,0,1,.9.1c0.3,0.1.5,0.2,0.8,0.3h2.1v0.5a0.27,0.27,0,0,1-.3.3l-0.9.1a2,2,0,0,1,.3,1.1,3,3,0,0,1-.2,1,1.56,1.56,0,0,1-.6.8,4.05,4.05,0,0,1-.9.5,3.59,3.59,0,0,1-1.1.2,3.08,3.08,0,0,1-1-.1,1.38,1.38,0,0,0-.4.3,0.37,0.37,0,0,0-.1.3,0.52,0.52,0,0,0,.2.4,0.85,0.85,0,0,0,.6.2c0.2,0,.5.1,0.8,0.1h0.9a2.77,2.77,0,0,1,.9.1,1.91,1.91,0,0,1,.8.3,2.65,2.65,0,0,1,.6.5,1.22,1.22,0,0,1,.2.9,4.4,4.4,0,0,1-.2,1,1.39,1.39,0,0,1-.7.8,10.91,10.91,0,0,1-1.1.6,6.05,6.05,0,0,1-1.5.2,6.8,6.8,0,0,1-1.5-.2,3.36,3.36,0,0,1-1-.4,1.7,1.7,0,0,1-.6-0.6,1.88,1.88,0,0,1-.2-0.8,1.28,1.28,0,0,1,.4-1,1.7,1.7,0,0,1,1-.6,1,1,0,0,1-.5-0.4,1.45,1.45,0,0,1-.2-0.7,0.37,0.37,0,0,1,.1-0.3c0.1-.1.1-0.2,0.2-0.3l0.3-.3c0.1-.1.3-0.2,0.4-0.3a2.07,2.07,0,0,1-1.2-2,3,3,0,0,1,.2-1,1.56,1.56,0,0,1,.6-0.8,4.05,4.05,0,0,1,.9-0.5A1.11,1.11,0,0,1,182,74.3Zm2.4,8.1a1.06,1.06,0,0,0-.2-0.5,1.38,1.38,0,0,0-.4-0.3,1.27,1.27,0,0,0-.6-0.1h-1.5a2.2,2.2,0,0,1-.8-0.1,1.79,1.79,0,0,0-.7.5,1.07,1.07,0,0,0-.2,1.2,1.51,1.51,0,0,0,.4.4,4.88,4.88,0,0,0,.7.3,5.05,5.05,0,0,0,2,0,4.87,4.87,0,0,0,.7-0.3c0.2-.1.3-0.3,0.5-0.4C184.3,82.8,184.4,82.6,184.4,82.4ZM182,78.3a1.48,1.48,0,0,0,.7-0.1,1.2,1.2,0,0,0,.8-0.8,1.27,1.27,0,0,0,.1-0.6,1.37,1.37,0,0,0-.4-1.1,2,2,0,0,0-2.4,0,1.37,1.37,0,0,0-.4,1.1,1.27,1.27,0,0,0,.1.6c0.1,0.2.2,0.3,0.3,0.5a2.19,2.19,0,0,0,.5.3A1.48,1.48,0,0,0,182,78.3Z"/><path class="a" d="M190.1,74.3a5.07,5.07,0,0,1,1.3.2,3.59,3.59,0,0,1,1,.7,3,3,0,0,1,.7,1.1,3.18,3.18,0,0,1,.2,1.4c0,0.2,0,.4-0.1.4s-0.1.1-.3,0.1h-5.1a5.07,5.07,0,0,0,.2,1.3,1.93,1.93,0,0,0,.5.9,2.18,2.18,0,0,0,.8.5,3,3,0,0,0,1,.2,2.77,2.77,0,0,0,.9-0.1,3.33,3.33,0,0,0,.6-0.3,1.38,1.38,0,0,0,.4-0.3,0.5,0.5,0,0,1,.6,0l0.4,0.5a2.65,2.65,0,0,1-.6.5c-0.2.1-.5,0.3-0.7,0.4a2.35,2.35,0,0,1-.8.2c-0.3,0-.6.1-0.8,0.1a4,4,0,0,1-1.5-.3,2.84,2.84,0,0,1-1.1-.8,4.11,4.11,0,0,1-.8-1.3,4.67,4.67,0,0,1-.3-1.7,7.72,7.72,0,0,1,.2-1.5,3.46,3.46,0,0,1,.7-1.2,4.44,4.44,0,0,1,1.1-.8A7.72,7.72,0,0,1,190.1,74.3Zm0,1a1.89,1.89,0,0,0-1.5.6,2.63,2.63,0,0,0-.7,1.5H192a2.77,2.77,0,0,0-.1-0.9,1.61,1.61,0,0,0-.4-0.7,2.09,2.09,0,0,0-.6-0.4A2,2,0,0,0,190.1,75.3Z"/></g><polygon class="f" points="21 49 25 45 29 49 25 53 21 49"/><polygon class="f" points="12 42 38 42 38 57 12 57 12 42"/><polygon class="f" points="23 84 28 84 28 85 23 85 23 84"/><polygon class="f" points="23 13 28 13 28 14 23 14 23 13"/><polygon class="f" points="25 13 26 13 26 85 25 85 25 13"/><path class="d" d="M24.5,45.4v0.8a0.35,0.35,0,0,1-.1.2l-3.6,7.2c-0.1.1-.1,0.2-0.2,0.3a0.48,0.48,0,0,1-.4.1H19.4L23,46.9c0.1-.1.1-0.2,0.2-0.3a0.38,0.38,0,0,1,.2-0.2H18.9a0.35,0.35,0,0,1-.3-0.3V45.4h5.9Z"/><path class="d" d="M28.6,45.3a3,3,0,0,1,1,.2,2.1,2.1,0,0,1,1.3,1.3,3,3,0,0,1,.2,1,2.77,2.77,0,0,1-.1.9,3,3,0,0,1-.4.8,4.35,4.35,0,0,1-.6.7,4.62,4.62,0,0,1-.7.7L27,53.2c0.2,0,.3-0.1.5-0.1h3.4a0.35,0.35,0,0,1,.4.4V54H25.6V53.4l0.1-.2,2.8-2.8c0.2-.2.4-0.5,0.6-0.7s0.3-.4.5-0.6a4.88,4.88,0,0,0,.3-0.7,2.5,2.5,0,0,0,0-1.4c-0.1-.2-0.2-0.3-0.3-0.5a2.19,2.19,0,0,0-.5-0.3,1.85,1.85,0,0,0-1.2,0c-0.2.1-.3,0.2-0.5,0.3a1.51,1.51,0,0,0-.4.4,1.06,1.06,0,0,0-.2.5c0,0.1-.1.2-0.1,0.3a0.28,0.28,0,0,1-.3.1H26.2l-0.6-.1c0.1-.4.2-0.7,0.3-1a5.55,5.55,0,0,1,.6-0.8,2.18,2.18,0,0,1,.8-0.5C27.9,45.4,28.2,45.3,28.6,45.3Z"/><rect class="g" x="63" y="29" width="16" height="4"/><rect class="g" x="63" y="55" width="16" height="12"/><polygon class="g" points="52 31 56 27 60 31 56 35 52 31"/><polygon class="g" points="39.3 25 56.7 25 56.7 38 39.3 38 39.3 25"/><path class="d" d="M50.4,27.9a0.48,0.48,0,0,1-.1.4,0.75,0.75,0,0,1-.5.1H47l-0.4,2.3a5.28,5.28,0,0,1,1.2-.1,5,5,0,0,1,1.2.2,4.05,4.05,0,0,1,.9.5,2.18,2.18,0,0,1,.5.8,3.55,3.55,0,0,1,.2,1,3.73,3.73,0,0,1-.2,1.2,2.18,2.18,0,0,1-.7.9,2.07,2.07,0,0,1-1,.6,5,5,0,0,1-1.2.2,1.48,1.48,0,0,1-.7-0.1,1.42,1.42,0,0,1-.6-0.2l-0.6-.3c-0.2-.1-0.3-0.2-0.5-0.3l0.3-.5a0.53,0.53,0,0,1,.3-0.2,0.37,0.37,0,0,1,.3.1,1.47,1.47,0,0,0,.4.2,2.57,2.57,0,0,0,.5.2,1.48,1.48,0,0,0,.7.1,2,2,0,0,0,.8-0.1,1.84,1.84,0,0,0,1-1,2,2,0,0,0,.1-0.8,1.48,1.48,0,0,0-.1-0.7,1.84,1.84,0,0,0-1-1,2.85,2.85,0,0,0-1.5,0,1.85,1.85,0,0,0-.7.2l-0.7-.2,0.7-4h4.1v0.5h0.1Z"/><polygon class="g" points="53 62 57 58 61 62 57 66 53 62"/><polygon class="g" points="39 55 58 55 58 69 39 69 39 55"/><path class="d" d="M42.4,65.9h1.8V59.5l-1.5,1.3-0.1.1H42.3l-0.1-.1-0.3-.5,2.6-2.2h0.9v7.8H47v0.8H42.4V65.9Z"/><path class="d" d="M54.2,62.4a11.24,11.24,0,0,1-.2,2,6.11,6.11,0,0,1-.7,1.4,2.54,2.54,0,0,1-1,.8,2.55,2.55,0,0,1-2.4,0,2.54,2.54,0,0,1-1-.8,4.58,4.58,0,0,1-.7-1.4,5.86,5.86,0,0,1-.2-2,11.24,11.24,0,0,1,.2-2,4.58,4.58,0,0,1,.7-1.4,2.54,2.54,0,0,1,1-.8,2.55,2.55,0,0,1,2.4,0,2.54,2.54,0,0,1,1,.8,4.58,4.58,0,0,1,.7,1.4A11.24,11.24,0,0,1,54.2,62.4Zm-1.1,0a7.93,7.93,0,0,0-.2-1.7c-0.1-.4-0.3-0.8-0.4-1.1a1.7,1.7,0,0,0-.6-0.6,1.88,1.88,0,0,0-.8-0.2,2.35,2.35,0,0,0-.8.2,1.17,1.17,0,0,0-.6.6,2.82,2.82,0,0,0-.4,1.1,7.18,7.18,0,0,0-.2,1.7,6.27,6.27,0,0,0,.2,1.6c0.1,0.4.3,0.8,0.4,1.1a1.7,1.7,0,0,0,.6.6,1.88,1.88,0,0,0,.8.2,2.35,2.35,0,0,0,.8-0.2,1.17,1.17,0,0,0,.6-0.6,2.82,2.82,0,0,0,.4-1.1A3.9,3.9,0,0,0,53.1,62.4Z"/></svg>