<svg xmlns="http://www.w3.org/2000/svg" viewBox="0 0 400 80"><defs><style>.a{fill:#9b9b9b;}.b{fill:#4a4a4a;}</style></defs><title>forms</title><path class="a" d="M20,33.56V20.66h8.7v1.5h-7v4h6v1.5h-6v5.9H20Z"/><path class="a" d="M30.65,22.46v-1.8h1.6v1.8h-1.6Zm0,11.1v-9.3h1.6v9.3h-1.6Z"/><path class="a" d="M41.05,30.56l1.6,0.2a3.84,3.84,0,0,1-1.4,2.2,4.55,4.55,0,0,1-2.7.8,3.94,3.94,0,0,1-3.2-1.3,4.79,4.79,0,0,1-1.2-3.5,5.31,5.31,0,0,1,1.2-3.7,4.35,4.35,0,0,1,6.2,0,5.05,5.05,0,0,1,1.2,3.6v0.4h-7a3.7,3.7,0,0,0,.9,2.4,2.57,2.57,0,0,0,2,.8,2.46,2.46,0,0,0,1.5-.5A3.08,3.08,0,0,0,41.05,30.56ZM35.85,28h5.2a3.8,3.8,0,0,0-.6-1.8,2.52,2.52,0,0,0-2-.9,2.41,2.41,0,0,0-1.8.7A2.79,2.79,0,0,0,35.85,28Z"/><path class="a" d="M44.65,33.56V20.66h1.6v12.9h-1.6Z"/><path class="a" d="M54.65,33.56v-1.2a3,3,0,0,1-2.6,1.4,4.2,4.2,0,0,1-2.1-.6,5,5,0,0,1-1.5-1.7,6.5,6.5,0,0,1,0-5,3.91,3.91,0,0,1,1.4-1.7,3.7,3.7,0,0,1,2.1-.6,2.41,2.41,0,0,1,1.5.4,3.13,3.13,0,0,1,1.1.9v-4.6h1.6v12.7h-1.5Zm-5-4.7a4.14,4.14,0,0,0,.8,2.7,2.27,2.27,0,0,0,1.8.9,2.5,2.5,0,0,0,1.8-.8,3.85,3.85,0,0,0,.7-2.6,4.28,4.28,0,0,0-.7-2.8,2.25,2.25,0,0,0-3.6,0A3.67,3.67,0,0,0,49.65,28.86Z"/><path class="a" d="M63.65,33.56V20.66h1.6v12.9h-1.6Z"/><path class="a" d="M73.75,32.36a8.16,8.16,0,0,1-1.7,1.1,4.67,4.67,0,0,1-1.7.3A3.65,3.65,0,0,1,68,33a2.24,2.24,0,0,1-.8-1.9,2.77,2.77,0,0,1,.3-1.3,2.36,2.36,0,0,1,.8-0.9,3.7,3.7,0,0,1,1.1-.5,4.64,4.64,0,0,1,1.4-.2,21.22,21.22,0,0,0,2.8-.5v-0.4a2,2,0,0,0-.4-1.4,2.43,2.43,0,0,0-1.8-.5,2.08,2.08,0,0,0-2.4,1.8l-1.5-.2a3.38,3.38,0,0,1,.7-1.6,2.84,2.84,0,0,1,1.4-.9,6.65,6.65,0,0,1,2.1-.3,5,5,0,0,1,1.9.3,2.33,2.33,0,0,1,1.1.7,2.81,2.81,0,0,1,.5,1.1,5.76,5.76,0,0,1,.1,1.5v2.1a17.21,17.21,0,0,0,.1,2.8,3.58,3.58,0,0,0,.4,1.1h-1.7A3.53,3.53,0,0,1,73.75,32.36Zm-0.1-3.5a17.14,17.14,0,0,1-2.6.6,7.83,7.83,0,0,0-1.4.3,1,1,0,0,0-.6.5,1.88,1.88,0,0,0-.2.8,1.61,1.61,0,0,0,.5,1.1,2,2,0,0,0,1.4.4,2.73,2.73,0,0,0,1.6-.4,2.66,2.66,0,0,0,1-1.1,3.51,3.51,0,0,0,.3-1.6v-0.6h0Z"/><path class="a" d="M79.15,33.56h-1.5V20.66h1.6v4.6a3.32,3.32,0,0,1,2.6-1.3,3.51,3.51,0,0,1,2.9,1.3,5.3,5.3,0,0,1,.8,1.5,5.82,5.82,0,0,1,.3,1.9,5.31,5.31,0,0,1-1.2,3.7,3.54,3.54,0,0,1-2.8,1.3,3,3,0,0,1-2.6-1.4v1.3h-0.1Zm0-4.7a4.77,4.77,0,0,0,.5,2.4,2.31,2.31,0,0,0,2,1.2,2.27,2.27,0,0,0,1.8-.9,4.14,4.14,0,0,0,.8-2.7,4.15,4.15,0,0,0-.7-2.7,2.25,2.25,0,0,0-3.6,0A3.8,3.8,0,0,0,79.15,28.86Z"/><path class="a" d="M94.05,30.56l1.6,0.2a3.84,3.84,0,0,1-1.4,2.2,4.55,4.55,0,0,1-2.7.8,3.94,3.94,0,0,1-3.2-1.3,4.79,4.79,0,0,1-1.2-3.5,5.31,5.31,0,0,1,1.2-3.7,4.35,4.35,0,0,1,6.2,0,5.05,5.05,0,0,1,1.2,3.6v0.4h-7a3.7,3.7,0,0,0,.9,2.4,2.57,2.57,0,0,0,2,.8A2.44,2.44,0,0,0,94.05,30.56ZM88.85,28h5.2a3.8,3.8,0,0,0-.6-1.8,2.52,2.52,0,0,0-2-.9,2.41,2.41,0,0,0-1.8.7A3.55,3.55,0,0,0,88.85,28Z"/><path class="a" d="M97.65,33.56V20.66h1.6v12.9h-1.6Z"/><path class="a" d="M19.65,64.56V53.86h1.4v4.4h5.6v-4.4h1.4v10.7h-1.4v-5.1h-5.6v5.1h-1.4Z"/><path class="a" d="M35.55,62.06l1.4,0.2a3.47,3.47,0,0,1-1.2,1.9,3.23,3.23,0,0,1-2.2.7,3.69,3.69,0,0,1-2.7-1.1,4,4,0,0,1-1-2.9,4,4,0,0,1,1-3,3.47,3.47,0,0,1,2.6-1.1,3.25,3.25,0,0,1,2.5,1.1,4,4,0,0,1,1,3v0.4h-5.8a3,3,0,0,0,.7,2,2,2,0,0,0,1.6.7,1.59,1.59,0,0,0,1.2-.4A4.26,4.26,0,0,0,35.55,62.06ZM31.25,60h4.3a3,3,0,0,0-.5-1.5,2.09,2.09,0,0,0-1.6-.8,2,2,0,0,0-1.5.6A2.94,2.94,0,0,0,31.25,60Z"/><path class="a" d="M38.55,64.56V53.86h1.3v10.7h-1.3Z"/><path class="a" d="M42,67.56V56.76h1.2v1a2.84,2.84,0,0,1,1-.9,2.77,2.77,0,0,1,1.3-.3,3.45,3.45,0,0,1,1.8.5,3.33,3.33,0,0,1,1.2,1.4,4.48,4.48,0,0,1,.4,2,4.64,4.64,0,0,1-.4,2.1,4.43,4.43,0,0,1-1.2,1.5,3.37,3.37,0,0,1-1.7.5,2.66,2.66,0,0,1-1.2-.3,5.5,5.5,0,0,1-.9-0.7v3.8H42v0.2Zm1.2-6.8a3.4,3.4,0,0,0,.6,2.2,2,2,0,0,0,3,0,3.71,3.71,0,0,0,.6-2.3,3.4,3.4,0,0,0-.6-2.2,1.8,1.8,0,0,0-1.5-.7,1.9,1.9,0,0,0-1.5.8A3.22,3.22,0,0,0,43.15,60.76Z"/><path class="a" d="M55.65,62.06l1.4,0.2a3.47,3.47,0,0,1-1.2,1.9,3.84,3.84,0,0,1-2.2.7,3.69,3.69,0,0,1-2.7-1.1,4,4,0,0,1-1-2.9,4,4,0,0,1,1-3,3.47,3.47,0,0,1,2.6-1.1,3.25,3.25,0,0,1,2.5,1.1,4,4,0,0,1,1,3v0.4h-5.8a3,3,0,0,0,.7,2,2,2,0,0,0,1.6.7,1.59,1.59,0,0,0,1.2-.4A4.26,4.26,0,0,0,55.65,62.06ZM51.25,60h4.3a3,3,0,0,0-.5-1.5,2.09,2.09,0,0,0-1.6-.8,2,2,0,0,0-1.5.6A2.94,2.94,0,0,0,51.25,60Z"/><path class="a" d="M58.65,64.56v-7.8h1.2V58a3.85,3.85,0,0,1,.8-1.1,1.14,1.14,0,0,1,.8-0.3,2.73,2.73,0,0,1,1.4.4l-0.5,1.2a1.69,1.69,0,0,0-1-.3,1.33,1.33,0,0,0-.8.3,1.79,1.79,0,0,0-.5.7,7.72,7.72,0,0,0-.2,1.5v4.1h-1.2v0.1Z"/><path class="a" d="M70.65,63.36l0.2,1.2a3.75,3.75,0,0,1-1,.1,3.09,3.09,0,0,1-1.1-.2,1.72,1.72,0,0,1-.6-0.6,4.66,4.66,0,0,1-.2-1.6v-4.5H67v-1h1v-1.9l1.3-.8v2.7h1.3v1h-1.3v4.5a1.1,1.1,0,0,0,.1.7,0.53,0.53,0,0,0,.2.3,0.75,0.75,0,0,0,.5.1A0.64,0.64,0,0,0,70.65,63.36Z"/><path class="a" d="M77.25,62.06l1.4,0.2a3.47,3.47,0,0,1-1.2,1.9,3.23,3.23,0,0,1-2.2.7,3.69,3.69,0,0,1-2.7-1.1,4,4,0,0,1-1-2.9,4,4,0,0,1,1-3,3.47,3.47,0,0,1,2.6-1.1,3.25,3.25,0,0,1,2.5,1.1,4,4,0,0,1,1,3v0.4h-5.8a3,3,0,0,0,.7,2,2,2,0,0,0,1.6.7,1.59,1.59,0,0,0,1.2-.4A4.26,4.26,0,0,0,77.25,62.06ZM73,60h4.3a3,3,0,0,0-.5-1.5,2.09,2.09,0,0,0-1.6-.8,2,2,0,0,0-1.5.6A2.94,2.94,0,0,0,73,60Z"/><path class="a" d="M79.45,64.56l2.8-4-2.6-3.7h1.6l1.2,1.8a4.05,4.05,0,0,1,.5.9l0.6-.9,1.3-1.8h1.6l-2.7,3.7,2.9,4.1h-1.6l-1.6-2.4-0.4-.7-2,3.1h-1.6v-0.1Z"/><path class="a" d="M90.65,63.36l0.2,1.2a3.75,3.75,0,0,1-1,.1,3.09,3.09,0,0,1-1.1-.2,1.72,1.72,0,0,1-.6-0.6,4.66,4.66,0,0,1-.2-1.6v-4.5H87v-1h1v-1.9l1.3-.8v2.7h1.3v1h-1.3v4.5a1.1,1.1,0,0,0,.1.7,0.53,0.53,0,0,0,.2.3,0.75,0.75,0,0,0,.5.1A0.64,0.64,0,0,0,90.65,63.36Z"/><rect class="b" x="17.95" y="44.06" width="351" height="1"/></svg>