<svg xmlns="http://www.w3.org/2000/svg" viewBox="0 0 400 110"><defs><style>.a{fill:#fff;}.b{fill:#fa6400;}</style></defs><title>forms</title><path class="a" d="M21.75,45.57V32.67h1.7V38h6.7v-5.3h1.7v12.9h-1.7v-6.1h-6.7v6.1h-1.7Z"/><path class="a" d="M40.65,44.37a8.16,8.16,0,0,1-1.7,1.1,3.42,3.42,0,0,1-1.7.3,3.65,3.65,0,0,1-2.4-.8,2.24,2.24,0,0,1-.8-1.9,2.77,2.77,0,0,1,.3-1.3,2.36,2.36,0,0,1,.8-0.9,3.7,3.7,0,0,1,1.1-.5,4.64,4.64,0,0,1,1.4-.2,21.22,21.22,0,0,0,2.8-.5v-0.4a2,2,0,0,0-.4-1.4,2.43,2.43,0,0,0-1.8-.5,2.36,2.36,0,0,0-1.6.4,3,3,0,0,0-.8,1.4l-1.5-.2a3.38,3.38,0,0,1,.7-1.6,2.84,2.84,0,0,1,1.4-.9,6.65,6.65,0,0,1,2.1-.3,5,5,0,0,1,1.9.3,2.33,2.33,0,0,1,1.1.7,2.81,2.81,0,0,1,.5,1.1,5.76,5.76,0,0,1,.1,1.5v2.1a17.21,17.21,0,0,0,.1,2.8,3.58,3.58,0,0,0,.4,1.1H41A3.53,3.53,0,0,1,40.65,44.37Zm-0.2-3.5a17.14,17.14,0,0,1-2.6.6,7.83,7.83,0,0,0-1.4.3,1,1,0,0,0-.6.5,1.88,1.88,0,0,0-.2.8,1.61,1.61,0,0,0,.5,1.1,2,2,0,0,0,1.4.4,2.73,2.73,0,0,0,1.6-.4,2.66,2.66,0,0,0,1-1.1,3.51,3.51,0,0,0,.3-1.6v-0.6h0Z"/><path class="a" d="M44.55,49.17V36.27H46v1.2a3.18,3.18,0,0,1,1.2-1.1,3.41,3.41,0,0,1,1.6-.4,3.7,3.7,0,0,1,2.1.6,3.91,3.91,0,0,1,1.4,1.7,6.55,6.55,0,0,1,.5,2.5,7.08,7.08,0,0,1-.5,2.6,3.35,3.35,0,0,1-1.5,1.8,3.94,3.94,0,0,1-2.1.6,3.19,3.19,0,0,1-1.4-.3,2.72,2.72,0,0,1-1-.8v4.5h-1.7ZM46,41a4.15,4.15,0,0,0,.7,2.7,2.25,2.25,0,0,0,3.6,0,4.25,4.25,0,0,0,.8-2.8,4.15,4.15,0,0,0-.7-2.7,2.25,2.25,0,0,0-3.6,0A4.65,4.65,0,0,0,46,41Z"/><path class="a" d="M54.55,49.17V36.27H56v1.2a3.18,3.18,0,0,1,1.2-1.1,3.41,3.41,0,0,1,1.6-.4,3.7,3.7,0,0,1,2.1.6,3.91,3.91,0,0,1,1.4,1.7,6.55,6.55,0,0,1,.5,2.5,7.08,7.08,0,0,1-.5,2.6,3.35,3.35,0,0,1-1.5,1.8,3.94,3.94,0,0,1-2.1.6,3.19,3.19,0,0,1-1.4-.3,2.72,2.72,0,0,1-1-.8v4.5h-1.7ZM56,41a4.15,4.15,0,0,0,.7,2.7,2.25,2.25,0,0,0,3.6,0,4.25,4.25,0,0,0,.8-2.8,4.15,4.15,0,0,0-.7-2.7,2.25,2.25,0,0,0-3.6,0A4.65,4.65,0,0,0,56,41Z"/><path class="a" d="M64.55,34.47v-1.8h1.6v1.8h-1.6Zm0,11.1v-9.3h1.6v9.3h-1.6Z"/><path class="a" d="M68.55,45.57v-9.3H70v1.3a3.44,3.44,0,0,1,3-1.5,4.15,4.15,0,0,1,1.6.3,3.13,3.13,0,0,1,1.1.8,2.19,2.19,0,0,1,.5,1.2,5.76,5.76,0,0,1,.1,1.5v5.7h-1.6v-5.7a4.64,4.64,0,0,0-.2-1.4,1.34,1.34,0,0,0-.7-0.8,2,2,0,0,0-1.1-.3A2.35,2.35,0,0,0,71,38a3,3,0,0,0-.7,2.4v5.1h-1.7v0.1Z"/><path class="a" d="M85,42.57l1.6,0.2a3.84,3.84,0,0,1-1.4,2.2,4.55,4.55,0,0,1-2.7.8,3.94,3.94,0,0,1-3.2-1.3,4.79,4.79,0,0,1-1.2-3.5,5.31,5.31,0,0,1,1.2-3.7,4.35,4.35,0,0,1,6.2,0,5.05,5.05,0,0,1,1.2,3.6v0.4h-7a3.7,3.7,0,0,0,.9,2.4,2.57,2.57,0,0,0,2,.8A2.44,2.44,0,0,0,85,42.57ZM79.75,40H85a3.8,3.8,0,0,0-.6-1.8,2.52,2.52,0,0,0-2-.9,2.41,2.41,0,0,0-1.8.7A4.45,4.45,0,0,0,79.75,40Z"/><path class="a" d="M88,42.77l1.6-.2a2.1,2.1,0,0,0,.7,1.4,2.86,2.86,0,0,0,1.7.5,2.36,2.36,0,0,0,1.6-.4,1.39,1.39,0,0,0,.5-1,0.89,0.89,0,0,0-.5-0.8,10.42,10.42,0,0,0-1.6-.5,8.06,8.06,0,0,1-2.4-.8,2.19,2.19,0,0,1-1-.9,2.77,2.77,0,0,1-.3-1.3,2.66,2.66,0,0,1,.3-1.2,3.45,3.45,0,0,1,.8-0.9,4.61,4.61,0,0,1,1-.5,5.9,5.9,0,0,1,1.4-.2,5.41,5.41,0,0,1,1.9.3,1.93,1.93,0,0,1,1.2.9,2.92,2.92,0,0,1,.5,1.4l-1.5.2a1.68,1.68,0,0,0-.6-1.1,2,2,0,0,0-1.4-.4,2.54,2.54,0,0,0-1.6.4,0.92,0.92,0,0,0-.5.8,1.42,1.42,0,0,0,.2.6,0.92,0.92,0,0,0,.6.4,9.31,9.31,0,0,0,1.4.4,17,17,0,0,1,2.3.7,2.72,2.72,0,0,1,1,.8,2.59,2.59,0,0,1,.4,1.4,3,3,0,0,1-.5,1.5,3.48,3.48,0,0,1-1.3,1.1,4.21,4.21,0,0,1-2,.4,4.65,4.65,0,0,1-2.8-.8A3.8,3.8,0,0,1,88,42.77Z"/><path class="a" d="M97,42.77l1.6-.2a2.1,2.1,0,0,0,.7,1.4,2.86,2.86,0,0,0,1.7.5,2.36,2.36,0,0,0,1.6-.4,1.39,1.39,0,0,0,.5-1,0.89,0.89,0,0,0-.5-0.8,10.42,10.42,0,0,0-1.6-.5,8.06,8.06,0,0,1-2.4-.8,2.19,2.19,0,0,1-1-.9,2.77,2.77,0,0,1-.3-1.3,2.66,2.66,0,0,1,.3-1.2,3.45,3.45,0,0,1,.8-0.9,4.61,4.61,0,0,1,1-.5,5.9,5.9,0,0,1,1.4-.2,5.41,5.41,0,0,1,1.9.3,1.93,1.93,0,0,1,1.2.9,2.92,2.92,0,0,1,.5,1.4l-1.5.2a1.68,1.68,0,0,0-.6-1.1,2,2,0,0,0-1.4-.4,2.54,2.54,0,0,0-1.6.4,0.92,0.92,0,0,0-.5.8,1.42,1.42,0,0,0,.2.6,0.92,0.92,0,0,0,.6.4,9.31,9.31,0,0,0,1.4.4,17,17,0,0,1,2.3.7,2.72,2.72,0,0,1,1,.8,2.59,2.59,0,0,1,.4,1.4,3,3,0,0,1-.5,1.5,3.48,3.48,0,0,1-1.3,1.1,4.21,4.21,0,0,1-2,.4,4.65,4.65,0,0,1-2.8-.8A3.8,3.8,0,0,1,97,42.77Z"/><path class="a" d="M113.35,45.57l-2.9-9.3h1.6l1.5,5.4,0.6,2c0-.1.2-0.7,0.5-1.9l1.5-5.5h1.6l1.4,5.4,0.5,1.8,0.5-1.8,1.6-5.4h1.5l-2.9,9.3h-1.6l-1.5-5.6-0.4-1.6-1.9,7.2h-1.6Z"/><path class="a" d="M124.55,34.47v-1.8h1.6v1.8h-1.6Zm0,11.1v-9.3h1.6v9.3h-1.6Z"/><path class="a" d="M128.55,45.57V32.67h1.6v12.9h-1.6Z"/><path class="a" d="M132.55,45.57V32.67h1.6v12.9h-1.6Z"/><path class="a" d="M141.55,45.57v-9.3H143v1.3a3.44,3.44,0,0,1,3-1.5,4.15,4.15,0,0,1,1.6.3,3.13,3.13,0,0,1,1.1.8,2.19,2.19,0,0,1,.5,1.2,5.76,5.76,0,0,1,.1,1.5v5.7h-1.6v-5.7a4.64,4.64,0,0,0-.2-1.4,1.34,1.34,0,0,0-.7-0.8,2,2,0,0,0-1.1-.3,2.35,2.35,0,0,0-1.7.6,3,3,0,0,0-.7,2.4v5.1h-1.7v0.1Z"/><path class="a" d="M158,42.57l1.6,0.2a3.84,3.84,0,0,1-1.4,2.2,4.55,4.55,0,0,1-2.7.8,3.94,3.94,0,0,1-3.2-1.3,4.79,4.79,0,0,1-1.2-3.5,5.31,5.31,0,0,1,1.2-3.7,4.35,4.35,0,0,1,6.2,0,5.05,5.05,0,0,1,1.2,3.6v0.4h-7a3.7,3.7,0,0,0,.9,2.4,2.57,2.57,0,0,0,2,.8A2.44,2.44,0,0,0,158,42.57Zm-5.2-2.6H158a3.8,3.8,0,0,0-.6-1.8,2.52,2.52,0,0,0-2-.9,2.41,2.41,0,0,0-1.8.7A4.45,4.45,0,0,0,152.75,40Z"/><path class="a" d="M164.25,45.57l-3.6-9.3h1.7l2,5.6c0.2,0.6.4,1.2,0.6,1.9a9.41,9.41,0,0,1,.6-1.8l2.1-5.7h1.6l-3.5,9.3h-1.5Z"/><path class="a" d="M177,42.57l1.6,0.2a3.84,3.84,0,0,1-1.4,2.2,4.55,4.55,0,0,1-2.7.8,3.94,3.94,0,0,1-3.2-1.3,4.79,4.79,0,0,1-1.2-3.5,5.31,5.31,0,0,1,1.2-3.7,4.35,4.35,0,0,1,6.2,0,5.05,5.05,0,0,1,1.2,3.6v0.4h-7a3.7,3.7,0,0,0,.9,2.4,2.57,2.57,0,0,0,2,.8A2.44,2.44,0,0,0,177,42.57Zm-5.1-2.6h5.2a3.8,3.8,0,0,0-.6-1.8,2.52,2.52,0,0,0-2-.9,2.41,2.41,0,0,0-1.8.7A3,3,0,0,0,171.85,40Z"/><path class="a" d="M180.65,45.57v-9.3h1.4v1.4a3.85,3.85,0,0,1,1-1.3,1.69,1.69,0,0,1,1-.3,3.32,3.32,0,0,1,1.6.5l-0.5,1.5a2.66,2.66,0,0,0-1.2-.3,1.4,1.4,0,0,0-.9.3,2,2,0,0,0-.6.9,5.66,5.66,0,0,0-.3,1.8v4.9h-1.5v-0.1Z"/><path class="a" d="M197.75,42.17l1.6,0.2a4,4,0,0,1-1.3,2.5,3.92,3.92,0,0,1-2.6.9,3.87,3.87,0,0,1-3.1-1.3,4.89,4.89,0,0,1-1.2-3.6,6.69,6.69,0,0,1,.5-2.6,3.53,3.53,0,0,1,1.5-1.7,4.28,4.28,0,0,1,2.2-.6,4.15,4.15,0,0,1,2.5.8,2.87,2.87,0,0,1,1.2,2.2l-1.5.2a2.19,2.19,0,0,0-.8-1.4,2.11,2.11,0,0,0-1.3-.5,2.32,2.32,0,0,0-1.9.9,4.15,4.15,0,0,0-.7,2.7,3.81,3.81,0,0,0,.7,2.7,2.65,2.65,0,0,0,1.9.9,2.45,2.45,0,0,0,1.6-.6A2.68,2.68,0,0,0,197.75,42.17Z"/><path class="a" d="M200.05,40.87a4.9,4.9,0,0,1,1.4-3.8,4.27,4.27,0,0,1,2.9-1,3.87,3.87,0,0,1,3.1,1.3,5,5,0,0,1,1.2,3.5,7,7,0,0,1-.5,2.8,4.1,4.1,0,0,1-1.6,1.6,4.38,4.38,0,0,1-2.3.6,4.08,4.08,0,0,1-3.2-1.3A6.51,6.51,0,0,1,200.05,40.87Zm1.6,0a4.14,4.14,0,0,0,.8,2.7,2.52,2.52,0,0,0,2,.9,2.66,2.66,0,0,0,2-.9,3.65,3.65,0,0,0,.8-2.7,3.84,3.84,0,0,0-.8-2.6,2.52,2.52,0,0,0-2-.9,2.66,2.66,0,0,0-2,.9A3.39,3.39,0,0,0,201.65,40.87Z"/><path class="a" d="M210.65,45.57v-9.3h1.4v1.3a3.18,3.18,0,0,1,1.2-1.1,3.06,3.06,0,0,1,1.7-.4,2.86,2.86,0,0,1,1.7.4,2.15,2.15,0,0,1,.9,1.2,3.26,3.26,0,0,1,2.9-1.6,2.86,2.86,0,0,1,2.1.8,3.29,3.29,0,0,1,.7,2.4v6.4h-1.6v-5.9a4.63,4.63,0,0,0-.2-1.4,1.34,1.34,0,0,0-.6-0.7,1.61,1.61,0,0,0-.9-0.3,1.86,1.86,0,0,0-1.6.7,2.92,2.92,0,0,0-.7,2.1v5.4h-1.6v-6.1a2.54,2.54,0,0,0-.4-1.6,1.43,1.43,0,0,0-1.3-.5,1.75,1.75,0,0,0-1.2.4,1.59,1.59,0,0,0-.8,1,7.66,7.66,0,0,0-.3,2v4.8h-1.4Z"/><path class="a" d="M232.05,42.57l1.6,0.2a3.84,3.84,0,0,1-1.4,2.2,4.55,4.55,0,0,1-2.7.8,3.94,3.94,0,0,1-3.2-1.3,4.79,4.79,0,0,1-1.2-3.5,5.31,5.31,0,0,1,1.2-3.7,4.35,4.35,0,0,1,6.2,0,5.05,5.05,0,0,1,1.2,3.6v0.4h-7a3.7,3.7,0,0,0,.9,2.4,2.57,2.57,0,0,0,2,.8,2.46,2.46,0,0,0,1.5-.5A3.08,3.08,0,0,0,232.05,42.57Zm-5.2-2.6h5.2a3.8,3.8,0,0,0-.6-1.8,2.52,2.52,0,0,0-2-.9,2.41,2.41,0,0,0-1.8.7A3,3,0,0,0,226.85,40Z"/><path class="a" d="M244.05,44.17l0.2,1.4a4.87,4.87,0,0,1-1.2.1,2.27,2.27,0,0,1-1.3-.3,2.34,2.34,0,0,1-.7-0.7,4.21,4.21,0,0,1-.2-1.9v-5.4h-1.2v-1.2h1.2v-2.3l1.6-.9v3.3h1.6v1.2h-1.6V43a2,2,0,0,0,.1.9,0.85,0.85,0,0,0,.3.3,0.75,0.75,0,0,0,.5.1A1.48,1.48,0,0,1,244.05,44.17Z"/><path class="a" d="M245.05,40.87a4.9,4.9,0,0,1,1.4-3.8,4.27,4.27,0,0,1,2.9-1,3.87,3.87,0,0,1,3.1,1.3,5,5,0,0,1,1.2,3.5,7,7,0,0,1-.5,2.8,4.1,4.1,0,0,1-1.6,1.6,4.38,4.38,0,0,1-2.3.6,4.08,4.08,0,0,1-3.2-1.3A6.51,6.51,0,0,1,245.05,40.87Zm1.6,0a4.14,4.14,0,0,0,.8,2.7,2.52,2.52,0,0,0,2,.9,2.66,2.66,0,0,0,2-.9,3.65,3.65,0,0,0,.8-2.7,3.84,3.84,0,0,0-.8-2.6,2.52,2.52,0,0,0-2-.9,2.66,2.66,0,0,0-2,.9A3.39,3.39,0,0,0,246.65,40.87Z"/><path class="a" d="M264.05,44.17l0.2,1.4a4.87,4.87,0,0,1-1.2.1,2.27,2.27,0,0,1-1.3-.3,2.34,2.34,0,0,1-.7-0.7,4.21,4.21,0,0,1-.2-1.9v-5.4h-1.2v-1.2h1.2v-2.3l1.6-.9v3.3h1.6v1.2h-1.6V43a2,2,0,0,0,.1.9,0.85,0.85,0,0,0,.3.3,0.75,0.75,0,0,0,.5.1A1.7,1.7,0,0,1,264.05,44.17Z"/><path class="a" d="M265.65,45.57V32.67h1.6v4.6a3.86,3.86,0,0,1,4.6-.9,2.35,2.35,0,0,1,1.1,1.1,5.84,5.84,0,0,1,.3,2.1v5.9h-1.6v-5.9a2.46,2.46,0,0,0-.5-1.7,1.72,1.72,0,0,0-1.5-.5,2,2,0,0,0-1.3.4,2.19,2.19,0,0,0-.9,1,4,4,0,0,0-.3,1.7v5.1h-1.5Z"/><path class="a" d="M275.05,40.87a4.9,4.9,0,0,1,1.4-3.8,4.27,4.27,0,0,1,2.9-1,3.87,3.87,0,0,1,3.1,1.3,5,5,0,0,1,1.2,3.5,7,7,0,0,1-.5,2.8,4.1,4.1,0,0,1-1.6,1.6,4.38,4.38,0,0,1-2.3.6,4.08,4.08,0,0,1-3.2-1.3A6.51,6.51,0,0,1,275.05,40.87Zm1.6,0a4.14,4.14,0,0,0,.8,2.7,2.52,2.52,0,0,0,2,.9,2.66,2.66,0,0,0,2-.9,3.65,3.65,0,0,0,.8-2.7,3.84,3.84,0,0,0-.8-2.6,2.52,2.52,0,0,0-2-.9,2.66,2.66,0,0,0-2,.9A3.39,3.39,0,0,0,276.65,40.87Z"/><path class="a" d="M285.05,42.77l1.6-.2a2.1,2.1,0,0,0,.7,1.4,2.86,2.86,0,0,0,1.7.5,2.36,2.36,0,0,0,1.6-.4,1.39,1.39,0,0,0,.5-1,0.89,0.89,0,0,0-.5-0.8,10.42,10.42,0,0,0-1.6-.5,8.06,8.06,0,0,1-2.4-.8,2.19,2.19,0,0,1-1-.9,2.77,2.77,0,0,1-.3-1.3,2.66,2.66,0,0,1,.3-1.2,2.28,2.28,0,0,1,.8-0.9,4.61,4.61,0,0,1,1-.5,5.9,5.9,0,0,1,1.4-.2,5.41,5.41,0,0,1,1.9.3,1.93,1.93,0,0,1,1.2.9,2.92,2.92,0,0,1,.5,1.4l-1.5.2a1.68,1.68,0,0,0-.6-1.1,2,2,0,0,0-1.4-.4,2.54,2.54,0,0,0-1.6.4,0.92,0.92,0,0,0-.5.8,1.42,1.42,0,0,0,.2.6,0.92,0.92,0,0,0,.6.4,9.3,9.3,0,0,0,1.4.4,17,17,0,0,1,2.3.7,2.72,2.72,0,0,1,1,.8,2.59,2.59,0,0,1,.4,1.4,3,3,0,0,1-.5,1.5,3.48,3.48,0,0,1-1.3,1.1,4.21,4.21,0,0,1-2,.4,4.65,4.65,0,0,1-2.8-.8A3.8,3.8,0,0,1,285.05,42.77Z"/><path class="a" d="M301.05,42.57l1.6,0.2a3.84,3.84,0,0,1-1.4,2.2,4.55,4.55,0,0,1-2.7.8,3.94,3.94,0,0,1-3.2-1.3,4.79,4.79,0,0,1-1.2-3.5,5.31,5.31,0,0,1,1.2-3.7,4.35,4.35,0,0,1,6.2,0,5.05,5.05,0,0,1,1.2,3.6v0.4h-7a3.7,3.7,0,0,0,.9,2.4,2.57,2.57,0,0,0,2,.8A2.44,2.44,0,0,0,301.05,42.57Zm-5.2-2.6h5.2a3.8,3.8,0,0,0-.6-1.8,2.52,2.52,0,0,0-2-.9,2.41,2.41,0,0,0-1.8.7A3.55,3.55,0,0,0,295.85,40Z"/><path class="a" d="M311.35,45.57l-2.9-9.3h1.6l1.5,5.4,0.6,2c0-.1.2-0.7,0.5-1.9l1.5-5.5h1.6l1.4,5.4,0.5,1.8,0.5-1.8,1.6-5.4h1.5l-2.9,9.3h-1.6l-1.5-5.6-0.4-1.6-1.9,7.2h-1.6Z"/><path class="a" d="M322.65,45.57V32.67h1.6v4.6a3.86,3.86,0,0,1,4.6-.9,2.35,2.35,0,0,1,1.1,1.1,5.84,5.84,0,0,1,.3,2.1v5.9h-1.6v-5.9a2.46,2.46,0,0,0-.5-1.7,1.72,1.72,0,0,0-1.5-.5,2,2,0,0,0-1.3.4,2.19,2.19,0,0,0-.9,1,4,4,0,0,0-.3,1.7v5.1h-1.5Z"/><path class="a" d="M332.05,40.87a4.9,4.9,0,0,1,1.4-3.8,4.27,4.27,0,0,1,2.9-1,3.87,3.87,0,0,1,3.1,1.3,5,5,0,0,1,1.2,3.5,7,7,0,0,1-.5,2.8,4.1,4.1,0,0,1-1.6,1.6,4.38,4.38,0,0,1-2.3.6,4.08,4.08,0,0,1-3.2-1.3A7.4,7.4,0,0,1,332.05,40.87Zm1.7,0a4.14,4.14,0,0,0,.8,2.7,2.52,2.52,0,0,0,2,.9,2.66,2.66,0,0,0,2-.9,3.65,3.65,0,0,0,.8-2.7,3.84,3.84,0,0,0-.8-2.6,2.52,2.52,0,0,0-2-.9,2.66,2.66,0,0,0-2,.9A3.39,3.39,0,0,0,333.75,40.87Z"/><path class="a" d="M348.05,45.57v-8.1h-1.4v-1.2h1.4v-1a4.63,4.63,0,0,1,.2-1.4,2.29,2.29,0,0,1,2.4-1.4,10.4,10.4,0,0,1,1.5.2l-0.2,1.4a2.77,2.77,0,0,0-.9-0.1,1.33,1.33,0,0,0-1,.3,1.74,1.74,0,0,0-.3,1.2v0.9h1.8v1.2h-1.8v8.1h-1.7v-0.1Z"/><path class="a" d="M358.75,44.37a12,12,0,0,1-1.7,1.1,4.67,4.67,0,0,1-1.7.3A3.65,3.65,0,0,1,353,45a2.24,2.24,0,0,1-.8-1.9,2.77,2.77,0,0,1,.3-1.3,2.36,2.36,0,0,1,.8-0.9,3.7,3.7,0,0,1,1.1-.5,4.64,4.64,0,0,1,1.4-.2,21.22,21.22,0,0,0,2.8-.5v-0.4a2,2,0,0,0-.4-1.4,2.43,2.43,0,0,0-1.8-.5,2.36,2.36,0,0,0-1.6.4,3,3,0,0,0-.8,1.4l-1.5-.2a3.38,3.38,0,0,1,.7-1.6,2.84,2.84,0,0,1,1.4-.9,6.65,6.65,0,0,1,2.1-.3,5,5,0,0,1,1.9.3,2.33,2.33,0,0,1,1.1.7,2.81,2.81,0,0,1,.5,1.1,5.76,5.76,0,0,1,.1,1.5v2.1a17.22,17.22,0,0,0,.1,2.8,3.58,3.58,0,0,0,.4,1.1h-1.7C359,45.27,358.85,44.87,358.75,44.37Zm-0.1-3.5a17.14,17.14,0,0,1-2.6.6,7.83,7.83,0,0,0-1.4.3,1,1,0,0,0-.6.5,1.88,1.88,0,0,0-.2.8,1.61,1.61,0,0,0,.5,1.1,2,2,0,0,0,1.4.4,2.73,2.73,0,0,0,1.6-.4,2.66,2.66,0,0,0,1-1.1,3.51,3.51,0,0,0,.3-1.6v-0.6Z"/><path class="a" d="M362.75,34.47v-1.8h1.6v1.8h-1.6Zm0,11.1v-9.3h1.6v9.3h-1.6Z"/><path class="a" d="M366.65,45.57V32.67h1.6v12.9h-1.6Z"/><path class="a" d="M25,66.17l0.2,1.4a4.87,4.87,0,0,1-1.2.1,2.27,2.27,0,0,1-1.3-.3,2.34,2.34,0,0,1-.7-0.7,4.21,4.21,0,0,1-.2-1.9v-5.4h-1.2v-1.2h1.2v-2.3l1.6-.9v3.3H25v1.2h-1.6V65a2,2,0,0,0,.1.9,0.45,0.45,0,0,0,.3.3,0.9,0.9,0,0,0,.5.1A1.7,1.7,0,0,1,25,66.17Z"/><path class="a" d="M26,62.87a4.9,4.9,0,0,1,1.4-3.8,4.27,4.27,0,0,1,2.9-1,3.87,3.87,0,0,1,3.1,1.3,5,5,0,0,1,1.2,3.5,7,7,0,0,1-.5,2.8,4.1,4.1,0,0,1-1.6,1.6,4.38,4.38,0,0,1-2.3.6,4.08,4.08,0,0,1-3.2-1.3A5.27,5.27,0,0,1,26,62.87Zm1.6,0a4.14,4.14,0,0,0,.8,2.7,2.52,2.52,0,0,0,2,.9,2.66,2.66,0,0,0,2-.9,3.65,3.65,0,0,0,.8-2.7,3.84,3.84,0,0,0-.8-2.6,2.52,2.52,0,0,0-2-.9,2.66,2.66,0,0,0-2,.9A3.39,3.39,0,0,0,27.55,62.87Z"/><path class="a" d="M47.65,66.37a8.16,8.16,0,0,1-1.7,1.1,3.42,3.42,0,0,1-1.7.3,3.65,3.65,0,0,1-2.4-.8,2.24,2.24,0,0,1-.8-1.9,2.77,2.77,0,0,1,.3-1.3,2.36,2.36,0,0,1,.8-0.9,3.7,3.7,0,0,1,1.1-.5,4.64,4.64,0,0,1,1.4-.2,21.22,21.22,0,0,0,2.8-.5v-0.4a2,2,0,0,0-.4-1.4,2.43,2.43,0,0,0-1.8-.5,2.36,2.36,0,0,0-1.6.4,3,3,0,0,0-.8,1.4l-1.5-.2a3.38,3.38,0,0,1,.7-1.6,2.84,2.84,0,0,1,1.4-.9,6.65,6.65,0,0,1,2.1-.3,5,5,0,0,1,1.9.3,2.33,2.33,0,0,1,1.1.7,2.81,2.81,0,0,1,.5,1.1,5.76,5.76,0,0,1,.1,1.5v2.1a17.21,17.21,0,0,0,.1,2.8,3.58,3.58,0,0,0,.4,1.1H48A3.53,3.53,0,0,1,47.65,66.37Zm-0.1-3.5a17.14,17.14,0,0,1-2.6.6,7.83,7.83,0,0,0-1.4.3,1,1,0,0,0-.6.5,1.88,1.88,0,0,0-.2.8,1.61,1.61,0,0,0,.5,1.1,2,2,0,0,0,1.4.4,2.73,2.73,0,0,0,1.6-.4,2.66,2.66,0,0,0,1-1.1,3.51,3.51,0,0,0,.3-1.6v-0.6h0Z"/><path class="a" d="M51.55,71.17V58.27H53v1.2a3.18,3.18,0,0,1,1.2-1.1,3.41,3.41,0,0,1,1.6-.4,3.7,3.7,0,0,1,2.1.6,3.91,3.91,0,0,1,1.4,1.7,6.55,6.55,0,0,1,.5,2.5,7.08,7.08,0,0,1-.5,2.6,3.35,3.35,0,0,1-1.5,1.8,3.94,3.94,0,0,1-2.1.6,3.19,3.19,0,0,1-1.4-.3,2.72,2.72,0,0,1-1-.8v4.5h-1.7ZM53,63a4.15,4.15,0,0,0,.7,2.7,2.25,2.25,0,0,0,3.6,0,4.25,4.25,0,0,0,.8-2.8,4.15,4.15,0,0,0-.7-2.7,2.25,2.25,0,0,0-3.6,0A4.65,4.65,0,0,0,53,63Z"/><path class="a" d="M61.55,71.17V58.27H63v1.2a3.18,3.18,0,0,1,1.2-1.1,3.41,3.41,0,0,1,1.6-.4,3.7,3.7,0,0,1,2.1.6,3.91,3.91,0,0,1,1.4,1.7,6.55,6.55,0,0,1,.5,2.5,7.08,7.08,0,0,1-.5,2.6,3.35,3.35,0,0,1-1.5,1.8,3.94,3.94,0,0,1-2.1.6,3.19,3.19,0,0,1-1.4-.3,2.72,2.72,0,0,1-1-.8v4.5h-1.7Zm1.5-8.2a4.15,4.15,0,0,0,.7,2.7,2.25,2.25,0,0,0,3.6,0,4.25,4.25,0,0,0,.8-2.8,4.15,4.15,0,0,0-.7-2.7,2.25,2.25,0,0,0-3.6,0A4.07,4.07,0,0,0,63.05,63Z"/><path class="a" d="M71.55,67.57v-9.3H73v1.4a3.85,3.85,0,0,1,1-1.3,1.69,1.69,0,0,1,1-.3,3.32,3.32,0,0,1,1.6.5l-0.5,1.5a2.66,2.66,0,0,0-1.2-.3,1.4,1.4,0,0,0-.9.3,2,2,0,0,0-.6.9,5.66,5.66,0,0,0-.3,1.8v4.9h-1.5v-0.1Z"/><path class="a" d="M84,64.57l1.6,0.2a3.84,3.84,0,0,1-1.4,2.2,4.55,4.55,0,0,1-2.7.8,3.94,3.94,0,0,1-3.2-1.3,4.79,4.79,0,0,1-1.2-3.5,5.31,5.31,0,0,1,1.2-3.7,4.35,4.35,0,0,1,6.2,0,5.05,5.05,0,0,1,1.2,3.6v0.4h-7a3.7,3.7,0,0,0,.9,2.4,2.57,2.57,0,0,0,2,.8A2.44,2.44,0,0,0,84,64.57ZM78.75,62H84a3.8,3.8,0,0,0-.6-1.8,2.52,2.52,0,0,0-2-.9,2.41,2.41,0,0,0-1.8.7A3.55,3.55,0,0,0,78.75,62Z"/><path class="a" d="M93.65,64.17l1.6,0.2a4,4,0,0,1-1.3,2.5,3.92,3.92,0,0,1-2.6.9,3.87,3.87,0,0,1-3.1-1.3,4.89,4.89,0,0,1-1.2-3.6,6.69,6.69,0,0,1,.5-2.6,3.53,3.53,0,0,1,1.5-1.7,4.28,4.28,0,0,1,2.2-.6,4.15,4.15,0,0,1,2.5.8A2.87,2.87,0,0,1,95,61l-1.5.2a2.19,2.19,0,0,0-.8-1.4,2.11,2.11,0,0,0-1.3-.5,2.32,2.32,0,0,0-1.9.9,4.15,4.15,0,0,0-.7,2.7,3.81,3.81,0,0,0,.7,2.7,2.65,2.65,0,0,0,1.9.9,2.45,2.45,0,0,0,1.6-.6A2.24,2.24,0,0,0,93.65,64.17Z"/><path class="a" d="M96.55,56.47v-1.8h1.6v1.8h-1.6Zm0,11.1v-9.3h1.6v9.3h-1.6Z"/><path class="a" d="M106.65,66.37a12,12,0,0,1-1.7,1.1,4.67,4.67,0,0,1-1.7.3,3.65,3.65,0,0,1-2.4-.8,2.24,2.24,0,0,1-.8-1.9,2.77,2.77,0,0,1,.3-1.3,2.36,2.36,0,0,1,.8-0.9,3.7,3.7,0,0,1,1.1-.5,4.64,4.64,0,0,1,1.4-.2,21.22,21.22,0,0,0,2.8-.5v-0.4a2,2,0,0,0-.4-1.4,2.43,2.43,0,0,0-1.8-.5,2.08,2.08,0,0,0-2.4,1.8l-1.5-.2a3.38,3.38,0,0,1,.7-1.6,2.84,2.84,0,0,1,1.4-.9,6.65,6.65,0,0,1,2.1-.3,5,5,0,0,1,1.9.3,2.33,2.33,0,0,1,1.1.7,2.81,2.81,0,0,1,.5,1.1,5.76,5.76,0,0,1,.1,1.5v2.1a17.21,17.21,0,0,0,.1,2.8,3.58,3.58,0,0,0,.4,1.1H107C106.85,67.27,106.75,66.87,106.65,66.37Zm-0.1-3.5a17.14,17.14,0,0,1-2.6.6,7.83,7.83,0,0,0-1.4.3,1,1,0,0,0-.6.5,1.88,1.88,0,0,0-.2.8,1.61,1.61,0,0,0,.5,1.1,2,2,0,0,0,1.4.4,2.73,2.73,0,0,0,1.6-.4,2.66,2.66,0,0,0,1-1.1,3.51,3.51,0,0,0,.3-1.6v-0.6h0Z"/><path class="a" d="M114.05,66.17l0.2,1.4a4.87,4.87,0,0,1-1.2.1,2.27,2.27,0,0,1-1.3-.3,2.34,2.34,0,0,1-.7-0.7,4.21,4.21,0,0,1-.2-1.9v-5.4h-1.2v-1.2h1.2v-2.3l1.6-.9v3.3h1.6v1.2h-1.6V65a2,2,0,0,0,.1.9,0.85,0.85,0,0,0,.3.3,0.75,0.75,0,0,0,.5.1A1.48,1.48,0,0,1,114.05,66.17Z"/><path class="a" d="M122,64.57l1.6,0.2a3.84,3.84,0,0,1-1.4,2.2,4.55,4.55,0,0,1-2.7.8,3.94,3.94,0,0,1-3.2-1.3,4.79,4.79,0,0,1-1.2-3.5,5.31,5.31,0,0,1,1.2-3.7,4.35,4.35,0,0,1,6.2,0,5.05,5.05,0,0,1,1.2,3.6v0.4h-7a3.7,3.7,0,0,0,.9,2.4,2.57,2.57,0,0,0,2,.8A2.44,2.44,0,0,0,122,64.57Zm-5.2-2.6H122a3.8,3.8,0,0,0-.6-1.8,2.52,2.52,0,0,0-2-.9,2.41,2.41,0,0,0-1.8.7A4.45,4.45,0,0,0,116.75,62Z"/><path class="a" d="M132.35,67.57l-2.9-9.3h1.6l1.5,5.4,0.6,2c0-.1.2-0.7,0.5-1.9l1.5-5.5h1.6l1.4,5.4,0.5,1.8,0.5-1.8,1.6-5.4h1.5l-2.9,9.3h-1.6l-1.5-5.6-0.4-1.6-1.9,7.2h-1.6Z"/><path class="a" d="M143.65,67.57V54.67h1.6v4.6a3.86,3.86,0,0,1,4.6-.9,2.35,2.35,0,0,1,1.1,1.1,5.84,5.84,0,0,1,.3,2.1v5.9h-1.6v-5.9a2.46,2.46,0,0,0-.5-1.7,1.72,1.72,0,0,0-1.5-.5,2,2,0,0,0-1.3.4,2.19,2.19,0,0,0-.9,1,4,4,0,0,0-.3,1.7v5.1h-1.5Z"/><path class="a" d="M159.75,66.37a12,12,0,0,1-1.7,1.1,4.67,4.67,0,0,1-1.7.3A3.65,3.65,0,0,1,154,67a2.24,2.24,0,0,1-.8-1.9,2.77,2.77,0,0,1,.3-1.3,2.36,2.36,0,0,1,.8-0.9,3.7,3.7,0,0,1,1.1-.5,4.64,4.64,0,0,1,1.4-.2,21.22,21.22,0,0,0,2.8-.5v-0.4a2,2,0,0,0-.4-1.4,2.43,2.43,0,0,0-1.8-.5,2.08,2.08,0,0,0-2.4,1.8l-1.5-.2a3.38,3.38,0,0,1,.7-1.6,2.84,2.84,0,0,1,1.4-.9,6.65,6.65,0,0,1,2.1-.3,5,5,0,0,1,1.9.3,2.33,2.33,0,0,1,1.1.7,2.81,2.81,0,0,1,.5,1.1,5.76,5.76,0,0,1,.1,1.5v2.1a17.21,17.21,0,0,0,.1,2.8,3.58,3.58,0,0,0,.4,1.1h-1.7A3.53,3.53,0,0,1,159.75,66.37Zm-0.2-3.5a17.14,17.14,0,0,1-2.6.6,7.83,7.83,0,0,0-1.4.3,1,1,0,0,0-.6.5,1.88,1.88,0,0,0-.2.8,1.61,1.61,0,0,0,.5,1.1,2,2,0,0,0,1.4.4,2.73,2.73,0,0,0,1.6-.4,2.66,2.66,0,0,0,1-1.1,3.51,3.51,0,0,0,.3-1.6v-0.6h0Z"/><path class="a" d="M167.05,66.17l0.2,1.4a4.87,4.87,0,0,1-1.2.1,2.27,2.27,0,0,1-1.3-.3,2.34,2.34,0,0,1-.7-0.7,4.21,4.21,0,0,1-.2-1.9v-5.4h-1.2v-1.2h1.2v-2.3l1.6-.9v3.3h1.6v1.2h-1.6V65a2,2,0,0,0,.1.9,0.85,0.85,0,0,0,.3.3,0.75,0.75,0,0,0,.5.1A1.48,1.48,0,0,1,167.05,66.17Z"/><path class="a" d="M177.05,66.17l0.2,1.4a4.87,4.87,0,0,1-1.2.1,2.27,2.27,0,0,1-1.3-.3,2.34,2.34,0,0,1-.7-0.7,4.21,4.21,0,0,1-.2-1.9v-5.4h-1.2v-1.2h1.2v-2.3l1.6-.9v3.3h1.6v1.2h-1.6V65a2,2,0,0,0,.1.9,0.85,0.85,0,0,0,.3.3,0.75,0.75,0,0,0,.5.1A1.48,1.48,0,0,1,177.05,66.17Z"/><path class="a" d="M178.65,67.57V54.67h1.6v4.6a3.86,3.86,0,0,1,4.6-.9,2.35,2.35,0,0,1,1.1,1.1,5.84,5.84,0,0,1,.3,2.1v5.9h-1.6v-5.9a2.46,2.46,0,0,0-.5-1.7,1.72,1.72,0,0,0-1.5-.5,2,2,0,0,0-1.3.4,2.19,2.19,0,0,0-.9,1,4,4,0,0,0-.3,1.7v5.1h-1.5Z"/><path class="a" d="M195.05,64.57l1.6,0.2a3.84,3.84,0,0,1-1.4,2.2,4.55,4.55,0,0,1-2.7.8,3.94,3.94,0,0,1-3.2-1.3,4.79,4.79,0,0,1-1.2-3.5,5.31,5.31,0,0,1,1.2-3.7,4.35,4.35,0,0,1,6.2,0,5.05,5.05,0,0,1,1.2,3.6v0.4h-7a3.7,3.7,0,0,0,.9,2.4,2.57,2.57,0,0,0,2,.8,2.46,2.46,0,0,0,1.5-.5A3.08,3.08,0,0,0,195.05,64.57Zm-5.2-2.6h5.2a3.8,3.8,0,0,0-.6-1.8,2.52,2.52,0,0,0-2-.9,2.41,2.41,0,0,0-1.8.7A3,3,0,0,0,189.85,62Z"/><path class="a" d="M198.55,71.17l-0.2-1.5a2.77,2.77,0,0,0,.9.1,1.55,1.55,0,0,0,.8-0.2,1.21,1.21,0,0,0,.5-0.5,8.66,8.66,0,0,0,.5-1.2,2.27,2.27,0,0,0,.1-0.4l-3.5-9.4h1.7l1.9,5.4a14.16,14.16,0,0,1,.7,2.2,17.24,17.24,0,0,1,.7-2.1l2-5.4h1.6l-3.6,9.5q-0.6,1.5-.9,2.1a2.71,2.71,0,0,1-1,1.1,2.84,2.84,0,0,1-1.3.4A1.53,1.53,0,0,1,198.55,71.17Z"/><path class="a" d="M218.75,66.37a8.16,8.16,0,0,1-1.7,1.1,4.67,4.67,0,0,1-1.7.3A3.65,3.65,0,0,1,213,67a2.24,2.24,0,0,1-.8-1.9,2.77,2.77,0,0,1,.3-1.3,2.36,2.36,0,0,1,.8-0.9,3.7,3.7,0,0,1,1.1-.5,4.64,4.64,0,0,1,1.4-.2,21.22,21.22,0,0,0,2.8-.5v-0.4a2,2,0,0,0-.4-1.4,2.43,2.43,0,0,0-1.8-.5,2.08,2.08,0,0,0-2.4,1.8l-1.5-.2a3.38,3.38,0,0,1,.7-1.6,2.84,2.84,0,0,1,1.4-.9,6.65,6.65,0,0,1,2.1-.3,5,5,0,0,1,1.9.3,2.33,2.33,0,0,1,1.1.7,2.81,2.81,0,0,1,.5,1.1,5.76,5.76,0,0,1,.1,1.5v2.1a17.22,17.22,0,0,0,.1,2.8,3.58,3.58,0,0,0,.4,1.1h-1.7A3.53,3.53,0,0,1,218.75,66.37Zm-0.1-3.5a17.14,17.14,0,0,1-2.6.6,7.83,7.83,0,0,0-1.4.3,1,1,0,0,0-.6.5,1.88,1.88,0,0,0-.2.8,1.61,1.61,0,0,0,.5,1.1,2,2,0,0,0,1.4.4,2.73,2.73,0,0,0,1.6-.4,2.66,2.66,0,0,0,1-1.1,3.51,3.51,0,0,0,.3-1.6v-0.6Z"/><path class="a" d="M222.65,67.57V54.67h1.6v12.9h-1.6Z"/><path class="a" d="M226.65,67.57v-9.3h1.4v1.4a3.85,3.85,0,0,1,1-1.3,1.69,1.69,0,0,1,1-.3,3.32,3.32,0,0,1,1.6.5l-0.5,1.5a2.66,2.66,0,0,0-1.2-.3,1.4,1.4,0,0,0-.9.3,2,2,0,0,0-.6.9,5.66,5.66,0,0,0-.3,1.8v4.9h-1.5v-0.1Z"/><path class="a" d="M239.05,64.57l1.6,0.2a3.84,3.84,0,0,1-1.4,2.2,4.55,4.55,0,0,1-2.7.8,3.94,3.94,0,0,1-3.2-1.3,4.79,4.79,0,0,1-1.2-3.5,5.31,5.31,0,0,1,1.2-3.7,4.35,4.35,0,0,1,6.2,0,5.05,5.05,0,0,1,1.2,3.6v0.4h-7a3.7,3.7,0,0,0,.9,2.4,2.57,2.57,0,0,0,2,.8A2.44,2.44,0,0,0,239.05,64.57Zm-5.2-2.6h5.2a3.8,3.8,0,0,0-.6-1.8,2.52,2.52,0,0,0-2-.9,2.41,2.41,0,0,0-1.8.7A3.55,3.55,0,0,0,233.85,62Z"/><path class="a" d="M248.75,66.37a12,12,0,0,1-1.7,1.1,4.67,4.67,0,0,1-1.7.3A3.65,3.65,0,0,1,243,67a2.24,2.24,0,0,1-.8-1.9,2.77,2.77,0,0,1,.3-1.3,2.36,2.36,0,0,1,.8-0.9,3.7,3.7,0,0,1,1.1-.5,4.64,4.64,0,0,1,1.4-.2,21.22,21.22,0,0,0,2.8-.5v-0.4a2,2,0,0,0-.4-1.4,2.43,2.43,0,0,0-1.8-.5,2.08,2.08,0,0,0-2.4,1.8l-1.5-.2a3.38,3.38,0,0,1,.7-1.6,2.84,2.84,0,0,1,1.4-.9,6.65,6.65,0,0,1,2.1-.3,5,5,0,0,1,1.9.3,2.33,2.33,0,0,1,1.1.7,2.81,2.81,0,0,1,.5,1.1,5.76,5.76,0,0,1,.1,1.5v2.1a17.22,17.22,0,0,0,.1,2.8,3.58,3.58,0,0,0,.4,1.1h-1.7C249,67.27,248.85,66.87,248.75,66.37Zm-0.1-3.5a17.14,17.14,0,0,1-2.6.6,7.83,7.83,0,0,0-1.4.3,1,1,0,0,0-.6.5,1.88,1.88,0,0,0-.2.8,1.61,1.61,0,0,0,.5,1.1,2,2,0,0,0,1.4.4,2.73,2.73,0,0,0,1.6-.4,2.66,2.66,0,0,0,1-1.1,3.51,3.51,0,0,0,.3-1.6v-0.6Z"/><path class="a" d="M258.75,67.57v-1.2a3,3,0,0,1-2.6,1.4,4.2,4.2,0,0,1-2.1-.6,3.91,3.91,0,0,1-1.4-1.7,6.5,6.5,0,0,1,0-5,3.91,3.91,0,0,1,1.4-1.7,3.7,3.7,0,0,1,2.1-.6,2.41,2.41,0,0,1,1.5.4,3.13,3.13,0,0,1,1.1.9v-4.6h1.6v12.7h-1.6Zm-5-4.7a4.14,4.14,0,0,0,.8,2.7,2.27,2.27,0,0,0,1.8.9,2.5,2.5,0,0,0,1.8-.8,3.85,3.85,0,0,0,.7-2.6,4.28,4.28,0,0,0-.7-2.8,2.25,2.25,0,0,0-3.6,0A3.26,3.26,0,0,0,253.75,62.87Z"/><path class="a" d="M262.65,71.17l-0.2-1.5a2.77,2.77,0,0,0,.9.1,1.55,1.55,0,0,0,.8-0.2,1.2,1.2,0,0,0,.5-0.5,8.67,8.67,0,0,0,.5-1.2,2.27,2.27,0,0,0,.1-0.4l-3.5-9.4h1.7l1.9,5.4a14.16,14.16,0,0,1,.7,2.2,17.24,17.24,0,0,1,.7-2.1l2-5.4h1.6l-3.6,9.5q-0.6,1.5-.9,2.1a2.71,2.71,0,0,1-1,1.1,2.84,2.84,0,0,1-1.3.4A1.48,1.48,0,0,1,262.65,71.17Z"/><path class="a" d="M276.65,67.57V54.67h1.6v4.6a3.86,3.86,0,0,1,4.6-.9,2.35,2.35,0,0,1,1.1,1.1,5.84,5.84,0,0,1,.3,2.1v5.9h-1.6v-5.9a2.46,2.46,0,0,0-.5-1.7,1.72,1.72,0,0,0-1.5-.5,2,2,0,0,0-1.3.4,2.19,2.19,0,0,0-.9,1,4,4,0,0,0-.3,1.7v5.1h-1.5Z"/><path class="a" d="M292.75,66.37a12,12,0,0,1-1.7,1.1,4.67,4.67,0,0,1-1.7.3A3.65,3.65,0,0,1,287,67a2.24,2.24,0,0,1-.8-1.9,2.77,2.77,0,0,1,.3-1.3,2.36,2.36,0,0,1,.8-0.9,3.7,3.7,0,0,1,1.1-.5,4.64,4.64,0,0,1,1.4-.2,21.22,21.22,0,0,0,2.8-.5v-0.4a2,2,0,0,0-.4-1.4,2.43,2.43,0,0,0-1.8-.5,2.08,2.08,0,0,0-2.4,1.8l-1.5-.2a3.38,3.38,0,0,1,.7-1.6,2.84,2.84,0,0,1,1.4-.9,6.65,6.65,0,0,1,2.1-.3,5,5,0,0,1,1.9.3,2.33,2.33,0,0,1,1.1.7,2.81,2.81,0,0,1,.5,1.1,5.76,5.76,0,0,1,.1,1.5v2.1a17.22,17.22,0,0,0,.1,2.8,3.58,3.58,0,0,0,.4,1.1h-1.7C293,67.27,292.85,66.87,292.75,66.37Zm-0.1-3.5a17.14,17.14,0,0,1-2.6.6,7.83,7.83,0,0,0-1.4.3,1,1,0,0,0-.6.5,1.88,1.88,0,0,0-.2.8,1.61,1.61,0,0,0,.5,1.1,2,2,0,0,0,1.4.4,2.73,2.73,0,0,0,1.6-.4,2.66,2.66,0,0,0,1-1.1,3.51,3.51,0,0,0,.3-1.6v-0.6Z"/><path class="a" d="M299.35,67.57l-3.6-9.3h1.7l2,5.6c0.2,0.6.4,1.2,0.6,1.9a9.41,9.41,0,0,1,.6-1.8l2.1-5.7h1.6l-3.5,9.3h-1.5Z"/><path class="a" d="M312.15,64.57l1.6,0.2a3.84,3.84,0,0,1-1.4,2.2,4.55,4.55,0,0,1-2.7.8,3.94,3.94,0,0,1-3.2-1.3,4.79,4.79,0,0,1-1.2-3.5,5.31,5.31,0,0,1,1.2-3.7,4.35,4.35,0,0,1,6.2,0,5.05,5.05,0,0,1,1.2,3.6v0.4h-7a3.7,3.7,0,0,0,.9,2.4,2.57,2.57,0,0,0,2,.8,2.46,2.46,0,0,0,1.5-.5A3.08,3.08,0,0,0,312.15,64.57ZM307,62h5.2a3.8,3.8,0,0,0-.6-1.8,2.52,2.52,0,0,0-2-.9,2.41,2.41,0,0,0-1.8.7A3,3,0,0,0,307,62Z"/><path class="a" d="M316.15,67.57v-1.8H318v1.8h-1.8Z"/><path class="a" d="M321.25,67.57V54.67H323v12.9h-1.7Z"/><path class="a" d="M329.15,66.17l0.2,1.4a4.87,4.87,0,0,1-1.2.1,2.27,2.27,0,0,1-1.3-.3,2.34,2.34,0,0,1-.7-0.7,4.21,4.21,0,0,1-.2-1.9v-5.4h-1.2v-1.2H326v-2.3l1.6-.9v3.3h1.6v1.2h-1.6V65a2,2,0,0,0,.1.9,0.45,0.45,0,0,0,.3.3,0.75,0.75,0,0,0,.5.1A1.48,1.48,0,0,1,329.15,66.17Z"/><path class="a" d="M330.75,59.27l-0.4-2.4v-2.2h1.8v2.2l-0.4,2.4h-1Z"/><path class="a" d="M333.55,64.77l1.6-.2a2.1,2.1,0,0,0,.7,1.4,2.86,2.86,0,0,0,1.7.5,2.36,2.36,0,0,0,1.6-.4,1.39,1.39,0,0,0,.5-1,0.89,0.89,0,0,0-.5-0.8,10.42,10.42,0,0,0-1.6-.5,8.06,8.06,0,0,1-2.4-.8,2.19,2.19,0,0,1-1-.9,2.77,2.77,0,0,1-.3-1.3,2.66,2.66,0,0,1,.3-1.2,2.28,2.28,0,0,1,.8-0.9,4.61,4.61,0,0,1,1-.5,3.18,3.18,0,0,1,1.4-.2,5.41,5.41,0,0,1,1.9.3,1.93,1.93,0,0,1,1.2.9,2.92,2.92,0,0,1,.5,1.4l-1.5.2a1.68,1.68,0,0,0-.6-1.1,2,2,0,0,0-1.4-.4,2.54,2.54,0,0,0-1.6.4,0.92,0.92,0,0,0-.5.8,1.42,1.42,0,0,0,.2.6,0.92,0.92,0,0,0,.6.4,9.3,9.3,0,0,0,1.4.4,17,17,0,0,1,2.3.7,2.72,2.72,0,0,1,1,.8,2.59,2.59,0,0,1,.4,1.4,3,3,0,0,1-.5,1.5,3.48,3.48,0,0,1-1.3,1.1,4.21,4.21,0,0,1-2,.4,4.65,4.65,0,0,1-2.8-.8A3.8,3.8,0,0,1,333.55,64.77Z"/><path class="a" d="M354.25,67.57v-1.4a3.69,3.69,0,0,1-4.5,1.3,4.44,4.44,0,0,1-1.1-.8,3.34,3.34,0,0,1-.5-1.2,5.76,5.76,0,0,1-.1-1.5v-5.8h1.6v5.2a7.16,7.16,0,0,0,.1,1.7,2.07,2.07,0,0,0,.6,1,2.14,2.14,0,0,0,1.2.4,2,2,0,0,0,1.3-.4,2.84,2.84,0,0,0,.9-1,4.18,4.18,0,0,0,.3-1.8v-5h1.6v9.3h-1.4Z"/><path class="a" d="M358.15,71.17V58.27h1.4v1.2a3.18,3.18,0,0,1,1.2-1.1,3.41,3.41,0,0,1,1.6-.4,3.7,3.7,0,0,1,2.1.6,3.91,3.91,0,0,1,1.4,1.7,6.55,6.55,0,0,1,.5,2.5,7.08,7.08,0,0,1-.5,2.6,3.35,3.35,0,0,1-1.5,1.8,3.94,3.94,0,0,1-2.1.6,3.19,3.19,0,0,1-1.4-.3,2.72,2.72,0,0,1-1-.8v4.5h-1.7Zm1.5-8.2a4.15,4.15,0,0,0,.7,2.7,2.25,2.25,0,0,0,3.6,0,4.25,4.25,0,0,0,.8-2.8,4.15,4.15,0,0,0-.7-2.7,2.25,2.25,0,0,0-3.6,0A4.07,4.07,0,0,0,359.65,63Z"/><path class="a" d="M25,88.17l0.2,1.4a4.87,4.87,0,0,1-1.2.1,2.27,2.27,0,0,1-1.3-.3,2.34,2.34,0,0,1-.7-0.7,4.21,4.21,0,0,1-.2-1.9v-5.4h-1.2v-1.2h1.2v-2.3l1.6-.9v3.3H25v1.2h-1.6V87a2,2,0,0,0,.1.9,0.45,0.45,0,0,0,.3.3,0.9,0.9,0,0,0,.5.1A1.7,1.7,0,0,1,25,88.17Z"/><path class="a" d="M26,84.87a4.9,4.9,0,0,1,1.4-3.8,4.27,4.27,0,0,1,2.9-1,3.87,3.87,0,0,1,3.1,1.3,5,5,0,0,1,1.2,3.5,7,7,0,0,1-.5,2.8,4.1,4.1,0,0,1-1.6,1.6,4.38,4.38,0,0,1-2.3.6,4.08,4.08,0,0,1-3.2-1.3A5.27,5.27,0,0,1,26,84.87Zm1.6,0a4.14,4.14,0,0,0,.8,2.7,2.52,2.52,0,0,0,2,.9,2.66,2.66,0,0,0,2-.9,3.65,3.65,0,0,0,.8-2.7,3.84,3.84,0,0,0-.8-2.6,2.52,2.52,0,0,0-2-.9,2.66,2.66,0,0,0-2,.9A3.39,3.39,0,0,0,27.55,84.87Z"/><path class="a" d="M41.45,93.17l-0.2-1.5a2.77,2.77,0,0,0,.9.1,1.55,1.55,0,0,0,.8-0.2,1.21,1.21,0,0,0,.5-0.5,8.66,8.66,0,0,0,.5-1.2,2.27,2.27,0,0,0,.1-0.4l-3.5-9.4h1.7l1.9,5.4a14.16,14.16,0,0,1,.7,2.2,17.23,17.23,0,0,1,.7-2.1l2-5.4h1.6l-3.6,9.5q-0.6,1.5-.9,2.1a2.71,2.71,0,0,1-1,1.1,2.84,2.84,0,0,1-1.3.4A1.53,1.53,0,0,1,41.45,93.17Z"/><path class="a" d="M50,84.87a4.9,4.9,0,0,1,1.4-3.8,4.27,4.27,0,0,1,2.9-1,3.87,3.87,0,0,1,3.1,1.3,5,5,0,0,1,1.2,3.5,7,7,0,0,1-.5,2.8,4.1,4.1,0,0,1-1.6,1.6,4.38,4.38,0,0,1-2.3.6,4.08,4.08,0,0,1-3.2-1.3A6.51,6.51,0,0,1,50,84.87Zm1.6,0a4.14,4.14,0,0,0,.8,2.7,2.52,2.52,0,0,0,2,.9,2.66,2.66,0,0,0,2-.9,3.65,3.65,0,0,0,.8-2.7,3.84,3.84,0,0,0-.8-2.6,2.52,2.52,0,0,0-2-.9,2.66,2.66,0,0,0-2,.9A3.39,3.39,0,0,0,51.55,84.87Z"/><path class="a" d="M66.65,89.57v-1.4a3.69,3.69,0,0,1-4.5,1.3,3.13,3.13,0,0,1-1.1-.8,3.34,3.34,0,0,1-.5-1.2,5.76,5.76,0,0,1-.1-1.5v-5.8h1.6v5.2a7.16,7.16,0,0,0,.1,1.7,2.07,2.07,0,0,0,.6,1,2.14,2.14,0,0,0,1.2.4,2,2,0,0,0,1.3-.4,2.84,2.84,0,0,0,.9-1,4.18,4.18,0,0,0,.3-1.8v-5h1.6v9.3h-1.4Z"/><path class="a" d="M77.25,89.57l-2.9-9.3H76l1.5,5.4,0.6,2c0-.1.2-0.7,0.5-1.9l1.5-5.5h1.6l1.4,5.4,0.5,1.8,0.5-1.8,1.6-5.4h1.5l-2.8,9.3h-1.6L81.25,84l-0.4-1.6L79,89.57h-1.7Z"/><path class="a" d="M88.55,89.57V76.67h1.6v4.6a3.86,3.86,0,0,1,4.6-.9,2.35,2.35,0,0,1,1.1,1.1,5.84,5.84,0,0,1,.3,2.1v5.9h-1.6v-5.9a2.46,2.46,0,0,0-.5-1.7,1.72,1.72,0,0,0-1.5-.5,2,2,0,0,0-1.3.4,2.19,2.19,0,0,0-.9,1,4,4,0,0,0-.3,1.7v5.1h-1.5Z"/><path class="a" d="M104.65,88.37a12,12,0,0,1-1.7,1.1,4.67,4.67,0,0,1-1.7.3,3.65,3.65,0,0,1-2.4-.8,2.24,2.24,0,0,1-.8-1.9,2.77,2.77,0,0,1,.3-1.3,2.36,2.36,0,0,1,.8-0.9,3.7,3.7,0,0,1,1.1-.5,4.64,4.64,0,0,1,1.4-.2,21.22,21.22,0,0,0,2.8-.5v-0.4a2,2,0,0,0-.4-1.4,2.43,2.43,0,0,0-1.8-.5,2.08,2.08,0,0,0-2.4,1.8l-1.5-.2a3.38,3.38,0,0,1,.7-1.6,2.84,2.84,0,0,1,1.4-.9,6.65,6.65,0,0,1,2.1-.3,5,5,0,0,1,1.9.3,2.33,2.33,0,0,1,1.1.7,2.81,2.81,0,0,1,.5,1.1,5.76,5.76,0,0,1,.1,1.5v2.1a17.21,17.21,0,0,0,.1,2.8,3.58,3.58,0,0,0,.4,1.1H105C104.85,89.27,104.75,88.87,104.65,88.37Zm-0.1-3.5a17.14,17.14,0,0,1-2.6.6,7.83,7.83,0,0,0-1.4.3,1,1,0,0,0-.6.5,1.88,1.88,0,0,0-.2.8,1.61,1.61,0,0,0,.5,1.1,2,2,0,0,0,1.4.4,2.73,2.73,0,0,0,1.6-.4,2.66,2.66,0,0,0,1-1.1,3.51,3.51,0,0,0,.3-1.6v-0.6h0Z"/><path class="a" d="M112.05,88.17l0.2,1.4a4.87,4.87,0,0,1-1.2.1,2.27,2.27,0,0,1-1.3-.3,2.34,2.34,0,0,1-.7-0.7,4.21,4.21,0,0,1-.2-1.9v-5.4h-1.2v-1.2h1.2v-2.3l1.6-.9v3.3h1.6v1.2h-1.6V87a2,2,0,0,0,.1.9,0.85,0.85,0,0,0,.3.3,0.75,0.75,0,0,0,.5.1A1.48,1.48,0,0,1,112.05,88.17Z"/><path class="a" d="M118.55,93.17l-0.2-1.5a2.77,2.77,0,0,0,.9.1,1.55,1.55,0,0,0,.8-0.2,1.21,1.21,0,0,0,.5-0.5,8.66,8.66,0,0,0,.5-1.2,2.27,2.27,0,0,0,.1-0.4l-3.5-9.4h1.7l1.9,5.4a14.16,14.16,0,0,1,.7,2.2,17.23,17.23,0,0,1,.7-2.1l2-5.4h1.6l-3.6,9.5q-0.6,1.5-.9,2.1a2.71,2.71,0,0,1-1,1.1,2.84,2.84,0,0,1-1.3.4A1.48,1.48,0,0,1,118.55,93.17Z"/><path class="a" d="M127.05,84.87a4.9,4.9,0,0,1,1.4-3.8,4.27,4.27,0,0,1,2.9-1,3.87,3.87,0,0,1,3.1,1.3,5,5,0,0,1,1.2,3.5,7,7,0,0,1-.5,2.8,4.1,4.1,0,0,1-1.6,1.6,4.38,4.38,0,0,1-2.3.6,4.08,4.08,0,0,1-3.2-1.3A6.51,6.51,0,0,1,127.05,84.87Zm1.6,0a4.14,4.14,0,0,0,.8,2.7,2.52,2.52,0,0,0,2,.9,2.66,2.66,0,0,0,2-.9,3.65,3.65,0,0,0,.8-2.7,3.84,3.84,0,0,0-.8-2.6,2.52,2.52,0,0,0-2-.9,2.66,2.66,0,0,0-2,.9A3.39,3.39,0,0,0,128.65,84.87Z"/><path class="a" d="M143.75,89.57v-1.4a3.69,3.69,0,0,1-4.5,1.3,3.13,3.13,0,0,1-1.1-.8,3.34,3.34,0,0,1-.5-1.2,5.76,5.76,0,0,1-.1-1.5v-5.8h1.6v5.2a7.16,7.16,0,0,0,.1,1.7,2.07,2.07,0,0,0,.6,1,2.14,2.14,0,0,0,1.2.4,2,2,0,0,0,1.3-.4,2.84,2.84,0,0,0,.9-1,4.18,4.18,0,0,0,.3-1.8v-5h1.6v9.3h-1.4Z"/><path class="a" d="M147.55,89.57v-9.3H149v1.4a3.85,3.85,0,0,1,1-1.3,1.69,1.69,0,0,1,1-.3,3.32,3.32,0,0,1,1.6.5l-0.5,1.5a2.66,2.66,0,0,0-1.2-.3,1.4,1.4,0,0,0-.9.3,2,2,0,0,0-.6.9,5.66,5.66,0,0,0-.3,1.8v4.9h-1.5v-0.1Z"/><path class="a" d="M160.35,89.57l-2.9-9.3h1.6l1.5,5.4,0.6,2c0-.1.2-0.7,0.5-1.9l1.5-5.5h1.6l1.4,5.4,0.5,1.8,0.5-1.8,1.6-5.4h1.5l-2.9,9.3h-1.6l-1.5-5.6-0.4-1.6-1.9,7.2h-1.6Z"/><path class="a" d="M171.05,84.87a4.9,4.9,0,0,1,1.4-3.8,4.27,4.27,0,0,1,2.9-1,3.87,3.87,0,0,1,3.1,1.3,5,5,0,0,1,1.2,3.5,7,7,0,0,1-.5,2.8,4.1,4.1,0,0,1-1.6,1.6,4.38,4.38,0,0,1-2.3.6,4.08,4.08,0,0,1-3.2-1.3A6.51,6.51,0,0,1,171.05,84.87Zm1.6,0a4.14,4.14,0,0,0,.8,2.7,2.52,2.52,0,0,0,2,.9,2.66,2.66,0,0,0,2-.9,3.65,3.65,0,0,0,.8-2.7,3.84,3.84,0,0,0-.8-2.6,2.52,2.52,0,0,0-2-.9,2.66,2.66,0,0,0-2,.9A3.39,3.39,0,0,0,172.65,84.87Z"/><path class="a" d="M181.65,89.57v-9.3h1.4v1.4a3.85,3.85,0,0,1,1-1.3,1.69,1.69,0,0,1,1-.3,3.32,3.32,0,0,1,1.6.5l-0.5,1.5a2.66,2.66,0,0,0-1.2-.3,1.4,1.4,0,0,0-.9.3,2,2,0,0,0-.6.9,5.66,5.66,0,0,0-.3,1.8v4.9h-1.5v-0.1Z"/><path class="a" d="M187.55,89.57V76.67h1.6v12.9h-1.6Z"/><path class="a" d="M197.65,89.57v-1.2a3,3,0,0,1-2.6,1.4,4.2,4.2,0,0,1-2.1-.6,3.91,3.91,0,0,1-1.4-1.7,6.5,6.5,0,0,1,0-5,3.91,3.91,0,0,1,1.4-1.7,3.7,3.7,0,0,1,2.1-.6,2.41,2.41,0,0,1,1.5.4,3.13,3.13,0,0,1,1.1.9v-4.6h1.6v12.7h-1.6Zm-5-4.7a4.14,4.14,0,0,0,.8,2.7,2.27,2.27,0,0,0,1.8.9,2.5,2.5,0,0,0,1.8-.8,3.85,3.85,0,0,0,.7-2.6,4.28,4.28,0,0,0-.7-2.8,2.25,2.25,0,0,0-3.6,0A3.67,3.67,0,0,0,192.65,84.87Z"/><path class="a" d="M207.05,93.37V76.47h1.4v16.9h-1.4Z"/><path class="b" d="M21.25,19.57V11h5.9v1.5H23v2h3.6V16H23v3.7h-1.7v-0.1Z"/><path class="b" d="M28.55,12.47V11h1.6v1.5h-1.6Zm0,7.1v-6.2h1.6v6.2h-1.6Z"/><path class="b" d="M35.45,17.57l1.6,0.3a2.43,2.43,0,0,1-1,1.4,3.1,3.1,0,0,1-1.7.5,2.78,2.78,0,0,1-2.4-1.1,3.7,3.7,0,0,1-.6-2.1,3.65,3.65,0,0,1,.8-2.4,2.52,2.52,0,0,1,2-.9,2.79,2.79,0,0,1,2.2.9,4.25,4.25,0,0,1,.8,2.8h-4.1a1.25,1.25,0,0,0,.4,1.1,1.8,1.8,0,0,0,.9.4,1.45,1.45,0,0,0,.7-0.2A1.18,1.18,0,0,0,35.45,17.57Zm0.1-1.6a1.37,1.37,0,0,0-.4-1.1,1.09,1.09,0,0,0-.9-0.4,1,1,0,0,0-.9.4,1.8,1.8,0,0,0-.3,1.1h2.5Z"/><path class="b" d="M38.55,19.57V11h1.6v8.6h-1.6Z"/><path class="b" d="M47.55,19.57h-1.5v-0.9a3.24,3.24,0,0,1-.9.8,1.93,1.93,0,0,1-1,.3,2.27,2.27,0,0,1-1.8-.9,3.65,3.65,0,0,1-.8-2.4,3.29,3.29,0,0,1,.7-2.4,2.56,2.56,0,0,1,1.9-.8,2.27,2.27,0,0,1,1.8.9v-3.1h1.6v8.5h0Zm-4.4-3.2a2.42,2.42,0,0,0,.3,1.4,1.25,1.25,0,0,0,1.1.6,1.39,1.39,0,0,0,1-.5,2,2,0,0,0,.4-1.4,2.08,2.08,0,0,0-.4-1.5,1.25,1.25,0,0,0-2,0A1.81,1.81,0,0,0,43.15,16.37Z"/><path class="b" d="M52.55,19.57V11h1.6v8.6h-1.6Z"/><path class="b" d="M57.15,15.27l-1.5-.3a2.54,2.54,0,0,1,.9-1.3,3,3,0,0,1,1.8-.4,3.23,3.23,0,0,1,1.6.3,2.69,2.69,0,0,1,.8.7,3,3,0,0,1,.2,1.5v1.9a3.78,3.78,0,0,0,.1,1.2,6.89,6.89,0,0,1,.3.8h-1.6a1.69,1.69,0,0,0-.2-0.5c0-.1,0-0.2-0.1-0.2a2.36,2.36,0,0,1-.9.6,3.55,3.55,0,0,1-1,.2,2.46,2.46,0,0,1-1.5-.5,1.61,1.61,0,0,1-.6-1.3,1.22,1.22,0,0,1,.3-0.9,2,2,0,0,1,.7-0.6,6.83,6.83,0,0,1,1.3-.4,7.14,7.14,0,0,0,1.6-.4v-0.2a1.45,1.45,0,0,0-.2-0.7,1.1,1.1,0,0,0-.9-0.2,1.45,1.45,0,0,0-.7.2A0.7,0.7,0,0,0,57.15,15.27Zm2.2,1.3a4.05,4.05,0,0,1-1,.3,2.19,2.19,0,0,0-.9.3,0.71,0.71,0,0,0-.3.6,0.86,0.86,0,0,0,.3.6,0.91,0.91,0,0,0,.7.3,1.14,1.14,0,0,0,.8-0.3,1,1,0,0,0,.4-0.5,5.38,5.38,0,0,0,.1-0.8v-0.5h-0.1Z"/><path class="b" d="M62.45,19.57V11h1.6v3.1a2.27,2.27,0,0,1,1.8-.9,2.56,2.56,0,0,1,1.9.8,3.29,3.29,0,0,1,.7,2.4,3.74,3.74,0,0,1-.8,2.5,2.37,2.37,0,0,1-3.8-.2v0.9h-1.4Zm1.7-3.2a2.65,2.65,0,0,0,.3,1.4,1.51,1.51,0,0,0,1.1.7,1.05,1.05,0,0,0,.9-0.5,2.7,2.7,0,0,0,.4-1.5,2.08,2.08,0,0,0-.4-1.5,1.25,1.25,0,0,0-2,0A1.83,1.83,0,0,0,64.15,16.37Z"/><path class="b" d="M73.45,17.57l1.6,0.3a2.43,2.43,0,0,1-1,1.4,3.1,3.1,0,0,1-1.7.5,2.78,2.78,0,0,1-2.4-1.1,3.7,3.7,0,0,1-.6-2.1,3.65,3.65,0,0,1,.8-2.4,2.52,2.52,0,0,1,2-.9,2.79,2.79,0,0,1,2.2.9,4.25,4.25,0,0,1,.8,2.8h-4.1a1.25,1.25,0,0,0,.4,1.1,1.8,1.8,0,0,0,.9.4,1.45,1.45,0,0,0,.7-0.2A1.18,1.18,0,0,0,73.45,17.57Zm0.1-1.6a1.37,1.37,0,0,0-.4-1.1,1.09,1.09,0,0,0-.9-0.4,1,1,0,0,0-.9.4,1.8,1.8,0,0,0-.3,1.1h2.5Z"/><path class="b" d="M76.55,19.57V11h1.6v8.6h-1.6Z"/><rect class="b" x="19.85" y="100.07" width="351" height="1"/></svg>