<svg xmlns="http://www.w3.org/2000/svg" viewBox="0 0 400 110"><defs><style>.a{fill:#fff;}.b{fill:#fa6400;}.c{fill:#ff6e6e;}</style></defs><title>forms</title><path class="a" d="M26,55.12V42.22h1.7v12.9H26Z"/><path class="a" d="M30.45,55.12v-9.3h1.4v1.3a3.44,3.44,0,0,1,3-1.5,4.15,4.15,0,0,1,1.6.3,3.13,3.13,0,0,1,1.1.8,2.19,2.19,0,0,1,.5,1.2,5.76,5.76,0,0,1,.1,1.5v5.7h-1.6v-5.7a4.64,4.64,0,0,0-.2-1.4,1.34,1.34,0,0,0-.7-0.8,2,2,0,0,0-1.1-.3,2.35,2.35,0,0,0-1.7.6,3.42,3.42,0,0,0-.7,2.4V55h-1.7v0.1Z"/><path class="a" d="M40.45,58.72V45.82h1.4V47a3.18,3.18,0,0,1,1.2-1.1,3.41,3.41,0,0,1,1.6-.4,3.7,3.7,0,0,1,2.1.6,3.91,3.91,0,0,1,1.4,1.7,6.55,6.55,0,0,1,.5,2.5,7.08,7.08,0,0,1-.5,2.6,3.35,3.35,0,0,1-1.5,1.8,3.94,3.94,0,0,1-2.1.6,3.19,3.19,0,0,1-1.4-.3,2.72,2.72,0,0,1-1-.8v4.5h-1.7Zm1.4-8.2a4.15,4.15,0,0,0,.7,2.7,2.25,2.25,0,0,0,3.6,0,4.25,4.25,0,0,0,.8-2.8,4.15,4.15,0,0,0-.7-2.7,2.25,2.25,0,0,0-3.6,0A4.65,4.65,0,0,0,41.85,50.52Z"/><path class="a" d="M56.55,55.12v-1.4a3.69,3.69,0,0,1-4.5,1.3,4.44,4.44,0,0,1-1.1-.8,2.19,2.19,0,0,1-.5-1.2,5.76,5.76,0,0,1-.1-1.5v-5.8H52v5.2a7.16,7.16,0,0,0,.1,1.7,2.07,2.07,0,0,0,.6,1,2.14,2.14,0,0,0,1.2.4,2,2,0,0,0,1.3-.4,2.84,2.84,0,0,0,.9-1,4.18,4.18,0,0,0,.3-1.8v-5H58v9.3h-1.4Z"/><path class="a" d="M64,53.72l0.2,1.4a4.87,4.87,0,0,1-1.2.1,2.27,2.27,0,0,1-1.3-.3,2.34,2.34,0,0,1-.7-0.7,4.21,4.21,0,0,1-.2-1.9v-5.4h-1.2v-1.2h1.2v-2.3l1.6-.9v3.3H64V47h-1.6v5.5a2,2,0,0,0,.1.9,0.85,0.85,0,0,0,.3.3,0.75,0.75,0,0,0,.5.1A1.48,1.48,0,0,1,64,53.72Z"/><path class="a" d="M74,53.72l0.2,1.4a4.87,4.87,0,0,1-1.2.1,2.27,2.27,0,0,1-1.3-.3,2.34,2.34,0,0,1-.7-0.7,4.21,4.21,0,0,1-.2-1.9v-5.4h-1.2v-1.2h1.2v-2.3l1.6-.9v3.3H74V47h-1.6v5.5a2,2,0,0,0,.1.9,0.85,0.85,0,0,0,.3.3,0.75,0.75,0,0,0,.5.1A1.48,1.48,0,0,1,74,53.72Z"/><path class="a" d="M81.85,52.12l1.6,0.2a3.84,3.84,0,0,1-1.4,2.2,4.55,4.55,0,0,1-2.7.8,3.94,3.94,0,0,1-3.2-1.3,4.79,4.79,0,0,1-1.2-3.5,5.31,5.31,0,0,1,1.2-3.7,4.35,4.35,0,0,1,6.2,0,5.05,5.05,0,0,1,1.2,3.6v0.4h-7a3.7,3.7,0,0,0,.9,2.4,2.57,2.57,0,0,0,2,.8A2.44,2.44,0,0,0,81.85,52.12Zm-5.2-2.6h5.2a3.8,3.8,0,0,0-.6-1.8,2.52,2.52,0,0,0-2-.9,2.41,2.41,0,0,0-1.8.7A3.55,3.55,0,0,0,76.65,49.52Z"/><path class="a" d="M84.45,55.12l3.4-4.9-3.2-4.5h2l1.4,2.2c0.3,0.4.5,0.8,0.7,1,0.3-.4.5-0.7,0.7-1l1.6-2.2H93l-3.2,4.4,3.5,4.9h-2l-1.9-2.9-0.5-.8L86.35,55h-1.9v0.1Z"/><path class="a" d="M98,53.72l0.2,1.4a4.87,4.87,0,0,1-1.2.1,2.27,2.27,0,0,1-1.3-.3,2.34,2.34,0,0,1-.7-0.7,4.21,4.21,0,0,1-.2-1.9v-5.4h-1.2v-1.2h1.2v-2.3l1.6-.9v3.3H98V47h-1.6v5.5a2,2,0,0,0,.1.9,0.85,0.85,0,0,0,.3.3,0.75,0.75,0,0,0,.5.1A1.48,1.48,0,0,1,98,53.72Z"/><path class="b" d="M25.15,30.12v-8.6h5.9V23h-4.2v2h3.6v1.5h-3.6v3.7h-1.7v-0.1Z"/><path class="b" d="M32.45,23v-1.5h1.6V23h-1.6Zm0,7.1v-6.2h1.6v6.2h-1.6Z"/><path class="b" d="M39.35,28.12l1.6,0.3a2.43,2.43,0,0,1-1,1.4,3.1,3.1,0,0,1-1.7.5,2.78,2.78,0,0,1-2.4-1.1,3.7,3.7,0,0,1-.6-2.1,3.65,3.65,0,0,1,.8-2.4,2.52,2.52,0,0,1,2-.9,2.79,2.79,0,0,1,2.2.9,4.25,4.25,0,0,1,.8,2.8H37a1.25,1.25,0,0,0,.4,1.1,1.8,1.8,0,0,0,.9.4,1.45,1.45,0,0,0,.7-0.2A1.19,1.19,0,0,0,39.35,28.12Zm0.1-1.6a1.37,1.37,0,0,0-.4-1.1,1.09,1.09,0,0,0-.9-0.4,1,1,0,0,0-.9.4,1.8,1.8,0,0,0-.3,1.1h2.5Z"/><path class="b" d="M42.45,30.12v-8.6h1.6v8.6h-1.6Z"/><path class="b" d="M51.45,30.12H50v-0.9a3.24,3.24,0,0,1-.9.8,1.93,1.93,0,0,1-1,.3,2.27,2.27,0,0,1-1.8-.9,3.65,3.65,0,0,1-.8-2.4,3.29,3.29,0,0,1,.7-2.4,2.56,2.56,0,0,1,1.9-.8,2.27,2.27,0,0,1,1.8.9v-3.1h1.6v8.5h0Zm-4.4-3.2a2.42,2.42,0,0,0,.3,1.4,1.25,1.25,0,0,0,1.1.6,1.39,1.39,0,0,0,1-.5,2,2,0,0,0,.4-1.4,2.08,2.08,0,0,0-.4-1.5,1.25,1.25,0,0,0-2,0A1.81,1.81,0,0,0,47.05,26.92Z"/><path class="b" d="M56.45,30.12v-8.6h1.6v8.6h-1.6Z"/><path class="b" d="M61.05,25.82l-1.5-.3a2.54,2.54,0,0,1,.9-1.3,3,3,0,0,1,1.8-.4,3.23,3.23,0,0,1,1.6.3,2.7,2.7,0,0,1,.8.7,3,3,0,0,1,.2,1.5v1.9a3.78,3.78,0,0,0,.1,1.2,6.89,6.89,0,0,1,.3.8h-1.6a1.69,1.69,0,0,0-.2-0.5c0-.1,0-0.2-0.1-0.2a2.36,2.36,0,0,1-.9.6,3.55,3.55,0,0,1-1,.2,2.46,2.46,0,0,1-1.5-.5,1.61,1.61,0,0,1-.6-1.3,1.22,1.22,0,0,1,.3-0.9,2,2,0,0,1,.7-0.6,6.84,6.84,0,0,1,1.3-.4,7.13,7.13,0,0,0,1.6-.4V26a1.45,1.45,0,0,0-.2-0.7,1.1,1.1,0,0,0-.9-0.2,1.45,1.45,0,0,0-.7.2A0.7,0.7,0,0,0,61.05,25.82Zm2.2,1.3a4.05,4.05,0,0,1-1,.3,2.19,2.19,0,0,0-.9.3,0.71,0.71,0,0,0-.3.6,0.86,0.86,0,0,0,.3.6,0.91,0.91,0,0,0,.7.3,1.14,1.14,0,0,0,.8-0.3,1,1,0,0,0,.4-0.5,5.38,5.38,0,0,0,.1-0.8v-0.5h-0.1Z"/><path class="b" d="M66.35,30.12v-8.6H68v3.1a2.27,2.27,0,0,1,1.8-.9,2.56,2.56,0,0,1,1.9.8,3.29,3.29,0,0,1,.7,2.4,3.74,3.74,0,0,1-.8,2.5,2.37,2.37,0,0,1-3.8-.2v0.9h-1.4Zm1.7-3.2a2.65,2.65,0,0,0,.3,1.4,1.51,1.51,0,0,0,1.1.7,1.05,1.05,0,0,0,.9-0.5,2.7,2.7,0,0,0,.4-1.5,2.08,2.08,0,0,0-.4-1.5,1.25,1.25,0,0,0-2,0A1.83,1.83,0,0,0,68.05,26.92Z"/><path class="b" d="M77.35,28.12l1.6,0.3a2.43,2.43,0,0,1-1,1.4,3.1,3.1,0,0,1-1.7.5,2.78,2.78,0,0,1-2.4-1.1,3.7,3.7,0,0,1-.6-2.1,3.65,3.65,0,0,1,.8-2.4,2.52,2.52,0,0,1,2-.9,2.79,2.79,0,0,1,2.2.9,4.25,4.25,0,0,1,.8,2.8H75a1.25,1.25,0,0,0,.4,1.1,1.8,1.8,0,0,0,.9.4,1.45,1.45,0,0,0,.7-0.2A1.19,1.19,0,0,0,77.35,28.12Zm0.1-1.6a1.37,1.37,0,0,0-.4-1.1,1.09,1.09,0,0,0-.9-0.4,1,1,0,0,0-.9.4,1.8,1.8,0,0,0-.3,1.1h2.5Z"/><path class="b" d="M80.45,30.12v-8.6h1.6v8.6h-1.6Z"/><path class="c" d="M25.45,92.12V81.42h7.2v1.3h-5.8V86h5v1.3h-5v4.9h-1.4v-0.1Z"/><path class="c" d="M34.45,82.92v-1.5h1.3v1.5h-1.3Zm0,9.2v-7.8h1.3v7.8h-1.3Z"/><path class="c" d="M43.05,89.62l1.4,0.2a3.47,3.47,0,0,1-1.2,1.9,3.23,3.23,0,0,1-2.2.7,3.69,3.69,0,0,1-2.7-1.1,4,4,0,0,1-1-2.9,4,4,0,0,1,1-3,3.47,3.47,0,0,1,2.6-1.1,3.25,3.25,0,0,1,2.5,1.1,4,4,0,0,1,1,3v0.4h-5.8a3,3,0,0,0,.7,2,2,2,0,0,0,1.6.7,1.59,1.59,0,0,0,1.2-.4A4.26,4.26,0,0,0,43.05,89.62Zm-4.3-2.1h4.3a3,3,0,0,0-.5-1.5,2.09,2.09,0,0,0-1.6-.8,2,2,0,0,0-1.5.6A2.41,2.41,0,0,0,38.75,87.52Z"/><path class="c" d="M46.05,92.12V81.42h1.3v10.7h-1.3Z"/><path class="c" d="M54.45,92.12v-1a2.4,2.4,0,0,1-2.2,1.2,3.37,3.37,0,0,1-1.7-.5,3.33,3.33,0,0,1-1.2-1.4,5.71,5.71,0,0,1,0-4.2,3.49,3.49,0,0,1,1.2-1.5,3.37,3.37,0,0,1,1.7-.5,2.77,2.77,0,0,1,1.3.3,2.36,2.36,0,0,1,.9.8v-3.9h1.3v10.7h-1.3Zm-4.2-3.9a3.4,3.4,0,0,0,.6,2.2,2,2,0,0,0,3,0,3.4,3.4,0,0,0,.6-2.2,3.52,3.52,0,0,0-.6-2.3,2,2,0,0,0-3,0A3.71,3.71,0,0,0,50.25,88.22Z"/><path class="c" d="M67.25,89.62l1.4,0.2a3.47,3.47,0,0,1-1.2,1.9,3.84,3.84,0,0,1-2.2.7,3.69,3.69,0,0,1-2.7-1.1,4,4,0,0,1-1-2.9,4,4,0,0,1,1-3,3.47,3.47,0,0,1,2.6-1.1,3.25,3.25,0,0,1,2.5,1.1,4,4,0,0,1,1,3v0.4h-5.8a3,3,0,0,0,.7,2,2,2,0,0,0,1.6.7,1.59,1.59,0,0,0,1.2-.4A4.26,4.26,0,0,0,67.25,89.62ZM63,87.52h4.3a3,3,0,0,0-.5-1.5,2.09,2.09,0,0,0-1.6-.8,2,2,0,0,0-1.5.6A2.06,2.06,0,0,0,63,87.52Z"/><path class="c" d="M70.25,92.12v-7.8h1.2v1.2a3.85,3.85,0,0,1,.8-1.1,1.14,1.14,0,0,1,.8-0.3,2.73,2.73,0,0,1,1.4.4L74,85.72a1.69,1.69,0,0,0-1-.3,1.33,1.33,0,0,0-.8.3,1.79,1.79,0,0,0-.5.7,7.72,7.72,0,0,0-.2,1.5V92h-1.2v0.1Z"/><path class="c" d="M75.25,92.12v-7.8h1.2v1.2a3.85,3.85,0,0,1,.8-1.1,1.33,1.33,0,0,1,.8-0.3,2.73,2.73,0,0,1,1.4.4L79,85.72a1.69,1.69,0,0,0-1-.3,1.33,1.33,0,0,0-.8.3,1.79,1.79,0,0,0-.5.7,7.72,7.72,0,0,0-.2,1.5V92h-1.2v0.1Z"/><path class="c" d="M79.75,88.22A4.08,4.08,0,0,1,81,85a3.58,3.58,0,0,1,2.4-.9,3.47,3.47,0,0,1,2.6,1.1,4,4,0,0,1,1,2.9,4.29,4.29,0,0,1-.5,2.4,2.74,2.74,0,0,1-1.3,1.3,4.14,4.14,0,0,1-1.9.5,3.25,3.25,0,0,1-2.6-1A5,5,0,0,1,79.75,88.22Zm1.4,0a2.92,2.92,0,0,0,.7,2.2,2,2,0,0,0,1.6.7,1.86,1.86,0,0,0,1.6-.7,3.7,3.7,0,0,0,.7-2.3,2.92,2.92,0,0,0-.7-2.2,2,2,0,0,0-1.6-.7,1.86,1.86,0,0,0-1.6.7A3.33,3.33,0,0,0,81.15,88.22Z"/><path class="c" d="M88.55,92.12v-7.8h1.2v1.2a3.85,3.85,0,0,1,.8-1.1,1.33,1.33,0,0,1,.8-0.3,2.73,2.73,0,0,1,1.4.4l-0.5,1.2a1.69,1.69,0,0,0-1-.3,1.33,1.33,0,0,0-.8.3,1.79,1.79,0,0,0-.5.7,7.72,7.72,0,0,0-.2,1.5V92h-1.2v0.1Z"/><path class="c" d="M97.75,92.12v-7.8H99v1.1a2.19,2.19,0,0,1,1-.9,3.19,3.19,0,0,1,1.4-.3,2.12,2.12,0,0,1,1.4.4,2,2,0,0,1,.8,1,2.81,2.81,0,0,1,2.4-1.4,2.44,2.44,0,0,1,1.8.6,2.81,2.81,0,0,1,.6,2v5.3h-1.3v-4.9a3.11,3.11,0,0,0-.1-1.1,1.33,1.33,0,0,0-.5-0.6,1.88,1.88,0,0,0-.8-0.2,2.39,2.39,0,0,0-1.4.5,2.18,2.18,0,0,0-.5,1.7V92h-1.3v-5.1a2.27,2.27,0,0,0-.3-1.3,1.25,1.25,0,0,0-1.1-.4,1.69,1.69,0,0,0-1,.3,2.18,2.18,0,0,0-.7.9,6.27,6.27,0,0,0-.2,1.6v4h-1.4v0.1Z"/><path class="c" d="M115.55,89.62l1.4,0.2a3.47,3.47,0,0,1-1.2,1.9,3.23,3.23,0,0,1-2.2.7,3.69,3.69,0,0,1-2.7-1.1,4,4,0,0,1-1-2.9,4,4,0,0,1,1-3,3.47,3.47,0,0,1,2.6-1.1,3.25,3.25,0,0,1,2.5,1.1,4,4,0,0,1,1,3v0.4h-5.8a3,3,0,0,0,.7,2,2,2,0,0,0,1.6.7,1.59,1.59,0,0,0,1.2-.4A4.26,4.26,0,0,0,115.55,89.62Zm-4.3-2.1h4.3a3,3,0,0,0-.5-1.5,2.09,2.09,0,0,0-1.6-.8,2,2,0,0,0-1.5.6A2.41,2.41,0,0,0,111.25,87.52Z"/><path class="c" d="M118.05,89.82l1.3-.2a2.28,2.28,0,0,0,.6,1.2,2,2,0,0,0,1.4.4,1.56,1.56,0,0,0,1.3-.4,1,1,0,0,0,.4-0.9,0.75,0.75,0,0,0-.4-0.7,3.94,3.94,0,0,0-1.3-.4,18.1,18.1,0,0,1-2-.6,1.42,1.42,0,0,1-.8-0.7,1.93,1.93,0,0,1-.3-1,3.55,3.55,0,0,1,.2-1,4.35,4.35,0,0,1,.6-0.7,2,2,0,0,1,.8-0.4,4.25,4.25,0,0,1,1.1-.2,4.15,4.15,0,0,1,1.6.3,2,2,0,0,1,1,.7,3.34,3.34,0,0,1,.5,1.2l-1.3.2a1.35,1.35,0,0,0-.5-0.9,2.13,2.13,0,0,0-1.2-.3,2.27,2.27,0,0,0-1.3.3,0.75,0.75,0,0,0-.4.7,1.06,1.06,0,0,0,.2.5,2.18,2.18,0,0,0,.5.4,9.1,9.1,0,0,0,1.2.3c0.9,0.2,1.6.5,2,.6a2.18,2.18,0,0,1,.9.7,2,2,0,0,1,.3,1.1,1.75,1.75,0,0,1-.4,1.2,2.44,2.44,0,0,1-1.1.9,4.15,4.15,0,0,1-1.6.3,3.72,3.72,0,0,1-2.3-.6A3.79,3.79,0,0,1,118.05,89.82Z"/><path class="c" d="M125.55,89.82l1.3-.2a2.28,2.28,0,0,0,.6,1.2,2,2,0,0,0,1.4.4,1.56,1.56,0,0,0,1.3-.4,1,1,0,0,0,.4-0.9,0.75,0.75,0,0,0-.4-0.7,3.94,3.94,0,0,0-1.3-.4,18.1,18.1,0,0,1-2-.6,1.42,1.42,0,0,1-.8-0.7,1.93,1.93,0,0,1-.3-1,3.55,3.55,0,0,1,.2-1,4.35,4.35,0,0,1,.6-0.7,2,2,0,0,1,.8-0.4,4.25,4.25,0,0,1,1.1-.2,4.15,4.15,0,0,1,1.6.3,2,2,0,0,1,1,.7,3.34,3.34,0,0,1,.5,1.2l-1.3.2a1.35,1.35,0,0,0-.5-0.9,2.13,2.13,0,0,0-1.2-.3,2.27,2.27,0,0,0-1.3.3,0.75,0.75,0,0,0-.4.7,1.06,1.06,0,0,0,.2.5,2.18,2.18,0,0,0,.5.4,9.1,9.1,0,0,0,1.2.3c0.9,0.2,1.6.5,2,.6a2.18,2.18,0,0,1,.9.7A2,2,0,0,1,132,90a1.75,1.75,0,0,1-.4,1.2,2.44,2.44,0,0,1-1.1.9,4.15,4.15,0,0,1-1.6.3,3.72,3.72,0,0,1-2.3-.6A3.79,3.79,0,0,1,125.55,89.82Z"/><path class="c" d="M138.65,91.12a8,8,0,0,1-1.4.9,3.65,3.65,0,0,1-1.5.3,3,3,0,0,1-2-.6,2,2,0,0,1-.7-1.6,1.69,1.69,0,0,1,.3-1,2.7,2.7,0,0,1,.7-0.8,3.55,3.55,0,0,1,.9-0.4,9.69,9.69,0,0,1,1.2-.2,9.85,9.85,0,0,0,2.4-.5v-0.3a1.25,1.25,0,0,0-.4-1.1,2.08,2.08,0,0,0-1.5-.4,2.65,2.65,0,0,0-1.4.3,2.23,2.23,0,0,0-.7,1.2l-1.3-.2a2.26,2.26,0,0,1,.6-1.3,3.6,3.6,0,0,1,1.2-.8,4.84,4.84,0,0,1,1.8-.3,6.26,6.26,0,0,1,1.6.2,3.49,3.49,0,0,1,.9.6,1.88,1.88,0,0,1,.4.9c0,0.2.1,0.6,0.1,1.2V89a11.66,11.66,0,0,0,.1,2.3l0.3,0.9h-1.4C138.75,91.82,138.75,91.52,138.65,91.12Zm-0.1-2.9a8,8,0,0,1-2.2.5,10.38,10.38,0,0,0-1.2.3,1,1,0,0,0-.5.4,1.42,1.42,0,0,0-.2.6,1.09,1.09,0,0,0,.4.9,2.14,2.14,0,0,0,1.2.4,3.19,3.19,0,0,0,1.4-.3,2,2,0,0,0,.9-0.9,3.92,3.92,0,0,0,.2-1.3v-0.6h0Z"/><path class="c" d="M141.65,92.72l1.3,0.2a1.88,1.88,0,0,0,.4.9,2.5,2.5,0,0,0,1.3.4,2,2,0,0,0,1.4-.4,2.29,2.29,0,0,0,.7-1,6.7,6.7,0,0,0,.1-1.7,2.7,2.7,0,0,1-2.2,1,2.91,2.91,0,0,1-2.5-1.2,4.47,4.47,0,0,1-.9-2.8,5.22,5.22,0,0,1,.4-2.1,4.43,4.43,0,0,1,1.2-1.5,3.45,3.45,0,0,1,1.8-.5,3,3,0,0,1,2.3,1.1v-0.9h1.2v6.7a5.61,5.61,0,0,1-.4,2.6,2.33,2.33,0,0,1-1.2,1.2,4.21,4.21,0,0,1-2,.4,3.59,3.59,0,0,1-2.2-.6A2.17,2.17,0,0,1,141.65,92.72Zm1.1-4.6a3.22,3.22,0,0,0,.6,2.2,2,2,0,0,0,3,0,4.33,4.33,0,0,0,0-4.4,2,2,0,0,0-3,0A3.4,3.4,0,0,0,142.75,88.12Z"/><path class="c" d="M155.65,89.62l1.4,0.2a3.47,3.47,0,0,1-1.2,1.9,3.84,3.84,0,0,1-2.2.7,3.69,3.69,0,0,1-2.7-1.1,4,4,0,0,1-1-2.9,4,4,0,0,1,1-3,3.47,3.47,0,0,1,2.6-1.1,3.25,3.25,0,0,1,2.5,1.1,4,4,0,0,1,1,3v0.4h-5.8a3,3,0,0,0,.7,2,2,2,0,0,0,1.6.7,1.59,1.59,0,0,0,1.2-.4A4.26,4.26,0,0,0,155.65,89.62Zm-4.4-2.1h4.3a3,3,0,0,0-.5-1.5,2.09,2.09,0,0,0-1.6-.8,2,2,0,0,0-1.5.6A2.94,2.94,0,0,0,151.25,87.52Z"/><rect class="c" x="22.75" y="68.62" width="353" height="3"/></svg>