<svg xmlns="http://www.w3.org/2000/svg" viewBox="0 0 400 80"><defs><style>.a{fill:#9b9b9b;}.b{fill:#4a4a4a;}</style></defs><title>forms</title><path class="a" d="M20.15,40.7V27.8h1.7V40.7h-1.7Z"/><path class="a" d="M24.65,40.7V31.4h1.4v1.3a3.44,3.44,0,0,1,3-1.5,4.15,4.15,0,0,1,1.6.3,3.13,3.13,0,0,1,1.1.8,2.19,2.19,0,0,1,.5,1.2,5.76,5.76,0,0,1,.1,1.5v5.7h-1.6V35a4.64,4.64,0,0,0-.2-1.4,1.34,1.34,0,0,0-.7-0.8,2,2,0,0,0-1.1-.3,2.35,2.35,0,0,0-1.7.6,3.42,3.42,0,0,0-.7,2.4v5.1h-1.7v0.1Z"/><path class="a" d="M34.65,44.3V31.4h1.4v1.2a3.18,3.18,0,0,1,1.2-1.1,3.41,3.41,0,0,1,1.6-.4,3.7,3.7,0,0,1,2.1.6,3.91,3.91,0,0,1,1.4,1.7,6.55,6.55,0,0,1,.5,2.5,7.08,7.08,0,0,1-.5,2.6,3.35,3.35,0,0,1-1.5,1.8,3.94,3.94,0,0,1-2.1.6,3.19,3.19,0,0,1-1.4-.3,2.72,2.72,0,0,1-1-.8v4.5h-1.7Zm1.4-8.2a4.15,4.15,0,0,0,.7,2.7,2.25,2.25,0,0,0,3.6,0,4.25,4.25,0,0,0,.8-2.8,4.15,4.15,0,0,0-.7-2.7,2.25,2.25,0,0,0-3.6,0A4.65,4.65,0,0,0,36.05,36.1Z"/><path class="a" d="M50.75,40.7V39.3a3.69,3.69,0,0,1-4.5,1.3,4.44,4.44,0,0,1-1.1-.8,2.19,2.19,0,0,1-.5-1.2,5.76,5.76,0,0,1-.1-1.5V31.3h1.6v5.2a7.16,7.16,0,0,0,.1,1.7,2.07,2.07,0,0,0,.6,1,2.14,2.14,0,0,0,1.2.4,2,2,0,0,0,1.3-.4,2.84,2.84,0,0,0,.9-1,4.18,4.18,0,0,0,.3-1.8v-5h1.6v9.3h-1.4Z"/><path class="a" d="M58.15,39.3l0.2,1.4a4.87,4.87,0,0,1-1.2.1,2.27,2.27,0,0,1-1.3-.3,2.34,2.34,0,0,1-.7-0.7,4.21,4.21,0,0,1-.2-1.9V32.5h-1.2V31.3H55V29l1.6-.9v3.3h1.6v1.2h-1.6v5.5a2,2,0,0,0,.1.9,0.85,0.85,0,0,0,.3.3,0.75,0.75,0,0,0,.5.1A1.48,1.48,0,0,1,58.15,39.3Z"/><path class="a" d="M68.15,39.3l0.2,1.4a4.87,4.87,0,0,1-1.2.1,2.27,2.27,0,0,1-1.3-.3,2.34,2.34,0,0,1-.7-0.7,4.21,4.21,0,0,1-.2-1.9V32.5h-1.2V31.3H65V29l1.6-.9v3.3h1.6v1.2h-1.6v5.5a2,2,0,0,0,.1.9,0.85,0.85,0,0,0,.3.3,0.75,0.75,0,0,0,.5.1A1.48,1.48,0,0,1,68.15,39.3Z"/><path class="a" d="M76.05,37.7l1.6,0.2a3.84,3.84,0,0,1-1.4,2.2,4.55,4.55,0,0,1-2.7.8,3.94,3.94,0,0,1-3.2-1.3,4.79,4.79,0,0,1-1.2-3.5,5.31,5.31,0,0,1,1.2-3.7,4.35,4.35,0,0,1,6.2,0,5.05,5.05,0,0,1,1.2,3.6v0.4h-7a3.7,3.7,0,0,0,.9,2.4,2.57,2.57,0,0,0,2,.8A2.44,2.44,0,0,0,76.05,37.7Zm-5.2-2.6h5.2a3.8,3.8,0,0,0-.6-1.8,2.52,2.52,0,0,0-2-.9,2.41,2.41,0,0,0-1.8.7A3.55,3.55,0,0,0,70.85,35.1Z"/><path class="a" d="M78.65,40.7l3.4-4.9-3.2-4.5h2l1.4,2.2c0.3,0.4.5,0.8,0.7,1,0.3-.4.5-0.7,0.7-1l1.6-2.2h1.9L84,35.7l3.5,4.9h-2l-1.9-2.9-0.5-.8-2.5,3.7h-1.9v0.1Z"/><path class="a" d="M92.15,39.3l0.2,1.4a4.87,4.87,0,0,1-1.2.1,2.27,2.27,0,0,1-1.3-.3,2.34,2.34,0,0,1-.7-0.7,4.21,4.21,0,0,1-.2-1.9V32.5h-1.2V31.3H89V29l1.6-.9v3.3h1.6v1.2h-1.6v5.5a2,2,0,0,0,.1.9,0.85,0.85,0,0,0,.3.3,0.75,0.75,0,0,0,.5.1A1.48,1.48,0,0,1,92.15,39.3Z"/><rect class="b" x="17.95" y="51.2" width="351" height="1"/></svg>