<svg xmlns="http://www.w3.org/2000/svg" viewBox="0 0 400 80"><defs><style>.a{fill:#fff;}.b{fill:#fa6400;}</style></defs><title>forms</title><path class="a" d="M24.15,51.55V38.65h1.7v12.9h-1.7Z"/><path class="a" d="M28.65,51.55v-9.3h1.4v1.3a3.44,3.44,0,0,1,3-1.5,4.15,4.15,0,0,1,1.6.3,3.13,3.13,0,0,1,1.1.8,2.19,2.19,0,0,1,.5,1.2,5.76,5.76,0,0,1,.1,1.5v5.7h-1.6v-5.7a4.64,4.64,0,0,0-.2-1.4,1.34,1.34,0,0,0-.7-0.8,2,2,0,0,0-1.1-.3,2.35,2.35,0,0,0-1.7.6,3.42,3.42,0,0,0-.7,2.4v5.1h-1.7v0.1Z"/><path class="a" d="M38.65,55.15V42.25h1.4v1.2a3.18,3.18,0,0,1,1.2-1.1,3.41,3.41,0,0,1,1.6-.4,3.7,3.7,0,0,1,2.1.6,3.91,3.91,0,0,1,1.4,1.7,6.55,6.55,0,0,1,.5,2.5,7.08,7.08,0,0,1-.5,2.6,3.35,3.35,0,0,1-1.5,1.8,3.94,3.94,0,0,1-2.1.6,3.19,3.19,0,0,1-1.4-.3,2.72,2.72,0,0,1-1-.8v4.5h-1.7Zm1.4-8.2a4.15,4.15,0,0,0,.7,2.7,2.25,2.25,0,0,0,3.6,0,4.25,4.25,0,0,0,.8-2.8,4.15,4.15,0,0,0-.7-2.7,2.25,2.25,0,0,0-3.6,0A4.65,4.65,0,0,0,40.05,46.95Z"/><path class="a" d="M54.75,51.55v-1.4a3.69,3.69,0,0,1-4.5,1.3,4.44,4.44,0,0,1-1.1-.8,2.19,2.19,0,0,1-.5-1.2,5.76,5.76,0,0,1-.1-1.5v-5.8h1.6v5.2a7.16,7.16,0,0,0,.1,1.7,2.07,2.07,0,0,0,.6,1,2.14,2.14,0,0,0,1.2.4,2,2,0,0,0,1.3-.4,2.84,2.84,0,0,0,.9-1,4.18,4.18,0,0,0,.3-1.8v-5h1.6v9.3h-1.4Z"/><path class="a" d="M62.15,50.15l0.2,1.4a4.87,4.87,0,0,1-1.2.1,2.27,2.27,0,0,1-1.3-.3,2.34,2.34,0,0,1-.7-0.7,4.21,4.21,0,0,1-.2-1.9v-5.4h-1.2v-1.2H59v-2.3l1.6-.9v3.3h1.6v1.2h-1.6V49a2,2,0,0,0,.1.9,0.85,0.85,0,0,0,.3.3,0.75,0.75,0,0,0,.5.1A1.48,1.48,0,0,1,62.15,50.15Z"/><path class="a" d="M72.15,50.15l0.2,1.4a4.87,4.87,0,0,1-1.2.1,2.27,2.27,0,0,1-1.3-.3,2.34,2.34,0,0,1-.7-0.7,4.21,4.21,0,0,1-.2-1.9v-5.4h-1.2v-1.2H69v-2.3l1.6-.9v3.3h1.6v1.2h-1.6V49a2,2,0,0,0,.1.9,0.85,0.85,0,0,0,.3.3,0.75,0.75,0,0,0,.5.1A1.48,1.48,0,0,1,72.15,50.15Z"/><path class="a" d="M80.05,48.55l1.6,0.2a3.84,3.84,0,0,1-1.4,2.2,4.55,4.55,0,0,1-2.7.8,3.94,3.94,0,0,1-3.2-1.3,4.79,4.79,0,0,1-1.2-3.5,5.31,5.31,0,0,1,1.2-3.7,4.35,4.35,0,0,1,6.2,0,5.05,5.05,0,0,1,1.2,3.6v0.4h-7a3.7,3.7,0,0,0,.9,2.4,2.57,2.57,0,0,0,2,.8A2.44,2.44,0,0,0,80.05,48.55Zm-5.2-2.6h5.2a3.8,3.8,0,0,0-.6-1.8,2.52,2.52,0,0,0-2-.9,2.41,2.41,0,0,0-1.8.7A3.55,3.55,0,0,0,74.85,45.95Z"/><path class="a" d="M82.65,51.55l3.4-4.9-3.2-4.5h2l1.4,2.2c0.3,0.4.5,0.8,0.7,1,0.3-.4.5-0.7,0.7-1l1.6-2.2h1.9L88,46.55l3.5,4.9h-2l-1.9-2.9-0.5-.8-2.5,3.7h-1.9v0.1Z"/><path class="a" d="M96.15,50.15l0.2,1.4a4.87,4.87,0,0,1-1.2.1,2.27,2.27,0,0,1-1.3-.3,2.34,2.34,0,0,1-.7-0.7,4.21,4.21,0,0,1-.2-1.9v-5.4h-1.2v-1.2H93v-2.3l1.6-.9v3.3h1.6v1.2h-1.6V49a2,2,0,0,0,.1.9,0.85,0.85,0,0,0,.3.3,0.75,0.75,0,0,0,.5.1A1.48,1.48,0,0,1,96.15,50.15Z"/><path class="a" d="M98.15,55.35V38.45h1.4v16.9h-1.4Z"/><path class="b" d="M23.35,24.55v-8.6h5.9v1.5h-4.2v2h3.6v1.5h-3.6v3.7h-1.7v-0.1Z"/><path class="b" d="M30.65,17.45v-1.5h1.6v1.5h-1.6Zm0,7.1v-6.2h1.6v6.2h-1.6Z"/><path class="b" d="M37.55,22.55l1.6,0.3a2.43,2.43,0,0,1-1,1.4,3.1,3.1,0,0,1-1.7.5,2.78,2.78,0,0,1-2.4-1.1,3.7,3.7,0,0,1-.6-2.1,3.65,3.65,0,0,1,.8-2.4,2.52,2.52,0,0,1,2-.9,2.79,2.79,0,0,1,2.2.9,4.25,4.25,0,0,1,.8,2.8h-4.1a1.25,1.25,0,0,0,.4,1.1,1.8,1.8,0,0,0,.9.4,1.45,1.45,0,0,0,.7-0.2A1.18,1.18,0,0,0,37.55,22.55Zm0.1-1.6a1.37,1.37,0,0,0-.4-1.1,1.09,1.09,0,0,0-.9-0.4,1,1,0,0,0-.9.4,1.8,1.8,0,0,0-.3,1.1h2.5Z"/><path class="b" d="M40.65,24.55v-8.6h1.6v8.6h-1.6Z"/><path class="b" d="M49.65,24.55h-1.5v-0.9a3.24,3.24,0,0,1-.9.8,1.93,1.93,0,0,1-1,.3,2.27,2.27,0,0,1-1.8-.9,3.65,3.65,0,0,1-.8-2.4,3.29,3.29,0,0,1,.7-2.4,2.56,2.56,0,0,1,1.9-.8,2.27,2.27,0,0,1,1.8.9v-3.1h1.6v8.5h0Zm-4.4-3.2a2.42,2.42,0,0,0,.3,1.4,1.25,1.25,0,0,0,1.1.6,1.39,1.39,0,0,0,1-.5,2,2,0,0,0,.4-1.4,2.08,2.08,0,0,0-.4-1.5,1.25,1.25,0,0,0-2,0A1.81,1.81,0,0,0,45.25,21.35Z"/><path class="b" d="M54.65,24.55v-8.6h1.6v8.6h-1.6Z"/><path class="b" d="M59.25,20.25l-1.5-.3a2.54,2.54,0,0,1,.9-1.3,3,3,0,0,1,1.8-.4,3.23,3.23,0,0,1,1.6.3,2.69,2.69,0,0,1,.8.7,3,3,0,0,1,.2,1.5v1.9a3.78,3.78,0,0,0,.1,1.2,6.89,6.89,0,0,1,.3.8h-1.6a1.69,1.69,0,0,0-.2-0.5c0-.1,0-0.2-0.1-0.2a2.36,2.36,0,0,1-.9.6,3.55,3.55,0,0,1-1,.2,2.46,2.46,0,0,1-1.5-.5,1.61,1.61,0,0,1-.6-1.3,1.22,1.22,0,0,1,.3-0.9,2,2,0,0,1,.7-0.6,6.83,6.83,0,0,1,1.3-.4,7.14,7.14,0,0,0,1.6-.4v-0.2a1.45,1.45,0,0,0-.2-0.7,1.1,1.1,0,0,0-.9-0.2,1.45,1.45,0,0,0-.7.2A0.7,0.7,0,0,0,59.25,20.25Zm2.2,1.3a4.05,4.05,0,0,1-1,.3,2.19,2.19,0,0,0-.9.3,0.71,0.71,0,0,0-.3.6,0.86,0.86,0,0,0,.3.6,0.91,0.91,0,0,0,.7.3,1.14,1.14,0,0,0,.8-0.3,1,1,0,0,0,.4-0.5,5.38,5.38,0,0,0,.1-0.8v-0.5h-0.1Z"/><path class="b" d="M64.55,24.55v-8.6h1.6v3.1a2.27,2.27,0,0,1,1.8-.9,2.56,2.56,0,0,1,1.9.8,3.29,3.29,0,0,1,.7,2.4,3.74,3.74,0,0,1-.8,2.5,2.37,2.37,0,0,1-3.8-.2v0.9h-1.4Zm1.7-3.2a2.65,2.65,0,0,0,.3,1.4,1.51,1.51,0,0,0,1.1.7,1.05,1.05,0,0,0,.9-0.5,2.7,2.7,0,0,0,.4-1.5,2.08,2.08,0,0,0-.4-1.5,1.25,1.25,0,0,0-2,0A1.83,1.83,0,0,0,66.25,21.35Z"/><path class="b" d="M75.55,22.55l1.6,0.3a2.43,2.43,0,0,1-1,1.4,3.1,3.1,0,0,1-1.7.5,2.78,2.78,0,0,1-2.4-1.1,3.7,3.7,0,0,1-.6-2.1,3.65,3.65,0,0,1,.8-2.4,2.52,2.52,0,0,1,2-.9,2.79,2.79,0,0,1,2.2.9,4.25,4.25,0,0,1,.8,2.8h-4.1a1.25,1.25,0,0,0,.4,1.1,1.8,1.8,0,0,0,.9.4,1.45,1.45,0,0,0,.7-0.2A1.18,1.18,0,0,0,75.55,22.55Zm0.1-1.6a1.37,1.37,0,0,0-.4-1.1,1.09,1.09,0,0,0-.9-0.4,1,1,0,0,0-.9.4,1.8,1.8,0,0,0-.3,1.1h2.5Z"/><path class="b" d="M78.65,24.55v-8.6h1.6v8.6h-1.6Z"/><rect class="b" x="21.95" y="63.05" width="351" height="1"/></svg>