<svg xmlns="http://www.w3.org/2000/svg" viewBox="0 0 400 80"><defs><style>.a{fill:#9b9b9b;}.b{fill:#4a4a4a;}</style></defs><title>forms</title><path class="a" d="M20,40.2V27.3h8.7v1.5h-7v4h6v1.5h-6v5.9H20Z"/><path class="a" d="M30.65,29.1V27.3h1.6v1.8h-1.6Zm0,11.1V30.9h1.6v9.3h-1.6Z"/><path class="a" d="M41.05,37.2l1.6,0.2a3.84,3.84,0,0,1-1.4,2.2,4.55,4.55,0,0,1-2.7.8,3.94,3.94,0,0,1-3.2-1.3,4.79,4.79,0,0,1-1.2-3.5,5.31,5.31,0,0,1,1.2-3.7,4.35,4.35,0,0,1,6.2,0,5.05,5.05,0,0,1,1.2,3.6v0.4h-7a3.7,3.7,0,0,0,.9,2.4,2.57,2.57,0,0,0,2,.8,2.46,2.46,0,0,0,1.5-.5A3.08,3.08,0,0,0,41.05,37.2Zm-5.2-2.6h5.2a3.8,3.8,0,0,0-.6-1.8,2.52,2.52,0,0,0-2-.9,2.41,2.41,0,0,0-1.8.7A2.79,2.79,0,0,0,35.85,34.6Z"/><path class="a" d="M44.65,40.2V27.3h1.6V40.2h-1.6Z"/><path class="a" d="M54.65,40.2V39a3,3,0,0,1-2.6,1.4,4.2,4.2,0,0,1-2.1-.6,5,5,0,0,1-1.5-1.7,6.5,6.5,0,0,1,0-5,3.91,3.91,0,0,1,1.4-1.7,3.7,3.7,0,0,1,2.1-.6,2.41,2.41,0,0,1,1.5.4,3.13,3.13,0,0,1,1.1.9V27.5h1.6V40.2h-1.5Zm-5-4.7a4.14,4.14,0,0,0,.8,2.7,2.27,2.27,0,0,0,1.8.9,2.5,2.5,0,0,0,1.8-.8,3.85,3.85,0,0,0,.7-2.6,4.28,4.28,0,0,0-.7-2.8,2.25,2.25,0,0,0-3.6,0A3.67,3.67,0,0,0,49.65,35.5Z"/><path class="a" d="M63.65,40.2V27.3h1.6V40.2h-1.6Z"/><path class="a" d="M73.75,39a8.16,8.16,0,0,1-1.7,1.1,4.67,4.67,0,0,1-1.7.3,3.65,3.65,0,0,1-2.4-.8,2.24,2.24,0,0,1-.8-1.9,2.77,2.77,0,0,1,.3-1.3,2.36,2.36,0,0,1,.8-0.9,3.7,3.7,0,0,1,1.1-.5,4.64,4.64,0,0,1,1.4-.2,21.22,21.22,0,0,0,2.8-.5V33.9a2,2,0,0,0-.4-1.4,2.43,2.43,0,0,0-1.8-.5A2.08,2.08,0,0,0,69,33.8l-1.5-.2a3.38,3.38,0,0,1,.7-1.6,2.84,2.84,0,0,1,1.4-.9,6.65,6.65,0,0,1,2.1-.3,5,5,0,0,1,1.9.3,2.33,2.33,0,0,1,1.1.7,2.81,2.81,0,0,1,.5,1.1,5.76,5.76,0,0,1,.1,1.5v2.1a17.21,17.21,0,0,0,.1,2.8,3.58,3.58,0,0,0,.4,1.1h-1.7A3.53,3.53,0,0,1,73.75,39Zm-0.1-3.5a17.14,17.14,0,0,1-2.6.6,7.83,7.83,0,0,0-1.4.3,1,1,0,0,0-.6.5,1.88,1.88,0,0,0-.2.8,1.61,1.61,0,0,0,.5,1.1,2,2,0,0,0,1.4.4,2.73,2.73,0,0,0,1.6-.4,2.66,2.66,0,0,0,1-1.1,3.51,3.51,0,0,0,.3-1.6V35.5h0Z"/><path class="a" d="M79.15,40.2h-1.5V27.3h1.6v4.6a3.32,3.32,0,0,1,2.6-1.3,3.51,3.51,0,0,1,2.9,1.3,5.3,5.3,0,0,1,.8,1.5,5.82,5.82,0,0,1,.3,1.9,5.31,5.31,0,0,1-1.2,3.7,3.54,3.54,0,0,1-2.8,1.3,3,3,0,0,1-2.6-1.4v1.3h-0.1Zm0-4.7a4.77,4.77,0,0,0,.5,2.4,2.31,2.31,0,0,0,2,1.2,2.27,2.27,0,0,0,1.8-.9,4.14,4.14,0,0,0,.8-2.7,4.15,4.15,0,0,0-.7-2.7,2.25,2.25,0,0,0-3.6,0A3.8,3.8,0,0,0,79.15,35.5Z"/><path class="a" d="M94.05,37.2l1.6,0.2a3.84,3.84,0,0,1-1.4,2.2,4.55,4.55,0,0,1-2.7.8,3.94,3.94,0,0,1-3.2-1.3,4.79,4.79,0,0,1-1.2-3.5,5.31,5.31,0,0,1,1.2-3.7,4.35,4.35,0,0,1,6.2,0,5.05,5.05,0,0,1,1.2,3.6v0.4h-7a3.7,3.7,0,0,0,.9,2.4,2.57,2.57,0,0,0,2,.8A2.44,2.44,0,0,0,94.05,37.2Zm-5.2-2.6h5.2a3.8,3.8,0,0,0-.6-1.8,2.52,2.52,0,0,0-2-.9,2.41,2.41,0,0,0-1.8.7A3.55,3.55,0,0,0,88.85,34.6Z"/><path class="a" d="M97.65,40.2V27.3h1.6V40.2h-1.6Z"/><rect class="b" x="17.95" y="50.7" width="351" height="1"/></svg>