<?xml version="1.0" encoding="utf-8"?>
<!-- Generator: Adobe Illustrator 19.2.1, SVG Export Plug-In . SVG Version: 6.00 Build 0)  -->
<svg version="1.1" id="Layer_1" xmlns="http://www.w3.org/2000/svg" xmlns:xlink="http://www.w3.org/1999/xlink" x="0px" y="0px"
	 viewBox="0 0 430 200" style="enable-background:new 0 0 430 200;" xml:space="preserve">
<style type="text/css">
	.st0{enable-background:new    ;}
	.st1{fill:#FFFFFF;}
	.st2{fill:#48525B;}
	.st3{fill:#FF6E6E;}
	.st4{opacity:0.248;}
	.st5{fill:#FA6400;}
	.st6{fill:#FF5500;}
	.st7{fill:#FF0050;}
	.st8{fill:#9B9B9B;}
</style>
<g>
	<g id="Line_3_">
		<g>
			<rect x="51.5" y="99" class="st3" width="353" height="3"/>
		</g>
	</g>
	<g id="Rectangle-30_11_" class="st4">
		<g>
			<rect x="51" y="8" class="st3" width="354" height="16"/>
		</g>
	</g>
	<g id="Rectangle-30_10_" class="st4">
		<g>
			<rect x="51" y="106" class="st3" width="354" height="18"/>
		</g>
	</g>
	<g id="Rectangle-30_9_" class="st4">
		<g>
			<rect x="51" y="28" class="st3" width="354" height="66"/>
		</g>
	</g>
	<g class="st0">
		<g>
			<path class="st1" d="M151.6,172.3l4,9.1h0l4-9.1h1.5V183h-1.2v-8.5h0l-3.7,8.5h-1.1l-3.7-8.5h0v8.5h-1.2v-10.7H151.6z"/>
		</g>
		<g>
			<path class="st1" d="M164.4,175.2v4.7c0,0.7,0.2,1.3,0.5,1.6c0.3,0.4,0.8,0.6,1.5,0.6c0.5,0,1-0.2,1.4-0.6c0.4-0.4,0.7-1,0.8-1.6
				v-4.7h1.2v7.8h-1.2v-1.2c-0.6,0.9-1.5,1.4-2.5,1.4c-1.9,0-2.8-1.1-2.8-3.2v-4.8H164.4z"/>
		</g>
		<g>
			<path class="st1" d="M173,172.1V183h-1.2v-10.9H173z"/>
		</g>
		<g>
			<path class="st1" d="M177.2,175.2h1.9v1h-1.9v4.9c0,0.3,0,0.5,0.2,0.6c0.1,0.1,0.3,0.2,0.6,0.2h1v1h-1.2c-0.6,0-1.1-0.2-1.4-0.5
				c-0.3-0.3-0.4-0.7-0.4-1.3v-4.9h-1.6v-1h1.6v-2l1.2-0.5V175.2z"/>
		</g>
		<g>
			<path class="st1" d="M182,172.6c0.2,0.2,0.3,0.4,0.3,0.6c0,0.3-0.1,0.5-0.3,0.6c-0.2,0.2-0.4,0.3-0.6,0.3s-0.5-0.1-0.6-0.3
				c-0.2-0.2-0.3-0.4-0.3-0.6c0-0.3,0.1-0.5,0.3-0.6c0.2-0.2,0.4-0.3,0.6-0.3S181.9,172.4,182,172.6z M182,175.2v7.8h-1.2v-7.8H182z
				"/>
		</g>
		<g>
			<path class="st1" d="M191.6,178.6v1h-7.6v-1H191.6z"/>
		</g>
		<g>
			<path class="st1" d="M194.8,172.1V183h-1.2v-10.9H194.8z"/>
		</g>
		<g>
			<path class="st1" d="M198.5,172.6c0.2,0.2,0.3,0.4,0.3,0.6c0,0.3-0.1,0.5-0.3,0.6c-0.2,0.2-0.4,0.3-0.6,0.3s-0.5-0.1-0.6-0.3
				c-0.2-0.2-0.3-0.4-0.3-0.6c0-0.3,0.1-0.5,0.3-0.6c0.2-0.2,0.4-0.3,0.6-0.3S198.3,172.4,198.5,172.6z M198.4,175.2v7.8h-1.2v-7.8
				H198.4z"/>
		</g>
		<g>
			<path class="st1" d="M207.2,178.2v4.8H206v-4.7c0-1.5-0.7-2.3-2-2.3c-0.5,0-1,0.2-1.4,0.6c-0.4,0.4-0.6,1-0.7,1.7v4.7h-1.2v-7.8
				h1.2v1.1c0.3-0.4,0.6-0.8,1-1c0.4-0.2,0.9-0.4,1.4-0.4C206.2,175,207.2,176.1,207.2,178.2z"/>
		</g>
		<g>
			<path class="st1" d="M215.1,176.3c0.6,0.8,0.9,1.8,0.9,3.2h-6.1c0.1,0.9,0.3,1.5,0.7,2c0.4,0.5,1,0.7,1.7,0.7
				c0.6,0,1.2-0.2,1.5-0.5c0.3-0.3,0.6-0.7,0.8-1.2h1.2c-0.2,0.8-0.5,1.4-1,1.8c-0.6,0.6-1.5,0.9-2.5,0.9c-1.1,0-2-0.4-2.7-1.1
				c-0.7-0.8-1-1.7-1-3c0-1.1,0.3-2.1,1-2.9c0.7-0.8,1.5-1.2,2.7-1.2C213.5,175,214.5,175.5,215.1,176.3z M210.6,176.7
				c-0.4,0.5-0.7,1.1-0.7,1.8h4.8c-0.2-1.7-1-2.5-2.4-2.5C211.6,176,211.1,176.3,210.6,176.7z"/>
		</g>
		<g>
			<path class="st1" d="M224.5,175.2h1.9v1h-1.9v4.9c0,0.3,0,0.5,0.2,0.6c0.1,0.1,0.3,0.2,0.6,0.2h1v1H225c-0.6,0-1.1-0.2-1.4-0.5
				c-0.3-0.3-0.4-0.7-0.4-1.3v-4.9h-1.6v-1h1.6v-2l1.2-0.5V175.2z"/>
		</g>
		<g>
			<path class="st1" d="M233.7,176.3c0.6,0.8,0.9,1.8,0.9,3.2h-6.1c0.1,0.9,0.3,1.5,0.7,2c0.4,0.5,1,0.7,1.7,0.7
				c0.6,0,1.2-0.2,1.5-0.5c0.3-0.3,0.6-0.7,0.8-1.2h1.2c-0.2,0.8-0.5,1.4-1,1.8c-0.6,0.6-1.5,0.9-2.5,0.9c-1.1,0-2-0.4-2.7-1.1
				c-0.7-0.8-1-1.7-1-3c0-1.1,0.3-2.1,1-2.9c0.7-0.8,1.5-1.2,2.7-1.2C232.2,175,233.1,175.5,233.7,176.3z M229.3,176.7
				c-0.4,0.5-0.7,1.1-0.7,1.8h4.8c-0.2-1.7-1-2.5-2.4-2.5C230.3,176,229.7,176.3,229.3,176.7z"/>
		</g>
		<g>
			<path class="st1" d="M236.9,175.2l2,2.8l2-2.8h1.4l-2.7,3.6l3.1,4.1h-1.4l-2.3-3.2l-2.3,3.2h-1.4l3.1-4.1l-2.7-3.6H236.9z"/>
		</g>
		<g>
			<path class="st1" d="M245.7,175.2h1.9v1h-1.9v4.9c0,0.3,0,0.5,0.2,0.6c0.1,0.1,0.3,0.2,0.6,0.2h1v1h-1.2c-0.6,0-1.1-0.2-1.4-0.5
				c-0.3-0.3-0.4-0.7-0.4-1.3v-4.9H243v-1h1.6v-2l1.2-0.5V175.2z"/>
		</g>
		<g>
			<path class="st1" d="M258.6,172.3v1h-1.3c-0.3,0-0.6,0.1-0.7,0.3c-0.1,0.2-0.2,0.4-0.2,0.8v0.9h4.7v7.8h-1.2v-6.8h-3.5v6.8h-1.2
				v-6.8h-2v-1h2v-0.9c0-0.7,0.2-1.2,0.5-1.5c0.3-0.4,0.9-0.6,1.5-0.6H258.6z"/>
		</g>
		<g>
			<path class="st1" d="M269.1,176.3c0.6,0.8,0.9,1.8,0.9,3.2h-6.1c0.1,0.9,0.3,1.5,0.7,2c0.4,0.5,1,0.7,1.7,0.7
				c0.6,0,1.2-0.2,1.5-0.5c0.3-0.3,0.6-0.7,0.8-1.2h1.2c-0.2,0.8-0.5,1.4-1.1,1.8c-0.6,0.6-1.5,0.9-2.5,0.9c-1.1,0-2-0.4-2.7-1.1
				c-0.7-0.8-1-1.7-1-3c0-1.1,0.3-2.1,1-2.9c0.7-0.8,1.5-1.2,2.7-1.2C267.6,175,268.5,175.5,269.1,176.3z M264.7,176.7
				c-0.4,0.5-0.7,1.1-0.7,1.8h4.8c-0.1-1.7-1-2.5-2.4-2.5C265.7,176,265.1,176.3,264.7,176.7z"/>
		</g>
		<g>
			<path class="st1" d="M272.9,172.1V183h-1.2v-10.9H272.9z"/>
		</g>
		<g>
			<path class="st1" d="M281.9,172.1V183h-1.1v-1.3c-0.5,1-1.4,1.5-2.6,1.5c-1.1,0-2-0.4-2.7-1.2c-0.6-0.8-0.9-1.7-0.9-2.9
				c0-1.1,0.3-2.1,0.9-2.8c0.6-0.8,1.5-1.2,2.6-1.2c1.1,0,2,0.5,2.6,1.6v-4.6H281.9z M276.5,176.9c-0.4,0.5-0.6,1.2-0.6,2.2
				c0,0.9,0.2,1.7,0.6,2.2c0.4,0.6,1,0.9,1.9,0.9c0.8,0,1.4-0.3,1.8-0.9c0.4-0.5,0.6-1.2,0.6-2.1v-0.2c0-0.9-0.2-1.6-0.6-2.2
				c-0.4-0.6-1-0.8-1.7-0.8C277.5,176,276.9,176.3,276.5,176.9z"/>
		</g>
	</g>
	<g id="Group-5_3_" transform="translate(632.000000, 160.000000)">
		<g id="Rectangle-24_3_">
			<g>
				<path class="st1" d="M-510,8h11c2.8,0,5,2.2,5,5v11c0,2.8-2.2,5-5,5h-11c-2.8,0-5-2.2-5-5V13C-515,10.2-512.8,8-510,8z"/>
			</g>
		</g>
		<g class="st0">
			<g>
				<path class="st2" d="M-507.1,23v-8.7h3c0.6,0,1.1,0.1,1.5,0.2c0.4,0.1,0.7,0.3,1,0.5c0.3,0.2,0.4,0.4,0.6,0.7s0.2,0.6,0.2,1
					c0,0.2,0,0.4-0.1,0.6c-0.1,0.2-0.2,0.4-0.3,0.5c-0.1,0.2-0.3,0.3-0.5,0.4c-0.2,0.1-0.4,0.2-0.7,0.3c1.2,0.3,1.8,0.9,1.8,1.9
					c0,0.4-0.1,0.7-0.2,1c-0.1,0.3-0.3,0.6-0.6,0.8c-0.3,0.2-0.6,0.4-1,0.5c-0.4,0.1-0.8,0.2-1.3,0.2H-507.1z M-505.5,18.1h1.3
					c0.5,0,1-0.1,1.2-0.3c0.3-0.2,0.4-0.5,0.4-1c0-0.5-0.1-0.8-0.4-1c-0.3-0.2-0.7-0.3-1.2-0.3h-1.4V18.1z M-505.5,19.2v2.5h1.6
					c0.3,0,0.6,0,0.8-0.1c0.2-0.1,0.4-0.2,0.5-0.3c0.1-0.1,0.2-0.3,0.3-0.4c0.1-0.2,0.1-0.3,0.1-0.5c0-0.2,0-0.4-0.1-0.5
					c-0.1-0.2-0.2-0.3-0.3-0.4c-0.1-0.1-0.3-0.2-0.5-0.2c-0.2-0.1-0.4-0.1-0.7-0.1H-505.5z"/>
			</g>
		</g>
	</g>
	<g class="st0">
		<g>
			<path class="st5" d="M59.3,11.3v1.3h-3.8v2.6h3.2v1.3h-3.2V20h-1.6v-8.7H59.3z"/>
		</g>
		<g>
			<path class="st5" d="M62.3,12c0,0.1,0,0.2-0.1,0.4c-0.1,0.1-0.1,0.2-0.2,0.3s-0.2,0.2-0.3,0.2c-0.1,0-0.2,0.1-0.4,0.1
				c-0.1,0-0.2,0-0.4-0.1s-0.2-0.1-0.3-0.2s-0.2-0.2-0.2-0.3s-0.1-0.2-0.1-0.4c0-0.1,0-0.3,0.1-0.4c0-0.1,0.1-0.2,0.2-0.3
				s0.2-0.2,0.3-0.2c0.1,0,0.2-0.1,0.4-0.1c0.1,0,0.3,0,0.4,0.1c0.1,0.1,0.2,0.1,0.3,0.2s0.2,0.2,0.2,0.3
				C62.3,11.8,62.3,11.9,62.3,12z M62.1,13.8V20h-1.5v-6.2H62.1z"/>
		</g>
		<g>
			<path class="st5" d="M66.3,13.7c0.4,0,0.7,0.1,1.1,0.2c0.3,0.1,0.6,0.3,0.8,0.5c0.2,0.2,0.4,0.5,0.6,0.9c0.1,0.3,0.2,0.7,0.2,1.2
				c0,0.1,0,0.2,0,0.3c0,0.1,0,0.1-0.1,0.2s-0.1,0.1-0.1,0.1c0,0-0.1,0-0.2,0h-3.8c0,0.6,0.2,1.1,0.5,1.4c0.3,0.3,0.7,0.4,1.2,0.4
				c0.2,0,0.4,0,0.6-0.1c0.2-0.1,0.3-0.1,0.5-0.2c0.1-0.1,0.2-0.1,0.3-0.2c0.1-0.1,0.2-0.1,0.3-0.1c0.1,0,0.1,0,0.2,0
				c0,0,0.1,0.1,0.1,0.1l0.4,0.5c-0.2,0.2-0.3,0.4-0.6,0.5s-0.4,0.2-0.6,0.3C67.5,20,67.3,20,67.1,20c-0.2,0-0.5,0-0.7,0
				c-0.4,0-0.8-0.1-1.2-0.2c-0.4-0.1-0.7-0.4-1-0.6c-0.3-0.3-0.5-0.6-0.6-1s-0.2-0.9-0.2-1.4c0-0.4,0.1-0.8,0.2-1.2
				c0.1-0.4,0.3-0.7,0.6-1c0.3-0.3,0.6-0.5,0.9-0.7S65.9,13.7,66.3,13.7z M66.4,14.8c-0.4,0-0.8,0.1-1,0.4s-0.4,0.6-0.5,1h2.8
				c0-0.2,0-0.4-0.1-0.5c-0.1-0.2-0.1-0.3-0.2-0.4c-0.1-0.1-0.2-0.2-0.4-0.3S66.6,14.8,66.4,14.8z"/>
		</g>
		<g>
			<path class="st5" d="M71.8,11.1V20h-1.5v-8.9H71.8z"/>
		</g>
		<g>
			<path class="st5" d="M77.8,20c-0.2,0-0.3-0.1-0.4-0.3l-0.1-0.6c-0.1,0.1-0.3,0.3-0.4,0.4c-0.1,0.1-0.3,0.2-0.5,0.3
				S76.1,20,75.9,20c-0.2,0-0.4,0.1-0.6,0.1c-0.3,0-0.6-0.1-0.9-0.2s-0.5-0.3-0.7-0.6c-0.2-0.3-0.4-0.6-0.5-1
				c-0.1-0.4-0.2-0.8-0.2-1.3c0-0.5,0.1-0.9,0.2-1.3c0.1-0.4,0.3-0.7,0.5-1c0.2-0.3,0.5-0.5,0.8-0.7s0.7-0.2,1.1-0.2
				c0.3,0,0.6,0.1,0.9,0.2c0.2,0.1,0.5,0.3,0.7,0.4v-3.3h1.5V20H77.8z M75.8,18.9c0.3,0,0.6-0.1,0.8-0.2s0.4-0.3,0.6-0.5v-2.8
				c-0.2-0.2-0.4-0.3-0.5-0.4c-0.2-0.1-0.4-0.1-0.6-0.1c-0.2,0-0.4,0-0.6,0.1c-0.2,0.1-0.3,0.2-0.5,0.4c-0.1,0.2-0.2,0.4-0.3,0.6
				c-0.1,0.3-0.1,0.6-0.1,0.9c0,0.4,0,0.7,0.1,0.9s0.1,0.5,0.2,0.6s0.2,0.3,0.4,0.3C75.4,18.9,75.6,18.9,75.8,18.9z"/>
		</g>
		<g>
			<path class="st5" d="M84.2,11.1V20h-1.5v-8.9H84.2z"/>
		</g>
		<g>
			<path class="st5" d="M90.7,20H90c-0.1,0-0.2,0-0.3-0.1s-0.1-0.1-0.2-0.3l-0.1-0.4c-0.2,0.1-0.3,0.3-0.5,0.4
				c-0.1,0.1-0.3,0.2-0.5,0.3S88.1,20,87.9,20s-0.4,0.1-0.6,0.1c-0.3,0-0.5,0-0.7-0.1c-0.2-0.1-0.4-0.2-0.6-0.3s-0.3-0.3-0.4-0.5
				c-0.1-0.2-0.1-0.5-0.1-0.7c0-0.2,0.1-0.5,0.2-0.7s0.3-0.4,0.6-0.6c0.3-0.2,0.7-0.3,1.1-0.5c0.5-0.1,1.1-0.2,1.8-0.2v-0.4
				c0-0.4-0.1-0.7-0.3-0.9s-0.4-0.3-0.8-0.3c-0.2,0-0.4,0-0.6,0.1c-0.2,0.1-0.3,0.1-0.4,0.2c-0.1,0.1-0.2,0.1-0.3,0.2
				c-0.1,0.1-0.2,0.1-0.3,0.1c-0.1,0-0.2,0-0.3-0.1s-0.1-0.1-0.2-0.2l-0.3-0.5c0.7-0.6,1.6-1,2.6-1c0.4,0,0.7,0.1,1,0.2
				s0.5,0.3,0.7,0.5c0.2,0.2,0.3,0.5,0.4,0.8s0.2,0.6,0.2,1V20z M87.8,19.1c0.2,0,0.3,0,0.4,0c0.1,0,0.2-0.1,0.4-0.1
				c0.1-0.1,0.2-0.1,0.3-0.2c0.1-0.1,0.2-0.2,0.3-0.3v-1c-0.4,0-0.8,0-1.1,0.1s-0.5,0.1-0.7,0.2c-0.2,0.1-0.3,0.2-0.4,0.3
				C87,18.1,87,18.2,87,18.3c0,0.3,0.1,0.4,0.2,0.6C87.4,19,87.6,19.1,87.8,19.1z"/>
		</g>
		<g>
			<path class="st5" d="M92.2,20v-8.9h1.5v3.5c0.2-0.3,0.5-0.5,0.8-0.6c0.3-0.2,0.7-0.2,1.1-0.2c0.3,0,0.6,0.1,0.9,0.2
				c0.3,0.1,0.5,0.3,0.7,0.6c0.2,0.3,0.4,0.6,0.5,1c0.1,0.4,0.2,0.8,0.2,1.3c0,0.5-0.1,0.9-0.2,1.3c-0.1,0.4-0.3,0.7-0.5,1
				c-0.2,0.3-0.5,0.5-0.8,0.7c-0.3,0.2-0.7,0.2-1.1,0.2c-0.2,0-0.4,0-0.5-0.1c-0.2,0-0.3-0.1-0.4-0.2s-0.2-0.2-0.4-0.2
				s-0.2-0.2-0.3-0.3l-0.1,0.4c0,0.1-0.1,0.2-0.1,0.2c-0.1,0-0.1,0.1-0.2,0.1H92.2z M95,14.9c-0.3,0-0.6,0.1-0.8,0.2
				c-0.2,0.1-0.4,0.3-0.6,0.5v2.8c0.2,0.2,0.4,0.4,0.5,0.4c0.2,0.1,0.4,0.1,0.6,0.1c0.2,0,0.4,0,0.6-0.1s0.3-0.2,0.5-0.4
				c0.1-0.2,0.2-0.4,0.3-0.7c0.1-0.3,0.1-0.6,0.1-0.9c0-0.4,0-0.7-0.1-0.9c-0.1-0.2-0.1-0.5-0.2-0.6c-0.1-0.2-0.2-0.3-0.4-0.3
				S95.2,14.9,95,14.9z"/>
		</g>
		<g>
			<path class="st5" d="M101.5,13.7c0.4,0,0.7,0.1,1.1,0.2c0.3,0.1,0.6,0.3,0.8,0.5c0.2,0.2,0.4,0.5,0.6,0.9
				c0.1,0.3,0.2,0.7,0.2,1.2c0,0.1,0,0.2,0,0.3c0,0.1,0,0.1-0.1,0.2c0,0-0.1,0.1-0.1,0.1c0,0-0.1,0-0.2,0H100c0,0.6,0.2,1.1,0.5,1.4
				c0.3,0.3,0.7,0.4,1.2,0.4c0.2,0,0.4,0,0.6-0.1c0.2-0.1,0.3-0.1,0.5-0.2c0.1-0.1,0.2-0.1,0.3-0.2c0.1-0.1,0.2-0.1,0.3-0.1
				c0.1,0,0.1,0,0.2,0c0,0,0.1,0.1,0.1,0.1l0.4,0.5c-0.2,0.2-0.3,0.4-0.6,0.5c-0.2,0.1-0.4,0.2-0.6,0.3s-0.4,0.1-0.7,0.2
				s-0.5,0-0.7,0c-0.4,0-0.8-0.1-1.2-0.2s-0.7-0.4-1-0.6s-0.5-0.6-0.6-1c-0.2-0.4-0.2-0.9-0.2-1.4c0-0.4,0.1-0.8,0.2-1.2
				c0.1-0.4,0.3-0.7,0.6-1c0.3-0.3,0.6-0.5,0.9-0.7C100.7,13.8,101.1,13.7,101.5,13.7z M101.6,14.8c-0.4,0-0.8,0.1-1,0.4
				s-0.4,0.6-0.5,1h2.8c0-0.2,0-0.4-0.1-0.5c-0.1-0.2-0.1-0.3-0.2-0.4c-0.1-0.1-0.2-0.2-0.4-0.3S101.8,14.8,101.6,14.8z"/>
		</g>
		<g>
			<path class="st5" d="M107,11.1V20h-1.5v-8.9H107z"/>
		</g>
	</g>
	<g class="st0">
		<g>
			<path class="st1" d="M65,46h-1.8v-5.9h-6.9V46h-1.8V33.1h1.8v5.8h6.9v-5.8H65V46z"/>
		</g>
		<g>
			<path class="st1" d="M74.6,46h-0.7c-0.2,0-0.3,0-0.4-0.1c-0.1,0-0.2-0.1-0.2-0.3l-0.2-0.8c-0.2,0.2-0.5,0.4-0.7,0.6
				s-0.5,0.3-0.7,0.4c-0.3,0.1-0.5,0.2-0.8,0.3c-0.3,0.1-0.6,0.1-1,0.1c-0.4,0-0.7,0-1-0.1c-0.3-0.1-0.6-0.2-0.8-0.4
				c-0.2-0.2-0.4-0.5-0.5-0.8s-0.2-0.7-0.2-1.1c0-0.4,0.1-0.7,0.3-1c0.2-0.3,0.5-0.6,1-0.9s1-0.5,1.7-0.6c0.7-0.2,1.6-0.2,2.6-0.2
				v-0.7c0-0.7-0.2-1.3-0.5-1.6c-0.3-0.4-0.8-0.5-1.3-0.5c-0.4,0-0.7,0-1,0.1c-0.3,0.1-0.5,0.2-0.7,0.3c-0.2,0.1-0.4,0.2-0.5,0.3
				c-0.1,0.1-0.3,0.1-0.4,0.1c-0.1,0-0.2,0-0.3-0.1s-0.1-0.1-0.2-0.2l-0.3-0.5c0.5-0.5,1-0.8,1.6-1.1s1.2-0.4,1.9-0.4
				c0.5,0,1,0.1,1.4,0.3s0.7,0.4,1,0.7s0.5,0.7,0.6,1.1c0.1,0.4,0.2,0.9,0.2,1.4V46z M70.5,45c0.3,0,0.5,0,0.8-0.1
				c0.2-0.1,0.5-0.1,0.7-0.2c0.2-0.1,0.4-0.2,0.6-0.4c0.2-0.1,0.4-0.3,0.6-0.5v-1.9c-0.7,0-1.4,0-1.9,0.1s-0.9,0.2-1.3,0.4
				c-0.3,0.2-0.6,0.3-0.7,0.5S69,43.4,69,43.6c0,0.2,0,0.5,0.1,0.6s0.2,0.3,0.3,0.4c0.1,0.1,0.3,0.2,0.5,0.2
				C70.1,45,70.3,45,70.5,45z"/>
		</g>
		<g>
			<path class="st1" d="M77,49.1V36.9h1c0.2,0,0.4,0.1,0.4,0.3l0.1,1.1c0.4-0.5,0.8-0.9,1.3-1.1s1.1-0.4,1.7-0.4
				c0.5,0,1,0.1,1.4,0.3c0.4,0.2,0.8,0.5,1.1,0.9c0.3,0.4,0.5,0.9,0.7,1.5s0.2,1.3,0.2,2c0,0.7-0.1,1.3-0.3,1.9
				c-0.2,0.6-0.4,1.1-0.8,1.5s-0.7,0.8-1.2,1c-0.5,0.2-1,0.4-1.7,0.4c-0.6,0-1-0.1-1.4-0.3c-0.4-0.2-0.8-0.4-1.1-0.8v4H77z M81.1,38
				c-0.5,0-1,0.1-1.4,0.4s-0.8,0.6-1.1,1v4.4c0.3,0.4,0.6,0.7,1,0.8c0.4,0.2,0.7,0.2,1.2,0.2c0.8,0,1.5-0.3,2-0.9
				c0.5-0.6,0.7-1.5,0.7-2.6c0-0.6-0.1-1.1-0.2-1.5c-0.1-0.4-0.3-0.8-0.5-1c-0.2-0.3-0.4-0.5-0.7-0.6S81.5,38,81.1,38z"/>
		</g>
		<g>
			<path class="st1" d="M87,49.1V36.9h1c0.2,0,0.4,0.1,0.4,0.3l0.1,1.1c0.4-0.5,0.8-0.9,1.3-1.1s1.1-0.4,1.7-0.4
				c0.5,0,1,0.1,1.4,0.3c0.4,0.2,0.8,0.5,1.1,0.9c0.3,0.4,0.5,0.9,0.7,1.5s0.2,1.3,0.2,2c0,0.7-0.1,1.3-0.3,1.9
				c-0.2,0.6-0.4,1.1-0.8,1.5s-0.7,0.8-1.2,1c-0.5,0.2-1,0.4-1.7,0.4c-0.6,0-1-0.1-1.4-0.3c-0.4-0.2-0.8-0.4-1.1-0.8v4H87z M91,38
				c-0.5,0-1,0.1-1.4,0.4s-0.8,0.6-1.1,1v4.4c0.3,0.4,0.6,0.7,1,0.8c0.4,0.2,0.7,0.2,1.2,0.2c0.8,0,1.5-0.3,2-0.9
				c0.5-0.6,0.7-1.5,0.7-2.6c0-0.6-0.1-1.1-0.2-1.5c-0.1-0.4-0.3-0.8-0.5-1c-0.2-0.3-0.4-0.5-0.7-0.6S91.4,38,91,38z"/>
		</g>
		<g>
			<path class="st1" d="M99.1,34c0,0.2,0,0.3-0.1,0.4c-0.1,0.1-0.1,0.3-0.3,0.4c-0.1,0.1-0.2,0.2-0.4,0.2c-0.1,0.1-0.3,0.1-0.4,0.1
				c-0.2,0-0.3,0-0.4-0.1c-0.1-0.1-0.3-0.1-0.4-0.2c-0.1-0.1-0.2-0.2-0.2-0.4c-0.1-0.1-0.1-0.3-0.1-0.4c0-0.2,0-0.3,0.1-0.4
				c0.1-0.1,0.1-0.3,0.2-0.4c0.1-0.1,0.2-0.2,0.4-0.2c0.1-0.1,0.3-0.1,0.4-0.1c0.2,0,0.3,0,0.4,0.1c0.1,0.1,0.3,0.1,0.4,0.2
				c0.1,0.1,0.2,0.2,0.3,0.4C99,33.7,99.1,33.9,99.1,34z M98.7,36.9V46h-1.6v-9.1H98.7z"/>
		</g>
		<g>
			<path class="st1" d="M101.5,46v-9.1h1c0.2,0,0.4,0.1,0.4,0.3l0.1,1c0.4-0.4,0.8-0.8,1.3-1.1c0.5-0.3,1.1-0.4,1.7-0.4
				c0.5,0,0.9,0.1,1.3,0.2s0.7,0.4,1,0.7c0.3,0.3,0.4,0.7,0.6,1.1c0.1,0.4,0.2,0.9,0.2,1.4V46h-1.6v-5.8c0-0.7-0.2-1.2-0.5-1.6
				s-0.8-0.6-1.4-0.6c-0.5,0-0.9,0.1-1.3,0.3c-0.4,0.2-0.8,0.5-1.1,0.9V46H101.5z"/>
		</g>
		<g>
			<path class="st1" d="M115.1,36.7c0.5,0,1,0.1,1.5,0.3c0.5,0.2,0.9,0.4,1.2,0.8s0.6,0.8,0.8,1.3c0.2,0.5,0.3,1.1,0.3,1.7
				c0,0.3,0,0.4-0.1,0.5c-0.1,0.1-0.2,0.1-0.3,0.1h-6.1c0,0.6,0.1,1.1,0.2,1.5s0.3,0.8,0.6,1.1s0.6,0.5,0.9,0.6
				c0.3,0.1,0.7,0.2,1.2,0.2c0.4,0,0.7,0,1-0.1s0.5-0.2,0.8-0.3c0.2-0.1,0.4-0.2,0.5-0.3c0.1-0.1,0.3-0.1,0.4-0.1
				c0.1,0,0.2,0.1,0.3,0.2l0.4,0.6c-0.2,0.2-0.4,0.4-0.7,0.6c-0.3,0.2-0.6,0.3-0.9,0.4c-0.3,0.1-0.6,0.2-1,0.3
				c-0.3,0.1-0.7,0.1-1,0.1c-0.6,0-1.2-0.1-1.7-0.3c-0.5-0.2-1-0.5-1.4-0.9c-0.4-0.4-0.7-0.9-0.9-1.5c-0.2-0.6-0.3-1.3-0.3-2.1
				c0-0.6,0.1-1.2,0.3-1.8c0.2-0.6,0.5-1,0.8-1.4c0.4-0.4,0.8-0.7,1.3-1C113.9,36.9,114.5,36.7,115.1,36.7z M115.2,37.9
				c-0.8,0-1.4,0.2-1.8,0.7c-0.4,0.4-0.7,1.1-0.8,1.9h5c0-0.4-0.1-0.7-0.2-1c-0.1-0.3-0.3-0.6-0.5-0.8c-0.2-0.2-0.4-0.4-0.7-0.5
				S115.5,37.9,115.2,37.9z"/>
		</g>
		<g>
			<path class="st1" d="M126.2,38.4c-0.1,0.1-0.2,0.2-0.3,0.2c-0.1,0-0.2,0-0.3-0.1c-0.1-0.1-0.3-0.1-0.4-0.2
				c-0.2-0.1-0.4-0.2-0.6-0.2c-0.2-0.1-0.5-0.1-0.8-0.1c-0.3,0-0.5,0-0.7,0.1c-0.2,0.1-0.4,0.2-0.6,0.3s-0.3,0.3-0.4,0.4
				c-0.1,0.2-0.1,0.3-0.1,0.5c0,0.2,0.1,0.4,0.2,0.6c0.1,0.2,0.3,0.3,0.5,0.4c0.2,0.1,0.5,0.2,0.8,0.3s0.6,0.2,0.9,0.3
				c0.3,0.1,0.6,0.2,0.9,0.3s0.5,0.3,0.8,0.5c0.2,0.2,0.4,0.4,0.5,0.7c0.1,0.3,0.2,0.6,0.2,0.9c0,0.4-0.1,0.8-0.2,1.2
				c-0.2,0.4-0.4,0.7-0.7,0.9c-0.3,0.3-0.7,0.5-1.1,0.6c-0.4,0.2-0.9,0.2-1.5,0.2c-0.6,0-1.2-0.1-1.7-0.3c-0.5-0.2-1-0.5-1.3-0.8
				l0.4-0.6c0-0.1,0.1-0.1,0.2-0.2s0.2-0.1,0.3-0.1c0.1,0,0.2,0,0.3,0.1c0.1,0.1,0.3,0.2,0.4,0.3c0.2,0.1,0.4,0.2,0.6,0.3
				c0.2,0.1,0.5,0.1,0.9,0.1c0.3,0,0.6,0,0.8-0.1c0.2-0.1,0.4-0.2,0.6-0.3c0.2-0.1,0.3-0.3,0.3-0.5c0.1-0.2,0.1-0.4,0.1-0.6
				c0-0.3-0.1-0.5-0.2-0.6s-0.3-0.3-0.5-0.4c-0.2-0.1-0.5-0.2-0.8-0.3s-0.6-0.2-0.9-0.3c-0.3-0.1-0.6-0.2-0.9-0.3
				c-0.3-0.1-0.5-0.3-0.8-0.5c-0.2-0.2-0.4-0.4-0.5-0.7c-0.1-0.3-0.2-0.6-0.2-1c0-0.3,0.1-0.7,0.2-1c0.1-0.3,0.4-0.6,0.6-0.8
				c0.3-0.2,0.6-0.4,1-0.6c0.4-0.1,0.9-0.2,1.4-0.2c0.6,0,1.1,0.1,1.6,0.3c0.5,0.2,0.9,0.4,1.2,0.8L126.2,38.4z"/>
		</g>
		<g>
			<path class="st1" d="M134,38.4c-0.1,0.1-0.2,0.2-0.3,0.2c-0.1,0-0.2,0-0.3-0.1c-0.1-0.1-0.3-0.1-0.4-0.2s-0.4-0.2-0.6-0.2
				c-0.2-0.1-0.5-0.1-0.8-0.1c-0.3,0-0.5,0-0.7,0.1c-0.2,0.1-0.4,0.2-0.6,0.3c-0.2,0.1-0.3,0.3-0.4,0.4c-0.1,0.2-0.1,0.3-0.1,0.5
				c0,0.2,0.1,0.4,0.2,0.6c0.1,0.2,0.3,0.3,0.5,0.4c0.2,0.1,0.5,0.2,0.8,0.3c0.3,0.1,0.6,0.2,0.9,0.3c0.3,0.1,0.6,0.2,0.9,0.3
				c0.3,0.1,0.5,0.3,0.8,0.5c0.2,0.2,0.4,0.4,0.5,0.7c0.1,0.3,0.2,0.6,0.2,0.9c0,0.4-0.1,0.8-0.2,1.2c-0.2,0.4-0.4,0.7-0.7,0.9
				c-0.3,0.3-0.7,0.5-1.1,0.6c-0.4,0.2-0.9,0.2-1.5,0.2c-0.6,0-1.2-0.1-1.7-0.3c-0.5-0.2-1-0.5-1.3-0.8l0.4-0.6
				c0-0.1,0.1-0.1,0.2-0.2c0.1,0,0.2-0.1,0.3-0.1s0.2,0,0.3,0.1c0.1,0.1,0.3,0.2,0.4,0.3c0.2,0.1,0.4,0.2,0.6,0.3s0.5,0.1,0.9,0.1
				c0.3,0,0.6,0,0.8-0.1s0.4-0.2,0.6-0.3c0.2-0.1,0.3-0.3,0.3-0.5c0.1-0.2,0.1-0.4,0.1-0.6c0-0.3-0.1-0.5-0.2-0.6s-0.3-0.3-0.5-0.4
				c-0.2-0.1-0.5-0.2-0.8-0.3s-0.6-0.2-0.9-0.3c-0.3-0.1-0.6-0.2-0.9-0.3c-0.3-0.1-0.5-0.3-0.8-0.5c-0.2-0.2-0.4-0.4-0.5-0.7
				c-0.1-0.3-0.2-0.6-0.2-1c0-0.3,0.1-0.7,0.2-1c0.1-0.3,0.4-0.6,0.6-0.8c0.3-0.2,0.6-0.4,1-0.6c0.4-0.1,0.9-0.2,1.4-0.2
				c0.6,0,1.1,0.1,1.6,0.3c0.5,0.2,0.9,0.4,1.2,0.8L134,38.4z"/>
		</g>
		<g>
			<path class="st1" d="M138.9,36.9h1.3c0.1,0,0.2,0,0.3,0.1c0.1,0.1,0.1,0.1,0.2,0.2l1.7,5.9c0,0.2,0.1,0.4,0.1,0.6
				c0,0.2,0.1,0.4,0.1,0.6c0-0.2,0.1-0.4,0.2-0.6c0.1-0.2,0.1-0.4,0.2-0.6l1.9-5.9c0-0.1,0.1-0.2,0.2-0.2c0.1-0.1,0.2-0.1,0.3-0.1
				h0.7c0.1,0,0.2,0,0.3,0.1s0.1,0.1,0.2,0.2l1.9,5.9c0.1,0.2,0.1,0.4,0.2,0.6s0.1,0.4,0.1,0.6c0-0.2,0.1-0.4,0.1-0.6
				c0-0.2,0.1-0.4,0.2-0.6l1.8-5.9c0-0.1,0.1-0.2,0.2-0.2c0.1-0.1,0.2-0.1,0.3-0.1h1.2l-3,9.1h-1.3c-0.2,0-0.3-0.1-0.3-0.3l-2-6.2
				c0-0.1-0.1-0.3-0.1-0.4c0-0.1-0.1-0.3-0.1-0.4c0,0.1-0.1,0.3-0.1,0.4c0,0.1-0.1,0.3-0.1,0.4l-2,6.2c-0.1,0.2-0.2,0.3-0.4,0.3
				h-1.2L138.9,36.9z"/>
		</g>
		<g>
			<path class="st1" d="M156,34c0,0.2,0,0.3-0.1,0.4c-0.1,0.1-0.1,0.3-0.3,0.4c-0.1,0.1-0.2,0.2-0.4,0.2c-0.1,0.1-0.3,0.1-0.4,0.1
				s-0.3,0-0.4-0.1c-0.1-0.1-0.3-0.1-0.4-0.2c-0.1-0.1-0.2-0.2-0.2-0.4c-0.1-0.1-0.1-0.3-0.1-0.4c0-0.2,0-0.3,0.1-0.4
				c0.1-0.1,0.1-0.3,0.2-0.4c0.1-0.1,0.2-0.2,0.4-0.2c0.1-0.1,0.3-0.1,0.4-0.1s0.3,0,0.4,0.1c0.1,0.1,0.3,0.1,0.4,0.2
				c0.1,0.1,0.2,0.2,0.3,0.4C156,33.7,156,33.9,156,34z M155.6,36.9V46H154v-9.1H155.6z"/>
		</g>
		<g>
			<path class="st1" d="M160.2,32.7V46h-1.6V32.7H160.2z"/>
		</g>
		<g>
			<path class="st1" d="M164.9,32.7V46h-1.6V32.7H164.9z"/>
		</g>
		<g>
			<path class="st1" d="M171.2,46v-9.1h1c0.2,0,0.4,0.1,0.4,0.3l0.1,1c0.4-0.4,0.8-0.8,1.3-1.1c0.5-0.3,1.1-0.4,1.7-0.4
				c0.5,0,0.9,0.1,1.3,0.2s0.7,0.4,1,0.7c0.3,0.3,0.4,0.7,0.6,1.1c0.1,0.4,0.2,0.9,0.2,1.4V46h-1.6v-5.8c0-0.7-0.2-1.2-0.5-1.6
				c-0.3-0.4-0.8-0.6-1.4-0.6c-0.5,0-0.9,0.1-1.3,0.3c-0.4,0.2-0.8,0.5-1.1,0.9V46H171.2z"/>
		</g>
		<g>
			<path class="st1" d="M184.8,36.7c0.5,0,1,0.1,1.5,0.3c0.5,0.2,0.9,0.4,1.2,0.8s0.6,0.8,0.8,1.3c0.2,0.5,0.3,1.1,0.3,1.7
				c0,0.3,0,0.4-0.1,0.5c-0.1,0.1-0.2,0.1-0.3,0.1h-6.1c0,0.6,0.1,1.1,0.2,1.5s0.3,0.8,0.6,1.1s0.6,0.5,0.9,0.6
				c0.3,0.1,0.7,0.2,1.2,0.2c0.4,0,0.7,0,1-0.1s0.5-0.2,0.8-0.3c0.2-0.1,0.4-0.2,0.5-0.3c0.1-0.1,0.3-0.1,0.4-0.1
				c0.1,0,0.2,0.1,0.3,0.2l0.4,0.6c-0.2,0.2-0.4,0.4-0.7,0.6c-0.3,0.2-0.6,0.3-0.9,0.4c-0.3,0.1-0.6,0.2-1,0.3
				c-0.3,0.1-0.7,0.1-1,0.1c-0.6,0-1.2-0.1-1.7-0.3c-0.5-0.2-1-0.5-1.4-0.9c-0.4-0.4-0.7-0.9-0.9-1.5c-0.2-0.6-0.3-1.3-0.3-2.1
				c0-0.6,0.1-1.2,0.3-1.8c0.2-0.6,0.5-1,0.8-1.4c0.4-0.4,0.8-0.7,1.3-1C183.5,36.9,184.1,36.7,184.8,36.7z M184.8,37.9
				c-0.8,0-1.4,0.2-1.8,0.7c-0.4,0.4-0.7,1.1-0.8,1.9h5c0-0.4-0.1-0.7-0.2-1c-0.1-0.3-0.3-0.6-0.5-0.8c-0.2-0.2-0.4-0.4-0.7-0.5
				S185.2,37.9,184.8,37.9z"/>
		</g>
		<g>
			<path class="st1" d="M189.2,36.9h1.3c0.1,0,0.2,0,0.3,0.1c0.1,0.1,0.1,0.1,0.2,0.2l2.3,5.9c0.1,0.2,0.2,0.4,0.2,0.6
				c0,0.2,0.1,0.4,0.1,0.6c0-0.2,0.1-0.4,0.2-0.6c0.1-0.2,0.1-0.4,0.2-0.6l2.3-5.9c0-0.1,0.1-0.2,0.2-0.2c0.1-0.1,0.2-0.1,0.3-0.1
				h1.3l-3.7,9.1h-1.4L189.2,36.9z"/>
		</g>
		<g>
			<path class="st1" d="M202.9,36.7c0.5,0,1.1,0.1,1.5,0.3c0.5,0.2,0.9,0.4,1.2,0.8s0.6,0.8,0.8,1.3c0.2,0.5,0.3,1.1,0.3,1.7
				c0,0.3,0,0.4-0.1,0.5c-0.1,0.1-0.2,0.1-0.3,0.1h-6.1c0,0.6,0.1,1.1,0.2,1.5c0.1,0.4,0.3,0.8,0.6,1.1s0.6,0.5,0.9,0.6
				c0.3,0.1,0.7,0.2,1.2,0.2c0.4,0,0.7,0,1-0.1s0.5-0.2,0.8-0.3c0.2-0.1,0.4-0.2,0.5-0.3c0.1-0.1,0.3-0.1,0.4-0.1
				c0.1,0,0.2,0.1,0.3,0.2l0.5,0.6c-0.2,0.2-0.4,0.4-0.7,0.6s-0.6,0.3-0.9,0.4s-0.6,0.2-1,0.3c-0.3,0.1-0.7,0.1-1,0.1
				c-0.6,0-1.2-0.1-1.7-0.3c-0.5-0.2-1-0.5-1.4-0.9c-0.4-0.4-0.7-0.9-0.9-1.5c-0.2-0.6-0.3-1.3-0.3-2.1c0-0.6,0.1-1.2,0.3-1.8
				c0.2-0.6,0.5-1,0.8-1.4c0.4-0.4,0.8-0.7,1.3-1C201.7,36.9,202.3,36.7,202.9,36.7z M203,37.9c-0.8,0-1.4,0.2-1.8,0.7
				c-0.4,0.4-0.7,1.1-0.8,1.9h5c0-0.4-0.1-0.7-0.2-1c-0.1-0.3-0.3-0.6-0.5-0.8c-0.2-0.2-0.4-0.4-0.7-0.5
				C203.7,38,203.4,37.9,203,37.9z"/>
		</g>
		<g>
			<path class="st1" d="M208.8,46v-9.1h0.9c0.2,0,0.3,0,0.4,0.1c0.1,0.1,0.1,0.2,0.1,0.3l0.1,1.4c0.3-0.6,0.7-1.1,1.2-1.5
				c0.5-0.4,1-0.5,1.6-0.5c0.3,0,0.5,0,0.7,0.1s0.4,0.1,0.6,0.2l-0.2,1.2c0,0.1-0.1,0.2-0.3,0.2c-0.1,0-0.2,0-0.4-0.1
				c-0.2-0.1-0.4-0.1-0.7-0.1c-0.6,0-1,0.2-1.4,0.5s-0.7,0.8-0.9,1.4V46H208.8z"/>
		</g>
		<g>
			<path class="st1" d="M225.7,38.5c0,0.1-0.1,0.1-0.1,0.2c0,0-0.1,0.1-0.2,0.1s-0.2,0-0.3-0.1s-0.2-0.2-0.4-0.2
				c-0.2-0.1-0.4-0.2-0.6-0.2s-0.5-0.1-0.9-0.1c-0.4,0-0.8,0.1-1.2,0.2c-0.3,0.2-0.6,0.4-0.9,0.7c-0.2,0.3-0.4,0.7-0.5,1.1
				s-0.2,0.9-0.2,1.4c0,0.6,0.1,1,0.2,1.5c0.1,0.4,0.3,0.8,0.5,1.1c0.2,0.3,0.5,0.5,0.8,0.7c0.3,0.2,0.7,0.2,1.1,0.2
				c0.4,0,0.7,0,1-0.1c0.3-0.1,0.5-0.2,0.6-0.3c0.2-0.1,0.3-0.2,0.4-0.3c0.1-0.1,0.2-0.1,0.3-0.1c0.1,0,0.2,0.1,0.3,0.2l0.4,0.6
				c-0.4,0.5-0.9,0.8-1.5,1.1c-0.6,0.2-1.2,0.3-1.9,0.3c-0.6,0-1.1-0.1-1.6-0.3s-0.9-0.5-1.3-0.9c-0.4-0.4-0.6-0.9-0.9-1.5
				s-0.3-1.2-0.3-2c0-0.7,0.1-1.3,0.3-1.9c0.2-0.6,0.5-1.1,0.8-1.5s0.8-0.7,1.3-1c0.5-0.2,1.1-0.4,1.8-0.4c0.6,0,1.2,0.1,1.7,0.3
				c0.5,0.2,0.9,0.5,1.3,0.9L225.7,38.5z"/>
		</g>
		<g>
			<path class="st1" d="M231.6,36.7c0.7,0,1.3,0.1,1.8,0.3c0.5,0.2,1,0.5,1.4,0.9c0.4,0.4,0.7,0.9,0.9,1.5c0.2,0.6,0.3,1.2,0.3,1.9
				c0,0.7-0.1,1.4-0.3,1.9c-0.2,0.6-0.5,1.1-0.9,1.5c-0.4,0.4-0.8,0.7-1.4,0.9c-0.5,0.2-1.1,0.3-1.8,0.3s-1.3-0.1-1.8-0.3
				c-0.5-0.2-1-0.5-1.4-0.9c-0.4-0.4-0.7-0.9-0.9-1.5s-0.3-1.2-0.3-1.9c0-0.7,0.1-1.4,0.3-1.9c0.2-0.6,0.5-1.1,0.9-1.5
				c0.4-0.4,0.8-0.7,1.4-0.9C230.3,36.8,230.9,36.7,231.6,36.7z M231.6,44.9c0.9,0,1.6-0.3,2-0.9c0.4-0.6,0.7-1.4,0.7-2.5
				c0-1.1-0.2-1.9-0.7-2.5c-0.4-0.6-1.1-0.9-2-0.9c-0.5,0-0.9,0.1-1.2,0.2c-0.3,0.2-0.6,0.4-0.8,0.7s-0.4,0.7-0.5,1.1
				c-0.1,0.4-0.2,0.9-0.2,1.5s0.1,1,0.2,1.4c0.1,0.4,0.3,0.8,0.5,1.1s0.5,0.5,0.8,0.7C230.7,44.8,231.1,44.9,231.6,44.9z"/>
		</g>
		<g>
			<path class="st1" d="M237.9,46v-9.1h1c0.2,0,0.4,0.1,0.4,0.3l0.1,0.9c0.3-0.4,0.7-0.8,1.1-1c0.4-0.3,0.9-0.4,1.5-0.4
				c0.6,0,1.1,0.2,1.5,0.5s0.7,0.8,0.8,1.4c0.1-0.3,0.3-0.6,0.5-0.9s0.4-0.4,0.7-0.6c0.3-0.2,0.5-0.3,0.8-0.3
				c0.3-0.1,0.6-0.1,0.9-0.1c0.5,0,0.9,0.1,1.3,0.2c0.4,0.2,0.7,0.4,1,0.7c0.3,0.3,0.5,0.7,0.6,1.1s0.2,0.9,0.2,1.5V46h-1.6v-5.8
				c0-0.7-0.2-1.3-0.5-1.6c-0.3-0.4-0.8-0.6-1.4-0.6c-0.3,0-0.5,0-0.8,0.1c-0.2,0.1-0.4,0.2-0.6,0.4c-0.2,0.2-0.3,0.4-0.4,0.7
				c-0.1,0.3-0.2,0.6-0.2,1V46h-1.6v-5.8c0-0.7-0.1-1.3-0.4-1.6c-0.3-0.4-0.7-0.5-1.3-0.5c-0.4,0-0.8,0.1-1.1,0.3
				c-0.3,0.2-0.7,0.5-0.9,0.9V46H237.9z"/>
		</g>
		<g>
			<path class="st1" d="M256.3,36.7c0.5,0,1.1,0.1,1.5,0.3c0.5,0.2,0.9,0.4,1.2,0.8s0.6,0.8,0.8,1.3c0.2,0.5,0.3,1.1,0.3,1.7
				c0,0.3,0,0.4-0.1,0.5c-0.1,0.1-0.2,0.1-0.3,0.1h-6.1c0,0.6,0.1,1.1,0.2,1.5c0.1,0.4,0.3,0.8,0.6,1.1s0.6,0.5,0.9,0.6
				c0.3,0.1,0.7,0.2,1.2,0.2c0.4,0,0.7,0,1-0.1s0.5-0.2,0.8-0.3c0.2-0.1,0.4-0.2,0.5-0.3c0.1-0.1,0.3-0.1,0.4-0.1
				c0.1,0,0.2,0.1,0.3,0.2l0.5,0.6c-0.2,0.2-0.4,0.4-0.7,0.6s-0.6,0.3-0.9,0.4s-0.6,0.2-1,0.3c-0.3,0.1-0.7,0.1-1,0.1
				c-0.6,0-1.2-0.1-1.7-0.3c-0.5-0.2-1-0.5-1.4-0.9c-0.4-0.4-0.7-0.9-0.9-1.5c-0.2-0.6-0.3-1.3-0.3-2.1c0-0.6,0.1-1.2,0.3-1.8
				c0.2-0.6,0.5-1,0.8-1.4c0.4-0.4,0.8-0.7,1.3-1C255,36.9,255.6,36.7,256.3,36.7z M256.3,37.9c-0.8,0-1.4,0.2-1.8,0.7
				c-0.4,0.4-0.7,1.1-0.8,1.9h5c0-0.4-0.1-0.7-0.2-1c-0.1-0.3-0.3-0.6-0.5-0.8c-0.2-0.2-0.4-0.4-0.7-0.5
				C257,38,256.7,37.9,256.3,37.9z"/>
		</g>
		<g>
			<path class="st1" d="M268.4,46.1c-0.7,0-1.3-0.2-1.7-0.6c-0.4-0.4-0.6-1-0.6-1.7v-5.6H265c-0.1,0-0.2,0-0.2-0.1
				c-0.1-0.1-0.1-0.1-0.1-0.3v-0.6l1.5-0.2l0.4-2.8c0-0.1,0.1-0.2,0.1-0.2c0.1-0.1,0.1-0.1,0.3-0.1h0.8v3.1h2.6v1.2h-2.6v5.5
				c0,0.4,0.1,0.7,0.3,0.9c0.2,0.2,0.4,0.3,0.7,0.3c0.2,0,0.3,0,0.4-0.1s0.2-0.1,0.3-0.1c0.1-0.1,0.2-0.1,0.2-0.1
				c0.1,0,0.1-0.1,0.2-0.1c0.1,0,0.2,0.1,0.2,0.2l0.5,0.8c-0.3,0.3-0.6,0.5-1,0.6C269.2,46.1,268.8,46.1,268.4,46.1z"/>
		</g>
		<g>
			<path class="st1" d="M276,36.7c0.7,0,1.3,0.1,1.8,0.3c0.5,0.2,1,0.5,1.4,0.9c0.4,0.4,0.7,0.9,0.9,1.5c0.2,0.6,0.3,1.2,0.3,1.9
				c0,0.7-0.1,1.4-0.3,1.9s-0.5,1.1-0.9,1.5c-0.4,0.4-0.8,0.7-1.4,0.9c-0.5,0.2-1.1,0.3-1.8,0.3s-1.3-0.1-1.8-0.3
				c-0.5-0.2-1-0.5-1.4-0.9c-0.4-0.4-0.7-0.9-0.9-1.5c-0.2-0.6-0.3-1.2-0.3-1.9c0-0.7,0.1-1.4,0.3-1.9c0.2-0.6,0.5-1.1,0.9-1.5
				c0.4-0.4,0.8-0.7,1.4-0.9C274.7,36.8,275.3,36.7,276,36.7z M276,44.9c0.9,0,1.6-0.3,2-0.9c0.4-0.6,0.7-1.4,0.7-2.5
				c0-1.1-0.2-1.9-0.7-2.5c-0.4-0.6-1.1-0.9-2-0.9c-0.5,0-0.9,0.1-1.2,0.2c-0.3,0.2-0.6,0.4-0.8,0.7s-0.4,0.7-0.5,1.1
				c-0.1,0.4-0.2,0.9-0.2,1.5s0.1,1,0.2,1.4c0.1,0.4,0.3,0.8,0.5,1.1s0.5,0.5,0.8,0.7C275.1,44.8,275.5,44.9,276,44.9z"/>
		</g>
		<g>
			<path class="st1" d="M288.6,46.1c-0.7,0-1.3-0.2-1.7-0.6s-0.6-1-0.6-1.7v-5.6h-1.1c-0.1,0-0.2,0-0.2-0.1
				c-0.1-0.1-0.1-0.1-0.1-0.3v-0.6l1.5-0.2l0.4-2.8c0-0.1,0.1-0.2,0.1-0.2c0.1-0.1,0.1-0.1,0.3-0.1h0.8v3.1h2.6v1.2h-2.6v5.5
				c0,0.4,0.1,0.7,0.3,0.9c0.2,0.2,0.4,0.3,0.7,0.3c0.2,0,0.3,0,0.4-0.1s0.2-0.1,0.3-0.1c0.1-0.1,0.2-0.1,0.2-0.1s0.1-0.1,0.2-0.1
				c0.1,0,0.2,0.1,0.2,0.2l0.5,0.8c-0.3,0.3-0.6,0.5-1,0.6C289.4,46.1,289,46.1,288.6,46.1z"/>
		</g>
		<g>
			<path class="st1" d="M292.5,46V32.7h1.6v5.4c0.4-0.4,0.8-0.7,1.3-1c0.5-0.2,1-0.4,1.6-0.4c0.5,0,0.9,0.1,1.3,0.2s0.7,0.4,1,0.7
				s0.4,0.7,0.6,1.1c0.1,0.4,0.2,0.9,0.2,1.4V46h-1.6v-5.8c0-0.7-0.2-1.2-0.5-1.6s-0.8-0.6-1.4-0.6c-0.5,0-0.9,0.1-1.3,0.3
				c-0.4,0.2-0.8,0.5-1.1,0.9V46H292.5z"/>
		</g>
		<g>
			<path class="st1" d="M306.2,36.7c0.7,0,1.3,0.1,1.8,0.3c0.5,0.2,1,0.5,1.4,0.9c0.4,0.4,0.7,0.9,0.9,1.5c0.2,0.6,0.3,1.2,0.3,1.9
				c0,0.7-0.1,1.4-0.3,1.9c-0.2,0.6-0.5,1.1-0.9,1.5c-0.4,0.4-0.8,0.7-1.4,0.9c-0.5,0.2-1.1,0.3-1.8,0.3s-1.3-0.1-1.8-0.3
				c-0.5-0.2-1-0.5-1.4-0.9c-0.4-0.4-0.7-0.9-0.9-1.5c-0.2-0.6-0.3-1.2-0.3-1.9c0-0.7,0.1-1.4,0.3-1.9c0.2-0.6,0.5-1.1,0.9-1.5
				c0.4-0.4,0.8-0.7,1.4-0.9C304.9,36.8,305.5,36.7,306.2,36.7z M306.2,44.9c0.9,0,1.6-0.3,2-0.9c0.4-0.6,0.7-1.4,0.7-2.5
				c0-1.1-0.2-1.9-0.7-2.5c-0.4-0.6-1.1-0.9-2-0.9c-0.5,0-0.9,0.1-1.2,0.2c-0.3,0.2-0.6,0.4-0.8,0.7c-0.2,0.3-0.4,0.7-0.5,1.1
				c-0.1,0.4-0.2,0.9-0.2,1.5s0.1,1,0.2,1.4c0.1,0.4,0.3,0.8,0.5,1.1c0.2,0.3,0.5,0.5,0.8,0.7C305.4,44.8,305.7,44.9,306.2,44.9z"/>
		</g>
		<g>
			<path class="st1" d="M317.7,38.4c-0.1,0.1-0.2,0.2-0.3,0.2c-0.1,0-0.2,0-0.3-0.1c-0.1-0.1-0.3-0.1-0.4-0.2
				c-0.2-0.1-0.4-0.2-0.6-0.2c-0.2-0.1-0.5-0.1-0.8-0.1c-0.3,0-0.5,0-0.7,0.1c-0.2,0.1-0.4,0.2-0.6,0.3s-0.3,0.3-0.4,0.4
				c-0.1,0.2-0.1,0.3-0.1,0.5c0,0.2,0.1,0.4,0.2,0.6c0.1,0.2,0.3,0.3,0.5,0.4s0.5,0.2,0.8,0.3s0.6,0.2,0.9,0.3
				c0.3,0.1,0.6,0.2,0.9,0.3c0.3,0.1,0.5,0.3,0.8,0.5c0.2,0.2,0.4,0.4,0.5,0.7s0.2,0.6,0.2,0.9c0,0.4-0.1,0.8-0.2,1.2
				c-0.1,0.4-0.4,0.7-0.7,0.9c-0.3,0.3-0.7,0.5-1.1,0.6c-0.4,0.2-0.9,0.2-1.5,0.2c-0.6,0-1.2-0.1-1.7-0.3c-0.5-0.2-1-0.5-1.3-0.8
				l0.4-0.6c0-0.1,0.1-0.1,0.2-0.2s0.2-0.1,0.3-0.1c0.1,0,0.2,0,0.3,0.1c0.1,0.1,0.3,0.2,0.4,0.3c0.2,0.1,0.4,0.2,0.6,0.3
				c0.2,0.1,0.5,0.1,0.9,0.1c0.3,0,0.6,0,0.8-0.1c0.2-0.1,0.4-0.2,0.6-0.3s0.3-0.3,0.3-0.5c0.1-0.2,0.1-0.4,0.1-0.6
				c0-0.3-0.1-0.5-0.2-0.6c-0.1-0.2-0.3-0.3-0.5-0.4s-0.5-0.2-0.8-0.3s-0.6-0.2-0.9-0.3c-0.3-0.1-0.6-0.2-0.9-0.3s-0.5-0.3-0.8-0.5
				c-0.2-0.2-0.4-0.4-0.5-0.7c-0.1-0.3-0.2-0.6-0.2-1c0-0.3,0.1-0.7,0.2-1c0.1-0.3,0.4-0.6,0.6-0.8c0.3-0.2,0.6-0.4,1-0.6
				c0.4-0.1,0.9-0.2,1.4-0.2c0.6,0,1.1,0.1,1.6,0.3c0.5,0.2,0.9,0.4,1.2,0.8L317.7,38.4z"/>
		</g>
		<g>
			<path class="st1" d="M323.9,36.7c0.5,0,1.1,0.1,1.5,0.3c0.5,0.2,0.9,0.4,1.2,0.8s0.6,0.8,0.8,1.3c0.2,0.5,0.3,1.1,0.3,1.7
				c0,0.3,0,0.4-0.1,0.5c-0.1,0.1-0.2,0.1-0.3,0.1h-6.1c0,0.6,0.1,1.1,0.2,1.5c0.1,0.4,0.3,0.8,0.6,1.1s0.6,0.5,0.9,0.6
				c0.3,0.1,0.7,0.2,1.2,0.2c0.4,0,0.7,0,1-0.1s0.5-0.2,0.8-0.3c0.2-0.1,0.4-0.2,0.5-0.3c0.1-0.1,0.3-0.1,0.4-0.1
				c0.1,0,0.2,0.1,0.3,0.2l0.5,0.6c-0.2,0.2-0.4,0.4-0.7,0.6s-0.6,0.3-0.9,0.4s-0.6,0.2-1,0.3c-0.3,0.1-0.7,0.1-1,0.1
				c-0.6,0-1.2-0.1-1.7-0.3c-0.5-0.2-1-0.5-1.4-0.9c-0.4-0.4-0.7-0.9-0.9-1.5c-0.2-0.6-0.3-1.3-0.3-2.1c0-0.6,0.1-1.2,0.3-1.8
				c0.2-0.6,0.5-1,0.8-1.4c0.4-0.4,0.8-0.7,1.3-1C322.7,36.9,323.3,36.7,323.9,36.7z M324,37.9c-0.8,0-1.4,0.2-1.8,0.7
				c-0.4,0.4-0.7,1.1-0.8,1.9h5c0-0.4-0.1-0.7-0.2-1c-0.1-0.3-0.3-0.6-0.5-0.8c-0.2-0.2-0.4-0.4-0.7-0.5
				C324.7,38,324.3,37.9,324,37.9z"/>
		</g>
		<g>
			<path class="st1" d="M332.1,36.9h1.3c0.1,0,0.2,0,0.3,0.1c0.1,0.1,0.1,0.1,0.2,0.2l1.7,5.9c0,0.2,0.1,0.4,0.1,0.6
				c0,0.2,0.1,0.4,0.1,0.6c0-0.2,0.1-0.4,0.2-0.6c0.1-0.2,0.1-0.4,0.2-0.6l1.9-5.9c0-0.1,0.1-0.2,0.2-0.2c0.1-0.1,0.2-0.1,0.3-0.1
				h0.7c0.1,0,0.2,0,0.3,0.1s0.1,0.1,0.2,0.2l1.9,5.9c0.1,0.2,0.1,0.4,0.2,0.6s0.1,0.4,0.1,0.6c0-0.2,0.1-0.4,0.1-0.6
				c0-0.2,0.1-0.4,0.2-0.6l1.8-5.9c0-0.1,0.1-0.2,0.2-0.2c0.1-0.1,0.2-0.1,0.3-0.1h1.2l-3,9.1h-1.3c-0.2,0-0.3-0.1-0.3-0.3l-2-6.2
				c0-0.1-0.1-0.3-0.1-0.4c0-0.1-0.1-0.3-0.1-0.4c0,0.1-0.1,0.3-0.1,0.4c0,0.1-0.1,0.3-0.1,0.4l-2,6.2c-0.1,0.2-0.2,0.3-0.4,0.3H335
				L332.1,36.9z"/>
		</g>
		<g>
			<path class="st1" d="M347,46V32.7h1.6v5.4c0.4-0.4,0.8-0.7,1.3-1s1-0.4,1.6-0.4c0.5,0,0.9,0.1,1.3,0.2s0.7,0.4,1,0.7
				c0.3,0.3,0.4,0.7,0.6,1.1s0.2,0.9,0.2,1.4V46H353v-5.8c0-0.7-0.2-1.2-0.5-1.6c-0.3-0.4-0.8-0.6-1.4-0.6c-0.5,0-0.9,0.1-1.3,0.3
				c-0.4,0.2-0.8,0.5-1.1,0.9V46H347z"/>
		</g>
		<g>
			<path class="st1" d="M360.7,36.7c0.7,0,1.3,0.1,1.8,0.3c0.5,0.2,1,0.5,1.4,0.9c0.4,0.4,0.7,0.9,0.9,1.5c0.2,0.6,0.3,1.2,0.3,1.9
				c0,0.7-0.1,1.4-0.3,1.9c-0.2,0.6-0.5,1.1-0.9,1.5c-0.4,0.4-0.8,0.7-1.4,0.9c-0.5,0.2-1.1,0.3-1.8,0.3s-1.3-0.1-1.8-0.3
				c-0.5-0.2-1-0.5-1.4-0.9c-0.4-0.4-0.7-0.9-0.9-1.5c-0.2-0.6-0.3-1.2-0.3-1.9c0-0.7,0.1-1.4,0.3-1.9c0.2-0.6,0.5-1.1,0.9-1.5
				c0.4-0.4,0.8-0.7,1.4-0.9C359.5,36.8,360.1,36.7,360.7,36.7z M360.7,44.9c0.9,0,1.6-0.3,2-0.9c0.4-0.6,0.7-1.4,0.7-2.5
				c0-1.1-0.2-1.9-0.7-2.5c-0.4-0.6-1.1-0.9-2-0.9c-0.5,0-0.9,0.1-1.2,0.2c-0.3,0.2-0.6,0.4-0.8,0.7c-0.2,0.3-0.4,0.7-0.5,1.1
				c-0.1,0.4-0.2,0.9-0.2,1.5s0.1,1,0.2,1.4c0.1,0.4,0.3,0.8,0.5,1.1c0.2,0.3,0.5,0.5,0.8,0.7C359.9,44.8,360.3,44.9,360.7,44.9z"/>
		</g>
		<g>
			<path class="st1" d="M370.9,46v-7.7l-1-0.1c-0.1,0-0.2-0.1-0.3-0.1c-0.1-0.1-0.1-0.2-0.1-0.3v-0.7h1.4v-0.9c0-0.5,0.1-1,0.2-1.4
				c0.1-0.4,0.4-0.7,0.6-1s0.6-0.5,1-0.6c0.4-0.1,0.8-0.2,1.3-0.2c0.4,0,0.8,0.1,1.1,0.2l0,0.8c0,0.1-0.1,0.2-0.2,0.2
				c-0.1,0-0.2,0-0.4,0h-0.3c-0.3,0-0.5,0-0.8,0.1s-0.4,0.2-0.6,0.4c-0.2,0.2-0.3,0.4-0.4,0.6s-0.1,0.6-0.1,1v0.8h2.6v1.2h-2.6V46
				H370.9z"/>
		</g>
		<g>
			<path class="st1" d="M383.3,46h-0.7c-0.2,0-0.3,0-0.4-0.1c-0.1,0-0.2-0.1-0.2-0.3l-0.2-0.8c-0.2,0.2-0.5,0.4-0.7,0.6
				c-0.2,0.2-0.5,0.3-0.7,0.4c-0.3,0.1-0.5,0.2-0.8,0.3c-0.3,0.1-0.6,0.1-0.9,0.1c-0.4,0-0.7,0-1-0.1c-0.3-0.1-0.6-0.2-0.8-0.4
				c-0.2-0.2-0.4-0.5-0.5-0.8c-0.1-0.3-0.2-0.7-0.2-1.1c0-0.4,0.1-0.7,0.3-1s0.5-0.6,1-0.9c0.4-0.3,1-0.5,1.7-0.6
				c0.7-0.2,1.6-0.2,2.6-0.2v-0.7c0-0.7-0.2-1.3-0.5-1.6c-0.3-0.4-0.8-0.5-1.3-0.5c-0.4,0-0.7,0-1,0.1c-0.3,0.1-0.5,0.2-0.7,0.3
				c-0.2,0.1-0.4,0.2-0.5,0.3c-0.1,0.1-0.3,0.1-0.4,0.1c-0.1,0-0.2,0-0.3-0.1c-0.1-0.1-0.1-0.1-0.2-0.2l-0.3-0.5
				c0.5-0.5,1-0.8,1.6-1.1s1.2-0.4,1.9-0.4c0.5,0,1,0.1,1.4,0.3c0.4,0.2,0.7,0.4,1,0.7c0.3,0.3,0.5,0.7,0.6,1.1
				c0.1,0.4,0.2,0.9,0.2,1.4V46z M379.1,45c0.3,0,0.5,0,0.8-0.1s0.5-0.1,0.7-0.2c0.2-0.1,0.4-0.2,0.6-0.4c0.2-0.1,0.4-0.3,0.6-0.5
				v-1.9c-0.7,0-1.4,0-1.9,0.1c-0.5,0.1-0.9,0.2-1.3,0.4c-0.3,0.2-0.6,0.3-0.7,0.5c-0.1,0.2-0.2,0.4-0.2,0.7c0,0.2,0,0.5,0.1,0.6
				s0.2,0.3,0.3,0.4c0.1,0.1,0.3,0.2,0.5,0.2C378.7,45,378.9,45,379.1,45z"/>
		</g>
		<g>
			<path class="st1" d="M387.9,34c0,0.2,0,0.3-0.1,0.4c-0.1,0.1-0.1,0.3-0.3,0.4c-0.1,0.1-0.2,0.2-0.4,0.2c-0.1,0.1-0.3,0.1-0.4,0.1
				s-0.3,0-0.4-0.1c-0.1-0.1-0.3-0.1-0.4-0.2c-0.1-0.1-0.2-0.2-0.2-0.4c-0.1-0.1-0.1-0.3-0.1-0.4c0-0.2,0-0.3,0.1-0.4
				c0.1-0.1,0.1-0.3,0.2-0.4c0.1-0.1,0.2-0.2,0.4-0.2c0.1-0.1,0.3-0.1,0.4-0.1s0.3,0,0.4,0.1c0.1,0.1,0.3,0.1,0.4,0.2
				c0.1,0.1,0.2,0.2,0.3,0.4C387.8,33.7,387.9,33.9,387.9,34z M387.5,36.9V46h-1.6v-9.1H387.5z"/>
		</g>
		<g>
			<path class="st1" d="M392.1,32.7V46h-1.6V32.7H392.1z"/>
		</g>
	</g>
	<g class="st0">
		<g>
			<path class="st1" d="M57.1,68.1c-0.7,0-1.3-0.2-1.7-0.6c-0.4-0.4-0.6-1-0.6-1.7v-5.6h-1.1c-0.1,0-0.2,0-0.2-0.1
				c-0.1-0.1-0.1-0.1-0.1-0.3v-0.6l1.5-0.2l0.4-2.8c0-0.1,0.1-0.2,0.1-0.2c0.1-0.1,0.1-0.1,0.3-0.1h0.8v3.1H59v1.2h-2.6v5.5
				c0,0.4,0.1,0.7,0.3,0.9c0.2,0.2,0.4,0.3,0.7,0.3c0.2,0,0.3,0,0.4-0.1s0.2-0.1,0.3-0.1c0.1-0.1,0.2-0.1,0.2-0.1
				c0.1,0,0.1-0.1,0.2-0.1c0.1,0,0.2,0.1,0.2,0.2l0.5,0.8c-0.3,0.3-0.6,0.5-1,0.6C57.9,68.1,57.5,68.1,57.1,68.1z"/>
		</g>
		<g>
			<path class="st1" d="M64.7,58.7c0.7,0,1.3,0.1,1.8,0.3c0.5,0.2,1,0.5,1.4,0.9c0.4,0.4,0.7,0.9,0.9,1.5c0.2,0.6,0.3,1.2,0.3,1.9
				c0,0.7-0.1,1.4-0.3,1.9s-0.5,1.1-0.9,1.5c-0.4,0.4-0.8,0.7-1.4,0.9c-0.5,0.2-1.1,0.3-1.8,0.3s-1.3-0.1-1.8-0.3
				c-0.5-0.2-1-0.5-1.4-0.9c-0.4-0.4-0.7-0.9-0.9-1.5c-0.2-0.6-0.3-1.2-0.3-1.9c0-0.7,0.1-1.4,0.3-1.9c0.2-0.6,0.5-1.1,0.9-1.5
				c0.4-0.4,0.8-0.7,1.4-0.9C63.5,58.8,64.1,58.7,64.7,58.7z M64.7,66.9c0.9,0,1.6-0.3,2-0.9c0.4-0.6,0.7-1.4,0.7-2.5
				c0-1.1-0.2-1.9-0.7-2.5c-0.4-0.6-1.1-0.9-2-0.9c-0.5,0-0.9,0.1-1.2,0.2c-0.3,0.2-0.6,0.4-0.8,0.7s-0.4,0.7-0.5,1.1
				c-0.1,0.4-0.2,0.9-0.2,1.5s0.1,1,0.2,1.4c0.1,0.4,0.3,0.8,0.5,1.1s0.5,0.5,0.8,0.7C63.9,66.8,64.3,66.9,64.7,66.9z"/>
		</g>
		<g>
			<path class="st1" d="M81.2,68h-0.7c-0.2,0-0.3,0-0.4-0.1c-0.1,0-0.2-0.1-0.2-0.3l-0.2-0.8c-0.2,0.2-0.5,0.4-0.7,0.6
				s-0.5,0.3-0.7,0.4c-0.3,0.1-0.5,0.2-0.8,0.3c-0.3,0.1-0.6,0.1-1,0.1c-0.4,0-0.7,0-1-0.1c-0.3-0.1-0.6-0.2-0.8-0.4
				c-0.2-0.2-0.4-0.5-0.5-0.8S74,66.1,74,65.7c0-0.4,0.1-0.7,0.3-1c0.2-0.3,0.5-0.6,1-0.9s1-0.5,1.7-0.6c0.7-0.2,1.6-0.2,2.6-0.2
				v-0.7c0-0.7-0.2-1.3-0.5-1.6c-0.3-0.4-0.8-0.5-1.3-0.5c-0.4,0-0.7,0-1,0.1c-0.3,0.1-0.5,0.2-0.7,0.3c-0.2,0.1-0.4,0.2-0.5,0.3
				c-0.1,0.1-0.3,0.1-0.4,0.1c-0.1,0-0.2,0-0.3-0.1s-0.1-0.1-0.2-0.2l-0.3-0.5c0.5-0.5,1-0.8,1.6-1.1s1.2-0.4,1.9-0.4
				c0.5,0,1,0.1,1.4,0.3s0.7,0.4,1,0.7s0.5,0.7,0.6,1.1c0.1,0.4,0.2,0.9,0.2,1.4V68z M77,67c0.3,0,0.5,0,0.8-0.1
				c0.2-0.1,0.5-0.1,0.7-0.2c0.2-0.1,0.4-0.2,0.6-0.4c0.2-0.1,0.4-0.3,0.6-0.5v-1.9c-0.7,0-1.4,0-1.9,0.1s-0.9,0.2-1.3,0.4
				c-0.3,0.2-0.6,0.3-0.7,0.5s-0.2,0.4-0.2,0.7c0,0.2,0,0.5,0.1,0.6s0.2,0.3,0.3,0.4c0.1,0.1,0.3,0.2,0.5,0.2C76.6,67,76.8,67,77,67
				z"/>
		</g>
		<g>
			<path class="st1" d="M83.6,71.1V58.9h1c0.2,0,0.4,0.1,0.4,0.3l0.1,1.1c0.4-0.5,0.8-0.9,1.3-1.1c0.5-0.3,1.1-0.4,1.7-0.4
				c0.5,0,1,0.1,1.4,0.3c0.4,0.2,0.8,0.5,1.1,0.9c0.3,0.4,0.5,0.9,0.7,1.5s0.2,1.3,0.2,2c0,0.7-0.1,1.3-0.3,1.9s-0.4,1.1-0.8,1.5
				c-0.3,0.4-0.7,0.8-1.2,1c-0.5,0.2-1,0.4-1.7,0.4c-0.6,0-1-0.1-1.4-0.3c-0.4-0.2-0.8-0.4-1.1-0.8v4H83.6z M87.7,60
				c-0.5,0-1,0.1-1.4,0.4c-0.4,0.2-0.8,0.6-1.1,1v4.4c0.3,0.4,0.6,0.7,1,0.8c0.4,0.2,0.7,0.2,1.2,0.2c0.8,0,1.5-0.3,2-0.9
				c0.5-0.6,0.7-1.5,0.7-2.6c0-0.6-0.1-1.1-0.2-1.5c-0.1-0.4-0.3-0.8-0.5-1c-0.2-0.3-0.4-0.5-0.7-0.6C88.4,60.1,88.1,60,87.7,60z"/>
		</g>
		<g>
			<path class="st1" d="M93.6,71.1V58.9h1c0.2,0,0.4,0.1,0.4,0.3l0.1,1.1c0.4-0.5,0.8-0.9,1.3-1.1s1.1-0.4,1.7-0.4
				c0.5,0,1,0.1,1.4,0.3c0.4,0.2,0.8,0.5,1.1,0.9c0.3,0.4,0.5,0.9,0.7,1.5s0.2,1.3,0.2,2c0,0.7-0.1,1.3-0.3,1.9
				c-0.2,0.6-0.4,1.1-0.8,1.5s-0.7,0.8-1.2,1c-0.5,0.2-1,0.4-1.7,0.4c-0.6,0-1-0.1-1.4-0.3c-0.4-0.2-0.8-0.4-1.1-0.8v4H93.6z
				 M97.6,60c-0.5,0-1,0.1-1.4,0.4s-0.8,0.6-1.1,1v4.4c0.3,0.4,0.6,0.7,1,0.8c0.4,0.2,0.7,0.2,1.2,0.2c0.8,0,1.5-0.3,2-0.9
				c0.5-0.6,0.7-1.5,0.7-2.6c0-0.6-0.1-1.1-0.2-1.5c-0.1-0.4-0.3-0.8-0.5-1c-0.2-0.3-0.4-0.5-0.7-0.6S98,60,97.6,60z"/>
		</g>
		<g>
			<path class="st1" d="M103.5,68v-9.1h0.9c0.2,0,0.3,0,0.4,0.1c0.1,0.1,0.1,0.2,0.1,0.3l0.1,1.4c0.3-0.6,0.7-1.1,1.2-1.5
				c0.5-0.4,1-0.5,1.6-0.5c0.3,0,0.5,0,0.7,0.1c0.2,0.1,0.4,0.1,0.6,0.2l-0.2,1.2c0,0.1-0.1,0.2-0.3,0.2c-0.1,0-0.2,0-0.4-0.1
				c-0.2-0.1-0.4-0.1-0.7-0.1c-0.6,0-1,0.2-1.4,0.5s-0.7,0.8-0.9,1.4V68H103.5z"/>
		</g>
		<g>
			<path class="st1" d="M114.4,58.7c0.5,0,1.1,0.1,1.5,0.3c0.5,0.2,0.9,0.4,1.2,0.8s0.6,0.8,0.8,1.3c0.2,0.5,0.3,1.1,0.3,1.7
				c0,0.3,0,0.4-0.1,0.5c-0.1,0.1-0.2,0.1-0.3,0.1h-6.1c0,0.6,0.1,1.1,0.2,1.5s0.3,0.8,0.6,1.1s0.6,0.5,0.9,0.6
				c0.3,0.1,0.7,0.2,1.2,0.2c0.4,0,0.7,0,1-0.1s0.5-0.2,0.8-0.3c0.2-0.1,0.4-0.2,0.5-0.3c0.1-0.1,0.3-0.1,0.4-0.1
				c0.1,0,0.2,0.1,0.3,0.2l0.5,0.6c-0.2,0.2-0.4,0.4-0.7,0.6c-0.3,0.2-0.6,0.3-0.9,0.4c-0.3,0.1-0.6,0.2-1,0.3
				c-0.3,0.1-0.7,0.1-1,0.1c-0.6,0-1.2-0.1-1.7-0.3s-1-0.5-1.4-0.9c-0.4-0.4-0.7-0.9-0.9-1.5c-0.2-0.6-0.3-1.3-0.3-2.1
				c0-0.6,0.1-1.2,0.3-1.8c0.2-0.6,0.5-1,0.8-1.4c0.4-0.4,0.8-0.7,1.3-1C113.1,58.9,113.7,58.7,114.4,58.7z M114.4,59.9
				c-0.8,0-1.4,0.2-1.8,0.7c-0.4,0.4-0.7,1.1-0.8,1.9h5c0-0.4-0.1-0.7-0.2-1c-0.1-0.3-0.3-0.6-0.4-0.8c-0.2-0.2-0.4-0.4-0.7-0.5
				C115.1,60,114.8,59.9,114.4,59.9z"/>
		</g>
		<g>
			<path class="st1" d="M126.4,60.5c0,0.1-0.1,0.1-0.1,0.2c0,0-0.1,0.1-0.2,0.1s-0.2,0-0.3-0.1s-0.2-0.2-0.4-0.2
				c-0.2-0.1-0.4-0.2-0.6-0.2s-0.5-0.1-0.9-0.1c-0.4,0-0.8,0.1-1.2,0.2c-0.3,0.2-0.6,0.4-0.9,0.7c-0.2,0.3-0.4,0.7-0.5,1.1
				s-0.2,0.9-0.2,1.4c0,0.6,0.1,1,0.2,1.5c0.1,0.4,0.3,0.8,0.5,1.1c0.2,0.3,0.5,0.5,0.8,0.7c0.3,0.2,0.7,0.2,1.1,0.2
				c0.4,0,0.7,0,1-0.1c0.3-0.1,0.5-0.2,0.6-0.3c0.2-0.1,0.3-0.2,0.4-0.3c0.1-0.1,0.2-0.1,0.3-0.1c0.1,0,0.2,0.1,0.3,0.2l0.4,0.6
				c-0.4,0.5-0.9,0.8-1.5,1.1c-0.6,0.2-1.2,0.3-1.9,0.3c-0.6,0-1.1-0.1-1.6-0.3s-0.9-0.5-1.3-0.9c-0.4-0.4-0.6-0.9-0.9-1.5
				s-0.3-1.2-0.3-2c0-0.7,0.1-1.3,0.3-1.9c0.2-0.6,0.5-1.1,0.8-1.5s0.8-0.7,1.3-1c0.5-0.2,1.1-0.4,1.8-0.4c0.6,0,1.2,0.1,1.7,0.3
				c0.5,0.2,0.9,0.5,1.3,0.9L126.4,60.5z"/>
		</g>
		<g>
			<path class="st1" d="M130.7,56c0,0.2,0,0.3-0.1,0.4c-0.1,0.1-0.1,0.3-0.3,0.4c-0.1,0.1-0.2,0.2-0.4,0.2c-0.1,0.1-0.3,0.1-0.4,0.1
				c-0.2,0-0.3,0-0.4-0.1c-0.1-0.1-0.3-0.1-0.4-0.2c-0.1-0.1-0.2-0.2-0.2-0.4c-0.1-0.1-0.1-0.3-0.1-0.4c0-0.2,0-0.3,0.1-0.4
				c0.1-0.1,0.1-0.3,0.2-0.4c0.1-0.1,0.2-0.2,0.4-0.2c0.1-0.1,0.3-0.1,0.4-0.1c0.2,0,0.3,0,0.4,0.1c0.1,0.1,0.3,0.1,0.4,0.2
				c0.1,0.1,0.2,0.2,0.3,0.4C130.7,55.7,130.7,55.9,130.7,56z M130.4,58.9V68h-1.6v-9.1H130.4z"/>
		</g>
		<g>
			<path class="st1" d="M139.9,68h-0.7c-0.2,0-0.3,0-0.4-0.1c-0.1,0-0.2-0.1-0.2-0.3l-0.2-0.8c-0.2,0.2-0.5,0.4-0.7,0.6
				c-0.2,0.2-0.5,0.3-0.7,0.4c-0.3,0.1-0.5,0.2-0.8,0.3c-0.3,0.1-0.6,0.1-0.9,0.1c-0.4,0-0.7,0-1-0.1c-0.3-0.1-0.6-0.2-0.8-0.4
				c-0.2-0.2-0.4-0.5-0.5-0.8c-0.1-0.3-0.2-0.7-0.2-1.1c0-0.4,0.1-0.7,0.3-1s0.5-0.6,1-0.9c0.4-0.3,1-0.5,1.7-0.6
				c0.7-0.2,1.6-0.2,2.6-0.2v-0.7c0-0.7-0.2-1.3-0.5-1.6c-0.3-0.4-0.8-0.5-1.3-0.5c-0.4,0-0.7,0-1,0.1c-0.3,0.1-0.5,0.2-0.7,0.3
				c-0.2,0.1-0.4,0.2-0.5,0.3c-0.1,0.1-0.3,0.1-0.4,0.1c-0.1,0-0.2,0-0.3-0.1c-0.1-0.1-0.1-0.1-0.2-0.2l-0.3-0.5
				c0.5-0.5,1-0.8,1.6-1.1s1.2-0.4,1.9-0.4c0.5,0,1,0.1,1.4,0.3c0.4,0.2,0.7,0.4,1,0.7c0.3,0.3,0.5,0.7,0.6,1.1
				c0.1,0.4,0.2,0.9,0.2,1.4V68z M135.7,67c0.3,0,0.5,0,0.8-0.1s0.5-0.1,0.7-0.2c0.2-0.1,0.4-0.2,0.6-0.4c0.2-0.1,0.4-0.3,0.6-0.5
				v-1.9c-0.7,0-1.4,0-1.9,0.1c-0.5,0.1-0.9,0.2-1.3,0.4c-0.3,0.2-0.6,0.3-0.7,0.5c-0.1,0.2-0.2,0.4-0.2,0.7c0,0.2,0,0.5,0.1,0.6
				s0.2,0.3,0.3,0.4c0.1,0.1,0.3,0.2,0.5,0.2C135.3,67,135.5,67,135.7,67z"/>
		</g>
		<g>
			<path class="st1" d="M145.1,68.1c-0.7,0-1.3-0.2-1.7-0.6c-0.4-0.4-0.6-1-0.6-1.7v-5.6h-1.1c-0.1,0-0.2,0-0.2-0.1
				s-0.1-0.1-0.1-0.3v-0.6l1.5-0.2l0.4-2.8c0-0.1,0.1-0.2,0.1-0.2c0.1-0.1,0.2-0.1,0.3-0.1h0.8v3.1h2.6v1.2h-2.6v5.5
				c0,0.4,0.1,0.7,0.3,0.9c0.2,0.2,0.4,0.3,0.7,0.3c0.2,0,0.3,0,0.4-0.1s0.2-0.1,0.3-0.1c0.1-0.1,0.2-0.1,0.2-0.1
				c0.1,0,0.1-0.1,0.2-0.1c0.1,0,0.2,0.1,0.2,0.2l0.5,0.8c-0.3,0.3-0.6,0.5-1,0.6C145.9,68.1,145.5,68.1,145.1,68.1z"/>
		</g>
		<g>
			<path class="st1" d="M152.7,58.7c0.5,0,1.1,0.1,1.5,0.3c0.5,0.2,0.9,0.4,1.2,0.8s0.6,0.8,0.8,1.3c0.2,0.5,0.3,1.1,0.3,1.7
				c0,0.3,0,0.4-0.1,0.5c-0.1,0.1-0.2,0.1-0.3,0.1H150c0,0.6,0.1,1.1,0.2,1.5s0.3,0.8,0.6,1.1s0.6,0.5,0.9,0.6
				c0.3,0.1,0.7,0.2,1.2,0.2c0.4,0,0.7,0,1-0.1s0.5-0.2,0.8-0.3c0.2-0.1,0.4-0.2,0.5-0.3c0.1-0.1,0.3-0.1,0.4-0.1
				c0.1,0,0.2,0.1,0.3,0.2l0.5,0.6c-0.2,0.2-0.4,0.4-0.7,0.6c-0.3,0.2-0.6,0.3-0.9,0.4c-0.3,0.1-0.6,0.2-1,0.3
				c-0.3,0.1-0.7,0.1-1,0.1c-0.6,0-1.2-0.1-1.7-0.3s-1-0.5-1.4-0.9c-0.4-0.4-0.7-0.9-0.9-1.5c-0.2-0.6-0.3-1.3-0.3-2.1
				c0-0.6,0.1-1.2,0.3-1.8c0.2-0.6,0.5-1,0.8-1.4c0.4-0.4,0.8-0.7,1.3-1C151.4,58.9,152,58.7,152.7,58.7z M152.7,59.9
				c-0.8,0-1.4,0.2-1.8,0.7c-0.4,0.4-0.7,1.1-0.8,1.9h5c0-0.4-0.1-0.7-0.2-1c-0.1-0.3-0.3-0.6-0.4-0.8c-0.2-0.2-0.4-0.4-0.7-0.5
				C153.4,60,153.1,59.9,152.7,59.9z"/>
		</g>
		<g>
			<path class="st1" d="M160.8,58.9h1.3c0.1,0,0.2,0,0.3,0.1c0.1,0.1,0.1,0.1,0.2,0.2l1.7,5.9c0,0.2,0.1,0.4,0.1,0.6
				c0,0.2,0.1,0.4,0.1,0.6c0-0.2,0.1-0.4,0.2-0.6c0.1-0.2,0.1-0.4,0.2-0.6l1.9-5.9c0-0.1,0.1-0.2,0.2-0.2s0.2-0.1,0.3-0.1h0.7
				c0.1,0,0.2,0,0.3,0.1c0.1,0.1,0.1,0.1,0.2,0.2l1.9,5.9c0.1,0.2,0.1,0.4,0.2,0.6s0.1,0.4,0.1,0.6c0-0.2,0.1-0.4,0.1-0.6
				c0-0.2,0.1-0.4,0.2-0.6l1.8-5.9c0-0.1,0.1-0.2,0.2-0.2c0.1-0.1,0.2-0.1,0.3-0.1h1.2l-3,9.1h-1.3c-0.2,0-0.3-0.1-0.3-0.3l-2-6.2
				c0-0.1-0.1-0.3-0.1-0.4c0-0.1-0.1-0.3-0.1-0.4c0,0.1-0.1,0.3-0.1,0.4c0,0.1-0.1,0.3-0.1,0.4l-2,6.2c-0.1,0.2-0.2,0.3-0.4,0.3
				h-1.2L160.8,58.9z"/>
		</g>
		<g>
			<path class="st1" d="M175.7,68V54.7h1.6v5.4c0.4-0.4,0.8-0.7,1.3-1s1-0.4,1.6-0.4c0.5,0,0.9,0.1,1.3,0.2s0.7,0.4,1,0.7
				c0.3,0.3,0.4,0.7,0.6,1.1c0.1,0.4,0.2,0.9,0.2,1.4V68h-1.6v-5.8c0-0.7-0.2-1.2-0.5-1.6c-0.3-0.4-0.8-0.6-1.4-0.6
				c-0.5,0-0.9,0.1-1.3,0.3c-0.4,0.2-0.8,0.5-1.1,0.9V68H175.7z"/>
		</g>
		<g>
			<path class="st1" d="M192.4,68h-0.7c-0.2,0-0.3,0-0.4-0.1c-0.1,0-0.2-0.1-0.2-0.3l-0.2-0.8c-0.2,0.2-0.5,0.4-0.7,0.6
				c-0.2,0.2-0.5,0.3-0.7,0.4c-0.3,0.1-0.5,0.2-0.8,0.3c-0.3,0.1-0.6,0.1-0.9,0.1c-0.4,0-0.7,0-1-0.1c-0.3-0.1-0.6-0.2-0.8-0.4
				c-0.2-0.2-0.4-0.5-0.5-0.8c-0.1-0.3-0.2-0.7-0.2-1.1c0-0.4,0.1-0.7,0.3-1s0.5-0.6,1-0.9c0.4-0.3,1-0.5,1.7-0.6
				c0.7-0.2,1.6-0.2,2.6-0.2v-0.7c0-0.7-0.2-1.3-0.5-1.6c-0.3-0.4-0.8-0.5-1.3-0.5c-0.4,0-0.7,0-1,0.1c-0.3,0.1-0.5,0.2-0.7,0.3
				c-0.2,0.1-0.4,0.2-0.5,0.3c-0.1,0.1-0.3,0.1-0.4,0.1c-0.1,0-0.2,0-0.3-0.1c-0.1-0.1-0.1-0.1-0.2-0.2l-0.3-0.5
				c0.5-0.5,1-0.8,1.6-1.1s1.2-0.4,1.9-0.4c0.5,0,1,0.1,1.4,0.3c0.4,0.2,0.7,0.4,1,0.7c0.3,0.3,0.5,0.7,0.6,1.1
				c0.1,0.4,0.2,0.9,0.2,1.4V68z M188.3,67c0.3,0,0.5,0,0.8-0.1s0.5-0.1,0.7-0.2c0.2-0.1,0.4-0.2,0.6-0.4c0.2-0.1,0.4-0.3,0.6-0.5
				v-1.9c-0.7,0-1.4,0-1.9,0.1c-0.5,0.1-0.9,0.2-1.3,0.4c-0.3,0.2-0.6,0.3-0.7,0.5c-0.1,0.2-0.2,0.4-0.2,0.7c0,0.2,0,0.5,0.1,0.6
				s0.2,0.3,0.3,0.4c0.1,0.1,0.3,0.2,0.5,0.2C187.9,67,188.1,67,188.3,67z"/>
		</g>
		<g>
			<path class="st1" d="M197.6,68.1c-0.7,0-1.3-0.2-1.7-0.6c-0.4-0.4-0.6-1-0.6-1.7v-5.6h-1.1c-0.1,0-0.2,0-0.2-0.1S194,60,194,59.9
				v-0.6l1.5-0.2l0.4-2.8c0-0.1,0.1-0.2,0.1-0.2c0.1-0.1,0.2-0.1,0.3-0.1h0.8v3.1h2.6v1.2H197v5.5c0,0.4,0.1,0.7,0.3,0.9
				c0.2,0.2,0.4,0.3,0.7,0.3c0.2,0,0.3,0,0.4-0.1s0.2-0.1,0.3-0.1c0.1-0.1,0.2-0.1,0.2-0.1c0.1,0,0.1-0.1,0.2-0.1
				c0.1,0,0.2,0.1,0.2,0.2l0.5,0.8c-0.3,0.3-0.6,0.5-1,0.6C198.5,68.1,198.1,68.1,197.6,68.1z"/>
		</g>
		<g>
			<path class="st1" d="M207.8,68.1c-0.7,0-1.3-0.2-1.7-0.6c-0.4-0.4-0.6-1-0.6-1.7v-5.6h-1.1c-0.1,0-0.2,0-0.2-0.1
				s-0.1-0.1-0.1-0.3v-0.6l1.5-0.2l0.4-2.8c0-0.1,0.1-0.2,0.1-0.2c0.1-0.1,0.2-0.1,0.3-0.1h0.8v3.1h2.6v1.2h-2.6v5.5
				c0,0.4,0.1,0.7,0.3,0.9c0.2,0.2,0.4,0.3,0.7,0.3c0.2,0,0.3,0,0.4-0.1s0.2-0.1,0.3-0.1c0.1-0.1,0.2-0.1,0.2-0.1
				c0.1,0,0.1-0.1,0.2-0.1c0.1,0,0.2,0.1,0.2,0.2l0.5,0.8c-0.3,0.3-0.6,0.5-1,0.6C208.6,68.1,208.2,68.1,207.8,68.1z"/>
		</g>
		<g>
			<path class="st1" d="M211.8,68V54.7h1.6v5.4c0.4-0.4,0.8-0.7,1.3-1s1-0.4,1.6-0.4c0.5,0,0.9,0.1,1.3,0.2s0.7,0.4,1,0.7
				c0.3,0.3,0.4,0.7,0.6,1.1c0.1,0.4,0.2,0.9,0.2,1.4V68h-1.6v-5.8c0-0.7-0.2-1.2-0.5-1.6c-0.3-0.4-0.8-0.6-1.4-0.6
				c-0.5,0-0.9,0.1-1.3,0.3c-0.4,0.2-0.8,0.5-1.1,0.9V68H211.8z"/>
		</g>
		<g>
			<path class="st1" d="M225.4,58.7c0.5,0,1,0.1,1.5,0.3c0.5,0.2,0.9,0.4,1.2,0.8s0.6,0.8,0.8,1.3c0.2,0.5,0.3,1.1,0.3,1.7
				c0,0.3,0,0.4-0.1,0.5s-0.2,0.1-0.3,0.1h-6.1c0,0.6,0.1,1.1,0.2,1.5c0.1,0.4,0.3,0.8,0.6,1.1s0.6,0.5,0.9,0.6
				c0.3,0.1,0.7,0.2,1.2,0.2c0.4,0,0.7,0,1-0.1s0.5-0.2,0.8-0.3c0.2-0.1,0.4-0.2,0.5-0.3c0.1-0.1,0.3-0.1,0.4-0.1
				c0.1,0,0.2,0.1,0.3,0.2l0.4,0.6c-0.2,0.2-0.4,0.4-0.7,0.6s-0.6,0.3-0.9,0.4c-0.3,0.1-0.6,0.2-1,0.3c-0.3,0.1-0.7,0.1-1,0.1
				c-0.6,0-1.2-0.1-1.7-0.3s-1-0.5-1.4-0.9c-0.4-0.4-0.7-0.9-0.9-1.5c-0.2-0.6-0.3-1.3-0.3-2.1c0-0.6,0.1-1.2,0.3-1.8
				c0.2-0.6,0.5-1,0.8-1.4c0.4-0.4,0.8-0.7,1.3-1C224.1,58.9,224.7,58.7,225.4,58.7z M225.4,59.9c-0.8,0-1.4,0.2-1.8,0.7
				c-0.4,0.4-0.7,1.1-0.8,1.9h5c0-0.4-0.1-0.7-0.2-1c-0.1-0.3-0.3-0.6-0.4-0.8c-0.2-0.2-0.4-0.4-0.7-0.5S225.8,59.9,225.4,59.9z"/>
		</g>
		<g>
			<path class="st1" d="M233.7,70.7c-0.1,0.1-0.1,0.2-0.2,0.3c-0.1,0.1-0.2,0.1-0.4,0.1h-1.2l1.7-3.6l-3.8-8.6h1.4
				c0.1,0,0.2,0,0.3,0.1c0.1,0.1,0.1,0.1,0.2,0.2l2.4,5.7c0.1,0.1,0.1,0.3,0.1,0.4c0,0.1,0.1,0.3,0.1,0.4c0-0.1,0.1-0.3,0.1-0.4
				c0-0.1,0.1-0.3,0.1-0.4l2.4-5.7c0-0.1,0.1-0.2,0.2-0.2c0.1-0.1,0.2-0.1,0.3-0.1h1.3L233.7,70.7z"/>
		</g>
		<g>
			<path class="st1" d="M250.4,68h-0.7c-0.2,0-0.3,0-0.4-0.1c-0.1,0-0.2-0.1-0.2-0.3l-0.2-0.8c-0.2,0.2-0.5,0.4-0.7,0.6
				c-0.2,0.2-0.5,0.3-0.7,0.4c-0.3,0.1-0.5,0.2-0.8,0.3c-0.3,0.1-0.6,0.1-1,0.1c-0.4,0-0.7,0-1-0.1c-0.3-0.1-0.6-0.2-0.8-0.4
				c-0.2-0.2-0.4-0.5-0.5-0.8s-0.2-0.7-0.2-1.1c0-0.4,0.1-0.7,0.3-1s0.5-0.6,1-0.9c0.4-0.3,1-0.5,1.7-0.6c0.7-0.2,1.6-0.2,2.6-0.2
				v-0.7c0-0.7-0.2-1.3-0.5-1.6c-0.3-0.4-0.8-0.5-1.3-0.5c-0.4,0-0.7,0-1,0.1c-0.3,0.1-0.5,0.2-0.7,0.3c-0.2,0.1-0.4,0.2-0.5,0.3
				c-0.1,0.1-0.3,0.1-0.4,0.1c-0.1,0-0.2,0-0.3-0.1c-0.1-0.1-0.1-0.1-0.2-0.2l-0.3-0.5c0.5-0.5,1-0.8,1.6-1.1s1.2-0.4,1.9-0.4
				c0.5,0,1,0.1,1.4,0.3c0.4,0.2,0.7,0.4,1,0.7c0.3,0.3,0.5,0.7,0.6,1.1c0.1,0.4,0.2,0.9,0.2,1.4V68z M246.2,67c0.3,0,0.5,0,0.8-0.1
				s0.5-0.1,0.7-0.2c0.2-0.1,0.4-0.2,0.6-0.4c0.2-0.1,0.4-0.3,0.6-0.5v-1.9c-0.7,0-1.4,0-1.9,0.1s-0.9,0.2-1.3,0.4
				c-0.3,0.2-0.6,0.3-0.7,0.5c-0.1,0.2-0.2,0.4-0.2,0.7c0,0.2,0,0.5,0.1,0.6s0.2,0.3,0.3,0.4c0.1,0.1,0.3,0.2,0.5,0.2
				C245.8,67,246,67,246.2,67z"/>
		</g>
		<g>
			<path class="st1" d="M254.6,54.7V68H253V54.7H254.6z"/>
		</g>
		<g>
			<path class="st1" d="M257.4,68v-9.1h0.9c0.2,0,0.3,0,0.4,0.1c0.1,0.1,0.1,0.2,0.1,0.3l0.1,1.4c0.3-0.6,0.7-1.1,1.2-1.5
				c0.5-0.4,1-0.5,1.6-0.5c0.3,0,0.5,0,0.7,0.1c0.2,0.1,0.4,0.1,0.6,0.2l-0.2,1.2c0,0.1-0.1,0.2-0.3,0.2c-0.1,0-0.2,0-0.4-0.1
				c-0.2-0.1-0.4-0.1-0.7-0.1c-0.6,0-1,0.2-1.4,0.5s-0.7,0.8-0.9,1.4V68H257.4z"/>
		</g>
		<g>
			<path class="st1" d="M268.3,58.7c0.5,0,1,0.1,1.5,0.3c0.5,0.2,0.9,0.4,1.2,0.8s0.6,0.8,0.8,1.3c0.2,0.5,0.3,1.1,0.3,1.7
				c0,0.3,0,0.4-0.1,0.5c-0.1,0.1-0.2,0.1-0.3,0.1h-6.1c0,0.6,0.1,1.1,0.2,1.5s0.3,0.8,0.6,1.1s0.6,0.5,0.9,0.6
				c0.3,0.1,0.7,0.2,1.2,0.2c0.4,0,0.7,0,1-0.1s0.5-0.2,0.8-0.3c0.2-0.1,0.4-0.2,0.5-0.3c0.1-0.1,0.3-0.1,0.4-0.1
				c0.1,0,0.2,0.1,0.3,0.2l0.4,0.6c-0.2,0.2-0.4,0.4-0.7,0.6c-0.3,0.2-0.6,0.3-0.9,0.4c-0.3,0.1-0.6,0.2-1,0.3
				c-0.3,0.1-0.7,0.1-1,0.1c-0.6,0-1.2-0.1-1.7-0.3c-0.5-0.2-1-0.5-1.4-0.9c-0.4-0.4-0.7-0.9-0.9-1.5c-0.2-0.6-0.3-1.3-0.3-2.1
				c0-0.6,0.1-1.2,0.3-1.8c0.2-0.6,0.5-1,0.8-1.4c0.4-0.4,0.8-0.7,1.3-1C267,58.9,267.6,58.7,268.3,58.7z M268.3,59.9
				c-0.8,0-1.4,0.2-1.8,0.7c-0.4,0.4-0.7,1.1-0.8,1.9h5c0-0.4-0.1-0.7-0.2-1c-0.1-0.3-0.3-0.6-0.5-0.8c-0.2-0.2-0.4-0.4-0.7-0.5
				S268.7,59.9,268.3,59.9z"/>
		</g>
		<g>
			<path class="st1" d="M280.8,68h-0.7c-0.2,0-0.3,0-0.4-0.1c-0.1,0-0.2-0.1-0.2-0.3l-0.2-0.8c-0.2,0.2-0.5,0.4-0.7,0.6
				s-0.5,0.3-0.7,0.4c-0.3,0.1-0.5,0.2-0.8,0.3c-0.3,0.1-0.6,0.1-1,0.1c-0.4,0-0.7,0-1-0.1c-0.3-0.1-0.6-0.2-0.8-0.4
				c-0.2-0.2-0.4-0.5-0.5-0.8s-0.2-0.7-0.2-1.1c0-0.4,0.1-0.7,0.3-1c0.2-0.3,0.5-0.6,1-0.9s1-0.5,1.7-0.6c0.7-0.2,1.6-0.2,2.6-0.2
				v-0.7c0-0.7-0.2-1.3-0.5-1.6c-0.3-0.4-0.8-0.5-1.3-0.5c-0.4,0-0.7,0-1,0.1c-0.3,0.1-0.5,0.2-0.7,0.3c-0.2,0.1-0.4,0.2-0.5,0.3
				c-0.1,0.1-0.3,0.1-0.4,0.1c-0.1,0-0.2,0-0.3-0.1s-0.1-0.1-0.2-0.2l-0.3-0.5c0.5-0.5,1-0.8,1.6-1.1s1.2-0.4,1.9-0.4
				c0.5,0,1,0.1,1.4,0.3s0.7,0.4,1,0.7s0.5,0.7,0.6,1.1c0.1,0.4,0.2,0.9,0.2,1.4V68z M276.6,67c0.3,0,0.5,0,0.8-0.1
				c0.2-0.1,0.5-0.1,0.7-0.2c0.2-0.1,0.4-0.2,0.6-0.4c0.2-0.1,0.4-0.3,0.6-0.5v-1.9c-0.7,0-1.4,0-1.9,0.1s-0.9,0.2-1.3,0.4
				c-0.3,0.2-0.6,0.3-0.7,0.5s-0.2,0.4-0.2,0.7c0,0.2,0,0.5,0.1,0.6s0.2,0.3,0.3,0.4c0.1,0.1,0.3,0.2,0.5,0.2
				C276.2,67,276.4,67,276.6,67z"/>
		</g>
		<g>
			<path class="st1" d="M289.6,68c-0.2,0-0.4-0.1-0.4-0.3l-0.1-1.1c-0.4,0.5-0.8,0.9-1.3,1.1c-0.5,0.3-1.1,0.4-1.7,0.4
				c-0.5,0-1-0.1-1.4-0.3c-0.4-0.2-0.8-0.5-1.1-0.9c-0.3-0.4-0.5-0.9-0.7-1.5s-0.2-1.3-0.2-2c0-0.7,0.1-1.3,0.3-1.9
				c0.2-0.6,0.4-1.1,0.8-1.5c0.3-0.4,0.8-0.8,1.2-1c0.5-0.2,1-0.4,1.7-0.4c0.6,0,1,0.1,1.4,0.3c0.4,0.2,0.8,0.5,1.1,0.8v-5.1h1.6V68
				H289.6z M286.5,66.8c0.5,0,1-0.1,1.4-0.4c0.4-0.2,0.8-0.6,1.1-1V61c-0.3-0.4-0.6-0.7-1-0.8c-0.4-0.2-0.7-0.2-1.2-0.2
				c-0.9,0-1.5,0.3-2,0.9c-0.5,0.6-0.7,1.5-0.7,2.6c0,0.6,0.1,1.1,0.2,1.5c0.1,0.4,0.3,0.8,0.4,1c0.2,0.3,0.4,0.5,0.7,0.6
				S286.2,66.8,286.5,66.8z"/>
		</g>
		<g>
			<path class="st1" d="M296,70.7c-0.1,0.1-0.1,0.2-0.2,0.3c-0.1,0.1-0.2,0.1-0.4,0.1h-1.2l1.7-3.6l-3.8-8.6h1.4
				c0.1,0,0.2,0,0.3,0.1c0.1,0.1,0.1,0.1,0.2,0.2l2.4,5.7c0.1,0.1,0.1,0.3,0.1,0.4c0,0.1,0.1,0.3,0.1,0.4c0-0.1,0.1-0.3,0.1-0.4
				c0-0.1,0.1-0.3,0.1-0.4l2.4-5.7c0-0.1,0.1-0.2,0.2-0.2c0.1-0.1,0.2-0.1,0.3-0.1h1.3L296,70.7z"/>
		</g>
		<g>
			<path class="st1" d="M306,68V54.7h1.6v5.4c0.4-0.4,0.8-0.7,1.3-1s1-0.4,1.6-0.4c0.5,0,0.9,0.1,1.3,0.2s0.7,0.4,1,0.7
				c0.3,0.3,0.4,0.7,0.6,1.1s0.2,0.9,0.2,1.4V68H312v-5.8c0-0.7-0.2-1.2-0.5-1.6c-0.3-0.4-0.8-0.6-1.4-0.6c-0.5,0-0.9,0.1-1.3,0.3
				c-0.4,0.2-0.8,0.5-1.1,0.9V68H306z"/>
		</g>
		<g>
			<path class="st1" d="M322.7,68H322c-0.2,0-0.3,0-0.4-0.1c-0.1,0-0.2-0.1-0.2-0.3l-0.2-0.8c-0.2,0.2-0.5,0.4-0.7,0.6
				c-0.2,0.2-0.5,0.3-0.7,0.4c-0.3,0.1-0.5,0.2-0.8,0.3c-0.3,0.1-0.6,0.1-1,0.1c-0.4,0-0.7,0-1-0.1c-0.3-0.1-0.6-0.2-0.8-0.4
				c-0.2-0.2-0.4-0.5-0.5-0.8s-0.2-0.7-0.2-1.1c0-0.4,0.1-0.7,0.3-1s0.5-0.6,1-0.9c0.4-0.3,1-0.5,1.7-0.6c0.7-0.2,1.6-0.2,2.6-0.2
				v-0.7c0-0.7-0.2-1.3-0.5-1.6c-0.3-0.4-0.8-0.5-1.3-0.5c-0.4,0-0.7,0-1,0.1c-0.3,0.1-0.5,0.2-0.7,0.3c-0.2,0.1-0.4,0.2-0.5,0.3
				c-0.1,0.1-0.3,0.1-0.4,0.1c-0.1,0-0.2,0-0.3-0.1c-0.1-0.1-0.1-0.1-0.2-0.2l-0.3-0.5c0.5-0.5,1-0.8,1.6-1.1s1.2-0.4,1.9-0.4
				c0.5,0,1,0.1,1.4,0.3c0.4,0.2,0.7,0.4,1,0.7c0.3,0.3,0.5,0.7,0.6,1.1c0.1,0.4,0.2,0.9,0.2,1.4V68z M318.5,67c0.3,0,0.5,0,0.8-0.1
				s0.5-0.1,0.7-0.2c0.2-0.1,0.4-0.2,0.6-0.4c0.2-0.1,0.4-0.3,0.6-0.5v-1.9c-0.7,0-1.4,0-1.9,0.1s-0.9,0.2-1.3,0.4
				c-0.3,0.2-0.6,0.3-0.7,0.5c-0.1,0.2-0.2,0.4-0.2,0.7c0,0.2,0,0.5,0.1,0.6s0.2,0.3,0.3,0.4c0.1,0.1,0.3,0.2,0.5,0.2
				C318.1,67,318.3,67,318.5,67z"/>
		</g>
		<g>
			<path class="st1" d="M323.7,58.9h1.3c0.1,0,0.2,0,0.3,0.1c0.1,0.1,0.1,0.1,0.2,0.2l2.3,5.9c0.1,0.2,0.2,0.4,0.2,0.6
				c0,0.2,0.1,0.4,0.1,0.6c0-0.2,0.1-0.4,0.2-0.6c0.1-0.2,0.1-0.4,0.2-0.6l2.3-5.9c0-0.1,0.1-0.2,0.2-0.2c0.1-0.1,0.2-0.1,0.3-0.1
				h1.3l-3.7,9.1h-1.4L323.7,58.9z"/>
		</g>
		<g>
			<path class="st1" d="M337.4,58.7c0.5,0,1.1,0.1,1.5,0.3c0.5,0.2,0.9,0.4,1.2,0.8s0.6,0.8,0.8,1.3c0.2,0.5,0.3,1.1,0.3,1.7
				c0,0.3,0,0.4-0.1,0.5c-0.1,0.1-0.2,0.1-0.3,0.1h-6.1c0,0.6,0.1,1.1,0.2,1.5c0.1,0.4,0.3,0.8,0.6,1.1s0.6,0.5,0.9,0.6
				c0.3,0.1,0.7,0.2,1.2,0.2c0.4,0,0.7,0,1-0.1s0.5-0.2,0.8-0.3c0.2-0.1,0.4-0.2,0.5-0.3c0.1-0.1,0.3-0.1,0.4-0.1
				c0.1,0,0.2,0.1,0.3,0.2l0.5,0.6c-0.2,0.2-0.4,0.4-0.7,0.6s-0.6,0.3-0.9,0.4s-0.6,0.2-1,0.3c-0.3,0.1-0.7,0.1-1,0.1
				c-0.6,0-1.2-0.1-1.7-0.3c-0.5-0.2-1-0.5-1.4-0.9c-0.4-0.4-0.7-0.9-0.9-1.5c-0.2-0.6-0.3-1.3-0.3-2.1c0-0.6,0.1-1.2,0.3-1.8
				c0.2-0.6,0.5-1,0.8-1.4c0.4-0.4,0.8-0.7,1.3-1C336.2,58.9,336.7,58.7,337.4,58.7z M337.4,59.9c-0.8,0-1.4,0.2-1.8,0.7
				c-0.4,0.4-0.7,1.1-0.8,1.9h5c0-0.4-0.1-0.7-0.2-1c-0.1-0.3-0.3-0.6-0.5-0.8c-0.2-0.2-0.4-0.4-0.7-0.5
				C338.1,60,337.8,59.9,337.4,59.9z"/>
		</g>
		<g>
			<path class="st1" d="M342.7,67c0-0.2,0-0.3,0.1-0.4c0.1-0.1,0.1-0.3,0.2-0.4c0.1-0.1,0.2-0.2,0.4-0.2c0.1-0.1,0.3-0.1,0.4-0.1
				c0.2,0,0.3,0,0.4,0.1c0.1,0.1,0.3,0.1,0.4,0.2c0.1,0.1,0.2,0.2,0.2,0.4c0.1,0.1,0.1,0.3,0.1,0.4c0,0.2,0,0.3-0.1,0.4
				c-0.1,0.1-0.1,0.3-0.2,0.4c-0.1,0.1-0.2,0.2-0.4,0.2c-0.1,0.1-0.3,0.1-0.4,0.1c-0.2,0-0.3,0-0.4-0.1c-0.1-0.1-0.3-0.1-0.4-0.2
				c-0.1-0.1-0.2-0.2-0.2-0.4C342.7,67.3,342.7,67.2,342.7,67z"/>
		</g>
		<g>
			<path class="st1" d="M349.4,68h-1.7V55.1h1.7V68z"/>
		</g>
		<g>
			<path class="st1" d="M355.3,68.1c-0.7,0-1.3-0.2-1.7-0.6c-0.4-0.4-0.6-1-0.6-1.7v-5.6H352c-0.1,0-0.2,0-0.2-0.1s-0.1-0.1-0.1-0.3
				v-0.6l1.5-0.2l0.4-2.8c0-0.1,0.1-0.2,0.1-0.2c0.1-0.1,0.2-0.1,0.3-0.1h0.8v3.1h2.6v1.2h-2.6v5.5c0,0.4,0.1,0.7,0.3,0.9
				c0.2,0.2,0.4,0.3,0.7,0.3c0.2,0,0.3,0,0.4-0.1s0.2-0.1,0.3-0.1c0.1-0.1,0.2-0.1,0.2-0.1c0.1,0,0.1-0.1,0.2-0.1
				c0.1,0,0.2,0.1,0.2,0.2l0.5,0.8c-0.3,0.3-0.6,0.5-1,0.6C356.2,68.1,355.7,68.1,355.3,68.1z"/>
		</g>
		<g>
			<path class="st1" d="M360.7,55.1v2.6l-0.1,1.4c0,0.2-0.1,0.3-0.2,0.4c-0.1,0.1-0.2,0.2-0.4,0.2c-0.2,0-0.3-0.1-0.4-0.2
				c-0.1-0.1-0.1-0.3-0.2-0.4l-0.1-1.4v-2.6H360.7z"/>
		</g>
		<g>
			<path class="st1" d="M368.6,60.4c-0.1,0.1-0.2,0.2-0.3,0.2c-0.1,0-0.2,0-0.3-0.1c-0.1-0.1-0.3-0.1-0.4-0.2s-0.4-0.2-0.6-0.2
				c-0.2-0.1-0.5-0.1-0.8-0.1c-0.3,0-0.5,0-0.7,0.1c-0.2,0.1-0.4,0.2-0.6,0.3c-0.2,0.1-0.3,0.3-0.4,0.4c-0.1,0.2-0.1,0.3-0.1,0.5
				c0,0.2,0.1,0.4,0.2,0.6c0.1,0.2,0.3,0.3,0.5,0.4c0.2,0.1,0.5,0.2,0.8,0.3c0.3,0.1,0.6,0.2,0.9,0.3c0.3,0.1,0.6,0.2,0.9,0.3
				c0.3,0.1,0.5,0.3,0.8,0.5c0.2,0.2,0.4,0.4,0.5,0.7s0.2,0.6,0.2,0.9c0,0.4-0.1,0.8-0.2,1.2c-0.1,0.4-0.4,0.7-0.7,0.9
				c-0.3,0.3-0.7,0.5-1.1,0.6c-0.4,0.2-0.9,0.2-1.5,0.2c-0.6,0-1.2-0.1-1.7-0.3c-0.5-0.2-1-0.5-1.3-0.8l0.4-0.6
				c0-0.1,0.1-0.1,0.2-0.2c0.1,0,0.2-0.1,0.3-0.1c0.1,0,0.2,0,0.3,0.1c0.1,0.1,0.3,0.2,0.4,0.3c0.2,0.1,0.4,0.2,0.6,0.3
				s0.5,0.1,0.9,0.1c0.3,0,0.6,0,0.8-0.1s0.4-0.2,0.6-0.3s0.3-0.3,0.3-0.5c0.1-0.2,0.1-0.4,0.1-0.6c0-0.3-0.1-0.5-0.2-0.6
				c-0.1-0.2-0.3-0.3-0.5-0.4c-0.2-0.1-0.5-0.2-0.8-0.3s-0.6-0.2-0.9-0.3c-0.3-0.1-0.6-0.2-0.9-0.3s-0.5-0.3-0.8-0.5
				c-0.2-0.2-0.4-0.4-0.5-0.7c-0.1-0.3-0.2-0.6-0.2-1c0-0.3,0.1-0.7,0.2-1c0.1-0.3,0.4-0.6,0.6-0.8c0.3-0.2,0.6-0.4,1-0.6
				c0.4-0.1,0.9-0.2,1.4-0.2c0.6,0,1.1,0.1,1.6,0.3c0.5,0.2,0.9,0.4,1.2,0.8L368.6,60.4z"/>
		</g>
		<g>
			<path class="st1" d="M376.1,58.9v5.8c0,0.7,0.2,1.2,0.5,1.6c0.3,0.4,0.8,0.6,1.4,0.6c0.5,0,0.9-0.1,1.3-0.3s0.8-0.5,1.1-0.9v-6.7
				h1.6V68h-1c-0.2,0-0.4-0.1-0.4-0.3l-0.1-1c-0.4,0.4-0.8,0.8-1.3,1.1c-0.5,0.3-1.1,0.4-1.7,0.4c-0.5,0-0.9-0.1-1.3-0.2
				s-0.7-0.4-1-0.7c-0.3-0.3-0.5-0.7-0.6-1.1c-0.1-0.4-0.2-0.9-0.2-1.4v-5.8H376.1z"/>
		</g>
		<g>
			<path class="st1" d="M384.7,71.1V58.9h1c0.2,0,0.4,0.1,0.4,0.3l0.1,1.1c0.4-0.5,0.8-0.9,1.3-1.1c0.5-0.3,1.1-0.4,1.7-0.4
				c0.5,0,1,0.1,1.4,0.3s0.8,0.5,1.1,0.9c0.3,0.4,0.5,0.9,0.7,1.5s0.2,1.3,0.2,2c0,0.7-0.1,1.3-0.3,1.9s-0.4,1.1-0.8,1.5
				s-0.7,0.8-1.2,1s-1,0.4-1.7,0.4c-0.6,0-1-0.1-1.4-0.3c-0.4-0.2-0.8-0.4-1.1-0.8v4H384.7z M388.8,60c-0.5,0-1,0.1-1.4,0.4
				c-0.4,0.2-0.8,0.6-1.1,1v4.4c0.3,0.4,0.6,0.7,1,0.8c0.4,0.2,0.7,0.2,1.2,0.2c0.8,0,1.5-0.3,2-0.9c0.5-0.6,0.7-1.5,0.7-2.6
				c0-0.6-0.1-1.1-0.2-1.5c-0.1-0.4-0.3-0.8-0.5-1c-0.2-0.3-0.4-0.5-0.7-0.6C389.5,60.1,389.1,60,388.8,60z"/>
		</g>
	</g>
	<g class="st0">
		<g>
			<path class="st1" d="M57.1,90.1c-0.7,0-1.3-0.2-1.7-0.6c-0.4-0.4-0.6-1-0.6-1.7v-5.6h-1.1c-0.1,0-0.2,0-0.2-0.1
				c-0.1-0.1-0.1-0.1-0.1-0.3v-0.6l1.5-0.2l0.4-2.8c0-0.1,0.1-0.2,0.1-0.2c0.1-0.1,0.1-0.1,0.3-0.1h0.8v3.1H59v1.2h-2.6v5.5
				c0,0.4,0.1,0.7,0.3,0.9c0.2,0.2,0.4,0.3,0.7,0.3c0.2,0,0.3,0,0.4-0.1s0.2-0.1,0.3-0.1c0.1-0.1,0.2-0.1,0.2-0.1
				c0.1,0,0.1-0.1,0.2-0.1c0.1,0,0.2,0.1,0.2,0.2l0.5,0.8c-0.3,0.3-0.6,0.5-1,0.6C57.9,90.1,57.5,90.1,57.1,90.1z"/>
		</g>
		<g>
			<path class="st1" d="M64.7,80.7c0.7,0,1.3,0.1,1.8,0.3c0.5,0.2,1,0.5,1.4,0.9c0.4,0.4,0.7,0.9,0.9,1.5c0.2,0.6,0.3,1.2,0.3,1.9
				c0,0.7-0.1,1.4-0.3,1.9s-0.5,1.1-0.9,1.5c-0.4,0.4-0.8,0.7-1.4,0.9c-0.5,0.2-1.1,0.3-1.8,0.3s-1.3-0.1-1.8-0.3
				c-0.5-0.2-1-0.5-1.4-0.9c-0.4-0.4-0.7-0.9-0.9-1.5c-0.2-0.6-0.3-1.2-0.3-1.9c0-0.7,0.1-1.4,0.3-1.9c0.2-0.6,0.5-1.1,0.9-1.5
				c0.4-0.4,0.8-0.7,1.4-0.9C63.5,80.8,64.1,80.7,64.7,80.7z M64.7,88.9c0.9,0,1.6-0.3,2-0.9c0.4-0.6,0.7-1.4,0.7-2.5
				c0-1.1-0.2-1.9-0.7-2.5c-0.4-0.6-1.1-0.9-2-0.9c-0.5,0-0.9,0.1-1.2,0.2c-0.3,0.2-0.6,0.4-0.8,0.7s-0.4,0.7-0.5,1.1
				c-0.1,0.4-0.2,0.9-0.2,1.5s0.1,1,0.2,1.4c0.1,0.4,0.3,0.8,0.5,1.1s0.5,0.5,0.8,0.7C63.9,88.8,64.3,88.9,64.7,88.9z"/>
		</g>
		<g>
			<path class="st1" d="M77.2,92.7c-0.1,0.1-0.1,0.2-0.2,0.3c-0.1,0.1-0.2,0.1-0.4,0.1h-1.2l1.7-3.6l-3.8-8.6h1.4
				c0.1,0,0.2,0,0.3,0.1c0.1,0.1,0.1,0.1,0.2,0.2l2.4,5.7c0.1,0.1,0.1,0.3,0.1,0.4c0,0.1,0.1,0.3,0.1,0.4c0-0.1,0.1-0.3,0.1-0.4
				c0-0.1,0.1-0.3,0.1-0.4l2.4-5.7c0-0.1,0.1-0.2,0.2-0.2c0.1-0.1,0.2-0.1,0.3-0.1h1.3L77.2,92.7z"/>
		</g>
		<g>
			<path class="st1" d="M87.2,80.7c0.7,0,1.3,0.1,1.8,0.3c0.5,0.2,1,0.5,1.4,0.9c0.4,0.4,0.7,0.9,0.9,1.5c0.2,0.6,0.3,1.2,0.3,1.9
				c0,0.7-0.1,1.4-0.3,1.9c-0.2,0.6-0.5,1.1-0.9,1.5c-0.4,0.4-0.8,0.7-1.4,0.9c-0.5,0.2-1.1,0.3-1.8,0.3s-1.3-0.1-1.8-0.3
				c-0.5-0.2-1-0.5-1.4-0.9c-0.4-0.4-0.7-0.9-0.9-1.5s-0.3-1.2-0.3-1.9c0-0.7,0.1-1.4,0.3-1.9c0.2-0.6,0.5-1.1,0.9-1.5
				c0.4-0.4,0.8-0.7,1.4-0.9C85.9,80.8,86.5,80.7,87.2,80.7z M87.2,88.9c0.9,0,1.6-0.3,2-0.9c0.4-0.6,0.7-1.4,0.7-2.5
				c0-1.1-0.2-1.9-0.7-2.5c-0.4-0.6-1.1-0.9-2-0.9c-0.5,0-0.9,0.1-1.2,0.2c-0.3,0.2-0.6,0.4-0.8,0.7s-0.4,0.7-0.5,1.1
				c-0.1,0.4-0.2,0.9-0.2,1.5s0.1,1,0.2,1.4c0.1,0.4,0.3,0.8,0.5,1.1s0.5,0.5,0.8,0.7C86.3,88.8,86.7,88.9,87.2,88.9z"/>
		</g>
		<g>
			<path class="st1" d="M94.9,80.9v5.8c0,0.7,0.2,1.2,0.5,1.6c0.3,0.4,0.8,0.6,1.4,0.6c0.5,0,0.9-0.1,1.3-0.3s0.8-0.5,1.1-0.9v-6.7
				h1.6V90h-1c-0.2,0-0.4-0.1-0.4-0.3l-0.1-1c-0.4,0.4-0.8,0.8-1.3,1.1c-0.5,0.3-1.1,0.4-1.7,0.4c-0.5,0-0.9-0.1-1.3-0.2
				s-0.7-0.4-1-0.7c-0.3-0.3-0.5-0.7-0.6-1.1c-0.1-0.4-0.2-0.9-0.2-1.4v-5.8H94.9z"/>
		</g>
		<g>
			<path class="st1" d="M105.8,80.9h1.3c0.1,0,0.2,0,0.3,0.1c0.1,0.1,0.1,0.1,0.2,0.2l1.7,5.9c0,0.2,0.1,0.4,0.1,0.6
				c0,0.2,0.1,0.4,0.1,0.6c0-0.2,0.1-0.4,0.2-0.6c0.1-0.2,0.1-0.4,0.2-0.6l1.9-5.9c0-0.1,0.1-0.2,0.2-0.2c0.1-0.1,0.2-0.1,0.3-0.1
				h0.7c0.1,0,0.2,0,0.3,0.1c0.1,0.1,0.1,0.1,0.2,0.2l1.9,5.9c0.1,0.2,0.1,0.4,0.2,0.6s0.1,0.4,0.1,0.6c0-0.2,0.1-0.4,0.1-0.6
				c0-0.2,0.1-0.4,0.2-0.6l1.8-5.9c0-0.1,0.1-0.2,0.2-0.2c0.1-0.1,0.2-0.1,0.3-0.1h1.2l-3,9.1h-1.3c-0.2,0-0.3-0.1-0.3-0.3l-2-6.2
				c0-0.1-0.1-0.3-0.1-0.4c0-0.1-0.1-0.3-0.1-0.4c0,0.1-0.1,0.3-0.1,0.4c0,0.1-0.1,0.3-0.1,0.4l-2,6.2c-0.1,0.2-0.2,0.3-0.4,0.3
				h-1.2L105.8,80.9z"/>
		</g>
		<g>
			<path class="st1" d="M120.8,90V76.7h1.6v5.4c0.4-0.4,0.8-0.7,1.3-1c0.5-0.2,1-0.4,1.6-0.4c0.5,0,0.9,0.1,1.3,0.2s0.7,0.4,1,0.7
				c0.3,0.3,0.4,0.7,0.6,1.1c0.1,0.4,0.2,0.9,0.2,1.4V90h-1.6v-5.8c0-0.7-0.2-1.2-0.5-1.6s-0.8-0.6-1.4-0.6c-0.5,0-0.9,0.1-1.3,0.3
				c-0.4,0.2-0.8,0.5-1.1,0.9V90H120.8z"/>
		</g>
		<g>
			<path class="st1" d="M137.5,90h-0.7c-0.2,0-0.3,0-0.4-0.1c-0.1,0-0.2-0.1-0.2-0.3l-0.2-0.8c-0.2,0.2-0.5,0.4-0.7,0.6
				s-0.5,0.3-0.7,0.4c-0.3,0.1-0.5,0.2-0.8,0.3c-0.3,0.1-0.6,0.1-1,0.1c-0.4,0-0.7,0-1-0.1c-0.3-0.1-0.6-0.2-0.8-0.4
				c-0.2-0.2-0.4-0.5-0.5-0.8s-0.2-0.7-0.2-1.1c0-0.4,0.1-0.7,0.3-1c0.2-0.3,0.5-0.6,1-0.9s1-0.5,1.7-0.6c0.7-0.2,1.6-0.2,2.6-0.2
				v-0.7c0-0.7-0.2-1.3-0.5-1.6c-0.3-0.4-0.8-0.5-1.3-0.5c-0.4,0-0.7,0-1,0.1c-0.3,0.1-0.5,0.2-0.7,0.3c-0.2,0.1-0.4,0.2-0.5,0.3
				c-0.1,0.1-0.3,0.1-0.4,0.1c-0.1,0-0.2,0-0.3-0.1s-0.1-0.1-0.2-0.2l-0.3-0.5c0.5-0.5,1-0.8,1.6-1.1s1.2-0.4,1.9-0.4
				c0.5,0,1,0.1,1.4,0.3s0.7,0.4,1,0.7s0.5,0.7,0.6,1.1c0.1,0.4,0.2,0.9,0.2,1.4V90z M133.3,89c0.3,0,0.5,0,0.8-0.1
				c0.2-0.1,0.5-0.1,0.7-0.2c0.2-0.1,0.4-0.2,0.6-0.4c0.2-0.1,0.4-0.3,0.6-0.5v-1.9c-0.7,0-1.4,0-1.9,0.1s-0.9,0.2-1.3,0.4
				c-0.3,0.2-0.6,0.3-0.7,0.5s-0.2,0.4-0.2,0.7c0,0.2,0,0.5,0.1,0.6s0.2,0.3,0.3,0.4c0.1,0.1,0.3,0.2,0.5,0.2
				C132.9,89,133.1,89,133.3,89z"/>
		</g>
		<g>
			<path class="st1" d="M142.7,90.1c-0.7,0-1.3-0.2-1.7-0.6s-0.6-1-0.6-1.7v-5.6h-1.1c-0.1,0-0.2,0-0.2-0.1S139,82,139,81.9v-0.6
				l1.5-0.2l0.4-2.8c0-0.1,0.1-0.2,0.1-0.2c0.1-0.1,0.2-0.1,0.3-0.1h0.8v3.1h2.6v1.2H142v5.5c0,0.4,0.1,0.7,0.3,0.9
				c0.2,0.2,0.4,0.3,0.7,0.3c0.2,0,0.3,0,0.4-0.1s0.2-0.1,0.3-0.1c0.1-0.1,0.2-0.1,0.2-0.1s0.1-0.1,0.2-0.1c0.1,0,0.2,0.1,0.2,0.2
				l0.5,0.8c-0.3,0.3-0.6,0.5-1,0.6C143.5,90.1,143.1,90.1,142.7,90.1z"/>
		</g>
		<g>
			<path class="st1" d="M152.8,92.7c-0.1,0.1-0.1,0.2-0.2,0.3c-0.1,0.1-0.2,0.1-0.4,0.1H151l1.7-3.6l-3.8-8.6h1.4
				c0.1,0,0.2,0,0.3,0.1c0.1,0.1,0.1,0.1,0.2,0.2l2.4,5.7c0.1,0.1,0.1,0.3,0.1,0.4c0,0.1,0.1,0.3,0.1,0.4c0-0.1,0.1-0.3,0.1-0.4
				c0-0.1,0.1-0.3,0.1-0.4l2.4-5.7c0-0.1,0.1-0.2,0.2-0.2c0.1-0.1,0.2-0.1,0.3-0.1h1.3L152.8,92.7z"/>
		</g>
		<g>
			<path class="st1" d="M162.8,80.7c0.7,0,1.3,0.1,1.8,0.3c0.5,0.2,1,0.5,1.4,0.9c0.4,0.4,0.7,0.9,0.9,1.5c0.2,0.6,0.3,1.2,0.3,1.9
				c0,0.7-0.1,1.4-0.3,1.9s-0.5,1.1-0.9,1.5c-0.4,0.4-0.8,0.7-1.4,0.9c-0.5,0.2-1.1,0.3-1.8,0.3s-1.3-0.1-1.8-0.3
				c-0.5-0.2-1-0.5-1.4-0.9c-0.4-0.4-0.7-0.9-0.9-1.5c-0.2-0.6-0.3-1.2-0.3-1.9c0-0.7,0.1-1.4,0.3-1.9c0.2-0.6,0.5-1.1,0.9-1.5
				c0.4-0.4,0.8-0.7,1.4-0.9C161.5,80.8,162.1,80.7,162.8,80.7z M162.8,88.9c0.9,0,1.6-0.3,2-0.9c0.4-0.6,0.7-1.4,0.7-2.5
				c0-1.1-0.2-1.9-0.7-2.5c-0.4-0.6-1.1-0.9-2-0.9c-0.5,0-0.9,0.1-1.2,0.2c-0.3,0.2-0.6,0.4-0.8,0.7s-0.4,0.7-0.5,1.1
				c-0.1,0.4-0.2,0.9-0.2,1.5s0.1,1,0.2,1.4c0.1,0.4,0.3,0.8,0.5,1.1s0.5,0.5,0.8,0.7C161.9,88.8,162.3,88.9,162.8,88.9z"/>
		</g>
		<g>
			<path class="st1" d="M170.5,80.9v5.8c0,0.7,0.2,1.2,0.5,1.6c0.3,0.4,0.8,0.6,1.4,0.6c0.5,0,0.9-0.1,1.3-0.3s0.8-0.5,1.1-0.9v-6.7
				h1.6V90h-1c-0.2,0-0.4-0.1-0.4-0.3l-0.1-1c-0.4,0.4-0.8,0.8-1.3,1.1c-0.5,0.3-1.1,0.4-1.7,0.4c-0.5,0-0.9-0.1-1.3-0.2
				s-0.7-0.4-1-0.7s-0.5-0.7-0.6-1.1c-0.1-0.4-0.2-0.9-0.2-1.4v-5.8H170.5z"/>
		</g>
		<g>
			<path class="st1" d="M179.1,90v-9.1h0.9c0.2,0,0.3,0,0.4,0.1c0.1,0.1,0.1,0.2,0.1,0.3l0.1,1.4c0.3-0.6,0.7-1.1,1.2-1.5
				c0.5-0.4,1-0.5,1.6-0.5c0.3,0,0.5,0,0.7,0.1c0.2,0.1,0.4,0.1,0.6,0.2l-0.2,1.2c0,0.1-0.1,0.2-0.3,0.2c-0.1,0-0.2,0-0.4-0.1
				c-0.2-0.1-0.4-0.1-0.7-0.1c-0.6,0-1,0.2-1.4,0.5s-0.7,0.8-0.9,1.4V90H179.1z"/>
		</g>
		<g>
			<path class="st1" d="M188.6,80.9h1.3c0.1,0,0.2,0,0.3,0.1c0.1,0.1,0.1,0.1,0.2,0.2l1.7,5.9c0,0.2,0.1,0.4,0.1,0.6
				c0,0.2,0.1,0.4,0.1,0.6c0-0.2,0.1-0.4,0.2-0.6c0.1-0.2,0.1-0.4,0.2-0.6l1.9-5.9c0-0.1,0.1-0.2,0.2-0.2s0.2-0.1,0.3-0.1h0.7
				c0.1,0,0.2,0,0.3,0.1c0.1,0.1,0.1,0.1,0.2,0.2l1.9,5.9c0.1,0.2,0.1,0.4,0.2,0.6s0.1,0.4,0.1,0.6c0-0.2,0.1-0.4,0.1-0.6
				c0-0.2,0.1-0.4,0.2-0.6l1.8-5.9c0-0.1,0.1-0.2,0.2-0.2c0.1-0.1,0.2-0.1,0.3-0.1h1.2l-3,9.1H198c-0.2,0-0.3-0.1-0.3-0.3l-2-6.2
				c0-0.1-0.1-0.3-0.1-0.4c0-0.1-0.1-0.3-0.1-0.4c0,0.1-0.1,0.3-0.1,0.4c0,0.1-0.1,0.3-0.1,0.4l-2,6.2c-0.1,0.2-0.2,0.3-0.4,0.3
				h-1.2L188.6,80.9z"/>
		</g>
		<g>
			<path class="st1" d="M207.3,80.7c0.7,0,1.3,0.1,1.8,0.3c0.5,0.2,1,0.5,1.4,0.9c0.4,0.4,0.7,0.9,0.9,1.5c0.2,0.6,0.3,1.2,0.3,1.9
				c0,0.7-0.1,1.4-0.3,1.9c-0.2,0.6-0.5,1.1-0.9,1.5c-0.4,0.4-0.8,0.7-1.4,0.9c-0.5,0.2-1.1,0.3-1.8,0.3s-1.3-0.1-1.8-0.3
				c-0.5-0.2-1-0.5-1.4-0.9c-0.4-0.4-0.7-0.9-0.9-1.5c-0.2-0.6-0.3-1.2-0.3-1.9c0-0.7,0.1-1.4,0.3-1.9c0.2-0.6,0.5-1.1,0.9-1.5
				c0.4-0.4,0.8-0.7,1.4-0.9C206,80.8,206.6,80.7,207.3,80.7z M207.3,88.9c0.9,0,1.6-0.3,2-0.9c0.4-0.6,0.7-1.4,0.7-2.5
				c0-1.1-0.2-1.9-0.7-2.5c-0.4-0.6-1.1-0.9-2-0.9c-0.5,0-0.9,0.1-1.2,0.2c-0.3,0.2-0.6,0.4-0.8,0.7c-0.2,0.3-0.4,0.7-0.5,1.1
				c-0.1,0.4-0.2,0.9-0.2,1.5s0.1,1,0.2,1.4c0.1,0.4,0.3,0.8,0.5,1.1c0.2,0.3,0.5,0.5,0.8,0.7C206.4,88.8,206.8,88.9,207.3,88.9z"/>
		</g>
		<g>
			<path class="st1" d="M213.6,90v-9.1h0.9c0.2,0,0.3,0,0.4,0.1c0.1,0.1,0.1,0.2,0.1,0.3l0.1,1.4c0.3-0.6,0.7-1.1,1.2-1.5
				c0.5-0.4,1-0.5,1.6-0.5c0.3,0,0.5,0,0.7,0.1s0.4,0.1,0.6,0.2l-0.2,1.2c0,0.1-0.1,0.2-0.3,0.2c-0.1,0-0.2,0-0.4-0.1
				c-0.2-0.1-0.4-0.1-0.7-0.1c-0.6,0-1,0.2-1.4,0.5s-0.7,0.8-0.9,1.4V90H213.6z"/>
		</g>
		<g>
			<path class="st1" d="M222.7,76.7V90H221V76.7H222.7z"/>
		</g>
		<g>
			<path class="st1" d="M231.9,90c-0.2,0-0.4-0.1-0.4-0.3l-0.1-1.1c-0.4,0.5-0.8,0.9-1.3,1.1c-0.5,0.3-1.1,0.4-1.7,0.4
				c-0.5,0-1-0.1-1.4-0.3c-0.4-0.2-0.8-0.5-1.1-0.9c-0.3-0.4-0.5-0.9-0.7-1.5s-0.2-1.3-0.2-2c0-0.7,0.1-1.3,0.3-1.9
				c0.2-0.6,0.4-1.1,0.8-1.5c0.3-0.4,0.8-0.8,1.2-1c0.5-0.2,1-0.4,1.7-0.4c0.6,0,1,0.1,1.4,0.3c0.4,0.2,0.8,0.5,1.1,0.8v-5.1h1.6V90
				H231.9z M228.8,88.8c0.5,0,1-0.1,1.4-0.4c0.4-0.2,0.8-0.6,1.1-1V83c-0.3-0.4-0.6-0.7-1-0.8c-0.4-0.2-0.7-0.2-1.2-0.2
				c-0.9,0-1.5,0.3-2,0.9c-0.5,0.6-0.7,1.5-0.7,2.6c0,0.6,0.1,1.1,0.2,1.5c0.1,0.4,0.3,0.8,0.5,1c0.2,0.3,0.4,0.5,0.7,0.6
				C228.1,88.8,228.4,88.8,228.8,88.8z"/>
		</g>
		<g>
			<path class="st1" d="M240.8,76.7V90h-1.6V76.7H240.8z"/>
		</g>
		<g>
			<path class="st1" d="M247.3,80.7c0.7,0,1.3,0.1,1.8,0.3c0.5,0.2,1,0.5,1.4,0.9c0.4,0.4,0.7,0.9,0.9,1.5c0.2,0.6,0.3,1.2,0.3,1.9
				c0,0.7-0.1,1.4-0.3,1.9c-0.2,0.6-0.5,1.1-0.9,1.5c-0.4,0.4-0.8,0.7-1.4,0.9c-0.5,0.2-1.1,0.3-1.8,0.3s-1.3-0.1-1.8-0.3
				c-0.5-0.2-1-0.5-1.4-0.9c-0.4-0.4-0.7-0.9-0.9-1.5c-0.2-0.6-0.3-1.2-0.3-1.9c0-0.7,0.1-1.4,0.3-1.9c0.2-0.6,0.5-1.1,0.9-1.5
				c0.4-0.4,0.8-0.7,1.4-0.9C246,80.8,246.6,80.7,247.3,80.7z M247.3,88.9c0.9,0,1.6-0.3,2-0.9c0.4-0.6,0.7-1.4,0.7-2.5
				c0-1.1-0.2-1.9-0.7-2.5c-0.4-0.6-1.1-0.9-2-0.9c-0.5,0-0.9,0.1-1.2,0.2c-0.3,0.2-0.6,0.4-0.8,0.7c-0.2,0.3-0.4,0.7-0.5,1.1
				c-0.1,0.4-0.2,0.9-0.2,1.5s0.1,1,0.2,1.4c0.1,0.4,0.3,0.8,0.5,1.1c0.2,0.3,0.5,0.5,0.8,0.7C246.5,88.8,246.9,88.9,247.3,88.9z"/>
		</g>
		<g>
			<path class="st1" d="M257.3,80.7c0.7,0,1.3,0.1,1.8,0.3c0.5,0.2,1,0.5,1.4,0.9c0.4,0.4,0.7,0.9,0.9,1.5c0.2,0.6,0.3,1.2,0.3,1.9
				c0,0.7-0.1,1.4-0.3,1.9c-0.2,0.6-0.5,1.1-0.9,1.5c-0.4,0.4-0.8,0.7-1.4,0.9c-0.5,0.2-1.1,0.3-1.8,0.3s-1.3-0.1-1.8-0.3
				c-0.5-0.2-1-0.5-1.4-0.9c-0.4-0.4-0.7-0.9-0.9-1.5s-0.3-1.2-0.3-1.9c0-0.7,0.1-1.4,0.3-1.9c0.2-0.6,0.5-1.1,0.9-1.5
				c0.4-0.4,0.8-0.7,1.4-0.9C256.1,80.8,256.7,80.7,257.3,80.7z M257.3,88.9c0.9,0,1.6-0.3,2-0.9c0.4-0.6,0.7-1.4,0.7-2.5
				c0-1.1-0.2-1.9-0.7-2.5c-0.4-0.6-1.1-0.9-2-0.9c-0.5,0-0.9,0.1-1.2,0.2c-0.3,0.2-0.6,0.4-0.8,0.7s-0.4,0.7-0.5,1.1
				c-0.1,0.4-0.2,0.9-0.2,1.5s0.1,1,0.2,1.4c0.1,0.4,0.3,0.8,0.5,1.1s0.5,0.5,0.8,0.7C256.5,88.8,256.9,88.9,257.3,88.9z"/>
		</g>
		<g>
			<path class="st1" d="M265.3,76.7v7.8h0.4c0.1,0,0.2,0,0.3,0c0.1,0,0.2-0.1,0.3-0.2l2.9-3.1c0.1-0.1,0.2-0.2,0.3-0.2
				c0.1-0.1,0.2-0.1,0.4-0.1h1.5l-3.4,3.6c-0.1,0.1-0.2,0.2-0.2,0.3c-0.1,0.1-0.2,0.1-0.3,0.2c0.1,0.1,0.2,0.2,0.3,0.2
				c0.1,0.1,0.2,0.2,0.2,0.3l3.6,4.5H270c-0.1,0-0.2,0-0.3-0.1c-0.1-0.1-0.2-0.1-0.3-0.2l-3-3.7c-0.1-0.1-0.2-0.2-0.3-0.2
				s-0.2-0.1-0.4-0.1h-0.5V90h-1.6V76.7H265.3z"/>
		</g>
		<g>
			<path class="st1" d="M278.3,82.4c-0.1,0.1-0.2,0.2-0.3,0.2c-0.1,0-0.2,0-0.3-0.1c-0.1-0.1-0.3-0.1-0.4-0.2s-0.4-0.2-0.6-0.2
				c-0.2-0.1-0.5-0.1-0.8-0.1c-0.3,0-0.5,0-0.7,0.1c-0.2,0.1-0.4,0.2-0.6,0.3c-0.2,0.1-0.3,0.3-0.4,0.4c-0.1,0.2-0.1,0.3-0.1,0.5
				c0,0.2,0.1,0.4,0.2,0.6c0.1,0.2,0.3,0.3,0.5,0.4c0.2,0.1,0.5,0.2,0.8,0.3c0.3,0.1,0.6,0.2,0.9,0.3c0.3,0.1,0.6,0.2,0.9,0.3
				c0.3,0.1,0.5,0.3,0.8,0.5c0.2,0.2,0.4,0.4,0.5,0.7c0.1,0.3,0.2,0.6,0.2,0.9c0,0.4-0.1,0.8-0.2,1.2c-0.2,0.4-0.4,0.7-0.7,0.9
				c-0.3,0.3-0.7,0.5-1.1,0.6c-0.4,0.2-0.9,0.2-1.5,0.2c-0.6,0-1.2-0.1-1.7-0.3c-0.5-0.2-1-0.5-1.3-0.8l0.4-0.6
				c0-0.1,0.1-0.1,0.2-0.2c0.1,0,0.2-0.1,0.3-0.1s0.2,0,0.3,0.1c0.1,0.1,0.3,0.2,0.4,0.3c0.2,0.1,0.4,0.2,0.6,0.3s0.5,0.1,0.9,0.1
				c0.3,0,0.6,0,0.8-0.1s0.4-0.2,0.6-0.3c0.2-0.1,0.3-0.3,0.3-0.5c0.1-0.2,0.1-0.4,0.1-0.6c0-0.3-0.1-0.5-0.2-0.6s-0.3-0.3-0.5-0.4
				c-0.2-0.1-0.5-0.2-0.8-0.3s-0.6-0.2-0.9-0.3c-0.3-0.1-0.6-0.2-0.9-0.3c-0.3-0.1-0.5-0.3-0.8-0.5c-0.2-0.2-0.4-0.4-0.5-0.7
				c-0.1-0.3-0.2-0.6-0.2-1c0-0.3,0.1-0.7,0.2-1c0.1-0.3,0.4-0.6,0.6-0.8c0.3-0.2,0.6-0.4,1-0.6c0.4-0.1,0.9-0.2,1.4-0.2
				c0.6,0,1.1,0.1,1.6,0.3c0.5,0.2,0.9,0.4,1.2,0.8L278.3,82.4z"/>
		</g>
		<g>
			<path class="st1" d="M286.1,76.7V90h-1.6V76.7H286.1z"/>
		</g>
		<g>
			<path class="st1" d="M291.1,78c0,0.2,0,0.3-0.1,0.4c-0.1,0.1-0.1,0.3-0.3,0.4c-0.1,0.1-0.2,0.2-0.4,0.2c-0.1,0.1-0.3,0.1-0.4,0.1
				s-0.3,0-0.4-0.1c-0.1-0.1-0.3-0.1-0.4-0.2c-0.1-0.1-0.2-0.2-0.2-0.4c-0.1-0.1-0.1-0.3-0.1-0.4c0-0.2,0-0.3,0.1-0.4
				c0.1-0.1,0.1-0.3,0.2-0.4c0.1-0.1,0.2-0.2,0.4-0.2c0.1-0.1,0.3-0.1,0.4-0.1s0.3,0,0.4,0.1c0.1,0.1,0.3,0.1,0.4,0.2
				c0.1,0.1,0.2,0.2,0.3,0.4C291.1,77.7,291.1,77.9,291.1,78z M290.7,80.9V90h-1.6v-9.1H290.7z"/>
		</g>
		<g>
			<path class="st1" d="M295.2,76.7v7.8h0.4c0.1,0,0.2,0,0.3,0c0.1,0,0.2-0.1,0.3-0.2l2.9-3.1c0.1-0.1,0.2-0.2,0.3-0.2
				c0.1-0.1,0.2-0.1,0.4-0.1h1.5l-3.4,3.6c-0.1,0.1-0.2,0.2-0.2,0.3c-0.1,0.1-0.2,0.1-0.3,0.2c0.1,0.1,0.2,0.2,0.3,0.2
				c0.1,0.1,0.2,0.2,0.2,0.3l3.6,4.5H300c-0.1,0-0.2,0-0.3-0.1c-0.1-0.1-0.2-0.1-0.3-0.2l-3-3.7c-0.1-0.1-0.2-0.2-0.3-0.2
				s-0.2-0.1-0.4-0.1h-0.5V90h-1.6V76.7H295.2z"/>
		</g>
		<g>
			<path class="st1" d="M306.1,80.7c0.5,0,1.1,0.1,1.5,0.3c0.5,0.2,0.9,0.4,1.2,0.8s0.6,0.8,0.8,1.3c0.2,0.5,0.3,1.1,0.3,1.7
				c0,0.3,0,0.4-0.1,0.5c-0.1,0.1-0.2,0.1-0.3,0.1h-6.1c0,0.6,0.1,1.1,0.2,1.5c0.1,0.4,0.3,0.8,0.6,1.1s0.6,0.5,0.9,0.6
				c0.3,0.1,0.7,0.2,1.2,0.2c0.4,0,0.7,0,1-0.1s0.5-0.2,0.8-0.3c0.2-0.1,0.4-0.2,0.5-0.3c0.1-0.1,0.3-0.1,0.4-0.1
				c0.1,0,0.2,0.1,0.3,0.2l0.5,0.6c-0.2,0.2-0.4,0.4-0.7,0.6s-0.6,0.3-0.9,0.4s-0.6,0.2-1,0.3c-0.3,0.1-0.7,0.1-1,0.1
				c-0.6,0-1.2-0.1-1.7-0.3c-0.5-0.2-1-0.5-1.4-0.9c-0.4-0.4-0.7-0.9-0.9-1.5c-0.2-0.6-0.3-1.3-0.3-2.1c0-0.6,0.1-1.2,0.3-1.8
				c0.2-0.6,0.5-1,0.8-1.4c0.4-0.4,0.8-0.7,1.3-1C304.8,80.9,305.4,80.7,306.1,80.7z M306.1,81.9c-0.8,0-1.4,0.2-1.8,0.7
				c-0.4,0.4-0.7,1.1-0.8,1.9h5c0-0.4-0.1-0.7-0.2-1c-0.1-0.3-0.3-0.6-0.5-0.8c-0.2-0.2-0.4-0.4-0.7-0.5
				C306.8,82,306.5,81.9,306.1,81.9z"/>
		</g>
		<g>
			<path class="st1" d="M311.4,89c0-0.2,0-0.3,0.1-0.4c0.1-0.1,0.1-0.3,0.2-0.4c0.1-0.1,0.2-0.2,0.4-0.2c0.1-0.1,0.3-0.1,0.4-0.1
				c0.2,0,0.3,0,0.4,0.1c0.1,0.1,0.3,0.1,0.4,0.2c0.1,0.1,0.2,0.2,0.2,0.4c0.1,0.1,0.1,0.3,0.1,0.4c0,0.2,0,0.3-0.1,0.4
				c-0.1,0.1-0.1,0.3-0.2,0.4c-0.1,0.1-0.2,0.2-0.4,0.2c-0.1,0.1-0.3,0.1-0.4,0.1c-0.2,0-0.3,0-0.4-0.1c-0.1-0.1-0.3-0.1-0.4-0.2
				c-0.1-0.1-0.2-0.2-0.2-0.4C311.4,89.3,311.4,89.2,311.4,89z"/>
		</g>
	</g>
	<g class="st0">
		<g>
			<path class="st8" d="M63,121h-1.5v-4.9h-5.8v4.9h-1.5v-10.7h1.5v4.8h5.8v-4.8H63V121z"/>
		</g>
		<g>
			<path class="st8" d="M68.4,113.3c0.5,0,0.9,0.1,1.3,0.2c0.4,0.2,0.7,0.4,1,0.7c0.3,0.3,0.5,0.6,0.7,1.1c0.2,0.4,0.2,0.9,0.2,1.4
				c0,0.2,0,0.4-0.1,0.4c0,0.1-0.1,0.1-0.3,0.1h-5.1c0,0.5,0.1,0.9,0.2,1.3c0.1,0.4,0.3,0.7,0.5,0.9c0.2,0.2,0.5,0.4,0.8,0.5
				c0.3,0.1,0.6,0.2,1,0.2c0.3,0,0.6,0,0.9-0.1c0.2-0.1,0.5-0.2,0.6-0.3c0.2-0.1,0.3-0.2,0.4-0.3c0.1-0.1,0.2-0.1,0.3-0.1
				c0.1,0,0.2,0,0.3,0.1l0.4,0.5c-0.2,0.2-0.4,0.4-0.6,0.5s-0.5,0.3-0.7,0.4c-0.3,0.1-0.5,0.2-0.8,0.2c-0.3,0-0.6,0.1-0.8,0.1
				c-0.5,0-1-0.1-1.5-0.3c-0.4-0.2-0.8-0.4-1.1-0.8c-0.3-0.3-0.6-0.8-0.8-1.3c-0.2-0.5-0.3-1.1-0.3-1.7c0-0.5,0.1-1,0.2-1.5
				s0.4-0.9,0.7-1.2s0.7-0.6,1.1-0.8C67.4,113.4,67.9,113.3,68.4,113.3z M68.5,114.3c-0.6,0-1.2,0.2-1.5,0.6
				c-0.4,0.4-0.6,0.9-0.7,1.5h4.1c0-0.3,0-0.6-0.1-0.9s-0.2-0.5-0.4-0.7s-0.4-0.3-0.6-0.4S68.8,114.3,68.5,114.3z"/>
		</g>
		<g>
			<path class="st8" d="M74.8,110v11h-1.3v-11H74.8z"/>
		</g>
		<g>
			<path class="st8" d="M77.1,123.6v-10.2h0.8c0.2,0,0.3,0.1,0.4,0.3l0.1,0.9c0.3-0.4,0.7-0.7,1.1-1c0.4-0.2,0.9-0.4,1.4-0.4
				c0.4,0,0.8,0.1,1.2,0.3c0.4,0.2,0.7,0.4,0.9,0.7c0.2,0.3,0.4,0.7,0.6,1.2c0.1,0.5,0.2,1,0.2,1.7c0,0.6-0.1,1.1-0.2,1.6
				c-0.2,0.5-0.4,0.9-0.6,1.3s-0.6,0.6-1,0.8c-0.4,0.2-0.9,0.3-1.4,0.3c-0.5,0-0.9-0.1-1.2-0.2c-0.3-0.2-0.6-0.4-0.9-0.7v3.4H77.1z
				 M80.5,114.3c-0.4,0-0.8,0.1-1.1,0.3c-0.3,0.2-0.6,0.5-0.9,0.8v3.7c0.2,0.3,0.5,0.6,0.8,0.7c0.3,0.1,0.6,0.2,1,0.2
				c0.7,0,1.2-0.3,1.6-0.8s0.6-1.2,0.6-2.2c0-0.5,0-0.9-0.1-1.3c-0.1-0.4-0.2-0.6-0.4-0.9c-0.2-0.2-0.4-0.4-0.6-0.5
				C81.1,114.4,80.8,114.3,80.5,114.3z"/>
		</g>
		<g>
			<path class="st8" d="M88.4,113.3c0.5,0,0.9,0.1,1.3,0.2c0.4,0.2,0.7,0.4,1,0.7c0.3,0.3,0.5,0.6,0.7,1.1c0.2,0.4,0.2,0.9,0.2,1.4
				c0,0.2,0,0.4-0.1,0.4c0,0.1-0.1,0.1-0.3,0.1h-5.1c0,0.5,0.1,0.9,0.2,1.3c0.1,0.4,0.3,0.7,0.5,0.9c0.2,0.2,0.5,0.4,0.8,0.5
				c0.3,0.1,0.6,0.2,1,0.2c0.3,0,0.6,0,0.9-0.1c0.2-0.1,0.5-0.2,0.6-0.3c0.2-0.1,0.3-0.2,0.4-0.3c0.1-0.1,0.2-0.1,0.3-0.1
				c0.1,0,0.2,0,0.3,0.1l0.4,0.5c-0.2,0.2-0.4,0.4-0.6,0.5s-0.5,0.3-0.7,0.4c-0.3,0.1-0.5,0.2-0.8,0.2c-0.3,0-0.6,0.1-0.8,0.1
				c-0.5,0-1-0.1-1.5-0.3c-0.4-0.2-0.8-0.4-1.1-0.8c-0.3-0.3-0.6-0.8-0.8-1.3c-0.2-0.5-0.3-1.1-0.3-1.7c0-0.5,0.1-1,0.2-1.5
				c0.2-0.5,0.4-0.9,0.7-1.2c0.3-0.3,0.7-0.6,1.1-0.8C87.4,113.4,87.9,113.3,88.4,113.3z M88.5,114.3c-0.6,0-1.2,0.2-1.5,0.6
				c-0.4,0.4-0.6,0.9-0.7,1.5h4.1c0-0.3,0-0.6-0.1-0.9s-0.2-0.5-0.4-0.7s-0.4-0.3-0.6-0.4C89,114.3,88.8,114.3,88.5,114.3z"/>
		</g>
		<g>
			<path class="st8" d="M93.3,121v-7.6H94c0.1,0,0.2,0,0.3,0.1c0.1,0.1,0.1,0.1,0.1,0.3l0.1,1.2c0.3-0.5,0.6-0.9,1-1.2
				s0.8-0.4,1.3-0.4c0.2,0,0.4,0,0.6,0.1s0.3,0.1,0.5,0.2l-0.2,1c0,0.1-0.1,0.2-0.2,0.2c-0.1,0-0.2,0-0.3-0.1
				c-0.1,0-0.3-0.1-0.6-0.1c-0.5,0-0.9,0.1-1.2,0.4c-0.3,0.3-0.6,0.7-0.8,1.2v4.8H93.3z"/>
		</g>
		<g>
			<path class="st8" d="M104.5,121.1c-0.6,0-1.1-0.2-1.4-0.5s-0.5-0.8-0.5-1.4v-4.7h-0.9c-0.1,0-0.1,0-0.2-0.1
				c-0.1,0-0.1-0.1-0.1-0.2v-0.5l1.2-0.2l0.3-2.3c0-0.1,0-0.1,0.1-0.2c0.1,0,0.1-0.1,0.2-0.1h0.7v2.6h2.2v1H104v4.6
				c0,0.3,0.1,0.6,0.2,0.7c0.2,0.2,0.4,0.2,0.6,0.2c0.1,0,0.3,0,0.4-0.1c0.1,0,0.2-0.1,0.3-0.1c0.1,0,0.1-0.1,0.2-0.1
				c0.1,0,0.1-0.1,0.1-0.1c0.1,0,0.1,0,0.2,0.1l0.4,0.6c-0.2,0.2-0.5,0.4-0.8,0.5C105.2,121.1,104.9,121.1,104.5,121.1z"/>
		</g>
		<g>
			<path class="st8" d="M110.8,113.3c0.5,0,0.9,0.1,1.3,0.2c0.4,0.2,0.7,0.4,1,0.7c0.3,0.3,0.5,0.6,0.7,1.1c0.2,0.4,0.2,0.9,0.2,1.4
				c0,0.2,0,0.4-0.1,0.4c0,0.1-0.1,0.1-0.3,0.1h-5.1c0,0.5,0.1,0.9,0.2,1.3c0.1,0.4,0.3,0.7,0.5,0.9c0.2,0.2,0.5,0.4,0.8,0.5
				c0.3,0.1,0.6,0.2,1,0.2c0.3,0,0.6,0,0.9-0.1c0.2-0.1,0.5-0.2,0.6-0.3c0.2-0.1,0.3-0.2,0.4-0.3c0.1-0.1,0.2-0.1,0.3-0.1
				c0.1,0,0.2,0,0.3,0.1l0.4,0.5c-0.2,0.2-0.4,0.4-0.6,0.5s-0.5,0.3-0.7,0.4c-0.3,0.1-0.5,0.2-0.8,0.2c-0.3,0-0.6,0.1-0.8,0.1
				c-0.5,0-1-0.1-1.5-0.3c-0.4-0.2-0.8-0.4-1.1-0.8c-0.3-0.3-0.6-0.8-0.8-1.3c-0.2-0.5-0.3-1.1-0.3-1.7c0-0.5,0.1-1,0.2-1.5
				c0.2-0.5,0.4-0.9,0.7-1.2c0.3-0.3,0.7-0.6,1.1-0.8C109.8,113.4,110.3,113.3,110.8,113.3z M110.8,114.3c-0.6,0-1.2,0.2-1.5,0.6
				c-0.4,0.4-0.6,0.9-0.7,1.5h4.1c0-0.3,0-0.6-0.1-0.9s-0.2-0.5-0.4-0.7s-0.4-0.3-0.6-0.4C111.4,114.3,111.2,114.3,110.8,114.3z"/>
		</g>
		<g>
			<path class="st8" d="M117,117.1l-2.6-3.7h1.3c0.1,0,0.2,0,0.2,0.1c0.1,0,0.1,0.1,0.1,0.2l1.9,2.8c0-0.1,0.1-0.3,0.2-0.4l1.6-2.4
				c0-0.1,0.1-0.1,0.1-0.2c0,0,0.1-0.1,0.2-0.1h1.2l-2.6,3.6l2.7,4h-1.3c-0.1,0-0.2,0-0.3-0.1s-0.1-0.1-0.2-0.2l-1.9-3
				c0,0.1-0.1,0.3-0.2,0.4l-1.8,2.6c0,0.1-0.1,0.1-0.2,0.2s-0.1,0.1-0.2,0.1h-1.2L117,117.1z"/>
		</g>
		<g>
			<path class="st8" d="M125.1,121.1c-0.6,0-1.1-0.2-1.4-0.5s-0.5-0.8-0.5-1.4v-4.7h-0.9c-0.1,0-0.1,0-0.2-0.1
				c-0.1,0-0.1-0.1-0.1-0.2v-0.5l1.2-0.2l0.3-2.3c0-0.1,0-0.1,0.1-0.2c0.1,0,0.1-0.1,0.2-0.1h0.7v2.6h2.2v1h-2.2v4.6
				c0,0.3,0.1,0.6,0.2,0.7c0.2,0.2,0.4,0.2,0.6,0.2c0.1,0,0.3,0,0.4-0.1c0.1,0,0.2-0.1,0.3-0.1c0.1,0,0.1-0.1,0.2-0.1
				c0.1,0,0.1-0.1,0.1-0.1c0.1,0,0.1,0,0.2,0.1l0.4,0.6c-0.2,0.2-0.5,0.4-0.8,0.5C125.8,121.1,125.4,121.1,125.1,121.1z"/>
		</g>
	</g>
	<g id="Rectangle-33_7_">
		<g>
			<rect x="51" y="24" class="st7" width="16" height="4"/>
		</g>
	</g>
	<g id="Rectangle-33_6_">
		<g>
			<rect x="51" y="94" class="st7" width="16" height="12"/>
		</g>
	</g>
	
		<g id="VERTICAL_x23_B63D4B51-3854-4FC9-BF30-1AFEFCB49843_x23_05179437-3AC5-407C-B24E-74F4E8C48B2D_7_" transform="translate(542.000000, 12.000000)">
		<g id="gap_9_">
			<g>
				<polygon class="st7" points="-502,14 -498,10 -494,14 -498,18 				"/>
			</g>
		</g>
		<g id="_x34__7_">
			<g>
				<polygon class="st7" points="-514.7,8 -497.3,8 -497.3,21 -514.7,21 				"/>
			</g>
		</g>
		<g>
			<path class="st1" d="M-503.3,10.9c0,0.2,0,0.3-0.1,0.4c-0.1,0.1-0.3,0.1-0.5,0.1h-2.7l-0.4,2.3c0.4-0.1,0.9-0.1,1.2-0.1
				c0.4,0,0.8,0.1,1.2,0.2c0.3,0.1,0.6,0.3,0.9,0.5c0.2,0.2,0.4,0.5,0.5,0.8s0.2,0.7,0.2,1c0,0.5-0.1,0.9-0.2,1.2
				c-0.2,0.4-0.4,0.7-0.7,0.9c-0.3,0.3-0.6,0.5-1,0.6c-0.4,0.1-0.8,0.2-1.2,0.2c-0.3,0-0.5,0-0.7-0.1c-0.2,0-0.4-0.1-0.6-0.2
				s-0.4-0.2-0.6-0.3c-0.2-0.1-0.3-0.2-0.5-0.3l0.3-0.5c0.1-0.1,0.2-0.2,0.3-0.2c0.1,0,0.2,0,0.3,0.1c0.1,0.1,0.2,0.1,0.4,0.2
				c0.1,0.1,0.3,0.1,0.5,0.2c0.2,0.1,0.4,0.1,0.7,0.1c0.3,0,0.6,0,0.8-0.1s0.4-0.2,0.6-0.4c0.2-0.2,0.3-0.4,0.4-0.6s0.1-0.5,0.1-0.8
				c0-0.3,0-0.5-0.1-0.7c-0.1-0.2-0.2-0.4-0.4-0.6c-0.2-0.2-0.4-0.3-0.6-0.4c-0.2-0.1-0.5-0.1-0.8-0.1c-0.2,0-0.4,0-0.7,0.1
				c-0.2,0-0.5,0.1-0.7,0.2l-0.7-0.2l0.7-4h4.1V10.9z"/>
		</g>
	</g>
	
		<g id="VERTICAL_x23_B63D4B51-3854-4FC9-BF30-1AFEFCB49843_x23_05179437-3AC5-407C-B24E-74F4E8C48B2D_6_" transform="translate(542.000000, 86.000000)">
		<g id="gap_8_">
			<g>
				<polygon class="st7" points="-501,15 -497,11 -493,15 -497,19 				"/>
			</g>
		</g>
		<g id="_x34__6_">
			<g>
				<polygon class="st7" points="-515,8 -496,8 -496,22 -515,22 				"/>
			</g>
		</g>
		<g>
			<path class="st1" d="M-510.6,18.9h1.8V13c0-0.2,0-0.4,0-0.5l-1.5,1.3c0,0-0.1,0.1-0.1,0.1c0,0-0.1,0-0.1,0c-0.1,0-0.1,0-0.2,0
				c0,0-0.1-0.1-0.1-0.1l-0.3-0.5l2.6-2.2h0.9v7.8h1.7v0.8h-4.6V18.9z"/>
			<path class="st1" d="M-498.8,15.4c0,0.8-0.1,1.4-0.2,2c-0.2,0.5-0.4,1-0.7,1.4c-0.3,0.4-0.6,0.6-1,0.8s-0.8,0.3-1.2,0.3
				c-0.4,0-0.8-0.1-1.2-0.3s-0.7-0.4-1-0.8c-0.3-0.4-0.5-0.8-0.7-1.4c-0.2-0.5-0.2-1.2-0.2-2c0-0.8,0.1-1.4,0.2-2
				c0.2-0.6,0.4-1,0.7-1.4s0.6-0.6,1-0.8c0.4-0.2,0.8-0.3,1.2-0.3c0.4,0,0.8,0.1,1.2,0.3c0.4,0.2,0.7,0.4,1,0.8
				c0.3,0.4,0.5,0.8,0.7,1.4C-498.9,14-498.8,14.6-498.8,15.4z M-499.9,15.4c0-0.7-0.1-1.2-0.2-1.7c-0.1-0.4-0.3-0.8-0.4-1.1
				c-0.2-0.3-0.4-0.5-0.6-0.6c-0.2-0.1-0.5-0.2-0.8-0.2c-0.3,0-0.5,0.1-0.8,0.2c-0.2,0.1-0.5,0.3-0.6,0.6c-0.2,0.3-0.3,0.6-0.4,1.1
				c-0.1,0.4-0.2,1-0.2,1.7c0,0.7,0.1,1.2,0.2,1.6c0.1,0.4,0.3,0.8,0.4,1.1c0.2,0.3,0.4,0.5,0.6,0.6c0.2,0.1,0.5,0.2,0.8,0.2
				c0.3,0,0.5-0.1,0.8-0.2c0.2-0.1,0.5-0.3,0.6-0.6c0.2-0.3,0.3-0.6,0.4-1.1C-500,16.6-499.9,16-499.9,15.4z"/>
		</g>
	</g>
</g>
</svg>
