<?xml version="1.0" encoding="utf-8"?>
<!-- Generator: Adobe Illustrator 19.2.1, SVG Export Plug-In . SVG Version: 6.00 Build 0)  -->
<svg version="1.1" id="Layer_1" xmlns="http://www.w3.org/2000/svg" xmlns:xlink="http://www.w3.org/1999/xlink" x="0px" y="0px"
	 viewBox="0 0 430 200" style="enable-background:new 0 0 430 200;" xml:space="preserve">
<style type="text/css">
	.st0{enable-background:new    ;}
	.st1{fill:#FFFFFF;}
	.st2{fill:#48525B;}
	.st3{fill:#FF6E6E;}
	.st4{opacity:0.248;}
	.st5{fill:#FA6400;}
	.st6{fill:#FF5500;}
	.st7{fill:#FF0050;}
	.st8{fill:#9B9B9B;}
</style>
<g>
	<g>
		<g class="st0">
			<g>
				<path class="st1" d="M147.5,173.9c0.7,0.6,1.1,1.4,1.2,2.5h-1.2c-0.1-0.8-0.4-1.3-0.9-1.7c-0.5-0.4-1.2-0.6-2-0.6
					c-0.8,0-1.4,0.1-1.9,0.4c-0.5,0.3-0.8,0.8-0.8,1.4c0,0.5,0.3,1,0.9,1.3c0.3,0.1,0.9,0.4,2,0.7c1.4,0.4,2.3,0.8,2.8,1
					c0.9,0.5,1.3,1.3,1.3,2.3c0,0.9-0.4,1.7-1.1,2.2c-0.8,0.5-1.8,0.8-3,0.8c-1.3,0-2.2-0.3-3-0.8c-0.8-0.6-1.3-1.6-1.4-2.9h1.2
					c0.1,0.9,0.4,1.6,1,2.1c0.5,0.4,1.2,0.6,2.2,0.6c0.9,0,1.6-0.2,2.1-0.5s0.8-0.8,0.8-1.3c0-0.7-0.4-1.2-1.1-1.6
					c-0.3-0.2-1.1-0.4-2.3-0.8c-1.3-0.4-2.1-0.7-2.5-0.9c-0.8-0.5-1.2-1.2-1.2-2.1c0-0.9,0.4-1.7,1.2-2.2c0.7-0.5,1.6-0.7,2.7-0.7
					C145.9,173.1,146.8,173.4,147.5,173.9z"/>
			</g>
			<g>
				<path class="st1" d="M152,173.6c0.2,0.2,0.3,0.4,0.3,0.6c0,0.3-0.1,0.5-0.3,0.6c-0.2,0.2-0.4,0.3-0.6,0.3s-0.5-0.1-0.6-0.3
					c-0.2-0.2-0.3-0.4-0.3-0.6c0-0.3,0.1-0.5,0.3-0.6c0.2-0.2,0.4-0.3,0.6-0.3S151.9,173.4,152,173.6z M152,176.2v7.8h-1.2v-7.8H152
					z"/>
			</g>
			<g>
				<path class="st1" d="M160.8,179.2v4.8h-1.2v-4.7c0-1.5-0.7-2.3-2-2.3c-0.5,0-1,0.2-1.4,0.6c-0.4,0.4-0.6,1-0.7,1.7v4.7h-1.2
					v-7.8h1.2v1.1c0.3-0.4,0.6-0.8,1-1c0.4-0.2,0.9-0.4,1.4-0.4C159.8,176,160.8,177.1,160.8,179.2z"/>
			</g>
			<g>
				<path class="st1" d="M168.4,177.6v-1.3h1.2v7.2c0,2.5-1.2,3.7-3.5,3.7c-1.1,0-1.9-0.2-2.4-0.6c-0.6-0.4-0.9-1-1-1.9h1.2
					c0.1,0.5,0.3,0.9,0.7,1.2c0.3,0.3,0.9,0.4,1.6,0.4c1.6,0,2.3-0.9,2.3-2.6v-1.4c-0.6,1-1.4,1.6-2.6,1.6c-1.1,0-1.9-0.4-2.6-1.1
					c-0.6-0.7-0.9-1.6-0.9-2.8c0-1.1,0.3-2.1,0.9-2.8c0.6-0.8,1.5-1.1,2.6-1.1C167,176,167.9,176.5,168.4,177.6z M164.2,177.9
					c-0.4,0.5-0.6,1.2-0.6,2.1c0,0.8,0.2,1.5,0.6,2c0.4,0.6,1,0.9,1.9,0.9c0.8,0,1.4-0.3,1.8-0.8c0.4-0.5,0.6-1.2,0.6-2.1
					c0-0.9-0.2-1.6-0.6-2.1c-0.4-0.6-1-0.8-1.8-0.8C165.2,177,164.6,177.3,164.2,177.9z"/>
			</g>
			<g>
				<path class="st1" d="M172.9,173.1V184h-1.2v-10.9H172.9z"/>
			</g>
			<g>
				<path class="st1" d="M181,177.3c0.6,0.8,0.9,1.8,0.9,3.2h-6.1c0.1,0.9,0.3,1.5,0.7,2c0.4,0.5,1,0.7,1.7,0.7
					c0.6,0,1.2-0.2,1.5-0.5c0.3-0.3,0.6-0.7,0.8-1.2h1.2c-0.2,0.8-0.5,1.4-1.1,1.8c-0.6,0.6-1.5,0.9-2.5,0.9c-1.1,0-2-0.4-2.7-1.1
					c-0.7-0.8-1-1.7-1-3c0-1.1,0.3-2.1,1-2.9c0.7-0.8,1.5-1.2,2.7-1.2C179.5,176,180.4,176.5,181,177.3z M176.6,177.7
					c-0.4,0.5-0.7,1.1-0.7,1.8h4.8c-0.1-1.7-1-2.5-2.4-2.5C177.6,177,177,177.3,176.6,177.7z"/>
			</g>
			<g>
				<path class="st1" d="M190.7,179.6v1h-7.6v-1H190.7z"/>
			</g>
			<g>
				<path class="st1" d="M193.8,173.1V184h-1.2v-10.9H193.8z"/>
			</g>
			<g>
				<path class="st1" d="M197.6,173.6c0.2,0.2,0.3,0.4,0.3,0.6c0,0.3-0.1,0.5-0.3,0.6c-0.2,0.2-0.4,0.3-0.6,0.3s-0.5-0.1-0.6-0.3
					c-0.2-0.2-0.3-0.4-0.3-0.6c0-0.3,0.1-0.5,0.3-0.6c0.2-0.2,0.4-0.3,0.6-0.3S197.4,173.4,197.6,173.6z M197.5,176.2v7.8h-1.2v-7.8
					H197.5z"/>
			</g>
			<g>
				<path class="st1" d="M206.3,179.2v4.8h-1.2v-4.7c0-1.5-0.7-2.3-2-2.3c-0.5,0-1,0.2-1.4,0.6c-0.4,0.4-0.6,1-0.7,1.7v4.7h-1.2
					v-7.8h1.2v1.1c0.3-0.4,0.6-0.8,1-1c0.4-0.2,0.9-0.4,1.4-0.4C205.3,176,206.3,177.1,206.3,179.2z"/>
			</g>
			<g>
				<path class="st1" d="M214.2,177.3c0.6,0.8,0.9,1.8,0.9,3.2H209c0.1,0.9,0.3,1.5,0.7,2c0.4,0.5,1,0.7,1.7,0.7
					c0.6,0,1.2-0.2,1.5-0.5c0.3-0.3,0.6-0.7,0.8-1.2h1.2c-0.2,0.8-0.5,1.4-1.1,1.8c-0.6,0.6-1.5,0.9-2.5,0.9c-1.1,0-2-0.4-2.7-1.1
					c-0.7-0.8-1-1.7-1-3c0-1.1,0.3-2.1,1-2.9c0.7-0.8,1.5-1.2,2.7-1.2C212.6,176,213.6,176.5,214.2,177.3z M209.7,177.7
					c-0.4,0.5-0.7,1.1-0.7,1.8h4.8c-0.1-1.7-1-2.5-2.4-2.5C210.7,177,210.2,177.3,209.7,177.7z"/>
			</g>
			<g>
				<path class="st1" d="M223.6,176.2h1.9v1h-1.9v4.9c0,0.3,0,0.5,0.2,0.6c0.1,0.1,0.3,0.2,0.6,0.2h1v1h-1.2c-0.6,0-1.1-0.2-1.4-0.5
					c-0.3-0.3-0.4-0.7-0.4-1.3v-4.9h-1.6v-1h1.6v-2l1.2-0.5V176.2z"/>
			</g>
			<g>
				<path class="st1" d="M232.8,177.3c0.6,0.8,0.9,1.8,0.9,3.2h-6.1c0.1,0.9,0.3,1.5,0.7,2c0.4,0.5,1,0.7,1.7,0.7
					c0.6,0,1.2-0.2,1.5-0.5c0.3-0.3,0.6-0.7,0.8-1.2h1.2c-0.2,0.8-0.5,1.4-1.1,1.8c-0.6,0.6-1.5,0.9-2.5,0.9c-1.1,0-2-0.4-2.7-1.1
					c-0.7-0.8-1-1.7-1-3c0-1.1,0.3-2.1,1-2.9c0.7-0.8,1.5-1.2,2.7-1.2C231.3,176,232.2,176.5,232.8,177.3z M228.4,177.7
					c-0.4,0.5-0.7,1.1-0.7,1.8h4.8c-0.1-1.7-1-2.5-2.4-2.5C229.4,177,228.8,177.3,228.4,177.7z"/>
			</g>
			<g>
				<path class="st1" d="M236,176.2l2,2.8l2-2.8h1.4l-2.7,3.6l3.1,4.1h-1.4l-2.3-3.2l-2.3,3.2h-1.4l3.1-4.1l-2.7-3.6H236z"/>
			</g>
			<g>
				<path class="st1" d="M244.8,176.2h1.9v1h-1.9v4.9c0,0.3,0,0.5,0.2,0.6c0.1,0.1,0.3,0.2,0.6,0.2h1v1h-1.2c-0.6,0-1.1-0.2-1.4-0.5
					c-0.3-0.3-0.4-0.7-0.4-1.3v-4.9h-1.6v-1h1.6v-2l1.2-0.5V176.2z"/>
			</g>
			<g>
				<path class="st1" d="M257.7,173.3v1h-1.3c-0.3,0-0.6,0.1-0.7,0.3c-0.1,0.2-0.2,0.4-0.2,0.8v0.9h4.7v7.8h-1.2v-6.8h-3.5v6.8h-1.2
					v-6.8h-1.9v-1h1.9v-0.9c0-0.7,0.2-1.2,0.5-1.5c0.3-0.4,0.9-0.6,1.5-0.6H257.7z"/>
			</g>
			<g>
				<path class="st1" d="M268.2,177.3c0.6,0.8,0.9,1.8,0.9,3.2H263c0.1,0.9,0.3,1.5,0.7,2c0.4,0.5,1,0.7,1.7,0.7
					c0.6,0,1.2-0.2,1.5-0.5c0.3-0.3,0.6-0.7,0.8-1.2h1.2c-0.2,0.8-0.5,1.4-1.1,1.8c-0.6,0.6-1.5,0.9-2.5,0.9c-1.1,0-2-0.4-2.7-1.1
					c-0.7-0.8-1-1.7-1-3c0-1.1,0.3-2.1,1-2.9c0.7-0.8,1.5-1.2,2.7-1.2C266.7,176,267.6,176.5,268.2,177.3z M263.8,177.7
					c-0.4,0.5-0.7,1.1-0.7,1.8h4.8c-0.1-1.7-1-2.5-2.4-2.5C264.8,177,264.2,177.3,263.8,177.7z"/>
			</g>
			<g>
				<path class="st1" d="M272,173.1V184h-1.2v-10.9H272z"/>
			</g>
			<g>
				<path class="st1" d="M281,173.1V184h-1.1v-1.3c-0.5,1-1.4,1.5-2.6,1.5c-1.1,0-2-0.4-2.7-1.2c-0.6-0.8-0.9-1.7-0.9-2.9
					c0-1.1,0.3-2.1,0.9-2.8c0.6-0.8,1.5-1.2,2.6-1.2s2,0.5,2.6,1.6v-4.6H281z M275.6,177.9c-0.4,0.5-0.6,1.2-0.6,2.2
					c0,0.9,0.2,1.7,0.6,2.2c0.4,0.6,1,0.9,1.9,0.9c0.8,0,1.4-0.3,1.8-0.9c0.4-0.5,0.6-1.2,0.6-2.1v-0.2c0-0.9-0.2-1.6-0.6-2.2
					c-0.4-0.6-1-0.8-1.7-0.8C276.6,177,276,177.3,275.6,177.9z"/>
			</g>
		</g>
		<g id="Group-5_2_" transform="translate(126.000000, 161.000000)">
			<g id="Rectangle-24_2_">
				<g>
					<path class="st1" d="M-13,8h11c2.8,0,5,2.2,5,5v11c0,2.8-2.2,5-5,5h-11c-2.8,0-5-2.2-5-5V13C-18,10.2-15.8,8-13,8z"/>
				</g>
			</g>
			<g class="st0">
				<g>
					<path class="st2" d="M-2.5,23h-1.2c-0.1,0-0.3,0-0.3-0.1c-0.1-0.1-0.2-0.2-0.2-0.3l-0.6-1.8h-3.6l-0.6,1.8
						c0,0.1-0.1,0.2-0.2,0.3C-9.5,23-9.6,23-9.7,23H-11l3.4-8.7h1.7L-2.5,23z M-8.1,19.7h2.8l-1.1-2.9c0-0.1-0.1-0.3-0.2-0.5
						s-0.1-0.4-0.2-0.6c-0.1,0.2-0.1,0.4-0.2,0.6C-7,16.6-7,16.7-7.1,16.8L-8.1,19.7z"/>
				</g>
			</g>
		</g>
	</g>
	<g>
		<g id="Line_2_">
			<g>
				<rect x="63.5" y="98.5" class="st3" width="353" height="3"/>
			</g>
		</g>
		<g id="Rectangle-30_8_" class="st4">
			<g>
				<rect x="63" y="52" class="st3" width="354" height="16"/>
			</g>
		</g>
		<g id="Rectangle-30_7_" class="st4">
			<g>
				<rect x="63" y="106" class="st3" width="354" height="18"/>
			</g>
		</g>
		<g id="Rectangle-30_6_" class="st4">
			<g>
				<rect x="63" y="72" class="st3" width="354" height="22"/>
			</g>
		</g>
		<g class="st0">
			<g>
				<path class="st1" d="M68.6,90h-1.7V77.1h1.7V90z"/>
			</g>
			<g>
				<path class="st1" d="M71.8,90v-9.1h1c0.2,0,0.4,0.1,0.4,0.3l0.1,1c0.4-0.4,0.8-0.8,1.3-1.1c0.5-0.3,1.1-0.4,1.7-0.4
					c0.5,0,0.9,0.1,1.3,0.2s0.7,0.4,1,0.7c0.3,0.3,0.4,0.7,0.6,1.1c0.1,0.4,0.2,0.9,0.2,1.4V90h-1.6v-5.8c0-0.7-0.2-1.2-0.5-1.6
					S76.6,82,75.9,82c-0.5,0-0.9,0.1-1.3,0.3c-0.4,0.2-0.8,0.5-1.1,0.9V90H71.8z"/>
			</g>
			<g>
				<path class="st1" d="M81.8,93.1V80.9h1c0.2,0,0.4,0.1,0.4,0.3l0.1,1.1c0.4-0.5,0.8-0.9,1.3-1.1s1.1-0.4,1.7-0.4
					c0.5,0,1,0.1,1.4,0.3c0.4,0.2,0.8,0.5,1.1,0.9c0.3,0.4,0.5,0.9,0.7,1.5s0.2,1.3,0.2,2c0,0.7-0.1,1.3-0.3,1.9s-0.4,1.1-0.8,1.5
					c-0.3,0.4-0.7,0.8-1.2,1c-0.5,0.2-1,0.4-1.7,0.4c-0.6,0-1-0.1-1.4-0.3c-0.4-0.2-0.8-0.4-1.1-0.8v4H81.8z M85.9,82
					c-0.5,0-1,0.1-1.4,0.4s-0.8,0.6-1.1,1v4.4c0.3,0.4,0.6,0.7,1,0.8c0.4,0.2,0.7,0.2,1.2,0.2c0.8,0,1.5-0.3,2-0.9
					c0.5-0.6,0.7-1.5,0.7-2.6c0-0.6-0.1-1.1-0.2-1.5c-0.1-0.4-0.3-0.8-0.5-1c-0.2-0.3-0.4-0.5-0.7-0.6S86.3,82,85.9,82z"/>
			</g>
			<g>
				<path class="st1" d="M93.2,80.9v5.8c0,0.7,0.2,1.2,0.5,1.6c0.3,0.4,0.8,0.6,1.4,0.6c0.5,0,0.9-0.1,1.3-0.3s0.8-0.5,1.1-0.9v-6.7
					h1.6V90h-1c-0.2,0-0.4-0.1-0.4-0.3l-0.1-1c-0.4,0.4-0.8,0.8-1.3,1.1c-0.5,0.3-1.1,0.4-1.7,0.4c-0.5,0-0.9-0.1-1.3-0.2
					c-0.4-0.2-0.7-0.4-1-0.7c-0.3-0.3-0.5-0.7-0.6-1.1c-0.1-0.4-0.2-0.9-0.2-1.4v-5.8H93.2z"/>
			</g>
			<g>
				<path class="st1" d="M104.6,90.1c-0.7,0-1.3-0.2-1.7-0.6s-0.6-1-0.6-1.7v-5.6h-1.1c-0.1,0-0.2,0-0.2-0.1
					c-0.1-0.1-0.1-0.1-0.1-0.3v-0.6l1.5-0.2l0.4-2.8c0-0.1,0.1-0.2,0.1-0.2c0.1-0.1,0.1-0.1,0.3-0.1h0.8v3.1h2.6v1.2h-2.6v5.5
					c0,0.4,0.1,0.7,0.3,0.9c0.2,0.2,0.4,0.3,0.7,0.3c0.2,0,0.3,0,0.4-0.1s0.2-0.1,0.3-0.1c0.1-0.1,0.2-0.1,0.2-0.1s0.1-0.1,0.2-0.1
					c0.1,0,0.2,0.1,0.2,0.2l0.5,0.8c-0.3,0.3-0.6,0.5-1,0.6C105.4,90.1,105,90.1,104.6,90.1z"/>
			</g>
			<g>
				<path class="st1" d="M114.7,90.1c-0.7,0-1.3-0.2-1.7-0.6s-0.6-1-0.6-1.7v-5.6h-1.1c-0.1,0-0.2,0-0.2-0.1
					c-0.1-0.1-0.1-0.1-0.1-0.3v-0.6l1.5-0.2l0.4-2.8c0-0.1,0.1-0.2,0.1-0.2c0.1-0.1,0.1-0.1,0.3-0.1h0.8v3.1h2.6v1.2h-2.6v5.5
					c0,0.4,0.1,0.7,0.3,0.9c0.2,0.2,0.4,0.3,0.7,0.3c0.2,0,0.3,0,0.4-0.1s0.2-0.1,0.3-0.1c0.1-0.1,0.2-0.1,0.2-0.1s0.1-0.1,0.2-0.1
					c0.1,0,0.2,0.1,0.2,0.2l0.5,0.8c-0.3,0.3-0.6,0.5-1,0.6C115.6,90.1,115.2,90.1,114.7,90.1z"/>
			</g>
			<g>
				<path class="st1" d="M122.3,80.7c0.5,0,1.1,0.1,1.5,0.3c0.5,0.2,0.9,0.4,1.2,0.8s0.6,0.8,0.8,1.3c0.2,0.5,0.3,1.1,0.3,1.7
					c0,0.3,0,0.4-0.1,0.5c-0.1,0.1-0.2,0.1-0.3,0.1h-6.1c0,0.6,0.1,1.1,0.2,1.5s0.3,0.8,0.6,1.1s0.6,0.5,0.9,0.6
					c0.3,0.1,0.7,0.2,1.2,0.2c0.4,0,0.7,0,1-0.1s0.5-0.2,0.8-0.3c0.2-0.1,0.4-0.2,0.5-0.3c0.1-0.1,0.3-0.1,0.4-0.1
					c0.1,0,0.2,0.1,0.3,0.2l0.4,0.6c-0.2,0.2-0.4,0.4-0.7,0.6s-0.6,0.3-0.9,0.4c-0.3,0.1-0.6,0.2-1,0.3c-0.3,0.1-0.7,0.1-1,0.1
					c-0.6,0-1.2-0.1-1.7-0.3c-0.5-0.2-1-0.5-1.4-0.9c-0.4-0.4-0.7-0.9-0.9-1.5c-0.2-0.6-0.3-1.3-0.3-2.1c0-0.6,0.1-1.2,0.3-1.8
					c0.2-0.6,0.5-1,0.8-1.4c0.4-0.4,0.8-0.7,1.3-1C121,80.9,121.6,80.7,122.3,80.7z M122.3,81.9c-0.8,0-1.4,0.2-1.8,0.7
					c-0.4,0.4-0.7,1.1-0.8,1.9h5c0-0.4-0.1-0.7-0.2-1c-0.1-0.3-0.3-0.6-0.4-0.8c-0.2-0.2-0.4-0.4-0.7-0.5
					C123,82,122.7,81.9,122.3,81.9z"/>
			</g>
			<g>
				<path class="st1" d="M129.7,85.3l-3.1-4.4h1.5c0.1,0,0.2,0,0.3,0.1s0.1,0.1,0.2,0.2l2.2,3.4c0.1-0.2,0.1-0.3,0.2-0.5l2-2.9
					c0.1-0.1,0.1-0.2,0.2-0.2c0.1-0.1,0.1-0.1,0.2-0.1h1.5l-3.1,4.4l3.2,4.8h-1.5c-0.1,0-0.2,0-0.3-0.1c-0.1-0.1-0.1-0.1-0.2-0.2
					l-2.3-3.6c0,0.2-0.1,0.3-0.2,0.5l-2.1,3.1c-0.1,0.1-0.1,0.2-0.2,0.2c-0.1,0.1-0.2,0.1-0.3,0.1h-1.4L129.7,85.3z"/>
			</g>
			<g>
				<path class="st1" d="M139.4,90.1c-0.7,0-1.3-0.2-1.7-0.6s-0.6-1-0.6-1.7v-5.6h-1.1c-0.1,0-0.2,0-0.2-0.1
					c-0.1-0.1-0.1-0.1-0.1-0.3v-0.6l1.5-0.2l0.4-2.8c0-0.1,0.1-0.2,0.1-0.2c0.1-0.1,0.1-0.1,0.3-0.1h0.8v3.1h2.6v1.2h-2.6v5.5
					c0,0.4,0.1,0.7,0.3,0.9c0.2,0.2,0.4,0.3,0.7,0.3c0.2,0,0.3,0,0.4-0.1s0.2-0.1,0.3-0.1c0.1-0.1,0.2-0.1,0.2-0.1s0.1-0.1,0.2-0.1
					c0.1,0,0.2,0.1,0.2,0.2l0.5,0.8c-0.3,0.3-0.6,0.5-1,0.6C140.2,90.1,139.8,90.1,139.4,90.1z"/>
			</g>
		</g>
		<g class="st0">
			<g>
				<path class="st5" d="M71.3,55.3v1.3h-3.8v2.6h3.2v1.3h-3.2V64h-1.6v-8.7H71.3z"/>
			</g>
			<g>
				<path class="st5" d="M74.3,56.1c0,0.1,0,0.2-0.1,0.4c-0.1,0.1-0.1,0.2-0.2,0.3c-0.1,0.1-0.2,0.2-0.3,0.2S73.5,57,73.4,57
					c-0.1,0-0.2,0-0.4-0.1c-0.1,0-0.2-0.1-0.3-0.2s-0.2-0.2-0.2-0.3c-0.1-0.1-0.1-0.2-0.1-0.4c0-0.1,0-0.3,0.1-0.4
					c0-0.1,0.1-0.2,0.2-0.3s0.2-0.2,0.3-0.2c0.1,0,0.2-0.1,0.4-0.1c0.1,0,0.3,0,0.4,0.1c0.1,0.1,0.2,0.1,0.3,0.2
					c0.1,0.1,0.2,0.2,0.2,0.3C74.3,55.8,74.3,55.9,74.3,56.1z M74.1,57.8V64h-1.5v-6.2H74.1z"/>
			</g>
			<g>
				<path class="st5" d="M78.3,57.7c0.4,0,0.7,0.1,1.1,0.2c0.3,0.1,0.6,0.3,0.8,0.5c0.2,0.2,0.4,0.5,0.6,0.9
					c0.1,0.3,0.2,0.7,0.2,1.2c0,0.1,0,0.2,0,0.3c0,0.1,0,0.1-0.1,0.2c0,0-0.1,0.1-0.1,0.1c0,0-0.1,0-0.2,0h-3.8
					c0,0.6,0.2,1.1,0.5,1.4c0.3,0.3,0.7,0.4,1.2,0.4c0.2,0,0.4,0,0.6-0.1c0.2-0.1,0.3-0.1,0.5-0.2c0.1-0.1,0.2-0.1,0.3-0.2
					c0.1-0.1,0.2-0.1,0.3-0.1c0.1,0,0.1,0,0.2,0c0,0,0.1,0.1,0.1,0.1l0.4,0.5c-0.2,0.2-0.3,0.4-0.6,0.5s-0.4,0.2-0.6,0.3
					C79.5,64,79.3,64,79.1,64s-0.5,0-0.7,0c-0.4,0-0.8-0.1-1.2-0.2c-0.4-0.1-0.7-0.4-1-0.6s-0.5-0.6-0.6-1c-0.2-0.4-0.2-0.9-0.2-1.4
					c0-0.4,0.1-0.8,0.2-1.2c0.1-0.4,0.3-0.7,0.6-1c0.3-0.3,0.6-0.5,0.9-0.7C77.5,57.8,77.9,57.7,78.3,57.7z M78.4,58.8
					c-0.4,0-0.8,0.1-1,0.4c-0.2,0.2-0.4,0.6-0.5,1h2.8c0-0.2,0-0.4-0.1-0.5c-0.1-0.2-0.1-0.3-0.2-0.4c-0.1-0.1-0.2-0.2-0.4-0.3
					S78.6,58.8,78.4,58.8z"/>
			</g>
			<g>
				<path class="st5" d="M83.8,55.1V64h-1.5v-8.9H83.8z"/>
			</g>
			<g>
				<path class="st5" d="M89.8,64c-0.2,0-0.3-0.1-0.4-0.3l-0.1-0.6c-0.1,0.1-0.3,0.3-0.4,0.4c-0.1,0.1-0.3,0.2-0.5,0.3
					S88.1,64,87.9,64c-0.2,0-0.4,0.1-0.6,0.1c-0.3,0-0.6-0.1-0.9-0.2c-0.3-0.1-0.5-0.3-0.7-0.6c-0.2-0.3-0.4-0.6-0.5-1
					c-0.1-0.4-0.2-0.8-0.2-1.3c0-0.5,0.1-0.9,0.2-1.3c0.1-0.4,0.3-0.7,0.5-1c0.2-0.3,0.5-0.5,0.8-0.7c0.3-0.2,0.7-0.2,1.1-0.2
					c0.3,0,0.6,0.1,0.9,0.2c0.2,0.1,0.5,0.3,0.7,0.4v-3.3h1.5V64H89.8z M87.8,62.9c0.3,0,0.6-0.1,0.8-0.2s0.4-0.3,0.6-0.5v-2.8
					c-0.2-0.2-0.4-0.3-0.5-0.4c-0.2-0.1-0.4-0.1-0.6-0.1c-0.2,0-0.4,0-0.6,0.1s-0.3,0.2-0.5,0.4s-0.2,0.4-0.3,0.6
					c-0.1,0.3-0.1,0.6-0.1,0.9c0,0.4,0,0.7,0.1,0.9s0.1,0.5,0.2,0.6s0.2,0.3,0.4,0.3C87.4,62.9,87.6,62.9,87.8,62.9z"/>
			</g>
			<g>
				<path class="st5" d="M96.2,55.1V64h-1.5v-8.9H96.2z"/>
			</g>
			<g>
				<path class="st5" d="M102.7,64H102c-0.1,0-0.2,0-0.3-0.1s-0.1-0.1-0.2-0.3l-0.1-0.4c-0.2,0.1-0.3,0.3-0.5,0.4
					c-0.1,0.1-0.3,0.2-0.5,0.3c-0.2,0.1-0.3,0.1-0.5,0.2s-0.4,0.1-0.6,0.1c-0.3,0-0.5,0-0.7-0.1c-0.2-0.1-0.4-0.2-0.6-0.3
					c-0.2-0.1-0.3-0.3-0.4-0.5c-0.1-0.2-0.1-0.5-0.1-0.7c0-0.2,0.1-0.5,0.2-0.7s0.3-0.4,0.6-0.6c0.3-0.2,0.7-0.3,1.1-0.5
					c0.5-0.1,1.1-0.2,1.8-0.2v-0.4c0-0.4-0.1-0.7-0.3-0.9c-0.2-0.2-0.4-0.3-0.8-0.3c-0.2,0-0.4,0-0.6,0.1c-0.2,0.1-0.3,0.1-0.4,0.2
					c-0.1,0.1-0.2,0.1-0.3,0.2c-0.1,0.1-0.2,0.1-0.3,0.1c-0.1,0-0.2,0-0.3-0.1c-0.1-0.1-0.1-0.1-0.2-0.2l-0.3-0.5
					c0.7-0.6,1.6-1,2.6-1c0.4,0,0.7,0.1,1,0.2c0.3,0.1,0.5,0.3,0.7,0.5c0.2,0.2,0.3,0.5,0.4,0.8s0.2,0.6,0.2,1V64z M99.8,63.1
					c0.2,0,0.3,0,0.4,0c0.1,0,0.2-0.1,0.4-0.1c0.1-0.1,0.2-0.1,0.3-0.2s0.2-0.2,0.3-0.3v-1c-0.4,0-0.8,0-1.1,0.1s-0.5,0.1-0.7,0.2
					c-0.2,0.1-0.3,0.2-0.4,0.3C99,62.1,99,62.2,99,62.3c0,0.3,0.1,0.4,0.2,0.6C99.4,63,99.6,63.1,99.8,63.1z"/>
			</g>
			<g>
				<path class="st5" d="M104.2,64v-8.9h1.5v3.5c0.2-0.3,0.5-0.5,0.8-0.6c0.3-0.2,0.7-0.2,1.1-0.2c0.3,0,0.6,0.1,0.9,0.2
					c0.3,0.1,0.5,0.3,0.7,0.6c0.2,0.3,0.4,0.6,0.5,1c0.1,0.4,0.2,0.8,0.2,1.3c0,0.5-0.1,0.9-0.2,1.3c-0.1,0.4-0.3,0.7-0.5,1
					s-0.5,0.5-0.8,0.7c-0.3,0.2-0.7,0.2-1.1,0.2c-0.2,0-0.4,0-0.5-0.1c-0.2,0-0.3-0.1-0.4-0.2c-0.1-0.1-0.2-0.2-0.4-0.2
					c-0.1-0.1-0.2-0.2-0.3-0.3l-0.1,0.4c0,0.1-0.1,0.2-0.1,0.2c-0.1,0-0.1,0.1-0.2,0.1H104.2z M107,58.9c-0.3,0-0.6,0.1-0.8,0.2
					c-0.2,0.1-0.4,0.3-0.6,0.5v2.8c0.2,0.2,0.4,0.4,0.5,0.4c0.2,0.1,0.4,0.1,0.6,0.1c0.2,0,0.4,0,0.6-0.1c0.2-0.1,0.3-0.2,0.5-0.4
					s0.2-0.4,0.3-0.7c0.1-0.3,0.1-0.6,0.1-0.9c0-0.4,0-0.7-0.1-0.9s-0.1-0.5-0.2-0.6c-0.1-0.2-0.2-0.3-0.4-0.3
					C107.4,58.9,107.2,58.9,107,58.9z"/>
			</g>
			<g>
				<path class="st5" d="M113.5,57.7c0.4,0,0.7,0.1,1.1,0.2c0.3,0.1,0.6,0.3,0.8,0.5c0.2,0.2,0.4,0.5,0.6,0.9
					c0.1,0.3,0.2,0.7,0.2,1.2c0,0.1,0,0.2,0,0.3c0,0.1,0,0.1-0.1,0.2c0,0-0.1,0.1-0.1,0.1c0,0-0.1,0-0.2,0H112
					c0,0.6,0.2,1.1,0.5,1.4c0.3,0.3,0.7,0.4,1.2,0.4c0.2,0,0.4,0,0.6-0.1c0.2-0.1,0.3-0.1,0.5-0.2c0.1-0.1,0.2-0.1,0.3-0.2
					c0.1-0.1,0.2-0.1,0.3-0.1c0.1,0,0.1,0,0.2,0c0,0,0.1,0.1,0.1,0.1l0.4,0.5c-0.2,0.2-0.3,0.4-0.6,0.5s-0.4,0.2-0.6,0.3
					c-0.2,0.1-0.4,0.1-0.7,0.2s-0.5,0-0.7,0c-0.4,0-0.8-0.1-1.2-0.2c-0.4-0.1-0.7-0.4-1-0.6s-0.5-0.6-0.6-1
					c-0.2-0.4-0.2-0.9-0.2-1.4c0-0.4,0.1-0.8,0.2-1.2c0.1-0.4,0.3-0.7,0.6-1c0.3-0.3,0.6-0.5,0.9-0.7
					C112.6,57.8,113.1,57.7,113.5,57.7z M113.6,58.8c-0.4,0-0.8,0.1-1,0.4c-0.2,0.2-0.4,0.6-0.5,1h2.8c0-0.2,0-0.4-0.1-0.5
					c-0.1-0.2-0.1-0.3-0.2-0.4c-0.1-0.1-0.2-0.2-0.4-0.3S113.8,58.8,113.6,58.8z"/>
			</g>
			<g>
				<path class="st5" d="M119,55.1V64h-1.5v-8.9H119z"/>
			</g>
		</g>
		<g class="st0">
			<g>
				<path class="st3" d="M72.9,110.3v1.2h-5.2v3.8h4.4v1.2h-4.4v4.6h-1.5v-10.7H72.9z"/>
			</g>
			<g>
				<path class="st3" d="M76.4,111c0,0.1,0,0.3-0.1,0.4c-0.1,0.1-0.1,0.2-0.2,0.3c-0.1,0.1-0.2,0.2-0.3,0.2c-0.1,0-0.2,0.1-0.4,0.1
					s-0.3,0-0.4-0.1c-0.1,0-0.2-0.1-0.3-0.2c-0.1-0.1-0.2-0.2-0.2-0.3c0-0.1-0.1-0.2-0.1-0.4s0-0.3,0.1-0.4c0.1-0.1,0.1-0.2,0.2-0.3
					s0.2-0.2,0.3-0.2c0.1,0,0.2-0.1,0.4-0.1s0.3,0,0.4,0.1c0.1,0,0.2,0.1,0.3,0.2s0.2,0.2,0.2,0.3C76.3,110.8,76.4,110.9,76.4,111z
					 M76.1,113.4v7.6h-1.3v-7.6H76.1z"/>
			</g>
			<g>
				<path class="st3" d="M81.4,113.3c0.5,0,0.9,0.1,1.3,0.2c0.4,0.2,0.7,0.4,1,0.7c0.3,0.3,0.5,0.6,0.7,1.1c0.2,0.4,0.2,0.9,0.2,1.4
					c0,0.2,0,0.4-0.1,0.4c0,0.1-0.1,0.1-0.3,0.1h-5.1c0,0.5,0.1,0.9,0.2,1.3c0.1,0.4,0.3,0.7,0.5,0.9c0.2,0.2,0.5,0.4,0.8,0.5
					s0.6,0.2,1,0.2c0.3,0,0.6,0,0.9-0.1c0.2-0.1,0.5-0.2,0.6-0.3c0.2-0.1,0.3-0.2,0.4-0.3c0.1-0.1,0.2-0.1,0.3-0.1
					c0.1,0,0.2,0,0.3,0.1l0.4,0.5c-0.2,0.2-0.4,0.4-0.6,0.5s-0.5,0.3-0.7,0.4c-0.3,0.1-0.5,0.2-0.8,0.2c-0.3,0-0.6,0.1-0.8,0.1
					c-0.5,0-1-0.1-1.5-0.3c-0.4-0.2-0.8-0.4-1.1-0.8c-0.3-0.3-0.6-0.8-0.8-1.3c-0.2-0.5-0.3-1.1-0.3-1.7c0-0.5,0.1-1,0.2-1.5
					c0.2-0.5,0.4-0.9,0.7-1.2c0.3-0.3,0.7-0.6,1.1-0.8C80.4,113.4,80.9,113.3,81.4,113.3z M81.5,114.3c-0.6,0-1.2,0.2-1.5,0.6
					c-0.4,0.4-0.6,0.9-0.7,1.5h4.1c0-0.3,0-0.6-0.1-0.9s-0.2-0.5-0.4-0.7s-0.4-0.3-0.6-0.4C82,114.3,81.8,114.3,81.5,114.3z"/>
			</g>
			<g>
				<path class="st3" d="M87.8,110v11h-1.3v-11H87.8z"/>
			</g>
			<g>
				<path class="st3" d="M95.5,121c-0.2,0-0.3-0.1-0.4-0.3l-0.1-0.9c-0.3,0.4-0.7,0.7-1.1,0.9s-0.9,0.4-1.4,0.4
					c-0.4,0-0.8-0.1-1.2-0.3c-0.4-0.2-0.7-0.4-0.9-0.7s-0.4-0.7-0.6-1.2c-0.1-0.5-0.2-1-0.2-1.7c0-0.6,0.1-1.1,0.2-1.6
					s0.4-0.9,0.6-1.3c0.3-0.4,0.6-0.6,1-0.8c0.4-0.2,0.9-0.3,1.4-0.3c0.5,0,0.9,0.1,1.2,0.2s0.6,0.4,0.9,0.7V110h1.3v11H95.5z
					 M92.9,120c0.4,0,0.8-0.1,1.1-0.3c0.3-0.2,0.6-0.5,0.9-0.8v-3.7c-0.2-0.3-0.5-0.6-0.8-0.7s-0.6-0.2-1-0.2
					c-0.7,0-1.3,0.3-1.6,0.8c-0.4,0.5-0.6,1.2-0.6,2.2c0,0.5,0,0.9,0.1,1.3s0.2,0.6,0.4,0.9s0.4,0.4,0.6,0.5
					C92.3,120,92.6,120,92.9,120z"/>
			</g>
			<g>
				<path class="st3" d="M104.4,113.3c0.5,0,0.9,0.1,1.3,0.2c0.4,0.2,0.7,0.4,1,0.7c0.3,0.3,0.5,0.6,0.7,1.1
					c0.2,0.4,0.2,0.9,0.2,1.4c0,0.2,0,0.4-0.1,0.4c0,0.1-0.1,0.1-0.3,0.1h-5.1c0,0.5,0.1,0.9,0.2,1.3c0.1,0.4,0.3,0.7,0.5,0.9
					c0.2,0.2,0.5,0.4,0.8,0.5s0.6,0.2,1,0.2c0.3,0,0.6,0,0.9-0.1c0.2-0.1,0.5-0.2,0.6-0.3c0.2-0.1,0.3-0.2,0.4-0.3
					c0.1-0.1,0.2-0.1,0.3-0.1c0.1,0,0.2,0,0.3,0.1l0.4,0.5c-0.2,0.2-0.4,0.4-0.6,0.5s-0.5,0.3-0.7,0.4c-0.3,0.1-0.5,0.2-0.8,0.2
					c-0.3,0-0.6,0.1-0.8,0.1c-0.5,0-1-0.1-1.5-0.3c-0.4-0.2-0.8-0.4-1.1-0.8c-0.3-0.3-0.6-0.8-0.8-1.3c-0.2-0.5-0.3-1.1-0.3-1.7
					c0-0.5,0.1-1,0.2-1.5c0.2-0.5,0.4-0.9,0.7-1.2c0.3-0.3,0.7-0.6,1.1-0.8C103.4,113.4,103.9,113.3,104.4,113.3z M104.4,114.3
					c-0.6,0-1.2,0.2-1.5,0.6c-0.4,0.4-0.6,0.9-0.7,1.5h4.1c0-0.3,0-0.6-0.1-0.9s-0.2-0.5-0.4-0.7s-0.4-0.3-0.6-0.4
					C105,114.3,104.7,114.3,104.4,114.3z"/>
			</g>
			<g>
				<path class="st3" d="M109.3,121v-7.6h0.8c0.1,0,0.2,0,0.3,0.1c0.1,0.1,0.1,0.1,0.1,0.3l0.1,1.2c0.3-0.5,0.6-0.9,1-1.2
					c0.4-0.3,0.8-0.4,1.3-0.4c0.2,0,0.4,0,0.6,0.1c0.2,0,0.3,0.1,0.5,0.2l-0.2,1c0,0.1-0.1,0.2-0.2,0.2c-0.1,0-0.2,0-0.3-0.1
					s-0.3-0.1-0.6-0.1c-0.5,0-0.9,0.1-1.2,0.4c-0.3,0.3-0.6,0.7-0.8,1.2v4.8H109.3z"/>
			</g>
			<g>
				<path class="st3" d="M115.3,121v-7.6h0.8c0.1,0,0.2,0,0.3,0.1c0.1,0.1,0.1,0.1,0.1,0.3l0.1,1.2c0.3-0.5,0.6-0.9,1-1.2
					c0.4-0.3,0.8-0.4,1.3-0.4c0.2,0,0.4,0,0.6,0.1c0.2,0,0.3,0.1,0.5,0.2l-0.2,1c0,0.1-0.1,0.2-0.2,0.2c-0.1,0-0.2,0-0.3-0.1
					s-0.3-0.1-0.6-0.1c-0.5,0-0.9,0.1-1.2,0.4c-0.3,0.3-0.6,0.7-0.8,1.2v4.8H115.3z"/>
			</g>
			<g>
				<path class="st3" d="M124.4,113.3c0.6,0,1.1,0.1,1.5,0.3c0.4,0.2,0.8,0.4,1.1,0.8c0.3,0.3,0.6,0.8,0.7,1.2s0.3,1,0.3,1.6
					c0,0.6-0.1,1.1-0.3,1.6c-0.2,0.5-0.4,0.9-0.7,1.2c-0.3,0.3-0.7,0.6-1.1,0.8c-0.4,0.2-0.9,0.3-1.5,0.3c-0.6,0-1.1-0.1-1.5-0.3
					c-0.4-0.2-0.8-0.4-1.1-0.8s-0.6-0.8-0.7-1.2c-0.2-0.5-0.3-1-0.3-1.6c0-0.6,0.1-1.1,0.3-1.6s0.4-0.9,0.7-1.2s0.7-0.6,1.1-0.8
					C123.4,113.4,123.9,113.3,124.4,113.3z M124.4,120.1c0.8,0,1.3-0.3,1.7-0.8c0.4-0.5,0.6-1.2,0.6-2.1c0-0.9-0.2-1.6-0.6-2.1
					c-0.4-0.5-0.9-0.8-1.7-0.8c-0.4,0-0.7,0.1-1,0.2c-0.3,0.1-0.5,0.3-0.7,0.6s-0.3,0.5-0.4,0.9c-0.1,0.4-0.1,0.8-0.1,1.2
					s0,0.9,0.1,1.2c0.1,0.4,0.2,0.7,0.4,0.9c0.2,0.2,0.4,0.4,0.7,0.6C123.7,120,124,120.1,124.4,120.1z"/>
			</g>
			<g>
				<path class="st3" d="M129.7,121v-7.6h0.8c0.1,0,0.2,0,0.3,0.1c0.1,0.1,0.1,0.1,0.1,0.3l0.1,1.2c0.3-0.5,0.6-0.9,1-1.2
					c0.4-0.3,0.8-0.4,1.3-0.4c0.2,0,0.4,0,0.6,0.1c0.2,0,0.3,0.1,0.5,0.2l-0.2,1c0,0.1-0.1,0.2-0.2,0.2c-0.1,0-0.2,0-0.3-0.1
					s-0.3-0.1-0.6-0.1c-0.5,0-0.9,0.1-1.2,0.4c-0.3,0.3-0.6,0.7-0.8,1.2v4.8H129.7z"/>
			</g>
			<g>
				<path class="st3" d="M138.6,121v-7.6h0.8c0.2,0,0.3,0.1,0.4,0.3l0.1,0.8c0.3-0.3,0.6-0.6,0.9-0.8c0.3-0.2,0.8-0.3,1.2-0.3
					c0.5,0,0.9,0.1,1.2,0.4c0.3,0.3,0.5,0.7,0.7,1.2c0.1-0.3,0.2-0.5,0.4-0.7c0.2-0.2,0.4-0.4,0.6-0.5c0.2-0.1,0.4-0.2,0.7-0.3
					c0.2-0.1,0.5-0.1,0.7-0.1c0.4,0,0.8,0.1,1.1,0.2c0.3,0.1,0.6,0.3,0.8,0.6c0.2,0.2,0.4,0.5,0.5,0.9c0.1,0.4,0.2,0.8,0.2,1.2v4.8
					h-1.3v-4.8c0-0.6-0.1-1-0.4-1.4c-0.3-0.3-0.6-0.5-1.1-0.5c-0.2,0-0.4,0-0.6,0.1s-0.4,0.2-0.5,0.3c-0.2,0.2-0.3,0.3-0.4,0.6
					s-0.1,0.5-0.1,0.8v4.8h-1.3v-4.8c0-0.6-0.1-1.1-0.4-1.4c-0.2-0.3-0.6-0.5-1.1-0.5c-0.3,0-0.6,0.1-0.9,0.3
					c-0.3,0.2-0.5,0.4-0.8,0.7v5.7H138.6z"/>
			</g>
			<g>
				<path class="st3" d="M154,113.3c0.5,0,0.9,0.1,1.3,0.2c0.4,0.2,0.7,0.4,1,0.7c0.3,0.3,0.5,0.6,0.7,1.1c0.2,0.4,0.2,0.9,0.2,1.4
					c0,0.2,0,0.4-0.1,0.4c0,0.1-0.1,0.1-0.3,0.1h-5.1c0,0.5,0.1,0.9,0.2,1.3c0.1,0.4,0.3,0.7,0.5,0.9c0.2,0.2,0.5,0.4,0.8,0.5
					s0.6,0.2,1,0.2c0.3,0,0.6,0,0.9-0.1c0.2-0.1,0.5-0.2,0.6-0.3c0.2-0.1,0.3-0.2,0.4-0.3c0.1-0.1,0.2-0.1,0.3-0.1
					c0.1,0,0.2,0,0.3,0.1l0.4,0.5c-0.2,0.2-0.4,0.4-0.6,0.5s-0.5,0.3-0.7,0.4c-0.3,0.1-0.5,0.2-0.8,0.2c-0.3,0-0.6,0.1-0.8,0.1
					c-0.5,0-1-0.1-1.5-0.3c-0.4-0.2-0.8-0.4-1.1-0.8c-0.3-0.3-0.6-0.8-0.8-1.3c-0.2-0.5-0.3-1.1-0.3-1.7c0-0.5,0.1-1,0.2-1.5
					c0.2-0.5,0.4-0.9,0.7-1.2c0.3-0.3,0.7-0.6,1.1-0.8C152.9,113.4,153.4,113.3,154,113.3z M154,114.3c-0.6,0-1.2,0.2-1.5,0.6
					c-0.4,0.4-0.6,0.9-0.7,1.5h4.1c0-0.3,0-0.6-0.1-0.9s-0.2-0.5-0.4-0.7s-0.4-0.3-0.6-0.4C154.6,114.3,154.3,114.3,154,114.3z"/>
			</g>
			<g>
				<path class="st3" d="M163.2,114.7c-0.1,0.1-0.2,0.2-0.3,0.2c-0.1,0-0.2,0-0.3-0.1c-0.1-0.1-0.2-0.1-0.3-0.2
					c-0.1-0.1-0.3-0.1-0.5-0.2c-0.2-0.1-0.4-0.1-0.7-0.1c-0.2,0-0.4,0-0.6,0.1s-0.3,0.1-0.5,0.2s-0.2,0.2-0.3,0.3s-0.1,0.3-0.1,0.4
					c0,0.2,0.1,0.4,0.2,0.5c0.1,0.1,0.3,0.2,0.4,0.3c0.2,0.1,0.4,0.2,0.6,0.3c0.2,0.1,0.5,0.1,0.7,0.2c0.2,0.1,0.5,0.2,0.7,0.3
					c0.2,0.1,0.4,0.2,0.6,0.4c0.2,0.2,0.3,0.3,0.4,0.6c0.1,0.2,0.2,0.5,0.2,0.8c0,0.4-0.1,0.7-0.2,1c-0.1,0.3-0.3,0.6-0.6,0.8
					s-0.5,0.4-0.9,0.5s-0.8,0.2-1.2,0.2c-0.5,0-1-0.1-1.4-0.3c-0.4-0.2-0.8-0.4-1.1-0.7l0.3-0.5c0-0.1,0.1-0.1,0.1-0.2
					c0.1,0,0.1-0.1,0.2-0.1c0.1,0,0.2,0,0.3,0.1c0.1,0.1,0.2,0.1,0.4,0.2c0.1,0.1,0.3,0.2,0.5,0.2c0.2,0.1,0.5,0.1,0.8,0.1
					c0.3,0,0.5,0,0.7-0.1s0.4-0.2,0.5-0.3c0.1-0.1,0.2-0.2,0.3-0.4c0.1-0.2,0.1-0.3,0.1-0.5c0-0.2-0.1-0.4-0.2-0.5
					c-0.1-0.1-0.3-0.3-0.4-0.4c-0.2-0.1-0.4-0.2-0.6-0.3c-0.2-0.1-0.5-0.1-0.7-0.2c-0.2-0.1-0.5-0.2-0.7-0.3
					c-0.2-0.1-0.4-0.2-0.6-0.4c-0.2-0.2-0.3-0.3-0.4-0.6c-0.1-0.2-0.2-0.5-0.2-0.8c0-0.3,0.1-0.6,0.2-0.8c0.1-0.3,0.3-0.5,0.5-0.7
					s0.5-0.4,0.8-0.5c0.3-0.1,0.7-0.2,1.1-0.2c0.5,0,0.9,0.1,1.3,0.2s0.7,0.4,1,0.6L163.2,114.7z"/>
			</g>
			<g>
				<path class="st3" d="M169.7,114.7c-0.1,0.1-0.2,0.2-0.3,0.2c-0.1,0-0.2,0-0.3-0.1c-0.1-0.1-0.2-0.1-0.3-0.2
					c-0.1-0.1-0.3-0.1-0.5-0.2c-0.2-0.1-0.4-0.1-0.7-0.1c-0.2,0-0.4,0-0.6,0.1s-0.3,0.1-0.5,0.2s-0.2,0.2-0.3,0.3s-0.1,0.3-0.1,0.4
					c0,0.2,0.1,0.4,0.2,0.5c0.1,0.1,0.3,0.2,0.4,0.3c0.2,0.1,0.4,0.2,0.6,0.3c0.2,0.1,0.5,0.1,0.7,0.2c0.2,0.1,0.5,0.2,0.7,0.3
					c0.2,0.1,0.4,0.2,0.6,0.4c0.2,0.2,0.3,0.3,0.4,0.6c0.1,0.2,0.2,0.5,0.2,0.8c0,0.4-0.1,0.7-0.2,1c-0.1,0.3-0.3,0.6-0.6,0.8
					s-0.5,0.4-0.9,0.5s-0.8,0.2-1.2,0.2c-0.5,0-1-0.1-1.4-0.3c-0.4-0.2-0.8-0.4-1.1-0.7l0.3-0.5c0-0.1,0.1-0.1,0.1-0.2
					c0.1,0,0.1-0.1,0.2-0.1c0.1,0,0.2,0,0.3,0.1c0.1,0.1,0.2,0.1,0.4,0.2c0.1,0.1,0.3,0.2,0.5,0.2c0.2,0.1,0.5,0.1,0.8,0.1
					c0.3,0,0.5,0,0.7-0.1s0.4-0.2,0.5-0.3c0.1-0.1,0.2-0.2,0.3-0.4c0.1-0.2,0.1-0.3,0.1-0.5c0-0.2-0.1-0.4-0.2-0.5
					c-0.1-0.1-0.3-0.3-0.4-0.4c-0.2-0.1-0.4-0.2-0.6-0.3c-0.2-0.1-0.5-0.1-0.7-0.2c-0.2-0.1-0.5-0.2-0.7-0.3
					c-0.2-0.1-0.4-0.2-0.6-0.4c-0.2-0.2-0.3-0.3-0.4-0.6c-0.1-0.2-0.2-0.5-0.2-0.8c0-0.3,0.1-0.6,0.2-0.8c0.1-0.3,0.3-0.5,0.5-0.7
					s0.5-0.4,0.8-0.5c0.3-0.1,0.7-0.2,1.1-0.2c0.5,0,0.9,0.1,1.3,0.2s0.7,0.4,1,0.6L169.7,114.7z"/>
			</g>
			<g>
				<path class="st3" d="M177.4,121h-0.6c-0.1,0-0.2,0-0.3-0.1s-0.1-0.1-0.2-0.3l-0.1-0.7c-0.2,0.2-0.4,0.3-0.6,0.5
					s-0.4,0.3-0.6,0.4c-0.2,0.1-0.4,0.2-0.7,0.2c-0.2,0-0.5,0.1-0.8,0.1c-0.3,0-0.6,0-0.8-0.1c-0.3-0.1-0.5-0.2-0.7-0.4
					c-0.2-0.2-0.3-0.4-0.5-0.6c-0.1-0.3-0.2-0.6-0.2-0.9c0-0.3,0.1-0.6,0.2-0.9s0.4-0.5,0.8-0.7c0.4-0.2,0.8-0.4,1.4-0.5
					c0.6-0.1,1.3-0.2,2.2-0.2v-0.6c0-0.6-0.1-1-0.4-1.3c-0.3-0.3-0.6-0.5-1.1-0.5c-0.3,0-0.6,0-0.8,0.1c-0.2,0.1-0.4,0.2-0.6,0.3
					c-0.2,0.1-0.3,0.2-0.4,0.3c-0.1,0.1-0.2,0.1-0.3,0.1c-0.1,0-0.2,0-0.2-0.1c-0.1,0-0.1-0.1-0.2-0.2l-0.2-0.4
					c0.4-0.4,0.9-0.7,1.4-0.9s1-0.3,1.6-0.3c0.4,0,0.8,0.1,1.1,0.2s0.6,0.3,0.8,0.6c0.2,0.2,0.4,0.6,0.5,0.9
					c0.1,0.4,0.2,0.7,0.2,1.2V121z M173.9,120.2c0.2,0,0.5,0,0.6-0.1s0.4-0.1,0.6-0.2c0.2-0.1,0.3-0.2,0.5-0.3
					c0.2-0.1,0.3-0.3,0.5-0.4v-1.6c-0.6,0-1.1,0-1.6,0.1s-0.8,0.2-1,0.3s-0.5,0.3-0.6,0.4s-0.2,0.4-0.2,0.6c0,0.2,0,0.4,0.1,0.5
					c0.1,0.1,0.2,0.3,0.3,0.4c0.1,0.1,0.2,0.2,0.4,0.2C173.6,120.2,173.8,120.2,173.9,120.2z"/>
			</g>
			<g>
				<path class="st3" d="M182,113.3c0.3,0,0.6,0,0.9,0.1s0.5,0.2,0.8,0.3h2.1v0.5c0,0.2-0.1,0.3-0.3,0.3l-0.9,0.1
					c0.2,0.3,0.3,0.7,0.3,1.1c0,0.4-0.1,0.7-0.2,1c-0.1,0.3-0.3,0.6-0.6,0.8s-0.6,0.4-0.9,0.5c-0.3,0.1-0.7,0.2-1.1,0.2
					c-0.4,0-0.7,0-1-0.1c-0.2,0.1-0.3,0.2-0.4,0.3c-0.1,0.1-0.1,0.2-0.1,0.3c0,0.2,0.1,0.3,0.2,0.4c0.1,0.1,0.3,0.2,0.6,0.2
					c0.2,0,0.5,0.1,0.8,0.1s0.6,0,0.9,0c0.3,0,0.6,0,0.9,0.1c0.3,0.1,0.6,0.1,0.8,0.3c0.2,0.1,0.4,0.3,0.6,0.5s0.2,0.5,0.2,0.9
					c0,0.3-0.1,0.6-0.2,1s-0.4,0.6-0.7,0.8c-0.3,0.2-0.7,0.4-1.1,0.6c-0.4,0.1-0.9,0.2-1.5,0.2c-0.6,0-1-0.1-1.5-0.2s-0.8-0.3-1-0.4
					c-0.3-0.2-0.5-0.4-0.6-0.6c-0.1-0.2-0.2-0.5-0.2-0.8c0-0.4,0.1-0.7,0.4-1c0.2-0.3,0.6-0.5,1-0.6c-0.2-0.1-0.4-0.2-0.5-0.4
					c-0.1-0.2-0.2-0.4-0.2-0.7c0-0.1,0-0.2,0.1-0.3s0.1-0.2,0.2-0.3c0.1-0.1,0.2-0.2,0.3-0.3c0.1-0.1,0.3-0.2,0.4-0.3
					c-0.4-0.2-0.7-0.5-0.9-0.8s-0.3-0.8-0.3-1.2c0-0.4,0.1-0.7,0.2-1c0.1-0.3,0.3-0.6,0.6-0.8c0.3-0.2,0.6-0.4,0.9-0.5
					C181.2,113.3,181.6,113.3,182,113.3z M184.4,121.4c0-0.2-0.1-0.3-0.2-0.5c-0.1-0.1-0.2-0.2-0.4-0.3s-0.4-0.1-0.6-0.1
					s-0.5,0-0.7,0c-0.3,0-0.5,0-0.8,0s-0.5,0-0.8-0.1c-0.3,0.1-0.5,0.3-0.7,0.5c-0.2,0.2-0.3,0.4-0.3,0.7c0,0.2,0,0.3,0.1,0.5
					c0.1,0.1,0.2,0.3,0.4,0.4c0.2,0.1,0.4,0.2,0.7,0.3c0.3,0.1,0.6,0.1,1,0.1c0.4,0,0.7,0,1-0.1s0.5-0.2,0.7-0.3
					c0.2-0.1,0.3-0.3,0.5-0.4C184.3,121.8,184.4,121.6,184.4,121.4z M182,117.3c0.3,0,0.5,0,0.7-0.1s0.4-0.2,0.5-0.3
					c0.1-0.1,0.2-0.3,0.3-0.5c0.1-0.2,0.1-0.4,0.1-0.6c0-0.5-0.1-0.8-0.4-1.1c-0.3-0.3-0.7-0.4-1.2-0.4c-0.5,0-0.9,0.1-1.2,0.4
					c-0.3,0.3-0.4,0.6-0.4,1.1c0,0.2,0,0.4,0.1,0.6c0.1,0.2,0.2,0.3,0.3,0.5c0.1,0.1,0.3,0.2,0.5,0.3S181.7,117.3,182,117.3z"/>
			</g>
			<g>
				<path class="st3" d="M190.1,113.3c0.5,0,0.9,0.1,1.3,0.2c0.4,0.2,0.7,0.4,1,0.7c0.3,0.3,0.5,0.6,0.7,1.1
					c0.2,0.4,0.2,0.9,0.2,1.4c0,0.2,0,0.4-0.1,0.4c0,0.1-0.1,0.1-0.3,0.1h-5.1c0,0.5,0.1,0.9,0.2,1.3c0.1,0.4,0.3,0.7,0.5,0.9
					c0.2,0.2,0.5,0.4,0.8,0.5s0.6,0.2,1,0.2c0.3,0,0.6,0,0.9-0.1c0.2-0.1,0.5-0.2,0.6-0.3c0.2-0.1,0.3-0.2,0.4-0.3
					c0.1-0.1,0.2-0.1,0.3-0.1c0.1,0,0.2,0,0.3,0.1l0.4,0.5c-0.2,0.2-0.4,0.4-0.6,0.5s-0.5,0.3-0.7,0.4c-0.3,0.1-0.5,0.2-0.8,0.2
					c-0.3,0-0.6,0.1-0.8,0.1c-0.5,0-1-0.1-1.5-0.3c-0.4-0.2-0.8-0.4-1.1-0.8c-0.3-0.3-0.6-0.8-0.8-1.3c-0.2-0.5-0.3-1.1-0.3-1.7
					c0-0.5,0.1-1,0.2-1.5c0.2-0.5,0.4-0.9,0.7-1.2c0.3-0.3,0.7-0.6,1.1-0.8C189.1,113.4,189.6,113.3,190.1,113.3z M190.1,114.3
					c-0.6,0-1.2,0.2-1.5,0.6c-0.4,0.4-0.6,0.9-0.7,1.5h4.1c0-0.3,0-0.6-0.1-0.9s-0.2-0.5-0.4-0.7s-0.4-0.3-0.6-0.4
					C190.7,114.3,190.4,114.3,190.1,114.3z"/>
			</g>
		</g>
		<g id="HEIGHT_x23_D693A240-88A2-4CE7-ADD9-166A426512F9_1_" transform="translate(0.000000, 43.000000)">
			<g id="gap_7_">
				<g>
					<polygon class="st6" points="21,45 25,41 29,45 25,49 					"/>
				</g>
			</g>
			<g id="_x37_2_1_">
				<g>
					<polygon class="st6" points="12,38 38,38 38,53 12,53 					"/>
				</g>
			</g>
			<g id="end_1_">
				<g>
					<polygon class="st6" points="23,80 28,80 28,81 23,81 					"/>
				</g>
			</g>
			<g id="start_1_">
				<g>
					<polygon class="st6" points="23,9 28,9 28,10 23,10 					"/>
				</g>
			</g>
			<g id="line_1_">
				<g>
					<polygon class="st6" points="25,9 26,9 26,81 25,81 					"/>
				</g>
			</g>
			<g>
				<g>
					<path class="st1" d="M24.5,41.4v0.5c0,0.1,0,0.2,0,0.3c0,0.1-0.1,0.2-0.1,0.2l-3.6,7.2c-0.1,0.1-0.1,0.2-0.2,0.3
						C20.5,50,20.4,50,20.2,50h-0.8l3.6-7.1c0.1-0.1,0.1-0.2,0.2-0.3c0.1-0.1,0.1-0.2,0.2-0.2h-4.5c-0.1,0-0.1,0-0.2-0.1
						c-0.1-0.1-0.1-0.1-0.1-0.2v-0.7H24.5z"/>
				</g>
				<g>
					<path class="st1" d="M28.6,41.3c0.4,0,0.7,0.1,1,0.2c0.3,0.1,0.6,0.3,0.8,0.5c0.2,0.2,0.4,0.5,0.5,0.8c0.1,0.3,0.2,0.6,0.2,1
						c0,0.3,0,0.6-0.1,0.9s-0.2,0.5-0.4,0.8s-0.4,0.5-0.6,0.7c-0.2,0.2-0.4,0.5-0.7,0.7l-2.3,2.3c0.2,0,0.3-0.1,0.5-0.1
						c0.2,0,0.3,0,0.5,0h2.9c0.1,0,0.2,0,0.3,0.1c0.1,0.1,0.1,0.2,0.1,0.3V50h-5.7v-0.4c0-0.1,0-0.2,0-0.2s0.1-0.2,0.1-0.2l2.8-2.8
						c0.2-0.2,0.4-0.5,0.6-0.7c0.2-0.2,0.3-0.4,0.5-0.6c0.1-0.2,0.2-0.4,0.3-0.7c0.1-0.2,0.1-0.5,0.1-0.7s0-0.5-0.1-0.7
						s-0.2-0.3-0.3-0.5c-0.1-0.1-0.3-0.2-0.5-0.3c-0.2-0.1-0.4-0.1-0.6-0.1s-0.4,0-0.6,0.1c-0.2,0.1-0.3,0.2-0.5,0.3
						c-0.1,0.1-0.3,0.2-0.4,0.4c-0.1,0.2-0.2,0.3-0.2,0.5c0,0.1-0.1,0.2-0.1,0.3c-0.1,0.1-0.1,0.1-0.3,0.1c0,0,0,0-0.1,0
						c0,0,0,0-0.1,0l-0.6-0.1c0.1-0.4,0.2-0.7,0.3-1c0.2-0.3,0.4-0.6,0.6-0.8c0.2-0.2,0.5-0.4,0.8-0.5
						C27.9,41.4,28.2,41.3,28.6,41.3z"/>
				</g>
			</g>
		</g>
		<g id="Rectangle-33_5_">
			<g>
				<rect x="63" y="68" class="st7" width="16" height="4"/>
			</g>
		</g>
		<g id="Rectangle-33_4_">
			<g>
				<rect x="63" y="94" class="st7" width="16" height="12"/>
			</g>
		</g>
		
			<g id="VERTICAL_x23_B63D4B51-3854-4FC9-BF30-1AFEFCB49843_x23_05179437-3AC5-407C-B24E-74F4E8C48B2D_5_" transform="translate(27.000000, 55.000000)">
			<g id="gap_6_">
				<g>
					<polygon class="st7" points="25,15 29,11 33,15 29,19 					"/>
				</g>
			</g>
			<g id="_x34__5_">
				<g>
					<polygon class="st7" points="12.3,9 29.7,9 29.7,22 12.3,22 					"/>
				</g>
			</g>
			<g>
				<path class="st1" d="M23.4,11.9c0,0.2,0,0.3-0.1,0.4c-0.1,0.1-0.3,0.1-0.5,0.1H20l-0.4,2.3c0.4-0.1,0.9-0.1,1.2-0.1
					c0.4,0,0.8,0.1,1.2,0.2c0.3,0.1,0.6,0.3,0.9,0.5c0.2,0.2,0.4,0.5,0.5,0.8c0.1,0.3,0.2,0.7,0.2,1c0,0.5-0.1,0.9-0.2,1.2
					c-0.2,0.4-0.4,0.7-0.7,0.9c-0.3,0.3-0.6,0.5-1,0.6c-0.4,0.1-0.8,0.2-1.2,0.2c-0.3,0-0.5,0-0.7-0.1c-0.2,0-0.4-0.1-0.6-0.2
					s-0.4-0.2-0.6-0.3c-0.2-0.1-0.3-0.2-0.5-0.3l0.3-0.5c0.1-0.1,0.2-0.2,0.3-0.2c0.1,0,0.2,0,0.3,0.1c0.1,0.1,0.2,0.1,0.4,0.2
					c0.1,0.1,0.3,0.1,0.5,0.2c0.2,0.1,0.4,0.1,0.7,0.1c0.3,0,0.6,0,0.8-0.1c0.2-0.1,0.4-0.2,0.6-0.4c0.2-0.2,0.3-0.4,0.4-0.6
					s0.1-0.5,0.1-0.8c0-0.3,0-0.5-0.1-0.7c-0.1-0.2-0.2-0.4-0.4-0.6c-0.2-0.2-0.4-0.3-0.6-0.4c-0.2-0.1-0.5-0.1-0.8-0.1
					c-0.2,0-0.4,0-0.7,0.1c-0.2,0-0.5,0.1-0.7,0.2l-0.7-0.2l0.7-4h4.1V11.9z"/>
			</g>
		</g>
		
			<g id="VERTICAL_x23_B63D4B51-3854-4FC9-BF30-1AFEFCB49843_x23_05179437-3AC5-407C-B24E-74F4E8C48B2D_4_" transform="translate(27.000000, 85.000000)">
			<g id="gap_5_">
				<g>
					<polygon class="st7" points="26,16 30,12 34,16 30,20 					"/>
				</g>
			</g>
			<g id="_x34__4_">
				<g>
					<polygon class="st7" points="12,9 31,9 31,23 12,23 					"/>
				</g>
			</g>
			<g>
				<path class="st1" d="M15.4,19.9h1.8V14c0-0.2,0-0.4,0-0.5l-1.5,1.3c0,0-0.1,0.1-0.1,0.1c0,0-0.1,0-0.1,0c-0.1,0-0.1,0-0.2,0
					c0,0-0.1-0.1-0.1-0.1l-0.3-0.5l2.6-2.2h0.9v7.8H20v0.8h-4.6V19.9z"/>
				<path class="st1" d="M27.2,16.4c0,0.8-0.1,1.4-0.2,2c-0.2,0.5-0.4,1-0.7,1.4c-0.3,0.4-0.6,0.6-1,0.8s-0.8,0.3-1.2,0.3
					c-0.4,0-0.8-0.1-1.2-0.3s-0.7-0.4-1-0.8c-0.3-0.4-0.5-0.8-0.7-1.4c-0.2-0.5-0.2-1.2-0.2-2c0-0.8,0.1-1.4,0.2-2
					c0.2-0.6,0.4-1,0.7-1.4s0.6-0.6,1-0.8c0.4-0.2,0.8-0.3,1.2-0.3c0.4,0,0.8,0.1,1.2,0.3c0.4,0.2,0.7,0.4,1,0.8
					c0.3,0.4,0.5,0.8,0.7,1.4C27.1,15,27.2,15.6,27.2,16.4z M26.1,16.4c0-0.7-0.1-1.2-0.2-1.7c-0.1-0.4-0.3-0.8-0.4-1.1
					c-0.2-0.3-0.4-0.5-0.6-0.6c-0.2-0.1-0.5-0.2-0.8-0.2c-0.3,0-0.5,0.1-0.8,0.2c-0.2,0.1-0.5,0.3-0.6,0.6c-0.2,0.3-0.3,0.6-0.4,1.1
					c-0.1,0.4-0.2,1-0.2,1.7c0,0.7,0.1,1.2,0.2,1.6c0.1,0.4,0.3,0.8,0.4,1.1c0.2,0.3,0.4,0.5,0.6,0.6c0.2,0.1,0.5,0.2,0.8,0.2
					c0.3,0,0.5-0.1,0.8-0.2c0.2-0.1,0.5-0.3,0.6-0.6c0.2-0.3,0.3-0.6,0.4-1.1C26.1,17.6,26.1,17,26.1,16.4z"/>
			</g>
		</g>
	</g>
</g>
</svg>
