<svg xmlns="http://www.w3.org/2000/svg" viewBox="0 0 430 130"><defs><style>.a{fill:#ff6e6e;}.b{opacity:0.25;}.c{isolation:isolate;}.d{fill:#fa6400;}.e{fill:#fff;}.f{fill:#9b9b9b;}.g{fill:#ff0050;}</style></defs><title>form_ml</title><rect class="a" x="51.5" y="99" width="353" height="3"/><g class="b"><rect class="a" x="51" y="8" width="354" height="16"/></g><g class="b"><rect class="a" x="51" y="106" width="354" height="18"/></g><g class="b"><rect class="a" x="51" y="28" width="354" height="66"/></g><g class="c"><path class="d" d="M59.3,11.3v1.3H55.5v2.6h3.2v1.3H55.5V20H53.9V11.3h5.4Z"/><path class="d" d="M62.3,12a0.76,0.76,0,0,1-.1.4c-0.1.1-.1,0.2-0.2,0.3a0.53,0.53,0,0,1-.3.2,2.27,2.27,0,0,1-.4.1,0.76,0.76,0,0,1-.4-0.1,0.77,0.77,0,0,1-.3-0.2,0.53,0.53,0,0,1-.2-0.3,2.27,2.27,0,0,1-.1-0.4,0.6,0.6,0,0,1,.1-0.4,0.92,0.92,0,0,1,.5-0.5,2.27,2.27,0,0,1,.4-0.1,0.6,0.6,0,0,1,.4.1c0.1,0.1.2,0.1,0.3,0.2a0.53,0.53,0,0,1,.2.3A0.76,0.76,0,0,1,62.3,12Zm-0.2,1.8V20H60.6V13.8h1.5Z"/><path class="d" d="M66.3,13.7a4.25,4.25,0,0,1,1.1.2,2.18,2.18,0,0,1,.8.5,3.49,3.49,0,0,1,.6.9,3.73,3.73,0,0,1,.2,1.2v0.3a0.2,0.2,0,0,1-.1.2l-0.1.1h-4a2,2,0,0,0,.5,1.4,1.59,1.59,0,0,0,1.2.4,1.27,1.27,0,0,0,.6-0.1c0.2-.1.3-0.1,0.5-0.2s0.2-.1.3-0.2a0.37,0.37,0,0,1,.3-0.1h0.2l0.1,0.1,0.4,0.5a1.47,1.47,0,0,1-.6.5,3.33,3.33,0,0,0-.6.3,0.6,0.6,0,0,1-.6.3H66.4a5,5,0,0,1-1.2-.2,3.33,3.33,0,0,1-1-.6,2.07,2.07,0,0,1-.6-1,5.9,5.9,0,0,1-.2-1.4,5,5,0,0,1,.2-1.2,2.07,2.07,0,0,1,.6-1,5.5,5.5,0,0,1,.9-0.7A2.34,2.34,0,0,1,66.3,13.7Zm0.1,1.1a1.16,1.16,0,0,0-1,.4,3.13,3.13,0,0,0-.5,1h2.8a0.75,0.75,0,0,0-.1-0.5,1.47,1.47,0,0,0-.2-0.4A1.38,1.38,0,0,0,67,15,1.42,1.42,0,0,0,66.4,14.8Z"/><path class="d" d="M71.8,11.1V20H70.3V11.1h1.5Z"/><path class="d" d="M77.8,20a0.42,0.42,0,0,1-.4-0.3l-0.1-.6-0.4.4a2.19,2.19,0,0,1-.5.3,1.06,1.06,0,0,1-.5.2c-0.2,0-.4.1-0.6,0.1a2.92,2.92,0,0,1-.9-0.2,1.34,1.34,0,0,1-.7-0.6,3.13,3.13,0,0,1-.5-1A5.07,5.07,0,0,1,73,17a5.07,5.07,0,0,1,.2-1.3,3.13,3.13,0,0,1,.5-1,2.7,2.7,0,0,1,.8-0.7,2,2,0,0,1,1.1-.2,2.92,2.92,0,0,1,.9.2c0.2,0.1.5,0.3,0.7,0.4V11.1h1.5V20H77.8Zm-2-1.1a1.88,1.88,0,0,0,.8-0.2,2.65,2.65,0,0,0,.6-0.5V15.4c-0.2-.2-0.4-0.3-0.5-0.4a1.85,1.85,0,0,0-1.2,0,1.76,1.76,0,0,0-.5.4l-0.3.6a2.77,2.77,0,0,0-.1.9,2.22,2.22,0,0,0,.1.9,4.17,4.17,0,0,0,.2.6,0.62,0.62,0,0,0,.4.3A0.48,0.48,0,0,0,75.8,18.9Z"/><path class="d" d="M84.2,11.1V20H82.7V11.1h1.5Z"/><path class="d" d="M90.7,20H90a0.37,0.37,0,0,1-.3-0.1,0.77,0.77,0,0,1-.2-0.3l-0.1-.4c-0.2.1-.3,0.3-0.5,0.4a2.19,2.19,0,0,1-.5.3,0.9,0.9,0,0,1-.5.1c-0.2,0-.4.1-0.6,0.1a1.48,1.48,0,0,1-.7-0.1L86,19.7a1,1,0,0,1-.4-0.5,1.7,1.7,0,0,1-.1-0.7,1.85,1.85,0,0,1,.2-0.7,1.7,1.7,0,0,1,.6-0.6,11.73,11.73,0,0,1,1.1-.5,9,9,0,0,1,1.8-.2V16.1a1.22,1.22,0,0,0-.3-0.9,1,1,0,0,0-.8-0.3,1.27,1.27,0,0,0-.6.1,1.47,1.47,0,0,0-.4.2c-0.1.1-.2,0.1-0.3,0.2a0.5,0.5,0,0,1-.6,0L86,15.2l-0.3-.5a4,4,0,0,1,2.6-1,3,3,0,0,1,1,.2,1.79,1.79,0,0,1,.7.5,2,2,0,0,1,.4.8,3,3,0,0,1,.2,1V20h0.1Zm-2.9-.9h0.4a2.27,2.27,0,0,1,.4-0.1c0.1-.1.2-0.1,0.3-0.2l0.3-.3v-1a3.75,3.75,0,0,0-1.1.1,6.37,6.37,0,0,0-.7.2,1.38,1.38,0,0,0-.4.3v0.2a1.07,1.07,0,0,0,.2.6A1.42,1.42,0,0,0,87.8,19.1Z"/><path class="d" d="M92.2,20V11.1h1.5v3.5a1.56,1.56,0,0,1,.8-0.6,2,2,0,0,1,1.1-.2,2.92,2.92,0,0,1,.9.2,1.34,1.34,0,0,1,.7.6,3.13,3.13,0,0,1,.5,1,5.07,5.07,0,0,1,.2,1.3,5.07,5.07,0,0,1-.2,1.3,3.13,3.13,0,0,1-.5,1,2.7,2.7,0,0,1-.8.7,2,2,0,0,1-1.1.2,0.75,0.75,0,0,1-.5-0.1,0.52,0.52,0,0,1-.4-0.2,0.52,0.52,0,0,0-.4-0.2,0.45,0.45,0,0,1-.3-0.3l-0.1.4a0.35,0.35,0,0,1-.1.2c-0.1,0-.1.1-0.2,0.1H92.2ZM95,14.9a1.88,1.88,0,0,0-.8.2,2.65,2.65,0,0,0-.6.5v2.8a1.4,1.4,0,0,0,.5.4,1.85,1.85,0,0,0,1.2,0,1.76,1.76,0,0,0,.5-0.4,4.88,4.88,0,0,0,.3-0.7,2.77,2.77,0,0,0,.1-0.9,2.22,2.22,0,0,0-.1-0.9,4.17,4.17,0,0,0-.2-0.6,0.42,0.42,0,0,0-.4-0.3C95.3,15,95.2,14.9,95,14.9Z"/><path class="d" d="M101.5,13.7a4.25,4.25,0,0,1,1.1.2,2.18,2.18,0,0,1,.8.5,3.49,3.49,0,0,1,.6.9,3.73,3.73,0,0,1,.2,1.2v0.3a0.2,0.2,0,0,1-.1.2l-0.1.1h-4a2,2,0,0,0,.5,1.4,1.59,1.59,0,0,0,1.2.4,1.27,1.27,0,0,0,.6-0.1c0.2-.1.3-0.1,0.5-0.2s0.2-.1.3-0.2a0.37,0.37,0,0,1,.3-0.1h0.2l0.1,0.1,0.4,0.5a1.47,1.47,0,0,1-.6.5l-0.6.3a6.37,6.37,0,0,1-.7.2,1.63,1.63,0,0,1-.7,0,5,5,0,0,1-1.2-.2,3.33,3.33,0,0,1-1-.6,1.7,1.7,0,0,1-.6-1,3.18,3.18,0,0,1-.2-1.4,5,5,0,0,1,.2-1.2,2.07,2.07,0,0,1,.6-1,5.5,5.5,0,0,1,.9-0.7C100.7,13.8,101.1,13.7,101.5,13.7Zm0.1,1.1a1.16,1.16,0,0,0-1,.4,3.13,3.13,0,0,0-.5,1h2.8a0.75,0.75,0,0,0-.1-0.5,1.47,1.47,0,0,0-.2-0.4,1.38,1.38,0,0,0-.4-0.3A1.42,1.42,0,0,0,101.6,14.8Z"/><path class="d" d="M107,11.1V20h-1.5V11.1H107Z"/></g><g class="c"><path class="e" d="M65,46H63.2V40.1H56.3V46H54.5V33.1h1.8v5.8h6.9V33.1H65V46Z"/><path class="e" d="M74.6,46H73.9a0.48,0.48,0,0,1-.4-0.1,0.25,0.25,0,0,1-.2-0.3l-0.2-.8c-0.2.2-.5,0.4-0.7,0.6a2.51,2.51,0,0,1-.7.4c-0.3.1-.5,0.2-0.8,0.3a5.05,5.05,0,0,1-2,0,2,2,0,0,1-.8-0.4,2.18,2.18,0,0,1-.5-0.8,3.59,3.59,0,0,1-.2-1.1,1.69,1.69,0,0,1,.3-1,3,3,0,0,1,1-.9,4.28,4.28,0,0,1,1.7-.6,10.17,10.17,0,0,1,2.6-.2V40.4a2.35,2.35,0,0,0-.5-1.6,1.54,1.54,0,0,0-1.3-.5,3.08,3.08,0,0,0-1,.1,4.87,4.87,0,0,0-.7.3,2.19,2.19,0,0,0-.5.3,0.6,0.6,0,0,1-.4.1,0.37,0.37,0,0,1-.3-0.1l-0.2-.2-0.3-.5a5.72,5.72,0,0,1,1.6-1.1,4.06,4.06,0,0,1,1.9-.4,3.19,3.19,0,0,1,1.4.3,3.59,3.59,0,0,1,1,.7,2.38,2.38,0,0,1,.6,1.1,5.9,5.9,0,0,1,.2,1.4V46h0.1Zm-4.1-1a2.2,2.2,0,0,0,.8-0.1c0.2-.1.5-0.1,0.7-0.2a2.09,2.09,0,0,0,.6-0.4,2.65,2.65,0,0,0,.6-0.5V41.9a10.89,10.89,0,0,0-1.9.1,5,5,0,0,0-1.3.4,1.5,1.5,0,0,0-1,1.2,1.08,1.08,0,0,0,.1.6c0.1,0.1.2,0.3,0.3,0.4a0.76,0.76,0,0,0,.5.2A0.73,0.73,0,0,0,70.5,45Z"/><path class="e" d="M77,49.1V36.9h1a0.35,0.35,0,0,1,.4.3l0.1,1.1a3.34,3.34,0,0,1,1.3-1.1,4.71,4.71,0,0,1,1.7-.4,3.19,3.19,0,0,1,1.4.3A3.13,3.13,0,0,1,84,38a5.23,5.23,0,0,1,.7,1.5,6.48,6.48,0,0,1,.2,2,5.82,5.82,0,0,1-.3,1.9,3.61,3.61,0,0,1-.8,1.5,3.78,3.78,0,0,1-1.2,1,4.26,4.26,0,0,1-1.7.4,2.9,2.9,0,0,1-1.4-.3,2.84,2.84,0,0,1-1.1-.8v4H77V49.1ZM81.1,38a2.3,2.3,0,0,0-1.4.4,5.24,5.24,0,0,0-1.1,1v4.4a1.89,1.89,0,0,0,1,.8,2.34,2.34,0,0,0,1.2.2,2.52,2.52,0,0,0,2-.9,4,4,0,0,0,.7-2.6,6.05,6.05,0,0,0-.2-1.5,2.34,2.34,0,0,0-.5-1,1.34,1.34,0,0,0-.7-0.6A3,3,0,0,0,81.1,38Z"/><path class="e" d="M87,49.1V36.9h1a0.35,0.35,0,0,1,.4.3l0.1,1.1a3.34,3.34,0,0,1,1.3-1.1,4.71,4.71,0,0,1,1.7-.4,3.19,3.19,0,0,1,1.4.3A3.13,3.13,0,0,1,94,38a5.23,5.23,0,0,1,.7,1.5,6.48,6.48,0,0,1,.2,2,5.82,5.82,0,0,1-.3,1.9,3.61,3.61,0,0,1-.8,1.5,3.78,3.78,0,0,1-1.2,1,4.26,4.26,0,0,1-1.7.4,2.9,2.9,0,0,1-1.4-.3,2.84,2.84,0,0,1-1.1-.8v4H87V49.1ZM91,38a2.3,2.3,0,0,0-1.4.4,5.24,5.24,0,0,0-1.1,1v4.4a1.89,1.89,0,0,0,1,.8,2.34,2.34,0,0,0,1.2.2,2.52,2.52,0,0,0,2-.9,4,4,0,0,0,.7-2.6,6.05,6.05,0,0,0-.2-1.5,2.34,2.34,0,0,0-.5-1,1.34,1.34,0,0,0-.7-0.6A3,3,0,0,0,91,38Z"/><path class="e" d="M99.1,34a0.48,0.48,0,0,1-.1.4,1,1,0,0,1-.3.4,0.52,0.52,0,0,1-.4.2,0.6,0.6,0,0,1-.4.1,0.48,0.48,0,0,1-.4-0.1c-0.1-.1-0.3-0.1-0.4-0.2a0.52,0.52,0,0,1-.2-0.4,0.6,0.6,0,0,1-.1-0.4,0.48,0.48,0,0,1,.1-0.4c0.1-.1.1-0.3,0.2-0.4a0.52,0.52,0,0,1,.4-0.2,0.6,0.6,0,0,1,.4-0.1,0.48,0.48,0,0,1,.4.1c0.1,0.1.3,0.1,0.4,0.2a1.38,1.38,0,0,1,.3.4C99,33.7,99.1,33.9,99.1,34Zm-0.4,2.9V46H97.1V36.9h1.6Z"/><path class="e" d="M101.5,46V36.9h1a0.35,0.35,0,0,1,.4.3l0.1,1a6.89,6.89,0,0,1,1.3-1.1,3.29,3.29,0,0,1,1.7-.4,5.07,5.07,0,0,1,1.3.2,2.29,2.29,0,0,1,1,.7,3.88,3.88,0,0,1,.6,1.1,5.9,5.9,0,0,1,.2,1.4V46h-1.6V40.2a2.54,2.54,0,0,0-.5-1.6,1.68,1.68,0,0,0-1.4-.6,2.77,2.77,0,0,0-1.3.3,3.13,3.13,0,0,0-1.1.9V46h-1.7Z"/><path class="e" d="M115.1,36.7a4,4,0,0,1,1.5.3,2.55,2.55,0,0,1,1.2.8,5.67,5.67,0,0,1,.8,1.3,4.67,4.67,0,0,1,.3,1.7,0.62,0.62,0,0,1-.1.5,0.37,0.37,0,0,1-.3.1h-6.1a6.05,6.05,0,0,0,.2,1.5,2.44,2.44,0,0,0,1.5,1.7,3.73,3.73,0,0,0,1.2.2,3.08,3.08,0,0,0,1-.1c0.3-.1.5-0.2,0.8-0.3a2.19,2.19,0,0,0,.5-0.3A0.6,0.6,0,0,1,118,44a0.53,0.53,0,0,1,.3.2l0.4,0.6a4.35,4.35,0,0,1-.7.6,3.55,3.55,0,0,1-.9.4c-0.3.1-.6,0.2-1,0.3a3.4,3.4,0,0,1-1,.1,4.67,4.67,0,0,1-1.7-.3A4.19,4.19,0,0,1,112,45a3.77,3.77,0,0,1-.9-1.5,6.65,6.65,0,0,1-.3-2.1,5.66,5.66,0,0,1,.3-1.8,4.68,4.68,0,0,1,.8-1.4,6.42,6.42,0,0,1,1.3-1A4.89,4.89,0,0,1,115.1,36.7Zm0.1,1.2a2.14,2.14,0,0,0-1.8.7,3.34,3.34,0,0,0-.8,1.9h5a3,3,0,0,0-.2-1,2.18,2.18,0,0,0-.5-0.8,1.79,1.79,0,0,0-.7-0.5A3.81,3.81,0,0,0,115.2,37.9Z"/><path class="e" d="M126.2,38.4a0.53,0.53,0,0,1-.3.2,0.37,0.37,0,0,1-.3-0.1c-0.1-.1-0.3-0.1-0.4-0.2a1.42,1.42,0,0,0-.6-0.2,2,2,0,0,0-.8-0.1,1.48,1.48,0,0,0-.7.1l-0.6.3a1.51,1.51,0,0,0-.4.4,0.9,0.9,0,0,0-.1.5,1.42,1.42,0,0,0,.2.6,1,1,0,0,0,.5.4,6.89,6.89,0,0,0,.8.3l0.9,0.3,0.9,0.3a3.51,3.51,0,0,1,.8.5,1.79,1.79,0,0,1,.5.7,2.92,2.92,0,0,1,.2.9,5,5,0,0,1-.2,1.2,2.18,2.18,0,0,1-.7.9,2.38,2.38,0,0,1-1.1.6,3.42,3.42,0,0,1-1.5.2,4.67,4.67,0,0,1-1.7-.3,4.11,4.11,0,0,1-1.3-.8l0.4-.6a0.38,0.38,0,0,1,.2-0.2,0.5,0.5,0,0,1,.6,0c0.1,0.1.3,0.2,0.4,0.3l0.6,0.3a2.22,2.22,0,0,0,.9.1,2,2,0,0,0,.8-0.1l0.6-.3a0.55,0.55,0,0,0,.3-0.5,1.27,1.27,0,0,0,.1-0.6,0.85,0.85,0,0,0-.2-0.6,2.18,2.18,0,0,0-.5-0.4,6.89,6.89,0,0,0-.8-0.3l-0.9-.3-0.9-.3a3.51,3.51,0,0,1-.8-0.5,1.79,1.79,0,0,1-.5-0.7,3,3,0,0,1-.2-1,3.55,3.55,0,0,1,.2-1,2.41,2.41,0,0,1,.6-0.8,8.79,8.79,0,0,1,1-.6,5.9,5.9,0,0,1,1.4-.2,4.15,4.15,0,0,1,1.6.3,2.55,2.55,0,0,1,1.2.8Z"/><path class="e" d="M134,38.4a0.53,0.53,0,0,1-.3.2,0.37,0.37,0,0,1-.3-0.1c-0.1-.1-0.3-0.1-0.4-0.2a1.07,1.07,0,0,0-.6-0.2,2,2,0,0,0-.8-0.1,1.48,1.48,0,0,0-.7.1l-0.6.3a1.51,1.51,0,0,0-.4.4,0.9,0.9,0,0,0-.1.5,1.42,1.42,0,0,0,.2.6,1,1,0,0,0,.5.4,6.89,6.89,0,0,0,.8.3l0.9,0.3,0.9,0.3a3.51,3.51,0,0,1,.8.5,1.79,1.79,0,0,1,.5.7,2.92,2.92,0,0,1,.2.9,5,5,0,0,1-.2,1.2,2.18,2.18,0,0,1-.7.9,2.38,2.38,0,0,1-1.1.6,3.42,3.42,0,0,1-1.5.2,4.67,4.67,0,0,1-1.7-.3,4.11,4.11,0,0,1-1.3-.8l0.4-.6a0.38,0.38,0,0,1,.2-0.2c0.1,0,.2-0.1.3-0.1a0.37,0.37,0,0,1,.3.1c0.1,0.1.3,0.2,0.4,0.3l0.6,0.3a2.22,2.22,0,0,0,.9.1,2,2,0,0,0,.8-0.1l0.6-.3a0.55,0.55,0,0,0,.3-0.5,1.27,1.27,0,0,0,.1-0.6,0.85,0.85,0,0,0-.2-0.6,2.18,2.18,0,0,0-.5-0.4,6.89,6.89,0,0,0-.8-0.3l-0.9-.3-0.9-.3a3.51,3.51,0,0,1-.8-0.5,1.79,1.79,0,0,1-.5-0.7,3,3,0,0,1-.2-1,3.55,3.55,0,0,1,.2-1,2.41,2.41,0,0,1,.6-0.8,8.79,8.79,0,0,1,1-.6,5.9,5.9,0,0,1,1.4-.2,4.15,4.15,0,0,1,1.6.3,2.55,2.55,0,0,1,1.2.8Z"/><path class="e" d="M138.9,36.9h1.3a0.37,0.37,0,0,1,.3.1l0.2,0.2,1.7,5.9c0,0.2.1,0.4,0.1,0.6s0.1,0.4.1,0.6a1.42,1.42,0,0,1,.2-0.6c0.1-.2.1-0.4,0.2-0.6l1.9-5.9a0.22,0.22,0,0,1,.2-0.2,0.37,0.37,0,0,1,.3-0.1h0.7a0.37,0.37,0,0,1,.3.1l0.2,0.2,1.9,5.9c0.1,0.2.1,0.4,0.2,0.6a1.27,1.27,0,0,1,.1.6c0-.2.1-0.4,0.1-0.6a1.42,1.42,0,0,1,.2-0.6l1.8-5.9a0.22,0.22,0,0,1,.2-0.2,0.37,0.37,0,0,1,.3-0.1h1.2l-3,9.1h-1.3a0.27,0.27,0,0,1-.3-0.3l-2-6.2c0-.1-0.1-0.3-0.1-0.4s-0.1-.3-0.1-0.4c0,0.1-.1.3-0.1,0.4s-0.1.3-.1,0.4l-2,6.2a0.42,0.42,0,0,1-.4.3H142Z"/><path class="e" d="M156,34a0.48,0.48,0,0,1-.1.4,1,1,0,0,1-.3.4,0.52,0.52,0,0,1-.4.2,0.85,0.85,0,0,1-.8,0c-0.1-.1-0.3-0.1-0.4-0.2a0.52,0.52,0,0,1-.2-0.4,0.6,0.6,0,0,1-.1-0.4,0.48,0.48,0,0,1,.1-0.4c0.1-.1.1-0.3,0.2-0.4a0.52,0.52,0,0,1,.4-0.2,0.85,0.85,0,0,1,.8,0c0.1,0.1.3,0.1,0.4,0.2a1.38,1.38,0,0,1,.3.4A0.6,0.6,0,0,1,156,34Zm-0.4,2.9V46H154V36.9h1.6Z"/><path class="e" d="M160.2,32.7V46h-1.6V32.7h1.6Z"/><path class="e" d="M164.9,32.7V46h-1.6V32.7h1.6Z"/><path class="e" d="M171.2,46V36.9h1a0.35,0.35,0,0,1,.4.3l0.1,1a6.89,6.89,0,0,1,1.3-1.1,3.29,3.29,0,0,1,1.7-.4,5.07,5.07,0,0,1,1.3.2,2.29,2.29,0,0,1,1,.7,3.88,3.88,0,0,1,.6,1.1,5.9,5.9,0,0,1,.2,1.4V46h-1.6V40.2a2.54,2.54,0,0,0-.5-1.6,1.68,1.68,0,0,0-1.4-.6,2.77,2.77,0,0,0-1.3.3,3.13,3.13,0,0,0-1.1.9V46h-1.7Z"/><path class="e" d="M184.8,36.7a4,4,0,0,1,1.5.3,2.55,2.55,0,0,1,1.2.8,5.67,5.67,0,0,1,.8,1.3,4.67,4.67,0,0,1,.3,1.7,0.62,0.62,0,0,1-.1.5,0.37,0.37,0,0,1-.3.1h-6.1a6.05,6.05,0,0,0,.2,1.5,2.44,2.44,0,0,0,1.5,1.7,3.73,3.73,0,0,0,1.2.2,3.08,3.08,0,0,0,1-.1c0.3-.1.5-0.2,0.8-0.3a2.19,2.19,0,0,0,.5-0.3,0.6,0.6,0,0,1,.4-0.1,0.53,0.53,0,0,1,.3.2l0.4,0.6a4.35,4.35,0,0,1-.7.6,3.55,3.55,0,0,1-.9.4c-0.3.1-.6,0.2-1,0.3a3.4,3.4,0,0,1-1,.1,4.67,4.67,0,0,1-1.7-.3,4.19,4.19,0,0,1-1.4-.9,3.77,3.77,0,0,1-.9-1.5,6.65,6.65,0,0,1-.3-2.1,5.66,5.66,0,0,1,.3-1.8,4.68,4.68,0,0,1,.8-1.4,6.42,6.42,0,0,1,1.3-1A4.14,4.14,0,0,1,184.8,36.7Zm0,1.2a2.14,2.14,0,0,0-1.8.7,3.34,3.34,0,0,0-.8,1.9h5a3,3,0,0,0-.2-1,2.18,2.18,0,0,0-.5-0.8,1.79,1.79,0,0,0-.7-0.5A2.93,2.93,0,0,0,184.8,37.9Z"/><path class="e" d="M189.2,36.9h1.3a0.37,0.37,0,0,1,.3.1l0.2,0.2,2.3,5.9a1.42,1.42,0,0,1,.2.6c0,0.2.1,0.4,0.1,0.6a1.42,1.42,0,0,1,.2-0.6c0.1-.2.1-0.4,0.2-0.6l2.3-5.9a0.22,0.22,0,0,1,.2-0.2,0.37,0.37,0,0,1,.3-0.1h1.3L194.4,46H193Z"/><path class="e" d="M202.9,36.7a3.65,3.65,0,0,1,1.5.3,2.55,2.55,0,0,1,1.2.8,5.67,5.67,0,0,1,.8,1.3,4.67,4.67,0,0,1,.3,1.7,0.62,0.62,0,0,1-.1.5,0.37,0.37,0,0,1-.3.1h-6.1a6.05,6.05,0,0,0,.2,1.5,2.44,2.44,0,0,0,1.5,1.7,3.73,3.73,0,0,0,1.2.2,3.08,3.08,0,0,0,1-.1c0.3-.1.5-0.2,0.8-0.3a2.19,2.19,0,0,0,.5-0.3,0.6,0.6,0,0,1,.4-0.1,0.53,0.53,0,0,1,.3.2l0.5,0.6a4.35,4.35,0,0,1-.7.6,3.55,3.55,0,0,1-.9.4c-0.3.1-.6,0.2-1,0.3a3.4,3.4,0,0,1-1,.1,4.67,4.67,0,0,1-1.7-.3,4.19,4.19,0,0,1-1.4-.9,3.77,3.77,0,0,1-.9-1.5,6.65,6.65,0,0,1-.3-2.1,5.66,5.66,0,0,1,.3-1.8,4.68,4.68,0,0,1,.8-1.4,6.42,6.42,0,0,1,1.3-1A4.07,4.07,0,0,1,202.9,36.7Zm0.1,1.2a2.14,2.14,0,0,0-1.8.7,3.34,3.34,0,0,0-.8,1.9h5a3,3,0,0,0-.2-1,2.18,2.18,0,0,0-.5-0.8,1.79,1.79,0,0,0-.7-0.5A1.69,1.69,0,0,0,203,37.9Z"/><path class="e" d="M208.8,46V36.9h0.9a0.48,0.48,0,0,1,.4.1,0.37,0.37,0,0,1,.1.3l0.1,1.4a4.43,4.43,0,0,1,1.2-1.5,2.35,2.35,0,0,1,1.6-.5,1.48,1.48,0,0,1,.7.1c0.2,0.1.4,0.1,0.6,0.2l-0.2,1.2a0.25,0.25,0,0,1-.3.2,0.76,0.76,0,0,1-.4-0.1,1.48,1.48,0,0,0-.7-0.1,2.17,2.17,0,0,0-1.4.5,2.84,2.84,0,0,0-.9,1.4V46h-1.7Z"/><path class="e" d="M225.7,38.5c0,0.1-.1.1-0.1,0.2a0.35,0.35,0,0,1-.2.1,0.37,0.37,0,0,1-.3-0.1,0.52,0.52,0,0,0-.4-0.2,1.42,1.42,0,0,0-.6-0.2c-0.2,0-.5-0.1-0.9-0.1a5,5,0,0,0-1.2.2,5.5,5.5,0,0,0-.9.7,3.7,3.7,0,0,0-.5,1.1,5.9,5.9,0,0,0-.2,1.4,6.8,6.8,0,0,0,.2,1.5,3.7,3.7,0,0,0,.5,1.1,2.7,2.7,0,0,0,.8.7,2,2,0,0,0,1.1.2,3.08,3.08,0,0,0,1-.1,1.63,1.63,0,0,0,.6-0.3,1.38,1.38,0,0,0,.4-0.3,0.37,0.37,0,0,1,.3-0.1,0.53,0.53,0,0,1,.3.2l0.4,0.6a4.18,4.18,0,0,1-1.5,1.1,5.82,5.82,0,0,1-1.9.3,4.15,4.15,0,0,1-1.6-.3,3.81,3.81,0,0,1-1.3-.9,5.43,5.43,0,0,1-.9-1.5,4.23,4.23,0,0,1-.3-2,5.82,5.82,0,0,1,.3-1.9,5.3,5.3,0,0,1,.8-1.5,4.49,4.49,0,0,1,1.3-1,4.78,4.78,0,0,1,1.8-.4,4.67,4.67,0,0,1,1.7.3,3.81,3.81,0,0,1,1.3.9v0.3Z"/><path class="e" d="M231.6,36.7a4.84,4.84,0,0,1,1.8.3,4.19,4.19,0,0,1,1.4.9,3.77,3.77,0,0,1,.9,1.5,5.82,5.82,0,0,1,.3,1.9,5.41,5.41,0,0,1-.3,1.9,3.77,3.77,0,0,1-.9,1.5,3.39,3.39,0,0,1-1.4.9,5.55,5.55,0,0,1-3.6,0,4.19,4.19,0,0,1-1.4-.9,3.77,3.77,0,0,1-.9-1.5,5.82,5.82,0,0,1-.3-1.9,5.41,5.41,0,0,1,.3-1.9,3.77,3.77,0,0,1,.9-1.5,3.39,3.39,0,0,1,1.4-.9A4.84,4.84,0,0,1,231.6,36.7Zm0,8.2a2.26,2.26,0,0,0,2-.9,4.37,4.37,0,0,0,.7-2.5,3.73,3.73,0,0,0-.7-2.5,2.26,2.26,0,0,0-2-.9,3.73,3.73,0,0,0-1.2.2,2.7,2.7,0,0,0-.8.7,3.7,3.7,0,0,0-.5,1.1,6.05,6.05,0,0,0-.2,1.5,5.21,5.21,0,0,0,.2,1.4,3.7,3.7,0,0,0,.5,1.1,2.7,2.7,0,0,0,.8.7C230.7,44.8,231.1,44.9,231.6,44.9Z"/><path class="e" d="M237.9,46V36.9h1a0.35,0.35,0,0,1,.4.3l0.1,0.9a3.46,3.46,0,0,1,1.1-1,2.41,2.41,0,0,1,1.5-.4,2.46,2.46,0,0,1,1.5.5,2.19,2.19,0,0,1,.8,1.4,4.05,4.05,0,0,1,.5-0.9,2,2,0,0,1,.7-0.6,1.33,1.33,0,0,1,.8-0.3,2.77,2.77,0,0,1,.9-0.1,5.07,5.07,0,0,1,1.3.2,3.59,3.59,0,0,1,1,.7,2.38,2.38,0,0,1,.6,1.1,6.05,6.05,0,0,1,.2,1.5V46h-1.6V40.2a2.35,2.35,0,0,0-.5-1.6,1.68,1.68,0,0,0-1.4-.6,2.2,2.2,0,0,0-.8.1,2.09,2.09,0,0,0-.6.4,1.61,1.61,0,0,0-.4.7,3,3,0,0,0-.2,1V46h-1.6V40.2a2.36,2.36,0,0,0-.4-1.6,1.43,1.43,0,0,0-1.3-.5,2,2,0,0,0-1.1.3,2.58,2.58,0,0,0-.9.9V46h-1.6Z"/><path class="e" d="M256.3,36.7a3.65,3.65,0,0,1,1.5.3,2.55,2.55,0,0,1,1.2.8,5.67,5.67,0,0,1,.8,1.3,4.67,4.67,0,0,1,.3,1.7,0.62,0.62,0,0,1-.1.5,0.37,0.37,0,0,1-.3.1h-6.1a6.05,6.05,0,0,0,.2,1.5,2.44,2.44,0,0,0,1.5,1.7,3.73,3.73,0,0,0,1.2.2,3.08,3.08,0,0,0,1-.1c0.3-.1.5-0.2,0.8-0.3a2.19,2.19,0,0,0,.5-0.3,0.6,0.6,0,0,1,.4-0.1,0.53,0.53,0,0,1,.3.2l0.5,0.6a4.35,4.35,0,0,1-.7.6,3.55,3.55,0,0,1-.9.4c-0.3.1-.6,0.2-1,0.3a3.4,3.4,0,0,1-1,.1,4.67,4.67,0,0,1-1.7-.3,4.19,4.19,0,0,1-1.4-.9,3.77,3.77,0,0,1-.9-1.5,6.65,6.65,0,0,1-.3-2.1,5.66,5.66,0,0,1,.3-1.8,4.68,4.68,0,0,1,.8-1.4,6.42,6.42,0,0,1,1.3-1A3.45,3.45,0,0,1,256.3,36.7Zm0,1.2a2.14,2.14,0,0,0-1.8.7,3.34,3.34,0,0,0-.8,1.9h5a3,3,0,0,0-.2-1,2.18,2.18,0,0,0-.5-0.8,1.79,1.79,0,0,0-.7-0.5A1.69,1.69,0,0,0,256.3,37.9Z"/><path class="e" d="M268.4,46.1a2.09,2.09,0,0,1-2.3-2.3V38.2H265c-0.1,0-.2,0-0.2-0.1a0.28,0.28,0,0,1-.1-0.3V37.2l1.5-.2,0.4-2.8a0.35,0.35,0,0,1,.1-0.2,0.28,0.28,0,0,1,.3-0.1h0.8V37h2.6v1.2h-2.6v5.5a1.22,1.22,0,0,0,.3.9,0.91,0.91,0,0,0,.7.3,0.48,0.48,0,0,0,.4-0.1,0.37,0.37,0,0,1,.3-0.1,0.31,0.31,0,0,1,.2-0.1c0.1,0,.1-0.1.2-0.1a0.22,0.22,0,0,1,.2.2l0.5,0.8a2.07,2.07,0,0,1-1,.6h-1.2Z"/><path class="e" d="M276,36.7a4.84,4.84,0,0,1,1.8.3,4.19,4.19,0,0,1,1.4.9,3.77,3.77,0,0,1,.9,1.5,5.82,5.82,0,0,1,.3,1.9,5.41,5.41,0,0,1-.3,1.9,4.62,4.62,0,0,1-.9,1.5,3.39,3.39,0,0,1-1.4.9,5.55,5.55,0,0,1-3.6,0,4.19,4.19,0,0,1-1.4-.9,3.77,3.77,0,0,1-.9-1.5,5.82,5.82,0,0,1-.3-1.9,5.41,5.41,0,0,1,.3-1.9,3.77,3.77,0,0,1,.9-1.5,3.39,3.39,0,0,1,1.4-.9A4.84,4.84,0,0,1,276,36.7Zm0,8.2a2.26,2.26,0,0,0,2-.9,4.37,4.37,0,0,0,.7-2.5A3.73,3.73,0,0,0,278,39a2.26,2.26,0,0,0-2-.9,3.73,3.73,0,0,0-1.2.2,2.7,2.7,0,0,0-.8.7,3.7,3.7,0,0,0-.5,1.1,6.05,6.05,0,0,0-.2,1.5,5.21,5.21,0,0,0,.2,1.4,3.7,3.7,0,0,0,.5,1.1,2.7,2.7,0,0,0,.8.7C275.1,44.8,275.5,44.9,276,44.9Z"/><path class="e" d="M288.6,46.1a2.09,2.09,0,0,1-2.3-2.3V38.2h-1.1c-0.1,0-.2,0-0.2-0.1a0.28,0.28,0,0,1-.1-0.3V37.2l1.5-.2,0.4-2.8a0.35,0.35,0,0,1,.1-0.2,0.28,0.28,0,0,1,.3-0.1H288V37h2.6v1.2H288v5.5a1.22,1.22,0,0,0,.3.9,0.91,0.91,0,0,0,.7.3,0.48,0.48,0,0,0,.4-0.1,0.37,0.37,0,0,1,.3-0.1,0.31,0.31,0,0,1,.2-0.1,0.35,0.35,0,0,1,.2-0.1,0.22,0.22,0,0,1,.2.2l0.5,0.8a2.07,2.07,0,0,1-1,.6h-1.2Z"/><path class="e" d="M292.5,46V32.7h1.6v5.4a6.42,6.42,0,0,1,1.3-1,4.19,4.19,0,0,1,1.6-.4,5.07,5.07,0,0,1,1.3.2,2.29,2.29,0,0,1,1,.7,3.88,3.88,0,0,1,.6,1.1,5.9,5.9,0,0,1,.2,1.4V46h-1.6V40.2a2.54,2.54,0,0,0-.5-1.6,1.68,1.68,0,0,0-1.4-.6,2.77,2.77,0,0,0-1.3.3,3.13,3.13,0,0,0-1.1.9V46h-1.7Z"/><path class="e" d="M306.2,36.7a4.84,4.84,0,0,1,1.8.3,4.19,4.19,0,0,1,1.4.9,3.77,3.77,0,0,1,.9,1.5,5.82,5.82,0,0,1,.3,1.9,5.41,5.41,0,0,1-.3,1.9,3.77,3.77,0,0,1-.9,1.5,3.39,3.39,0,0,1-1.4.9,5.55,5.55,0,0,1-3.6,0,4.19,4.19,0,0,1-1.4-.9,3.77,3.77,0,0,1-.9-1.5,5.82,5.82,0,0,1-.3-1.9,5.41,5.41,0,0,1,.3-1.9,3.77,3.77,0,0,1,.9-1.5,3.39,3.39,0,0,1,1.4-.9A4.84,4.84,0,0,1,306.2,36.7Zm0,8.2a2.26,2.26,0,0,0,2-.9,4.37,4.37,0,0,0,.7-2.5,3.73,3.73,0,0,0-.7-2.5,2.26,2.26,0,0,0-2-.9,3.73,3.73,0,0,0-1.2.2,2.7,2.7,0,0,0-.8.7,3.7,3.7,0,0,0-.5,1.1,6.05,6.05,0,0,0-.2,1.5,5.21,5.21,0,0,0,.2,1.4,3.7,3.7,0,0,0,.5,1.1,2.7,2.7,0,0,0,.8.7C305.4,44.8,305.7,44.9,306.2,44.9Z"/><path class="e" d="M317.7,38.4a0.53,0.53,0,0,1-.3.2,0.37,0.37,0,0,1-.3-0.1c-0.1-.1-0.3-0.1-0.4-0.2a1.42,1.42,0,0,0-.6-0.2,2,2,0,0,0-.8-0.1,1.48,1.48,0,0,0-.7.1l-0.6.3a1.51,1.51,0,0,0-.4.4,0.9,0.9,0,0,0-.1.5,1.42,1.42,0,0,0,.2.6,1,1,0,0,0,.5.4,6.89,6.89,0,0,0,.8.3l0.9,0.3,0.9,0.3a3.51,3.51,0,0,1,.8.5,1.79,1.79,0,0,1,.5.7,2.92,2.92,0,0,1,.2.9,5,5,0,0,1-.2,1.2,1.6,1.6,0,0,1-.7.9,2.38,2.38,0,0,1-1.1.6,3.42,3.42,0,0,1-1.5.2,4.67,4.67,0,0,1-1.7-.3,4.11,4.11,0,0,1-1.3-.8l0.4-.6a0.38,0.38,0,0,1,.2-0.2,0.5,0.5,0,0,1,.6,0c0.1,0.1.3,0.2,0.4,0.3l0.6,0.3a2.22,2.22,0,0,0,.9.1,2,2,0,0,0,.8-0.1l0.6-.3a0.55,0.55,0,0,0,.3-0.5,1.27,1.27,0,0,0,.1-0.6,0.85,0.85,0,0,0-.2-0.6,1,1,0,0,0-.5-0.4,6.89,6.89,0,0,0-.8-0.3l-0.9-.3-0.9-.3a3.51,3.51,0,0,1-.8-0.5,1.79,1.79,0,0,1-.5-0.7,3,3,0,0,1-.2-1,3.55,3.55,0,0,1,.2-1,2.41,2.41,0,0,1,.6-0.8,8.79,8.79,0,0,1,1-.6,5.9,5.9,0,0,1,1.4-.2,4.15,4.15,0,0,1,1.6.3,2.55,2.55,0,0,1,1.2.8Z"/><path class="e" d="M323.9,36.7a3.65,3.65,0,0,1,1.5.3,2.55,2.55,0,0,1,1.2.8,5.67,5.67,0,0,1,.8,1.3,4.67,4.67,0,0,1,.3,1.7,0.62,0.62,0,0,1-.1.5,0.37,0.37,0,0,1-.3.1h-6.1a6.05,6.05,0,0,0,.2,1.5,2.44,2.44,0,0,0,1.5,1.7,3.73,3.73,0,0,0,1.2.2,3.08,3.08,0,0,0,1-.1c0.3-.1.5-0.2,0.8-0.3a2.19,2.19,0,0,0,.5-0.3,0.6,0.6,0,0,1,.4-0.1,0.53,0.53,0,0,1,.3.2l0.5,0.6a4.35,4.35,0,0,1-.7.6,3.55,3.55,0,0,1-.9.4c-0.3.1-.6,0.2-1,0.3a3.4,3.4,0,0,1-1,.1,4.67,4.67,0,0,1-1.7-.3,4.19,4.19,0,0,1-1.4-.9,3.77,3.77,0,0,1-.9-1.5,6.65,6.65,0,0,1-.3-2.1,5.66,5.66,0,0,1,.3-1.8,4.68,4.68,0,0,1,.8-1.4,6.42,6.42,0,0,1,1.3-1A4.08,4.08,0,0,1,323.9,36.7Zm0.1,1.2a2.14,2.14,0,0,0-1.8.7,3.34,3.34,0,0,0-.8,1.9h5a3,3,0,0,0-.2-1,2.18,2.18,0,0,0-.5-0.8,1.79,1.79,0,0,0-.7-0.5A1.93,1.93,0,0,0,324,37.9Z"/><path class="e" d="M332.1,36.9h1.3a0.37,0.37,0,0,1,.3.1l0.2,0.2,1.7,5.9c0,0.2.1,0.4,0.1,0.6s0.1,0.4.1,0.6a1.42,1.42,0,0,1,.2-0.6c0.1-.2.1-0.4,0.2-0.6l1.9-5.9a0.22,0.22,0,0,1,.2-0.2,0.37,0.37,0,0,1,.3-0.1h0.7a0.37,0.37,0,0,1,.3.1l0.2,0.2,1.9,5.9c0.1,0.2.1,0.4,0.2,0.6a1.27,1.27,0,0,1,.1.6c0-.2.1-0.4,0.1-0.6a1.42,1.42,0,0,1,.2-0.6l1.8-5.9a0.22,0.22,0,0,1,.2-0.2,0.37,0.37,0,0,1,.3-0.1h1.2l-3,9.1h-1.3a0.27,0.27,0,0,1-.3-0.3l-2-6.2c0-.1-0.1-0.3-0.1-0.4s-0.1-.3-0.1-0.4c0,0.1-.1.3-0.1,0.4s-0.1.3-.1,0.4l-2,6.2a0.42,0.42,0,0,1-.4.3H335Z"/><path class="e" d="M347,46V32.7h1.6v5.4a6.42,6.42,0,0,1,1.3-1,2.93,2.93,0,0,1,1.6-.4,5.07,5.07,0,0,1,1.3.2,2.29,2.29,0,0,1,1,.7,3.88,3.88,0,0,1,.6,1.1,3.18,3.18,0,0,1,.2,1.4V46H353V40.2a2.54,2.54,0,0,0-.5-1.6,1.68,1.68,0,0,0-1.4-.6,2.77,2.77,0,0,0-1.3.3,3.13,3.13,0,0,0-1.1.9V46H347Z"/><path class="e" d="M360.7,36.7a4.84,4.84,0,0,1,1.8.3,4.19,4.19,0,0,1,1.4.9,3.77,3.77,0,0,1,.9,1.5,5.82,5.82,0,0,1,.3,1.9,5.41,5.41,0,0,1-.3,1.9,3.77,3.77,0,0,1-.9,1.5,3.39,3.39,0,0,1-1.4.9,5.55,5.55,0,0,1-3.6,0,4.19,4.19,0,0,1-1.4-.9,3.77,3.77,0,0,1-.9-1.5,5.82,5.82,0,0,1-.3-1.9,5.41,5.41,0,0,1,.3-1.9,3.77,3.77,0,0,1,.9-1.5,3.39,3.39,0,0,1,1.4-.9A5.66,5.66,0,0,1,360.7,36.7Zm0,8.2a2.26,2.26,0,0,0,2-.9,4.37,4.37,0,0,0,.7-2.5,3.73,3.73,0,0,0-.7-2.5,2.26,2.26,0,0,0-2-.9,3.73,3.73,0,0,0-1.2.2,2.7,2.7,0,0,0-.8.7,3.7,3.7,0,0,0-.5,1.1,6.05,6.05,0,0,0-.2,1.5,5.21,5.21,0,0,0,.2,1.4,3.7,3.7,0,0,0,.5,1.1,2.7,2.7,0,0,0,.8.7C359.9,44.8,360.3,44.9,360.7,44.9Z"/><path class="e" d="M370.9,46V38.3l-1-.1c-0.1,0-.2-0.1-0.3-0.1a0.37,0.37,0,0,1-.1-0.3V37.1h1.4V36.2a5.9,5.9,0,0,1,.2-1.4,3.33,3.33,0,0,1,.6-1,1.7,1.7,0,0,1,1-.6A5.07,5.07,0,0,1,374,33a3.6,3.6,0,0,1,1.1.2V34a0.22,0.22,0,0,1-.2.2h-0.7a2.2,2.2,0,0,0-.8.1,1.28,1.28,0,0,0-.6.4,2.09,2.09,0,0,0-.4.6,2.79,2.79,0,0,0-.1,1v0.8h2.6v1.2h-2.6V46h-1.4Z"/><path class="e" d="M383.3,46h-0.7a0.48,0.48,0,0,1-.4-0.1,0.25,0.25,0,0,1-.2-0.3l-0.2-.8c-0.2.2-.5,0.4-0.7,0.6a2.51,2.51,0,0,1-.7.4c-0.3.1-.5,0.2-0.8,0.3a2.77,2.77,0,0,1-.9.1,3.08,3.08,0,0,1-1-.1,2,2,0,0,1-.8-0.4,2.18,2.18,0,0,1-.5-0.8,3.59,3.59,0,0,1-.2-1.1,1.69,1.69,0,0,1,.3-1,3,3,0,0,1,1-.9,3.78,3.78,0,0,1,1.7-.6,10.17,10.17,0,0,1,2.6-.2V40.4a2.35,2.35,0,0,0-.5-1.6,1.54,1.54,0,0,0-1.3-.5,3.08,3.08,0,0,0-1,.1,4.88,4.88,0,0,0-.7.3,2.19,2.19,0,0,0-.5.3,0.6,0.6,0,0,1-.4.1,0.37,0.37,0,0,1-.3-0.1l-0.2-.2-0.3-.5a5.72,5.72,0,0,1,1.6-1.1,4.06,4.06,0,0,1,1.9-.4,3.19,3.19,0,0,1,1.4.3,3.59,3.59,0,0,1,1,.7,2.38,2.38,0,0,1,.6,1.1,5.9,5.9,0,0,1,.2,1.4V46Zm-4.2-1a2.2,2.2,0,0,0,.8-0.1,6.37,6.37,0,0,0,.7-0.2,2.09,2.09,0,0,0,.6-0.4,2.65,2.65,0,0,0,.6-0.5V41.9a10.89,10.89,0,0,0-1.9.1,5,5,0,0,0-1.3.4,2.1,2.1,0,0,0-.7.5,1.45,1.45,0,0,0-.2.7,1.08,1.08,0,0,0,.1.6c0.1,0.1.2,0.3,0.3,0.4a0.76,0.76,0,0,0,.5.2A0.48,0.48,0,0,0,379.1,45Z"/><path class="e" d="M387.9,34a0.48,0.48,0,0,1-.1.4,1,1,0,0,1-.3.4,0.52,0.52,0,0,1-.4.2,0.85,0.85,0,0,1-.8,0c-0.1-.1-0.3-0.1-0.4-0.2a0.52,0.52,0,0,1-.2-0.4,0.6,0.6,0,0,1-.1-0.4,0.48,0.48,0,0,1,.1-0.4c0.1-.1.1-0.3,0.2-0.4a0.52,0.52,0,0,1,.4-0.2,0.85,0.85,0,0,1,.8,0c0.1,0.1.3,0.1,0.4,0.2a1.38,1.38,0,0,1,.3.4C387.8,33.7,387.9,33.9,387.9,34Zm-0.4,2.9V46h-1.6V36.9h1.6Z"/><path class="e" d="M392.1,32.7V46h-1.6V32.7h1.6Z"/></g><g class="c"><path class="e" d="M57.1,68.1a2.09,2.09,0,0,1-2.3-2.3V60.2H53.7c-0.1,0-.2,0-0.2-0.1a0.28,0.28,0,0,1-.1-0.3V59.2l1.5-.2,0.4-2.8a0.35,0.35,0,0,1,.1-0.2,0.28,0.28,0,0,1,.3-0.1h0.8V59H59v1.2H56.4v5.5a1.22,1.22,0,0,0,.3.9,0.91,0.91,0,0,0,.7.3,0.48,0.48,0,0,0,.4-0.1,0.37,0.37,0,0,1,.3-0.1,0.31,0.31,0,0,1,.2-0.1c0.1,0,.1-0.1.2-0.1a0.22,0.22,0,0,1,.2.2l0.5,0.8a2.07,2.07,0,0,1-1,.6H57.1Z"/><path class="e" d="M64.7,58.7a4.84,4.84,0,0,1,1.8.3,4.19,4.19,0,0,1,1.4.9,3.77,3.77,0,0,1,.9,1.5,5.82,5.82,0,0,1,.3,1.9,5.41,5.41,0,0,1-.3,1.9,4.62,4.62,0,0,1-.9,1.5,3.39,3.39,0,0,1-1.4.9,5.55,5.55,0,0,1-3.6,0,4.19,4.19,0,0,1-1.4-.9,3.77,3.77,0,0,1-.9-1.5,5.82,5.82,0,0,1-.3-1.9,5.41,5.41,0,0,1,.3-1.9,3.77,3.77,0,0,1,.9-1.5,3.39,3.39,0,0,1,1.4-.9A5.66,5.66,0,0,1,64.7,58.7Zm0,8.2a2.26,2.26,0,0,0,2-.9,4.37,4.37,0,0,0,.7-2.5,3.73,3.73,0,0,0-.7-2.5,2.26,2.26,0,0,0-2-.9,3.73,3.73,0,0,0-1.2.2,2.7,2.7,0,0,0-.8.7,3.7,3.7,0,0,0-.5,1.1,6.05,6.05,0,0,0-.2,1.5,5.21,5.21,0,0,0,.2,1.4,3.7,3.7,0,0,0,.5,1.1,2.7,2.7,0,0,0,.8.7C63.9,66.8,64.3,66.9,64.7,66.9Z"/><path class="e" d="M81.2,68H80.5a0.48,0.48,0,0,1-.4-0.1,0.25,0.25,0,0,1-.2-0.3l-0.2-.8c-0.2.2-.5,0.4-0.7,0.6a2.51,2.51,0,0,1-.7.4c-0.3.1-.5,0.2-0.8,0.3a5.05,5.05,0,0,1-2,0,2,2,0,0,1-.8-0.4,2.18,2.18,0,0,1-.5-0.8,4.3,4.3,0,0,1-.2-1.2,1.69,1.69,0,0,1,.3-1,3,3,0,0,1,1-.9,4.28,4.28,0,0,1,1.7-.6,10.17,10.17,0,0,1,2.6-.2V62.3a2.35,2.35,0,0,0-.5-1.6,1.54,1.54,0,0,0-1.3-.5,3.08,3.08,0,0,0-1,.1,4.87,4.87,0,0,0-.7.3,2.19,2.19,0,0,0-.5.3,0.6,0.6,0,0,1-.4.1,0.37,0.37,0,0,1-.3-0.1l-0.2-.2-0.3-.5A5.72,5.72,0,0,1,76,59.1a4.06,4.06,0,0,1,1.9-.4,3.19,3.19,0,0,1,1.4.3,3.59,3.59,0,0,1,1,.7,2.38,2.38,0,0,1,.6,1.1,5.9,5.9,0,0,1,.2,1.4V68h0.1ZM77,67a2.2,2.2,0,0,0,.8-0.1c0.2-.1.5-0.1,0.7-0.2a2.09,2.09,0,0,0,.6-0.4,2.65,2.65,0,0,0,.6-0.5V63.9a10.89,10.89,0,0,0-1.9.1,5,5,0,0,0-1.3.4,2.1,2.1,0,0,0-.7.5,1.45,1.45,0,0,0-.2.7,1.08,1.08,0,0,0,.1.6c0.1,0.1.2,0.3,0.3,0.4a0.76,0.76,0,0,0,.5.2A0.48,0.48,0,0,0,77,67Z"/><path class="e" d="M83.6,71.1V58.9h1a0.35,0.35,0,0,1,.4.3l0.1,1.1a3.34,3.34,0,0,1,1.3-1.1,3.29,3.29,0,0,1,1.7-.4,3.19,3.19,0,0,1,1.4.3,3.13,3.13,0,0,1,1.1.9,5.23,5.23,0,0,1,.7,1.5,6.48,6.48,0,0,1,.2,2,5.82,5.82,0,0,1-.3,1.9,3.61,3.61,0,0,1-.8,1.5,2.94,2.94,0,0,1-1.2,1,4.26,4.26,0,0,1-1.7.4,2.9,2.9,0,0,1-1.4-.3,2.84,2.84,0,0,1-1.1-.8v4H83.6V71.1ZM87.7,60a2.3,2.3,0,0,0-1.4.4,3.46,3.46,0,0,0-1.1,1v4.4a1.89,1.89,0,0,0,1,.8,2.34,2.34,0,0,0,1.2.2,2.52,2.52,0,0,0,2-.9,4,4,0,0,0,.7-2.6,6.05,6.05,0,0,0-.2-1.5,2.34,2.34,0,0,0-.5-1,1.34,1.34,0,0,0-.7-0.6A3,3,0,0,0,87.7,60Z"/><path class="e" d="M93.6,71.1V58.9h1a0.35,0.35,0,0,1,.4.3l0.1,1.1a3.34,3.34,0,0,1,1.3-1.1,4.71,4.71,0,0,1,1.7-.4,3.19,3.19,0,0,1,1.4.3,3.13,3.13,0,0,1,1.1.9,5.23,5.23,0,0,1,.7,1.5,6.48,6.48,0,0,1,.2,2,5.82,5.82,0,0,1-.3,1.9,3.61,3.61,0,0,1-.8,1.5,3.78,3.78,0,0,1-1.2,1,4.26,4.26,0,0,1-1.7.4,2.9,2.9,0,0,1-1.4-.3,2.84,2.84,0,0,1-1.1-.8v4H93.6V71.1Zm4-11.1a2.3,2.3,0,0,0-1.4.4,5.24,5.24,0,0,0-1.1,1v4.4a1.89,1.89,0,0,0,1,.8,2.34,2.34,0,0,0,1.2.2,2.52,2.52,0,0,0,2-.9,4,4,0,0,0,.7-2.6,6.05,6.05,0,0,0-.2-1.5,2.34,2.34,0,0,0-.5-1,1.34,1.34,0,0,0-.7-0.6A3,3,0,0,0,97.6,60Z"/><path class="e" d="M103.5,68V58.9h0.9a0.48,0.48,0,0,1,.4.1,0.37,0.37,0,0,1,.1.3l0.1,1.4a4.43,4.43,0,0,1,1.2-1.5,2.35,2.35,0,0,1,1.6-.5,1.48,1.48,0,0,1,.7.1c0.2,0.1.4,0.1,0.6,0.2l-0.2,1.2a0.25,0.25,0,0,1-.3.2,0.76,0.76,0,0,1-.4-0.1,1.48,1.48,0,0,0-.7-0.1,2.17,2.17,0,0,0-1.4.5,2.84,2.84,0,0,0-.9,1.4V68h-1.7Z"/><path class="e" d="M114.4,58.7a3.65,3.65,0,0,1,1.5.3,2.55,2.55,0,0,1,1.2.8,5.67,5.67,0,0,1,.8,1.3,4.67,4.67,0,0,1,.3,1.7,0.62,0.62,0,0,1-.1.5,0.37,0.37,0,0,1-.3.1h-6.1a6.05,6.05,0,0,0,.2,1.5,2.44,2.44,0,0,0,1.5,1.7,3.73,3.73,0,0,0,1.2.2,3.08,3.08,0,0,0,1-.1c0.3-.1.5-0.2,0.8-0.3a2.19,2.19,0,0,0,.5-0.3,0.6,0.6,0,0,1,.4-0.1,0.53,0.53,0,0,1,.3.2l0.5,0.6a4.35,4.35,0,0,1-.7.6,3.55,3.55,0,0,1-.9.4c-0.3.1-.6,0.2-1,0.3a3.4,3.4,0,0,1-1,.1,4.67,4.67,0,0,1-1.7-.3,4.19,4.19,0,0,1-1.4-.9,3.77,3.77,0,0,1-.9-1.5,6.65,6.65,0,0,1-.3-2.1,5.66,5.66,0,0,1,.3-1.8,4.68,4.68,0,0,1,.8-1.4,6.42,6.42,0,0,1,1.3-1A3.45,3.45,0,0,1,114.4,58.7Zm0,1.2a2.14,2.14,0,0,0-1.8.7,3.34,3.34,0,0,0-.8,1.9h5a3,3,0,0,0-.2-1,5.94,5.94,0,0,0-.4-0.8,1.79,1.79,0,0,0-.7-0.5A2.28,2.28,0,0,0,114.4,59.9Z"/><path class="e" d="M126.4,60.5c0,0.1-.1.1-0.1,0.2a0.35,0.35,0,0,1-.2.1,0.37,0.37,0,0,1-.3-0.1,0.52,0.52,0,0,0-.4-0.2,1.42,1.42,0,0,0-.6-0.2c-0.2,0-.5-0.1-0.9-0.1a5,5,0,0,0-1.2.2,5.5,5.5,0,0,0-.9.7,3.7,3.7,0,0,0-.5,1.1,5.9,5.9,0,0,0-.2,1.4,6.8,6.8,0,0,0,.2,1.5,3.7,3.7,0,0,0,.5,1.1,2.7,2.7,0,0,0,.8.7,2,2,0,0,0,1.1.2,3.08,3.08,0,0,0,1-.1,1.63,1.63,0,0,0,.6-0.3,1.38,1.38,0,0,0,.4-0.3,0.37,0.37,0,0,1,.3-0.1,0.53,0.53,0,0,1,.3.2l0.4,0.6a4.18,4.18,0,0,1-1.5,1.1,5.82,5.82,0,0,1-1.9.3,4.15,4.15,0,0,1-1.6-.3,3.81,3.81,0,0,1-1.3-.9,5.43,5.43,0,0,1-.9-1.5,4.23,4.23,0,0,1-.3-2,5.82,5.82,0,0,1,.3-1.9,5.3,5.3,0,0,1,.8-1.5,4.49,4.49,0,0,1,1.3-1,4.78,4.78,0,0,1,1.8-.4,4.67,4.67,0,0,1,1.7.3,3.81,3.81,0,0,1,1.3.9v0.3Z"/><path class="e" d="M130.7,56a0.48,0.48,0,0,1-.1.4,1,1,0,0,1-.3.4,0.52,0.52,0,0,1-.4.2,0.6,0.6,0,0,1-.4.1,0.48,0.48,0,0,1-.4-0.1c-0.1-.1-0.3-0.1-0.4-0.2a0.52,0.52,0,0,1-.2-0.4,0.6,0.6,0,0,1-.1-0.4,0.48,0.48,0,0,1,.1-0.4c0.1-.1.1-0.3,0.2-0.4a0.52,0.52,0,0,1,.4-0.2,0.6,0.6,0,0,1,.4-0.1,0.48,0.48,0,0,1,.4.1c0.1,0.1.3,0.1,0.4,0.2a1.38,1.38,0,0,1,.3.4A0.6,0.6,0,0,1,130.7,56Zm-0.3,2.9V68h-1.6V58.9h1.6Z"/><path class="e" d="M139.9,68h-0.7a0.48,0.48,0,0,1-.4-0.1,0.25,0.25,0,0,1-.2-0.3l-0.2-.8c-0.2.2-.5,0.4-0.7,0.6a2.51,2.51,0,0,1-.7.4c-0.3.1-.5,0.2-0.8,0.3a2.77,2.77,0,0,1-.9.1,3.08,3.08,0,0,1-1-.1,2,2,0,0,1-.8-0.4,2.18,2.18,0,0,1-.5-0.8,3.59,3.59,0,0,1-.2-1.1,1.69,1.69,0,0,1,.3-1,3,3,0,0,1,1-.9,3.78,3.78,0,0,1,1.7-.6,10.17,10.17,0,0,1,2.6-.2V62.4a2.35,2.35,0,0,0-.5-1.6,1.54,1.54,0,0,0-1.3-.5,3.08,3.08,0,0,0-1,.1,4.87,4.87,0,0,0-.7.3,2.19,2.19,0,0,0-.5.3,0.6,0.6,0,0,1-.4.1,0.37,0.37,0,0,1-.3-0.1l-0.2-.2-0.3-.5a5.72,5.72,0,0,1,1.6-1.1,4.06,4.06,0,0,1,1.9-.4,3.19,3.19,0,0,1,1.4.3,3.59,3.59,0,0,1,1,.7,2.38,2.38,0,0,1,.6,1.1,5.9,5.9,0,0,1,.2,1.4V68h0Zm-4.2-1a2.2,2.2,0,0,0,.8-0.1,6.37,6.37,0,0,0,.7-0.2,2.09,2.09,0,0,0,.6-0.4,2.65,2.65,0,0,0,.6-0.5V63.9a10.89,10.89,0,0,0-1.9.1,5,5,0,0,0-1.3.4,2.1,2.1,0,0,0-.7.5,1.45,1.45,0,0,0-.2.7,1.08,1.08,0,0,0,.1.6c0.1,0.1.2,0.3,0.3,0.4a0.76,0.76,0,0,0,.5.2A0.48,0.48,0,0,0,135.7,67Z"/><path class="e" d="M145.1,68.1a2.09,2.09,0,0,1-2.3-2.3V60.2h-1.1c-0.1,0-.2,0-0.2-0.1a1,1,0,0,1-.1-0.3V59.2l1.5-.2,0.4-2.8a0.35,0.35,0,0,1,.1-0.2,0.37,0.37,0,0,1,.3-0.1h0.8V59h2.6v1.2h-2.6v5.5a1.22,1.22,0,0,0,.3.9,0.91,0.91,0,0,0,.7.3,0.48,0.48,0,0,0,.4-0.1,0.37,0.37,0,0,1,.3-0.1,0.31,0.31,0,0,1,.2-0.1c0.1,0,.1-0.1.2-0.1a0.22,0.22,0,0,1,.2.2l0.5,0.8a2.07,2.07,0,0,1-1,.6h-1.2Z"/><path class="e" d="M152.7,58.7a3.65,3.65,0,0,1,1.5.3,2.55,2.55,0,0,1,1.2.8,5.67,5.67,0,0,1,.8,1.3,4.67,4.67,0,0,1,.3,1.7,0.62,0.62,0,0,1-.1.5,0.37,0.37,0,0,1-.3.1H150a6.05,6.05,0,0,0,.2,1.5,2.44,2.44,0,0,0,1.5,1.7,3.73,3.73,0,0,0,1.2.2,3.08,3.08,0,0,0,1-.1c0.3-.1.5-0.2,0.8-0.3a2.19,2.19,0,0,0,.5-0.3,0.6,0.6,0,0,1,.4-0.1,0.53,0.53,0,0,1,.3.2l0.5,0.6a4.35,4.35,0,0,1-.7.6,3.55,3.55,0,0,1-.9.4c-0.3.1-.6,0.2-1,0.3a3.4,3.4,0,0,1-1,.1,4.67,4.67,0,0,1-1.7-.3,4.19,4.19,0,0,1-1.4-.9,3.77,3.77,0,0,1-.9-1.5,6.65,6.65,0,0,1-.3-2.1,5.66,5.66,0,0,1,.3-1.8,4.68,4.68,0,0,1,.8-1.4,6.42,6.42,0,0,1,1.3-1A3.45,3.45,0,0,1,152.7,58.7Zm0,1.2a2.14,2.14,0,0,0-1.8.7,3.34,3.34,0,0,0-.8,1.9h5a3,3,0,0,0-.2-1,5.94,5.94,0,0,0-.4-0.8,1.79,1.79,0,0,0-.7-0.5A2.28,2.28,0,0,0,152.7,59.9Z"/><path class="e" d="M160.8,58.9h1.3a0.37,0.37,0,0,1,.3.1l0.2,0.2,1.7,5.9c0,0.2.1,0.4,0.1,0.6s0.1,0.4.1,0.6a1.42,1.42,0,0,1,.2-0.6c0.1-.2.1-0.4,0.2-0.6l1.9-5.9A0.22,0.22,0,0,1,167,59c0.1,0,.2-0.1.3-0.1H168a0.37,0.37,0,0,1,.3.1l0.2,0.2,1.9,5.9c0.1,0.2.1,0.4,0.2,0.6a1.27,1.27,0,0,1,.1.6c0-.2.1-0.4,0.1-0.6a1.42,1.42,0,0,1,.2-0.6l1.8-5.9A0.22,0.22,0,0,1,173,59a0.37,0.37,0,0,1,.3-0.1h1.2l-3,9.1h-1.3a0.27,0.27,0,0,1-.3-0.3l-2-6.2c0-.1-0.1-0.3-0.1-0.4s-0.1-.3-0.1-0.4c0,0.1-.1.3-0.1,0.4s-0.1.3-.1,0.4l-2,6.2a0.42,0.42,0,0,1-.4.3h-1.2Z"/><path class="e" d="M175.7,68V54.7h1.6v5.4a6.42,6.42,0,0,1,1.3-1,2.93,2.93,0,0,1,1.6-.4,5.07,5.07,0,0,1,1.3.2,2.29,2.29,0,0,1,1,.7,3.88,3.88,0,0,1,.6,1.1,5.9,5.9,0,0,1,.2,1.4V68h-1.6V62.2a2.54,2.54,0,0,0-.5-1.6,1.68,1.68,0,0,0-1.4-.6,2.77,2.77,0,0,0-1.3.3,3.13,3.13,0,0,0-1.1.9V68h-1.7Z"/><path class="e" d="M192.4,68h-0.7a0.48,0.48,0,0,1-.4-0.1,0.25,0.25,0,0,1-.2-0.3l-0.2-.8c-0.2.2-.5,0.4-0.7,0.6a2.51,2.51,0,0,1-.7.4c-0.3.1-.5,0.2-0.8,0.3a2.77,2.77,0,0,1-.9.1,3.08,3.08,0,0,1-1-.1,2,2,0,0,1-.8-0.4,2.18,2.18,0,0,1-.5-0.8,3.59,3.59,0,0,1-.2-1.1,1.69,1.69,0,0,1,.3-1,3,3,0,0,1,1-.9,3.78,3.78,0,0,1,1.7-.6,10.17,10.17,0,0,1,2.6-.2V62.4a2.35,2.35,0,0,0-.5-1.6,1.54,1.54,0,0,0-1.3-.5,3.08,3.08,0,0,0-1,.1,4.87,4.87,0,0,0-.7.3,2.19,2.19,0,0,0-.5.3,0.6,0.6,0,0,1-.4.1,0.37,0.37,0,0,1-.3-0.1l-0.2-.2-0.3-.5a5.72,5.72,0,0,1,1.6-1.1,4.06,4.06,0,0,1,1.9-.4,3.19,3.19,0,0,1,1.4.3,3.59,3.59,0,0,1,1,.7,2.38,2.38,0,0,1,.6,1.1,5.9,5.9,0,0,1,.2,1.4V68h0Zm-4.1-1a2.2,2.2,0,0,0,.8-0.1,6.37,6.37,0,0,0,.7-0.2,2.09,2.09,0,0,0,.6-0.4,2.65,2.65,0,0,0,.6-0.5V63.9a10.89,10.89,0,0,0-1.9.1,5,5,0,0,0-1.3.4,2.1,2.1,0,0,0-.7.5,1.45,1.45,0,0,0-.2.7,1.08,1.08,0,0,0,.1.6c0.1,0.1.2,0.3,0.3,0.4a0.76,0.76,0,0,0,.5.2A0.48,0.48,0,0,0,188.3,67Z"/><path class="e" d="M197.6,68.1a2.09,2.09,0,0,1-2.3-2.3V60.2h-1.1c-0.1,0-.2,0-0.2-0.1V59.3l1.5-.2,0.4-2.8a0.35,0.35,0,0,1,.1-0.2,0.37,0.37,0,0,1,.3-0.1h0.8v3.1h2.6v1.2H197v5.5a1.22,1.22,0,0,0,.3.9,0.91,0.91,0,0,0,.7.3,0.48,0.48,0,0,0,.4-0.1,0.37,0.37,0,0,1,.3-0.1,0.31,0.31,0,0,1,.2-0.1c0.1,0,.1-0.1.2-0.1a0.22,0.22,0,0,1,.2.2l0.5,0.8a2.07,2.07,0,0,1-1,.6A4.12,4.12,0,0,0,197.6,68.1Z"/><path class="e" d="M207.8,68.1a2.09,2.09,0,0,1-2.3-2.3V60.2h-1.1c-0.1,0-.2,0-0.2-0.1a1,1,0,0,1-.1-0.3V59.2l1.5-.2,0.4-2.8a0.35,0.35,0,0,1,.1-0.2,0.37,0.37,0,0,1,.3-0.1h0.8V59h2.6v1.2h-2.6v5.5a1.22,1.22,0,0,0,.3.9,0.91,0.91,0,0,0,.7.3,0.48,0.48,0,0,0,.4-0.1,0.37,0.37,0,0,1,.3-0.1,0.31,0.31,0,0,1,.2-0.1c0.1,0,.1-0.1.2-0.1a0.22,0.22,0,0,1,.2.2l0.5,0.8a2.07,2.07,0,0,1-1,.6h-1.2Z"/><path class="e" d="M211.8,68V54.7h1.6v5.4a6.42,6.42,0,0,1,1.3-1,2.93,2.93,0,0,1,1.6-.4,5.07,5.07,0,0,1,1.3.2,2.29,2.29,0,0,1,1,.7,3.88,3.88,0,0,1,.6,1.1,5.9,5.9,0,0,1,.2,1.4V68h-1.6V62.2a2.54,2.54,0,0,0-.5-1.6,1.68,1.68,0,0,0-1.4-.6,2.77,2.77,0,0,0-1.3.3,3.13,3.13,0,0,0-1.1.9V68h-1.7Z"/><path class="e" d="M225.4,58.7a4,4,0,0,1,1.5.3,2.55,2.55,0,0,1,1.2.8,5.67,5.67,0,0,1,.8,1.3,4.67,4.67,0,0,1,.3,1.7,0.62,0.62,0,0,1-.1.5,0.37,0.37,0,0,1-.3.1h-6.1a6.05,6.05,0,0,0,.2,1.5,2.44,2.44,0,0,0,1.5,1.7,3.73,3.73,0,0,0,1.2.2,3.08,3.08,0,0,0,1-.1c0.3-.1.5-0.2,0.8-0.3a2.19,2.19,0,0,0,.5-0.3,0.6,0.6,0,0,1,.4-0.1,0.53,0.53,0,0,1,.3.2l0.4,0.6a4.35,4.35,0,0,1-.7.6,3.55,3.55,0,0,1-.9.4c-0.3.1-.6,0.2-1,0.3a3.4,3.4,0,0,1-1,.1,4.67,4.67,0,0,1-1.7-.3,4.19,4.19,0,0,1-1.4-.9,3.77,3.77,0,0,1-.9-1.5,6.65,6.65,0,0,1-.3-2.1,5.66,5.66,0,0,1,.3-1.8,4.68,4.68,0,0,1,.8-1.4,6.42,6.42,0,0,1,1.3-1A4.14,4.14,0,0,1,225.4,58.7Zm0,1.2a2.14,2.14,0,0,0-1.8.7,3.34,3.34,0,0,0-.8,1.9h5a3,3,0,0,0-.2-1,5.94,5.94,0,0,0-.4-0.8,1.79,1.79,0,0,0-.7-0.5A3.54,3.54,0,0,0,225.4,59.9Z"/><path class="e" d="M233.7,70.7c-0.1.1-.1,0.2-0.2,0.3a0.48,0.48,0,0,1-.4.1h-1.2l1.7-3.6-3.8-8.6h1.4a0.37,0.37,0,0,1,.3.1l0.2,0.2,2.4,5.7a0.6,0.6,0,0,1,.1.4c0,0.1.1,0.3,0.1,0.4,0-.1.1-0.3,0.1-0.4s0.1-.3.1-0.4l2.4-5.7a0.22,0.22,0,0,1,.2-0.2,0.37,0.37,0,0,1,.3-0.1h1.3Z"/><path class="e" d="M250.4,68h-0.7a0.48,0.48,0,0,1-.4-0.1,0.25,0.25,0,0,1-.2-0.3l-0.2-.8c-0.2.2-.5,0.4-0.7,0.6a2.51,2.51,0,0,1-.7.4c-0.3.1-.5,0.2-0.8,0.3a5.05,5.05,0,0,1-2,0,2,2,0,0,1-.8-0.4,2.18,2.18,0,0,1-.5-0.8,3.59,3.59,0,0,1-.2-1.1,1.69,1.69,0,0,1,.3-1,3,3,0,0,1,1-.9,3.78,3.78,0,0,1,1.7-.6,10.17,10.17,0,0,1,2.6-.2V62.4a2.35,2.35,0,0,0-.5-1.6,1.54,1.54,0,0,0-1.3-.5,3.08,3.08,0,0,0-1,.1,4.87,4.87,0,0,0-.7.3,2.19,2.19,0,0,0-.5.3,0.6,0.6,0,0,1-.4.1,0.37,0.37,0,0,1-.3-0.1l-0.2-.2-0.3-.5a5.72,5.72,0,0,1,1.6-1.1,4.06,4.06,0,0,1,1.9-.4,3.19,3.19,0,0,1,1.4.3,3.59,3.59,0,0,1,1,.7,2.38,2.38,0,0,1,.6,1.1,5.9,5.9,0,0,1,.2,1.4V68h0.1Zm-4.2-1a2.2,2.2,0,0,0,.8-0.1,6.37,6.37,0,0,0,.7-0.2,2.09,2.09,0,0,0,.6-0.4,2.65,2.65,0,0,0,.6-0.5V63.9a10.89,10.89,0,0,0-1.9.1,5,5,0,0,0-1.3.4,2.1,2.1,0,0,0-.7.5,1.45,1.45,0,0,0-.2.7,1.08,1.08,0,0,0,.1.6c0.1,0.1.2,0.3,0.3,0.4a0.76,0.76,0,0,0,.5.2A0.48,0.48,0,0,0,246.2,67Z"/><path class="e" d="M254.6,54.7V68H253V54.7h1.6Z"/><path class="e" d="M257.4,68V58.9h0.9a0.48,0.48,0,0,1,.4.1,0.37,0.37,0,0,1,.1.3l0.1,1.4a4.43,4.43,0,0,1,1.2-1.5,2.35,2.35,0,0,1,1.6-.5,1.48,1.48,0,0,1,.7.1c0.2,0.1.4,0.1,0.6,0.2l-0.2,1.2a0.25,0.25,0,0,1-.3.2,0.76,0.76,0,0,1-.4-0.1,1.48,1.48,0,0,0-.7-0.1,2.17,2.17,0,0,0-1.4.5,2.84,2.84,0,0,0-.9,1.4V68h-1.7Z"/><path class="e" d="M268.3,58.7a4,4,0,0,1,1.5.3,2.55,2.55,0,0,1,1.2.8,5.67,5.67,0,0,1,.8,1.3,4.67,4.67,0,0,1,.3,1.7,0.62,0.62,0,0,1-.1.5,0.37,0.37,0,0,1-.3.1h-6.1a6.05,6.05,0,0,0,.2,1.5,2.44,2.44,0,0,0,1.5,1.7,3.73,3.73,0,0,0,1.2.2,3.08,3.08,0,0,0,1-.1c0.3-.1.5-0.2,0.8-0.3a2.19,2.19,0,0,0,.5-0.3,0.6,0.6,0,0,1,.4-0.1,0.53,0.53,0,0,1,.3.2l0.4,0.6a4.35,4.35,0,0,1-.7.6,3.55,3.55,0,0,1-.9.4c-0.3.1-.6,0.2-1,0.3a3.4,3.4,0,0,1-1,.1,4.67,4.67,0,0,1-1.7-.3,4.19,4.19,0,0,1-1.4-.9,3.77,3.77,0,0,1-.9-1.5,6.65,6.65,0,0,1-.3-2.1,5.66,5.66,0,0,1,.3-1.8,4.68,4.68,0,0,1,.8-1.4,6.42,6.42,0,0,1,1.3-1A4.14,4.14,0,0,1,268.3,58.7Zm0,1.2a2.14,2.14,0,0,0-1.8.7,3.34,3.34,0,0,0-.8,1.9h5a3,3,0,0,0-.2-1,2.18,2.18,0,0,0-.5-0.8,1.79,1.79,0,0,0-.7-0.5A2.93,2.93,0,0,0,268.3,59.9Z"/><path class="e" d="M280.8,68h-0.7a0.48,0.48,0,0,1-.4-0.1,0.25,0.25,0,0,1-.2-0.3l-0.2-.8c-0.2.2-.5,0.4-0.7,0.6a2.51,2.51,0,0,1-.7.4c-0.3.1-.5,0.2-0.8,0.3a5.05,5.05,0,0,1-2,0,2,2,0,0,1-.8-0.4,2.18,2.18,0,0,1-.5-0.8,3.59,3.59,0,0,1-.2-1.1,1.69,1.69,0,0,1,.3-1,3,3,0,0,1,1-.9,4.28,4.28,0,0,1,1.7-.6,10.17,10.17,0,0,1,2.6-.2V62.4a2.35,2.35,0,0,0-.5-1.6,1.54,1.54,0,0,0-1.3-.5,3.08,3.08,0,0,0-1,.1,4.88,4.88,0,0,0-.7.3,2.19,2.19,0,0,0-.5.3,0.6,0.6,0,0,1-.4.1,0.37,0.37,0,0,1-.3-0.1l-0.2-.2-0.3-.5a5.72,5.72,0,0,1,1.6-1.1,4.06,4.06,0,0,1,1.9-.4,3.19,3.19,0,0,1,1.4.3,3.59,3.59,0,0,1,1,.7,2.38,2.38,0,0,1,.6,1.1,5.9,5.9,0,0,1,.2,1.4V68h0.1Zm-4.2-1a2.2,2.2,0,0,0,.8-0.1c0.2-.1.5-0.1,0.7-0.2a2.09,2.09,0,0,0,.6-0.4,2.65,2.65,0,0,0,.6-0.5V63.9a10.89,10.89,0,0,0-1.9.1,5,5,0,0,0-1.3.4,2.1,2.1,0,0,0-.7.5,1.45,1.45,0,0,0-.2.7,1.08,1.08,0,0,0,.1.6c0.1,0.1.2,0.3,0.3,0.4a0.76,0.76,0,0,0,.5.2A0.48,0.48,0,0,0,276.6,67Z"/><path class="e" d="M289.6,68a0.35,0.35,0,0,1-.4-0.3l-0.1-1.1a3.34,3.34,0,0,1-1.3,1.1,3.29,3.29,0,0,1-1.7.4,3.19,3.19,0,0,1-1.4-.3,3.13,3.13,0,0,1-1.1-.9,5.23,5.23,0,0,1-.7-1.5,6.48,6.48,0,0,1-.2-2,5.82,5.82,0,0,1,.3-1.9,3.61,3.61,0,0,1,.8-1.5,3.77,3.77,0,0,1,1.2-1,4.26,4.26,0,0,1,1.7-.4,2.9,2.9,0,0,1,1.4.3,4.44,4.44,0,0,1,1.1.8V54.6h1.6V68h-1.2Zm-3.1-1.2a2.3,2.3,0,0,0,1.4-.4,3.46,3.46,0,0,0,1.1-1V61a1.89,1.89,0,0,0-1-.8,2.34,2.34,0,0,0-1.2-.2,2.38,2.38,0,0,0-2,.9,4,4,0,0,0-.7,2.6,6.05,6.05,0,0,0,.2,1.5,5.13,5.13,0,0,0,.4,1,1.34,1.34,0,0,0,.7.6A4.25,4.25,0,0,0,286.5,66.8Z"/><path class="e" d="M296,70.7c-0.1.1-.1,0.2-0.2,0.3a0.48,0.48,0,0,1-.4.1h-1.2l1.7-3.6-3.8-8.6h1.4a0.37,0.37,0,0,1,.3.1l0.2,0.2,2.4,5.7a0.6,0.6,0,0,1,.1.4c0,0.1.1,0.3,0.1,0.4,0-.1.1-0.3,0.1-0.4s0.1-.3.1-0.4l2.4-5.7a0.22,0.22,0,0,1,.2-0.2,0.37,0.37,0,0,1,.3-0.1H301Z"/><path class="e" d="M306,68V54.7h1.6v5.4a6.42,6.42,0,0,1,1.3-1,2.93,2.93,0,0,1,1.6-.4,5.07,5.07,0,0,1,1.3.2,2.29,2.29,0,0,1,1,.7,3.88,3.88,0,0,1,.6,1.1,3.18,3.18,0,0,1,.2,1.4V68H312V62.2a2.54,2.54,0,0,0-.5-1.6,1.68,1.68,0,0,0-1.4-.6,2.77,2.77,0,0,0-1.3.3,3.13,3.13,0,0,0-1.1.9V68H306Z"/><path class="e" d="M322.7,68H322a0.48,0.48,0,0,1-.4-0.1,0.25,0.25,0,0,1-.2-0.3l-0.2-.8c-0.2.2-.5,0.4-0.7,0.6a2.51,2.51,0,0,1-.7.4c-0.3.1-.5,0.2-0.8,0.3a5.05,5.05,0,0,1-2,0,2,2,0,0,1-.8-0.4,2.18,2.18,0,0,1-.5-0.8,3.59,3.59,0,0,1-.2-1.1,1.69,1.69,0,0,1,.3-1,3,3,0,0,1,1-.9,3.78,3.78,0,0,1,1.7-.6,10.17,10.17,0,0,1,2.6-.2V62.4a2.35,2.35,0,0,0-.5-1.6,1.54,1.54,0,0,0-1.3-.5,3.08,3.08,0,0,0-1,.1,4.88,4.88,0,0,0-.7.3,2.19,2.19,0,0,0-.5.3,0.6,0.6,0,0,1-.4.1,0.37,0.37,0,0,1-.3-0.1l-0.2-.2-0.3-.5a5.72,5.72,0,0,1,1.6-1.1,4.06,4.06,0,0,1,1.9-.4,3.19,3.19,0,0,1,1.4.3,3.59,3.59,0,0,1,1,.7,2.38,2.38,0,0,1,.6,1.1,5.9,5.9,0,0,1,.2,1.4V68h0.1Zm-4.2-1a2.2,2.2,0,0,0,.8-0.1,6.37,6.37,0,0,0,.7-0.2,2.09,2.09,0,0,0,.6-0.4,2.65,2.65,0,0,0,.6-0.5V63.9a10.89,10.89,0,0,0-1.9.1,5,5,0,0,0-1.3.4,2.1,2.1,0,0,0-.7.5,1.45,1.45,0,0,0-.2.7,1.08,1.08,0,0,0,.1.6c0.1,0.1.2,0.3,0.3,0.4a0.76,0.76,0,0,0,.5.2A0.48,0.48,0,0,0,318.5,67Z"/><path class="e" d="M323.7,58.9H325a0.37,0.37,0,0,1,.3.1l0.2,0.2,2.3,5.9a1.42,1.42,0,0,1,.2.6c0,0.2.1,0.4,0.1,0.6a1.42,1.42,0,0,1,.2-0.6c0.1-.2.1-0.4,0.2-0.6l2.3-5.9A0.22,0.22,0,0,1,331,59a0.37,0.37,0,0,1,.3-0.1h1.3L328.9,68h-1.4Z"/><path class="e" d="M337.4,58.7a3.65,3.65,0,0,1,1.5.3,2.55,2.55,0,0,1,1.2.8,5.67,5.67,0,0,1,.8,1.3,4.67,4.67,0,0,1,.3,1.7,0.62,0.62,0,0,1-.1.5,0.37,0.37,0,0,1-.3.1h-6.1a6.05,6.05,0,0,0,.2,1.5,2.44,2.44,0,0,0,1.5,1.7,3.73,3.73,0,0,0,1.2.2,3.08,3.08,0,0,0,1-.1c0.3-.1.5-0.2,0.8-0.3a2.19,2.19,0,0,0,.5-0.3,0.6,0.6,0,0,1,.4-0.1,0.53,0.53,0,0,1,.3.2l0.5,0.6a4.35,4.35,0,0,1-.7.6,3.55,3.55,0,0,1-.9.4c-0.3.1-.6,0.2-1,0.3a3.4,3.4,0,0,1-1,.1,4.67,4.67,0,0,1-1.7-.3,4.19,4.19,0,0,1-1.4-.9,3.77,3.77,0,0,1-.9-1.5,6.65,6.65,0,0,1-.3-2.1,5.66,5.66,0,0,1,.3-1.8,4.68,4.68,0,0,1,.8-1.4,6.42,6.42,0,0,1,1.3-1A3.74,3.74,0,0,1,337.4,58.7Zm0,1.2a2.14,2.14,0,0,0-1.8.7,3.34,3.34,0,0,0-.8,1.9h5a3,3,0,0,0-.2-1,2.18,2.18,0,0,0-.5-0.8,1.79,1.79,0,0,0-.7-0.5A1.69,1.69,0,0,0,337.4,59.9Z"/><path class="e" d="M342.7,67a0.48,0.48,0,0,1,.1-0.4c0.1-.1.1-0.3,0.2-0.4a0.52,0.52,0,0,1,.4-0.2,0.6,0.6,0,0,1,.4-0.1,0.48,0.48,0,0,1,.4.1c0.1,0.1.3,0.1,0.4,0.2a0.52,0.52,0,0,1,.2.4,0.6,0.6,0,0,1,.1.4,0.48,0.48,0,0,1-.1.4c-0.1.1-.1,0.3-0.2,0.4a0.52,0.52,0,0,1-.4.2,0.6,0.6,0,0,1-.4.1,0.48,0.48,0,0,1-.4-0.1c-0.1-.1-0.3-0.1-0.4-0.2a0.52,0.52,0,0,1-.2-0.4A0.48,0.48,0,0,1,342.7,67Z"/><path class="e" d="M349.4,68h-1.7V55.1h1.7V68Z"/><path class="e" d="M355.3,68.1a2.09,2.09,0,0,1-2.3-2.3V60.2h-1c-0.1,0-.2,0-0.2-0.1a1,1,0,0,1-.1-0.3V59.2l1.5-.2,0.4-2.8a0.35,0.35,0,0,1,.1-0.2,0.37,0.37,0,0,1,.3-0.1h0.8V59h2.6v1.2h-2.6v5.5a1.22,1.22,0,0,0,.3.9,0.91,0.91,0,0,0,.7.3,0.48,0.48,0,0,0,.4-0.1,0.37,0.37,0,0,1,.3-0.1,0.31,0.31,0,0,1,.2-0.1c0.1,0,.1-0.1.2-0.1a0.22,0.22,0,0,1,.2.2l0.5,0.8a2.07,2.07,0,0,1-1,.6h-1.3Z"/><path class="e" d="M360.7,55.1v2.6l-0.1,1.4a0.57,0.57,0,0,1-1,.4c-0.1-.1-0.1-0.3-0.2-0.4l-0.1-1.4V55.1h1.4Z"/><path class="e" d="M368.6,60.4a0.53,0.53,0,0,1-.3.2,0.37,0.37,0,0,1-.3-0.1c-0.1-.1-0.3-0.1-0.4-0.2a1.07,1.07,0,0,0-.6-0.2,2,2,0,0,0-.8-0.1,1.48,1.48,0,0,0-.7.1l-0.6.3a1.51,1.51,0,0,0-.4.4,0.9,0.9,0,0,0-.1.5,1.42,1.42,0,0,0,.2.6,1,1,0,0,0,.5.4,6.89,6.89,0,0,0,.8.3l0.9,0.3,0.9,0.3a3.51,3.51,0,0,1,.8.5,1.79,1.79,0,0,1,.5.7,2.92,2.92,0,0,1,.2.9,5,5,0,0,1-.2,1.2,1.6,1.6,0,0,1-.7.9,2.38,2.38,0,0,1-1.1.6,3.42,3.42,0,0,1-1.5.2,4.67,4.67,0,0,1-1.7-.3,4.11,4.11,0,0,1-1.3-.8l0.4-.6a0.38,0.38,0,0,1,.2-0.2c0.1,0,.2-0.1.3-0.1a0.37,0.37,0,0,1,.3.1c0.1,0.1.3,0.2,0.4,0.3l0.6,0.3a2.22,2.22,0,0,0,.9.1,2,2,0,0,0,.8-0.1l0.6-.3a0.55,0.55,0,0,0,.3-0.5,1.27,1.27,0,0,0,.1-0.6,0.85,0.85,0,0,0-.2-0.6,1,1,0,0,0-.5-0.4,6.89,6.89,0,0,0-.8-0.3l-0.9-.3-0.9-.3a3.51,3.51,0,0,1-.8-0.5,1.79,1.79,0,0,1-.5-0.7,3,3,0,0,1-.2-1,3.55,3.55,0,0,1,.2-1,2.41,2.41,0,0,1,.6-0.8,8.79,8.79,0,0,1,1-.6,5.9,5.9,0,0,1,1.4-.2,4.15,4.15,0,0,1,1.6.3,2.55,2.55,0,0,1,1.2.8Z"/><path class="e" d="M376.1,58.9v5.8a2.54,2.54,0,0,0,.5,1.6,1.68,1.68,0,0,0,1.4.6,2.77,2.77,0,0,0,1.3-.3,3.13,3.13,0,0,0,1.1-.9V59H382v9h-1a0.35,0.35,0,0,1-.4-0.3l-0.1-1a6.88,6.88,0,0,1-1.3,1.1,3.29,3.29,0,0,1-1.7.4,5.07,5.07,0,0,1-1.3-.2,2.29,2.29,0,0,1-1-.7,2.38,2.38,0,0,1-.6-1.1,5.9,5.9,0,0,1-.2-1.4V59h1.7V58.9Z"/><path class="e" d="M384.7,71.1V58.9h1a0.35,0.35,0,0,1,.4.3l0.1,1.1a3.34,3.34,0,0,1,1.3-1.1,3.29,3.29,0,0,1,1.7-.4,3.19,3.19,0,0,1,1.4.3,3.13,3.13,0,0,1,1.1.9,5.23,5.23,0,0,1,.7,1.5,6.48,6.48,0,0,1,.2,2,5.82,5.82,0,0,1-.3,1.9,3.61,3.61,0,0,1-.8,1.5,3.78,3.78,0,0,1-1.2,1,4.26,4.26,0,0,1-1.7.4,2.9,2.9,0,0,1-1.4-.3,2.84,2.84,0,0,1-1.1-.8v4h-1.4V71.1ZM388.8,60a2.3,2.3,0,0,0-1.4.4,3.46,3.46,0,0,0-1.1,1v4.4a1.89,1.89,0,0,0,1,.8,2.34,2.34,0,0,0,1.2.2,2.52,2.52,0,0,0,2-.9,4,4,0,0,0,.7-2.6,6.05,6.05,0,0,0-.2-1.5,2.34,2.34,0,0,0-.5-1,1.34,1.34,0,0,0-.7-0.6A3.55,3.55,0,0,0,388.8,60Z"/></g><g class="c"><path class="e" d="M57.1,90.1a2.09,2.09,0,0,1-2.3-2.3V82.2H53.7c-0.1,0-.2,0-0.2-0.1a0.28,0.28,0,0,1-.1-0.3V81.2l1.5-.2,0.4-2.8a0.35,0.35,0,0,1,.1-0.2,0.28,0.28,0,0,1,.3-0.1h0.8V81H59v1.2H56.4v5.5a1.22,1.22,0,0,0,.3.9,0.91,0.91,0,0,0,.7.3,0.48,0.48,0,0,0,.4-0.1,0.37,0.37,0,0,1,.3-0.1,0.31,0.31,0,0,1,.2-0.1c0.1,0,.1-0.1.2-0.1a0.22,0.22,0,0,1,.2.2l0.5,0.8a2.07,2.07,0,0,1-1,.6H57.1Z"/><path class="e" d="M64.7,80.7a4.84,4.84,0,0,1,1.8.3,4.19,4.19,0,0,1,1.4.9,3.77,3.77,0,0,1,.9,1.5,5.82,5.82,0,0,1,.3,1.9,5.41,5.41,0,0,1-.3,1.9,4.62,4.62,0,0,1-.9,1.5,3.39,3.39,0,0,1-1.4.9,5.55,5.55,0,0,1-3.6,0,4.19,4.19,0,0,1-1.4-.9,3.77,3.77,0,0,1-.9-1.5,5.82,5.82,0,0,1-.3-1.9,5.41,5.41,0,0,1,.3-1.9,3.77,3.77,0,0,1,.9-1.5,3.39,3.39,0,0,1,1.4-.9A5.66,5.66,0,0,1,64.7,80.7Zm0,8.2a2.26,2.26,0,0,0,2-.9,4.37,4.37,0,0,0,.7-2.5,3.73,3.73,0,0,0-.7-2.5,2.26,2.26,0,0,0-2-.9,3.73,3.73,0,0,0-1.2.2,2.7,2.7,0,0,0-.8.7,3.7,3.7,0,0,0-.5,1.1,6.05,6.05,0,0,0-.2,1.5,5.21,5.21,0,0,0,.2,1.4,3.7,3.7,0,0,0,.5,1.1,2.7,2.7,0,0,0,.8.7C63.9,88.8,64.3,88.9,64.7,88.9Z"/><path class="e" d="M77.2,92.7c-0.1.1-.1,0.2-0.2,0.3a0.48,0.48,0,0,1-.4.1H75.4l1.7-3.6-3.8-8.6h1.4a0.37,0.37,0,0,1,.3.1l0.2,0.2,2.4,5.7a0.6,0.6,0,0,1,.1.4c0,0.1.1,0.3,0.1,0.4,0-.1.1-0.3,0.1-0.4s0.1-.3.1-0.4l2.4-5.7a0.22,0.22,0,0,1,.2-0.2,0.37,0.37,0,0,1,.3-0.1h1.3Z"/><path class="e" d="M87.2,80.7A4.84,4.84,0,0,1,89,81a4.19,4.19,0,0,1,1.4.9,3.77,3.77,0,0,1,.9,1.5,5.82,5.82,0,0,1,.3,1.9,5.41,5.41,0,0,1-.3,1.9,3.77,3.77,0,0,1-.9,1.5,3.39,3.39,0,0,1-1.4.9,5.55,5.55,0,0,1-3.6,0,4.19,4.19,0,0,1-1.4-.9,3.77,3.77,0,0,1-.9-1.5,5.82,5.82,0,0,1-.3-1.9,5.41,5.41,0,0,1,.3-1.9,3.77,3.77,0,0,1,.9-1.5,3.39,3.39,0,0,1,1.4-.9A4.84,4.84,0,0,1,87.2,80.7Zm0,8.2a2.26,2.26,0,0,0,2-.9,4.37,4.37,0,0,0,.7-2.5,3.73,3.73,0,0,0-.7-2.5,2.26,2.26,0,0,0-2-.9,3.73,3.73,0,0,0-1.2.2,2.7,2.7,0,0,0-.8.7,3.7,3.7,0,0,0-.5,1.1,6.05,6.05,0,0,0-.2,1.5,5.21,5.21,0,0,0,.2,1.4,3.7,3.7,0,0,0,.5,1.1,2.7,2.7,0,0,0,.8.7C86.3,88.8,86.7,88.9,87.2,88.9Z"/><path class="e" d="M94.9,80.9v5.8a2.54,2.54,0,0,0,.5,1.6,1.68,1.68,0,0,0,1.4.6,2.77,2.77,0,0,0,1.3-.3,3.13,3.13,0,0,0,1.1-.9V81h1.6v9h-1a0.35,0.35,0,0,1-.4-0.3l-0.1-1A6.89,6.89,0,0,1,98,89.8a3.29,3.29,0,0,1-1.7.4A5.07,5.07,0,0,1,95,90a2.29,2.29,0,0,1-1-.7,2.38,2.38,0,0,1-.6-1.1,5.9,5.9,0,0,1-.2-1.4V81h1.7V80.9Z"/><path class="e" d="M105.8,80.9h1.3a0.37,0.37,0,0,1,.3.1l0.2,0.2,1.7,5.9c0,0.2.1,0.4,0.1,0.6s0.1,0.4.1,0.6a1.42,1.42,0,0,1,.2-0.6c0.1-.2.1-0.4,0.2-0.6l1.9-5.9A0.22,0.22,0,0,1,112,81a0.37,0.37,0,0,1,.3-0.1H113a0.37,0.37,0,0,1,.3.1l0.2,0.2,1.9,5.9c0.1,0.2.1,0.4,0.2,0.6a1.27,1.27,0,0,1,.1.6c0-.2.1-0.4,0.1-0.6a1.42,1.42,0,0,1,.2-0.6l1.8-5.9A0.22,0.22,0,0,1,118,81a0.37,0.37,0,0,1,.3-0.1h1.2l-3,9.1h-1.3a0.27,0.27,0,0,1-.3-0.3l-2-6.2c0-.1-0.1-0.3-0.1-0.4s-0.1-.3-0.1-0.4c0,0.1-.1.3-0.1,0.4s-0.1.3-.1,0.4l-2,6.2a0.42,0.42,0,0,1-.4.3h-1.2Z"/><path class="e" d="M120.8,90V76.7h1.6v5.4a6.42,6.42,0,0,1,1.3-1,4.19,4.19,0,0,1,1.6-.4,5.07,5.07,0,0,1,1.3.2,2.29,2.29,0,0,1,1,.7,3.88,3.88,0,0,1,.6,1.1,5.9,5.9,0,0,1,.2,1.4V90h-1.6V84.2a2.54,2.54,0,0,0-.5-1.6,1.68,1.68,0,0,0-1.4-.6,2.77,2.77,0,0,0-1.3.3,3.13,3.13,0,0,0-1.1.9V90h-1.7Z"/><path class="e" d="M137.5,90h-0.7a0.48,0.48,0,0,1-.4-0.1,0.25,0.25,0,0,1-.2-0.3l-0.2-.8c-0.2.2-.5,0.4-0.7,0.6a2.51,2.51,0,0,1-.7.4c-0.3.1-.5,0.2-0.8,0.3a5.05,5.05,0,0,1-2,0,2,2,0,0,1-.8-0.4,2.18,2.18,0,0,1-.5-0.8,3.59,3.59,0,0,1-.2-1.1,1.69,1.69,0,0,1,.3-1,3,3,0,0,1,1-.9,4.28,4.28,0,0,1,1.7-.6,10.17,10.17,0,0,1,2.6-.2V84.4a2.35,2.35,0,0,0-.5-1.6,1.54,1.54,0,0,0-1.3-.5,3.08,3.08,0,0,0-1,.1,4.87,4.87,0,0,0-.7.3,2.19,2.19,0,0,0-.5.3,0.6,0.6,0,0,1-.4.1,0.37,0.37,0,0,1-.3-0.1l-0.2-.2-0.3-.5a5.71,5.71,0,0,1,1.6-1.1,4.06,4.06,0,0,1,1.9-.4,3.19,3.19,0,0,1,1.4.3,3.59,3.59,0,0,1,1,.7,2.38,2.38,0,0,1,.6,1.1,5.9,5.9,0,0,1,.2,1.4V90h0.1Zm-4.2-1a2.2,2.2,0,0,0,.8-0.1c0.2-.1.5-0.1,0.7-0.2a2.09,2.09,0,0,0,.6-0.4,2.65,2.65,0,0,0,.6-0.5V85.9a10.89,10.89,0,0,0-1.9.1,5,5,0,0,0-1.3.4,2.1,2.1,0,0,0-.7.5,1.45,1.45,0,0,0-.2.7,1.08,1.08,0,0,0,.1.6c0.1,0.1.2,0.3,0.3,0.4a0.76,0.76,0,0,0,.5.2A0.48,0.48,0,0,0,133.3,89Z"/><path class="e" d="M142.7,90.1a2.09,2.09,0,0,1-2.3-2.3V82.2h-1.1c-0.1,0-.2,0-0.2-0.1S139,82,139,81.9V81.3l1.5-.2,0.4-2.8a0.35,0.35,0,0,1,.1-0.2,0.37,0.37,0,0,1,.3-0.1h0.8v3.1h2.6v1.2H142v5.5a1.22,1.22,0,0,0,.3.9,0.91,0.91,0,0,0,.7.3,0.48,0.48,0,0,0,.4-0.1,0.37,0.37,0,0,1,.3-0.1,0.31,0.31,0,0,1,.2-0.1,0.35,0.35,0,0,1,.2-0.1,0.22,0.22,0,0,1,.2.2l0.5,0.8a2.07,2.07,0,0,1-1,.6A3.75,3.75,0,0,0,142.7,90.1Z"/><path class="e" d="M152.8,92.7c-0.1.1-.1,0.2-0.2,0.3a0.48,0.48,0,0,1-.4.1H151l1.7-3.6-3.8-8.6h1.4a0.37,0.37,0,0,1,.3.1l0.2,0.2,2.4,5.7a0.6,0.6,0,0,1,.1.4c0,0.1.1,0.3,0.1,0.4,0-.1.1-0.3,0.1-0.4s0.1-.3.1-0.4l2.4-5.7a0.22,0.22,0,0,1,.2-0.2,0.37,0.37,0,0,1,.3-0.1h1.3Z"/><path class="e" d="M162.8,80.7a4.84,4.84,0,0,1,1.8.3,4.19,4.19,0,0,1,1.4.9,3.77,3.77,0,0,1,.9,1.5,5.82,5.82,0,0,1,.3,1.9,5.41,5.41,0,0,1-.3,1.9,4.62,4.62,0,0,1-.9,1.5,3.39,3.39,0,0,1-1.4.9,5.55,5.55,0,0,1-3.6,0,4.19,4.19,0,0,1-1.4-.9,3.77,3.77,0,0,1-.9-1.5,5.82,5.82,0,0,1-.3-1.9,5.41,5.41,0,0,1,.3-1.9,3.77,3.77,0,0,1,.9-1.5A3.39,3.39,0,0,1,161,81,4.84,4.84,0,0,1,162.8,80.7Zm0,8.2a2.26,2.26,0,0,0,2-.9,4.37,4.37,0,0,0,.7-2.5,3.73,3.73,0,0,0-.7-2.5,2.26,2.26,0,0,0-2-.9,3.73,3.73,0,0,0-1.2.2,2.7,2.7,0,0,0-.8.7,3.7,3.7,0,0,0-.5,1.1,6.05,6.05,0,0,0-.2,1.5,5.21,5.21,0,0,0,.2,1.4,3.7,3.7,0,0,0,.5,1.1,2.7,2.7,0,0,0,.8.7C161.9,88.8,162.3,88.9,162.8,88.9Z"/><path class="e" d="M170.5,80.9v5.8a2.54,2.54,0,0,0,.5,1.6,1.68,1.68,0,0,0,1.4.6,2.77,2.77,0,0,0,1.3-.3,3.13,3.13,0,0,0,1.1-.9V81h1.6v9h-1a0.35,0.35,0,0,1-.4-0.3l-0.1-1a6.88,6.88,0,0,1-1.3,1.1,3.29,3.29,0,0,1-1.7.4,5.07,5.07,0,0,1-1.3-.2,2.29,2.29,0,0,1-1-.7,2.38,2.38,0,0,1-.6-1.1,5.9,5.9,0,0,1-.2-1.4V81h1.7V80.9Z"/><path class="e" d="M179.1,90V80.9H180a0.48,0.48,0,0,1,.4.1,0.37,0.37,0,0,1,.1.3l0.1,1.4a4.43,4.43,0,0,1,1.2-1.5,2.35,2.35,0,0,1,1.6-.5,1.48,1.48,0,0,1,.7.1c0.2,0.1.4,0.1,0.6,0.2l-0.2,1.2a0.25,0.25,0,0,1-.3.2,0.76,0.76,0,0,1-.4-0.1,1.48,1.48,0,0,0-.7-0.1,2.17,2.17,0,0,0-1.4.5,2.84,2.84,0,0,0-.9,1.4V90h-1.7Z"/><path class="e" d="M188.6,80.9h1.3a0.37,0.37,0,0,1,.3.1l0.2,0.2,1.7,5.9c0,0.2.1,0.4,0.1,0.6s0.1,0.4.1,0.6a1.42,1.42,0,0,1,.2-0.6c0.1-.2.1-0.4,0.2-0.6l1.9-5.9a0.22,0.22,0,0,1,.2-0.2c0.1,0,.2-0.1.3-0.1h0.7a0.37,0.37,0,0,1,.3.1l0.2,0.2,1.9,5.9c0.1,0.2.1,0.4,0.2,0.6a1.27,1.27,0,0,1,.1.6c0-.2.1-0.4,0.1-0.6a1.42,1.42,0,0,1,.2-0.6l1.8-5.9a0.22,0.22,0,0,1,.2-0.2,0.37,0.37,0,0,1,.3-0.1h1.2l-3,9.1H198a0.27,0.27,0,0,1-.3-0.3l-2-6.2c0-.1-0.1-0.3-0.1-0.4s-0.1-.3-0.1-0.4c0,0.1-.1.3-0.1,0.4s-0.1.3-.1,0.4l-2,6.2a0.42,0.42,0,0,1-.4.3h-1.2Z"/><path class="e" d="M207.3,80.7a4.84,4.84,0,0,1,1.8.3,4.19,4.19,0,0,1,1.4.9,3.77,3.77,0,0,1,.9,1.5,5.82,5.82,0,0,1,.3,1.9,5.41,5.41,0,0,1-.3,1.9,3.77,3.77,0,0,1-.9,1.5,3.39,3.39,0,0,1-1.4.9,5.55,5.55,0,0,1-3.6,0,4.19,4.19,0,0,1-1.4-.9,3.77,3.77,0,0,1-.9-1.5,5.82,5.82,0,0,1-.3-1.9,5.41,5.41,0,0,1,.3-1.9,3.77,3.77,0,0,1,.9-1.5,3.39,3.39,0,0,1,1.4-.9A4.84,4.84,0,0,1,207.3,80.7Zm0,8.2a2.26,2.26,0,0,0,2-.9,4.37,4.37,0,0,0,.7-2.5,3.73,3.73,0,0,0-.7-2.5,2.26,2.26,0,0,0-2-.9,3.73,3.73,0,0,0-1.2.2,2.7,2.7,0,0,0-.8.7,3.7,3.7,0,0,0-.5,1.1,6.05,6.05,0,0,0-.2,1.5,5.21,5.21,0,0,0,.2,1.4,3.7,3.7,0,0,0,.5,1.1,2.7,2.7,0,0,0,.8.7C206.4,88.8,206.8,88.9,207.3,88.9Z"/><path class="e" d="M213.6,90V80.9h0.9a0.48,0.48,0,0,1,.4.1,0.37,0.37,0,0,1,.1.3l0.1,1.4a4.43,4.43,0,0,1,1.2-1.5,2.35,2.35,0,0,1,1.6-.5,1.48,1.48,0,0,1,.7.1c0.2,0.1.4,0.1,0.6,0.2L219,82.2a0.25,0.25,0,0,1-.3.2,0.76,0.76,0,0,1-.4-0.1,1.48,1.48,0,0,0-.7-0.1,2.17,2.17,0,0,0-1.4.5,2.84,2.84,0,0,0-.9,1.4V90h-1.7Z"/><path class="e" d="M222.7,76.7V90H221V76.7h1.7Z"/><path class="e" d="M231.9,90a0.35,0.35,0,0,1-.4-0.3l-0.1-1.1a3.34,3.34,0,0,1-1.3,1.1,3.29,3.29,0,0,1-1.7.4,3.19,3.19,0,0,1-1.4-.3,3.13,3.13,0,0,1-1.1-.9,5.23,5.23,0,0,1-.7-1.5,6.48,6.48,0,0,1-.2-2,5.82,5.82,0,0,1,.3-1.9,3.61,3.61,0,0,1,.8-1.5,3.78,3.78,0,0,1,1.2-1,4.26,4.26,0,0,1,1.7-.4,2.9,2.9,0,0,1,1.4.3,4.44,4.44,0,0,1,1.1.8V76.6h1.6V90h-1.2Zm-3.1-1.2a2.3,2.3,0,0,0,1.4-.4,3.46,3.46,0,0,0,1.1-1V83a1.89,1.89,0,0,0-1-.8,2.34,2.34,0,0,0-1.2-.2,2.38,2.38,0,0,0-2,.9,4,4,0,0,0-.7,2.6,6.05,6.05,0,0,0,.2,1.5,2.34,2.34,0,0,0,.5,1,1.34,1.34,0,0,0,.7.6A1.64,1.64,0,0,0,228.8,88.8Z"/><path class="e" d="M240.8,76.7V90h-1.6V76.7h1.6Z"/><path class="e" d="M247.3,80.7a4.84,4.84,0,0,1,1.8.3,4.19,4.19,0,0,1,1.4.9,3.77,3.77,0,0,1,.9,1.5,5.82,5.82,0,0,1,.3,1.9,5.41,5.41,0,0,1-.3,1.9,3.77,3.77,0,0,1-.9,1.5,3.39,3.39,0,0,1-1.4.9,5.55,5.55,0,0,1-3.6,0,4.19,4.19,0,0,1-1.4-.9,3.77,3.77,0,0,1-.9-1.5,5.82,5.82,0,0,1-.3-1.9,5.41,5.41,0,0,1,.3-1.9,3.77,3.77,0,0,1,.9-1.5,3.39,3.39,0,0,1,1.4-.9A4.84,4.84,0,0,1,247.3,80.7Zm0,8.2a2.26,2.26,0,0,0,2-.9,4.37,4.37,0,0,0,.7-2.5,3.73,3.73,0,0,0-.7-2.5,2.26,2.26,0,0,0-2-.9,3.73,3.73,0,0,0-1.2.2,2.7,2.7,0,0,0-.8.7,3.7,3.7,0,0,0-.5,1.1,6.05,6.05,0,0,0-.2,1.5,5.21,5.21,0,0,0,.2,1.4,3.7,3.7,0,0,0,.5,1.1,2.7,2.7,0,0,0,.8.7C246.5,88.8,246.9,88.9,247.3,88.9Z"/><path class="e" d="M257.3,80.7a4.84,4.84,0,0,1,1.8.3,4.19,4.19,0,0,1,1.4.9,3.77,3.77,0,0,1,.9,1.5,5.82,5.82,0,0,1,.3,1.9,5.41,5.41,0,0,1-.3,1.9,3.77,3.77,0,0,1-.9,1.5,3.39,3.39,0,0,1-1.4.9,5.55,5.55,0,0,1-3.6,0,4.19,4.19,0,0,1-1.4-.9,3.77,3.77,0,0,1-.9-1.5,5.82,5.82,0,0,1-.3-1.9,5.41,5.41,0,0,1,.3-1.9,3.77,3.77,0,0,1,.9-1.5,3.39,3.39,0,0,1,1.4-.9A5.66,5.66,0,0,1,257.3,80.7Zm0,8.2a2.26,2.26,0,0,0,2-.9,4.37,4.37,0,0,0,.7-2.5,3.73,3.73,0,0,0-.7-2.5,2.26,2.26,0,0,0-2-.9,3.73,3.73,0,0,0-1.2.2,2.7,2.7,0,0,0-.8.7,3.7,3.7,0,0,0-.5,1.1,6.05,6.05,0,0,0-.2,1.5,5.21,5.21,0,0,0,.2,1.4,3.7,3.7,0,0,0,.5,1.1,2.7,2.7,0,0,0,.8.7C256.5,88.8,256.9,88.9,257.3,88.9Z"/><path class="e" d="M265.3,76.7v7.8H266a0.53,0.53,0,0,0,.3-0.2l2.9-3.1a0.53,0.53,0,0,1,.3-0.2,0.48,0.48,0,0,1,.4-0.1h1.5L268,84.5a0.53,0.53,0,0,0-.2.3c-0.1.1-.2,0.1-0.3,0.2a0.53,0.53,0,0,0,.3.2,0.53,0.53,0,0,1,.2.3l3.6,4.5H270a0.37,0.37,0,0,1-.3-0.1c-0.1-.1-0.2-0.1-0.3-0.2l-3-3.7a0.53,0.53,0,0,0-.3-0.2,2.27,2.27,0,0,0-.4-0.1h-0.5V90h-1.6V76.7h1.7Z"/><path class="e" d="M278.3,82.4a0.53,0.53,0,0,1-.3.2,0.37,0.37,0,0,1-.3-0.1c-0.1-.1-0.3-0.1-0.4-0.2a1.07,1.07,0,0,0-.6-0.2,2,2,0,0,0-.8-0.1,1.48,1.48,0,0,0-.7.1l-0.6.3a1.51,1.51,0,0,0-.4.4,0.9,0.9,0,0,0-.1.5,1.42,1.42,0,0,0,.2.6,1,1,0,0,0,.5.4,6.89,6.89,0,0,0,.8.3l0.9,0.3,0.9,0.3a3.51,3.51,0,0,1,.8.5,1.79,1.79,0,0,1,.5.7,2.92,2.92,0,0,1,.2.9,5,5,0,0,1-.2,1.2,2.18,2.18,0,0,1-.7.9,2.38,2.38,0,0,1-1.1.6,3.42,3.42,0,0,1-1.5.2,4.67,4.67,0,0,1-1.7-.3,4.11,4.11,0,0,1-1.3-.8l0.4-.6a0.38,0.38,0,0,1,.2-0.2c0.1,0,.2-0.1.3-0.1a0.37,0.37,0,0,1,.3.1c0.1,0.1.3,0.2,0.4,0.3l0.6,0.3a2.22,2.22,0,0,0,.9.1,2,2,0,0,0,.8-0.1l0.6-.3a0.55,0.55,0,0,0,.3-0.5,1.27,1.27,0,0,0,.1-0.6,0.85,0.85,0,0,0-.2-0.6,2.18,2.18,0,0,0-.5-0.4,6.89,6.89,0,0,0-.8-0.3l-0.9-.3-0.9-.3a3.51,3.51,0,0,1-.8-0.5,1.79,1.79,0,0,1-.5-0.7,3,3,0,0,1-.2-1,3.55,3.55,0,0,1,.2-1,2.41,2.41,0,0,1,.6-0.8,8.79,8.79,0,0,1,1-.6,5.9,5.9,0,0,1,1.4-.2,4.15,4.15,0,0,1,1.6.3,2.55,2.55,0,0,1,1.2.8Z"/><path class="e" d="M286.1,76.7V90h-1.6V76.7h1.6Z"/><path class="e" d="M291.1,78a0.48,0.48,0,0,1-.1.4,1,1,0,0,1-.3.4,0.52,0.52,0,0,1-.4.2,0.85,0.85,0,0,1-.8,0c-0.1-.1-0.3-0.1-0.4-0.2a0.52,0.52,0,0,1-.2-0.4,0.6,0.6,0,0,1-.1-0.4,0.48,0.48,0,0,1,.1-0.4c0.1-.1.1-0.3,0.2-0.4a0.52,0.52,0,0,1,.4-0.2,0.85,0.85,0,0,1,.8,0c0.1,0.1.3,0.1,0.4,0.2a1.38,1.38,0,0,1,.3.4A0.6,0.6,0,0,1,291.1,78Zm-0.4,2.9V90h-1.6V80.9h1.6Z"/><path class="e" d="M295.2,76.7v7.8h0.7a0.53,0.53,0,0,0,.3-0.2l2.9-3.1a0.53,0.53,0,0,1,.3-0.2,0.48,0.48,0,0,1,.4-0.1h1.5l-3.4,3.6a0.53,0.53,0,0,0-.2.3c-0.1.1-.2,0.1-0.3,0.2a0.53,0.53,0,0,0,.3.2,0.53,0.53,0,0,1,.2.3l3.6,4.5H300a0.37,0.37,0,0,1-.3-0.1c-0.1-.1-0.2-0.1-0.3-0.2l-3-3.7a0.53,0.53,0,0,0-.3-0.2,2.27,2.27,0,0,0-.4-0.1h-0.5V90h-1.6V76.7h1.6Z"/><path class="e" d="M306.1,80.7a3.65,3.65,0,0,1,1.5.3,2.55,2.55,0,0,1,1.2.8,5.67,5.67,0,0,1,.8,1.3,4.67,4.67,0,0,1,.3,1.7,0.62,0.62,0,0,1-.1.5,0.37,0.37,0,0,1-.3.1h-6.1a6.05,6.05,0,0,0,.2,1.5,2.44,2.44,0,0,0,1.5,1.7,3.73,3.73,0,0,0,1.2.2,3.08,3.08,0,0,0,1-.1c0.3-.1.5-0.2,0.8-0.3a2.19,2.19,0,0,0,.5-0.3A0.6,0.6,0,0,1,309,88a0.53,0.53,0,0,1,.3.2l0.5,0.6a4.35,4.35,0,0,1-.7.6,3.55,3.55,0,0,1-.9.4c-0.3.1-.6,0.2-1,0.3a3.4,3.4,0,0,1-1,.1,4.67,4.67,0,0,1-1.7-.3,4.19,4.19,0,0,1-1.4-.9,3.77,3.77,0,0,1-.9-1.5,6.65,6.65,0,0,1-.3-2.1,5.66,5.66,0,0,1,.3-1.8,4.68,4.68,0,0,1,.8-1.4,6.42,6.42,0,0,1,1.3-1A3.45,3.45,0,0,1,306.1,80.7Zm0,1.2a2.14,2.14,0,0,0-1.8.7,3.34,3.34,0,0,0-.8,1.9h5a3,3,0,0,0-.2-1,2.18,2.18,0,0,0-.5-0.8,1.79,1.79,0,0,0-.7-0.5A1.69,1.69,0,0,0,306.1,81.9Z"/><path class="e" d="M311.4,89a0.48,0.48,0,0,1,.1-0.4c0.1-.1.1-0.3,0.2-0.4a0.52,0.52,0,0,1,.4-0.2,0.6,0.6,0,0,1,.4-0.1,0.48,0.48,0,0,1,.4.1c0.1,0.1.3,0.1,0.4,0.2a0.52,0.52,0,0,1,.2.4,0.6,0.6,0,0,1,.1.4,0.48,0.48,0,0,1-.1.4c-0.1.1-.1,0.3-0.2,0.4a0.52,0.52,0,0,1-.4.2,0.6,0.6,0,0,1-.4.1,0.48,0.48,0,0,1-.4-0.1c-0.1-.1-0.3-0.1-0.4-0.2a0.52,0.52,0,0,1-.2-0.4A0.48,0.48,0,0,1,311.4,89Z"/></g><g class="c"><path class="f" d="M63,121H61.5v-4.9H55.7V121H54.2V110.3h1.5v4.8h5.8v-4.8H63V121Z"/><path class="f" d="M68.4,113.3a5.07,5.07,0,0,1,1.3.2,3.59,3.59,0,0,1,1,.7,3,3,0,0,1,.7,1.1,3.18,3.18,0,0,1,.2,1.4c0,0.2,0,.4-0.1.4s-0.1.1-.3,0.1H66.1a5.07,5.07,0,0,0,.2,1.3,1.93,1.93,0,0,0,.5.9,2.18,2.18,0,0,0,.8.5,3,3,0,0,0,1,.2,2.77,2.77,0,0,0,.9-0.1,3.33,3.33,0,0,0,.6-0.3,1.38,1.38,0,0,0,.4-0.3,0.5,0.5,0,0,1,.6,0l0.4,0.5a2.65,2.65,0,0,1-.6.5c-0.2.1-.5,0.3-0.7,0.4a2.35,2.35,0,0,1-.8.2c-0.3,0-.6.1-0.8,0.1a4,4,0,0,1-1.5-.3A2.84,2.84,0,0,1,66,120a4.11,4.11,0,0,1-.8-1.3,4.67,4.67,0,0,1-.3-1.7,7.72,7.72,0,0,1,.2-1.5,2.4,2.4,0,0,1,.7-1.2,4.44,4.44,0,0,1,1.1-.8A7.72,7.72,0,0,1,68.4,113.3Zm0.1,1a1.89,1.89,0,0,0-1.5.6,2.63,2.63,0,0,0-.7,1.5h4.1a2.77,2.77,0,0,0-.1-0.9,1.61,1.61,0,0,0-.4-0.7,2.09,2.09,0,0,0-.6-0.4A2,2,0,0,0,68.5,114.3Z"/><path class="f" d="M74.8,110v11H73.5V110h1.3Z"/><path class="f" d="M77.1,123.6V113.4h0.8a0.42,0.42,0,0,1,.4.3l0.1,0.9a5.24,5.24,0,0,1,1.1-1,3.26,3.26,0,0,1,1.4-.4,2.66,2.66,0,0,1,1.2.3,2.18,2.18,0,0,1,.9.7,6.66,6.66,0,0,1,.6,1.2,7.93,7.93,0,0,1,.2,1.7,7.77,7.77,0,0,1-.2,1.6c-0.2.5-.4,0.9-0.6,1.3a2,2,0,0,1-1,.8,3.19,3.19,0,0,1-1.4.3,3.73,3.73,0,0,1-1.2-.2,5.5,5.5,0,0,1-.9-0.7v3.4H77.1Zm3.4-9.3a2,2,0,0,0-1.1.3,6.47,6.47,0,0,0-.9.8v3.7a1.78,1.78,0,0,0,.8.7,3,3,0,0,0,1,.2,1.94,1.94,0,0,0,1.6-.8,3.4,3.4,0,0,0,.6-2.2,5.28,5.28,0,0,0-.1-1.3,2.47,2.47,0,0,0-.4-0.9,2.65,2.65,0,0,0-.6-0.5A2.72,2.72,0,0,1,80.5,114.3Z"/><path class="f" d="M88.4,113.3a5.07,5.07,0,0,1,1.3.2,3.59,3.59,0,0,1,1,.7,3,3,0,0,1,.7,1.1,3.18,3.18,0,0,1,.2,1.4c0,0.2,0,.4-0.1.4s-0.1.1-.3,0.1H86.1a5.07,5.07,0,0,0,.2,1.3,1.93,1.93,0,0,0,.5.9,2.18,2.18,0,0,0,.8.5,3,3,0,0,0,1,.2,2.77,2.77,0,0,0,.9-0.1,3.33,3.33,0,0,0,.6-0.3,1.38,1.38,0,0,0,.4-0.3,0.5,0.5,0,0,1,.6,0l0.4,0.5a2.65,2.65,0,0,1-.6.5c-0.2.1-.5,0.3-0.7,0.4a2.35,2.35,0,0,1-.8.2c-0.3,0-.6.1-0.8,0.1a4,4,0,0,1-1.5-.3A2.84,2.84,0,0,1,86,120a4.11,4.11,0,0,1-.8-1.3,4.67,4.67,0,0,1-.3-1.7,7.72,7.72,0,0,1,.2-1.5,3.46,3.46,0,0,1,.7-1.2,4.44,4.44,0,0,1,1.1-.8A7.72,7.72,0,0,1,88.4,113.3Zm0.1,1a1.89,1.89,0,0,0-1.5.6,2.63,2.63,0,0,0-.7,1.5h4.1a2.77,2.77,0,0,0-.1-0.9,1.61,1.61,0,0,0-.4-0.7,2.09,2.09,0,0,0-.6-0.4A2.2,2.2,0,0,0,88.5,114.3Z"/><path class="f" d="M93.3,121v-7.6H94a0.37,0.37,0,0,1,.3.1,0.28,0.28,0,0,1,.1.3l0.1,1.2a4,4,0,0,1,1-1.2,2,2,0,0,1,1.3-.4,1.27,1.27,0,0,1,.6.1c0.2,0.1.3,0.1,0.5,0.2l-0.2,1a0.22,0.22,0,0,1-.2.2,0.37,0.37,0,0,1-.3-0.1,3.54,3.54,0,0,0-.6-0.1,1.59,1.59,0,0,0-1.2.4,3.6,3.6,0,0,0-.8,1.2v4.8H93.3V121Z"/><path class="f" d="M104.5,121.1a1.74,1.74,0,0,1-1.9-1.9v-4.7h-0.9a0.2,0.2,0,0,1-.2-0.1c-0.1,0-.1-0.1-0.1-0.2v-0.5l1.2-.2,0.3-2.3a0.2,0.2,0,0,1,.1-0.2c0.1,0,.1-0.1.2-0.1h0.7v2.6h2.2v1H104v4.6a1.17,1.17,0,0,0,.2.7,0.73,0.73,0,0,0,.6.2,0.6,0.6,0,0,0,.4-0.1c0.1,0,.2-0.1.3-0.1s0.1-.1.2-0.1a0.1,0.1,0,0,0,.1-0.1,0.2,0.2,0,0,1,.2.1l0.4,0.6a2.18,2.18,0,0,1-.8.5A1.55,1.55,0,0,1,104.5,121.1Z"/><path class="f" d="M110.8,113.3a5.07,5.07,0,0,1,1.3.2,3.59,3.59,0,0,1,1,.7,3,3,0,0,1,.7,1.1,3.18,3.18,0,0,1,.2,1.4c0,0.2,0,.4-0.1.4s-0.1.1-.3,0.1h-5.1a5.07,5.07,0,0,0,.2,1.3,1.93,1.93,0,0,0,.5.9,2.18,2.18,0,0,0,.8.5,3,3,0,0,0,1,.2,2.77,2.77,0,0,0,.9-0.1,3.33,3.33,0,0,0,.6-0.3,1.38,1.38,0,0,0,.4-0.3,0.5,0.5,0,0,1,.6,0l0.4,0.5a2.65,2.65,0,0,1-.6.5c-0.2.1-.5,0.3-0.7,0.4a2.35,2.35,0,0,1-.8.2c-0.3,0-.6.1-0.8,0.1a4,4,0,0,1-1.5-.3,2.84,2.84,0,0,1-1.1-.8,4.11,4.11,0,0,1-.8-1.3,4.67,4.67,0,0,1-.3-1.7,7.72,7.72,0,0,1,.2-1.5,3.46,3.46,0,0,1,.7-1.2,4.44,4.44,0,0,1,1.1-.8A7.72,7.72,0,0,1,110.8,113.3Zm0,1a1.89,1.89,0,0,0-1.5.6,2.63,2.63,0,0,0-.7,1.5h4.1a2.77,2.77,0,0,0-.1-0.9,1.61,1.61,0,0,0-.4-0.7,2.09,2.09,0,0,0-.6-0.4A1.72,1.72,0,0,0,110.8,114.3Z"/><path class="f" d="M117,117.1l-2.6-3.7h1.3c0.1,0,.2,0,0.2.1s0.1,0.1.1,0.2l1.9,2.8a0.76,0.76,0,0,1,.2-0.4l1.6-2.4c0-.1.1-0.1,0.1-0.2a0.35,0.35,0,0,1,.2-0.1h1.2l-2.6,3.6,2.7,4H120a0.37,0.37,0,0,1-.3-0.1l-0.2-.2-1.9-3a0.76,0.76,0,0,1-.2.4l-1.8,2.6a0.38,0.38,0,0,1-.2.2,0.2,0.2,0,0,1-.2.1H114Z"/><path class="f" d="M125.1,121.1a1.74,1.74,0,0,1-1.9-1.9v-4.7h-0.9a0.2,0.2,0,0,1-.2-0.1c-0.1,0-.1-0.1-0.1-0.2v-0.5l1.2-.2,0.3-2.3a0.2,0.2,0,0,1,.1-0.2c0.1,0,.1-0.1.2-0.1h0.7v2.6h2.2v1h-2.2v4.6a1.17,1.17,0,0,0,.2.7,0.73,0.73,0,0,0,.6.2,0.6,0.6,0,0,0,.4-0.1c0.1,0,.2-0.1.3-0.1s0.1-.1.2-0.1a0.1,0.1,0,0,0,.1-0.1,0.2,0.2,0,0,1,.2.1l0.4,0.6a2.18,2.18,0,0,1-.8.5A1.31,1.31,0,0,1,125.1,121.1Z"/></g><rect class="g" x="51" y="24" width="16" height="4"/><rect class="g" x="51" y="94" width="16" height="12"/><polygon class="g" points="40 26 44 22 48 26 44 30 40 26"/><polygon class="g" points="27.3 20 44.7 20 44.7 33 27.3 33 27.3 20"/><path class="e" d="M38.7,22.9a0.48,0.48,0,0,1-.1.4,0.75,0.75,0,0,1-.5.1H35.4L35,25.7a5.28,5.28,0,0,1,1.2-.1,5,5,0,0,1,1.2.2,4.05,4.05,0,0,1,.9.5,2.18,2.18,0,0,1,.5.8,3.55,3.55,0,0,1,.2,1,3.73,3.73,0,0,1-.2,1.2,2.18,2.18,0,0,1-.7.9,2.07,2.07,0,0,1-1,.6,5,5,0,0,1-1.2.2,1.48,1.48,0,0,1-.7-0.1,1.42,1.42,0,0,1-.6-0.2L34,30.4c-0.2-.1-0.3-0.2-0.5-0.3l0.3-.5a0.53,0.53,0,0,1,.3-0.2,0.37,0.37,0,0,1,.3.1,1.47,1.47,0,0,0,.4.2,2.57,2.57,0,0,0,.5.2,1.48,1.48,0,0,0,.7.1,2,2,0,0,0,.8-0.1,1.84,1.84,0,0,0,1-1,2,2,0,0,0,.1-0.8,1.48,1.48,0,0,0-.1-0.7,1.84,1.84,0,0,0-1-1,2.85,2.85,0,0,0-1.5,0,1.85,1.85,0,0,0-.7.2l-0.7-.2,0.7-4h4.1v0.5h0Z"/><polygon class="g" points="41 101 45 97 49 101 45 105 41 101"/><polygon class="g" points="27 94 46 94 46 108 27 108 27 94"/><path class="e" d="M31.4,104.9h1.8V98.5l-1.5,1.3-0.1.1H31.3l-0.1-.1-0.3-.5,2.6-2.2h0.9v7.8h1.7v0.8H31.5v-0.8H31.4Z"/><path class="e" d="M43.2,101.4a11.24,11.24,0,0,1-.2,2,6.11,6.11,0,0,1-.7,1.4,2.54,2.54,0,0,1-1,.8,2.55,2.55,0,0,1-2.4,0,2.54,2.54,0,0,1-1-.8,4.58,4.58,0,0,1-.7-1.4,5.86,5.86,0,0,1-.2-2,11.24,11.24,0,0,1,.2-2,4.58,4.58,0,0,1,.7-1.4,2.54,2.54,0,0,1,1-.8,2.55,2.55,0,0,1,2.4,0,2.54,2.54,0,0,1,1,.8,4.58,4.58,0,0,1,.7,1.4A11.24,11.24,0,0,1,43.2,101.4Zm-1.1,0a7.93,7.93,0,0,0-.2-1.7c-0.1-.4-0.3-0.8-0.4-1.1a1.7,1.7,0,0,0-.6-0.6,1.88,1.88,0,0,0-.8-0.2,2.35,2.35,0,0,0-.8.2,1.17,1.17,0,0,0-.6.6,2.82,2.82,0,0,0-.4,1.1,7.18,7.18,0,0,0-.2,1.7,6.27,6.27,0,0,0,.2,1.6c0.1,0.4.3,0.8,0.4,1.1a1.7,1.7,0,0,0,.6.6,1.88,1.88,0,0,0,.8.2,2.35,2.35,0,0,0,.8-0.2,1.17,1.17,0,0,0,.6-0.6,2.82,2.82,0,0,0,.4-1.1A7,7,0,0,0,42.1,101.4Z"/></svg>