<?xml version="1.0" encoding="utf-8"?>
<!-- Generator: Adobe Illustrator 19.2.1, SVG Export Plug-In . SVG Version: 6.00 Build 0)  -->
<svg version="1.1" id="Layer_1" xmlns="http://www.w3.org/2000/svg" xmlns:xlink="http://www.w3.org/1999/xlink" x="0px" y="0px"
	 viewBox="0 0 609 422" style="enable-background:new 0 0 609 422;" xml:space="preserve">
<style type="text/css">
	.st0{fill:#00B4E6;}
	.st1{fill:#7CCCEB;}
	.st2{fill:#EDF0F1;}
	.st3{fill:#BDC3C7;}
	.st4{fill:#E57E25;}
	.st5{fill:#7F8C8D;}
	.st6{fill:#364A5E;}
	.st7{fill:#2D3F50;}
	.st8{fill:#95A5A6;}
	.st9{fill:#D25727;}
	.st10{fill:#E01288;}
	.st11{fill:#E88664;}
	.st12{fill:#FFFFFF;}
	.st13{fill:#FFF67E;}
	.st14{fill:#828487;}
	.st15{clip-path:url(#SVGID_2_);}
	.st16{fill:#88171A;}
	.st17{fill:#C7C8CA;}
	.st18{opacity:0.34;clip-path:url(#SVGID_2_);}
	.st19{clip-path:url(#SVGID_4_);}
	.st20{fill:#A02821;}
	.st21{fill:#D8D9DA;}
	.st22{opacity:0.34;clip-path:url(#SVGID_4_);}
	.st23{clip-path:url(#SVGID_6_);}
	.st24{fill:#CA2327;}
	.st25{fill:#E0E1E2;}
	.st26{opacity:0.16;clip-path:url(#SVGID_6_);}
	.st27{clip-path:url(#SVGID_8_);}
	.st28{fill:#EF4623;}
	.st29{fill:#F1F2F2;}
	.st30{opacity:0.16;clip-path:url(#SVGID_8_);}
	.st31{clip-path:url(#SVGID_10_);}
	.st32{fill:#F15F22;}
	.st33{fill:#A5A7AA;}
	.st34{fill:#DADBDC;}
</style>
<g>
	<rect x="113.9" y="21.6" class="st0" width="457" height="354.7"/>
</g>
<g>
	<rect x="109.9" y="14.6" class="st1" width="457" height="354.7"/>
</g>
<g>
	<g>
		<path class="st2" d="M586.3,372.5v-295v-4.8v-6.9l-13.8-13.8l-13.8,13.8v6.9v4.8v295H586.3z"/>
	</g>
	<g>
		<path class="st3" d="M572.4,372.5V51.9l-13.8,13.8v6.9v4.8v295H572.4z"/>
	</g>
	<g>
		<rect x="558.6" y="72.7" class="st4" width="27.7" height="292.9"/>
	</g>
	<g>
		<path class="st5" d="M572.4,393.3c7.6,0,13.8-6.2,13.8-13.8v-6.9h-27.7v6.9C558.6,387.1,564.8,393.3,572.4,393.3z"/>
	</g>
	<g>
		<path class="st6" d="M582.2,61.6l-9.7-9.7l-9.7,9.7h9.7H582.2z"/>
	</g>
	<g>
		<path class="st7" d="M572.4,61.6v-9.7l-9.7,9.7H572.4z"/>
	</g>
	<g>
		<path class="st8" d="M572.4,393.3c7.6,0,13.8-6.2,13.8-13.8v-6.9h-13.8V393.3z"/>
	</g>
	<g>
		<rect x="558.6" y="72.7" class="st9" width="13.8" height="292.9"/>
	</g>
</g>
<g id="_x33_2Dj2s.tif">
	
		<image style="overflow:visible;" width="267" height="267" id="Layer_0_2_" xlink:href="25CD70662A35CE1.png"  transform="matrix(1 0 0 1 917.6441 0)">
	</image>
</g>
<g>
	<g>
		<path class="st10" d="M1068.3,99.1c-6.1,0-11.1-5-11.1-11.1s5-11.1,11.1-11.1c6.1,0,11.1,5,11.1,11.1S1074.4,99.1,1068.3,99.1z
			 M1068.3,80.9c-3.9,0-7.1,3.2-7.1,7.1s3.2,7.1,7.1,7.1s7.1-3.2,7.1-7.1S1072.2,80.9,1068.3,80.9z"/>
	</g>
	<g>
		<path class="st10" d="M1104.7,170.4c-6.1,0-11.1-5-11.1-11.1s5-11.1,11.1-11.1c6.1,0,11.1,5,11.1,11.1S1110.8,170.4,1104.7,170.4z
			 M1104.7,152.2c-3.9,0-7.1,3.2-7.1,7.1s3.2,7.1,7.1,7.1s7.1-3.2,7.1-7.1S1108.6,152.2,1104.7,152.2z"/>
	</g>
	<g>
		<path class="st10" d="M996.9,170.4c-6.1,0-11.1-5-11.1-11.1s5-11.1,11.1-11.1c6.1,0,11.1,5,11.1,11.1S1003,170.4,996.9,170.4z
			 M996.9,152.2c-3.9,0-7.1,3.2-7.1,7.1s3.2,7.1,7.1,7.1s7.1-3.2,7.1-7.1S1000.8,152.2,996.9,152.2z"/>
	</g>
	<g>
		<path class="st10" d="M1033,206.5c-6.1,0-11.1-5-11.1-11.1s5-11.1,11.1-11.1c6.1,0,11.1,5,11.1,11.1S1039.1,206.5,1033,206.5z
			 M1033,188.4c-3.9,0-7.1,3.2-7.1,7.1s3.2,7.1,7.1,7.1s7.1-3.2,7.1-7.1S1036.9,188.4,1033,188.4z"/>
	</g>
	<path class="st11" d="M1079.9,122.9l-10.3-10.3c0,0,0,0,0,0c-0.1-0.1-0.2-0.2-0.3-0.2c0,0,0,0,0,0c-0.3-0.2-0.7-0.3-1.1-0.3
		c-0.6,0-1.1,0.2-1.4,0.6l-10.3,10.3c-0.8,0.8-0.8,2,0,2.8c0.4,0.4,0.9,0.6,1.4,0.6s1-0.2,1.4-0.6l6.9-6.9v35.7c0,2.2-1.8,4-4,4
		H1039c-4.4,0-8,3.6-8,8v17.9c0,1.1,0.9,2,2,2s2-0.9,2-2v-17.9c0-2.2,1.8-4,4-4h23.2c4.4,0,8-3.6,8-8v-35.7l6.9,6.9
		c0.4,0.4,0.9,0.6,1.4,0.6s1-0.2,1.4-0.6C1080.7,124.9,1080.7,123.7,1079.9,122.9z"/>
	<path class="st10" d="M1035,88.1l5.8-5.8c0.8-0.8,0.8-2,0-2.8c-0.8-0.8-2-0.8-2.8,0l-5.8,5.8l-5.8-5.8c-0.8-0.8-2-0.8-2.8,0
		c-0.8,0.8-0.8,2,0,2.8l5.8,5.8l-5.8,5.8c-0.8,0.8-0.8,2,0,2.8c0.4,0.4,0.9,0.6,1.4,0.6s1-0.2,1.4-0.6l5.8-5.8l5.8,5.8
		c0.4,0.4,0.9,0.6,1.4,0.6s1-0.2,1.4-0.6c0.8-0.8,0.8-2,0-2.8L1035,88.1z"/>
	<path class="st10" d="M1035,124.3l5.8-5.8c0.8-0.8,0.8-2,0-2.8c-0.8-0.8-2-0.8-2.8,0l-5.8,5.8l-5.8-5.8c-0.8-0.8-2-0.8-2.8,0
		c-0.8,0.8-0.8,2,0,2.8l5.8,5.8l-5.8,5.8c-0.8,0.8-0.8,2,0,2.8c0.4,0.4,0.9,0.6,1.4,0.6s1-0.2,1.4-0.6l5.8-5.8l5.8,5.8
		c0.4,0.4,0.9,0.6,1.4,0.6s1-0.2,1.4-0.6c0.8-0.8,0.8-2,0-2.8L1035,124.3z"/>
	<path class="st10" d="M999.7,124.3l5.8-5.8c0.8-0.8,0.8-2,0-2.8c-0.8-0.8-2-0.8-2.8,0l-5.8,5.8l-5.8-5.8c-0.8-0.8-2-0.8-2.8,0
		c-0.8,0.8-0.8,2,0,2.8l5.8,5.8l-5.8,5.8c-0.8,0.8-0.8,2,0,2.8c0.4,0.4,0.9,0.6,1.4,0.6s1-0.2,1.4-0.6l5.8-5.8l5.8,5.8
		c0.4,0.4,0.9,0.6,1.4,0.6s1-0.2,1.4-0.6c0.8-0.8,0.8-2,0-2.8L999.7,124.3z"/>
	<path class="st10" d="M1107.5,124.3l5.8-5.8c0.8-0.8,0.8-2,0-2.8c-0.8-0.8-2-0.8-2.8,0l-5.8,5.8l-5.8-5.8c-0.8-0.8-2-0.8-2.8,0
		c-0.8,0.8-0.8,2,0,2.8l5.8,5.8l-5.8,5.8c-0.8,0.8-0.8,2,0,2.8c0.4,0.4,0.9,0.6,1.4,0.6s1-0.2,1.4-0.6l5.8-5.8l5.8,5.8
		c0.4,0.4,0.9,0.6,1.4,0.6s1-0.2,1.4-0.6c0.8-0.8,0.8-2,0-2.8L1107.5,124.3z"/>
	<path class="st10" d="M1071.2,195.4l5.8-5.8c0.8-0.8,0.8-2,0-2.8c-0.8-0.8-2-0.8-2.8,0l-5.8,5.8l-5.8-5.8c-0.8-0.8-2-0.8-2.8,0
		c-0.8,0.8-0.8,2,0,2.8l5.8,5.8l-5.8,5.8c-0.8,0.8-0.8,2,0,2.8c0.4,0.4,0.9,0.6,1.4,0.6s1-0.2,1.4-0.6l5.8-5.8l5.8,5.8
		c0.4,0.4,0.9,0.6,1.4,0.6s1-0.2,1.4-0.6c0.8-0.8,0.8-2,0-2.8L1071.2,195.4z"/>
</g>
<g>
	<g>
		<g>
			<path class="st12" d="M370.5,136.4c-9.4,0-17-7.6-17-17s7.6-17,17-17c9.4,0,17,7.6,17,17S379.9,136.4,370.5,136.4z M370.5,108.6
				c-6,0-10.9,4.9-10.9,10.9c0,6,4.9,10.9,10.9,10.9c6,0,10.9-4.9,10.9-10.9C381.4,113.4,376.5,108.6,370.5,108.6z"/>
		</g>
	</g>
	<g>
		<g>
			<path class="st12" d="M438.4,255c-9.4,0-17-7.6-17-17c0-9.4,7.6-17,17-17c9.4,0,17,7.6,17,17C455.4,247.4,447.7,255,438.4,255z
				 M438.4,227.1c-6,0-10.9,4.9-10.9,10.9c0,6,4.9,10.9,10.9,10.9c6,0,10.9-4.9,10.9-10.9C449.2,232,444.3,227.1,438.4,227.1z"/>
		</g>
	</g>
	<g>
		<g>
			<path class="st12" d="M234.8,255c-9.4,0-17-7.6-17-17c0-9.4,7.6-17,17-17c9.4,0,17,7.6,17,17C251.8,247.4,244.2,255,234.8,255z
				 M234.8,227.1c-6,0-10.9,4.9-10.9,10.9c0,6,4.9,10.9,10.9,10.9s10.9-4.9,10.9-10.9C245.7,232,240.8,227.1,234.8,227.1z"/>
		</g>
	</g>
	<g>
		<g>
			<path class="st12" d="M316.3,310.5c-9.4,0-17-7.6-17-17c0-9.4,7.6-17,17-17c9.4,0,17,7.6,17,17
				C333.3,302.9,325.7,310.5,316.3,310.5z M316.3,282.6c-6,0-10.9,4.9-10.9,10.9c0,6,4.9,10.9,10.9,10.9s10.9-4.9,10.9-10.9
				C327.2,287.5,322.3,282.6,316.3,282.6z"/>
		</g>
	</g>
	<g>
		<path class="st12" d="M388.3,182l-15.8-15.8c0,0,0,0-0.1-0.1c-0.1-0.1-0.3-0.2-0.4-0.3c0,0,0,0,0,0c-0.5-0.3-1.1-0.5-1.7-0.5
			c-0.9,0-1.6,0.4-2.2,0.9L352.3,182c-1.2,1.2-1.2,3.1,0,4.3c0.6,0.6,1.4,0.9,2.2,0.9s1.6-0.3,2.2-0.9l10.6-10.6v54.8
			c0,3.4-2.8,6.1-6.1,6.1h-35.6c-6.8,0-12.3,5.5-12.3,12.3v27.4c0,1.7,1.4,3.1,3.1,3.1s3.1-1.4,3.1-3.1V249c0-3.4,2.8-6.1,6.1-6.1
			h35.6c6.8,0,12.3-5.5,12.3-12.3v-54.8l10.6,10.6c0.6,0.6,1.4,0.9,2.2,0.9c0.8,0,1.6-0.3,2.2-0.9
			C389.5,185.2,389.5,183.2,388.3,182z"/>
	</g>
	<g>
		<path class="st12" d="M305.3,119.6l8.9-8.9c1.2-1.2,1.2-3.1,0-4.3c-1.2-1.2-3.1-1.2-4.3,0l-8.9,8.9l-8.9-8.9
			c-1.2-1.2-3.1-1.2-4.3,0c-1.2,1.2-1.2,3.1,0,4.3l8.9,8.9l-8.9,8.9c-1.2,1.2-1.2,3.1,0,4.3c0.6,0.6,1.4,0.9,2.2,0.9
			s1.6-0.3,2.2-0.9l8.9-8.9l8.9,8.9c0.6,0.6,1.4,0.9,2.2,0.9s1.6-0.3,2.2-0.9c1.2-1.2,1.2-3.1,0-4.3L305.3,119.6z"/>
	</g>
	<g>
		<path class="st12" d="M305.3,184.2l8.9-8.9c1.2-1.2,1.2-3.1,0-4.3c-1.2-1.2-3.1-1.2-4.3,0l-8.9,8.9l-8.9-8.9
			c-1.2-1.2-3.1-1.2-4.3,0c-1.2,1.2-1.2,3.1,0,4.3l8.9,8.9l-8.9,8.9c-1.2,1.2-1.2,3.1,0,4.3c0.6,0.6,1.4,0.9,2.2,0.9
			s1.6-0.3,2.2-0.9l8.9-8.9l8.9,8.9c0.6,0.6,1.4,0.9,2.2,0.9s1.6-0.3,2.2-0.9c1.2-1.2,1.2-3.1,0-4.3L305.3,184.2z"/>
	</g>
	<g>
		<path class="st12" d="M239.2,184.2l8.9-8.9c1.2-1.2,1.2-3.1,0-4.3c-1.2-1.2-3.1-1.2-4.3,0l-8.9,8.9l-8.9-8.9
			c-1.2-1.2-3.1-1.2-4.3,0c-1.2,1.2-1.2,3.1,0,4.3l8.9,8.9l-8.9,8.9c-1.2,1.2-1.2,3.1,0,4.3c0.6,0.6,1.4,0.9,2.2,0.9
			c0.8,0,1.6-0.3,2.2-0.9l8.9-8.9l8.9,8.9c0.6,0.6,1.4,0.9,2.2,0.9c0.8,0,1.6-0.3,2.2-0.9c1.2-1.2,1.2-3.1,0-4.3L239.2,184.2z"/>
	</g>
	<g>
		<path class="st12" d="M442.7,184.2l8.9-8.9c1.2-1.2,1.2-3.1,0-4.3c-1.2-1.2-3.1-1.2-4.3,0l-8.9,8.9l-8.9-8.9
			c-1.2-1.2-3.1-1.2-4.3,0c-1.2,1.2-1.2,3.1,0,4.3l8.9,8.9l-8.9,8.9c-1.2,1.2-1.2,3.1,0,4.3c0.6,0.6,1.4,0.9,2.2,0.9
			s1.6-0.3,2.2-0.9l8.9-8.9l8.9,8.9c0.6,0.6,1.4,0.9,2.2,0.9s1.6-0.3,2.2-0.9c1.2-1.2,1.2-3.1,0-4.3L442.7,184.2z"/>
	</g>
	<g>
		<path class="st12" d="M391.9,293.5l8.9-8.9c1.2-1.2,1.2-3.1,0-4.3c-1.2-1.2-3.1-1.2-4.3,0l-8.9,8.9l-8.9-8.9
			c-1.2-1.2-3.1-1.2-4.3,0c-1.2,1.2-1.2,3.1,0,4.3l8.9,8.9l-8.9,8.9c-1.2,1.2-1.2,3.1,0,4.3c0.6,0.6,1.4,0.9,2.2,0.9
			c0.8,0,1.6-0.3,2.2-0.9l8.9-8.9l8.9,8.9c0.6,0.6,1.4,0.9,2.2,0.9s1.6-0.3,2.2-0.9c1.2-1.2,1.2-3.1,0-4.3L391.9,293.5z"/>
	</g>
</g>
<g>
	<g>
		<path class="st13" d="M333,396h215V181L333,396z M515.9,363.9H411.5l104.5-104.5V363.9z"/>
	</g>
	<g>
		<rect x="537.4" y="214.5" class="st14" width="10.5" height="3"/>
	</g>
	<g>
		<rect x="537.4" y="233.9" class="st14" width="10.5" height="3"/>
	</g>
	<g>
		<rect x="537.4" y="253.4" class="st14" width="10.5" height="3"/>
	</g>
	<g>
		<rect x="537.4" y="272.8" class="st14" width="10.5" height="3"/>
	</g>
	<g>
		<rect x="537.4" y="292.3" class="st14" width="10.5" height="3"/>
	</g>
	<g>
		<rect x="537.4" y="311.8" class="st14" width="10.5" height="3"/>
	</g>
	<g>
		<rect x="537.4" y="331.2" class="st14" width="10.5" height="3"/>
	</g>
	<g>
		<rect x="537.4" y="350.7" class="st14" width="10.5" height="3"/>
	</g>
	<g>
		<rect x="537.4" y="370.1" class="st14" width="10.5" height="3"/>
	</g>
</g>
<g>
	<g>
		<g>
			<defs>
				<path id="SVGID_1_" d="M195.9,370l-13.2,27.4c-2.9,5.9-10.1,8.5-16,5.6L25.3,334.8c-5.9-2.9-8.5-10.1-5.6-16l13.2-27.4
					c2.9-5.9,10.1-8.5,16-5.6L190.3,354C196.2,356.9,198.7,364.1,195.9,370z"/>
			</defs>
			<clipPath id="SVGID_2_">
				<use xlink:href="#SVGID_1_"  style="overflow:visible;"/>
			</clipPath>
			<g class="st15">
				<path class="st2" d="M195.9,370l-13.2,27.4c-2.9,5.9-10.1,8.5-16,5.6L25.3,334.8c-5.9-2.9-8.5-10.1-5.6-16l13.2-27.4
					c2.9-5.9,10.1-8.5,16-5.6L190.3,354C196.2,356.9,198.7,364.1,195.9,370z"/>
			</g>
			<g class="st15">
				
					<rect x="41.2" y="262.6" transform="matrix(0.4345 -0.9007 0.9007 0.4345 -246.3343 254.5538)" class="st16" width="76.7" height="121.8"/>
			</g>
			<g class="st15">
				
					<rect x="130.2" y="331.3" transform="matrix(0.4345 -0.9007 0.9007 0.4345 -239.5043 362.433)" class="st17" width="77.3" height="81.3"/>
			</g>
			<g class="st18">
				<polygon points="28.3,289.6 37.8,276.9 194.6,344.8 161.4,393.1 				"/>
			</g>
		</g>
		<g>
			<defs>
				<path id="SVGID_3_" d="M200.3,370.7l-19.8,23c-4.3,5-11.9,5.6-16.9,1.3L44.7,292.5c-5-4.3-5.6-11.9-1.3-16.9l19.8-23
					c4.3-5,11.9-5.6,16.9-1.3L199,353.7C204,358,204.6,365.7,200.3,370.7z"/>
			</defs>
			<clipPath id="SVGID_4_">
				<use xlink:href="#SVGID_3_"  style="overflow:visible;"/>
			</clipPath>
			<g class="st19">
				<path class="st2" d="M200.3,370.7l-19.8,23c-4.3,5-11.9,5.6-16.9,1.3L44.7,292.5c-5-4.3-5.6-11.9-1.3-16.9l19.8-23
					c4.3-5,11.9-5.6,16.9-1.3L199,353.7C204,358,204.6,365.7,200.3,370.7z"/>
			</g>
			<g class="st19">
				
					<rect x="61.6" y="234.7" transform="matrix(0.6528 -0.7575 0.7575 0.6528 -189.191 178.356)" class="st20" width="76.7" height="121.8"/>
			</g>
			<g class="st19">
				
					<rect x="135.1" y="324.9" transform="matrix(0.6528 -0.7575 0.7575 0.6528 -216.5945 258.4982)" class="st21" width="77.3" height="81.3"/>
			</g>
			<g class="st22">
				<polygon points="50.8,249 67,233.3 213.1,360.3 153.7,377.7 				"/>
			</g>
		</g>
		<g>
			<defs>
				<path id="SVGID_5_" d="M198,367.9L172.9,385c-5.5,3.7-13,2.3-16.7-3.2L67.9,252.1c-3.7-5.5-2.3-13,3.2-16.7l25.1-17.1
					c5.5-3.7,13-2.3,16.7,3.2l88.3,129.7C204.9,356.6,203.4,364.1,198,367.9z"/>
			</defs>
			<clipPath id="SVGID_6_">
				<use xlink:href="#SVGID_5_"  style="overflow:visible;"/>
			</clipPath>
			<g class="st23">
				<path class="st2" d="M198,367.9L172.9,385c-5.5,3.7-13,2.3-16.7-3.2L67.9,252.1c-3.7-5.5-2.3-13,3.2-16.7l25.1-17.1
					c5.5-3.7,13-2.3,16.7,3.2l88.3,129.7C204.9,356.6,203.4,364.1,198,367.9z"/>
			</g>
			<g class="st23">
				
					<rect x="82.2" y="208.5" transform="matrix(0.8266 -0.5627 0.5627 0.8266 -130.6886 114.5198)" class="st24" width="76.7" height="121.8"/>
			</g>
			<g class="st23">
				
					<rect x="135" y="315.4" transform="matrix(0.8266 -0.5627 0.5627 0.8266 -170.2511 159.4305)" class="st25" width="77.3" height="81.3"/>
			</g>
			<g class="st26">
				<polygon points="86.7,216.4 108.7,202.6 214.4,364.8 149.9,366.8 				"/>
			</g>
		</g>
		<g>
			<defs>
				<path id="SVGID_7_" d="M196,370.2l-28.7,10c-6.2,2.2-13.1-1.1-15.3-7.4l-51.7-148.2c-2.2-6.2,1.1-13.1,7.4-15.3l28.7-10
					c6.2-2.2,13.1,1.1,15.3,7.4L203.4,355C205.6,361.2,202.2,368.1,196,370.2z"/>
			</defs>
			<clipPath id="SVGID_8_">
				<use xlink:href="#SVGID_7_"  style="overflow:visible;"/>
			</clipPath>
			<g class="st27">
				<path class="st2" d="M196,370.2l-28.7,10c-6.2,2.2-13.1-1.1-15.3-7.4l-51.7-148.2c-2.2-6.2,1.1-13.1,7.4-15.3l28.7-10
					c6.2-2.2,13.1,1.1,15.3,7.4L203.4,355C205.6,361.2,202.2,368.1,196,370.2z"/>
			</g>
			<g class="st27">
				
					<rect x="108.3" y="194.2" transform="matrix(0.9441 -0.3296 0.3296 0.9441 -75.8715 62.5954)" class="st28" width="76.7" height="121.8"/>
			</g>
			<g class="st27">
				
					<rect x="136.9" y="311.9" transform="matrix(0.9441 -0.3296 0.3296 0.9441 -106.381 77.5568)" class="st29" width="77.3" height="81.3"/>
			</g>
			<g class="st30">
				<polygon points="137.6,191 162.8,184.9 211.8,372.2 156.5,358.8 				"/>
			</g>
		</g>
		<g>
			<defs>
				<path id="SVGID_9_" d="M196.2,372.6l-30.4,0.7c-6.6,0.2-12.1-5.1-12.3-11.7l-3.7-156.9c-0.2-6.6,5.1-12.1,11.7-12.3l30.4-0.7
					c6.6-0.2,12.1,5.1,12.3,11.7l3.7,156.9C208.1,366.9,202.8,372.4,196.2,372.6z"/>
			</defs>
			<clipPath id="SVGID_10_">
				<use xlink:href="#SVGID_9_"  style="overflow:visible;"/>
			</clipPath>
			<g class="st31">
				<path class="st2" d="M196.2,372.6l-30.4,0.7c-6.6,0.2-12.1-5.1-12.3-11.7l-3.7-156.9c-0.2-6.6,5.1-12.1,11.7-12.3l30.4-0.7
					c6.6-0.2,12.1,5.1,12.3,11.7l3.7,156.9C208.1,366.9,202.8,372.4,196.2,372.6z"/>
			</g>
			<g class="st31">
				
					<rect x="146.3" y="187" transform="matrix(0.9997 -2.353061e-02 2.353061e-02 0.9997 -5.7806 4.4133)" class="st32" width="76.7" height="121.8"/>
			</g>
			<g class="st31">
				
					<rect x="143.5" y="308.8" transform="matrix(0.9997 -2.353061e-02 2.353061e-02 0.9997 -8.1723 4.3832)" class="st12" width="77.3" height="81.3"/>
			</g>
		</g>
	</g>
	<g>
		
			<ellipse transform="matrix(0.9997 -2.353061e-02 2.353061e-02 0.9997 -8.4043 4.7387)" class="st33" cx="197.2" cy="359.5" rx="3.2" ry="3.2"/>
	</g>
	<g>
		
			<rect x="159.7" y="318.2" transform="matrix(0.9997 -2.353061e-02 2.353061e-02 0.9997 -7.5391 4.3051)" class="st34" width="38.9" height="8.6"/>
	</g>
	<g>
		
			<rect x="160" y="333" transform="matrix(0.9997 -2.353061e-02 2.353061e-02 0.9997 -7.8552 4.1242)" class="st34" width="22.6" height="5.8"/>
	</g>
	<g>
		
			<rect x="160.3" y="344.1" transform="matrix(0.9997 -2.353061e-02 2.353061e-02 0.9997 -8.1177 4.1335)" class="st34" width="22.6" height="5.8"/>
	</g>
</g>
<g>
	<g>
		<path class="st12" d="M300.3,61.4c0,3.2-1.1,6-3.4,8.3c-2.3,2.3-5,3.5-8.3,3.5c-3.2,0-6-1.1-8.3-3.3c-2.3-2.2-3.5-4.9-3.5-8
			c0-3.2,1.1-6,3.4-8.3c2.3-2.3,5-3.5,8.2-3.5c3.2,0,6,1.1,8.3,3.3C299.2,55.6,300.3,58.3,300.3,61.4z M298.2,61.6
			c0-2.6-1-4.8-2.9-6.6c-1.9-1.8-4.1-2.7-6.7-2.7c-2.6,0-4.8,0.9-6.6,2.8c-1.9,1.8-2.8,4.1-2.8,6.6c0,2.6,0.9,4.8,2.8,6.6
			s4.1,2.8,6.7,2.8c2.6,0,4.9-0.9,6.8-2.8S298.2,64.2,298.2,61.6z"/>
	</g>
	<g>
		<path class="st12" d="M329.3,57.8c0,1.7-0.6,3.2-1.8,4.5c-1.1,1.3-2.6,2-4.2,2.1l-0.6,0.1l6.2,8.3h-2.8l-7.5-10.1h2.2
			c2,0,3.5-0.5,4.6-1.5s1.7-2.3,1.6-3.8c-0.1-1.4-0.6-2.5-1.5-3.4c-1-0.9-2.4-1.4-4.1-1.4h-5v20.2h-2.3V50.5h7.1
			c2.5,0,4.4,0.7,5.9,2C328.6,53.9,329.3,55.6,329.3,57.8z"/>
	</g>
	<g>
		<path class="st12" d="M345.2,72.8H343V50.4h2.2V72.8z"/>
	</g>
	<g>
		<path class="st12" d="M371.5,72.8h-6.4c-1.7,0-3.1-0.5-4.1-1.4c-1.1-0.9-1.6-2.3-1.6-4.1V56c0-1.8,0.5-3.1,1.6-4.1
			c1.1-0.9,2.5-1.4,4.1-1.4h6.4v2.1H365c-1.2,0-2,0.2-2.4,0.7c-0.7,0.8-1.1,1.5-1.1,2.3v4.8h7.5v2.1h-7.5v5.1c0,0.8,0.4,1.5,1.1,2.3
			c0.5,0.5,1.3,0.7,2.4,0.7h6.4V72.8z"/>
	</g>
	<g>
		<path class="st12" d="M401.9,72.8h-2.5l-12.8-19.4v19.4h-2.3V50.4h3l12.3,18.7V50.4h2.3V72.8z"/>
	</g>
</g>
</svg>
