<svg xmlns="http://www.w3.org/2000/svg" xmlns:xlink="http://www.w3.org/1999/xlink" viewBox="0 0 100 100">
    <symbol id="logo" viewBox="0 0 100 100">
        <path d="M73.87,11.86a4.31,4.31,0,1,1,4.31-4.31A4.32,4.32,0,0,1,73.87,11.86Zm0-6.94A2.62,2.62,0,1,0,76.5,7.55,2.63,2.63,0,0,0,73.87,4.92Z"/>
        <path d="M50,17.51L21.84,33.77V66.3L50,82.57,78.18,66.3V33.77ZM46.52,33.74L25.29,46V35.76L50,21.49,73,34.77,25.29,62.32V50L46.54,37.75v-4ZM50,78.58L27,65.31,74.74,37.75V64.31Z"/>
        <polygon points="53.49 66.28 74.7 54.04 74.7 50.06 53.5 62.3 53.49 66.28"/>
        <path d="M89.81,27.06A46,46,0,1,1,50,4V0.66A49.37,49.37,0,1,0,92.74,25.37Z"/>
    </symbol>
    <use fill="orange" xlink:href="#logo" />
    
    
</svg>