<svg xmlns="http://www.w3.org/2000/svg" xmlns:xlink="http://www.w3.org/1999/xlink" viewBox="0 0 200 100">
    
    <symbol id="logo" viewBox="0 0 200 100">
        
    <path d="M45.24,29.87a2.15,2.15,0,1,1,2.15-2.15h0A2.15,2.15,0,0,1,45.24,29.87Zm0-3.46a1.31,1.31,0,1,0,1.31,1.31,1.31,1.31,0,0,0-1.31-1.31h0Z"/><path d="M33.34,65.16L19.27,57V40.81l14.07-8.12L47.4,40.81V57ZM21,56.05l12.34,7.12,12.34-7.12V41.81L33.33,34.68,21,41.81V56.05h0Z"/><rect x="18.12" y="48.17" width="30.1" height="1.72" transform="translate(-20.07 23.15) rotate(-30)"/><polygon points="20.83 47.01 31.59 40.8 31.6 42.8 20.63 49.11 20.83 47.01"/><polyline points="45.66 48.94 35.07 55.05 35.07 57.04 45.66 50.92"/><path d="M53.2,37.47A22.93,22.93,0,1,1,33.33,26v-1.7A24.64,24.64,0,1,0,54.66,36.61Z"/><path d="M72.56,54Q68.69,54,68.69,50V34.19q0-4.09,3.84-4.09H75.6q3.84,0,3.84,4.09V50q0,4.07-3.87,4.07h-3Zm0.77-2.9H75a1.18,1.18,0,0,0,1.27-1.4V34.39A1.25,1.25,0,0,0,74.79,33h-1.5a1.24,1.24,0,0,0-1.4,1.4V49.73A1.25,1.25,0,0,0,73.32,51.13Z"/><path d="M96.23,30.09h6.27q3.67,0,3.67,4.09v5.91q0,3.13-1.9,4l2.24,10h-3l-2.11-9.67H99.42V54H96.23V30.09Zm3.2,11.54h2.1q1.43,0,1.43-1.73V34.72Q103,33,101.53,33h-2.1v8.64h0Z"/><path d="M127.07,54V30.09h3.2V54h-3.2Z"/><path d="M152,54V30.09h7.94V33H155.2v7.28h4.2v2.89h-4.2v8h4.73V54H152v0Z"/><path d="M185,41.66V30.09h3.2V54H185V49.25l-3.44-10.91V54h-3.2V30.09h3.2Z"/><path d="M73.29,66.7a4.41,4.41,0,0,1-.1.43h3.5v0.72H72.9a3.43,3.43,0,0,1-.72.84,7,7,0,0,1-2.92,1L69,69.05a7.24,7.24,0,0,0,2.65-.82A2.61,2.61,0,0,0,72,67.86h-2.9V67.14h3.35c0-.14.08-0.29,0.11-0.43h0.7Zm1.34-3.18a13.29,13.29,0,0,1-1.38.17v0.83h0.43A5.51,5.51,0,0,0,74,63.77L74.64,64a3.65,3.65,0,0,1-.29.52h0.53v0.65H73.26c0.49,0.2,1,.44,1.51.71l-0.17.26,0.43,0a0.19,0.19,0,0,0,.19-0.23v-3H70.59V66.8H69.83V62.19h2.33a3.88,3.88,0,0,0,.26-0.67l0.84,0.1a3,3,0,0,1-.26.56h3v3.93a0.64,0.64,0,0,1-.73.7H74.72l-0.16-.63-0.21.32c-0.43-.34-0.79-0.61-1.09-0.8v0.77H72.58V65.6a6.21,6.21,0,0,1-1.31.93l-0.36-.64a6.59,6.59,0,0,0,1.47-.73H70.94V64.51H71.5a3.61,3.61,0,0,0-.33-0.45l0.61-.23a4.44,4.44,0,0,1,.37.68h0.41V63.71l-1.22,0-0.18-.53A19.75,19.75,0,0,0,74.33,63Zm2.27,5.61-0.42.65A21.31,21.31,0,0,0,73.1,68.7l0.39-.6a22.41,22.41,0,0,1,3.43,1h0Z"/><path d="M108,65.95c-0.35,1.32-.74,2.56-1.17,3.72L106,69.33q0.68-1.8,1.21-3.68Zm0-1.91-0.68.48A18.3,18.3,0,0,0,106,62.36l0.68-.42a16.78,16.78,0,0,1,1.22,2.1h0Zm3.23,1.74c-0.12.23-.25,0.45-0.38,0.65H113v0.65a3.23,3.23,0,0,1-1.05,1.35,9.89,9.89,0,0,0,2.21.73l-0.51.73a9.84,9.84,0,0,1-2.46-1,11.18,11.18,0,0,1-2.9,1l-0.4-.73a10.75,10.75,0,0,0,2.59-.75,6.89,6.89,0,0,1-.84-0.73,5.87,5.87,0,0,1-.91.7l-0.63-.55a6.79,6.79,0,0,0,1-.75,5.16,5.16,0,0,1-.33-0.48l0.61-.35a3.2,3.2,0,0,0,.21.32,5.7,5.7,0,0,0,.76-1.14Zm-0.55-3.32V61.8h0.81v0.65h2v0.74h-2v0.7h2.34v0.74H112.5v0.49a0.2,0.2,0,0,0,.19.21h1.15V66h-1.45a0.53,0.53,0,0,1-.64-0.55V64.63h-1.47a2.41,2.41,0,0,1-1.8,1.79l-0.39-.61a1.93,1.93,0,0,0,1.46-1.18h-1.23V63.89h2.27v-0.7H108.7V62.45h1.89Zm0.63,5.6a3.25,3.25,0,0,0,.94-0.93h-1.92l-0.1.11a6.1,6.1,0,0,0,1.07.83h0Z"/><path d="M146.23,61.85a26.79,26.79,0,0,1,2.26,1.57l-0.48.65-0.85-.67v0.52h-2.1V63.59q-0.6.49-1.32,1l-0.48-.68a11.4,11.4,0,0,0,2.48-2h0.5ZM148,69.92h-0.79V69.61h-1.66v0.32h-0.76V67.5a7.1,7.1,0,0,1-.91,2.44l-0.65-.58a6.12,6.12,0,0,0,.87-3.37V64.34h3.8v2.61h-3c0,0.18,0,.35-0.07.5H148v2.47h0ZM144.95,66v0.36h2.19V65.91h-2.19V66h0Zm2.18-1h-2.18v0.42h2.18V64.94ZM147,63.29a11.79,11.79,0,0,0-1-.68,9.41,9.41,0,0,1-.67.68H147Zm0.2,5.67V68.11h-1.66V69h1.66ZM149,69.87l-0.19-.81c0.42,0,.83,0,1.22,0a0.28,0.28,0,0,0,.32-0.32V61.85h0.83V69a0.77,0.77,0,0,1-.85.87H149Zm0.62-7.43v5.65h-0.8V62.44h0.8Z"/><path d="M181.84,68.24a6,6,0,0,1-.85,1.82l-0.72-.45a4.73,4.73,0,0,0,.76-1.53Zm-1-4.89V62.65h2.91c-0.07-.15-0.14-0.29-0.21-0.42l0.91-.14c0.07,0.17.15,0.35,0.23,0.56h3.05v0.71h-1.4l-0.25.53h2.07v0.72h-7.72V63.89h2l-0.21-.53h-1.38ZM187.24,65v2.75h-5.88V65h5.88Zm-0.82,1.08V65.63h-4.24v0.43h4.24Zm0,0.6h-4.24V67.1h4.24V66.66Zm-3,3.51a0.85,0.85,0,0,1-1-.91V68.13h0.85v0.95a0.33,0.33,0,0,0,.4.33h1.76a0.47,0.47,0,0,0,.34-0.1,1.24,1.24,0,0,0,.19-0.7l0.79,0.25a1.62,1.62,0,0,1-.39,1.12,1.46,1.46,0,0,1-.77.17h-2.16Zm1.82-6.28,0.26-.53h-2.35l0.21,0.53h1.88Zm0.1,4.82-0.7.49a7.88,7.88,0,0,0-.82-1l0.71-.45a6.65,6.65,0,0,1,.81.93h0Zm3.06,0.75-0.7.48a11.93,11.93,0,0,0-1.1-1.56l0.68-.42a12.09,12.09,0,0,1,1.12,1.5h0Z"/>
    </symbol>
    
    <use fill="orange" xlink:href="#logo" />
</svg>