<svg xmlns="http://www.w3.org/2000/svg" xmlns:xlink="http://www.w3.org/1999/xlink" viewBox="0 0 150 100">
    
    <symbol id="logo" viewBox="0 0 150 100">
        
    <path d="M15.61,54.3q-4.1,0-4.1-4.32V33.23q0-4.35,4.07-4.35h3.26q4.07,0,4.07,4.35V50q0,4.32-4.1,4.32H15.61Zm0.81-3.08h1.73a1.26,1.26,0,0,0,1.35-1.49V33.44A1.33,1.33,0,0,0,18,32H16.39a1.31,1.31,0,0,0-1.49,1.49V49.73A1.33,1.33,0,0,0,16.43,51.22Z"/><path d="M40.74,28.88H47.4q3.9,0,3.89,4.35V39.5q0,3.33-2,4.21L51.64,54.3H48.42L46.19,44H44.13V54.3H40.74V28.88Zm3.4,12.25h2.23q1.52,0,1.52-1.84V33.8q0-1.84-1.52-1.84H44.14v9.17h0Z"/><path d="M73.48,54.3V28.88h3.4V54.3h-3.4Z"/><path d="M100,54.3V28.88h8.43V32h-5v7.73h4.46v3.07h-4.46V51.2h5v3.08H100v0Z"/><path d="M135,41.16V28.88h3.4V54.3H135V49.23l-3.65-11.59V54.28h-3.4V28.88h3.4Z"/><path d="M16.4,67.74a4.68,4.68,0,0,1-.1.46H20V69H16a3.64,3.64,0,0,1-.77.89A7.46,7.46,0,0,1,12.1,71l-0.32-.72a7.69,7.69,0,0,0,2.81-.87A2.77,2.77,0,0,0,15.05,69H12V68.21h3.56c0-.15.08-0.31,0.12-0.46H16.4Zm1.42-3.38a14.11,14.11,0,0,1-1.46.18v0.88h0.46a5.85,5.85,0,0,0,.34-0.79l0.66,0.24a3.87,3.87,0,0,1-.31.55h0.56v0.69H16.36c0.52,0.21,1.06.47,1.6,0.75l-0.18.27,0.46,0a0.2,0.2,0,0,0,.21-0.24V63.71H13.53v4.15H12.72V63H15.2a4.12,4.12,0,0,0,.27-0.71l0.89,0.11a3.2,3.2,0,0,1-.27.6h3.18v4.17a0.68,0.68,0,0,1-.78.74H17.91l-0.17-.66-0.22.34c-0.46-.36-0.84-0.64-1.16-0.85v0.82H15.64V66.58a6.6,6.6,0,0,1-1.39,1l-0.38-.68a7,7,0,0,0,1.56-.78H13.89V65.42h0.6a3.83,3.83,0,0,0-.35-0.48l0.65-.24a4.72,4.72,0,0,1,.39.72h0.44V64.58q-0.62,0-1.29,0L14.14,64a21,21,0,0,0,3.36-.22Zm2.41,6L19.79,71a22.62,22.62,0,0,0-3.6-1.13l0.41-.64a23.79,23.79,0,0,1,3.64,1.08h0Z"/><path d="M53.19,67c-0.38,1.4-.79,2.72-1.25,4l-0.84-.36q0.72-1.91,1.28-3.91Zm0-2-0.72.51a19.43,19.43,0,0,0-1.29-2.29l0.72-.45a17.82,17.82,0,0,1,1.3,2.23h0Zm3.43,1.84c-0.13.24-.27,0.48-0.4,0.69h2.36v0.69a3.43,3.43,0,0,1-1.12,1.43,10.5,10.5,0,0,0,2.35.78l-0.54.78a10.45,10.45,0,0,1-2.61-1,11.87,11.87,0,0,1-3.08,1.08l-0.42-.77a11.41,11.41,0,0,0,2.75-.8A7.32,7.32,0,0,1,55,68.84a6.23,6.23,0,0,1-1,.74L53.34,69a7.21,7.21,0,0,0,1.1-.8,5.48,5.48,0,0,1-.35-0.51l0.65-.38a3.4,3.4,0,0,0,.22.34,6.06,6.06,0,0,0,.81-1.21ZM56,63.24v-0.7h0.86v0.69h2.09V64H56.85v0.74h2.48v0.79H58v0.52a0.21,0.21,0,0,0,.2.23h1.22V67H57.9a0.56,0.56,0,0,1-.68-0.58V65.55H55.65a2.55,2.55,0,0,1-1.91,1.9l-0.41-.65a2,2,0,0,0,1.55-1.26H53.57V64.76H56V64H54V63.23h2Zm0.67,5.94a3.45,3.45,0,0,0,1-1h-2l-0.1.11a6.48,6.48,0,0,0,1.14.88h0Z"/><path d="M93.83,62.59a28.44,28.44,0,0,1,2.4,1.67l-0.51.7-0.9-.71V64.8H92.59V64.45q-0.63.52-1.4,1l-0.51-.72a12.1,12.1,0,0,0,2.63-2.17h0.53Zm1.89,8.57H94.89V70.84H93.13v0.34H92.32V68.59a7.54,7.54,0,0,1-1,2.6l-0.69-.62A6.5,6.5,0,0,0,91.59,67V65.24h4V68H92.41c0,0.19,0,.37-0.07.53h3.39v2.62h0ZM92.47,67v0.38h2.32V66.91H92.47V67h0Zm2.32-1.11H92.47v0.45h2.32V65.89Zm-0.1-1.75a12.51,12.51,0,0,0-1-.72,10,10,0,0,1-.71.72h1.74Zm0.21,6V69.24H93.13v0.91h1.76Zm1.84,1-0.21-.86c0.45,0,.88,0,1.29,0A0.3,0.3,0,0,0,98.16,70V62.59H99v7.59a0.81,0.81,0,0,1-.91.93h-1.4Zm0.66-7.89v6H96.53v-6h0.85Z"/><path d="M131.63,69.39a6.37,6.37,0,0,1-.9,1.93L130,70.84a5,5,0,0,0,.81-1.62Zm-1-5.19V63.45h3.09c-0.07-.16-0.15-0.31-0.22-0.44l1-.15c0.07,0.18.16,0.37,0.24,0.59h3.24V64.2h-1.49l-0.27.56h2.2v0.77h-8.2V64.76h2.13l-0.22-.56h-1.46Zm6.77,1.73v2.92h-6.24V65.92h6.24Zm-0.87,1.14V66.61H132v0.46h4.5Zm0,0.64H132v0.47h4.5V67.71Zm-3.23,3.73a0.91,0.91,0,0,1-1.08-1V69.26h0.9v1a0.35,0.35,0,0,0,.43.35h1.87a0.5,0.5,0,0,0,.36-0.1,1.32,1.32,0,0,0,.2-0.74l0.84,0.27a1.72,1.72,0,0,1-.41,1.19,1.55,1.55,0,0,1-.82.18h-2.29Zm1.93-6.67,0.27-.56H133l0.22,0.56h2Zm0.11,5.12-0.74.52a8.37,8.37,0,0,0-.87-1l0.76-.48a7.06,7.06,0,0,1,.86,1h0Zm3.25,0.8-0.74.51a12.67,12.67,0,0,0-1.16-1.66l0.72-.45a12.84,12.84,0,0,1,1.19,1.59h0Z"/>
    </symbol>
    
    <use fill="orange" xlink:href="#logo" />
</svg>