<svg xmlns="http://www.w3.org/2000/svg" viewBox="0 0 743.27 144.88"><defs><style>.a{fill:#f37021;}</style></defs><title>logo</title><path class="a" d="M262.64,429.6h0a7.24,7.24,0,1,0-7.24-7.24,7.25,7.25,0,0,0,7.24,7.24Zm-2.8-7.24a2.8,2.8,0,1,1,2.8,2.8A2.8,2.8,0,0,1,259.84,422.36Z" transform="translate(-155.61 -411.37)"/><path class="a" d="M186.33,459.73V508l41.79,24.11L269.88,508V459.72l-41.76-24.11Zm76.56,23.54L232.15,501v8.07l30.74-17.75v12.58L228.11,524l-31.27-18.05,66-38.13v15.46Zm-69.55,16.62V484.34l30.75-17.7,0-8.11-30.72,17.74v-12.5l34.77-20.08,31.29,18.06Z" transform="translate(-155.61 -411.37)"/><path class="a" d="M290.8,447.62l-0.5-.87-6,3.5,0.5,0.86a65.5,65.5,0,1,1-56.76-32.82h1v-6.92h-1a72.44,72.44,0,0,0,0,144.88h0A72.44,72.44,0,0,0,290.8,447.62Z" transform="translate(-155.61 -411.37)"/><path class="a" d="M390.35,531.84q-17,0-17-17.89V444.57q0-18,16.87-18h13.49q16.87,0,16.87,18v69.37q0,17.9-17,17.89H390.35Zm3.37-12.76h7.18q5.57,0,5.58-6.16V445.46q0-6.16-6.31-6.16h-6.6q-6.16,0-6.16,6.16v67.46Q387.42,519.08,393.72,519.08Z" transform="translate(-155.61 -411.37)"/><path class="a" d="M494.44,426.54H522q16.14,0,16.13,18v26q0,13.78-8.36,17.45l9.83,43.85H526.26L517,489.31h-8.51v42.53h-14V426.54Zm14.08,50.74h9.24q6.31,0,6.31-7.62V446.92q0-7.62-6.31-7.62h-9.24v38Z" transform="translate(-155.61 -411.37)"/><path class="a" d="M630.06,531.84V426.54h14.08v105.3H630.06Z" transform="translate(-155.61 -411.37)"/><path class="a" d="M739.72,531.84V426.54h34.9V439.3H753.8v32h18.48V484H753.8v35h20.82v12.76h-34.9v0.08Z" transform="translate(-155.61 -411.37)"/><path class="a" d="M884.8,477.43V426.54h14.08v105.3H884.8v-21l-15.11-48v68.93H855.62V426.54H869.7Z" transform="translate(-155.61 -411.37)"/></svg>