<?xml version="1.0" encoding="utf-8"?>
<!-- Generator: Adobe Illustrator 19.2.1, SVG Export Plug-In . SVG Version: 6.00 Build 0)  -->
<svg version="1.1" id="Layer_1" xmlns="http://www.w3.org/2000/svg" xmlns:xlink="http://www.w3.org/1999/xlink" x="0px" y="0px"
	 viewBox="0 0 100 100" style="enable-background:new 0 0 100 100;" xml:space="preserve">
<style type="text/css">
	.st0{fill:#F37021;}
</style>
<g>
	<g>
		<path d="M73.9,11.9c-2.4,0-4.3-1.9-4.3-4.3c0-2.4,1.9-4.3,4.3-4.3s4.3,1.9,4.3,4.3C78.2,9.9,76.2,11.9,73.9,11.9z M73.9,4.9
			c-1.4,0-2.6,1.2-2.6,2.6c0,1.4,1.2,2.6,2.6,2.6s2.6-1.2,2.6-2.6C76.5,6.1,75.3,4.9,73.9,4.9z"/>
	</g>
	<g>
		<path d="M50,17.5L21.8,33.8v32.5L50,82.6l28.2-16.3V33.8L50,17.5z M46.5,33.7L25.3,46V35.8L50,21.5l23,13.3L25.3,62.3V50
			l21.2-12.2L46.5,33.7z M50,78.6L27,65.3l47.7-27.6v26.6L50,78.6z"/>
		<polygon points="53.5,66.3 74.7,54 74.7,50.1 53.5,62.3 		"/>
	</g>
	<path d="M89.8,27.1C93.7,33.8,96,41.6,96,50c0,25.3-20.6,46-46,46C24.7,96,4,75.3,4,50C4,24.7,24.7,4,50,4V0.7
		C22.8,0.7,0.7,22.8,0.7,50c0,27.2,22.1,49.3,49.3,49.3c27.2,0,49.3-22.1,49.3-49.3c0-9-2.4-17.4-6.6-24.6L89.8,27.1z"/>
</g>
</svg>
