<?xml version="1.0" encoding="utf-8"?>
<!-- Generator: Adobe Illustrator 19.2.1, SVG Export Plug-In . SVG Version: 6.00 Build 0)  -->
<svg version="1.1" id="Layer_1" xmlns="http://www.w3.org/2000/svg" xmlns:xlink="http://www.w3.org/1999/xlink" x="0px" y="0px"
	 viewBox="0 0 200 100" style="enable-background:new 0 0 200 100;" xml:space="preserve">
<style type="text/css">
	.st0{fill:#F37021;}
	.st1{fill:#F37124;}
</style>
<path class="st1" d="M45.2,29.9c-1.2,0-2.2-1-2.2-2.2c0-1.2,1-2.2,2.2-2.2c1.2,0,2.2,1,2.2,2.2c0,0,0,0,0,0
	C47.4,28.9,46.4,29.9,45.2,29.9z M45.2,26.4c-0.7,0-1.3,0.6-1.3,1.3c0,0.7,0.6,1.3,1.3,1.3c0.7,0,1.3-0.6,1.3-1.3
	C46.6,27,46,26.4,45.2,26.4L45.2,26.4z"/>
<path class="st1" d="M33.3,65.2L19.3,57V40.8l14.1-8.1l14.1,8.1V57L33.3,65.2z M21,56.1l12.3,7.1l12.3-7.1V41.8l-12.3-7.1L21,41.8
	V56.1L21,56.1z"/>
<rect x="18.1" y="48.2" transform="matrix(0.866 -0.5 0.5 0.866 -20.0709 23.1523)" class="st1" width="30.1" height="1.7"/>
<polygon class="st1" points="20.8,47 31.6,40.8 31.6,42.8 20.6,49.1 "/>
<polyline class="st1" points="45.7,48.9 35.1,55 35.1,57 45.7,50.9 "/>
<path class="st1" d="M53.2,37.5c6.3,11,2.5,25-8.4,31.3s-25,2.5-31.3-8.4s-2.5-25,8.4-31.3c3.5-2,7.4-3.1,11.4-3.1v-1.7
	c-13.6,0-24.6,11-24.7,24.6s11,24.6,24.6,24.7c13.6,0,24.6-11,24.7-24.6c0-4.3-1.1-8.6-3.3-12.3L53.2,37.5z"/>
<path class="st1" d="M72.6,54c-2.6,0-3.9-1.4-3.9-4.1V34.2c0-2.7,1.3-4.1,3.8-4.1h3.1c2.6,0,3.8,1.4,3.8,4.1V50
	c0,2.7-1.3,4.1-3.9,4.1L72.6,54L72.6,54z M73.3,51.1H75c0.8,0,1.3-0.5,1.3-1.4V34.4c0-0.9-0.5-1.4-1.4-1.4h-1.5
	c-0.9,0-1.4,0.5-1.4,1.4v15.3C71.9,50.7,72.4,51.1,73.3,51.1z"/>
<path class="st1" d="M96.2,30.1h6.3c2.4,0,3.7,1.4,3.7,4.1v5.9c0,2.1-0.6,3.4-1.9,4l2.2,10h-3l-2.1-9.7h-1.9V54h-3.2V30.1z
	 M99.4,41.6h2.1c1,0,1.4-0.6,1.4-1.7v-5.2c0-1.2-0.5-1.7-1.4-1.7h-2.1L99.4,41.6L99.4,41.6z"/>
<path class="st1" d="M127.1,54V30.1h3.2V54H127.1z"/>
<path class="st1" d="M152,54V30.1h7.9V33h-4.7v7.3h4.2v2.9h-4.2v8h4.7V54L152,54L152,54z"/>
<path class="st1" d="M185,41.7V30.1h3.2V54H185v-4.8l-3.4-10.9V54h-3.2V30.1h3.2L185,41.7z"/>
<path class="st1" d="M73.3,66.7c0,0.1-0.1,0.3-0.1,0.4h3.5v0.7h-3.8c-0.2,0.3-0.4,0.6-0.7,0.8c-0.6,0.4-1.5,0.8-2.9,1L69,69.1
	c1.2-0.2,2.1-0.5,2.6-0.8c0.2-0.1,0.3-0.2,0.4-0.4h-2.9v-0.7h3.3c0-0.1,0.1-0.3,0.1-0.4L73.3,66.7L73.3,66.7z M74.6,63.5
	c-0.5,0.1-0.9,0.1-1.4,0.2v0.8h0.4c0.1-0.2,0.2-0.5,0.3-0.7l0.6,0.2c-0.1,0.2-0.2,0.4-0.3,0.5h0.5v0.7h-1.6l0,0
	c0.5,0.2,1,0.4,1.5,0.7l-0.2,0.3l0.4,0c0.1,0,0.2-0.1,0.2-0.2c0,0,0,0,0,0v-3h-4.6v3.9h-0.8v-4.6h2.3c0.1-0.2,0.2-0.4,0.3-0.7
	l0.8,0.1c-0.1,0.2-0.2,0.4-0.3,0.6h3v3.9c0,0.5-0.2,0.7-0.7,0.7h-0.5l-0.2-0.6l-0.2,0.3c-0.4-0.3-0.8-0.6-1.1-0.8v0.8h-0.7v-0.9
	c-0.4,0.4-0.8,0.7-1.3,0.9l-0.4-0.6c0.5-0.2,1-0.4,1.5-0.7h-1.4v-0.7h0.6c-0.1-0.2-0.2-0.3-0.3-0.5l0.6-0.2c0.1,0.2,0.3,0.4,0.4,0.7
	h0.4v-0.8c-0.4,0-0.8,0-1.2,0l-0.2-0.5c1.1,0,2.1-0.1,3.2-0.2L74.6,63.5z M76.9,69.1l-0.4,0.7c-1.1-0.5-2.2-0.8-3.4-1.1l0.4-0.6
	C74.7,68.3,75.8,68.7,76.9,69.1L76.9,69.1z"/>
<path class="st1" d="M108,65.9c-0.4,1.3-0.7,2.6-1.2,3.7l-0.8-0.3c0.5-1.2,0.9-2.4,1.2-3.7L108,65.9z M107.9,64l-0.7,0.5
	c-0.4-0.7-0.8-1.5-1.2-2.2l0.7-0.4C107.1,62.6,107.6,63.3,107.9,64L107.9,64z M111.1,65.8c-0.1,0.2-0.3,0.5-0.4,0.7h2.2v0.7
	c-0.2,0.5-0.6,1-1.1,1.4c0.7,0.3,1.5,0.6,2.2,0.7l-0.5,0.7c-0.9-0.2-1.7-0.5-2.5-1c-0.9,0.5-1.9,0.8-2.9,1l-0.4-0.7
	c0.9-0.1,1.8-0.4,2.6-0.8c-0.3-0.2-0.6-0.5-0.8-0.7c-0.3,0.3-0.6,0.5-0.9,0.7l-0.6-0.5c0.4-0.2,0.7-0.5,1-0.8
	c-0.1-0.2-0.2-0.3-0.3-0.5l0.6-0.4c0.1,0.1,0.1,0.2,0.2,0.3c0.3-0.3,0.6-0.7,0.8-1.1L111.1,65.8z M110.6,62.5v-0.7h0.8v0.7h2v0.7h-2
	v0.7h2.3v0.7h-1.2v0.5c0,0.1,0.1,0.2,0.2,0.2c0,0,0,0,0,0h1.1V66h-1.5c-0.4,0-0.6-0.2-0.6-0.5v-0.8h-1.5c-0.2,0.9-0.9,1.6-1.8,1.8
	l-0.4-0.6c0.7-0.2,1.2-0.6,1.5-1.2h-1.2v-0.7h2.3v-0.7h-1.9v-0.7L110.6,62.5L110.6,62.5z M111.2,68c0.4-0.2,0.7-0.6,0.9-0.9h-1.9
	c0,0-0.1,0.1-0.1,0.1C110.5,67.5,110.8,67.8,111.2,68L111.2,68z"/>
<path class="st1" d="M146.2,61.8c0.8,0.5,1.5,1,2.3,1.6l-0.5,0.7c-0.3-0.2-0.6-0.5-0.8-0.7v0.5h-2.1v-0.3c-0.4,0.3-0.8,0.7-1.3,1
	l-0.5-0.7c0.9-0.6,1.8-1.3,2.5-2L146.2,61.8L146.2,61.8z M148,69.9h-0.8v-0.3h-1.7v0.3h-0.8v-2.4c-0.1,0.9-0.5,1.7-0.9,2.4l-0.7-0.6
	c0.6-0.9,0.9-2,0.9-3.4v-1.7h3.8v2.6h-3c0,0.2,0,0.3-0.1,0.5h3.2L148,69.9L148,69.9z M144.9,66c0,0.1,0,0.2,0,0.4h2.2v-0.4L144.9,66
	L144.9,66L144.9,66z M147.1,64.9h-2.2v0.4h2.2V64.9z M147,63.3c-0.4-0.3-0.7-0.5-1-0.7c-0.2,0.2-0.4,0.5-0.7,0.7H147L147,63.3z
	 M147.2,69v-0.9h-1.7V69H147.2z M149,69.9l-0.2-0.8c0.4,0,0.8,0,1.2,0c0.2,0,0.3-0.1,0.3-0.2c0,0,0-0.1,0-0.1v-6.9h0.8V69
	c0,0.6-0.3,0.9-0.9,0.9L149,69.9L149,69.9z M149.6,62.4v5.6h-0.8v-5.6L149.6,62.4L149.6,62.4z"/>
<path class="st1" d="M181.8,68.2c-0.2,0.6-0.5,1.3-0.8,1.8l-0.7-0.5c0.3-0.5,0.6-1,0.8-1.5L181.8,68.2z M180.9,63.4v-0.7h2.9
	c-0.1-0.2-0.1-0.3-0.2-0.4l0.9-0.1c0.1,0.2,0.2,0.4,0.2,0.6h3.1v0.7h-1.4l-0.3,0.5h2.1v0.7h-7.7v-0.7h2l-0.2-0.5H180.9z M187.2,65
	v2.8h-5.9V65H187.2z M186.4,66.1v-0.4h-4.2v0.4H186.4z M186.4,66.7h-4.2v0.4h4.2V66.7z M183.4,70.2c-0.7,0-1-0.3-1-0.9v-1.1h0.9v0.9
	c0,0.2,0.1,0.3,0.4,0.3h1.8c0.1,0,0.2,0,0.3-0.1c0.1-0.1,0.2-0.3,0.2-0.7l0.8,0.3c-0.1,0.6-0.2,1-0.4,1.1c-0.2,0.1-0.5,0.2-0.8,0.2
	L183.4,70.2L183.4,70.2z M185.2,63.9l0.3-0.5h-2.3l0.2,0.5H185.2L185.2,63.9z M185.3,68.7l-0.7,0.5c-0.2-0.3-0.5-0.7-0.8-1l0.7-0.5
	C184.8,68.1,185.1,68.4,185.3,68.7L185.3,68.7z M188.4,69.5l-0.7,0.5c-0.3-0.5-0.7-1.1-1.1-1.6l0.7-0.4
	C187.7,68.4,188,68.9,188.4,69.5L188.4,69.5z"/>
</svg>
