<svg xmlns="http://www.w3.org/2000/svg" viewBox="0 0 689 390"><defs><style>.a,.d{opacity:0.4;}.b,.c,.d{fill:none;stroke:#ff5e00;stroke-linecap:round;stroke-linejoin:round;}.c{stroke-dasharray:4 4;}.d{stroke-dasharray:4;}.e{fill:#f37124;}</style></defs><title>spacing-1</title><g class="a"><polyline class="b" points="675 372 675 374 673 374"/><line class="c" x1="669" y1="374" x2="15" y2="374"/><polyline class="b" points="13 374 11 374 11 372"/><line class="c" x1="11" y1="368" x2="11" y2="18"/><polyline class="b" points="11 16 11 14 13 14"/><line class="c" x1="17" y1="14" x2="671" y2="14"/><polyline class="b" points="673 14 675 14 675 16"/><line class="c" x1="675" y1="20" x2="675" y2="370"/></g><line class="d" x1="129.5" y1="14" x2="129.5" y2="374"/><line class="d" x1="247.82" y1="14" x2="247.82" y2="374"/><line class="d" x1="558.5" y1="14" x2="558.5" y2="374"/><line class="d" x1="11" y1="133.5" x2="675" y2="133.5"/><line class="d" x1="11" y1="255" x2="675" y2="255"/><path class="e" d="M218.34,149.24a5.15,5.15,0,1,1,5.15-5.15h0a5.15,5.15,0,0,1-5.15,5.15h0Zm0-8.29a3.14,3.14,0,1,0,3.14,3.14h0a3.14,3.14,0,0,0-3.14-3.14h0Z"/><path class="e" d="M189.83,233.76l-33.7-19.54V175.44L189.83,156l33.68,19.45v38.78Zm-29.56-21.82L189.83,229l29.56-17.05V177.84l-29.58-17.08-29.53,17.08v34.11h0Z"/><rect class="e" x="153.38" y="193.07" width="72.09" height="4.12" transform="translate(-72.18 120.86) rotate(-30)"/><polygon class="e" points="159.87 190.29 185.64 175.42 185.66 180.21 159.39 195.32 159.87 190.29"/><polyline class="e" points="219.34 194.91 193.98 209.55 193.98 214.31 219.34 199.66"/><path class="e" d="M237.4,167.44A54.92,54.92,0,1,1,189.81,140v-4.1a59,59,0,1,0,51.09,29.48Z"/><path class="e" d="M288.39,211.27q-9.27,0-9.27-9.58V163.82q0-9.8,9.2-9.8h7.35q9.2,0,9.2,9.8v37.87q0,9.75-9.27,9.75h-7.19Zm1.84-6.95h4a2.83,2.83,0,0,0,3-3.35V164.3a3,3,0,0,0-3.54-3.33H290.1a3,3,0,0,0-3.35,3.35V201a3,3,0,0,0,3.42,3.35Z"/><path class="e" d="M349.08,154h15q8.79,0,8.79,9.8V178q0,7.5-4.55,9.58l5.36,24h-7.19l-5-23.16H356.7v22.94h-7.64V154h0Zm7.66,27.64h5q3.42,0,3.42-4.14V165.09q0.1-4.12-3.42-4.12h-5v20.69h0v0Z"/><path class="e" d="M418,211.27V154h7.66v57.27H418Z"/><path class="e" d="M469.66,211.27V154h19v7H477.32v17.44h10.06v6.92H477.32v19.16h11.33v6.78h-19v0Z"/><path class="e" d="M550.69,181.71V154h7.66v57.27h-7.66V199.89l-8.24-26.13v37.51h-7.66V154h7.66Z"/><path class="e" d="M289.14,235.68q-0.1.51-.24,1h8.38v1.72H288.2a8.21,8.21,0,0,1-1.72,2,16.77,16.77,0,0,1-7,2.4l-0.62-1.53a17.34,17.34,0,0,0,6.35-2,6.25,6.25,0,0,0,.84-0.89h-7v-1.72h8a5.42,5.42,0,0,1,.26-1H289Zm3.21-7.62a31.83,31.83,0,0,1-3.31.41v2h1a13.2,13.2,0,0,0,.77-1.8l1.53,0.55a8.74,8.74,0,0,1-.69,1.25H293V232h-3.88c1.17,0.48,2.4,1.05,3.62,1.7l-0.41.62h1a0.46,0.46,0,0,0,.46-0.55V226.6H282.68v9.32h-1.82v-11h5.58a9.29,9.29,0,0,0,.62-1.6l2,0.24a7.18,7.18,0,0,1-.62,1.34h7.19v9.41a1.53,1.53,0,0,1-1.75,1.68h-1.32l-0.38-1.51-0.5.77a29.89,29.89,0,0,0-2.61-1.92v1.84h-1.63V233a14.87,14.87,0,0,1-3.14,2.23l-0.86-1.53A15.78,15.78,0,0,0,287,232h-3.45v-1.56h1.34a8.65,8.65,0,0,0-.79-1.08l1.46-.55a10.63,10.63,0,0,1,.89,1.63h1v-1.92h-2.92L284,227.25a47.3,47.3,0,0,0,7.59-.43Zm5.44,13.44-1,1.56a51,51,0,0,0-8.1-2.59l0.93-1.44a53.67,53.67,0,0,1,8.21,2.4h0Z"/><path class="e" d="M370.29,233.89q-1.26,4.74-2.8,8.91l-2-.81q1.63-4.31,2.9-8.81Zm0-4.57-1.63,1.15a43.83,43.83,0,0,0-3.16-5.17l1.63-1a40.19,40.19,0,0,1,2.92,5h0.24v0Zm7.74,4.17c-0.29.55-.6,1.08-0.91,1.56h5.15v1.56a7.74,7.74,0,0,1-2.51,3.23,23.69,23.69,0,0,0,5.29,1.75l-1.22,1.75a23.57,23.57,0,0,1-5.89-2.4,26.78,26.78,0,0,1-7,2.4l-1-1.75a25.75,25.75,0,0,0,6.2-1.8,16.5,16.5,0,0,1-2-1.75,14.06,14.06,0,0,1-2.18,1.68l-1.51-1.32a16.26,16.26,0,0,0,2.4-1.8,12.36,12.36,0,0,1-.79-1.15l1.46-.84a7.66,7.66,0,0,0,.5.77,13.65,13.65,0,0,0,1.82-2.73Zm-1.32-8v-1.58h1.94v1.56h4.79v1.77h-4.79V229h5.6v1.77h-3.19v1.17a0.48,0.48,0,0,0,.45.5h2.76V234H380.8a1.27,1.27,0,0,1-1.53-1.32v-2h-3.52a5.77,5.77,0,0,1-4.31,4.29l-0.93-1.46a4.62,4.62,0,0,0,3.5-2.83h-3V229h5.44v-1.68H372V225.5h4.71Zm1.51,13.41a7.78,7.78,0,0,0,2.25-2.23h-4.6l-0.24.26a14.61,14.61,0,0,0,2.56,2h0Z"/><path class="e" d="M459.84,224.07a64.17,64.17,0,0,1,5.41,3.76l-1.15,1.56-2-1.6V229h-5v-0.79q-1.44,1.17-3.16,2.4L452.73,229a27.3,27.3,0,0,0,5.94-4.79h1.2Zm4.24,19.33h-1.89v-0.74h-4v0.77h-1.82V237.6a17,17,0,0,1-2.18,5.84l-1.56-1.39a14.66,14.66,0,0,0,2.08-8.07v-4h9.1v6.25h-7.19a2.8,2.8,0,0,1-.17,1.2H464v5.92h0Zm-7.3-9.39v0.86H462v-1.08h-5.25V234h0Zm5.22-2.4h-5.22v1H462v-1Zm-0.31-4.1a28.24,28.24,0,0,0-2.4-1.63,22.54,22.54,0,0,1-1.6,1.63h4Zm0.48,13.58v-2h-4v2.13h4v-0.13Zm4.31,2.18L466,241.33h2.92a0.67,0.67,0,0,0,.77-0.77v-16.5h2v17.12a1.84,1.84,0,0,1-2,2.08h-3.21Zm1.48-17.8V239h-2V225.48h2Z"/><path class="e" d="M543.12,239.37a14.37,14.37,0,0,1-2,4.36l-1.72-1.08a11.33,11.33,0,0,0,1.82-3.66Zm-2.4-11.71V226h7q-0.25-.54-0.5-1l2.18-.34c0.17,0.41.36,0.84,0.55,1.34h7.3v1.7H553.9L553.3,229h5v1.72H539.75V229h4.79l-0.5-1.27h-3.31v-0.07Zm15.33,4v6.59H542v-6.59h14Zm-2,2.59v-1.08H543.94v1h10.15Zm0,1.44H543.94v1h10.15v-1h0ZM546.91,244a2,2,0,0,1-2.4-2.18v-2.75h2v2.28a0.79,0.79,0,0,0,.77.81h4.41a1.13,1.13,0,0,0,.81-0.24,3,3,0,0,0,.46-1.68l1.89,0.6a3.88,3.88,0,0,1-.93,2.68,3.5,3.5,0,0,1-1.84.41h-5.17V244Zm4.36-15,0.62-1.27h-5.63l0.5,1.27h4.51Zm0.24,11.54-1.68,1.17a18.87,18.87,0,0,0-2-2.4l1.7-1.08a15.93,15.93,0,0,1,1.94,2.23h0v0.07h0Zm7.33,1.8-1.68,1.15a28.57,28.57,0,0,0-2.63-3.74l1.63-1a29,29,0,0,1,2.68,3.59h0Z"/></svg>