<?xml version="1.0" encoding="utf-8"?>
<!-- Generator: Adobe Illustrator 21.0.0, SVG Export Plug-In . SVG Version: 6.00 Build 0)  -->
<svg version="1.1" id="Layer_1" xmlns="http://www.w3.org/2000/svg" xmlns:xlink="http://www.w3.org/1999/xlink" x="0px" y="0px"
	 viewBox="0 0 492.3 257.7" style="enable-background:new 0 0 492.3 257.7;" xml:space="preserve">
<style type="text/css">
	.st0{fill:#231F20;}
	.st1{opacity:0.4;fill:#FFFFFF;}
	.st2{opacity:0.6;fill:#FFFFFF;}
	.st3{fill:#FFFFFF;}
	.st4{opacity:0.8;fill:#FFFFFF;}
	.st5{opacity:0.3;fill:#FFFFFF;}
</style>
<title>bkg</title>
<g id="bkg">
	<rect x="-13.7" y="-6.9" class="st0" width="519.7" height="271.5"/>
	<path class="st0" d="M492.3,257.7H0V0h492.3V257.7z M1,256.7h490.3V1H1L1,256.7z"/>
</g>
<path class="st1" d="M241.7,143.2c-2.8,0-5.1-2.3-5.1-5.1c0-2.8,2.3-5.1,5.1-5.1c2.8,0,5.1,2.3,5.1,5.1c0,0,0,0,0,0
	C246.8,141,244.5,143.2,241.7,143.2z M241.7,135c-1.7,0-3.1,1.4-3.1,3.1s1.4,3.1,3.1,3.1c1.7,0,3.1-1.4,3.1-3.1S243.4,135,241.7,135
	L241.7,135z"/>
<rect x="239.8" y="53.4" transform="matrix(0.7071 -0.7071 0.7071 0.7071 29.4186 187.3296)" class="st2" width="2" height="9.4"/>
<polygon class="st3" points="186.1,17.2 182.2,17.2 182.2,13.5 180.2,13.5 180.2,17.2 176.2,17.2 176.2,19.2 180.2,19.2 180.2,23.5 
	182.2,23.5 182.2,19.2 186.1,19.2 "/>
<polygon class="st3" points="105.5,227.2 101.5,227.2 101.5,223.5 99.5,223.5 99.5,227.2 95.5,227.2 95.5,229.2 99.5,229.2 
	99.5,233.4 101.5,233.4 101.5,229.2 105.5,229.2 "/>
<polygon class="st2" points="400.1,86.8 396.2,86.8 396.2,83.1 394.2,83.1 394.2,86.8 390.2,86.8 390.2,88.8 394.2,88.8 394.2,93.1 
	396.2,93.1 396.2,88.8 400.1,88.8 "/>
<polygon class="st4" points="339.9,20.8 337.1,18 339.7,15.4 338.3,14 335.7,16.6 332.9,13.8 331.5,15.2 334.3,18 331.3,21 
	332.7,22.4 335.7,19.4 338.5,22.2 "/>
<path class="st4" d="M49.2,37c1.7-0.1,3.2,1.3,3.2,3l2-0.1c-0.2-2.8-2.7-4.9-5.6-4.7c-2.6,0.2-4.6,2.4-4.7,5l2-0.1
	C46.1,38.5,47.5,37,49.2,37z"/>
<path class="st5" d="M97.9,106.3c1.3,1.2,1.3,3.2,0.1,4.4l1.5,1.4c2-2,2-5.2,0-7.3c-2-2-5.2-2-7.3,0c-0.1,0.1-0.2,0.2-0.3,0.3
	l1.5,1.4C94.7,105.2,96.6,105.1,97.9,106.3z"/>
<path class="st2" d="M30.3,188.4c-1.2,1.3-3.2,1.3-4.4,0.1l-1.4,1.5c2.1,1.9,5.3,1.8,7.2-0.2s1.8-5.3-0.2-7.2l0,0l-1.4,1.5
	C31.4,185.2,31.4,187.1,30.3,188.4z"/>
<path class="st3" d="M316.4,213.4c-2.8,0-5.1-2.3-5.1-5.1s2.3-5.1,5.1-5.1c2.8,0,5.1,2.3,5.1,5.1c0,0,0,0,0,0
	C321.5,211.1,319.2,213.4,316.4,213.4z M316.4,205.1c-1.7,0-3.1,1.4-3.1,3.1s1.4,3.1,3.1,3.1s3.1-1.4,3.1-3.1
	C319.5,206.5,318.1,205.2,316.4,205.1L316.4,205.1z"/>
<path class="st1" d="M229.3,238.7c0.8,1.5,0.3,3.4-1.2,4.3l1,1.7c2.5-1.3,3.5-4.4,2.1-6.9c-1.3-2.5-4.4-3.5-6.9-2.1
	c-0.1,0-0.2,0.1-0.3,0.2l1,1.7C226.6,236.6,228.5,237.2,229.3,238.7z"/>
<path class="st1" d="M458.2,188.4c-1.3,1.2-3.2,1.1-4.4-0.1l-1.5,1.4c2.1,1.9,5.3,1.8,7.3-0.2c1.8-1.9,1.8-4.8,0.2-6.8l-1.5,1.4
	C459.5,185.3,459.4,187.2,458.2,188.4z"/>
<path class="st5" d="M477.4,39.4c1.7,0.4,2.7,2.1,2.2,3.8l1.9,0.5c0.9-2.7-0.6-5.6-3.3-6.4c-2.7-0.9-5.6,0.6-6.4,3.3
	c-0.1,0.2-0.1,0.4-0.1,0.5l1.9,0.5C474,40,475.7,39,477.4,39.4z"/>
</svg>
