<svg id="Layer_1" data-name="Layer 1" xmlns="http://www.w3.org/2000/svg" viewBox="0 0 58 58"><title>icon_linkedin</title><polygon id="Fill-1" points="10.76 48.3 18.66 48.3 18.66 22.77 10.76 22.77 10.76 48.3" fill="#00a9e0"/><path id="Fill-2" d="M14.67,19.42A4.71,4.71,0,1,0,10,14.71a4.69,4.69,0,0,0,4.67,4.71" fill="#00a9e0"/><path id="Fill-3" d="M31.3,34.9c0-3.59,1.65-5.73,4.82-5.73,2.91,0,4.3,2.05,4.3,5.73V48.3h7.87V32.13C48.28,25.3,44.41,22,39,22a8.91,8.91,0,0,0-7.69,4.22V22.77H23.72V48.3H31.3Z" fill="#00a9e0"/></svg>