<svg id="Layer_1" data-name="Layer 1" xmlns="http://www.w3.org/2000/svg" viewBox="0 0 58 58"><title>icon_github</title><path id="Shape" d="M36.68,33.5a2.64,2.64,0,0,1,2.16,1.25,5.55,5.55,0,0,1,0,6.14,2.62,2.62,0,0,1-2.16,1.25,2.73,2.73,0,0,1-2.26-1.25,5.55,5.55,0,0,1,0-6.14,2.73,2.73,0,0,1,2.26-1.25M47.53,22.27a13.28,13.28,0,0,1,3.55,9.32A23,23,0,0,1,50.26,38a16,16,0,0,1-2.06,4.6,13.46,13.46,0,0,1-3.07,3.12,15.58,15.58,0,0,1-3.36,2,17.24,17.24,0,0,1-3.5,1,28.39,28.39,0,0,1-3,.39c-.67,0-1.38,0-2.16,0l-1.73,0c-.95,0-1.77.05-2.4.05s-1.45,0-2.4-.05l-1.73,0c-.78,0-1.49,0-2.16,0a28.28,28.28,0,0,1-3-.39,16.66,16.66,0,0,1-3.5-1,15.42,15.42,0,0,1-3.36-2A13.41,13.41,0,0,1,9.8,42.57,15.88,15.88,0,0,1,7.74,38a23,23,0,0,1-.82-6.38,13.27,13.27,0,0,1,3.55-9.32q-.39-.19,0-3.84A22.31,22.31,0,0,1,12,11.71c2.95.31,6.59,2,10.95,5a25.35,25.35,0,0,1,6-.58,23.87,23.87,0,0,1,6.05.58,40,40,0,0,1,5.69-3.26,18.62,18.62,0,0,1,4-1.44L46,11.71a22,22,0,0,1,1.56,6.73q.36,3.64,0,3.84M29.09,46.94c5.32,0,9.32-.64,12.05-1.91s4.08-3.91,4.08-7.87a7.4,7.4,0,0,0-2.59-5.77,5.82,5.82,0,0,0-3.12-1.53,24.81,24.81,0,0,0-5.43,0c-2.43.2-4.09.28-5,.28-1.21,0-2.52-.06-4.16-.19s-2.93-.21-3.86-.25a11.76,11.76,0,0,0-3,.34,6,6,0,0,0-2.69,1.34,7.41,7.41,0,0,0-2.49,5.77q0,6,4,7.87c2.68,1.28,6.67,1.91,12,1.91h.19M21.42,33.5a2.63,2.63,0,0,1,2.16,1.25,5.55,5.55,0,0,1,0,6.14,2.61,2.61,0,0,1-2.16,1.25,2.73,2.73,0,0,1-2.26-1.25,5.55,5.55,0,0,1,0-6.14,2.73,2.73,0,0,1,2.26-1.25" fill="#00a9e0"/></svg>