<svg id="Layer_1" data-name="Layer 1" xmlns="http://www.w3.org/2000/svg" viewBox="0 0 58 58"><title>icon_pinterest</title><path id="Page-1" d="M17.33,32.23a.9.9,0,0,0,1.31-.65c.12-.46.41-1.61.53-2.09A1.26,1.26,0,0,0,18.8,28a7.52,7.52,0,0,1-1.72-5.11c0-6.58,4.93-12.48,12.83-12.48,7,0,10.84,4.27,10.84,10,0,7.51-3.32,13.85-8.26,13.85a4,4,0,0,1-4.11-5c.78-3.3,2.3-6.86,2.3-9.25,0-2.13-1.15-3.91-3.51-3.91-2.79,0-5,2.88-5,6.74A10,10,0,0,0,23,27l-3.35,14.2a29.21,29.21,0,0,0-.08,9.9.35.35,0,0,0,.62.15c.26-.33,3.58-4.43,4.7-8.53.32-1.16,1.83-7.16,1.83-7.16.91,1.73,3.55,3.25,6.36,3.25,8.38,0,14.06-7.64,14.06-17.86C47.12,13.2,40.57,6,30.62,6,18.24,6,12,14.87,12,22.28c0,4.48,1.7,8.47,5.33,10" fill="#00a9e0"/></svg>