<svg xmlns="http://www.w3.org/2000/svg" xmlns:xlink="http://www.w3.org/1999/xlink" viewBox="0 0 32 32">
    <symbol id="nav" viewBox="0 0 32 32">
<g id="Menu_1_"><path d="M1,10h30c0.552,0,1-0.448,1-1c0-0.552-0.448-1-1-1H1C0.448,8,0,8.448,0,9C0,9.552,0.448,10,1,10z" /><path d="M31,15H1c-0.552,0-1,0.448-1,1c0,0.552,0.448,1,1,1h30c0.552,0,1-0.448,1-1C32,15.448,31.552,15,31,15z" /><path d="M31,22H11c-0.552,0-1,0.448-1,1s0.448,1,1,1h20c0.552,0,1-0.448,1-1S31.552,22,31,22z" /></g>
    </symbol>
    
     <use fill="orange" xlink:href="#nav" />
        </svg>